<?xml version="1.0" encoding="UTF-8"?>
<svg version="1.1" xmlns="http://www.w3.org/2000/svg" width="77" height="30">
<path d="M0 0 C25.41 0 50.82 0 77 0 C77 9.9 77 19.8 77 30 C51.59 30 26.18 30 0 30 C0 20.1 0 10.2 0 0 Z " fill="#143D87" transform="translate(0,0)"/>
<path d="M0 0 C13.06764176 -0.07778358 25.97514075 -0.05862426 39 1 C39 5.29 39 9.58 39 14 C37.02 14 35.04 14 33 14 C32.67 14.66 32.34 15.32 32 16 C31.67 15.67 31.34 15.34 31 15 C27.66381769 14.85742811 24.34024394 14.95771843 21 15 C19.68 19.62 18.36 24.24 17 29 C20.11332248 28.33131686 20.11332248 28.33131686 21.1875 25.9375 C21.455625 25.298125 21.72375 24.65875 22 24 C24.875 23.8125 24.875 23.8125 28 24 C30 27 30 27 30 30 C20.1 30 10.2 30 0 30 C0 20.1 0 10.2 0 0 Z " fill="#EDF3F8" transform="translate(0,0)"/>
<path d="M0 0 C0 9.9 0 19.8 0 30 C-3.3 30 -6.6 30 -10 30 C-9.01 29.67 -8.02 29.34 -7 29 C-6.19436362 26.89415562 -6.19436362 26.89415562 -5.8125 24.4375 C-5.65394531 23.61121094 -5.49539062 22.78492187 -5.33203125 21.93359375 C-5.22246094 21.29550781 -5.11289063 20.65742188 -5 20 C-7.64 20 -10.28 20 -13 20 C-13 20.99 -13 21.98 -13 23 C-12.01 23 -11.02 23 -10 23 C-10.33 24.32 -10.66 25.64 -11 27 C-15.875 26.125 -15.875 26.125 -17 25 C-16.75 21.5625 -16.75 21.5625 -16 18 C-13 16 -13 16 -9 16 C-9 16.66 -9 17.32 -9 18 C-7.35 18 -5.7 18 -4 18 C-4.66 16.68 -5.32 15.36 -6 14 C-9.63 14 -13.26 14 -17 14 C-17 9.71 -17 5.42 -17 1 C-14.3541898 0.832959 -11.70835369 0.66634934 -9.0625 0.5 C-8.30775391 0.45230469 -7.55300781 0.40460937 -6.77539062 0.35546875 C-1.11328125 0 -1.11328125 0 0 0 Z " fill="#F0F4FA" transform="translate(77,0)"/>
<path d="M0 0 C4.66666667 0 9.33333333 0 14 0 C13.34728444 3.51705958 12.48606976 6.89325077 11.4375 10.3125 C11.16808594 11.19550781 10.89867187 12.07851563 10.62109375 12.98828125 C10.41613281 13.65214844 10.21117187 14.31601562 10 15 C11.32 15 12.64 15 14 15 C14.12117188 14.21753906 14.24234375 13.43507813 14.3671875 12.62890625 C14.53476562 11.61699219 14.70234375 10.60507812 14.875 9.5625 C15.03742187 8.55316406 15.19984375 7.54382813 15.3671875 6.50390625 C15.57601562 5.67761719 15.78484375 4.85132813 16 4 C16.66 3.67 17.32 3.34 18 3 C18 6.96 18 10.92 18 15 C22.0906298 12.9546851 22.92891126 12.06764117 25.25 8.375 C25.77078125 7.55773437 26.2915625 6.74046875 26.828125 5.8984375 C27.21484375 5.27195312 27.6015625 4.64546875 28 4 C29.31625194 6.63250388 28.74813658 7.80179056 28.0625 10.625 C27.86785156 11.44226562 27.67320313 12.25953125 27.47265625 13.1015625 C27.31667969 13.72804688 27.16070312 14.35453125 27 15 C28.32 15 29.64 15 31 15 C31 13.35 31 11.7 31 10 C31.99 10 32.98 10 34 10 C34.28875 10.61875 34.5775 11.2375 34.875 11.875 C35.93720042 14.13325765 35.93720042 14.13325765 38 16 C28.43 16 18.86 16 9 16 C8.34 14.35 7.68 12.7 7 11 C5.02 11 3.04 11 1 11 C0.34 12.32 -0.32 13.64 -1 15 C-1.99 15 -2.98 15 -4 15 C-3.50341703 9.33895411 -2.45489316 5.12325529 0 0 Z " fill="#B9CDE9" transform="translate(21,14)"/>
<path d="M0 0 C0.08112454 2.58396679 0.14054748 5.16537568 0.1875 7.75 C0.21263672 8.47960938 0.23777344 9.20921875 0.26367188 9.9609375 C0.32379204 14.36974926 0.01247777 16.75229097 -3 20 C-3.33 20.99 -3.66 21.98 -4 23 C-4.66 23 -5.32 23 -6 23 C-5.505 18.545 -5.505 18.545 -5 14 C-9.5591444 14.87675854 -11.50872605 15.35358691 -14.375 19.125 C-14.91125 20.07375 -15.4475 21.0225 -16 22 C-16.33 22 -16.66 22 -17 22 C-17 15.07 -17 8.14 -17 1 C-13.0709375 0.7525 -13.0709375 0.7525 -9.0625 0.5 C-8.2362915 0.44779297 -7.41008301 0.39558594 -6.55883789 0.34179688 C-1.11111111 0 -1.11111111 0 0 0 Z " fill="#F2F4F6" transform="translate(59,0)"/>
<path d="M0 0 C6.93 0 13.86 0 21 0 C21 0.33 21 0.66 21 1 C15.72 1 10.44 1 5 1 C5 5.29 5 9.58 5 14 C5.99 14 6.98 14 8 14 C8 15.65 8 17.3 8 19 C8.8353125 17.7625 8.8353125 17.7625 9.6875 16.5 C12 14 12 14 14.75 13.6875 C15.86375 13.8421875 15.86375 13.8421875 17 14 C14.03 17.465 14.03 17.465 11 21 C11.33 21.763125 11.66 22.52625 12 23.3125 C13 26 13 26 13 29 C11.35 28.67 9.7 28.34 8 28 C7.67 26.68 7.34 25.36 7 24 C6.34 24 5.68 24 5 24 C4.67 25.65 4.34 27.3 4 29 C2.68 29 1.36 29 0 29 C0 19.43 0 9.86 0 0 Z " fill="#304F86" transform="translate(0,0)"/>
<path d="M0 0 C11.55 0 23.1 0 35 0 C35 0.33 35 0.66 35 1 C29.72 1 24.44 1 19 1 C19.33 7.6 19.66 14.2 20 21 C21.65 18.69 23.3 16.38 25 14 C28.3125 13.5625 28.3125 13.5625 31 14 C30.67 14.99 30.34 15.98 30 17 C30 16.34 30 15.68 30 15 C26.96566479 15.65437866 26.96566479 15.65437866 25.97265625 17.671875 C25.67230469 18.35765625 25.37195313 19.0434375 25.0625 19.75 C23.41359661 23.24919956 21.72007807 26.19217747 19 29 C18.01 29 17.02 29 16 29 C15.67 25.37 15.34 21.74 15 18 C13.515 23.445 13.515 23.445 12 29 C10.68 29 9.36 29 8 29 C9.92710706 18.44191344 9.92710706 18.44191344 12 14 C13.32 14 14.64 14 16 14 C16 9.71 16 5.42 16 1 C10.72 1 5.44 1 0 1 C0 0.67 0 0.34 0 0 Z " fill="#0A3582" transform="translate(23,0)"/>
<path d="M0 0 C4.95 0 9.9 0 15 0 C15 4.29 15 8.58 15 13 C13.02 13 11.04 13 9 13 C8.67 13.66 8.34 14.32 8 15 C7.34 14.34 6.68 13.68 6 13 C4.01178687 12.60235737 2.01055661 12.26224651 0 12 C0 8.04 0 4.08 0 0 Z " fill="#F5F6F9" transform="translate(24,1)"/>
<path d="M0 0 C0.08112454 2.58396679 0.14054748 5.16537568 0.1875 7.75 C0.21263672 8.47960938 0.23777344 9.20921875 0.26367188 9.9609375 C0.32379204 14.36974926 0.01247777 16.75229097 -3 20 C-3.33 20.99 -3.66 21.98 -4 23 C-4.66 23 -5.32 23 -6 23 C-5.505 18.545 -5.505 18.545 -5 14 C-7.31 14 -9.62 14 -12 14 C-12 13.34 -12 12.68 -12 12 C-9.69 12 -7.38 12 -5 12 C-4.06619039 7.46859347 -4.06619039 7.46859347 -5 3 C-7.64 3.33 -10.28 3.66 -13 4 C-13 4.66 -13 5.32 -13 6 C-13.99 6 -14.98 6 -16 6 C-16.33 7.32 -16.66 8.64 -17 10 C-17 7.03 -17 4.06 -17 1 C-14.3541898 0.832959 -11.70835369 0.66634934 -9.0625 0.5 C-8.30775391 0.45230469 -7.55300781 0.40460937 -6.77539062 0.35546875 C-1.11328125 0 -1.11328125 0 0 0 Z " fill="#DAE5EE" transform="translate(59,0)"/>
<path d="M0 0 C1.64574566 -0.02688151 3.29161413 -0.04634123 4.9375 -0.0625 C5.85402344 -0.07410156 6.77054688 -0.08570313 7.71484375 -0.09765625 C10 0 10 0 11 1 C11.28792759 3.73531209 11.34443368 5.41243666 9.9375 7.8125 C7.00731249 9.60842137 4.3527047 9.18977574 1 9 C0.34 10.98 -0.32 12.96 -1 15 C-1.99 15 -2.98 15 -4 15 C-3.50341703 9.33895411 -2.45489316 5.12325529 0 0 Z " fill="#153C86" transform="translate(21,14)"/>
<path d="M0 0 C0.33 0.66 0.66 1.32 1 2 C2.98 2 4.96 2 7 2 C6.67 4.31 6.34 6.62 6 9 C9.11332248 8.33131686 9.11332248 8.33131686 10.1875 5.9375 C10.455625 5.298125 10.72375 4.65875 11 4 C13.875 3.8125 13.875 3.8125 17 4 C19 7 19 7 19 10 C9.1 10 -0.8 10 -11 10 C-9.68 9.67 -8.36 9.34 -7 9 C-6.67 7.35 -6.34 5.7 -6 4 C-5.34 4 -4.68 4 -4 4 C-3.7525 4.639375 -3.505 5.27875 -3.25 5.9375 C-2.18437567 8.18741541 -2.18437567 8.18741541 0.125 8.75 C0.74375 8.8325 1.3625 8.915 2 9 C1.484375 8.071875 0.96875 7.14375 0.4375 6.1875 C-1 3 -1 3 0 0 Z " fill="#C7D8ED" transform="translate(11,20)"/>
<path d="M0 0 C0.33 0 0.66 0 1 0 C1 9.9 1 19.8 1 30 C-2.3 30 -5.6 30 -9 30 C-8.01 29.67 -7.02 29.34 -6 29 C-5.19436362 26.89415562 -5.19436362 26.89415562 -4.8125 24.4375 C-4.65394531 23.61121094 -4.49539062 22.78492187 -4.33203125 21.93359375 C-4.22246094 21.29550781 -4.11289063 20.65742188 -4 20 C-3.67 20.66 -3.34 21.32 -3 22 C-2.34 22 -1.68 22 -1 22 C-1.00523682 21.36908447 -1.01047363 20.73816895 -1.01586914 20.08813477 C-1.03657826 17.24626653 -1.04964066 14.40441412 -1.0625 11.5625 C-1.07087891 10.56927734 -1.07925781 9.57605469 -1.08789062 8.55273438 C-1.09111328 7.60849609 -1.09433594 6.66425781 -1.09765625 5.69140625 C-1.10289307 4.81685791 -1.10812988 3.94230957 -1.11352539 3.04125977 C-1 1 -1 1 0 0 Z " fill="#ADB9D2" transform="translate(76,0)"/>
<path d="M0 0 C1.32 0 2.64 0 4 0 C4.57446809 19.53191489 4.57446809 19.53191489 1 28 C0.67 28 0.34 28 0 28 C0 18.76 0 9.52 0 0 Z " fill="#F6F6F8" transform="translate(0,0)"/>
<path d="M0 0 C5.61 0 11.22 0 17 0 C17 0.33 17 0.66 17 1 C11.72 1 6.44 1 1 1 C1 5.29 1 9.58 1 14 C1.66 13.67 2.32 13.34 3 13 C4.49649362 12.87994547 5.99874793 12.82468549 7.5 12.8125 C8.2940625 12.79832031 9.088125 12.78414062 9.90625 12.76953125 C12 13 12 13 14 15 C14 15.99 14 16.98 14 18 C12.35 18 10.7 18 9 18 C9 17.34 9 16.68 9 16 C5.04 16.99 1.08 17.98 -3 19 C-2.01 17.515 -2.01 17.515 -1 16 C-0.69858629 13.2389367 -0.49142006 10.57926963 -0.375 7.8125 C-0.25125 5.234375 -0.1275 2.65625 0 0 Z " fill="#375284" transform="translate(59,0)"/>
<path d="M0 0 C11.55 0 23.1 0 35 0 C35 0.33 35 0.66 35 1 C29.72 1 24.44 1 19 1 C19.33 8.26 19.66 15.52 20 23 C19.34 23 18.68 23 18 23 C18 20.03 18 17.06 18 14 C17.34 14 16.68 14 16 14 C16 9.71 16 5.42 16 1 C10.72 1 5.44 1 0 1 C0 0.67 0 0.34 0 0 Z " fill="#6F84A2" transform="translate(23,0)"/>
<path d="M0 0 C1.31625194 2.63250388 0.74813658 3.80179056 0.0625 6.625 C-0.13214844 7.44226563 -0.32679687 8.25953125 -0.52734375 9.1015625 C-0.76130859 10.04128906 -0.76130859 10.04128906 -1 11 C0.32 11 1.64 11 3 11 C3 9.35 3 7.7 3 6 C3.99 6 4.98 6 6 6 C6.28875 6.61875 6.5775 7.2375 6.875 7.875 C7.93720042 10.13325765 7.93720042 10.13325765 10 12 C4.72 12 -0.56 12 -6 12 C-4.875 6.375 -4.875 6.375 -2.4375 3.1875 C-1.98246094 2.58292969 -1.52742188 1.97835938 -1.05859375 1.35546875 C-0.53458984 0.68451172 -0.53458984 0.68451172 0 0 Z " fill="#C0D3EB" transform="translate(49,18)"/>
<path d="M0 0 C0.99 0.66 1.98 1.32 3 2 C3 2.99 3 3.98 3 5 C4.32 4.67 5.64 4.34 7 4 C10 7.625 10 7.625 10 11 C8.35 10.67 6.7 10.34 5 10 C4.67 8.68 4.34 7.36 4 6 C3.34 6 2.68 6 2 6 C1.67 7.65 1.34 9.3 1 11 C-0.32 10.67 -1.64 10.34 -3 10 C-2.01 6.7 -1.02 3.4 0 0 Z " fill="#194088" transform="translate(3,18)"/>
<path d="M0 0 C0.99 0 1.98 0 3 0 C3.79953138 3.28696233 4.09658936 4.71023192 3 8 C3.66 8 4.32 8 5 8 C5.33 7.01 5.66 6.02 6 5 C6 7.31 6 9.62 6 12 C5.67 11.01 5.34 10.02 5 9 C4.01 9 3.02 9 2 9 C2 10.65 2 12.3 2 14 C0.68 14 -0.64 14 -2 14 C-1.85970581 11.8537974 -1.71261836 9.70803782 -1.5625 7.5625 C-1.48128906 6.36753906 -1.40007813 5.17257813 -1.31640625 3.94140625 C-1 1 -1 1 0 0 Z " fill="#194289" transform="translate(50,15)"/>
<path d="M0 0 C1.64574566 -0.02688151 3.29161413 -0.04634123 4.9375 -0.0625 C5.85402344 -0.07410156 6.77054688 -0.08570313 7.71484375 -0.09765625 C10 0 10 0 11 1 C11.04063832 2.66617115 11.042721 4.33388095 11 6 C6.545 6.495 6.545 6.495 2 7 C0 4 0 4 0 0 Z " fill="#0E3882" transform="translate(21,14)"/>
<path d="M0 0 C0.99 0.33 1.98 0.66 3 1 C3 4.96 3 8.92 3 13 C4.98 13 6.96 13 9 13 C9 13.33 9 13.66 9 14 C5.7 14.33 2.4 14.66 -1 15 C-1.02685412 12.68756208 -1.04632841 10.3750373 -1.0625 8.0625 C-1.07410156 6.77472656 -1.08570312 5.48695312 -1.09765625 4.16015625 C-1 1 -1 1 0 0 Z " fill="#AABAD7" transform="translate(21,0)"/>
<path d="M0 0 C2.31 0 4.62 0 7 0 C6.125 7.875 6.125 7.875 5 9 C3.00041636 9.04080783 0.99954746 9.04254356 -1 9 C-0.43628586 5.73045798 0.49962266 4.17424117 3 2 C2.01 1.34 1.02 0.68 0 0 Z " fill="#D3DFEE" transform="translate(13,13)"/>
<path d="M0 0 C2.875 -0.1875 2.875 -0.1875 6 0 C8 3 8 3 8 6 C5.36 6 2.72 6 0 6 C0 4.02 0 2.04 0 0 Z " fill="#F6F6F9" transform="translate(22,24)"/>
<path d="M0 0 C0 2.31 0 4.62 0 7 C-3.3 7 -6.6 7 -10 7 C-9.01 6.67 -8.02 6.34 -7 6 C-6.67 4.35 -6.34 2.7 -6 1 C-1.125 0 -1.125 0 0 0 Z " fill="#E2EAF5" transform="translate(77,23)"/>
<path d="M0 0 C0.886875 0.144375 1.77375 0.28875 2.6875 0.4375 C2.3575 1.4275 2.0275 2.4175 1.6875 3.4375 C1.6875 2.7775 1.6875 2.1175 1.6875 1.4375 C-1.36073002 2.09508182 -1.36073002 2.09508182 -2.375 4.1796875 C-2.684375 4.88351563 -2.99375 5.58734375 -3.3125 6.3125 C-4.62231871 9.27050726 -5.9030848 11.2608124 -8.3125 13.4375 C-8.92134503 8.44497079 -7.79254171 5.65503289 -4.82421875 1.78515625 C-3.3125 0.4375 -3.3125 0.4375 0 0 Z " fill="#103782" transform="translate(51.3125,13.5625)"/>
<path d="M0 0 C0.598125 0.20625 1.19625 0.4125 1.8125 0.625 C1.008125 1.099375 0.20375 1.57375 -0.625 2.0625 C-3.03503488 3.39400154 -3.03503488 3.39400154 -4.1875 4.625 C-1.7125 5.615 -1.7125 5.615 0.8125 6.625 C0.4825 7.945 0.1525 9.265 -0.1875 10.625 C-5.0625 9.75 -5.0625 9.75 -6.1875 8.625 C-5.9375 5.1875 -5.9375 5.1875 -5.1875 1.625 C-2.1875 -0.375 -2.1875 -0.375 0 0 Z " fill="#B5C8E4" transform="translate(66.1875,16.375)"/>
<path d="M0 0 C2.64 0 5.28 0 8 0 C7.67 2.31 7.34 4.62 7 7 C6.01 7.33 5.02 7.66 4 8 C3.67 6.35 3.34 4.7 3 3 C2.01 3 1.02 3 0 3 C0 2.01 0 1.02 0 0 Z " fill="#174287" transform="translate(64,20)"/>
<path d="M0 0 C0.66 0.33 1.32 0.66 2 1 C2 4.63 2 8.26 2 12 C0.02 12 -1.96 12 -4 12 C-4.33 12.66 -4.66 13.32 -5 14 C-5.66 13.01 -6.32 12.02 -7 11 C-4.625 9.9375 -4.625 9.9375 -2 9 C-1.34 9.33 -0.68 9.66 0 10 C0 6.7 0 3.4 0 0 Z " fill="#E8F1FB" transform="translate(37,2)"/>
<path d="M0 0 C-0.390625 6.0546875 -0.390625 6.0546875 -1 8 C-2.98 8.99 -2.98 8.99 -5 10 C-5 7.03 -5 4.06 -5 1 C-3 0 -3 0 0 0 Z " fill="#063484" transform="translate(61,18)"/>
<path d="M0 0 C0.99 0 1.98 0 3 0 C3.28875 0.61875 3.5775 1.2375 3.875 1.875 C4.93720042 4.13325765 4.93720042 4.13325765 7 6 C3.04 6 -0.92 6 -5 6 C-4.67 5.01 -4.34 4.02 -4 3 C-4 3.66 -4 4.32 -4 5 C-2.68 5 -1.36 5 0 5 C0 3.35 0 1.7 0 0 Z " fill="#D2DDF1" transform="translate(52,24)"/>
<path d="M0 0 C2.97 0 5.94 0 9 0 C8.54177532 3.46941546 8.10868317 6.67395049 7 10 C6.34 10 5.68 10 5 10 C5.33 7.03 5.66 4.06 6 1 C4.02 1 2.04 1 0 1 C0 0.67 0 0.34 0 0 Z " fill="#CFE2F4" transform="translate(48,13)"/>
<path d="M0 0 C2 2 2 2 2.125 5.125 C2.08375 6.07375 2.0425 7.0225 2 8 C-1 8 -1 8 -4 6 C-2.68 4.02 -1.36 2.04 0 0 Z " fill="#F8F6F7" transform="translate(18,5)"/>
<path d="M0 0 C0.33 0 0.66 0 1 0 C1 1.65 1 3.3 1 5 C2.98 4.34 4.96 3.68 7 3 C7.66 3.66 8.32 4.32 9 5 C7 7 7 7 3.5 7.3125 C2.345 7.209375 1.19 7.10625 0 7 C-0.66 6.01 -1.32 5.02 -2 4 C-1 1 -1 1 0 0 Z " fill="#08337D" transform="translate(22,16)"/>
<path d="M0 0 C0.33 0 0.66 0 1 0 C1 3.96 1 7.92 1 12 C2.32 11.67 3.64 11.34 5 11 C5 11.66 5 12.32 5 13 C3.35 13 1.7 13 0 13 C0 11.02 0 9.04 0 7 C-0.66 7 -1.32 7 -2 7 C-1.34 4.69 -0.68 2.38 0 0 Z " fill="#6485BF" transform="translate(38,17)"/>
<path d="M0 0 C1.18414294 3.55242882 0.69535532 4.69830562 -0.4375 8.1875 C-0.72496094 9.08855469 -1.01242188 9.98960938 -1.30859375 10.91796875 C-1.53675781 11.60503906 -1.76492187 12.29210938 -2 13 C-2.33 13 -2.66 13 -3 13 C-3 9.37 -3 5.74 -3 2 C-2.01 2 -1.02 2 0 2 C0 1.34 0 0.68 0 0 Z " fill="#E5F0FA" transform="translate(3,15)"/>
<path d="M0 0 C-1.65 1.98 -3.3 3.96 -5 6 C-5.33 5.34 -5.66 4.68 -6 4 C-6.66 3.67 -7.32 3.34 -8 3 C-5.53387212 -0.1151089 -3.89156016 -0.31553191 0 0 Z " fill="#173D7F" transform="translate(17,14)"/>
<path d="M0 0 C0.66 0 1.32 0 2 0 C2 1.32 2 2.64 2 4 C-0.64 4.66 -3.28 5.32 -6 6 C-4 4 -2 2 0 0 Z " fill="#194087" transform="translate(62,13)"/>
<path d="M0 0 C1.5 1.3125 1.5 1.3125 3 3 C3 3.99 3 4.98 3 6 C1.35 5.67 -0.3 5.34 -2 5 C-2 3.68 -2 2.36 -2 1 C-1.34 0.67 -0.68 0.34 0 0 Z " fill="#143B81" transform="translate(10,23)"/>
<path d="M0 0 C1.32 0 2.64 0 4 0 C3.67 1.65 3.34 3.3 3 5 C1.68 5 0.36 5 -1 5 C-0.67 3.35 -0.34 1.7 0 0 Z " fill="#BFD1EE" transform="translate(24,16)"/>
<path d="M0 0 C0.33 0.66 0.66 1.32 1 2 C2.98 2 4.96 2 7 2 C6.67 2.99 6.34 3.98 6 5 C4.02 5 2.04 5 0 5 C-0.5625 3.0625 -0.5625 3.0625 -1 1 C-0.67 0.67 -0.34 0.34 0 0 Z " fill="#98ABD1" transform="translate(11,20)"/>
<path d="M0 0 C0.33 0 0.66 0 1 0 C1.04254356 1.99954746 1.04080783 4.00041636 1 6 C0 7 0 7 -3.0625 7.0625 C-4.5165625 7.0315625 -4.5165625 7.0315625 -6 7 C-5.67 6.34 -5.34 5.68 -5 5 C-4.01 5 -3.02 5 -2 5 C-1.855625 4.360625 -1.71125 3.72125 -1.5625 3.0625 C-1 1 -1 1 0 0 Z " fill="#EEF6FE" transform="translate(18,15)"/>
<path d="M0 0 C2.31 0 4.62 0 7 0 C6.67 0.99 6.34 1.98 6 3 C3.5625 2.625 3.5625 2.625 1 2 C0.67 1.34 0.34 0.68 0 0 Z " fill="#D7E8FC" transform="translate(60,24)"/>
<path d="M0 0 C0.66 0 1.32 0 2 0 C1.44271087 3.34373475 0.64826111 6.03312999 -1 9 C-2.25541557 5.23375329 -1.37061958 3.62811066 0 0 Z " fill="#C4D8F3" transform="translate(33,14)"/>
</svg>
