<svg width="17" height="17" viewBox="0 0 17 17" fill="none" xmlns="http://www.w3.org/2000/svg">
<path d="M8.69531 0.927246C4.27865 0.927246 0.695312 4.51058 0.695312 8.92725C0.695312 13.3439 4.27865 16.9272 8.69531 16.9272C13.112 16.9272 16.6953 13.3439 16.6953 8.92725C16.6953 4.51058 13.112 0.927246 8.69531 0.927246ZM12.812 6.99391L8.11198 11.7106C7.96198 11.8606 7.74531 11.9606 7.52865 11.9606C7.31198 11.9606 7.09531 11.8772 6.94531 11.7106L4.57865 9.34391C4.24531 9.01058 4.24531 8.49391 4.57865 8.16058C4.91198 7.82725 5.42865 7.82725 5.76198 8.16058L7.52865 9.92725L11.6453 5.81058C11.9786 5.47725 12.4953 5.47725 12.8286 5.81058C13.1453 6.14391 13.1453 6.66058 12.812 6.99391Z" fill="white"/>
</svg>
