<svg width="13" height="13" viewBox="0 0 13 13" fill="none" xmlns="http://www.w3.org/2000/svg">
<path d="M11.6436 13H1.3563C0.608832 13 0 12.3917 0 11.6437V2.44011C0 1.69207 0.608832 1.08325 1.35683 1.08325H11.6429C12.391 1.08325 12.9998 1.6921 12.9998 2.44011V11.6437C12.9998 12.3917 12.3915 13 11.6435 13H11.6436ZM1.35699 2.16655C1.20638 2.16655 1.08342 2.28951 1.08342 2.44013V11.6437C1.08342 11.7943 1.20583 11.9167 1.35646 11.9167H11.6437C11.7943 11.9167 11.9168 11.7943 11.9168 11.6437V2.44013C11.9168 2.28951 11.7938 2.16655 11.6432 2.16655H1.35699ZM12.4584 4.33329H0.541953C0.24298 4.33329 0.000324994 4.09063 0.000324994 3.79165C0.000324994 3.49267 0.24298 3.25001 0.541953 3.25001H12.4584C12.7579 3.25001 13 3.49267 13 3.79165C13 4.09063 12.7579 4.33329 12.4584 4.33329ZM2.70851 2.70828C2.40954 2.70828 2.16688 2.46562 2.16688 2.16664V0.541638C2.16688 0.24266 2.40954 0 2.70851 0C3.00748 0 3.25014 0.24266 3.25014 0.541638V2.16664C3.25014 2.46562 3.00748 2.70828 2.70851 2.70828ZM10.2916 2.70828C9.99207 2.70828 9.74995 2.46562 9.74995 2.16664V0.541638C9.74995 0.24266 9.99207 0 10.2916 0C10.5911 0 10.8332 0.24266 10.8332 0.541638V2.16664C10.8332 2.46562 10.5911 2.70828 10.2916 2.70828Z" fill="#656565"/>
<path d="M3.79452 10.2919C3.79452 10.591 3.55198 10.8334 3.25273 10.8334C2.95348 10.8334 2.71094 10.591 2.71094 10.2919C2.71094 9.99287 2.95348 9.75049 3.25273 9.75049C3.55198 9.75049 3.79452 9.99287 3.79452 10.2919Z" fill="#656565"/>
<path d="M3.79452 8.12497C3.79452 8.42404 3.55198 8.66644 3.25273 8.66644C2.95348 8.66644 2.71094 8.42404 2.71094 8.12497C2.71094 7.8259 2.95348 7.5835 3.25273 7.5835C3.55198 7.5835 3.79452 7.8259 3.79452 8.12497Z" fill="#656565"/>
<path d="M5.41952 10.2919C5.41952 10.591 5.17698 10.8334 4.87773 10.8334C4.57848 10.8334 4.33594 10.591 4.33594 10.2919C4.33594 9.99287 4.57848 9.75049 4.87773 9.75049C5.17698 9.75049 5.41952 9.99287 5.41952 10.2919Z" fill="#656565"/>
<path d="M5.41952 8.12497C5.41952 8.42404 5.17698 8.66644 4.87773 8.66644C4.57848 8.66644 4.33594 8.42404 4.33594 8.12497C4.33594 7.8259 4.57848 7.5835 4.87773 7.5835C5.17698 7.5835 5.41952 7.8259 5.41952 8.12497Z" fill="#656565"/>
<path d="M5.41952 5.95802C5.41952 6.25707 5.17698 6.49945 4.87773 6.49945C4.57848 6.49945 4.33594 6.25707 4.33594 5.95802C4.33594 5.65898 4.57848 5.4165 4.87773 5.4165C5.17698 5.4165 5.41952 5.65898 5.41952 5.95802Z" fill="#656565"/>
<path d="M8.66952 10.2919C8.66952 10.591 8.42698 10.8334 8.12773 10.8334C7.82848 10.8334 7.58594 10.591 7.58594 10.2919C7.58594 9.99287 7.82848 9.75049 8.12773 9.75049C8.42698 9.75049 8.66952 9.99287 8.66952 10.2919Z" fill="#656565"/>
<path d="M8.66952 8.12497C8.66952 8.42404 8.42698 8.66644 8.12773 8.66644C7.82848 8.66644 7.58594 8.42404 7.58594 8.12497C7.58594 7.8259 7.82848 7.5835 8.12773 7.5835C8.42698 7.5835 8.66952 7.8259 8.66952 8.12497Z" fill="#656565"/>
<path d="M8.66952 5.95802C8.66952 6.25707 8.42698 6.49945 8.12773 6.49945C7.82848 6.49945 7.58594 6.25707 7.58594 5.95802C7.58594 5.65898 7.82848 5.4165 8.12773 5.4165C8.42698 5.4165 8.66952 5.65898 8.66952 5.95802Z" fill="#656565"/>
<path d="M10.2945 8.12497C10.2945 8.42404 10.052 8.66644 9.75273 8.66644C9.45348 8.66644 9.21094 8.42404 9.21094 8.12497C9.21094 7.8259 9.45348 7.5835 9.75273 7.5835C10.052 7.5835 10.2945 7.8259 10.2945 8.12497Z" fill="#656565"/>
<path d="M10.2945 5.95802C10.2945 6.25707 10.052 6.49945 9.75273 6.49945C9.45348 6.49945 9.21094 6.25707 9.21094 5.95802C9.21094 5.65898 9.45348 5.4165 9.75273 5.4165C10.052 5.4165 10.2945 5.65898 10.2945 5.95802Z" fill="#656565"/>
<path d="M7.04452 10.2919C7.04452 10.591 6.80198 10.8334 6.50273 10.8334C6.20348 10.8334 5.96094 10.591 5.96094 10.2919C5.96094 9.99287 6.20348 9.75049 6.50273 9.75049C6.80198 9.75049 7.04452 9.99287 7.04452 10.2919Z" fill="#656565"/>
<path d="M7.04452 8.12497C7.04452 8.42404 6.80198 8.66644 6.50273 8.66644C6.20348 8.66644 5.96094 8.42404 5.96094 8.12497C5.96094 7.8259 6.20348 7.5835 6.50273 7.5835C6.80198 7.5835 7.04452 7.8259 7.04452 8.12497Z" fill="#656565"/>
<path d="M7.04452 5.95802C7.04452 6.25707 6.80198 6.49945 6.50273 6.49945C6.20348 6.49945 5.96094 6.25707 5.96094 5.95802C5.96094 5.65898 6.20348 5.4165 6.50273 5.4165C6.80198 5.4165 7.04452 5.65898 7.04452 5.95802Z" fill="#656565"/>
</svg>
