<svg width="13" height="13" viewBox="0 0 13 13" fill="none" xmlns="http://www.w3.org/2000/svg">
<path d="M6.28696 12.5742C8.41285 12.5742 10.3778 11.5127 11.539 9.73764C12.2145 8.71127 12.5742 7.52107 12.5742 6.28698C12.5742 2.82179 9.75544 0 6.28723 0C2.82204 9.79279e-05 0 2.82204 0 6.28723C0 7.51834 0.356771 8.71137 1.03227 9.73489C2.19612 11.5128 4.16109 12.5742 6.28708 12.5742H6.28696ZM6.28696 11.697C4.72247 11.697 3.2634 11.0273 2.24853 9.87811C3.20766 8.62948 4.69605 7.89544 6.28696 7.89544C7.88062 7.89544 9.36616 8.63229 10.3254 9.88094C9.31067 11.0273 7.85152 11.697 6.28696 11.697ZM4.38625 4.5327C4.38625 3.48585 5.24011 2.632 6.28696 2.632C7.33381 2.632 8.18767 3.48585 8.18767 4.5327C8.18767 5.57956 7.33381 6.43341 6.28696 6.43341C5.24011 6.43341 4.38625 5.57956 4.38625 4.5327ZM6.28696 0.877516C9.26966 0.877516 11.6967 3.30458 11.6967 6.28723C11.6967 7.30774 11.4101 8.29612 10.8662 9.15589C9.95967 8.0739 8.70525 7.35163 7.31905 7.10891C8.33956 6.69662 9.06476 5.69942 9.06476 4.5325C9.06476 3.00022 7.81906 1.75458 6.28683 1.75458C4.7546 1.75458 3.50891 3.00027 3.50891 4.5325C3.50891 5.69929 4.23118 6.69932 5.25462 7.10891C3.86851 7.35162 2.61405 8.07097 1.70746 9.15589C1.16641 8.29615 0.87699 7.30777 0.87699 6.28723C0.87699 3.30453 3.30406 0.877516 6.28671 0.877516H6.28696Z" fill="#656565"/>
</svg>
