<svg width="20" height="20" viewBox="0 0 20 20" fill="none" xmlns="http://www.w3.org/2000/svg">
<circle cx="10" cy="10" r="9.5" stroke="#656565"/>
<path d="M13.358 9.34372L11.0718 6.84004C10.8612 6.60931 10.51 6.60931 10.2994 6.84004C10.0887 7.07077 10.0887 7.45528 10.2994 7.68601L11.6493 9.1728H6.65555C6.35124 9.1728 6.10938 9.43768 6.10938 9.77093C6.10938 10.1042 6.35124 10.3691 6.65555 10.3691H11.6493L10.2994 11.8473C10.0887 12.0781 10.0887 12.4626 10.2994 12.6933C10.4086 12.8129 10.5491 12.8728 10.6895 12.8728C10.8299 12.8728 10.9704 12.8129 11.0796 12.6933L13.358 10.1982C13.4595 10.0871 13.5219 9.93329 13.5219 9.77092C13.5219 9.60855 13.4672 9.45477 13.358 9.34367L13.358 9.34372Z" fill="#656565"/>
</svg>
