<svg width="28" height="28" viewBox="0 0 28 28" fill="none" xmlns="http://www.w3.org/2000/svg">
<path d="M20.303 1H2.9697C2.44736 1.00019 1.94647 1.20777 1.57712 1.57712C1.20777 1.94647 1.00019 2.44736 1 2.9697V17.1515C1.00019 17.6739 1.20777 18.1747 1.57712 18.5441C1.94647 18.9134 2.44736 19.121 2.9697 19.1212H8.9103C8.89061 18.8612 8.87879 18.5973 8.87879 18.3333C8.87699 16.1839 9.61101 14.0986 10.9588 12.4242H5.33333C4.811 12.4241 4.31011 12.2165 3.94076 11.8471C3.57141 11.4778 3.36383 10.9769 3.36364 10.4545V8.09091C3.36383 7.56857 3.57141 7.06768 3.94076 6.69833C4.31011 6.32898 4.811 6.1214 5.33333 6.12121H17.9394C18.4617 6.1214 18.9626 6.32898 19.332 6.69833C19.7013 7.06768 19.9089 7.56857 19.9091 8.09091V9.01273C20.7262 9.14825 21.5212 9.3934 22.2727 9.74152V2.9697C22.2725 2.44736 22.065 1.94647 21.6956 1.57712C21.3263 1.20777 20.8254 1.00019 20.303 1ZM7.30303 2.57576H7.69697C7.80145 2.57576 7.90165 2.61726 7.97553 2.69114C8.04941 2.76502 8.09091 2.86522 8.09091 2.9697C8.09091 3.07418 8.04941 3.17438 7.97553 3.24825C7.90165 3.32213 7.80145 3.36364 7.69697 3.36364H7.30303C7.19855 3.36364 7.09835 3.32213 7.02447 3.24825C6.9506 3.17438 6.90909 3.07418 6.90909 2.9697C6.90909 2.86522 6.9506 2.76502 7.02447 2.69114C7.09835 2.61726 7.19855 2.57576 7.30303 2.57576ZM5.33333 2.57576H5.72727C5.83175 2.57576 5.93195 2.61726 6.00583 2.69114C6.07971 2.76502 6.12121 2.86522 6.12121 2.9697C6.12121 3.07418 6.07971 3.17438 6.00583 3.24825C5.93195 3.32213 5.83175 3.36364 5.72727 3.36364H5.33333C5.22885 3.36364 5.12865 3.32213 5.05478 3.24825C4.9809 3.17438 4.93939 3.07418 4.93939 2.9697C4.93939 2.86522 4.9809 2.76502 5.05478 2.69114C5.12865 2.61726 5.22885 2.57576 5.33333 2.57576ZM3.36364 2.57576H3.75758C3.86206 2.57576 3.96226 2.61726 4.03613 2.69114C4.11001 2.76502 4.15152 2.86522 4.15152 2.9697C4.15152 3.07418 4.11001 3.17438 4.03613 3.24825C3.96226 3.32213 3.86206 3.36364 3.75758 3.36364H3.36364C3.25916 3.36364 3.15896 3.32213 3.08508 3.24825C3.0112 3.17438 2.9697 3.07418 2.9697 2.9697C2.9697 2.86522 3.0112 2.76502 3.08508 2.69114C3.15896 2.61726 3.25916 2.57576 3.36364 2.57576ZM14 4.93939H1.78788V4.15152H14C14.1045 4.15152 14.2047 4.19302 14.2786 4.2669C14.3524 4.34078 14.3939 4.44098 14.3939 4.54546C14.3939 4.64993 14.3524 4.75013 14.2786 4.82401C14.2047 4.89789 14.1045 4.93939 14 4.93939ZM18.3333 4.93939H15.5758C15.4713 4.93939 15.3711 4.89789 15.2972 4.82401C15.2233 4.75013 15.1818 4.64993 15.1818 4.54546C15.1818 4.44098 15.2233 4.34078 15.2972 4.2669C15.3711 4.19302 15.4713 4.15152 15.5758 4.15152H18.3333C18.4378 4.15152 18.538 4.19302 18.6119 4.2669C18.6858 4.34078 18.7273 4.44098 18.7273 4.54546C18.7273 4.64993 18.6858 4.75013 18.6119 4.82401C18.538 4.89789 18.4378 4.93939 18.3333 4.93939ZM20.303 4.93939H19.9091C19.8046 4.93939 19.7044 4.89789 19.6305 4.82401C19.5567 4.75013 19.5152 4.64993 19.5152 4.54546C19.5152 4.44098 19.5567 4.34078 19.6305 4.2669C19.7044 4.19302 19.8046 4.15152 19.9091 4.15152H20.303C20.4075 4.15152 20.5077 4.19302 20.5816 4.2669C20.6555 4.34078 20.697 4.44098 20.697 4.54546C20.697 4.64993 20.6555 4.75013 20.5816 4.82401C20.5077 4.89789 20.4075 4.93939 20.303 4.93939Z" fill="#FBD278"/>
<path d="M18.3347 9.66602C16.037 9.66873 13.8342 10.5827 12.2094 12.2074C10.5847 13.8321 9.67073 16.035 9.66802 18.3327C9.65996 20.5917 10.5449 22.7623 12.1301 24.3718L10.1762 26.3257C10.1216 26.3812 10.0847 26.4515 10.07 26.5279C10.0553 26.6043 10.0634 26.6833 10.0935 26.7551C10.1225 26.8274 10.1725 26.8894 10.2371 26.933C10.3018 26.9765 10.378 26.9996 10.4559 26.9994H18.3347C20.6332 26.9994 22.8376 26.0863 24.463 24.4609C26.0883 22.8356 27.0014 20.6312 27.0014 18.3327C27.0014 16.0341 26.0883 13.8297 24.463 12.2044C22.8376 10.5791 20.6332 9.66602 18.3347 9.66602ZM23.4559 20.3024C23.4557 20.8247 23.2481 21.3256 22.8788 21.695C22.5094 22.0643 22.0085 22.2719 21.4862 22.2721H19.9104C19.8257 22.2726 19.7431 22.2457 19.6749 22.1953C19.6068 22.1449 19.5568 22.0739 19.5324 21.9927C19.508 21.9115 19.5105 21.8247 19.5396 21.7451C19.5687 21.6655 19.6228 21.5975 19.6938 21.5512L20.1704 21.2321C20.3327 21.124 20.4658 20.9776 20.5579 20.8058C20.6499 20.634 20.6982 20.4422 20.6983 20.2472V19.9084C20.698 19.8041 20.6564 19.704 20.5826 19.6302C20.5088 19.5564 20.4088 19.5148 20.3044 19.5145H19.9104C19.5973 19.5136 19.2972 19.3888 19.0758 19.1673C18.8544 18.9459 18.7295 18.6458 18.7286 18.3327V15.969C18.7295 15.6559 18.8544 15.3558 19.0758 15.1344C19.2972 14.9129 19.5973 14.7881 19.9104 14.7872H22.2741C22.5872 14.7881 22.8873 14.9129 23.1087 15.1344C23.3302 15.3558 23.455 15.6559 23.4559 15.969V20.3024ZM17.9408 20.3024C17.9406 20.8247 17.733 21.3256 17.3636 21.695C16.9943 22.0643 16.4934 22.2719 15.9711 22.2721H14.3953C14.3106 22.2726 14.2279 22.2457 14.1598 22.1953C14.0916 22.1449 14.0416 22.0739 14.0172 21.9927C13.9928 21.9115 13.9954 21.8247 14.0245 21.7451C14.0536 21.6655 14.1076 21.5975 14.1786 21.5512L14.6553 21.2321C14.8175 21.124 14.9506 20.9776 15.0427 20.8058C15.1348 20.634 15.183 20.4422 15.1832 20.2472V19.9084C15.1829 19.8041 15.1413 19.704 15.0674 19.6302C14.9936 19.5564 14.8936 19.5148 14.7892 19.5145H14.3953C14.0821 19.5136 13.7821 19.3888 13.5606 19.1673C13.3392 18.9459 13.2144 18.6458 13.2135 18.3327V15.969C13.2144 15.6559 13.3392 15.3558 13.5606 15.1344C13.7821 14.9129 14.0821 14.7881 14.3953 14.7872H16.7589C17.0721 14.7881 17.3722 14.9129 17.5936 15.1344C17.815 15.3558 17.9398 15.6559 17.9408 15.969V20.3024Z" fill="#FFAD00"/>
</svg>
