<svg width="36" height="43" viewBox="0 0 36 43" fill="none" xmlns="http://www.w3.org/2000/svg">
<path fill-rule="evenodd" clip-rule="evenodd" d="M24.0856 39.2262C24.6912 39.8745 24.6912 40.9262 24.0856 41.5745C23.4796 42.2228 22.4974 42.2228 21.8918 41.5745L17.3693 36.7338C16.7636 36.0855 16.7636 35.0338 17.3693 34.3855L21.8918 29.5448C22.4974 28.8965 23.4796 28.8965 24.0852 29.5448C24.6912 30.1931 24.6912 31.2449 24.0852 31.8931L20.6598 35.5597L24.0856 39.2262ZM28.2872 31.8931C27.6812 31.2448 27.6812 30.1935 28.2872 29.5448C28.8929 28.8965 29.875 28.8965 30.481 29.5448L35.0032 34.3855C35.6088 35.0342 35.6088 36.0855 35.0032 36.7338L30.481 41.5745C29.8751 42.2228 28.8929 42.2228 28.2872 41.5745C27.6812 40.9262 27.6812 39.8748 28.2872 39.2262L31.7126 35.5596L28.2872 31.8931Z" fill="#FFB81D" fill-opacity="0.58"/>
<path fill-rule="evenodd" clip-rule="evenodd" d="M0.878906 4.90122C0.878906 2.22769 3.02632 0.0605469 5.6755 0.0605469H24.8619C27.511 0.0605469 29.6585 2.22769 29.6585 4.90122V24.2639C29.6585 25.155 28.9425 25.8775 28.0596 25.8775H21.3897C20.9657 25.8775 20.5592 26.0475 20.2591 26.35L13.2323 33.4414C12.7458 33.9326 12.6252 34.6829 12.9328 35.3042L15.0999 39.6781C15.3476 40.178 15.3212 40.7719 15.03 41.2477C14.7384 41.7235 14.2241 42.013 13.6698 42.013H5.6755C3.02632 42.013 0.878913 39.8459 0.878913 37.1724L0.878906 4.90122ZM10.4721 3.28766C9.58914 3.28766 8.87323 4.01016 8.87323 4.90122C8.87323 5.79228 9.58914 6.51478 10.4721 6.51478H20.0653C20.9482 6.51478 21.6641 5.79228 21.6641 4.90122C21.6641 4.01016 20.9482 3.28766 20.0653 3.28766H10.4721Z" fill="#FFB81D"/>
</svg>
