<svg width="48" height="43" viewBox="0 0 48 43" fill="none" xmlns="http://www.w3.org/2000/svg">
<path fill-rule="evenodd" clip-rule="evenodd" d="M27.536 8.34117L28.2149 10.4547C30.229 10.9059 32.1502 11.6962 33.8951 12.7912L35.8713 11.7702C36.2259 11.5856 36.6308 11.5185 37.0266 11.5789C37.4225 11.6392 37.7884 11.8238 38.0707 12.1055L40.302 14.3179C40.5849 14.5974 40.7706 14.9591 40.8319 15.3505C40.8932 15.7418 40.827 16.1423 40.6428 16.4938L39.6133 18.467C40.7172 20.1988 41.5135 22.1055 41.9677 24.1041L44.0912 24.7678C44.473 24.8861 44.8066 25.1226 45.043 25.4426C45.2795 25.7626 45.4064 26.1493 45.4052 26.546V28.3322H47.9248V3.26508C47.9248 2.52396 47.6279 1.8132 47.0995 1.28916C46.5711 0.76511 45.8545 0.470703 45.1072 0.470703H3.22193C2.47465 0.470703 1.75797 0.76511 1.22956 1.28916C0.701154 1.8132 0.404297 2.52396 0.404297 3.26508V28.3322H2.92391V26.5433C2.92275 26.1472 3.04924 25.7611 3.28494 25.4413C3.52063 25.1215 3.8532 24.8848 4.23411 24.7656L6.36631 24.0923C6.82115 22.0957 7.61784 20.1912 8.72174 18.4616L7.69222 16.5013C7.506 16.1497 7.43829 15.7481 7.49905 15.3556C7.5598 14.963 7.74582 14.6001 8.02979 14.3201L10.2606 12.1077C10.5425 11.8269 10.9075 11.6427 11.3023 11.5819C11.6971 11.5211 12.1011 11.5869 12.4557 11.7697L14.4448 12.7907C16.1898 11.6957 18.1113 10.9056 20.1256 10.4547L20.7942 8.34762C20.9134 7.96825 21.1521 7.63674 21.4751 7.40173C21.7982 7.16672 22.1887 7.04057 22.5894 7.04178H25.743C26.1424 7.04077 26.5317 7.16626 26.8542 7.39998C27.1768 7.6337 27.4156 7.96344 27.536 8.34117ZM35.4253 28.1092C35.4253 28.1828 35.4253 28.2581 35.4215 28.3322H12.9076C12.9076 28.2581 12.9032 28.1828 12.9032 28.1092C12.8929 26.6361 13.1766 25.1755 13.7379 23.8115C14.2992 22.4476 15.127 21.2073 16.1737 20.162C17.2205 19.1167 18.4653 18.2871 19.8367 17.721C21.2081 17.1548 22.6788 16.8634 24.1643 16.8634C25.6497 16.8634 27.1205 17.1548 28.4918 17.721C29.8632 18.2871 31.1081 19.1167 32.1548 20.162C33.2015 21.2073 34.0294 22.4476 34.5907 23.8115C35.152 25.1755 35.4356 26.6361 35.4253 28.1092ZM24.1646 15.5243C20.8004 15.5283 17.5752 16.8555 15.1964 19.2148C12.8177 21.5741 11.4797 24.7728 11.476 28.1092C11.476 28.1828 11.476 28.2581 11.4798 28.3322H4.35007V26.5433C4.34767 26.4471 4.37733 26.3529 4.43444 26.2752C4.49156 26.1974 4.57294 26.1406 4.66597 26.1134L7.19317 25.3154C7.31432 25.2772 7.42294 25.2075 7.50774 25.1135C7.59255 25.0196 7.65045 24.9049 7.67542 24.7812C8.1042 22.678 8.94157 20.6776 10.1409 18.8915C10.2117 18.7861 10.2527 18.6638 10.2595 18.5373C10.2664 18.4108 10.2389 18.2849 10.1799 18.1725L8.95745 15.8446C8.91076 15.7603 8.89343 15.663 8.90812 15.5679C8.92282 15.4728 8.96872 15.3851 9.03872 15.3185L11.2685 13.1061C11.3352 13.0369 11.423 12.9914 11.5184 12.9766C11.6138 12.9619 11.7114 12.9787 11.7962 13.0244L14.1554 14.2335C14.2683 14.2915 14.3947 14.3185 14.5216 14.3117C14.6485 14.3049 14.7713 14.2645 14.8772 14.1948C16.6795 13.0061 18.6982 12.1771 20.8202 11.7541C20.9457 11.7294 21.0622 11.6717 21.1575 11.5871C21.2528 11.5025 21.3235 11.3941 21.3621 11.2731L22.1559 8.77215C22.1831 8.67969 22.2404 8.59874 22.3188 8.54188C22.3972 8.48503 22.4923 8.45546 22.5894 8.45778H25.7435C25.8405 8.4554 25.9355 8.48481 26.0139 8.54146C26.0922 8.5981 26.1496 8.67881 26.177 8.77107L26.9822 11.2774C27.0212 11.398 27.092 11.506 27.1873 11.5903C27.2826 11.6746 27.3988 11.732 27.524 11.7568C29.6457 12.181 31.6636 13.0113 33.4649 14.2013C33.5712 14.2715 33.6946 14.312 33.8222 14.3187C33.9497 14.3254 34.0767 14.2981 34.1899 14.2394L36.5356 13.0277C36.6205 12.9811 36.7185 12.9638 36.8144 12.9784C36.9103 12.993 36.9986 13.0386 37.0655 13.1083L39.2969 15.3207C39.3668 15.387 39.4127 15.4743 39.4274 15.5692C39.4421 15.664 39.4248 15.7611 39.3782 15.8451L38.1552 18.1833C38.0969 18.2954 38.0699 18.4209 38.0769 18.5469C38.084 18.6728 38.1248 18.7946 38.1953 18.8996C39.3937 20.6873 40.2295 22.6894 40.6558 24.7941C40.6809 24.9189 40.7394 25.0347 40.8252 25.1293C40.911 25.2239 41.021 25.2937 41.1435 25.3315L43.6642 26.1188C43.7575 26.1457 43.8392 26.2024 43.8965 26.2802C43.9538 26.358 43.9836 26.4524 43.9812 26.5487V28.3344H36.8493C36.8493 28.2602 36.8531 28.1855 36.8531 28.1114C36.85 24.7746 35.5122 21.5753 33.1334 19.2156C30.7546 16.8558 27.5291 15.5283 24.1646 15.5243ZM47.9248 29.7466H0.404297V30.917C0.404297 31.6581 0.701154 32.3689 1.22956 32.893C1.75797 33.417 2.47465 33.7114 3.22193 33.7114H45.1072C45.4772 33.7114 45.8436 33.6391 46.1854 33.4987C46.5273 33.3583 46.8379 33.1524 47.0995 32.893C47.3612 32.6335 47.5687 32.3254 47.7103 31.9864C47.8519 31.6474 47.9248 31.284 47.9248 30.917V29.7466ZM29.5766 35.1285H18.7536C18.8007 36.1628 18.554 37.1895 18.0416 38.0916H30.2875C29.7755 37.1894 29.5295 36.1626 29.5777 35.1285H29.5766ZM34.1103 39.5071H24.2269H14.3435V40.9891C14.3439 41.382 14.5014 41.7585 14.7815 42.0363C15.0616 42.314 15.4413 42.4703 15.8374 42.4707H32.6175C33.0135 42.4703 33.3933 42.314 33.6733 42.0363C33.9534 41.7585 34.1109 41.382 34.1113 40.9891L34.1103 39.5071Z" fill="#FFAD00"/>
</svg>
