<svg width="43" height="43" viewBox="0 0 43 43" fill="none" xmlns="http://www.w3.org/2000/svg">
<path d="M0.916057 25.6308C0.91488 26.7425 1.27244 27.8253 1.9357 28.7195L2.03225 28.8507H2.03264C2.17237 29.0281 2.3223 29.1976 2.48086 29.3582L2.57741 29.4457H2.57781C2.7191 29.5804 2.86864 29.7062 3.02602 29.8222L3.17556 29.9359C3.35964 30.0597 3.55039 30.1738 3.74703 30.2769L3.89657 30.3558C4.08103 30.446 4.27179 30.5218 4.46803 30.5831L4.58224 30.6269C4.80871 30.7007 5.04106 30.7566 5.27656 30.7933H5.44376C5.69064 30.8402 5.94026 30.8695 6.19106 30.8808H26.4121V24.7559H0.916016L0.916057 25.6308ZM19.3787 26.5058C19.7343 26.5058 20.055 26.7191 20.1908 27.046C20.327 27.373 20.252 27.7492 20.0004 27.9995C19.7488 28.2499 19.3709 28.3245 19.0424 28.189C18.7138 28.0538 18.4995 27.7347 18.4995 27.3808C18.4995 26.8976 18.8932 26.5058 19.3787 26.5058Z" fill="#FFB81D"/>
<path d="M37.8413 17.7578V12.9017C37.1996 13.22 36.4923 13.3849 35.7753 13.3829H35.2654C33.7426 13.3829 32.3143 12.6493 31.432 11.4141C31.3127 11.5844 31.1804 11.745 31.0364 11.8954C30.0469 12.9556 28.6187 13.4985 27.1707 13.3645C25.7233 13.2309 24.4198 12.436 23.6427 11.2129C22.6497 12.5695 21.0653 13.3719 19.3786 13.3719C17.692 13.3719 16.1076 12.5695 15.1146 11.2129C14.3375 12.4359 13.034 13.2309 11.5865 13.3645C10.1387 13.4984 8.71039 12.9555 7.7209 11.8954C7.57685 11.745 7.44458 11.5844 7.32527 11.4141C6.44296 12.6493 5.0147 13.3829 3.49187 13.3829H2.98203C2.26495 13.3849 1.55766 13.22 0.916016 12.9017V23.0076H26.4121V22.1326C26.4121 20.9724 26.8752 19.8596 27.6994 19.0388C28.524 18.2185 29.6422 17.7576 30.8079 17.7576L37.8413 17.7578Z" fill="#FFB81D"/>
<path d="M24.8821 32.6309H13.8838L13.33 37.0058H11.4661C10.9806 37.0058 10.5869 37.3976 10.5869 37.8808C10.5869 38.364 10.9806 38.7558 11.4661 38.7558H26.4121V37.0058H25.4273L24.8821 32.6309Z" fill="#FFB81D"/>
<path d="M2.98215 11.6307H3.49199C4.23929 11.63 4.95835 11.3468 5.50354 10.8382C6.04871 10.33 6.37958 9.63388 6.42863 8.89209V8.38467L7.00873 0.255859H4.4328C3.8684 0.257812 3.31971 0.440237 2.86716 0.775384C2.41462 1.11093 2.08219 1.58202 1.91852 2.11947L0.16017 7.96431C0.133481 8.144 0.118566 8.32524 0.116211 8.50688V8.69946C0.120136 9.46195 0.42118 10.1935 0.955356 10.74C1.48992 11.2865 2.21644 11.6056 2.98218 11.6306L2.98215 11.6307Z" fill="#FFB81D"/>
<path d="M11.1594 11.6308C11.9404 11.6308 12.6896 11.3219 13.242 10.7722C13.7942 10.2226 14.1047 9.47696 14.1047 8.69957V0.255859H8.76801L8.30213 7.35188L8.22285 8.50697C8.16241 9.31594 8.44618 10.1132 9.00548 10.7035C9.56281 11.2968 10.343 11.6331 11.1595 11.6308L11.1594 11.6308Z" fill="#FFB81D"/>
<path d="M19.38 11.6307C20.3125 11.6307 21.2071 11.262 21.8668 10.6057C22.5262 9.94912 22.8967 9.05887 22.8967 8.13078V0.255859H15.8633V8.13078C15.8633 9.05889 16.2338 9.94916 16.8932 10.6057C17.5529 11.262 18.4475 11.6307 19.38 11.6307Z" fill="#FFB81D"/>
<path d="M27.5975 11.6307C28.4139 11.633 29.1942 11.2967 29.7515 10.7033C30.3108 10.1131 30.5946 9.31586 30.5342 8.50687L30.323 5.30461L29.989 0.255859H24.6523V8.69957C24.6523 9.4769 24.9628 10.2226 25.515 10.7722C26.0673 11.3219 26.8165 11.6308 27.5976 11.6308L27.5975 11.6307Z" fill="#FFB81D"/>
<path d="M32.3283 8.89221C32.3773 9.634 32.7082 10.3301 33.2533 10.8383C33.7985 11.3469 34.5175 11.6301 35.2649 11.6309H35.7747C36.3372 11.6305 36.8874 11.466 37.3572 11.1582C38.2046 10.625 38.7188 9.69732 38.7199 8.69963V8.50705C38.7321 8.32658 38.7321 8.14534 38.7199 7.96448L36.8737 2.11964C36.7084 1.57629 36.3705 1.10125 35.9109 0.765355C35.4513 0.429029 34.8944 0.250521 34.324 0.255981H31.6865L32.2317 8.38479L32.3283 8.89221Z" fill="#FFB81D"/>
<path d="M39.5991 19.5059H38.2101L37.586 20.1269H37.5856C37.42 20.291 37.1951 20.382 36.9616 20.3809H33.4449C33.2114 20.382 32.9865 20.291 32.8208 20.1269L32.1964 19.5059H30.8074C30.108 19.5059 29.4368 19.7824 28.9423 20.2746C28.4479 20.7668 28.1699 21.4348 28.1699 22.1308V39.6306C28.1699 40.3267 28.4478 40.9947 28.9423 41.4868C29.4369 41.9789 30.1081 42.2555 30.8074 42.2555H39.5991C40.2985 42.2555 40.9697 41.979 41.4642 41.4868C41.9586 40.9946 42.2366 40.3266 42.2366 39.6306V22.1308C42.2366 21.4347 41.9587 20.7667 41.4642 20.2746C40.9697 19.7825 40.2985 19.5059 39.5991 19.5059H39.5991ZM35.2032 40.5056C34.8476 40.5056 34.5269 40.2924 34.3911 39.9654C34.255 39.6385 34.3299 39.2623 34.5815 39.0119C34.8331 38.7615 35.2111 38.6869 35.5396 38.8225C35.8681 38.9576 36.0824 39.2768 36.0824 39.6306C36.0824 39.8627 35.9898 40.0853 35.8249 40.2494C35.6601 40.4135 35.4363 40.5056 35.2032 40.5056ZM39.5991 33.5057C39.5991 34.2018 39.3212 34.8698 38.8267 35.3619C38.3321 35.854 37.6609 36.1306 36.9616 36.1306H33.4449C32.7455 36.1306 32.0743 35.8541 31.5799 35.3619C31.0854 34.8697 30.8074 34.2017 30.8074 33.5057V29.1308C30.8074 28.6476 31.2011 28.2558 31.6866 28.2558H32.68C32.68 27.3585 33.1612 26.5296 33.9419 26.0808C34.7225 25.6324 35.6842 25.6324 36.4648 26.0808C37.2454 26.5296 37.7267 27.3585 37.7267 28.2558H38.72C38.9532 28.2558 39.1769 28.348 39.3417 28.512C39.5066 28.6761 39.5992 28.8987 39.5992 29.1308L39.5991 33.5057Z" fill="#FFB81D" fill-opacity="0.45"/>
<path d="M36.1977 28.2562C36.1977 27.7102 35.753 27.2676 35.2043 27.2676C34.6556 27.2676 34.2109 27.7102 34.2109 28.2562V28.3699H36.1977L36.1977 28.2562Z" fill="#FFB81D" fill-opacity="0.45"/>
<path d="M32.5654 33.5058C32.5654 33.7378 32.6581 33.9605 32.8229 34.1246C32.9877 34.2886 33.2115 34.3808 33.4446 34.3808H36.9613C37.1944 34.3808 37.4182 34.2886 37.583 34.1246C37.7478 33.9605 37.8405 33.7378 37.8405 33.5058V30.0059H32.5654V33.5058Z" fill="#FFB81D" fill-opacity="0.45"/>
</svg>
