<svg width="43" height="43" viewBox="0 0 43 43" fill="none" xmlns="http://www.w3.org/2000/svg">
<path d="M17.0085 6.7147L20.0344 0.714844H18.5215L15.4956 6.7147H17.0085Z" fill="#FFB81D"/>
<path d="M13.9826 6.7147L17.0085 0.714844H4.90502C4.06953 0.714844 3.39209 1.38648 3.39209 2.21481V6.7147H13.9826ZM10.9568 2.21481C11.7923 2.21481 12.4697 2.88644 12.4697 3.71477C12.4697 4.5431 11.7923 5.21474 10.9568 5.21474C10.1213 5.21474 9.44383 4.5431 9.44383 3.71477C9.44383 2.88644 10.1213 2.21481 10.9568 2.21481ZM6.41796 2.21481C7.25345 2.21481 7.93089 2.88644 7.93089 3.71477C7.93089 4.5431 7.25345 5.21474 6.41796 5.21474C5.58246 5.21474 4.90502 4.5431 4.90502 3.71477C4.90502 2.88644 5.58246 2.21481 6.41796 2.21481Z" fill="#FFB81D"/>
<path d="M39.7031 6.7147V2.21481C39.7031 1.38648 39.0256 0.714844 38.1901 0.714844H21.5478L18.522 6.7147H39.7031Z" fill="#FFB81D"/>
<path d="M3.39257 23.2148H0.366699V41.2144H3.39257C4.22806 41.2144 4.9055 40.5428 4.9055 39.7144V24.7148C4.9055 23.8865 4.22806 23.2148 3.39257 23.2148Z" fill="#FFB81D" fill-opacity="0.58"/>
<path d="M5.99871 23.2175H12.4699C13.2781 23.2175 14.0376 23.5296 14.6093 24.0964L16.7487 26.2161C18.5321 26.2174 23.5289 26.2205 23.901 26.2235C25.5689 26.2747 26.9329 27.3354 27.4128 28.7959L36.7428 23.8242C37.4865 23.4255 38.3226 23.2145 39.1602 23.2145C39.3422 23.2145 39.5225 23.2319 39.7025 23.2513V8.21484H3.39209V21.7145C4.50786 21.7145 5.47371 22.3236 5.99849 23.2175L5.99871 23.2175ZM26.3585 12.5412C26.038 12.2761 25.9944 11.803 26.2616 11.4842C26.529 11.1665 27.0055 11.1233 27.3277 11.3881L31.8665 15.138C32.0387 15.281 32.1384 15.4919 32.1384 15.7146C32.1384 15.9372 32.0387 16.1482 31.8665 16.2911L27.3277 20.0411C27.1859 20.1572 27.0147 20.2145 26.8438 20.2145C26.6266 20.2145 26.4115 20.1231 26.2616 19.945C25.9941 19.6262 26.0377 19.1531 26.3585 18.888L30.1999 15.7146L26.3585 12.5412ZM18.6297 19.0775L23.1685 11.5777C23.3843 11.2217 23.8541 11.1096 24.2056 11.3205C24.5646 11.5338 24.6815 11.9945 24.4657 12.3494L19.9269 19.8492C19.785 20.0836 19.5344 20.2132 19.2774 20.2132C19.1451 20.2132 19.0107 20.1787 18.8887 20.1064C18.5308 19.8934 18.4149 19.4327 18.6297 19.0775H18.6297ZM11.2289 15.1381L15.7677 11.3881C16.0899 11.123 16.5664 11.1662 16.8338 11.4842C17.1013 11.803 17.0577 12.2761 16.7369 12.5412L12.8954 15.7146L16.7369 18.8879C17.0574 19.1531 17.101 19.6262 16.8338 19.9449C16.6839 20.123 16.4688 20.2144 16.2516 20.2144C16.0811 20.2144 15.9095 20.1572 15.7677 20.041L11.2289 16.2911C11.0566 16.1481 10.957 15.9372 10.957 15.7145C10.957 15.4919 11.0566 15.2809 11.2289 15.138L11.2289 15.1381Z" fill="#FFB81D"/>
<path d="M40.9953 25.2211C39.9028 24.574 38.579 24.5458 37.4605 25.1448L27.5529 30.4251C27.3213 32.275 25.7442 33.716 23.8172 33.716H17.735C17.317 33.716 16.9786 33.3806 16.9786 32.9661C16.9786 32.5516 17.317 32.2161 17.735 32.2161H23.8172C25.0688 32.2161 26.0866 31.207 26.0866 29.9665C26.0866 28.7494 25.1052 27.7611 23.8868 27.7239C23.4339 27.7185 16.1225 27.7169 16.1225 27.7169L13.5397 25.1569C13.256 24.8757 12.871 24.7176 12.4699 24.7176L6.41846 24.7173V39.7178H9.08969L13.9831 41.2151C16.0162 41.863 18.1906 42.7147 20.5998 42.7147C22.7784 42.7147 24.9252 41.9985 26.7779 40.591L41.1862 31.137C42.1521 30.4811 42.7289 29.3973 42.7289 28.2401C42.7289 26.9906 42.0812 25.863 40.9951 25.2214L40.9953 25.2211Z" fill="#FFB81D" fill-opacity="0.58"/>
</svg>
