<svg width="55" height="42" viewBox="0 0 55 42" fill="none" xmlns="http://www.w3.org/2000/svg">
<path d="M48.2956 3.40117C48.2956 1.52158 46.7874 0 44.9355 0H3.3722C1.50916 0 0.000976562 1.52158 0.000976562 3.40117V7.20511H48.296L48.2956 3.40117ZM4.09286 4.75491C3.46076 4.75491 2.95062 4.24026 2.95062 3.60252C2.95062 2.96478 3.46074 2.45013 4.09286 2.45013C4.72498 2.45013 5.2351 2.96478 5.2351 3.60252C5.2351 4.24026 4.72498 4.75491 4.09286 4.75491ZM8.51761 4.75491C7.88551 4.75491 7.37537 4.24026 7.37537 3.60252C7.37537 2.96478 7.88549 2.45013 8.51761 2.45013C9.14973 2.45013 9.65985 2.96478 9.65985 3.60252C9.65985 4.24026 9.14973 4.75491 8.51761 4.75491ZM12.9424 4.75491C12.3103 4.75491 11.8001 4.24026 11.8001 3.60252C11.8001 2.96478 12.3102 2.45013 12.9424 2.45013C13.5745 2.45013 14.0846 2.96478 14.0846 3.60252C14.0846 4.24026 13.5745 4.75491 12.9424 4.75491ZM41.6311 4.72134H24.5536C23.9436 4.72134 23.4446 4.21789 23.4446 3.60254C23.4446 2.98719 23.9436 2.48373 24.5536 2.48373H41.6311C42.241 2.48373 42.7401 2.98719 42.7401 3.60254C42.7401 4.21789 42.241 4.72134 41.6311 4.72134Z" fill="#FFAD00"/>
<path d="M46.6319 29.9728C46.6319 32.1545 44.8797 33.9222 42.7173 33.9222C40.5549 33.9222 38.8027 32.1544 38.8027 29.9728C38.8027 27.7912 40.5549 26.0234 42.7173 26.0234C44.8797 26.0234 46.6319 27.7912 46.6319 29.9728Z" fill="#FFD67C"/>
<path d="M28.5888 26.1355L32.3592 19.5458L35.4088 20.2618C36.2184 19.6241 37.0945 19.1206 38.026 18.7179L38.9353 15.7083H46.4875L47.3968 18.7179C47.7073 18.8522 48.0068 18.9976 48.2951 19.1542V9.44336H0V32.5019C0 34.3703 1.50818 35.903 3.37122 35.903H29.7867L28.589 33.8109L30.7182 31.5061C30.6517 31.0026 30.6184 30.4879 30.6184 29.9733C30.6184 29.4587 30.6517 28.944 30.7182 28.4406L28.5888 26.1355ZM10.4132 25.7887C10.8901 26.1803 10.9455 26.8963 10.5574 27.3662C10.3356 27.6235 10.0251 27.7578 9.70353 27.7578C9.44847 27.7578 9.19341 27.6795 8.9938 27.5005L3.09416 22.4994C2.85019 22.2868 2.70602 21.9735 2.70602 21.6491C2.70602 21.3134 2.85018 21.0002 3.09416 20.7876L8.9938 15.7977C9.45956 15.3949 10.1582 15.4621 10.5574 15.932C10.9455 16.4019 10.8901 17.1067 10.4132 17.5095L5.53384 21.649L10.4132 25.7887ZM16.8895 16.9278L13.973 28.4287C13.851 28.9322 13.3963 29.2679 12.8973 29.2679C12.8086 29.2679 12.7199 29.2567 12.6201 29.2343C12.0323 29.0777 11.6775 28.4735 11.8216 27.8694L14.7382 16.3684C14.8934 15.7754 15.4923 15.4062 16.0911 15.5629C16.6899 15.7195 17.0448 16.3236 16.8895 16.9278ZM25.473 22.4994L19.5734 27.5005C19.3738 27.6795 19.1187 27.7578 18.8637 27.7578C18.5532 27.7578 18.2316 27.6235 18.0098 27.3662C17.6216 26.8963 17.6771 26.1803 18.1539 25.7887L23.0333 21.6492L18.1539 17.5096C17.6771 17.1068 17.6216 16.402 18.0098 15.9321C18.409 15.4622 19.1077 15.3951 19.5734 15.7978L25.473 20.7878C25.717 21.0003 25.8612 21.3136 25.8612 21.6492C25.8612 21.9737 25.717 22.2868 25.473 22.4994Z" fill="#FFAD00"/>
<path d="M52.5867 29.9725C52.5867 29.2005 52.498 28.4621 52.3316 27.7349L54.0949 25.8217L51.9657 22.0961L49.4373 22.6891C48.3505 21.6709 47.053 20.8878 45.6003 20.4403L44.8462 17.9453H40.5768L39.8227 20.4403C38.3699 20.8878 37.0725 21.671 35.9857 22.6891L33.4573 22.0961L31.3281 25.8217L33.0914 27.7349C32.925 28.4621 32.8363 29.2005 32.8363 29.9725C32.8363 30.7444 32.925 31.4941 33.0914 32.2101L31.3281 34.1233L33.4573 37.8489L35.9857 37.2559C37.0725 38.274 38.37 39.0572 39.8227 39.5047L40.5768 41.9997H44.8462L45.6003 39.5047C47.0531 39.0572 48.3505 38.274 49.4373 37.2559L51.9657 37.8489L54.0949 34.1233L52.3316 32.2101C52.498 31.4941 52.5867 30.7444 52.5867 29.9725ZM42.7172 36.1595C39.3238 36.1595 36.5847 33.396 36.5847 29.9725C36.5847 26.5601 39.3238 23.7855 42.7172 23.7855C46.0995 23.7855 48.8497 26.5601 48.8497 29.9725C48.8497 33.396 46.0995 36.1595 42.7172 36.1595Z" fill="#FFD67C"/>
</svg>
