<svg width="86" height="13" viewBox="0 0 86 13" fill="none" xmlns="http://www.w3.org/2000/svg">
<path d="M7.0881 0.406714L8.58593 3.51019C8.69553 3.73643 8.90744 3.89103 9.15068 3.92258L12.1392 4.30079H12.139C12.3272 4.32651 12.4983 4.42651 12.6164 4.57967C12.7346 4.73283 12.7906 4.92729 12.7727 5.12212C12.7548 5.31696 12.6644 5.49705 12.5204 5.62461L10.1884 7.67281C10.0872 7.76067 10.0111 7.87505 9.96777 8.00394C9.92454 8.13269 9.91584 8.27121 9.9427 8.40471L10.6375 11.8542C10.6764 12.0466 10.6411 12.247 10.5392 12.4131C10.4373 12.5792 10.2766 12.6978 10.0913 12.7439C9.90613 12.7899 9.71071 12.7598 9.54662 12.6598L6.75251 10.971C6.64099 10.9046 6.51463 10.8696 6.38586 10.8696C6.25708 10.8696 6.13072 10.9046 6.01921 10.971L3.22883 12.673H3.2287C3.06462 12.773 2.86932 12.8032 2.68401 12.7572C2.49883 12.7111 2.33822 12.5925 2.23627 12.4264C2.13421 12.2603 2.09904 12.0598 2.13779 11.8673L2.82902 8.40437C2.85588 8.27086 2.84718 8.13234 2.80396 8.00359C2.7606 7.87471 2.68451 7.76033 2.58335 7.67247L0.254885 5.64879C0.110757 5.52082 0.0204643 5.34009 0.00307306 5.14471C-0.0143198 4.94933 0.0425896 4.75461 0.161784 4.60159C0.280975 4.44869 0.453113 4.34949 0.641744 4.32495L3.89791 3.92971C4.15727 3.89805 4.38069 3.72669 4.48467 3.4796L5.76802 0.453565V0.453697C5.84258 0.279164 5.97814 0.140118 6.14786 0.0644078C6.31744 -0.0113156 6.50865 -0.0181746 6.68296 0.0452792C6.85727 0.108602 7.00191 0.237621 7.08811 0.406335L7.0881 0.406714Z" fill="#F76600"/>
<path d="M25.364 0.406958L26.8618 3.51043C26.9714 3.73668 27.1833 3.89128 27.4266 3.92282L30.4151 4.30103H30.4149C30.603 4.32676 30.7742 4.42676 30.8923 4.57992C31.0105 4.73307 31.0665 4.92753 31.0486 5.12236C31.0307 5.31721 30.9403 5.4973 30.7963 5.62485L28.4643 7.67306C28.3631 7.76092 28.287 7.87529 28.2436 8.00418C28.2004 8.13294 28.1917 8.27145 28.2186 8.40495L28.9134 11.8544C28.9523 12.0469 28.917 12.2473 28.8151 12.4134C28.7131 12.5795 28.5525 12.6981 28.3672 12.7441C28.182 12.7901 27.9866 12.7601 27.8225 12.6601L25.0284 10.9712C24.9169 10.9049 24.7905 10.8699 24.6617 10.8699C24.533 10.8699 24.4066 10.9049 24.2951 10.9712L21.5047 12.6732H21.5046C21.3405 12.7732 21.1452 12.8035 20.9599 12.7574C20.7747 12.7114 20.6141 12.5928 20.5121 12.4267C20.4101 12.2606 20.3749 12.0601 20.4137 11.8676L21.1049 8.40461C21.1318 8.27111 21.1231 8.13259 21.0798 8.00384C21.0365 7.87495 20.9604 7.76058 20.8592 7.67271L18.5308 5.64903C18.3866 5.52107 18.2963 5.34034 18.279 5.14495C18.2616 4.94957 18.3185 4.75485 18.4377 4.60183C18.5569 4.44893 18.729 4.34973 18.9176 4.32519L22.1738 3.92996C22.4331 3.8983 22.6566 3.72693 22.7605 3.47984L24.0439 0.453809V0.453941C24.1185 0.279408 24.254 0.140362 24.4237 0.064652C24.5933 -0.0110715 24.7845 -0.0179305 24.9588 0.0455233C25.1331 0.108846 25.2778 0.237865 25.364 0.406579L25.364 0.406958Z" fill="#F76600"/>
<path d="M43.6369 0.406958L45.1348 3.51043C45.2444 3.73668 45.4563 3.89128 45.6995 3.92282L48.688 4.30103H48.6879C48.876 4.32676 49.0471 4.42676 49.1653 4.57992C49.2834 4.73307 49.3395 4.92753 49.3216 5.12236C49.3037 5.31721 49.2132 5.4973 49.0692 5.62485L46.7372 7.67306C46.636 7.76092 46.5599 7.87529 46.5166 8.00418C46.4734 8.13294 46.4647 8.27145 46.4915 8.40495L47.1864 11.8544C47.2252 12.0469 47.1899 12.2473 47.088 12.4134C46.9861 12.5795 46.8255 12.6981 46.6401 12.7441C46.455 12.7901 46.2595 12.7601 46.0954 12.6601L43.3013 10.9712C43.1898 10.9049 43.0635 10.8699 42.9347 10.8699C42.8059 10.8699 42.6795 10.9049 42.568 10.9712L39.7777 12.6732H39.7775C39.6134 12.7732 39.4181 12.8035 39.2328 12.7574C39.0477 12.7114 38.887 12.5928 38.7851 12.4267C38.683 12.2606 38.6479 12.0601 38.6866 11.8676L39.3778 8.40461C39.4047 8.27111 39.396 8.13259 39.3528 8.00384C39.3094 7.87495 39.2333 7.76058 39.1322 7.67271L36.8037 5.64903C36.6596 5.52107 36.5693 5.34034 36.5519 5.14495C36.5345 4.94957 36.5914 4.75485 36.7106 4.60183C36.8298 4.44893 37.0019 4.34973 37.1906 4.32519L40.4467 3.92996C40.7061 3.8983 40.9295 3.72693 41.0335 3.47984L42.3168 0.453809V0.453941C42.3914 0.279408 42.527 0.140362 42.6967 0.064652C42.8663 -0.0110715 43.0575 -0.0179305 43.2318 0.0455233C43.4061 0.108846 43.5507 0.237865 43.6369 0.406579L43.6369 0.406958Z" fill="#F76600"/>
<path d="M61.9118 0.406958L63.4097 3.51043C63.5193 3.73668 63.7312 3.89128 63.9744 3.92282L66.9629 4.30103H66.9628C67.1509 4.32676 67.322 4.42676 67.4402 4.57992C67.5583 4.73307 67.6144 4.92753 67.5965 5.12236C67.5786 5.31721 67.4881 5.4973 67.3441 5.62485L65.0121 7.67306C64.9109 7.76092 64.8349 7.87529 64.7915 8.00418C64.7483 8.13294 64.7396 8.27145 64.7664 8.40495L65.4613 11.8544C65.5001 12.0469 65.4648 12.2473 65.3629 12.4134C65.261 12.5795 65.1004 12.6981 64.915 12.7441C64.7299 12.7901 64.5344 12.7601 64.3704 12.6601L61.5762 10.9712C61.4647 10.9049 61.3384 10.8699 61.2096 10.8699C61.0808 10.8699 60.9544 10.9049 60.8429 10.9712L58.0526 12.6732H58.0524C57.8883 12.7732 57.693 12.8035 57.5077 12.7574C57.3226 12.7114 57.1619 12.5928 57.06 12.4267C56.9579 12.2606 56.9228 12.0601 56.9615 11.8676L57.6528 8.40461C57.6796 8.27111 57.6709 8.13259 57.6277 8.00384C57.5843 7.87495 57.5082 7.76058 57.4071 7.67271L55.0786 5.64903C54.9345 5.52107 54.8442 5.34034 54.8268 5.14495C54.8094 4.94957 54.8663 4.75485 54.9855 4.60183C55.1047 4.44893 55.2768 4.34973 55.4655 4.32519L58.7216 3.92996C58.981 3.8983 59.2044 3.72693 59.3084 3.47984L60.5918 0.453809V0.453941C60.6663 0.279408 60.8019 0.140362 60.9716 0.064652C61.1412 -0.0110715 61.3324 -0.0179305 61.5067 0.0455233C61.681 0.108846 61.8256 0.237865 61.9118 0.406579L61.9118 0.406958Z" fill="#F76600"/>
<path d="M80.1823 0.40476L81.6802 3.50823C81.7898 3.73448 82.0017 3.88908 82.2449 3.92062L85.2334 4.29884H85.2333C85.4214 4.32456 85.5925 4.42456 85.7107 4.57772C85.8288 4.73088 85.8849 4.92533 85.867 5.12016C85.8491 5.31501 85.7586 5.4951 85.6146 5.62266L83.2826 7.67086C83.1815 7.75872 83.1054 7.8731 83.062 8.00198C83.0188 8.13074 83.0101 8.26926 83.0369 8.40275L83.7318 11.8522C83.7706 12.0447 83.7353 12.2451 83.6334 12.4112C83.5315 12.5773 83.3709 12.6959 83.1855 12.7419C83.0004 12.788 82.8049 12.7579 82.6409 12.6579L79.8467 10.969C79.7352 10.9027 79.6089 10.8677 79.4801 10.8677C79.3513 10.8677 79.225 10.9027 79.1134 10.969L76.3231 12.671H76.3229C76.1589 12.771 75.9636 12.8013 75.7783 12.7552C75.5931 12.7092 75.4325 12.5906 75.3305 12.4245C75.2284 12.2584 75.1933 12.0579 75.232 11.8654L75.9233 8.40241C75.9501 8.26891 75.9414 8.13039 75.8982 8.00164C75.8548 7.87275 75.7787 7.75838 75.6776 7.67052L73.3491 5.64683C73.205 5.51887 73.1147 5.33814 73.0973 5.14275C73.0799 4.94738 73.1368 4.75265 73.256 4.59963C73.3752 4.44674 73.5474 4.34753 73.736 4.32299L76.9921 3.92776C77.2515 3.8961 77.4749 3.72473 77.5789 3.47765L78.8623 0.451612V0.451744C78.9368 0.277211 79.0724 0.138165 79.2421 0.0624547C79.4117 -0.0132688 79.6029 -0.0201277 79.7772 0.0433261C79.9515 0.106649 80.0961 0.235668 80.1823 0.404382L80.1823 0.40476Z" fill="#F76600"/>
<mask id="mask0_1830_588" style="mask-type:alpha" maskUnits="userSpaceOnUse" x="73" y="0" width="13" height="13">
<path d="M80.1823 0.404516L81.6802 3.50799C81.7898 3.73424 82.0017 3.88884 82.2449 3.92038L85.2334 4.29859H85.2333C85.4214 4.32432 85.5925 4.42431 85.7107 4.57747C85.8288 4.73063 85.8849 4.92509 85.867 5.11992C85.8491 5.31477 85.7586 5.49486 85.6146 5.62241L83.2826 7.67061C83.1815 7.75848 83.1054 7.87285 83.062 8.00174C83.0188 8.13049 83.0101 8.26901 83.0369 8.40251L83.7318 11.852C83.7706 12.0445 83.7353 12.2448 83.6334 12.4109C83.5315 12.577 83.3709 12.6956 83.1855 12.7417C83.0004 12.7877 82.8049 12.7576 82.6409 12.6576L79.8467 10.9688C79.7352 10.9024 79.6089 10.8674 79.4801 10.8674C79.3513 10.8674 79.225 10.9024 79.1134 10.9688L76.3231 12.6708H76.3229C76.1589 12.7708 75.9636 12.801 75.7783 12.755C75.5931 12.7089 75.4325 12.5903 75.3305 12.4242C75.2284 12.2582 75.1933 12.0576 75.232 11.8651L75.9233 8.40217C75.9501 8.26867 75.9414 8.13015 75.8982 8.0014C75.8548 7.87251 75.7787 7.75813 75.6776 7.67027L73.3491 5.64659C73.205 5.51862 73.1147 5.33789 73.0973 5.14251C73.0799 4.94713 73.1368 4.75241 73.256 4.59939C73.3752 4.44649 73.5474 4.34729 73.736 4.32275L76.9921 3.92752C77.2515 3.89585 77.4749 3.72449 77.5789 3.4774L78.8623 0.451368V0.4515C78.9368 0.276967 79.0724 0.137921 79.2421 0.0622106C79.4117 -0.0135129 79.6029 -0.0203719 79.7772 0.0430819C79.9515 0.106404 80.0961 0.235423 80.1823 0.404138L80.1823 0.404516Z" fill="#FFCC00"/>
</mask>
<g mask="url(#mask0_1830_588)">
<rect x="81.814" y="-1" width="9" height="19" fill="#D2A586"/>
</g>
</svg>
