<svg width="28" height="28" viewBox="0 0 28 28" fill="none" xmlns="http://www.w3.org/2000/svg">
<path d="M22.846 12.6095C23.1634 12.2344 23.1634 11.6572 22.846 11.2821C22.7017 11.109 19.0658 6.9248 14.42 6.9248C9.7741 6.9248 6.13821 11.109 5.99392 11.2821C5.6765 11.6572 5.6765 12.2344 5.99392 12.6095C6.13821 12.7826 9.7741 16.9668 14.42 16.9668C19.0658 16.9668 22.7017 12.7826 22.846 12.6095ZM14.42 15.4663C12.4866 15.4663 10.8995 13.8792 10.8995 11.9458C10.8995 10.0124 12.4577 8.42533 14.42 8.42533C16.3822 8.42533 17.9404 10.0124 17.9404 11.9458C17.9404 13.8792 16.3533 15.4663 14.42 15.4663Z" fill="#FBD278"/>
<path d="M14.4229 9.83887C14.2209 9.83887 14.0478 9.86772 13.8458 9.92544C13.9612 10.0986 14.0478 10.3006 14.0478 10.5314C14.0478 11.1085 13.5861 11.5702 13.009 11.5702C12.7781 11.5702 12.5761 11.4837 12.403 11.3683C12.3453 11.5414 12.3164 11.7434 12.3164 11.9454C12.3164 13.0996 13.2687 14.0519 14.4229 14.0519C15.5772 14.0519 16.5294 13.0996 16.5294 11.9454C16.5294 10.7911 15.5772 9.83887 14.4229 9.83887Z" fill="#FFAD00"/>
<path d="M14.4201 4.87671C14.9684 4.87671 15.4301 4.41501 15.4301 3.86674V1.00997C15.4301 0.4617 14.9684 0 14.4201 0C13.8719 0 13.4102 0.4617 13.4102 1.00997V3.83788C13.4102 4.41501 13.8719 4.87671 14.4201 4.87671Z" fill="#FBD278"/>
<path d="M18.924 5.77149C19.0395 5.8292 19.1838 5.85806 19.2992 5.85806C19.7032 5.85806 20.0783 5.62721 20.2514 5.22322L21.348 2.5973C21.55 2.07789 21.3191 1.47191 20.7997 1.26991C20.2803 1.06792 19.6743 1.29877 19.4723 1.81818L18.3758 4.4441C18.1449 4.96352 18.4046 5.54064 18.924 5.77149Z" fill="#FFAD00"/>
<path d="M8.5915 5.22265C8.76464 5.62663 9.13977 5.85748 9.54376 5.85748C9.65918 5.85748 9.80346 5.82863 9.91889 5.77091C10.4383 5.56892 10.6692 4.96294 10.4672 4.44353L9.37062 1.8176C9.16863 1.29819 8.5915 1.03849 8.07209 1.26934C7.55267 1.47133 7.32182 2.07731 7.52382 2.59672L8.5915 5.22265Z" fill="#FFAD00"/>
<path d="M15.5762 27.0383C15.5762 27.2403 15.7493 27.4134 15.9513 27.4134H19.4718C19.6738 27.4134 19.8469 27.2403 19.8469 27.0383V25.1338H15.5762V27.0383Z" fill="#FFAD00"/>
<path d="M25.705 14.1388C25.5896 13.9368 25.3876 13.8214 25.1567 13.7637C24.8393 13.706 24.5507 13.8503 24.3487 14.0811L22.7905 16.2742C22.8193 16.3319 22.8482 16.3608 22.8771 16.4185C23.3099 17.0245 23.2522 17.8613 22.7616 18.4096L22.6462 18.525C22.0114 19.2464 21.3188 19.9389 20.5686 20.5449L19.9626 21.0355C19.7606 21.2086 19.472 21.1798 19.2989 20.9778C19.1257 20.7758 19.1546 20.4872 19.3566 20.3141L19.9626 19.8235C20.6551 19.2464 21.3188 18.6116 21.9248 17.919L22.0402 17.8036C22.2422 17.5727 22.2711 17.2265 22.0979 16.9379C21.9825 16.7936 21.8382 16.6782 21.6362 16.6493C21.4631 16.6205 21.2611 16.6493 21.1168 16.7648L17.7406 19.131C17.3655 19.3907 17.1058 19.7658 16.9615 20.1987L15.7207 24.2097H20.1069L23.0791 22.3917C23.5985 22.0743 23.9736 21.5838 24.1179 21.0066L25.7915 14.8025C25.8781 14.5717 25.8493 14.3408 25.705 14.1388Z" fill="#FFAD00"/>
<path d="M11.8527 20.199C11.7084 19.7661 11.4487 19.391 11.0735 19.1313L7.69736 16.7651C7.55308 16.6497 7.35108 16.6208 7.17794 16.6497C7.00481 16.6785 6.83167 16.7939 6.71624 16.9382C6.54311 17.1979 6.57196 17.5442 6.77396 17.8039L6.88938 17.9193C7.49536 18.6119 8.1302 19.2467 8.85161 19.8238L9.45759 20.3144C9.54416 20.401 9.60187 20.5164 9.63073 20.6318C9.63073 20.7472 9.60187 20.8915 9.5153 20.9781C9.42873 21.0647 9.31331 21.1224 9.19788 21.1512C9.08246 21.1512 8.93818 21.1224 8.85161 21.0358L8.24563 20.5453C7.49536 19.9393 6.80281 19.2756 6.16797 18.5253L6.05255 18.4099C5.56199 17.8616 5.50428 17.0248 5.93712 16.4188C5.96598 16.3611 5.99484 16.3322 6.05255 16.2745L4.49431 14.1103C4.32117 13.8506 4.00375 13.7352 3.68634 13.7929C3.45549 13.8217 3.25349 13.966 3.13807 14.168C3.02264 14.37 2.96493 14.6009 3.02264 14.8317L4.6963 21.0358C4.84059 21.6129 5.21572 22.1035 5.73513 22.4209L8.70733 24.2389H13.0935L11.8527 20.199Z" fill="#FBD278"/>
<path d="M8.9668 27.0383C8.9668 27.2403 9.13993 27.4134 9.34193 27.4134H12.8624C13.0644 27.4134 13.2375 27.2403 13.2375 27.0383V25.1338H8.9668V27.0383Z" fill="#FFAD00"/>
</svg>
