<svg width="28" height="28" viewBox="0 0 28 28" fill="none" xmlns="http://www.w3.org/2000/svg">
<g clip-path="url(#clip0_8558_49745)">
<path fill-rule="evenodd" clip-rule="evenodd" d="M16.4696 18.0504H19.2931C22.0933 18.0504 24.3868 20.2875 24.3868 23.0252V26.8291C24.3868 27.4711 23.8482 27.9972 23.1909 27.9972H14.1558C14.2774 27.7709 14.3441 27.5135 14.3441 27.242V19.9481C14.3441 19.4871 14.15 19.0713 13.8373 18.7715C14.6047 18.3134 15.5053 18.0504 16.4696 18.0504ZM17.8799 16.4892C19.8722 16.4892 21.4968 14.9026 21.4968 12.9567C21.4968 11.0109 19.8722 9.42432 17.8799 9.42432C15.8904 9.42432 14.263 11.0109 14.263 12.9567C14.263 14.9026 15.8904 16.4892 17.8799 16.4892ZM25.2208 1.33846L20.0257 4.26849L18.4446 2.72429L18.4417 2.72712C18.2998 2.58853 18.0768 2.55459 17.8944 2.65641L13.6404 5.05473L12.1316 3.58123C11.9897 3.44265 11.7639 3.40871 11.5843 3.51053L4.15357 7.70194C3.93639 7.82355 3.86399 8.09506 3.98851 8.30717C4.11303 8.51929 4.39103 8.58999 4.60822 8.46838L11.7349 4.44949L13.2436 5.92299C13.4029 6.07854 13.6519 6.09551 13.8286 5.9739L18.0449 3.59538L19.6261 5.13958C19.7853 5.29513 20.0315 5.3121 20.211 5.18766L25.6726 2.10491L25.1919 3.85274C25.1282 4.09031 25.2701 4.33354 25.5133 4.39576C25.7566 4.45798 26.0056 4.3194 26.0693 4.08183L26.8309 1.3017C26.8946 1.06413 26.7527 0.820902 26.5095 0.758682L23.6629 0.0148626C23.4225 -0.047358 23.1735 0.0912242 23.1069 0.328794C23.0432 0.563535 23.1851 0.806761 23.4283 0.87181L25.2208 1.33846ZM1.77898 19.193C1.6979 19.193 1.61971 19.2043 1.54442 19.2297C1.55021 19.241 1.5589 19.2523 1.56469 19.2637L2.9518 21.6422C3.12845 21.9476 3.3717 22.1852 3.65549 22.3492C3.94218 22.5104 4.2723 22.5981 4.63428 22.5981H5.83027C5.84185 22.4624 5.90267 22.3407 5.99533 22.2502C6.09958 22.1484 6.24437 22.0862 6.40075 22.0862H8.0369C8.19617 22.0862 8.33807 22.1484 8.44232 22.2502C8.53499 22.3407 8.5958 22.4624 8.61028 22.5981H9.82074C10.1827 22.5981 10.5157 22.5104 10.8024 22.3464C11.0891 22.1824 11.3324 21.942 11.5061 21.6365L12.873 19.2665C12.8788 19.2552 12.8874 19.241 12.8961 19.2297C12.8237 19.2071 12.7427 19.193 12.6616 19.193H10.5592V18.534C10.5592 17.9627 10.3217 17.4451 9.93658 17.069C9.55143 16.6928 9.02149 16.4609 8.43653 16.4609H6.00981C5.42485 16.4609 4.89491 16.6928 4.50976 17.069C4.12462 17.4451 3.88716 17.9627 3.88716 18.534V19.193H1.77898ZM5.32929 19.193V18.534C5.32929 18.353 5.40458 18.1889 5.5291 18.0702C5.65073 17.9514 5.81869 17.875 6.00402 17.875H8.43074C8.61607 17.875 8.78403 17.9485 8.90566 18.0702C9.02728 18.1889 9.10547 18.3558 9.10547 18.534V19.193H5.32929ZM12.2967 22.0664C12.039 22.5133 11.6799 22.8668 11.2571 23.11C10.8314 23.3532 10.342 23.4833 9.81785 23.4833H8.60738C8.5958 23.6191 8.53499 23.7407 8.43942 23.8312C8.33517 23.933 8.19328 23.9953 8.03401 23.9953H6.39785C6.24148 23.9953 6.09669 23.933 5.99244 23.8312C5.89977 23.7407 5.83896 23.6191 5.82737 23.4833H4.63139C4.11014 23.4833 3.62074 23.3561 3.19795 23.1157C2.77515 22.8725 2.41607 22.5246 2.15834 22.0777L1 20.0895V27.2449C1 27.6606 1.3475 28 1.77319 28H12.65C13.0757 28 13.4232 27.6606 13.4232 27.2449V20.0951L12.2967 22.0664ZM7.69809 23.0365V23.1044H6.73667V23.0365V22.9686H7.69809V23.0365Z" fill="#FFAD00"/>
<path fill-rule="evenodd" clip-rule="evenodd" d="M16.4696 18.0504H19.2931C22.0933 18.0504 24.3868 20.2875 24.3868 23.0252V26.8292C24.3868 27.4712 23.8482 27.9972 23.1909 27.9972H14.1558C14.2774 27.7709 14.3441 27.5136 14.3441 27.2421V19.9481C14.3441 19.4871 14.15 19.0714 13.8373 18.7716C14.6047 18.3134 15.5053 18.0504 16.4696 18.0504ZM1.77898 19.193C1.6979 19.193 1.61971 19.2043 1.54442 19.2298C1.55021 19.2411 1.5589 19.2524 1.56469 19.2637L2.9518 21.6422C3.12845 21.9477 3.3717 22.1852 3.65549 22.3493C3.94218 22.5105 4.2723 22.5982 4.63428 22.5982H5.83027C5.84185 22.4624 5.90267 22.3408 5.99533 22.2503C6.09958 22.1485 6.24437 22.0862 6.40075 22.0862H8.0369C8.19617 22.0862 8.33807 22.1485 8.44232 22.2503C8.53499 22.3408 8.5958 22.4624 8.61028 22.5982H9.82074C10.1827 22.5982 10.5157 22.5105 10.8024 22.3464C11.0891 22.1824 11.3324 21.942 11.5061 21.6366L12.873 19.2665C12.8788 19.2552 12.8874 19.2411 12.8961 19.2298C12.8237 19.2071 12.7427 19.193 12.6616 19.193H10.5592V18.534C10.5592 17.9627 10.3217 17.4452 9.93658 17.069C9.55143 16.6929 9.02149 16.4609 8.43653 16.4609H6.00981C5.42485 16.4609 4.89491 16.6929 4.50976 17.069C4.12462 17.4452 3.88716 17.9627 3.88716 18.534V19.193H1.77898ZM5.32929 19.193V18.534C5.32929 18.353 5.40458 18.189 5.5291 18.0702C5.65073 17.9514 5.81869 17.875 6.00402 17.875H8.43074C8.61607 17.875 8.78403 17.9486 8.90566 18.0702C9.02728 18.189 9.10547 18.3558 9.10547 18.534V19.193H5.32929ZM12.2967 22.0665C12.039 22.5133 11.6799 22.8668 11.2571 23.1101C10.8314 23.3533 10.342 23.4834 9.81785 23.4834H8.60738C8.5958 23.6191 8.53499 23.7407 8.43942 23.8313C8.33517 23.9331 8.19328 23.9953 8.03401 23.9953H6.39785C6.24148 23.9953 6.09669 23.9331 5.99244 23.8313C5.89977 23.7407 5.83896 23.6191 5.82737 23.4834H4.63139C4.11014 23.4834 3.62074 23.3561 3.19795 23.1157C2.77515 22.8725 2.41607 22.5246 2.15834 22.0778L1 20.0895V27.2449C1 27.6606 1.3475 28 1.77319 28H12.65C13.0757 28 13.4232 27.6606 13.4232 27.2449V20.0952L12.2967 22.0665ZM7.69809 23.0365V23.1044H6.73667V23.0365V22.9687H7.69809V23.0365Z" fill="#FBD278"/>
</g>
<defs>
<clipPath id="clip0_8558_49745">
<rect width="28" height="28" fill="white"/>
</clipPath>
</defs>
</svg>
