<svg width="28" height="28" viewBox="0 0 28 28" fill="none" xmlns="http://www.w3.org/2000/svg">
<path d="M3.33398 18.5332H24.6673C24.6673 19.0988 24.4423 19.6415 24.0423 20.0415C23.6423 20.4415 23.0996 20.6665 22.534 20.6665H5.46732C4.28918 20.6665 3.33398 19.7113 3.33398 18.5332Z" fill="#FFAD00"/>
<path d="M24.6673 14.5337V17.467H3.33398V16.1337H10.2673C11.2986 16.1337 12.134 15.2982 12.134 14.267V9.73366C12.134 9.23886 11.9371 8.76387 11.5871 8.41387C11.2371 8.06387 10.7621 7.86699 10.2673 7.86699H3.33398V6.80032C3.33398 5.62219 4.28918 4.66699 5.46732 4.66699H14.4006V10.4003C14.4006 11.2982 14.9986 12.0857 15.8642 12.3253C16.7288 12.566 17.6475 12.1993 18.11 11.4295L22.7018 10.0962L22.2351 12.9524C22.1591 13.416 22.2903 13.8899 22.5955 14.2483C22.8924 14.5983 23.3289 14.7993 23.7872 14.8003C24.1007 14.8024 24.4079 14.7097 24.6673 14.5337Z" fill="#FBD278"/>
<path d="M12.666 21.4668H15.3327V22.5335H12.666V21.4668Z" fill="#FFAD00"/>
<path d="M8.66732 23.333H19.334C20.0704 23.333 20.6673 24.0695 20.6673 24.6663C20.6673 25.4028 20.0704 25.9997 19.334 25.9997H8.66732C7.93086 25.9997 7.33398 25.2632 7.33398 24.6663C7.33398 23.9299 7.93086 23.333 8.66732 23.333Z" fill="#FBD278"/>
<path d="M10.2667 8.66699H3.06667C2.47709 8.66699 2 9.14409 2 9.73366V14.267C2 14.5503 2.1125 14.8211 2.31251 15.0211C2.51251 15.2211 2.78333 15.3337 3.06667 15.3337H10.2667C10.55 15.3337 10.8208 15.2212 11.0208 15.0211C11.2208 14.8211 11.3333 14.5503 11.3333 14.267V9.73366C11.3333 9.45033 11.2208 9.1795 11.0208 8.9795C10.8208 8.7795 10.55 8.66699 10.2667 8.66699ZM7.33333 13.467H3.73333C3.43853 13.467 3.2 13.2284 3.2 12.9337C3.2 12.6389 3.43854 12.4003 3.73333 12.4003H7.33333C7.62813 12.4003 7.86666 12.6389 7.86666 12.9337C7.86666 13.2284 7.62812 13.467 7.33333 13.467ZM9.6 11.3337H3.73333C3.43853 11.3337 3.2 11.0951 3.2 10.8003C3.2 10.5055 3.43854 10.267 3.73333 10.267H9.6C9.89479 10.267 10.1333 10.5055 10.1333 10.8003C10.1333 11.0951 9.89479 11.3337 9.6 11.3337Z" fill="#FFAD00"/>
<path d="M16.4012 2C17.0637 2 17.6012 2.66251 17.6012 3.2V10.4C17.6012 11.0625 17.0637 11.6 16.4012 11.6C15.7387 11.6 15.2012 10.9375 15.2012 10.4V3.2C15.2012 2.53749 15.7387 2 16.4012 2Z" fill="#FFAD00"/>
<path d="M22.0748 4.16501V9.4338L18.3945 10.5005C18.3966 10.463 18.3966 10.4265 18.3945 10.389V3.19942C18.3966 3.16192 18.3966 3.12442 18.3945 3.08691L22.0748 4.16501Z" fill="#FFAD00"/>
<path d="M22.875 4.39941H24.9333C25.2167 4.39941 25.4875 4.51192 25.6875 4.71192C25.8875 4.91193 26 5.18275 26 5.46608V8.13275C26 8.41608 25.8875 8.6869 25.6875 8.8869C25.4875 9.0869 25.2167 9.19941 24.9333 9.19941H22.875V4.39941Z" fill="#FFAD00"/>
<path d="M25.0909 10L24.5576 13.3491C24.4971 13.7272 24.169 14.0032 23.7867 14.0001C23.5576 13.9959 23.3419 13.8928 23.1961 13.7168C23.0492 13.5397 22.9878 13.3085 23.0274 13.0824L23.5253 10H24.9336C24.9857 10.0031 25.0388 10.0031 25.0909 10Z" fill="#FFAD00"/>
</svg>
