<svg width="30" height="30" viewBox="0 0 30 30" fill="none" xmlns="http://www.w3.org/2000/svg">
<path d="M9.36409 9.09862C9.23282 8.42443 9.23282 7.73374 9.36409 7.05956L10.6085 6.73783C10.7011 6.45514 10.823 6.18151 10.9723 5.92079L10.3367 4.87154C10.7544 4.30882 11.2775 3.82108 11.881 3.4318L13.005 4.0244C13.2844 3.88499 13.5777 3.77132 13.8808 3.68503L14.226 2.52447C14.9486 2.402 15.6889 2.402 16.4115 2.52447L16.7567 3.68503C17.0597 3.77156 17.353 3.88521 17.6326 4.0244L18.7565 3.4318C19.3599 3.82108 19.8831 4.30882 20.3007 4.87154L19.6651 5.92027C19.8145 6.18099 19.9363 6.45462 20.0289 6.73731L21.2734 7.05904C21.4046 7.73322 21.4046 8.42394 21.2734 9.09813L20.0289 9.41986C19.9363 9.70259 19.8146 9.97616 19.6651 10.2369L20.3007 11.2856C19.8831 11.8486 19.36 12.3364 18.7565 12.7259L17.6326 12.1338C17.353 12.2732 17.0597 12.387 16.7567 12.4737L16.4115 13.6343C15.6889 13.7567 14.9486 13.7567 14.226 13.6343L13.8808 12.4737C13.5777 12.3874 13.2844 12.2738 13.005 12.1343L11.881 12.7264C11.2774 12.337 10.7543 11.849 10.3367 11.2862L10.9723 10.2374C10.8229 9.97673 10.7011 9.70308 10.6085 9.42035L9.36409 9.09862ZM11.5466 8.07923C11.5461 8.89389 11.8485 9.68345 12.4021 10.3135C12.9558 10.9435 13.7265 11.3749 14.583 11.5342C15.4394 11.6935 16.3286 11.5708 17.0989 11.187C17.8692 10.8033 18.4731 10.1822 18.8075 9.42967C19.142 8.67716 19.1863 7.83969 18.933 7.06005C18.6797 6.28042 18.1444 5.60685 17.4184 5.15414C16.6924 4.70142 15.8205 4.49757 14.9515 4.57733C14.0824 4.65708 13.2698 5.01551 12.6523 5.59154C12.3014 5.91781 12.0231 6.30555 11.8333 6.73247C11.6436 7.15939 11.5461 7.61708 11.5466 8.07923ZM13.1971 10.0584C12.7063 9.60051 12.4009 8.998 12.333 8.35364C12.2649 7.70924 12.4386 7.06279 12.8242 6.52443C13.2099 5.98607 13.7837 5.5891 14.448 5.40117C15.1123 5.21324 15.8258 5.24598 16.467 5.49379C17.1083 5.74161 17.6376 6.18918 17.9648 6.76024C18.292 7.3313 18.3968 7.99052 18.2614 8.62559C18.1259 9.26062 17.7587 9.83224 17.2221 10.243C16.6855 10.6538 16.0128 10.8783 15.3188 10.8783C14.9246 10.8788 14.5342 10.8067 14.1702 10.666C13.806 10.5252 13.4753 10.3188 13.1971 10.0584ZM13.4124 8.07923C13.412 8.49116 13.5647 8.89048 13.8445 9.20913C14.1243 9.52778 14.5139 9.74605 14.9469 9.82673C15.3799 9.9074 15.8296 9.84546 16.2191 9.65151C16.6087 9.45764 16.9141 9.14362 17.0833 8.76318C17.2525 8.38267 17.275 7.95926 17.1471 7.56503C17.019 7.17079 16.7485 6.83016 16.3814 6.60121C16.0143 6.37225 15.5734 6.26912 15.1341 6.30941C14.6946 6.3497 14.2837 6.53091 13.9714 6.82215C13.794 6.98698 13.6534 7.1829 13.5574 7.39863C13.4614 7.61437 13.4121 7.84567 13.4124 8.07923ZM15.3188 9.13786C15.5814 9.13818 15.8361 9.05354 16.0393 8.89835C16.2426 8.74324 16.3819 8.52708 16.4336 8.28683C16.4852 8.0466 16.4459 7.79708 16.3224 7.58082C16.1989 7.36455 15.9989 7.19492 15.7564 7.10082C15.5139 7.00672 15.2439 6.99397 14.9924 7.06475C14.7409 7.13553 14.5235 7.28545 14.3773 7.48898C14.2311 7.69251 14.165 7.93704 14.1903 8.18094C14.2157 8.42483 14.3309 8.65291 14.5163 8.82651C14.729 9.0254 15.0176 9.13737 15.3188 9.13786ZM21.688 6.0679C23.1009 6.66933 24.1487 7.61013 24.6435 8.896C25.0668 9.99116 25.0963 11.3455 24.6232 12.9667L23.9993 11.3474C23.9824 11.303 23.9562 11.2623 23.9223 11.2275C23.8884 11.1926 23.8475 11.1643 23.8019 11.1443C23.7563 11.1242 23.7069 11.1126 23.6565 11.1103C23.6061 11.108 23.5558 11.115 23.5083 11.1308C23.4609 11.1467 23.4171 11.1711 23.3798 11.2028C23.3424 11.2344 23.3121 11.2726 23.2906 11.315C23.269 11.3576 23.2566 11.4037 23.2542 11.4507C23.2517 11.4976 23.2592 11.5447 23.2762 11.5889L24.2775 14.1903C24.2932 14.2379 24.3193 14.282 24.354 14.32C24.4213 14.3917 24.5163 14.4354 24.6181 14.4417C24.72 14.4479 24.8203 14.4162 24.8972 14.3535L27.1362 12.5215C27.213 12.4588 27.2601 12.3702 27.267 12.2753C27.2739 12.1803 27.24 12.0867 27.1729 12.0149C27.1058 11.9433 27.0108 11.8994 26.909 11.893C26.8072 11.8865 26.7069 11.9181 26.63 11.9807L25.4167 12.9742C25.879 11.2833 25.8244 9.84432 25.3653 8.65446C24.7954 7.1732 23.6072 6.09696 22.0071 5.4164C21.9145 5.37694 21.8088 5.37341 21.7134 5.40659C21.618 5.43978 21.5407 5.50696 21.4984 5.59335C21.456 5.67974 21.4522 5.77828 21.4878 5.86728C21.5234 5.95627 21.5954 6.02844 21.688 6.0679ZM3.50159 12.5212L5.74058 14.3532C5.77847 14.3843 5.82257 14.4081 5.87033 14.4232C5.9181 14.4384 5.9686 14.4445 6.01893 14.4415C6.06928 14.4383 6.11846 14.426 6.16366 14.4051C6.20887 14.3842 6.24922 14.3552 6.28239 14.3198C6.318 14.2822 6.34456 14.2379 6.36027 14.19L7.36155 11.5887C7.37856 11.5443 7.38604 11.4974 7.38357 11.4504C7.38112 11.4034 7.36875 11.3574 7.3472 11.3148C7.32565 11.2722 7.29533 11.2341 7.25796 11.2025C7.2206 11.1709 7.17693 11.1465 7.12945 11.1306C7.08197 11.1148 7.0316 11.1077 6.98123 11.1101C6.93085 11.1123 6.88146 11.1239 6.83586 11.144C6.79026 11.1641 6.74935 11.1924 6.71547 11.2272C6.68159 11.2621 6.6554 11.3028 6.6384 11.3472L6.01566 12.968C5.53949 11.3399 5.57203 9.97948 6.00147 8.87994C6.49961 7.60261 7.54234 6.66622 8.94969 6.06764C9.04228 6.02814 9.11428 5.95596 9.1498 5.86696C9.18531 5.77797 9.1815 5.67945 9.13909 5.59309C9.09677 5.50673 9.01942 5.4396 8.92399 5.40646C8.82855 5.37332 8.72299 5.3769 8.63039 5.4164C7.0378 6.09359 5.85128 7.16386 5.27832 8.63629C4.813 9.8277 4.75682 11.2739 5.22075 12.9736L4.00752 11.9807C3.93036 11.9204 3.83093 11.8906 3.73056 11.8979C3.63019 11.9052 3.53688 11.9489 3.47066 12.0196C3.40443 12.0904 3.37058 12.1825 3.37637 12.2763C3.38215 12.3701 3.42711 12.458 3.50159 12.5212Z" fill="#FBD278"/>
<path d="M22.6534 20.1921C22.1797 20.1921 21.7167 20.0611 21.3228 19.8156C20.929 19.5701 20.622 19.2212 20.4407 18.8129C20.2594 18.4047 20.212 17.9555 20.3044 17.522C20.3968 17.0886 20.6249 16.6905 20.9599 16.3781C21.2948 16.0656 21.7215 15.8529 22.1861 15.7666C22.6507 15.6804 23.1323 15.7247 23.5699 15.8938C24.0075 16.0629 24.3817 16.3493 24.6448 16.7166C24.9079 17.0841 25.0485 17.516 25.0485 17.9579C25.0472 18.5501 24.7945 19.1178 24.3457 19.5366C23.8968 19.9553 23.2883 20.191 22.6534 20.1921ZM10.379 17.9579C10.3792 17.5159 10.2388 17.0836 9.97557 16.7159C9.71238 16.3483 9.33819 16.0617 8.90035 15.8925C8.4626 15.7232 7.98077 15.6789 7.51594 15.7651C7.05112 15.8513 6.62414 16.0642 6.28902 16.3767C5.95391 16.6894 5.72571 17.0877 5.63329 17.5213C5.54087 17.9549 5.58839 18.4043 5.76983 18.8128C5.95127 19.2212 6.25848 19.5703 6.65261 19.8158C7.04673 20.0613 7.51006 20.1923 7.98398 20.1921C8.61884 20.191 9.22735 19.9553 9.67622 19.5366C10.1252 19.1178 10.3778 18.5501 10.379 17.9579ZM26.2942 21.7155C25.7134 21.2258 24.9862 20.9133 24.2098 20.8197L23.7604 22.2675C23.7274 22.3715 23.668 22.4663 23.5871 22.5441L23.8071 25.0988C23.8115 25.1538 23.8024 25.2089 23.7805 25.2601C23.7586 25.3113 23.7246 25.3572 23.6809 25.3943L22.9282 26.1096C22.8564 26.1773 22.7588 26.2158 22.6567 26.2166C22.5546 26.2173 22.4563 26.1804 22.3833 26.1138L21.6104 25.3785C21.5717 25.3419 21.5419 25.298 21.5231 25.2497C21.5042 25.2015 21.4967 25.15 21.5011 25.0988L21.7211 22.5441C21.6402 22.4663 21.5808 22.3715 21.5478 22.2675L21.0984 20.8197C20.4471 20.8985 19.8281 21.1306 19.2997 21.4943C19.4879 21.6146 19.6665 21.7476 19.834 21.8921C20.2875 22.27 20.651 22.7323 20.9013 23.2493C21.1516 23.7662 21.2831 24.3263 21.2872 24.8935V27.1656H24.9655V24.1559C24.9683 24.0622 25.01 23.9731 25.0821 23.9077C25.1541 23.8423 25.2507 23.8057 25.3512 23.8057C25.4517 23.8057 25.5482 23.8423 25.6202 23.9077C25.6923 23.9731 25.7341 24.0622 25.7368 24.1559V27.1656H27.0076C27.0583 27.1658 27.1086 27.1566 27.1554 27.1386C27.2023 27.1206 27.2449 27.0941 27.2807 27.0607C27.3165 27.0272 27.345 26.9876 27.3643 26.9439C27.3837 26.9002 27.3936 26.8533 27.3934 26.806V23.9779C27.3894 23.5502 27.2895 23.1279 27.1002 22.7382C26.911 22.3486 26.6364 22.0002 26.2942 21.7155ZM22.4707 22.7961L22.2818 24.9924L22.6534 25.3463L23.025 24.9924L22.8362 22.7961H22.4707ZM23.3966 20.8605C23.2061 20.8605 23.003 20.8605 22.7986 20.8605C22.5004 20.8636 22.1945 20.8677 21.9149 20.8753L22.2801 22.0504L22.308 22.0636C22.337 22.0729 22.3677 22.0773 22.3983 22.0766H22.9074C22.9382 22.0773 22.9688 22.0729 22.998 22.0636C23.0072 22.0592 23.0167 22.0548 23.0275 22.0504L23.3966 20.8605ZM7.80125 22.7961L7.6124 24.9924L7.98398 25.3463L8.35557 24.9924L8.16673 22.7961H7.80125ZM8.73495 20.8314C8.50241 20.8286 8.25098 20.8257 7.99956 20.827C7.73728 20.827 7.475 20.8286 7.23135 20.833L7.60934 22.0524C7.61813 22.0554 7.62652 22.0594 7.63437 22.0641C7.66508 22.0734 7.69723 22.0778 7.7295 22.0771H8.23849C8.27027 22.0779 8.30198 22.0735 8.33222 22.0641C8.34 22.0597 8.34917 22.0553 8.35727 22.0509L8.73495 20.8314ZM10.8034 21.8921C10.9712 21.7485 11.1496 21.616 11.3375 21.4959C10.8092 21.132 10.1903 20.8998 9.53903 20.8213L9.08846 22.2675C9.05676 22.3716 8.99781 22.4667 8.91681 22.5441L9.13687 25.0988C9.14133 25.1538 9.13225 25.209 9.11027 25.2602C9.08838 25.3114 9.05417 25.3573 9.0103 25.3943L8.25625 26.1096C8.18481 26.1773 8.08745 26.2158 7.98561 26.2165C7.88375 26.2173 7.78574 26.1803 7.71308 26.1138L6.93875 25.3785C6.90029 25.3417 6.87064 25.2979 6.85179 25.2496C6.83295 25.2014 6.82533 25.15 6.82945 25.0988L7.04806 22.5441C6.96753 22.4663 6.90853 22.3714 6.87617 22.2675L6.42671 20.8197C5.65035 20.9133 4.92314 21.2258 4.34236 21.7155C4.00024 22.0001 3.72572 22.3485 3.53643 22.738C3.34713 23.1276 3.24724 23.5497 3.24317 23.9774V26.8055C3.24302 26.8527 3.2529 26.8996 3.27224 26.9433C3.29158 26.987 3.31999 27.0267 3.35584 27.0602C3.39171 27.0936 3.43429 27.1201 3.48116 27.1381C3.52803 27.1561 3.57825 27.1653 3.62894 27.1651H4.89974V24.1553C4.90244 24.0616 4.94425 23.9726 5.01628 23.9072C5.0883 23.8418 5.18485 23.8052 5.28538 23.8052C5.3859 23.8052 5.48245 23.8418 5.55447 23.9072C5.6265 23.9726 5.66832 24.0616 5.67101 24.1553V27.094H9.35019V24.8933C9.35433 24.3261 9.48584 23.766 9.73614 23.2491C9.98644 22.7322 10.35 22.27 10.8034 21.8921ZM19.3144 22.4222C18.6675 21.876 17.8541 21.5317 16.9875 21.4373L16.5036 22.994C16.4677 23.109 16.4006 23.2133 16.3089 23.2971L16.5539 26.1371C16.5582 26.1921 16.5491 26.2473 16.5272 26.2985C16.5053 26.3497 16.4711 26.3956 16.4274 26.4327L15.5929 27.2251C15.5215 27.2928 15.4241 27.3313 15.3223 27.3321C15.2205 27.3329 15.1224 27.296 15.0497 27.2294L14.1956 26.4165C14.1569 26.38 14.1272 26.3362 14.1084 26.2879C14.0895 26.2398 14.0821 26.1883 14.0865 26.1371H14.0838L14.3288 23.2971C14.2366 23.2137 14.1695 23.1092 14.1341 22.994L13.6502 21.4373C12.7832 21.5318 11.9694 21.8765 11.3224 22.4232C10.9481 22.734 10.6478 23.1144 10.4407 23.5401C10.2336 23.9658 10.1244 24.4271 10.1201 24.8946V28.019C10.1199 28.0664 10.1299 28.1133 10.1492 28.1571C10.1686 28.2009 10.1972 28.2406 10.2332 28.274C10.2691 28.3075 10.3118 28.3339 10.3588 28.3519C10.4058 28.3699 10.4561 28.3789 10.507 28.3786H11.9532V25.0915C11.9518 25.0434 11.9608 24.9956 11.9796 24.9508C11.9984 24.9061 12.0265 24.8653 12.0624 24.8308C12.0984 24.7964 12.1414 24.769 12.1888 24.7503C12.2364 24.7316 12.2874 24.7219 12.3389 24.7219C12.3904 24.7219 12.4414 24.7316 12.4889 24.7503C12.5364 24.769 12.5793 24.7964 12.6153 24.8308C12.6512 24.8653 12.6795 24.9061 12.6982 24.9508C12.7169 24.9956 12.7259 25.0434 12.7245 25.0915V28.3786H17.9134V25.0915C17.912 25.0434 17.9209 24.9956 17.9398 24.9508C17.9585 24.9061 17.9867 24.8653 18.0226 24.8308C18.0585 24.7964 18.1016 24.769 18.149 24.7503C18.1965 24.7316 18.2475 24.7219 18.299 24.7219C18.3506 24.7219 18.4016 24.7316 18.4491 24.7503C18.4965 24.769 18.5395 24.7964 18.5755 24.8308C18.6114 24.8653 18.6396 24.9061 18.6584 24.9508C18.6771 24.9956 18.6861 25.0434 18.6847 25.0915V28.3786H20.131C20.1817 28.3786 20.2318 28.3694 20.2786 28.3513C20.3254 28.3332 20.368 28.3068 20.4037 28.2734C20.4396 28.24 20.468 28.2003 20.4874 28.1567C20.5068 28.113 20.5168 28.0662 20.5168 28.019V24.8933C20.5124 24.4258 20.4031 23.9644 20.1959 23.5387C19.9887 23.1131 19.6888 22.7329 19.3144 22.4222ZM14.4428 21.4082L14.8737 22.7919C14.8899 22.798 14.9055 22.8052 14.9204 22.8137C14.9586 22.8261 14.9988 22.8319 15.0392 22.8311H15.601C15.6414 22.8319 15.6817 22.8261 15.7198 22.8137C15.7345 22.8049 15.7502 22.7976 15.7665 22.7919L16.1959 21.4082H14.4428ZM15.0798 23.5506L14.8659 26.0294L15.3187 26.4604L15.7715 26.0294L15.5576 23.5506H15.0798ZM17.9649 18.242C17.9651 17.7536 17.8099 17.2761 17.5191 16.8699C17.2284 16.4637 16.8149 16.147 16.3312 15.9601C15.8475 15.7731 15.3152 15.7241 14.8017 15.8194C14.2881 15.9147 13.8164 16.1498 13.4462 16.4952C13.0759 16.8406 12.8238 17.2806 12.7217 17.7597C12.6195 18.2388 12.6721 18.7353 12.8725 19.1865C13.0729 19.6378 13.4124 20.0234 13.8478 20.2947C14.2832 20.566 14.7951 20.7107 15.3187 20.7105C16.0201 20.7092 16.6922 20.4486 17.1882 19.986C17.6841 19.5233 17.9634 18.8963 17.9649 18.242Z" fill="#FFB81D"/>
</svg>
