<svg width="43" height="43" viewBox="0 0 43 43" fill="none" xmlns="http://www.w3.org/2000/svg">
<path fill-rule="evenodd" clip-rule="evenodd" d="M20.8061 20.8119C26.2418 20.8119 30.6483 16.3033 30.6483 10.7419C30.6483 5.18058 26.2417 0.671875 20.8061 0.671875C15.3704 0.671875 10.9639 5.18042 10.9639 10.7419C10.9639 16.3035 15.3705 20.8119 20.8061 20.8119ZM20.8061 15.8997C23.4101 15.8997 25.7272 13.7054 25.7272 10.7417C25.7272 7.77837 23.41 5.58401 20.8061 5.58401C18.2021 5.58401 15.885 7.77837 15.885 10.7417C15.885 13.7054 18.2022 15.8997 20.8061 15.8997Z" fill="#FFB81D"/>
<path d="M5.55246 41.4036C5.55335 41.8152 5.55423 42.2381 5.55423 42.6721H0.633118C0.633118 42.2697 0.632233 41.8673 0.631055 41.466C0.624866 39.174 0.618678 36.9185 0.817896 34.8928C1.05483 32.4854 1.60182 30.0972 2.98838 28.0376C5.86168 23.7693 11.4892 22.041 20.8019 22.041C29.1797 22.041 35.3509 24.6014 36.9631 26.9535C34.6996 26.9535 32.1166 28.5371 31.3866 28.9359C29.51 27.2233 25.4107 26.9535 20.802 26.9535C11.6682 26.9535 8.44226 28.743 7.07298 30.7772C6.3383 31.8688 5.9169 33.3281 5.71562 35.3731C5.54263 37.1309 5.54705 39.0959 5.55265 41.4036H5.55246Z" fill="#FFB81D"/>
<path fill-rule="evenodd" clip-rule="evenodd" d="M19.0076 33.8443C18.6351 34.3189 18.3767 35.045 18.3767 35.8771C18.3767 36.7091 18.6351 37.4352 19.0076 37.9102C19.3515 38.3484 19.7886 38.5851 20.3606 38.5851C20.3606 38.5851 20.3712 38.5851 20.3939 38.5824C20.4166 38.5801 20.4484 38.5756 20.49 38.5676C20.5746 38.5517 20.6854 38.5235 20.8242 38.4789C21.1056 38.3886 21.4483 38.2469 21.8447 38.0534C22.6386 37.666 23.5286 37.1307 24.3856 36.5671C24.8002 36.2946 25.1986 36.0209 25.5641 35.7629C24.8925 35.2208 24.2262 34.7314 23.5675 34.324C22.2967 33.5375 21.2344 33.1694 20.3606 33.1694C19.7886 33.1694 19.3516 33.4061 19.0076 33.8443ZM31.9521 35.8771C32.2659 36.1082 32.603 36.3499 32.9529 36.5911C33.7674 37.1521 34.6135 37.6829 35.3715 38.0655C35.7496 38.2563 36.0761 38.3951 36.3434 38.483C36.4754 38.5265 36.5803 38.5531 36.6599 38.5688C36.6988 38.5762 36.7286 38.5803 36.7498 38.5827C36.771 38.5851 36.7807 38.5851 36.7807 38.5851C37.2228 38.5851 37.5823 38.3922 37.9109 37.9042C38.2725 37.3675 38.4885 36.5934 38.4885 35.8771C38.4885 35.1607 38.2725 34.3866 37.9109 33.8502C37.5823 33.362 37.2227 33.1693 36.7807 33.1693C36.7807 33.1693 36.771 33.1693 36.7498 33.1714C36.7286 33.1738 36.6988 33.1779 36.6599 33.1856C36.5803 33.201 36.4754 33.2279 36.3434 33.2711C36.0761 33.3593 35.7496 33.4978 35.3715 33.6886C34.6135 34.0715 33.7674 34.6021 32.9529 35.1631C32.6031 35.4042 32.2659 35.646 31.9521 35.8771ZM28.7003 38.3898C28.1192 38.8171 27.3765 39.3452 26.5694 39.8761C25.6435 40.4847 24.5958 41.1214 23.5874 41.6133C22.6582 42.0666 21.4705 42.5474 20.3607 42.5474C16.3576 42.5474 14.4072 38.92 14.4072 35.8771C14.4072 32.8344 16.3576 29.207 20.3607 29.207C22.2933 29.207 24.1028 29.9932 25.659 30.9564C26.7494 31.631 27.805 32.4497 28.7952 33.2912C29.3271 32.8823 29.9851 32.3932 30.6983 31.902C31.5857 31.291 32.5965 30.6495 33.5802 30.153C34.4884 29.6943 35.6604 29.207 36.7806 29.207C38.8214 29.207 40.3081 30.308 41.2049 31.6392C42.069 32.9217 42.4574 34.4919 42.4574 35.877C42.4574 37.2621 42.069 38.8327 41.2049 40.115C40.3081 41.4459 38.8214 42.5472 36.7806 42.5472C35.6604 42.5472 34.4884 42.0596 33.5802 41.6013C32.5965 41.1048 31.5856 40.4633 30.6983 39.852C29.9422 39.3312 29.2481 38.8131 28.7003 38.3896V38.3898Z" fill="#FFB81D" fill-opacity="0.5"/>
</svg>
