<svg width="42" height="42" viewBox="0 0 42 42" fill="none" xmlns="http://www.w3.org/2000/svg">
<path d="M2.33398 28.9346H39.6673C39.6673 29.9244 39.2735 30.8741 38.5735 31.5741C37.8735 32.2741 36.9238 32.6679 35.934 32.6679H6.06732C4.00558 32.6679 2.33398 30.9963 2.33398 28.9346Z" fill="#FFAD00"/>
<path d="M39.6673 21.9337V27.067H2.33398V24.7336H14.4673C16.272 24.7336 17.734 23.2717 17.734 21.467V13.5337C17.734 12.6678 17.3894 11.8365 16.7769 11.224C16.1644 10.6115 15.3332 10.267 14.4673 10.267H2.33398V8.40032C2.33398 6.33859 4.00558 4.66699 6.06732 4.66699H21.7006V14.7003C21.7006 16.2717 22.747 17.6498 24.2618 18.0691C25.7749 18.4902 27.3827 17.8485 28.1921 16.5014L36.2276 14.168L35.4109 19.1665C35.2779 19.9777 35.5075 20.8071 36.0417 21.4342C36.5612 22.0467 37.325 22.3985 38.1271 22.4004C38.6758 22.404 39.2134 22.2417 39.6673 21.9337Z" fill="#FFAD00"/>
<path d="M18.666 34.0654H23.3327V35.9321H18.666V34.0654Z" fill="#FBD278"/>
<path d="M11.6673 37.333H30.334C31.6228 37.333 32.6673 38.6218 32.6673 39.6663C32.6673 40.9551 31.6228 41.9997 30.334 41.9997H11.6673C10.3785 41.9997 9.33398 40.7109 9.33398 39.6663C9.33398 38.3775 10.3785 37.333 11.6673 37.333Z" fill="#FFAD00"/>
<path d="M14.4667 11.667H1.86667C0.834913 11.667 0 12.5019 0 13.5337V21.467C0 21.9628 0.196877 22.4368 0.546886 22.7868C0.896895 23.1368 1.37083 23.3337 1.86667 23.3337H14.4667C14.9625 23.3337 15.4364 23.1368 15.7864 22.7868C16.1364 22.4368 16.3333 21.9628 16.3333 21.467V13.5337C16.3333 13.0378 16.1364 12.5639 15.7864 12.2139C15.4364 11.8639 14.9625 11.667 14.4667 11.667ZM9.33333 20.067H3.03333C2.51743 20.067 2.1 19.6495 2.1 19.1337C2.1 18.6178 2.51745 18.2003 3.03333 18.2003H9.33333C9.84923 18.2003 10.2667 18.6178 10.2667 19.1337C10.2667 19.6495 9.84921 20.067 9.33333 20.067ZM13.3 16.3337H3.03333C2.51743 16.3337 2.1 15.9162 2.1 15.4003C2.1 14.8844 2.51745 14.467 3.03333 14.467H13.3C13.8159 14.467 14.2333 14.8844 14.2333 15.4003C14.2333 15.9162 13.8159 16.3337 13.3 16.3337Z" fill="#FBD278"/>
<path d="M25.1996 0C26.359 0 27.2996 1.15939 27.2996 2.1V14.7C27.2996 15.8594 26.359 16.8 25.1996 16.8C24.0402 16.8 23.0996 15.6406 23.0996 14.7V2.1C23.0996 0.940613 24.0402 0 25.1996 0Z" fill="#FBD278"/>
<path d="M35.1319 3.78901V13.0094L28.6914 14.8761C28.6951 14.8104 28.6951 14.7466 28.6914 14.681V2.09922C28.6951 2.0336 28.6951 1.96797 28.6914 1.90234L35.1319 3.78901Z" fill="#FBD278"/>
<path d="M36.5312 4.19922H40.1334C40.6292 4.19922 41.1031 4.3961 41.4531 4.7461C41.8031 5.09611 42 5.57005 42 6.06588V10.7325C42 11.2284 41.8031 11.7023 41.4531 12.0523C41.1031 12.4023 40.6292 12.5992 40.1334 12.5992H36.5312V4.19922Z" fill="#FBD278"/>
<path d="M40.4091 14L39.4757 19.8609C39.37 20.5226 38.7958 21.0056 38.1268 21.0002C37.7257 20.9929 37.3484 20.8124 37.0932 20.5043C36.8362 20.1945 36.7286 19.7898 36.7979 19.3942L37.6693 14H40.1338C40.225 14.0055 40.3179 14.0055 40.4091 14Z" fill="#FBD278"/>
</svg>
