<svg width="47" height="43" viewBox="0 0 47 43" fill="none" xmlns="http://www.w3.org/2000/svg">
<path d="M8.38379 40.3711H20.8788V42.1111H8.38379V40.3711Z" fill="#FFAD00"/>
<path fill-rule="evenodd" clip-rule="evenodd" d="M17.2915 35.5781H12.5401L11.8052 38.703H17.8913L17.2915 35.5781Z" fill="#FFAD00"/>
<path fill-rule="evenodd" clip-rule="evenodd" d="M17.5599 19.6584L14.9076 27.2431C14.7556 27.6776 14.2783 27.9074 13.8391 27.7591C13.3998 27.6087 13.1675 27.1366 13.3175 26.7021L15.9698 19.1173C16.1218 18.6829 16.5991 18.4531 17.0383 18.6014C17.4776 18.7518 17.7099 19.226 17.5599 19.6584ZM29.2208 16.0781H14.3433C14.318 16.0802 14.2927 16.0823 14.2673 16.0823C14.242 16.0823 14.2166 16.0802 14.1913 16.0781H1.65417V16.0823C1.43244 16.0823 1.22971 16.1721 1.084 16.3163C0.938291 16.4604 0.847485 16.6588 0.847485 16.8802H0.843262V29.2942H30.0234V16.8802C30.0234 16.6609 29.9326 16.4604 29.7869 16.3163C29.6412 16.1721 29.4406 16.0823 29.2167 16.0823L29.2208 16.0781ZM20.9047 20.638C20.5837 20.3059 20.5984 19.7774 20.9342 19.4599C21.27 19.1424 21.8043 19.157 22.1252 19.4892L25.1281 22.6036L25.1302 22.6015C25.4512 22.9357 25.4385 23.4642 25.1028 23.7817L25.088 23.7963L22.1252 26.869C21.8042 27.2011 21.2721 27.2157 20.9342 26.8982C20.5984 26.5807 20.5837 26.0543 20.9046 25.7201L23.3564 23.178L20.9047 20.638ZM9.94067 19.462C10.2764 19.7795 10.2912 20.3059 9.97024 20.6401L7.52066 23.1801L9.9724 25.7222C10.2934 26.0543 10.2786 26.5828 9.94284 26.9003C9.60707 27.2178 9.07279 27.2032 8.75183 26.871L5.78906 23.7984L5.77427 23.7838C5.4364 23.4663 5.42372 22.9378 5.74682 22.6036L5.74893 22.6057L8.75182 19.4912C9.07069 19.157 9.6049 19.1445 9.94067 19.462Z" fill="#FBD278"/>
<path fill-rule="evenodd" clip-rule="evenodd" d="M20.8461 31.6C20.3794 31.6 20.0014 31.9739 20.0014 32.4355C20.0014 32.8971 20.3794 33.271 20.8461 33.271H21.7267C22.1934 33.271 22.5714 32.8971 22.5714 32.4355C22.5714 31.9739 22.1934 31.6 21.7267 31.6H20.8461ZM23.9546 31.6C23.4879 31.6 23.1099 31.9739 23.1099 32.4355C23.1099 32.8971 23.4879 33.271 23.9546 33.271H24.8352C25.3019 33.271 25.6799 32.8971 25.6799 32.4355C25.6799 31.9739 25.3019 31.6 24.8352 31.6H23.9546ZM27.0631 31.6C26.5964 31.6 26.2184 31.9739 26.2184 32.4355C26.2184 32.8971 26.5964 33.271 27.0631 33.271H27.9437C28.4104 33.271 28.7884 32.8971 28.7884 32.4355C28.7884 31.9739 28.4104 31.6 27.9437 31.6H27.0631ZM30.028 30.9629H0.846191V33.1123H0.850415C0.850415 33.3316 0.94122 33.5321 1.08693 33.6763C1.23264 33.8204 1.43325 33.9102 1.6571 33.9102H29.2236V33.9144C29.4432 33.9144 29.6459 33.8246 29.7937 33.6784C29.9394 33.5342 30.0302 33.3358 30.0302 33.1144L30.028 30.9629Z" fill="#FFAD00"/>
<path fill-rule="evenodd" clip-rule="evenodd" d="M43.8508 17.8608H31.7148V25.1129H45.4369C45.7663 25.1129 46.0641 24.9813 46.2816 24.7683C46.497 24.5552 46.63 24.2586 46.63 23.9327V8.64453H15.1123V14.4138H29.2231V14.4097C29.9115 14.4097 30.5345 14.6854 30.9864 15.1324C31.28 15.4228 31.4996 15.7842 31.62 16.1894H43.8554C44.3221 16.1894 44.7001 16.5633 44.7001 17.0249C44.6959 17.4865 44.3179 17.8604 43.8512 17.8604L43.8508 17.8608ZM43.8508 12.5426H17.4985C17.0318 12.5426 16.6538 12.1687 16.6538 11.7071C16.6538 11.2455 17.0318 10.8716 17.4985 10.8716L43.8508 10.8737C44.3175 10.8737 44.6955 11.2476 44.6955 11.7092C44.6955 12.1687 44.3175 12.5426 43.8508 12.5426ZM35.7736 21.1653L37.0723 19.818C37.3933 19.4859 37.9254 19.4713 38.2633 19.7888C38.5991 20.1063 38.6139 20.6327 38.2929 20.9669L37.5453 21.7418L38.2929 22.5168C38.6139 22.8489 38.5991 23.3774 38.2633 23.6949C37.9275 24.0123 37.3933 23.9977 37.0723 23.6656L35.8137 22.3601L35.7989 22.3455C35.4611 22.028 35.4484 21.4995 35.7715 21.1653L35.7736 21.1653ZM38.9433 23.11L40.0921 19.8285C40.2442 19.394 40.7214 19.1642 41.1607 19.3125C41.5999 19.4629 41.8322 19.935 41.6823 20.3695L40.5335 23.651C40.3814 24.0855 39.9042 24.3153 39.4649 24.167C39.0257 24.0166 38.7934 23.5445 38.9433 23.11ZM42.3622 19.7888C42.698 19.4713 43.2323 19.4859 43.5532 19.818L44.8519 21.1653L44.854 21.1632C45.175 21.4974 45.1623 22.0259 44.8266 22.3434L44.8118 22.358L43.5532 23.6635C43.2322 23.9956 42.7001 24.0103 42.3622 23.6928C42.0264 23.3753 42.0117 22.8489 42.3326 22.5147L43.0802 21.7397L42.3326 20.9648C42.0117 20.6327 42.0243 20.1042 42.3622 19.7888Z" fill="#FFAD00"/>
<path fill-rule="evenodd" clip-rule="evenodd" d="M45.4369 0.111328H16.3054C15.976 0.111328 15.6782 0.242922 15.4607 0.455984C15.2453 0.669046 15.1123 0.965655 15.1123 1.29151V6.9774H46.63V1.29151C46.63 0.965655 46.497 0.67111 46.2816 0.455984C46.0641 0.242922 45.7664 0.111328 45.4369 0.111328ZM28.0809 3.54329C28.0809 4.26813 27.7831 4.92607 27.3037 5.40028C26.8223 5.87653 26.1592 6.16896 25.4264 6.16896C24.6936 6.16896 24.0284 5.87444 23.549 5.40028C23.0676 4.92403 22.7719 4.26813 22.7719 3.54329C22.7719 2.81845 23.0697 2.1605 23.549 1.6863C24.0305 1.21005 24.6936 0.917609 25.4264 0.917609C26.1592 0.917609 26.8243 1.21213 27.3037 1.6863C27.7831 2.16255 28.0809 2.81845 28.0809 3.54329ZM44.9369 4.64827H30.8158C30.3491 4.64827 29.9711 4.27437 29.9711 3.81274C29.9711 3.35111 30.3491 2.97721 30.8158 2.97721H44.9369C45.4036 2.97721 45.7816 3.35111 45.7816 3.81274C45.7816 4.27437 45.4036 4.64827 44.9369 4.64827ZM21.858 3.54329C21.858 4.26813 21.5602 4.92607 21.0809 5.40028C20.5994 5.87653 19.9363 6.16896 19.2035 6.16896C18.4707 6.16896 17.8056 5.87444 17.3261 5.40028C16.8447 4.92403 16.549 4.26813 16.549 3.54329C16.549 2.81845 16.8468 2.1605 17.3261 1.6863C17.8076 1.21005 18.4707 0.917609 19.2035 0.917609C19.9363 0.917609 20.6014 1.21213 21.0809 1.6863C21.5602 2.16255 21.858 2.81845 21.858 3.54329Z" fill="#FFAD00"/>
<path fill-rule="evenodd" clip-rule="evenodd" d="M26.1089 2.86584C25.9336 2.69247 25.6929 2.58594 25.4247 2.58594C25.1565 2.58594 24.9157 2.69247 24.7405 2.86584C24.5652 3.03922 24.4575 3.27734 24.4575 3.54261C24.4575 3.80788 24.5652 4.04602 24.7405 4.21937C24.9158 4.39273 25.1565 4.49928 25.4247 4.49928C25.6929 4.49928 25.9336 4.39275 26.1089 4.21937C26.2841 4.046 26.3918 3.80788 26.3918 3.54261C26.3918 3.27941 26.2841 3.0392 26.1089 2.86584Z" fill="#FFAD00"/>
<path fill-rule="evenodd" clip-rule="evenodd" d="M19.8857 2.86584C19.7104 2.69247 19.4697 2.58594 19.2015 2.58594C18.9334 2.58594 18.6926 2.69247 18.5173 2.86584C18.3421 3.03922 18.2344 3.27734 18.2344 3.54261C18.2344 3.80788 18.3421 4.04602 18.5173 4.21937C18.6926 4.39273 18.9334 4.49928 19.2015 4.49928C19.4697 4.49928 19.7105 4.39275 19.8857 4.21937C20.061 4.046 20.1687 3.80788 20.1687 3.54261C20.1687 3.27941 20.061 3.0392 19.8857 2.86584Z" fill="#FFAD00"/>
</svg>
