<svg width="42" height="40" viewBox="0 0 42 40" fill="none" xmlns="http://www.w3.org/2000/svg">
<path d="M41.3539 35.163H0.646115C0.25851 35.163 0 35.4111 0 35.7831V39.3799C0 39.7519 0.258502 40 0.646115 40H41.3539C41.7415 40 42 39.7519 42 39.3799V35.7831C42 35.4731 41.7415 35.163 41.3539 35.163V35.163Z" fill="#FFB81D"/>
<path d="M15.5066 26.5425H18.7375V30.1393H15.5066V26.5425Z" fill="#FFB81D" fill-opacity="0.58"/>
<path d="M15.5066 19.1013H18.7375V22.698H15.5066V19.1013Z" fill="#FFB81D" fill-opacity="0.58"/>
<path d="M23.26 26.5425H26.4908V30.1393H23.26V26.5425Z" fill="#FFB81D" fill-opacity="0.58"/>
<path d="M15.5066 11.721H18.7375V15.3178H15.5066V11.721Z" fill="#FFB81D" fill-opacity="0.58"/>
<path d="M15.5066 4.34075H18.7375V7.93751H15.5066V4.34075Z" fill="#FFB81D" fill-opacity="0.58"/>
<path d="M23.26 19.1013H26.4908V22.698H23.26V19.1013Z" fill="#FFB81D" fill-opacity="0.58"/>
<path d="M23.26 4.34075H26.4908V7.93751H23.26V4.34075Z" fill="#FFB81D" fill-opacity="0.58"/>
<path d="M23.26 11.721H26.4908V15.3178H23.26V11.721Z" fill="#FFB81D" fill-opacity="0.58"/>
<path d="M30.9518 0.620398C30.9518 0.248392 30.6288 0.000285467 30.3057 0.000285467L11.6961 0C11.3085 0 11.05 0.248099 11.05 0.620113V33.9222H30.9512L30.9518 0.620398ZM20.0322 30.6971C20.0322 31.0071 19.7091 31.3172 19.3861 31.3172H14.863C14.4754 31.3172 14.2168 31.0071 14.2168 30.6971V25.8598C14.2168 25.4878 14.4753 25.2397 14.863 25.2397H19.3861C19.7091 25.2397 20.0322 25.4878 20.0322 25.8598V30.6971ZM20.0322 23.3173C20.0322 23.6893 19.7091 23.9374 19.3861 23.9374H14.863C14.4754 23.9374 14.2168 23.6893 14.2168 23.3173V18.48C14.2168 18.108 14.4753 17.8599 14.863 17.8599H19.3861C19.7091 17.8599 20.0322 18.108 20.0322 18.48V23.3173ZM20.0322 15.9376C20.0322 16.2476 19.7091 16.5577 19.3861 16.5577H14.863C14.4754 16.5577 14.2168 16.2476 14.2168 15.9376V11.1003C14.2168 10.7283 14.4753 10.4802 14.863 10.4802H19.3861C19.7091 10.4802 20.0322 10.7283 20.0322 11.1003V15.9376ZM20.0322 8.49569C20.0322 8.8677 19.7091 9.1158 19.3861 9.1158H14.863C14.4754 9.1158 14.2168 8.86771 14.2168 8.49569V3.72038C14.2168 3.41032 14.4753 3.10026 14.863 3.10026H19.3861C19.7091 3.10026 20.0322 3.41032 20.0322 3.72038V8.49569ZM27.7861 30.6963C27.7861 31.0064 27.4631 31.3165 27.14 31.3165H22.6169C22.2293 31.3165 21.9708 31.0064 21.9708 30.6963V25.8591C21.9708 25.487 22.2293 25.2389 22.6169 25.2389H27.14C27.4631 25.2389 27.7861 25.487 27.7861 25.8591V30.6963ZM27.7861 23.3166C27.7861 23.6886 27.4631 23.9367 27.14 23.9367H22.6169C22.2293 23.9367 21.9708 23.6886 21.9708 23.3166V18.4793C21.9708 18.1073 22.2293 17.8592 22.6169 17.8592H27.14C27.4631 17.8592 27.7861 18.1073 27.7861 18.4793V23.3166ZM27.7861 15.9368C27.7861 16.2469 27.4631 16.557 27.14 16.557H22.6169C22.2293 16.557 21.9708 16.2469 21.9708 15.9368V11.0995C21.9708 10.7275 22.2293 10.4794 22.6169 10.4794H27.14C27.4631 10.4794 27.7861 10.7275 27.7861 11.0995V15.9368ZM27.7861 8.49496C27.7861 8.86697 27.4631 9.11507 27.14 9.11507H22.6169C22.2293 9.11507 21.9708 8.86697 21.9708 8.49496V3.71965C21.9708 3.40959 22.2293 3.09953 22.6169 3.09953H27.14C27.4631 3.09953 27.7861 3.40959 27.7861 3.71965V8.49496Z" fill="#FFB81D" fill-opacity="0.58"/>
<path d="M40.579 13.2709C40.579 13.0848 40.5145 12.8989 40.3205 12.7747L33.536 7.25534C33.3421 7.06919 33.0839 7.06919 32.8254 7.19339C32.5669 7.3173 32.4378 7.50345 32.4378 7.75154V33.9216H40.5146L40.5143 13.2705L40.579 13.2709ZM37.5421 31.3172H35.5389C35.2159 31.3172 34.8928 31.0071 34.8928 30.6971C34.8928 30.3251 35.2159 30.077 35.5389 30.077H37.5421C37.8652 30.077 38.1882 30.3251 38.1882 30.6971C38.1882 31.0691 37.93 31.3172 37.5421 31.3172ZM37.5421 26.418H35.5389C35.2159 26.418 34.8928 26.108 34.8928 25.7979C34.8928 25.4878 35.2159 25.1778 35.5389 25.1778H37.5421C37.8652 25.1778 38.1882 25.4878 38.1882 25.7979C38.1882 26.108 37.93 26.418 37.5421 26.418ZM37.5421 21.4568H35.5389C35.2159 21.4568 34.8928 21.2087 34.8928 20.8367C34.8928 20.4647 35.2159 20.2166 35.5389 20.2166H37.5421C37.8652 20.2166 38.1882 20.4647 38.1882 20.8367C38.1882 21.1468 37.93 21.4568 37.5421 21.4568ZM37.5421 16.4956H35.5389C35.2159 16.4956 34.8928 16.2475 34.8928 15.8755C34.8928 15.5035 35.2159 15.2554 35.5389 15.2554H37.5421C37.8652 15.2554 38.1882 15.5035 38.1882 15.8755C38.1882 16.2475 37.93 16.4956 37.5421 16.4956Z" fill="#FFB81D"/>
<path d="M9.50152 7.75205C9.50152 7.50395 9.37242 7.31808 9.11392 7.19389C8.85542 7.06998 8.59691 7.13194 8.40325 7.25585L1.61845 12.7752C1.48935 12.8991 1.42449 13.0853 1.42449 13.2714V33.984H9.50132L9.50152 7.75205ZM6.4646 31.318H4.46169C4.07409 31.318 3.81558 31.0079 3.81558 30.6979C3.81558 30.3259 4.07408 30.0778 4.46169 30.0778H6.46491C6.85251 30.0778 7.11102 30.3259 7.11102 30.6979C7.11073 31.0699 6.85252 31.318 6.46461 31.318H6.4646ZM6.4646 26.4188H4.46169C4.07409 26.4188 3.81558 26.1087 3.81558 25.7987C3.81558 25.4886 4.07408 25.1786 4.46169 25.1786H6.46491C6.85251 25.1786 7.11102 25.4886 7.11102 25.7987C7.11073 26.1087 6.85252 26.4188 6.46461 26.4188H6.4646ZM6.4646 21.4576H4.46169C4.07409 21.4576 3.81558 21.2095 3.81558 20.8375C3.81558 20.4655 4.07408 20.2174 4.46169 20.2174H6.46491C6.85251 20.2174 7.11102 20.4655 7.11102 20.8375C7.11073 21.1476 6.85252 21.4576 6.46461 21.4576H6.4646ZM6.4646 16.4964H4.46169C4.07409 16.4964 3.81558 16.2483 3.81558 15.8763C3.81558 15.5043 4.07408 15.2562 4.46169 15.2562H6.46491C6.85251 15.2562 7.11102 15.5043 7.11102 15.8763C7.11073 16.2483 6.85252 16.4964 6.46461 16.4964H6.4646Z" fill="#FFB81D"/>
</svg>
