<svg width="28" height="28" viewBox="0 0 28 28" fill="none" xmlns="http://www.w3.org/2000/svg">
<path d="M1.29921 23.2646C1.00134 23.6792 0.92032 24.2118 1.08117 24.6955L1.71621 26.6018C1.93186 27.2512 2.5395 27.6896 3.2234 27.6884H20.9129C21.5968 27.6896 22.2045 27.2512 22.4189 26.6018L23.054 24.6955L23.0552 24.6967C23.216 24.2118 23.135 23.6792 22.8371 23.2646C22.5381 22.8511 22.0591 22.6045 21.548 22.6045H17.8378H17.839C17.1551 22.6045 16.5474 23.0418 16.3318 23.6911L16.1304 24.294C16.0875 24.4239 15.966 24.512 15.829 24.5108H8.30736C8.17035 24.5108 8.04882 24.4239 8.00593 24.294L7.80457 23.6923V23.6911C7.58892 23.0418 6.98128 22.6045 6.29738 22.6045H2.58842C2.07728 22.6057 1.59827 22.8511 1.29921 23.2646Z" fill="#FFAD00"/>
<path d="M8.25419 11.1673V8.62598H2.85332C2.15274 8.62836 1.58441 9.1955 1.58203 9.89727V21.862C1.89897 21.7226 2.24092 21.6511 2.58644 21.6523H6.29783C7.39158 21.6523 8.36381 22.3541 8.70576 23.3942L8.76295 23.5598L15.372 23.5586L15.4292 23.3871C15.7735 22.3505 16.7445 21.6523 17.8371 21.6523H21.5485C21.894 21.6511 22.2359 21.7226 22.5517 21.862V15.9332H21.2554C21.1589 15.9343 21.0683 15.9784 21.0076 16.0547L20.525 16.6588V20.0639H3.60994V11.1673L8.25419 11.1673Z" fill="#FFAD00"/>
<path d="M26.9983 13.7093V2.27129C26.9983 1.56952 26.4288 1 25.727 1H10.4764C9.7746 1 9.20508 1.56952 9.20508 2.27129V13.7093C9.20508 14.4111 9.7746 14.9794 10.4764 14.9794H14.9491C15.3351 14.9794 15.7009 15.1557 15.9416 15.4572L17.606 17.5374V17.5362C17.7264 17.6876 17.9086 17.7757 18.1017 17.7757C18.2947 17.7757 18.477 17.6876 18.5973 17.5362L20.2618 15.456V15.4572C20.5024 15.1557 20.8682 14.9794 21.2542 14.9794H25.727C26.4287 14.9794 26.9983 14.4111 26.9983 13.7093ZM19.373 12.7561C19.373 12.9241 19.3051 13.0861 19.1859 13.2053C19.0668 13.3244 18.9059 13.3912 18.7367 13.3912H17.4666C17.1152 13.3912 16.8304 13.1064 16.8304 12.7561V12.1199C16.8304 11.7696 17.1152 11.4849 17.4666 11.4849H18.7379H18.7367C19.0882 11.4849 19.373 11.7696 19.373 12.1199L19.373 12.7561ZM19.3861 9.99193C19.3825 9.99432 19.3778 9.99432 19.373 9.99432V10.5317C19.373 10.6162 19.3396 10.6973 19.2801 10.7568C19.2205 10.8164 19.1395 10.8498 19.0549 10.8498H17.1485C16.9734 10.8498 16.8304 10.7068 16.8304 10.5316V9.94069C16.8376 8.87671 17.5214 7.93547 18.5306 7.59828C18.9643 7.44339 19.28 7.06451 19.3551 6.60936C19.4313 6.15422 19.2538 5.69433 18.8928 5.40719C18.5735 5.1546 18.1529 5.06762 17.7585 5.17366C17.3165 5.27732 16.9722 5.62405 16.8709 6.06726C16.8566 6.13041 16.8447 6.19355 16.8387 6.25909C16.822 6.5367 16.6314 6.77379 16.3645 6.85005L15.0885 7.17888H15.0873C14.9074 7.22773 14.7155 7.19437 14.563 7.08714C14.4093 6.9811 14.3116 6.81191 14.2949 6.62605C14.2711 6.20904 14.314 5.79203 14.4224 5.38813C14.7227 4.24195 15.5495 3.30547 16.6504 2.86463C17.9324 2.34873 19.3944 2.55962 20.4774 3.41985C21.5593 4.28127 22.0895 5.66218 21.8631 7.02632C21.6367 8.39055 20.6883 9.52606 19.3861 9.99193Z" fill="#FFD67C"/>
</svg>
