<svg width="28" height="28" viewBox="0 0 28 28" fill="none" xmlns="http://www.w3.org/2000/svg">
<path d="M16.568 17.3721C16.3127 17.8583 15.9383 18.2719 15.4798 18.5742C15.0214 18.8765 14.4938 19.0578 13.9463 19.101C13.4187 19.0363 12.9144 18.8453 12.4761 18.5444C12.0379 18.2434 11.6786 17.8413 11.4287 17.3721C10.9153 17.782 10.5106 18.3117 10.25 18.9147C11.3297 19.7316 12.6466 20.1736 14.0005 20.1736C15.3544 20.1736 16.6713 19.7316 17.751 18.9147C17.4862 18.313 17.0804 17.7839 16.568 17.3721Z" fill="#FBD278"/>
<path d="M13.0879 17.9174C14.0799 18.6562 15.4114 17.8337 15.8396 16.899C15.5853 16.77 15.318 16.6683 15.0422 16.5957C14.9378 16.7808 14.7861 16.9347 14.6026 17.0419C14.4191 17.149 14.2104 17.2055 13.9979 17.2055C13.7854 17.2055 13.5767 17.149 13.3932 17.0419C13.2097 16.9347 13.058 16.7808 12.9536 16.5957C12.6778 16.6683 12.4106 16.77 12.1562 16.899C12.3656 17.3188 12.6883 17.6716 13.0879 17.9174Z" fill="#FBD278"/>
<path d="M13.9996 7.81252C8.54089 7.79991 5.7732 14.4857 9.57526 18.3208C9.89726 17.6828 10.3531 17.1218 10.9118 16.6761C11.4704 16.2304 12.1187 15.9104 12.8123 15.7382V15.4955C12.0506 15.2165 11.4114 14.6783 11.0068 13.9752C10.6023 13.2721 10.4582 12.4491 10.5998 11.6503C10.7415 10.8516 11.1598 10.1283 11.7815 9.60719C12.4031 9.08608 13.1884 8.80048 13.9996 8.80048C14.8108 8.80048 15.596 9.08608 16.2177 9.60719C16.8394 10.1283 17.2577 10.8516 17.3993 11.6503C17.541 12.4491 17.3969 13.2721 16.9924 13.9752C16.5878 14.6783 15.9486 15.2165 15.1869 15.4955V15.7382C15.8805 15.9104 16.5288 16.2304 17.0874 16.6761C17.646 17.1218 18.1019 17.6828 18.4239 18.3208C22.2275 14.484 19.4556 7.79909 13.9996 7.81252Z" fill="#FBD278"/>
<path d="M16.5861 12.254C16.585 11.5682 16.3121 10.9108 15.8272 10.4259C15.3423 9.94093 14.6849 9.66804 13.9991 9.66699C10.5754 9.78962 10.5763 14.7189 13.9991 14.841C14.6849 14.8399 15.3423 14.567 15.8272 14.0821C16.3121 13.5972 16.585 12.9398 16.5861 12.254Z" fill="#FFAD00"/>
<path d="M14 16.3474C14.3677 16.3327 14.3248 15.9696 14.3207 15.7061H13.6793C13.6753 15.9705 13.6324 16.3325 14 16.3474Z" fill="#FBD278"/>
<path d="M22.8949 22.2821L22.1627 21.5499C22.4717 21.2133 22.7601 20.8583 23.0263 20.4869C23.0752 20.4187 23.1032 20.3378 23.107 20.254C23.1109 20.1701 23.0904 20.087 23.048 20.0146C22.8356 19.666 22.7085 19.2722 22.6771 18.8653C22.6456 18.4583 22.7106 18.0496 22.8668 17.6725C23.0231 17.2955 23.2661 16.9606 23.5762 16.6951C23.8863 16.4297 24.2547 16.2412 24.6513 16.1449C24.7327 16.124 24.8062 16.0796 24.8624 16.0171C24.9187 15.9547 24.9553 15.8771 24.9677 15.7939C25.1663 14.6092 25.1677 13.3998 24.972 12.2146C24.9595 12.1309 24.9223 12.0528 24.8652 11.9902C24.8081 11.9277 24.7336 11.8836 24.6513 11.8636C24.2545 11.7652 23.8863 11.575 23.5764 11.3084C23.2666 11.0417 23.0236 10.7059 22.8672 10.3282C22.7108 9.95045 22.6453 9.54126 22.6759 9.13357C22.7066 8.72588 22.8325 8.33108 23.0437 7.98097C23.0861 7.90779 23.1066 7.82396 23.1028 7.73946C23.0989 7.65495 23.0709 7.57333 23.022 7.50431C22.7575 7.13557 22.4705 6.78348 22.1627 6.45001L22.8963 5.71898C23.2299 5.95569 23.6146 6.11035 24.0191 6.17039C24.4237 6.23043 24.8367 6.19415 25.2246 6.06449C25.6126 5.93484 25.9644 5.71548 26.2516 5.42424C26.5387 5.133 26.7531 4.77811 26.8773 4.38842C27.0015 3.99872 27.0319 3.58522 26.9662 3.18154C26.9004 2.77785 26.7404 2.39538 26.499 2.0652C26.2576 1.73503 25.9417 1.46648 25.577 1.28139C25.2123 1.0963 24.809 0.999891 24.4 1C23.9248 1.00457 23.4599 1.13868 23.0553 1.38789C22.6507 1.6371 22.3218 1.99196 22.1039 2.41426C21.886 2.83656 21.7875 3.31029 21.8189 3.78443C21.8503 4.25858 22.0105 4.71517 22.2822 5.10504L21.55 5.83728C21.2134 5.52825 20.8584 5.23985 20.487 4.97365C20.4188 4.92481 20.3379 4.89678 20.254 4.89294C20.1702 4.88909 20.0871 4.9096 20.0147 4.95198C19.6661 5.16435 19.2723 5.29145 18.8653 5.32293C18.4584 5.3544 18.0497 5.28938 17.6726 5.13314C17.2955 4.97689 16.9606 4.73385 16.6952 4.42377C16.4297 4.11369 16.2412 3.74533 16.145 3.34866C16.1241 3.26725 16.0796 3.19382 16.0172 3.13756C15.9548 3.08129 15.8771 3.04468 15.794 3.03232C14.6093 2.83372 13.3999 2.83226 12.2147 3.02799C12.1309 3.04051 12.0528 3.0777 11.9903 3.13481C11.9278 3.19193 11.8837 3.26638 11.8637 3.34866C11.7653 3.74549 11.5751 4.11367 11.3084 4.42355C11.0417 4.73343 10.706 4.97636 10.3282 5.13277C9.95049 5.28918 9.5413 5.3547 9.1336 5.32405C8.72591 5.2934 8.33111 5.16744 7.981 4.95632C7.90782 4.91387 7.82399 4.89335 7.73949 4.89719C7.65498 4.90103 7.57336 4.92908 7.50433 4.97798C7.1356 5.24251 6.7835 5.52948 6.45003 5.83728L5.7178 5.10505C5.9548 4.77162 6.10974 4.38697 6.17004 3.98236C6.23034 3.57776 6.19429 3.16463 6.06482 2.77659C5.93536 2.38854 5.71612 2.03654 5.42496 1.7492C5.13379 1.46186 4.77892 1.2473 4.3892 1.12297C3.99947 0.99864 3.58591 0.968053 3.18213 1.0337C2.77836 1.09934 2.39578 1.25936 2.06551 1.50074C1.73524 1.74212 1.46661 2.05804 1.28146 2.42282C1.09631 2.78759 0.999879 3.19092 1 3.59999C1.00457 4.07515 1.13868 4.54007 1.38789 4.94466C1.6371 5.34925 1.99197 5.67819 2.41427 5.89606C2.83657 6.11393 3.3103 6.21246 3.78445 6.18105C4.25859 6.14963 4.71519 5.98947 5.10506 5.7178L5.8373 6.45001C5.52827 6.78661 5.23987 7.14158 4.97367 7.51297C4.92483 7.5812 4.8968 7.66212 4.89296 7.74593C4.88911 7.82975 4.90962 7.91289 4.952 7.9853C5.16437 8.33389 5.29146 8.72767 5.32294 9.13464C5.35441 9.5416 5.28939 9.95025 5.13314 10.3273C4.9769 10.7044 4.73386 11.0393 4.42378 11.3048C4.1137 11.5702 3.74534 11.7587 3.34867 11.855C3.26726 11.8759 3.19382 11.9203 3.13755 11.9827C3.08129 12.0452 3.04469 12.1228 3.03233 12.206C2.83373 13.3907 2.83227 14.6001 3.028 15.7853C3.04053 15.869 3.07772 15.9471 3.13484 16.0096C3.19195 16.0722 3.26639 16.1162 3.34867 16.1363C3.7455 16.2346 4.11368 16.4248 4.42357 16.6915C4.73345 16.9582 4.97638 17.294 5.13279 17.6717C5.2892 18.0494 5.35472 18.4586 5.32407 18.8663C5.29342 19.274 5.16746 19.6688 4.95633 20.0189C4.91389 20.0921 4.89337 20.1759 4.89721 20.2604C4.90105 20.3449 4.92909 20.4266 4.978 20.4956C5.24255 20.8643 5.52953 21.2164 5.8373 21.5499L5.10507 22.2821C4.77164 22.0451 4.38698 21.8902 3.98238 21.8299C3.57777 21.7696 3.16465 21.8056 2.7766 21.9351C2.38856 22.0646 2.03655 22.2838 1.74921 22.5749C1.46187 22.8661 1.24731 23.221 1.12298 23.6107C0.998651 24.0004 0.968064 24.414 1.03371 24.8178C1.09935 25.2215 1.25937 25.6041 1.50074 25.9344C1.74212 26.2646 2.05805 26.5333 2.42282 26.7184C2.7876 26.9036 3.19093 27 3.6 26.9999C4.07517 26.9953 4.54008 26.8612 4.94468 26.612C5.34927 26.3628 5.67822 26.0079 5.89609 25.5856C6.11396 25.1633 6.21249 24.6896 6.18108 24.2154C6.14967 23.7413 5.98951 23.2847 5.71784 22.8948L6.45003 22.1626C6.78665 22.4716 7.14161 22.76 7.513 23.0262C7.58123 23.0751 7.66214 23.1031 7.74596 23.107C7.82978 23.1108 7.91292 23.0903 7.98533 23.0479C8.33391 22.8355 8.7277 22.7084 9.13467 22.6769C9.54164 22.6455 9.95029 22.7105 10.3274 22.8667C10.7045 23.023 11.0394 23.266 11.3048 23.5761C11.5703 23.8862 11.7588 24.2546 11.855 24.6512C11.8759 24.7326 11.9204 24.8061 11.9828 24.8623C12.0452 24.9186 12.1229 24.9552 12.206 24.9676C12.8017 25.0677 13.4046 25.1184 14.0087 25.1192C14.604 25.1199 15.1983 25.0706 15.7853 24.9719C15.8691 24.9594 15.9472 24.9222 16.0097 24.8651C16.0722 24.8079 16.1163 24.7335 16.1363 24.6512C16.2347 24.2544 16.4249 23.8862 16.6916 23.5763C16.9583 23.2664 17.294 23.0235 17.6718 22.8671C18.0495 22.7107 18.4587 22.6451 18.8664 22.6758C19.2741 22.7065 19.6689 22.8324 20.019 23.0435C20.0922 23.086 20.176 23.1065 20.2605 23.1027C20.345 23.0988 20.4266 23.0708 20.4957 23.0219C20.8644 22.7573 21.2165 22.4704 21.55 22.1626L22.2822 22.8948C21.9046 23.426 21.7403 24.0797 21.8219 24.7263C21.9035 25.3729 22.2251 25.9652 22.7228 26.3859C23.2206 26.8066 23.8582 27.025 24.5094 26.9977C25.1606 26.9705 25.7777 26.6996 26.2386 26.2388C26.6995 25.7779 26.9704 25.1608 26.9977 24.5096C27.025 23.8585 26.8067 23.2208 26.386 22.723C25.9654 22.2252 25.3731 21.9036 24.7265 21.822C24.0799 21.7403 23.4262 21.9045 22.8949 22.2821ZM18.5283 19.4036C16.0549 21.5985 11.8318 21.5865 9.398 19.3342C4.48933 15.1277 7.46022 6.96852 14.0001 6.94531C20.595 6.97786 23.5256 15.2178 18.5283 19.4036Z" fill="#FFAD00"/>
</svg>
