<svg width="28" height="28" viewBox="0 0 28 28" fill="none" xmlns="http://www.w3.org/2000/svg">
<g clip-path="url(#clip0_8558_49887)">
<path d="M27.9558 22.1377V23.3541C27.9558 24.2484 27.2975 24.9995 26.5142 24.9995H1.44157C0.658009 24.9995 0 24.2482 0 23.3541V22.1377H27.9558Z" fill="#FFB81D" fill-opacity="0.58"/>
<path d="M26.2307 5.93355V18.3464C26.2307 19.956 25.071 21.2797 23.6608 21.2797L19.3356 21.2794H4.44881C3.03858 21.2794 1.87891 19.9558 1.87891 18.3461V5.9333C1.87891 4.32366 3.03858 3 4.44881 3H23.6603C25.0707 2.99975 26.2307 4.32365 26.2307 5.93355ZM24.0053 18.2036V5.93355C24.0053 5.57577 23.7858 5.32549 23.4726 5.32549L13.9137 5.32524H4.47982C4.16636 5.32524 3.94709 5.61152 3.94709 5.9333V18.2034C3.94709 18.5612 4.1979 18.8115 4.47982 18.8115H9.14953C9.77624 17.166 10.7166 15.9497 11.7194 15.1986C12.0955 14.8766 12.4716 14.6978 12.8164 14.519C13.1612 14.376 13.5373 14.3045 13.8821 14.3045C14.2895 14.3045 14.697 14.4118 15.1357 14.6265C15.5118 14.7696 15.8879 15.0201 16.2327 15.3419C17.2042 16.129 18.0817 17.3093 18.6773 18.8475H23.4723C23.7856 18.8475 24.0053 18.5615 24.0053 18.2036Z" fill="#FFB81D"/>
<path d="M13.917 6.39844C15.6095 6.39844 17.0197 7.97236 17.0197 9.9398C17.0197 11.9072 15.6095 13.4812 13.917 13.4812C12.2246 13.4812 10.8457 11.9072 10.8457 9.9398C10.8455 8.00833 12.1933 6.43441 13.917 6.39844Z" fill="#FFB81D"/>
</g>
<defs>
<clipPath id="clip0_8558_49887">
<rect width="28" height="28" fill="white"/>
</clipPath>
</defs>
</svg>
