<svg width="28" height="28" viewBox="0 0 28 28" fill="none" xmlns="http://www.w3.org/2000/svg">
<g clip-path="url(#clip0_8561_49955)">
<path d="M25.1155 1H3.88454C2.26909 1 1 2.30771 1 3.88454V19.1538C1 20.7692 2.30771 22.0383 3.88454 22.0383H12.3074C12.4612 22.0383 12.5767 22.1537 12.5767 22.3076V23.6922C12.5767 23.8075 12.4998 23.9231 12.3458 23.9231C10.6151 24.1923 9.38422 24.7307 9.38422 25.3846C9.38422 26.2693 11.6535 27 14.4999 27C17.346 27 19.6155 26.2693 19.6155 25.3846C19.6155 24.7307 18.4233 24.1924 16.6539 23.9231C16.5385 23.9231 16.423 23.8077 16.423 23.6922V22.3076C16.423 22.1539 16.5383 22.0383 16.6923 22.0383H25.1152C26.7306 22.0383 27.9997 20.7306 27.9997 19.1538L28.0001 3.88503C28.0001 2.30801 26.6923 1 25.1155 1ZM26.154 19.1537C26.154 19.7307 25.6925 20.1922 25.1155 20.1922H3.88454C3.30755 20.1922 2.84608 19.7307 2.84608 19.1537V3.88444C2.84608 3.30745 3.30774 2.84598 3.88454 2.84598H25.115C25.692 2.84598 26.1535 3.30745 26.1535 3.88444L26.154 19.1537Z" fill="#FFB81D"/>
<path d="M6.30673 6.57715H6.19141V6.65403C6.22985 6.6156 6.26829 6.61559 6.30673 6.57715Z" fill="#FFB81D"/>
<path d="M12.9226 14.4998C11.8073 14.269 10.961 13.4229 10.692 12.346C10.692 12.3076 10.6535 12.2691 10.6151 12.2307L9.38425 11.5768C9.34581 11.5384 9.26893 11.5384 9.23049 11.5768C8.99965 11.6921 8.76902 11.7692 8.49976 11.8461C8.30737 11.8845 8.11517 11.8845 7.92277 11.8845C7.42288 11.8845 6.92274 11.7308 6.49974 11.4999C6.38442 11.4231 6.23047 11.4999 6.23047 11.6537V18.2306C6.23047 18.3843 6.34579 18.4999 6.49974 18.4999H13.4614C13.6151 18.4999 13.7306 18.3845 13.7306 18.2306V14.7691C13.7306 14.6537 13.6537 14.5767 13.5382 14.5767C13.3076 14.5384 13.0381 14.5384 12.9226 14.4998Z" fill="#FFB81D" fill-opacity="0.58"/>
<path d="M21.1175 9.80786H21.0407C20.7714 9.80786 20.5021 9.76942 20.2715 9.69254C20.1561 9.6541 20.0022 9.6541 19.9253 9.73098L16.5407 11.9616C16.4638 12.0385 16.3869 12.1154 16.3483 12.2309C16.2714 12.6539 16.079 13.0385 15.8097 13.4231C15.7328 13.4999 15.6944 13.5768 15.6173 13.6539C15.5405 13.7308 15.502 13.8077 15.502 13.9232V18.2694C15.502 18.4232 15.6173 18.5387 15.7713 18.5387H22.5405C22.6943 18.5387 22.8098 18.4234 22.8098 18.2694V9.61564C22.8098 9.46188 22.6561 9.38481 22.5021 9.46188C22.0791 9.69271 21.6176 9.80786 21.1175 9.80786Z" fill="#FFB81D" fill-opacity="0.58"/>
<path d="M21.154 5.23116C20.5001 5.19272 19.8847 5.57732 19.577 6.1543C19.3846 6.50045 19.3462 6.88503 19.4232 7.23118C19.4232 7.30806 19.4232 7.38494 19.3464 7.42357L14.808 10.4236C14.7311 10.4621 14.6542 10.4621 14.5771 10.4236C14.4618 10.3083 14.3079 10.2312 14.1157 10.1543C13.4618 9.88508 12.7695 10.039 12.2696 10.5005C12.2311 10.5389 12.1158 10.5774 12.0772 10.5389L9.65413 9.30808C9.57725 9.26964 9.53881 9.19276 9.57725 9.15432C9.57725 8.76973 9.46193 8.34669 9.19266 8.00054C8.80807 7.50065 8.15421 7.30824 7.5388 7.42355C6.30793 7.69283 5.80804 9.11589 6.57724 10.1543C6.96182 10.6542 7.61569 10.8851 8.2311 10.7698C8.57725 10.6929 8.84651 10.5389 9.07715 10.3467C9.11559 10.3083 9.23091 10.2698 9.26954 10.3083L11.6926 11.5775C11.7695 11.616 11.7695 11.6544 11.7695 11.7313C11.7695 12.5005 12.2694 13.2696 13.1157 13.4236C13.7311 13.5389 14.4234 13.3083 14.808 12.8082C15.0773 12.4621 15.1926 12.039 15.1541 11.6544C15.1541 11.5776 15.1926 11.5391 15.231 11.5007L19.8848 8.42378C19.9616 8.38534 20.0385 8.38534 20.0771 8.42378C20.3464 8.61618 20.6541 8.7315 21.0387 8.7315C21.6926 8.76994 22.308 8.38535 22.5771 7.80836C23.154 6.57729 22.4233 5.26958 21.154 5.23116ZM8.19261 9.5772C7.8849 9.73096 7.50031 9.5772 7.34657 9.26949C7.19281 8.96177 7.34657 8.57718 7.65428 8.42344C7.962 8.2697 8.34659 8.42344 8.50033 8.73116C8.65409 9.03887 8.50033 9.42346 8.19261 9.5772ZM14.0772 11.9233C13.9234 12.2695 13.5773 12.4232 13.2311 12.2695C12.885 12.1157 12.7313 11.7696 12.885 11.4234C13.0388 11.0773 13.3849 10.9236 13.731 11.0773C14.0772 11.1926 14.2309 11.5772 14.0772 11.9233ZM21.7311 7.07724C21.6542 7.42339 21.2696 7.61581 20.9235 7.53871C20.5773 7.46183 20.3849 7.07724 20.462 6.73109C20.5389 6.38494 20.9235 6.19253 21.2696 6.26962C21.6158 6.38494 21.808 6.73109 21.7311 7.07724Z" fill="#FFB81D" fill-opacity="0.58"/>
</g>
<defs>
<clipPath id="clip0_8561_49955">
<rect width="27" height="26" fill="white" transform="translate(1 1)"/>
</clipPath>
</defs>
</svg>
