<svg width="28" height="28" viewBox="0 0 28 28" fill="none" xmlns="http://www.w3.org/2000/svg">
<path d="M15.0873 25.2798H25.9538C26.1948 25.2798 26.3968 25.0946 26.4169 24.8547L27.1856 16.7497C27.199 16.617 27.1555 16.4853 27.0651 16.386C26.977 16.2889 26.852 16.2343 26.7215 16.2354H14.3208C14.1903 16.2343 14.0653 16.2889 13.9783 16.386C13.8891 16.4853 13.8444 16.617 13.8578 16.7497L14.6243 24.8547C14.6455 25.0957 14.8463 25.2798 15.0873 25.2798ZM22.5642 20.3805C22.3845 20.1931 22.3868 19.8963 22.5709 19.7133C22.7539 19.5292 23.0507 19.527 23.2381 19.7066L24.1898 20.6584V20.6595C24.3762 20.8447 24.3762 21.146 24.1898 21.3323L23.2381 22.284C23.0506 22.4648 22.7539 22.4626 22.5709 22.2785C22.3868 22.0955 22.3845 21.7976 22.5642 21.6112L23.1801 20.9954L22.5642 20.3805ZM19.593 22.274L20.5447 19.4176H20.5458C20.6284 19.1677 20.8984 19.0327 21.1484 19.1153C21.3983 19.1978 21.5333 19.4678 21.4507 19.7178L20.499 22.5741H20.4979C20.4153 22.8241 20.1453 22.9591 19.8954 22.8765C19.6454 22.7928 19.5104 22.5228 19.5941 22.274H19.593ZM16.8515 20.6595L17.8044 19.7066C17.9907 19.527 18.2875 19.5292 18.4716 19.7133C18.6546 19.8963 18.6579 20.1931 18.4772 20.3806L17.8613 20.9953L18.4772 21.6112C18.5687 21.7005 18.6211 21.8221 18.6222 21.9493C18.6233 22.0776 18.5731 22.2003 18.4828 22.2907C18.3924 22.3811 18.2696 22.4313 18.1425 22.4302C18.0141 22.4291 17.8925 22.3766 17.8044 22.284L16.8526 21.3323H16.8515C16.6663 21.146 16.6663 20.8447 16.8515 20.6595Z" fill="#FFAD00"/>
<path d="M1 27.1861C1 27.3122 1.05021 27.4338 1.13947 27.5231C1.22873 27.6124 1.35035 27.6626 1.47644 27.6626H12.6911C12.5193 27.3736 12.4278 27.0455 12.4256 26.7097V26.2344C12.4256 25.7077 12.8518 25.2815 13.3784 25.2815H13.7533C13.7143 25.1744 13.6875 25.0628 13.6752 24.949L12.9087 16.8418C12.9042 16.7804 12.9042 16.7202 12.9087 16.6599L11.3946 16.3341V16.333C11.1357 17.3952 10.1851 18.1417 9.09162 18.1417C7.99929 18.1417 7.04866 17.3952 6.78979 16.333L4.01151 16.9288C2.25864 17.3115 1.00776 18.8591 1.00004 20.6521L1 27.1861Z" fill="#FBD278"/>
<path d="M27.6588 26.7078V26.2324H13.377V26.7089V26.7077C13.377 26.961 13.4774 27.2032 13.6559 27.3817C13.8344 27.5602 14.0766 27.6606 14.3287 27.6606H26.7059C26.9592 27.6606 27.2013 27.5602 27.3799 27.3817C27.5584 27.2032 27.6588 26.961 27.6588 26.7078Z" fill="#FFAD00"/>
<path d="M13.3801 10.5246C13.3801 10.2612 13.5932 10.0481 13.8555 10.0481C14.3821 10.0481 14.8083 9.62188 14.8083 9.09637C14.8083 8.56971 14.3821 8.14351 13.8555 8.14351C13.5932 8.14351 13.3801 7.9304 13.3801 7.66818C13.3801 7.61463 13.3567 6.37725 12.3581 5.92871C11.3584 6.47208 10.2326 6.74435 9.09554 6.71533C8.39596 6.73429 7.69861 6.63946 7.02913 6.43304C6.62076 6.29915 6.1923 6.23443 5.76273 6.24001C4.82996 6.24001 4.81099 7.61129 4.81099 7.66819C4.81099 7.79428 4.76078 7.91478 4.67152 8.00405C4.58226 8.09331 4.46064 8.14352 4.33455 8.14352C3.80904 8.14352 3.38281 8.56974 3.38281 9.09637C3.38281 9.62189 3.80904 10.0481 4.33455 10.0481C4.46064 10.0481 4.58226 10.0983 4.67152 10.1876C4.76078 10.2768 4.81099 10.3985 4.81099 10.5246C4.81099 12.0554 5.62774 13.4692 6.95327 14.2344C8.27879 14.9996 9.91218 14.9998 11.2378 14.2344C12.5635 13.469 13.3801 12.0553 13.3801 10.5246Z" fill="#FBD278"/>
<path d="M3.08161 7.667C3.31369 7.46281 3.59153 7.31775 3.89164 7.24522C4.00657 6.40171 4.48745 5.28593 5.76279 5.28593C6.28274 5.28035 6.79934 5.35845 7.29364 5.51689C7.87719 5.69764 8.48528 5.78021 9.0956 5.76236C10.1344 5.79584 11.1609 5.5314 12.0534 5.00028C13.1301 4.26054 13.8788 3.13247 14.1432 1.85256C13.6456 2.21852 13.0453 2.4205 12.4272 2.42941C11.4944 2.44726 10.5794 2.17501 9.80955 1.64836C9.18361 1.20874 8.43158 0.981143 7.66728 1.00122C5.68122 1.00122 5.2773 2.52984 5.27284 2.54432V2.54543C5.21036 2.79202 4.9649 2.9471 4.71496 2.8958C4.3133 2.84112 3.90604 2.94824 3.5847 3.19594C3.13505 3.57196 2.90631 4.27488 2.90631 5.28578C2.90408 6.08245 2.96334 6.87927 3.08161 7.667Z" fill="#FBD278"/>
<path d="M7.66602 15.5586V15.7594C7.66602 16.5483 8.30536 17.1876 9.0942 17.1876C9.88304 17.1876 10.5224 16.5483 10.5224 15.7594V15.5586C9.58849 15.8264 8.59879 15.8264 7.66602 15.5586Z" fill="#FFAD00"/>
<path d="M14.2902 7.24095C14.5925 7.31348 14.8726 7.45853 15.1058 7.66384C15.2252 6.87722 15.2832 6.08278 15.281 5.28614C15.281 4.58656 15.1571 3.74079 14.6617 3.2666H14.6628C14.3314 4.05322 13.8293 4.75614 13.1934 5.32407C13.7959 5.79492 14.1898 6.48336 14.2902 7.24095Z" fill="#FFAD00"/>
</svg>
