<svg width="28" height="28" viewBox="0 0 28 28" fill="none" xmlns="http://www.w3.org/2000/svg">
<g clip-path="url(#clip0_8559_49923)">
<path d="M27.7526 8.74347C27.7526 5.57148 25.1811 3 22.0091 3C18.8371 3 16.2656 5.57148 16.2656 8.74347C16.2656 11.9155 18.8371 14.4869 22.0091 14.4869C25.1811 14.4869 27.7526 11.9155 27.7526 8.74347ZM19.4325 6.16687C19.7879 5.81146 20.364 5.81146 20.7194 6.16687C21.0748 6.52228 21.0748 7.09833 20.7194 7.45375C20.364 7.80916 19.7879 7.80916 19.4325 7.45375C19.0771 7.09833 19.0771 6.52228 19.4325 6.16687ZM20.7899 11.0437C20.4515 11.3621 19.9215 11.3542 19.5934 11.0255C19.2505 10.6826 19.2591 10.1247 19.6122 9.79265L23.2294 6.38637C23.5678 6.06792 24.0978 6.07588 24.4259 6.40457C24.7688 6.74747 24.7603 7.30533 24.4071 7.63742L20.7899 11.0437ZM24.5863 11.3206C24.2308 11.676 23.6548 11.676 23.2994 11.3206C22.944 10.9652 22.944 10.3892 23.2994 10.0338C23.6548 9.67835 24.2308 9.67835 24.5863 10.0338C24.9417 10.3892 24.9417 10.9652 24.5863 11.3206Z" fill="#FFD67C"/>
<path d="M3.31245 24.154H19.1366C20.9659 24.154 22.449 22.671 22.449 20.8416V15.5093C22.449 15.3193 22.2938 15.1652 22.1038 15.1686C18.4394 15.2278 15.4209 12.1712 15.5881 8.45332C15.5966 8.25997 15.4408 8.09961 15.2475 8.09961H3.31245C1.48307 8.09961 0 9.58268 0 11.4121V20.8421C0 22.6715 1.48307 24.1546 3.31245 24.1546V24.154ZM17.2969 17.4376C17.2969 17.1328 17.5443 16.8854 17.8491 16.8854H19.6893C19.9941 16.8854 20.2409 17.1328 20.2409 17.4376V17.8055C20.2409 18.1103 19.9941 18.3577 19.6893 18.3577H17.8491C17.5443 18.3577 17.2969 18.1103 17.2969 17.8055V17.4376ZM12.3746 17.4376C12.3746 17.1328 12.622 16.8854 12.9268 16.8854H14.7209C15.0257 16.8854 15.2731 17.1328 15.2731 17.4376V17.8055C15.2731 18.1103 15.0257 18.3577 14.7209 18.3577H12.9268C12.622 18.3577 12.3746 18.1103 12.3746 17.8055V17.4376ZM10.0744 17.4376V17.8055C10.0744 18.1103 9.82759 18.3577 9.52278 18.3577H7.72866C7.42329 18.3577 7.17649 18.1103 7.17649 17.8055V17.4376C7.17649 17.1328 7.42329 16.8854 7.72866 16.8854H9.52278C9.82759 16.8854 10.0744 17.1328 10.0744 17.4376ZM2.20811 12.8798H3.49953C3.68776 12.8798 3.84073 12.7268 3.84073 12.5386C3.84073 12.3503 3.68776 12.1974 3.49953 12.1974H2.20811V11.8255C2.20811 11.0123 2.86718 10.3532 3.68037 10.3532H4.71931V11.6412C4.71931 11.83 4.87171 11.9824 5.06051 11.9824C5.2493 11.9824 5.4017 11.83 5.4017 11.6412V10.3532H6.39458C7.2072 10.3532 7.86628 11.0123 7.86628 11.8255V12.2201H6.57826C6.39003 12.2201 6.23707 12.3731 6.23707 12.5613C6.23707 12.7495 6.39003 12.9025 6.57826 12.9025H7.86628V13.2517C7.86628 14.0643 7.2072 14.7234 6.39458 14.7234H5.4017V13.4353C5.4017 13.2471 5.24873 13.0942 5.06051 13.0942C4.87228 13.0942 4.71931 13.2471 4.71931 13.4353V14.7234H3.68037C2.86718 14.7234 2.20811 14.0643 2.20811 13.2517V12.8798ZM5.15206 17.4376V17.8055C5.15206 18.1103 4.90526 18.3577 4.60046 18.3577H2.80634C2.50154 18.3577 2.25417 18.1103 2.25417 17.8055V17.4376C2.25417 17.1328 2.50154 16.8854 2.80634 16.8854H4.60046C4.90526 16.8854 5.15206 17.1328 5.15206 17.4376ZM2.20811 21.0258C2.20811 20.721 2.45547 20.4737 2.76028 20.4737H9.52278C9.82759 20.4737 10.0744 20.721 10.0744 21.0258V21.3937C10.0744 21.6986 9.82759 21.9459 9.52278 21.9459H2.76028C2.45547 21.9459 2.20811 21.6986 2.20811 21.3937V21.0258Z" fill="#FFAD00"/>
</g>
<defs>
<clipPath id="clip0_8559_49923">
<rect width="28" height="28" fill="white"/>
</clipPath>
</defs>
</svg>
