<svg width="16" height="16" viewBox="0 0 16 16" fill="none" xmlns="http://www.w3.org/2000/svg">
<path d="M8 16C12.4183 16 16 12.4183 16 8C16 3.58172 12.4183 0 8 0C3.58172 0 0 3.58172 0 8C0 12.4183 3.58172 16 8 16Z" fill="#FFAD00"/>
<path fill-rule="evenodd" clip-rule="evenodd" d="M11.1971 5.60056C10.9801 5.59721 10.7693 5.67887 10.6077 5.831C8.49866 7.64874 8.77763 8.03578 6.75245 9.93294C6.47872 9.6242 6.20918 9.30876 5.96482 8.97317C5.81589 8.75057 5.69004 8.51342 5.58936 8.26286C5.21285 7.27289 3.56208 8.01117 4.11059 9.07944C4.37383 9.74837 5.95223 11.98 6.65281 12.0001C7.89561 12.0359 9.34502 9.16781 11.7383 7.10733C12.075 6.7751 12.0886 6.22363 11.7687 5.8735C11.6167 5.70907 11.4101 5.61175 11.1909 5.6028L11.1971 5.60056Z" fill="white"/>
</svg>
