<?xml version="1.0" encoding="UTF-8"?>
<svg version="1.1" xmlns="http://www.w3.org/2000/svg" width="216" height="206">
<path d="M0 0 C-0.2840051 2.06356895 -0.57753352 4.1258285 -0.875 6.1875 C-1.03742188 7.33605469 -1.19984375 8.48460937 -1.3671875 9.66796875 C-2.45662386 15.40432195 -2.45662386 15.40432195 -4 18 C-6.39216308 19.49435624 -8.57652337 20.66318113 -11.125 21.8125 C-12.58747763 22.50600864 -14.04971067 23.20003328 -15.51171875 23.89453125 C-16.2598584 24.24338379 -17.00799805 24.59223633 -17.77880859 24.95166016 C-21.19972977 26.56623869 -24.56457487 28.28809647 -27.9375 30 C-33.35230143 32.72363253 -38.8137023 35.32590538 -44.3125 37.875 C-50.68907493 40.84202299 -56.95871195 43.9841177 -63.1875 47.25 C-63.97745361 47.66233887 -64.76740723 48.07467773 -65.58129883 48.49951172 C-75.91880047 53.66171208 -75.91880047 53.66171208 -82 63 C-82.23249591 66.58215913 -82.38145888 70.16317162 -82.5234375 73.75 C-83 77 -83 77 -84.26171875 78.796875 C-86.25886084 80.1791666 -88.22275199 81.24906835 -90.4375 82.25 C-91.19933594 82.60578125 -91.96117188 82.9615625 -92.74609375 83.328125 C-95.27972334 84.08338373 -96.54185126 83.87351072 -99 83 C-99.53616803 68.82133443 -98.98952809 54.20916844 -89.234375 42.96484375 C-86.5607826 40.61376512 -83.89318203 39.23672811 -80.6875 37.6875 C-80.07285889 37.38755127 -79.45821777 37.08760254 -78.82495117 36.77856445 C-73.90861973 34.39298175 -68.93924559 32.12244177 -63.97290039 29.84326172 C-57.79189594 26.97092662 -51.7836865 23.78361878 -45.78442383 20.55151367 C-41.30750079 18.15341924 -36.79462954 15.98976793 -32.13867188 13.96264648 C-28.90163705 12.50561129 -25.80045625 10.82747729 -22.6875 9.125 C-21.3950238 8.43007273 -20.10204739 7.73607503 -18.80859375 7.04296875 C-17.85509033 6.5312915 -17.85509033 6.5312915 -16.88232422 6.00927734 C-16.26115723 5.67621582 -15.63999023 5.3431543 -15 5 C-14.40590332 4.68111816 -13.81180664 4.36223633 -13.19970703 4.03369141 C-11.55553736 3.1574517 -9.90296132 2.29703989 -8.25 1.4375 C-7.30640625 0.94121094 -6.3628125 0.44492187 -5.390625 -0.06640625 C-3 -1 -3 -1 0 0 Z " fill="#9da3b9" transform="translate(164,40)"/>
<path d="M0 0 C0.73128226 27.65330325 0.73128226 27.65330325 -8.17578125 38.12890625 C-12.49679062 42.56094798 -17.377819 44.63276589 -23 47 C-24.70332132 47.94080999 -26.37181874 48.92152168 -28.03125 49.9375 C-30.33712924 51.18194277 -32.72221735 52.18851194 -35.13525391 53.20556641 C-46.95266499 58.24011153 -58.39876831 64.14635263 -69.85644531 69.93847656 C-73.89485424 71.9784076 -77.94215969 73.99900076 -82 76 C-82.90105469 76.44617676 -82.90105469 76.44617676 -83.8203125 76.90136719 C-85.60384692 77.77890407 -87.39557847 78.63971909 -89.1875 79.5 C-90.23292969 80.0053125 -91.27835938 80.510625 -92.35546875 81.03125 C-95 82 -95 82 -98 81 C-97.34 75.72 -96.68 70.44 -96 65 C-94.22625 64.29875 -92.4525 63.5975 -90.625 62.875 C-85.5211035 60.75992601 -80.89968876 58.31130633 -76.25390625 55.33203125 C-73.89479825 53.93782704 -71.55174698 52.99191384 -69 52 C-67.13665683 51.10213362 -65.28297715 50.18403741 -63.4375 49.25 C-59.40334417 47.21329116 -55.36341571 45.19063876 -51.3125 43.1875 C-45.53615109 40.30313078 -39.83248672 37.28861359 -34.13793945 34.24682617 C-30.01525931 32.04842177 -25.86870914 29.93605943 -21.64916992 27.92871094 C-18.91164159 26.38710357 -18.08308458 24.93069946 -17 22 C-16.28662157 17.39047781 -15.95450304 12.90993915 -16.1875 8.25 C-14.3625309 3.25534772 -10.52572495 2.1615472 -5.8828125 -0.03125 C-3 -1 -3 -1 0 0 Z " fill="#9da3b9" transform="translate(150,85)"/>
</svg>
