<?xml version="1.0" encoding="UTF-8"?>
<svg version="1.1" xmlns="http://www.w3.org/2000/svg" width="242" height="46">
<path d="M0 0 C1.04994141 -0.01611328 2.09988281 -0.03222656 3.18164062 -0.04882812 C4.19291016 -0.04947266 5.20417969 -0.05011719 6.24609375 -0.05078125 C7.16962646 -0.05376221 8.09315918 -0.05674316 9.04467773 -0.05981445 C12.06920397 0.38742714 13.40676877 1.16041894 15.5625 3.3125 C16.7994946 6.3865148 16.67840345 9.44987949 16.66015625 12.734375 C16.65693359 13.75917969 16.65371094 14.78398437 16.65039062 15.83984375 C16.63782227 17.43505859 16.63782227 17.43505859 16.625 19.0625 C16.62048828 20.14144531 16.61597656 21.22039063 16.61132812 22.33203125 C16.59955727 24.99224383 16.58311399 27.65234365 16.5625 30.3125 C15.2425 30.6425 13.9225 30.9725 12.5625 31.3125 C12.645 32.34375 12.7275 33.375 12.8125 34.4375 C12.52053692 38.9629277 11.39342283 40.83450909 8.5625 44.3125 C4.11534623 47.27726918 -0.07984985 46.68076557 -5.3125 46.6875 C-6.30636719 46.71199219 -7.30023438 46.73648438 -8.32421875 46.76171875 C-12.70528454 46.77931339 -15.66818728 46.71140289 -19.6015625 44.671875 C-23.62015897 39.50755102 -21.86752487 32.20939204 -21.18554688 26.02929688 C-20.88896041 23.6585693 -20.5502751 21.29896984 -20.1875 18.9375 C-20.07857422 18.20128418 -19.96964844 17.46506836 -19.85742188 16.70654297 C-18.96176935 11.50261425 -17.41100669 6.72551986 -14.4375 2.3125 C-9.87689567 -0.72790289 -5.36401986 -0.01640373 0 0 Z M-6.4375 9.3125 C-8.2924761 12.09496415 -8.77336208 13.19779882 -9.2890625 16.33203125 C-9.41796875 17.10740234 -9.546875 17.88277344 -9.6796875 18.68164062 C-9.86917969 19.89110352 -9.86917969 19.89110352 -10.0625 21.125 C-10.1965625 21.91970703 -10.330625 22.71441406 -10.46875 23.53320312 C-11.1644187 27.82434319 -11.69773957 31.95006306 -11.4375 36.3125 C-9.69900372 38.05099628 -7.3588363 37.48466296 -5 37.5 C-3.51693359 37.52126953 -3.51693359 37.52126953 -2.00390625 37.54296875 C0.72834415 37.57400753 0.72834415 37.57400753 2.5625 35.3125 C2.5625 33.9925 2.5625 32.6725 2.5625 31.3125 C1.9025 30.9825 1.2425 30.6525 0.5625 30.3125 C0.830625 29.69375 1.09875 29.075 1.375 28.4375 C2.39119258 25.763309 3.32025453 23.10004145 4.1875 20.375 C4.44789062 19.56160156 4.70828125 18.74820312 4.9765625 17.91015625 C5.63775792 14.97885656 5.65842451 12.30796075 5.5625 9.3125 C3.60483719 9.23167906 1.64623272 9.17339222 -0.3125 9.125 C-1.40304688 9.09019531 -2.49359375 9.05539062 -3.6171875 9.01953125 C-5.01324219 9.16455078 -5.01324219 9.16455078 -6.4375 9.3125 Z M7.5625 25.3125 C7.5625 25.9725 7.5625 26.6325 7.5625 27.3125 C8.2225 27.3125 8.8825 27.3125 9.5625 27.3125 C9.5625 26.6525 9.5625 25.9925 9.5625 25.3125 C8.9025 25.3125 8.2425 25.3125 7.5625 25.3125 Z " fill="#9da3b9" transform="translate(96.4375,-0.3125)"/>
<path d="M0 0 C1.11826172 0.00966797 2.23652344 0.01933594 3.38867188 0.02929688 C5.13954102 0.06700195 5.13954102 0.06700195 6.92578125 0.10546875 C8.10462891 0.11900391 9.28347656 0.13253906 10.49804688 0.14648438 C13.41191536 0.18187549 16.3248707 0.23125066 19.23828125 0.29296875 C19.23828125 2.93296875 19.23828125 5.57296875 19.23828125 8.29296875 C14.95943519 10.40331225 11.09963983 10.53425614 6.42578125 10.41796875 C5.38647461 10.40443359 5.38647461 10.40443359 4.32617188 10.390625 C2.6300573 10.36723032 0.93412254 10.33136516 -0.76171875 10.29296875 C-1.42171875 12.60296875 -2.08171875 14.91296875 -2.76171875 17.29296875 C-1.88128906 17.25816406 -1.00085937 17.22335938 -0.09375 17.1875 C1.06769531 17.16042969 2.22914062 17.13335938 3.42578125 17.10546875 C4.57433594 17.07066406 5.72289063 17.03585938 6.90625 17 C10.57117359 17.3222383 12.3349284 18.08064482 15.23828125 20.29296875 C18.48951708 25.1698225 17.69501985 30.58724968 17.23828125 36.29296875 C15.98828125 39.85546875 15.98828125 39.85546875 14.23828125 42.29296875 C13.75746094 42.99035156 13.27664062 43.68773437 12.78125 44.40625 C8.75212288 47.39560238 4.68645572 46.9512726 -0.19921875 46.91796875 C-1.14087891 46.95019531 -2.08253906 46.98242188 -3.05273438 47.015625 C-9.73454679 47.02505593 -9.73454679 47.02505593 -12.50048828 45.05371094 C-17.83359459 38.97132523 -17.2504173 31.94332243 -16.76171875 24.29296875 C-15.61596831 16.45314883 -13.80130255 9.53099016 -8.76171875 3.29296875 C-8.35912842 2.77130127 -7.95653809 2.24963379 -7.54174805 1.7121582 C-5.00941808 -0.30682878 -3.20642866 -0.04882886 0 0 Z M-5.76171875 26.29296875 C-5.78234375 27.92234375 -5.80296875 29.55171875 -5.82421875 31.23046875 C-5.83582031 32.14699219 -5.84742188 33.06351563 -5.859375 34.0078125 C-6.02120924 36.25890202 -6.02120924 36.25890202 -4.76171875 37.29296875 C-3.07562909 37.36502386 -1.38671216 37.37682943 0.30078125 37.35546875 C1.21988281 37.34644531 2.13898437 37.33742188 3.0859375 37.328125 C3.79621094 37.31652344 4.50648437 37.30492187 5.23828125 37.29296875 C6.15521086 34.54217991 6.34714208 32.93347962 6.30078125 30.10546875 C6.28015625 28.84734375 6.25953125 27.58921875 6.23828125 26.29296875 C2.27828125 26.29296875 -1.68171875 26.29296875 -5.76171875 26.29296875 Z " fill="#9da3b9" transform="translate(54.76171875,-0.29296875)"/>
<path d="M0 0 C1.09054688 0.02320312 2.18109375 0.04640625 3.3046875 0.0703125 C4.40039062 0.08835938 5.49609375 0.10640625 6.625 0.125 C7.88957031 0.15980469 7.88957031 0.15980469 9.1796875 0.1953125 C11.32032031 3.7779663 11.85452638 7.45202955 12.43359375 11.515625 C12.53937241 12.2154953 12.64515106 12.9153656 12.75413513 13.63644409 C13.08990624 15.86349638 13.41663669 18.09174517 13.7421875 20.3203125 C14.07249217 22.55581448 14.40475796 24.79098012 14.74095154 27.02560425 C15.04465723 29.04782868 15.34194163 31.07101436 15.63891602 33.09423828 C16.0090812 36.09319316 16.0090812 36.09319316 17.1796875 38.1953125 C17.31384222 40.8676746 17.22287291 43.51781738 17.1796875 46.1953125 C13.2196875 46.1953125 9.2596875 46.1953125 5.1796875 46.1953125 C5.1796875 42.8953125 5.1796875 39.5953125 5.1796875 36.1953125 C-3.46108766 36.24999335 -3.46108766 36.24999335 -10.640625 40.109375 C-11.87102968 42.53520865 -11.87102968 42.53520865 -12.8203125 46.1953125 C-16.4503125 46.1953125 -20.0803125 46.1953125 -23.8203125 46.1953125 C-23.37548352 39.94685546 -21.92578191 35.77276516 -18.8203125 30.3828125 C-14.80606938 23.14477568 -11.18794618 15.78822496 -7.74023438 8.2644043 C-7.38638672 7.50039307 -7.03253906 6.73638184 -6.66796875 5.94921875 C-6.35867432 5.27189697 -6.04937988 4.5945752 -5.73071289 3.89672852 C-4.16557677 0.97169938 -3.35425792 0.23228933 0 0 Z M-0.8203125 17.1953125 C-2.31852309 20.56628633 -2.8203125 22.39973369 -2.8203125 26.1953125 C-1.1703125 26.1953125 0.4796875 26.1953125 2.1796875 26.1953125 C2.1796875 23.5553125 2.1796875 20.9153125 2.1796875 18.1953125 C1.1896875 17.8653125 0.1996875 17.5353125 -0.8203125 17.1953125 Z " fill="#9da3b9" transform="translate(162.8203125,-0.1953125)"/>
<path d="M0 0 C1.20205078 -0.02900391 2.40410156 -0.05800781 3.64257812 -0.08789062 C4.79822266 -0.09626953 5.95386719 -0.10464844 7.14453125 -0.11328125 C8.20647705 -0.12786377 9.26842285 -0.14244629 10.36254883 -0.1574707 C13.87281592 0.42651203 15.01499586 1.55359792 17.1875 4.3125 C18.98037636 10.07321749 18.30040986 14.75295976 15.87890625 20.1171875 C14.99033206 22.93853606 15.09505933 25.3617938 15.1875 28.3125 C15.34855317 34.69020562 14.51022691 39.34200064 10.47167969 44.50683594 C7.45939182 46.88807589 5.6974227 46.77495137 1.890625 46.703125 C0.68535156 46.69023438 -0.51992188 46.67734375 -1.76171875 46.6640625 C-3.01597656 46.63054688 -4.27023438 46.59703125 -5.5625 46.5625 C-6.83222656 46.54445312 -8.10195312 46.52640625 -9.41015625 46.5078125 C-12.54503077 46.46067153 -15.6783856 46.39487664 -18.8125 46.3125 C-18.83939216 44.83343108 -18.85884621 43.35422517 -18.875 41.875 C-18.89240234 40.63943359 -18.89240234 40.63943359 -18.91015625 39.37890625 C-18.8125 37.3125 -18.8125 37.3125 -17.8125 36.3125 C-16.32611008 36.15594973 -14.83300873 36.06183057 -13.33984375 35.99609375 C-12.44072266 35.95419922 -11.54160156 35.91230469 -10.61523438 35.86914062 C-9.66970703 35.82982422 -8.72417969 35.79050781 -7.75 35.75 C-6.80060547 35.70681641 -5.85121094 35.66363281 -4.87304688 35.61914062 C-2.51968647 35.51270724 -0.16621646 35.41068992 2.1875 35.3125 C2.5175 33.0025 2.8475 30.6925 3.1875 28.3125 C1.58068359 28.32990234 1.58068359 28.32990234 -0.05859375 28.34765625 C-1.45572743 28.35703299 -2.85286299 28.36613331 -4.25 28.375 C-4.95705078 28.38337891 -5.66410156 28.39175781 -6.39257812 28.40039062 C-8.19943559 28.40903588 -10.00637603 28.36470011 -11.8125 28.3125 C-12.8125 27.3125 -12.8125 27.3125 -13 23.875 C-12.8125 20.3125 -12.8125 20.3125 -10.8125 18.3125 C-7.9217504 17.8451333 -5.09589431 17.47550658 -2.1875 17.1875 C-1.38570312 17.10113281 -0.58390625 17.01476562 0.2421875 16.92578125 C2.22313635 16.71353673 4.20522718 16.51200069 6.1875 16.3125 C6.1875 14.3325 6.1875 12.3525 6.1875 10.3125 C4.27324219 10.34730469 4.27324219 10.34730469 2.3203125 10.3828125 C0.6510475 10.40156829 -1.0182238 10.41976869 -2.6875 10.4375 C-3.95013672 10.46263672 -3.95013672 10.46263672 -5.23828125 10.48828125 C-6.04394531 10.49472656 -6.84960938 10.50117188 -7.6796875 10.5078125 C-8.79512939 10.52352295 -8.79512939 10.52352295 -9.93310547 10.53955078 C-11.8125 10.3125 -11.8125 10.3125 -13.8125 8.3125 C-14 4.75 -14 4.75 -13.8125 1.3125 C-11.15702444 -1.34297556 -3.56997737 0.02843848 0 0 Z " fill="#9da3b9" transform="translate(18.8125,-0.3125)"/>
<path d="M0 0 C3.96 0 7.92 0 12 0 C12.94401042 2.31119792 13.88802083 4.62239583 14.83203125 6.93359375 C15.88403088 9.33372488 15.88403088 9.33372488 19 10 C19.2475 9.46375 19.495 8.9275 19.75 8.375 C20.1625 7.59125 20.575 6.8075 21 6 C21.45375 4.9275 21.9075 3.855 22.375 2.75 C25 -0 25 -0 27.9296875 -0.3828125 C30.97426784 -0.37564878 33.96693249 -0.2575246 37 0 C35.64023456 6.55291219 31.41316829 11.53969753 27.1875 16.5625 C24.95740301 19.42209921 24.03707435 20.83007592 23.25 24.4375 C24.12321193 28.58525665 25.74817424 31.77796112 27.75390625 35.48828125 C29.46331283 38.93388762 30.23446122 42.24190056 31 46 C26.71 46 22.42 46 18 46 C15.84694043 42.14243493 14.60746746 39.44870215 15 35 C11.31993178 38.38168431 9.0214155 41.42521756 7 46 C2.71 46 -1.58 46 -6 46 C-3.75528807 39.2658642 -3.75528807 39.2658642 -1.65234375 36.5625 C-0.99202148 35.68464844 -0.99202148 35.68464844 -0.31835938 34.7890625 C0.60367378 33.59446225 1.52816456 32.40175493 2.45507812 31.2109375 C5.21841281 27.52649126 6.92464903 24.76594906 7 20 C6.12624843 16.75868276 6.12624843 16.75868276 4.6875 13.5625 C2.83414003 9.06295386 1.20501056 4.71049583 0 0 Z " fill="#9da3b9" transform="translate(187,0)"/>
<path d="M0 0 C11.88 0 23.76 0 36 0 C36 2.64 36 5.28 36 8 C34 10 34 10 31.1796875 10.1953125 C30.08914062 10.17210937 28.99859375 10.14890625 27.875 10.125 C26.77929688 10.10695313 25.68359375 10.08890625 24.5546875 10.0703125 C23.71164063 10.04710937 22.86859375 10.02390625 22 10 C22.02964844 11.1240625 22.05929688 12.248125 22.08984375 13.40625 C22.0887878 18.2044757 21.376701 22.7814212 20.5625 27.5 C20.29171035 29.11437276 20.02216636 30.72895498 19.75390625 32.34375 C19.62387207 33.11847656 19.49383789 33.89320312 19.35986328 34.69140625 C19.00504254 36.96765113 18.72543803 39.24250804 18.46484375 41.53125 C18 45 18 45 17 46 C15.14712498 46.07226502 13.29166122 46.0838122 11.4375 46.0625 C10.42558594 46.05347656 9.41367188 46.04445312 8.37109375 46.03515625 C7.19740234 46.01775391 7.19740234 46.01775391 6 46 C5.72135398 38.71924916 6.78872238 31.80386635 7.9375 24.625 C8.21110352 22.84416016 8.21110352 22.84416016 8.49023438 21.02734375 C9.86245069 12.27509863 9.86245069 12.27509863 11 10 C10.28972656 10.01160156 9.57945313 10.02320313 8.84765625 10.03515625 C7.92855469 10.04417969 7.00945312 10.05320312 6.0625 10.0625 C5.14597656 10.07410156 4.22945313 10.08570313 3.28515625 10.09765625 C1 10 1 10 0 9 C0 6.03 0 3.06 0 0 Z " fill="#9da3b9" transform="translate(116,0)"/>
<path d="M0 0 C3.3 0 6.6 0 10 0 C10.55082227 10.12900951 9.66713153 19.73170231 8.125 29.75 C7.95129883 30.89259277 7.77759766 32.03518555 7.59863281 33.21240234 C6.82682901 37.99230741 6.18683932 41.62632135 4 46 C0.7 46 -2.6 46 -6 46 C-6.41412558 36.18368993 -5.37842408 27.49981868 -3.38476562 17.94726562 C-2.57498662 13.84904395 -2.02102289 9.70837936 -1.4296875 5.57421875 C-1 3 -1 3 0 0 Z " fill="#9da3b9" transform="translate(228,0)"/>
<path d="M0 0 C0.99 0.33 1.98 0.66 3 1 C3 2.65 3 4.3 3 6 C1.68 6 0.36 6 -1 6 C-1 6.66 -1 7.32 -1 8 C-0.34 8 0.32 8 1 8 C1.33 9.32 1.66 10.64 2 12 C1.01 12 0.02 12 -1 12 C-0.91621094 12.74765625 -0.83242187 13.4953125 -0.74609375 14.265625 C-0.64425781 15.25046875 -0.54242188 16.2353125 -0.4375 17.25 C-0.33308594 18.22453125 -0.22867188 19.1990625 -0.12109375 20.203125 C-0.01025532 22.7631352 -0.22261908 24.58148159 -1 27 C-1.99 26.67 -2.98 26.34 -4 26 C-4.625 23.6875 -4.625 23.6875 -5 21 C-4.34 20.01 -3.68 19.02 -3 18 C-4.32 18 -5.64 18 -7 18 C-9 15 -9 15 -9 12 C-8.34 12 -7.68 12 -7 12 C-7.33 10.35 -7.66 8.7 -8 7 C-7.01 6.67 -6.02 6.34 -5 6 C-4.67 5.34 -4.34 4.68 -4 4 C-3.01 4 -2.02 4 -1 4 C-0.67 2.68 -0.34 1.36 0 0 Z " fill="#9da3b9" transform="translate(159,10)"/>
<path d="M0 0 C1.32 0 2.64 0 4 0 C4 0.66 4 1.32 4 2 C4.66 2 5.32 2 6 2 C6 3.32 6 4.64 6 6 C5.34 6 4.68 6 4 6 C4 7.32 4 8.64 4 10 C0.37 10 -3.26 10 -7 10 C-5.47246003 6.94492007 -4.19136095 4.55658777 -2 2 C-1.34 2 -0.68 2 0 2 C0 1.34 0 0.68 0 0 Z " fill="#9da3b9" transform="translate(188,36)"/>
<path d="M0 0 C0.66 0 1.32 0 2 0 C2 1.32 2 2.64 2 4 C1.34 4 0.68 4 0 4 C0.66 5.98 1.32 7.96 2 10 C3.32 10 4.64 10 6 10 C6 10.66 6 11.32 6 12 C4.02 12 2.04 12 0 12 C0 12.66 0 13.32 0 14 C-0.66 14 -1.32 14 -2 14 C-2 14.66 -2 15.32 -2 16 C-2.99 15.67 -3.98 15.34 -5 15 C-5.33 15.99 -5.66 16.98 -6 18 C-6.66 18 -7.32 18 -8 18 C-6.65150163 13.64029169 -4.95092154 9.68658562 -2.875 5.625 C-2.33617187 4.56539062 -1.79734375 3.50578125 -1.2421875 2.4140625 C-0.83226562 1.61742188 -0.42234375 0.82078125 0 0 Z " fill="#9da3b9" transform="translate(150,18)"/>
<path d="M0 0 C0.66 0 1.32 0 2 0 C2 0.66 2 1.32 2 2 C2.66 2 3.32 2 4 2 C4 1.34 4 0.68 4 0 C4.66 0 5.32 0 6 0 C4.5575502 3.1950263 2.74704968 5.63222676 0.5 8.3125 C-2.58235847 12.18307072 -4.07403442 15.16440197 -5 20 C-5.33 20 -5.66 20 -6 20 C-6 17.36 -6 14.72 -6 12 C-5.34 12 -4.68 12 -4 12 C-4 10.02 -4 8.04 -4 6 C-3.34 6 -2.68 6 -2 6 C-1.855625 5.195625 -1.71125 4.39125 -1.5625 3.5625 C-1 1 -1 1 0 0 Z " fill="#9da3b9" transform="translate(214,8)"/>
<path d="M0 0 C0.66 0 1.32 0 2 0 C2 4.62 2 9.24 2 14 C1.34 14 0.68 14 0 14 C0 16.64 0 19.28 0 22 C-0.66 22 -1.32 22 -2 22 C-2.29883729 14.52906777 -1.15925507 7.36955011 0 0 Z " fill="#9da3b9" transform="translate(226,6)"/>
<path d="M0 0 C0.99 0.33 1.98 0.66 3 1 C2.34 3.31 1.68 5.62 1 8 C-0.32 8 -1.64 8 -3 8 C-3 8.66 -3 9.32 -3 10 C-3.66 10 -4.32 10 -5 10 C-5 8.02 -5 6.04 -5 4 C-4.34 4 -3.68 4 -3 4 C-3 3.34 -3 2.68 -3 2 C-2.01 1.34 -1.02 0.68 0 0 Z " fill="#9da3b9" transform="translate(211,6)"/>
<path d="M0 0 C2 2 2 2 2.125 5.125 C2.08375 6.07375 2.0425 7.0225 2 8 C5.3 8 8.6 8 12 8 C11.67 8.66 11.34 9.32 11 10 C9.35425434 10.02688151 7.70838587 10.04634123 6.0625 10.0625 C5.14597656 10.07410156 4.22945313 10.08570313 3.28515625 10.09765625 C1 10 1 10 0 9 C-0.07179964 7.48071962 -0.08392007 5.95832518 -0.0625 4.4375 C-0.05347656 3.61121094 -0.04445313 2.78492188 -0.03515625 1.93359375 C-0.02355469 1.29550781 -0.01195313 0.65742188 0 0 Z " fill="#9da3b9" transform="translate(116,0)"/>
<path d="M0 0 C0.66 0 1.32 0 2 0 C2.6708712 1.6232687 3.33657029 3.24867578 4 4.875 C4.556875 6.23238281 4.556875 6.23238281 5.125 7.6171875 C6 10 6 10 6 12 C4.02 12 2.04 12 0 12 C0 11.01 0 10.02 0 9 C0.66 8.67 1.32 8.34 2 8 C2 6.68 2 5.36 2 4 C1.34 4 0.68 4 0 4 C0 2.68 0 1.36 0 0 Z " fill="#9da3b9" transform="translate(212,34)"/>
<path d="M0 0 C1.65322266 0.01740234 1.65322266 0.01740234 3.33984375 0.03515625 C4.99693359 0.04869141 4.99693359 0.04869141 6.6875 0.0625 C7.54214844 0.07410156 8.39679688 0.08570313 9.27734375 0.09765625 C9.27734375 1.08765625 9.27734375 2.07765625 9.27734375 3.09765625 C8.55546875 3.07703125 7.83359375 3.05640625 7.08984375 3.03515625 C4.35809237 3.09586184 1.93478284 3.4902416 -0.72265625 4.09765625 C-1.05265625 3.43765625 -1.38265625 2.77765625 -1.72265625 2.09765625 C-2.38265625 1.76765625 -3.04265625 1.43765625 -3.72265625 1.09765625 C-2.72265625 0.09765625 -2.72265625 0.09765625 0 0 Z " fill="#9da3b9" transform="translate(214.72265625,-0.09765625)"/>
<path d="M0 0 C1.32 0 2.64 0 4 0 C4 1.32 4 2.64 4 4 C2.68 3.67 1.36 3.34 0 3 C0 4.32 0 5.64 0 7 C-0.66 7 -1.32 7 -2 7 C-2 6.01 -2 5.02 -2 4 C-2.66 4 -3.32 4 -4 4 C-4 3.34 -4 2.68 -4 2 C-2.68 2 -1.36 2 0 2 C0 1.34 0 0.68 0 0 Z " fill="#9da3b9" transform="translate(162,14)"/>
<path d="M0 0 C0 3.69418201 -1.28179295 5.77836178 -3 9 C-3.66 9 -4.32 9 -5 9 C-5 7.68 -5 6.36 -5 5 C-4.34 5 -3.68 5 -3 5 C-3 3.68 -3 2.36 -3 1 C-2.01 0.67 -1.02 0.34 0 0 Z " fill="#9da3b9" transform="translate(197,37)"/>
<path d="M0 0 C0.66 0 1.32 0 2 0 C2 1.32 2 2.64 2 4 C3.65 4 5.3 4 7 4 C7.33 4.66 7.66 5.32 8 6 C5.36 6 2.72 6 0 6 C0 4.02 0 2.04 0 0 Z " fill="#9da3b9" transform="translate(158,22)"/>
<path d="M0 0 C0.66 0 1.32 0 2 0 C1.34 1.65 0.68 3.3 0 5 C-0.66 5 -1.32 5 -2 5 C-2.28875 5.639375 -2.5775 6.27875 -2.875 6.9375 C-4 9 -4 9 -6 10 C-4.63312778 6.01328937 -2.84804907 3.11505367 0 0 Z " fill="#9da3b9" transform="translate(188,33)"/>
<path d="M0 0 C0.99 0.33 1.98 0.66 3 1 C3 2.98 3 4.96 3 7 C2.01 7 1.02 7 0 7 C0 4.69 0 2.38 0 0 Z " fill="#9da3b9" transform="translate(165,20)"/>
<path d="M0 0 C0.99 0 1.98 0 3 0 C3 1.32 3 2.64 3 4 C1.02 4 -0.96 4 -3 4 C-3 3.34 -3 2.68 -3 2 C-2.01 2 -1.02 2 0 2 C0 1.34 0 0.68 0 0 Z " fill="#9da3b9" transform="translate(203,10)"/>
</svg>
