<svg version="1.1" xmlns="http://www.w3.org/2000/svg" width="216" height="206" viewBox="0 0 540 517"><path d="M0 0 C178.2 0 356.4 0 540 0 C540 170.61 540 341.22 540 517 C361.8 517 183.6 517 0 517 C0 346.39 0 175.78 0 0 Z " fill="#D51818" transform="translate(0,0)" /><path d="M0 0 C-0.65271996 7.00586093 -1.88703207 13.75171798 -3.375 20.625 C-5.24153403 29.16041677 -5.24153403 29.16041677 -6.78515625 37.7578125 C-6.89875488 38.44407715 -7.01235352 39.1303418 -7.12939453 39.83740234 C-7.41539229 41.61276404 -7.67558588 43.39223014 -7.93359375 45.171875 C-11.22774363 53.90800875 -29.48931218 59.28062382 -37.79296875 63.15234375 C-40 64 -40 64 -43 64 C-43 64.66 -43 65.32 -43 66 C-50.55447857 69.82087877 -58.09964086 73.63098188 -65.8125 77.125 C-70.80773736 79.40060813 -75.61032025 81.90751643 -80.40625 84.57421875 C-83.61942766 86.34049864 -86.88452753 87.97856391 -90.171875 89.6015625 C-92.93415103 90.96743932 -95.68525556 92.35455897 -98.43652344 93.74243164 C-105.05794888 97.07657302 -111.72298014 100.29517305 -118.4375 103.4375 C-128.40197271 108.1121909 -138.34067195 112.99129057 -147.77734375 118.671875 C-150.0965048 120.05766543 -152.47939756 121.08215238 -154.97265625 122.11328125 C-158.24060647 123.54261593 -161.39726843 125.18933413 -164.5703125 126.81640625 C-167 128 -167 128 -169.6171875 128.96484375 C-172.01216968 129.82444726 -172.01216968 129.82444726 -173.421875 131.47265625 C-175.718439 133.69532091 -178.2547092 134.37521663 -181.25 135.4375 C-186.18947275 137.25469733 -190.50245182 139.30147109 -195 142 C-195.66 142 -196.32 142 -197 142 C-197 142.66 -197 143.32 -197 144 C-197.75925781 144.55171875 -198.51851562 145.1034375 -199.30078125 145.671875 C-202.54958772 148.47402935 -203.79413747 151.30760647 -205.1875 155.25 C-205.44233154 155.95745361 -205.69716309 156.66490723 -205.9597168 157.39379883 C-210.70177748 171.3055901 -210.47779939 186.44631137 -211 201 C-213.33270095 202.16664206 -215.66585711 203.33233785 -218 204.49609375 C-220.04583486 205.52167503 -222.08735007 206.55590772 -224.125 207.59765625 C-225.15625 208.12230469 -226.1875 208.64695312 -227.25 209.1875 C-228.68085938 209.92033203 -228.68085938 209.92033203 -230.140625 210.66796875 C-233.0436453 212.02033203 -235.9451897 213.04650152 -239 214 C-239 214.66 -239 215.32 -239 216 C-240.24891614 216.48198463 -241.49918808 216.96045677 -242.75 217.4375 C-243.44609375 217.70433594 -244.1421875 217.97117187 -244.859375 218.24609375 C-246.89171711 218.96186387 -248.9079212 219.49230689 -251 220 C-253.54554348 191.78066135 -255.51080722 157.12494393 -240 132 C-239.62875 130.96875 -239.2575 129.9375 -238.875 128.875 C-235.81051292 121.45828926 -229.4645752 114.61600938 -223 110 C-222.34 110 -221.68 110 -221 110 C-221 109.34 -221 108.68 -221 108 C-213.7421875 104.37109375 -206.484375 100.7421875 -199.2265625 97.11328125 C-198.5572168 96.77844727 -197.88787109 96.44361328 -197.19824219 96.09863281 C-195.81660102 95.40813763 -194.43443917 94.71868333 -193.05175781 94.03027344 C-189.83668445 92.42807234 -186.62972794 90.81475622 -183.4453125 89.15234375 C-182.39085937 88.60707031 -181.33640625 88.06179687 -180.25 87.5 C-179.32703125 87.0153125 -178.4040625 86.530625 -177.453125 86.03125 C-175 85 -175 85 -171 85 C-170.505 83.515 -170.505 83.515 -170 82 C-167.73779297 80.66894531 -167.73779297 80.66894531 -164.7421875 79.328125 C-163.6480957 78.83183594 -162.55400391 78.33554688 -161.42675781 77.82421875 C-160.25467773 77.30472656 -159.08259766 76.78523438 -157.875 76.25 C-155.49216991 75.17191389 -153.10935732 74.09378908 -150.7265625 73.015625 C-148.48439774 72.01036595 -146.24221227 71.00515309 -144 70 C-141.07811601 68.67775156 -138.16212113 67.34358344 -135.25 66 C-134.16203125 65.505 -133.0740625 65.01 -131.953125 64.5 C-128.91276686 63.035888 -128.91276686 63.035888 -125.984375 60.9375 C-122.98951794 58.99319489 -120.3884906 58.06055355 -117 57 C-114.94184999 56.01282118 -112.89982617 54.99134175 -110.875 53.9375 C-107.598178 52.23238524 -104.63988726 50.70533701 -101 50 C-101 49.34 -101 48.68 -101 48 C-100.39414062 47.76925781 -99.78828125 47.53851563 -99.1640625 47.30078125 C-91.5485784 44.33660051 -84.25252704 40.92611964 -77.1875 36.8125 C-72.83969984 34.34022148 -68.92533166 32.84434257 -64 32 C-64 31.34 -64 30.68 -64 30 C-63.21520264 29.63032104 -63.21520264 29.63032104 -62.41455078 29.25317383 C-59.98413302 28.10748185 -57.55453015 26.96007299 -55.125 25.8125 C-54.25254639 25.4012085 -53.38009277 24.98991699 -52.48120117 24.56616211 C-48.0501359 22.47067279 -43.65685841 20.33388109 -39.3125 18.0625 C-35.28360829 16.00911055 -31.42660932 14.90171671 -27 14 C-27 13.34 -27 12.68 -27 12 C-23.9802079 10.56030542 -20.95897965 9.12364913 -17.9375 7.6875 C-16.66616211 7.08131836 -16.66616211 7.08131836 -15.36914062 6.46289062 C-1.76028963 0 -1.76028963 0 0 0 Z " fill="#FDFBFB" transform="translate(413,95)" /><path d="M0 0 C1.47320732 8.76741663 1.33714909 17.58539756 1.4050293 26.45507812 C1.42642142 28.54346442 1.4602944 30.63176581 1.50756836 32.71972656 C2.07857825 58.26683094 -4.44967762 84.60900167 -21.375 104.5 C-25.79559791 109.09981134 -30.36812082 112.07085681 -36 115 C-37.4328624 115.76716413 -38.8651 116.53549582 -40.296875 117.3046875 C-49.85992219 122.41259328 -59.52143509 127.31833447 -69.23779297 132.12695312 C-71.828865 133.41064301 -74.41434826 134.70543412 -77 136 C-77.94875 136.47308594 -78.8975 136.94617188 -79.875 137.43359375 C-82.21266939 138.60535053 -84.54515149 139.78554838 -86.875 140.97265625 C-108.593488 152 -108.593488 152 -113 152 C-113 152.66 -113 153.32 -113 154 C-113.75023437 154.30292969 -114.50046875 154.60585938 -115.2734375 154.91796875 C-121.33969409 157.40100829 -127.236599 160.03057391 -133.0390625 163.08203125 C-135 164 -135 164 -137 164 C-137 164.66 -137 165.32 -137 166 C-137.72703125 166.29132813 -138.4540625 166.58265625 -139.203125 166.8828125 C-146.661544 169.92355255 -153.83021256 173.33828713 -161 177 C-163.7475368 178.37993802 -166.49884201 179.75229878 -169.25 181.125 C-170.54693936 181.77330877 -171.84381587 182.42174328 -173.140625 183.0703125 C-174.08869019 183.54404297 -174.08869019 183.54404297 -175.0559082 184.02734375 C-176.39102795 184.69532278 -177.72546496 185.36466763 -179.05932617 186.03515625 C-182.95439873 187.99076402 -186.85774225 189.91689341 -190.8125 191.75 C-191.72644531 192.17796875 -192.64039063 192.6059375 -193.58203125 193.046875 C-196 194 -196 194 -199 194 C-199 194.66 -199 195.32 -199 196 C-200.0209375 196.4021875 -200.0209375 196.4021875 -201.0625 196.8125 C-209.95921287 200.4090435 -218.45756715 204.64253786 -227 209 C-229.62281917 210.33768783 -232.24807797 211.67039128 -234.875 213 C-236.00679687 213.5775 -237.13859375 214.155 -238.3046875 214.75 C-241 216 -241 216 -243 216 C-243.33 216.99 -243.66 217.98 -244 219 C-245.98 219.33 -247.96 219.66 -250 220 C-249.53456974 212.42472128 -248.45389193 205.03209713 -246.90234375 197.60546875 C-246.19645044 194.20256577 -245.70057369 190.80941639 -245.25390625 187.36328125 C-243.14427432 173.22250443 -243.14427432 173.22250443 -239.3671875 169.30761719 C-235.55143284 166.6008653 -231.39697766 165.00985647 -226.95458984 163.62011719 C-224.26301054 162.76618121 -221.71250077 161.62565727 -219.125 160.5 C-215.31034483 159 -215.31034483 159 -213 159 C-213 158.34 -213 157.68 -213 157 C-209.7 156.01 -206.4 155.02 -203 154 C-203 153.34 -203 152.68 -203 152 C-200.48043257 150.72660518 -197.95941351 149.45623358 -195.4375 148.1875 C-194.73302734 147.83107422 -194.02855469 147.47464844 -193.30273438 147.10742188 C-181.14392202 141 -181.14392202 141 -177 141 C-177 140.34 -177 139.68 -177 139 C-170.3125 135.65625 -163.625 132.3125 -156.9375 128.96875 C-156.28612061 128.64302002 -155.63474121 128.31729004 -154.96362305 127.98168945 C-153.64750955 127.32371452 -152.33126463 126.66600242 -151.01489258 126.00854492 C-147.61488248 124.30999589 -144.217458 122.6065711 -140.82421875 120.89453125 C-139.44549719 120.200154 -138.066593 119.50613925 -136.6875 118.8125 C-135.68686523 118.30916138 -135.68686523 118.30916138 -134.66601562 117.7956543 C-130.81609573 115.87117224 -126.9386289 114.05092931 -123 112.3125 C-119.10272535 110.57972968 -115.56730764 108.61710476 -112.046875 106.2109375 C-109.76926834 104.86349845 -107.40108465 103.88329766 -104.96240234 102.86572266 C-101.35398718 101.27385401 -97.90789699 99.36938718 -94.4375 97.5 C-92.28030659 96.34415632 -90.1223113 95.19005871 -87.96044922 94.04296875 C-86.20928194 93.11133904 -84.46544406 92.16596244 -82.72265625 91.21875 C-80 90 -80 90 -76 90 C-76 89.34 -76 88.68 -76 88 C-74.08850332 86.9901527 -72.17058431 85.99245505 -70.25 85 C-69.18265625 84.443125 -68.1153125 83.88625 -67.015625 83.3125 C-64 82 -64 82 -60 82 C-60 81.34 -60 80.68 -60 80 C-59.13375 79.649375 -58.2675 79.29875 -57.375 78.9375 C-50.27444797 74.86125717 -46.66870132 68.58166998 -44 61 C-43.18404503 57.37595919 -42.72494172 53.75196163 -42.3125 50.0625 C-42.12119507 48.56601929 -42.12119507 48.56601929 -41.92602539 47.03930664 C-41.34489586 42.24622971 -40.93246177 37.54097713 -40.9453125 32.7109375 C-40.96842797 21.1370207 -40.96842797 21.1370207 -38.0703125 17.734375 C-35.43882808 16.11121639 -32.90393693 15.05121711 -30 14 C-28.32520209 13.1406661 -26.65823558 12.26587458 -25 11.375 C-20.80329526 9.30648202 -16.52582823 7.58721859 -12.12890625 5.9921875 C-9.88118107 4.94462384 -8.68549218 3.78604711 -7 2 C-2.68421053 0 -2.68421053 0 0 0 Z " fill="#FEFCFB" transform="translate(377,205)" /><path d="M0 0 C0.99 0 1.98 0 3 0 C3 170.61 3 341.22 3 517 C2.01 517 1.02 517 0 517 C0 346.39 0 175.78 0 0 Z " fill="#330303" transform="translate(0,0)" /><path d="M0 0 C0.99 0 1.98 0 3 0 C3 170.61 3 341.22 3 517 C2.01 517 1.02 517 0 517 C0 346.39 0 175.78 0 0 Z " fill="#350304" transform="translate(537,0)" /><path d="M0 0 C0 3.10242392 -0.399264 4.06930855 -1.75 6.75 C-10.60148429 26.17322171 -11.45481975 47.6832714 -11.1875 68.625 C-11.17240575 70.71092769 -11.15872584 72.79686612 -11.14648438 74.8828125 C-11.11390082 79.92214711 -11.06238824 84.9609499 -11 90 C-10.46890625 89.71125 -9.9378125 89.4225 -9.390625 89.125 C-8.68421875 88.75375 -7.9778125 88.3825 -7.25 88 C-6.55390625 87.62875 -5.8578125 87.2575 -5.140625 86.875 C-3 86 -3 86 1 86 C1 85.34 1 84.68 1 84 C17.375 75.8125 17.375 75.8125 19.25 74.87890625 C20.96574416 74.01720439 22.67053254 73.13379794 24.375 72.25 C27 71 27 71 29 71 C28.98428955 70.17145508 28.98428955 70.17145508 28.96826172 69.32617188 C28.45274436 37.82088345 28.45274436 37.82088345 33 31 C33.125 38.625 33.125 38.625 32 42 C31.9072525 44.17561187 31.86829459 46.35368036 31.859375 48.53125 C31.84003906 49.81644531 31.82070312 51.10164063 31.80078125 52.42578125 C31.7717555 54.46693119 31.74999834 56.50696968 31.74951172 58.54833984 C31.74618189 60.52197676 31.70948016 62.49546857 31.671875 64.46875 C31.6625293 65.64888672 31.65318359 66.82902344 31.64355469 68.04492188 C31 71 31 71 28.55541992 72.80932617 C27.71213135 73.20224854 26.86884277 73.5951709 26 74 C25.48566406 74.52207031 24.97132813 75.04414063 24.44140625 75.58203125 C22.71816259 77.27725469 21.20662893 77.88588249 18.9375 78.6875 C18.24527344 78.93886719 17.55304688 79.19023437 16.83984375 79.44921875 C15 80 15 80 13 80 C12.67 80.99 12.34 81.98 12 83 C8.5647952 85.29013653 7.014669 85.17842973 3 85 C3 85.66 3 86.32 3 87 C1.6078125 87.4021875 1.6078125 87.4021875 0.1875 87.8125 C-2.96321814 88.70161538 -2.96321814 88.70161538 -4.4375 90.625 C-7.00176362 92.88155199 -9.74178183 92.18442744 -13 92 C-13.91122528 86.35652914 -14.29774046 80.77002113 -14.5625 75.0625 C-14.60568359 74.18787109 -14.64886719 73.31324219 -14.69335938 72.41210938 C-14.79846901 70.27488005 -14.89963985 68.13745762 -15 66 C-15.33 66 -15.66 66 -16 66 C-16.09765625 59.84765625 -16.09765625 59.84765625 -16 58 C-15.505 57.505 -15.505 57.505 -15 57 C-14.90392067 54.82006673 -14.81486182 52.63961198 -14.76000977 50.45825195 C-14.53209563 41.74916953 -13.78749334 33.35895084 -12.0625 24.8125 C-11.89258545 23.95809326 -11.7226709 23.10368652 -11.54760742 22.22338867 C-10.27233912 16.27233912 -10.27233912 16.27233912 -8 14 C-7.1811373 12.16974497 -7.1811373 12.16974497 -6.5 10.125 C-3.73328025 2.4888535 -3.73328025 2.4888535 0 0 Z " fill="#C14747" transform="translate(173,225)" /><path d="M0 0 C0 0.66 0 1.32 0 2 C-0.99 2 -1.98 2 -3 2 C-3 2.99 -3 3.98 -3 5 C-4.72718516 5.96189997 -6.45684058 6.91936508 -8.1875 7.875 C-9.63189453 8.67550781 -9.63189453 8.67550781 -11.10546875 9.4921875 C-14 11 -14 11 -16.8125 12.03125 C-17.534375 12.3509375 -18.25625 12.670625 -19 13 C-19.89386164 15.54775306 -19.89386164 15.54775306 -20 18 C-20.99 18 -21.98 18 -23 18 C-23.33 17.34 -23.66 16.68 -24 16 C-25.32 16 -26.64 16 -28 16 C-28.185625 16.639375 -28.37125 17.27875 -28.5625 17.9375 C-29.036875 18.618125 -29.51125 19.29875 -30 20 C-32.33157492 20.34541851 -34.66508361 20.67794257 -37 21 C-38.3743291 22.29103643 -39.70896357 23.6256709 -41 25 C-45.68171108 26.89260661 -50.11455032 28.62848323 -55 27 C-49.36469197 22.85890244 -43.77555755 19.92632962 -37.27734375 17.3671875 C-32.32308667 15.30045332 -27.60101647 12.82215974 -22.8359375 10.35546875 C-20 9 -20 9 -18 9 C-18 8.34 -18 7.68 -18 7 C-17.09636719 6.66226563 -16.19273437 6.32453125 -15.26171875 5.9765625 C-14.08222656 5.53054687 -12.90273438 5.08453125 -11.6875 4.625 C-10.51574219 4.18414062 -9.34398437 3.74328125 -8.13671875 3.2890625 C-0.13333333 0 -0.13333333 0 0 0 Z " fill="#C24244" transform="translate(388,152)" /><path d="M0 0 C0 0.66 0 1.32 0 2 C-6.625 5.875 -6.625 5.875 -10 7 C-10 7.66 -10 8.32 -10 9 C-10.56589844 9.12117188 -11.13179687 9.24234375 -11.71484375 9.3671875 C-12.44832031 9.53476562 -13.18179688 9.70234375 -13.9375 9.875 C-14.66839844 10.03742188 -15.39929688 10.19984375 -16.15234375 10.3671875 C-18.20700294 10.82961523 -18.20700294 10.82961523 -19 13 C-21.5625 13.625 -21.5625 13.625 -24 14 C-24 14.66 -24 15.32 -24 16 C-28.22949995 18.41685712 -31.12335991 19.34833144 -36 19 C-36 19.66 -36 20.32 -36 21 C-40.455 22.485 -40.455 22.485 -45 24 C-45 24.99 -45 25.98 -45 27 C-46.69197419 28.69197419 -48.93359541 28.32657934 -51.25 28.5 C-54.91128954 28.77707056 -58.41162583 29.21422463 -62 30 C-60.50283634 27.00567267 -57.96538045 26.59820347 -55.0078125 25.34765625 C-52.64431333 24.28868584 -50.35567975 23.17947686 -48.0546875 21.99609375 C-47.35674072 21.63789551 -46.65879395 21.27969727 -45.93969727 20.91064453 C-44.5437226 20.18998643 -43.15084831 19.46328401 -41.76147461 18.72998047 C-37.82991788 16.71095575 -34.4632195 15.46506331 -30 15 C-30 14.34 -30 13.68 -30 13 C-29.10796875 12.67386719 -28.2159375 12.34773438 -27.296875 12.01171875 C-26.12640625 11.57472656 -24.9559375 11.13773437 -23.75 10.6875 C-22.58984375 10.25824219 -21.4296875 9.82898438 -20.234375 9.38671875 C-17.38560964 8.1653278 -15.38558363 6.92681755 -13 5 C-11.34561387 4.30341637 -9.67745682 3.63903117 -8 3 C-6.948125 2.46375 -5.89625 1.9275 -4.8125 1.375 C-2 0 -2 0 0 0 Z " fill="#BB393A" transform="translate(208,386)" /><path d="M0 0 C-5.38140473 3.08265507 -10.72415001 5.97392352 -16.5 8.25 C-23.65536369 11.13253641 -30.35459896 14.80121967 -37.15234375 18.42578125 C-41.67872256 20.83858433 -46.23146937 23.19276166 -50.8125 25.5 C-51.45155273 25.82589111 -52.09060547 26.15178223 -52.74902344 26.48754883 C-56.42209555 28.32848787 -60.07215416 29.79698443 -64 31 C-64 30.34 -64 29.68 -64 29 C-62.68 28.67 -61.36 28.34 -60 28 C-59.67 26.68 -59.34 25.36 -59 24 C-57.7625 23.87625 -57.7625 23.87625 -56.5 23.75 C-52.80968253 22.95921768 -50.10448298 21.65356946 -46.83203125 19.83984375 C-45 19 -45 19 -42 19 C-42 18.34 -42 17.68 -42 17 C-40.783125 16.608125 -39.56625 16.21625 -38.3125 15.8125 C-34.23119561 14.30356704 -32.00118857 12.16341498 -29 9 C-24.99305333 6.78563474 -21.5254131 6.82253282 -17 7 C-17 6.34 -17 5.68 -17 5 C-14.76103244 2.15173963 -12.48749439 1.25947203 -9.0625 0.25 C-8.20785156 -0.01296875 -7.35320312 -0.2759375 -6.47265625 -0.546875 C-3.90902331 -1.01667187 -2.43882304 -0.83746128 0 0 Z " fill="#B62727" transform="translate(266,312)" /><path d="M0 0 C0.66 0.33 1.32 0.66 2 1 C3.54491787 10.84063626 3.20180858 21.12049352 3.1875 31.0625 C3.18722809 31.77668091 3.18695618 32.49086182 3.18667603 33.22668457 C3.1709357 42.25634446 2.9942014 51.25067082 2.1875 60.25 C2.08248169 61.49728882 2.08248169 61.49728882 1.9753418 62.76977539 C1.50824544 67.17296186 0.79637119 70.50622873 -2 74 C-3.485 74.495 -3.485 74.495 -5 75 C-4.60722263 69.99208859 -3.62907177 65.76726066 -1.97753906 61.0168457 C0.15768407 54.17905924 0.52258032 48.03876055 0.390625 40.91796875 C0.38213531 39.14768059 0.38213531 39.14768059 0.37347412 37.34162903 C0.35133049 33.62314887 0.30117539 29.90568207 0.25 26.1875 C0.22990658 23.64519634 0.21166084 21.10287737 0.1953125 18.56054688 C0.15153821 12.37336024 0.08485085 6.18675255 0 0 Z " fill="#BB3031" transform="translate(377,205)" /><path d="M0 0 C2.64 0 5.28 0 8 0 C5.64173928 2.90769842 3.72357765 4.23399121 0.1796875 5.19140625 C-4.57960577 6.60834528 -8.76900695 8.06631552 -12 12 C-14.46958048 19.60742799 -14.01664139 27.93014285 -13.97998047 35.84667969 C-14.03304838 44.20552252 -15.09020376 52.53584355 -19 60 C-19.33 60 -19.66 60 -20 60 C-19.42192039 54.92512803 -18.60319099 50.05443921 -17.5 45.0625 C-15.19849907 33.86675796 -15.24656778 22.38843459 -15 11 C-14.34 11 -13.68 11 -13 11 C-12.835 10.401875 -12.67 9.80375 -12.5 9.1875 C-10.44369239 6.18871806 -8.1710575 5.75421297 -4.77734375 4.7109375 C-2.79665752 4.14695157 -2.79665752 4.14695157 -2 2 C-1.34 2 -0.68 2 0 2 C0 1.34 0 0.68 0 0 Z " fill="#BC2F2E" transform="translate(350,213)" /><path d="M0 0 C1.9453125 -0.29296875 1.9453125 -0.29296875 4.125 -0.1875 C5.40375 -0.125625 6.6825 -0.06375 8 0 C7.34 0.33 6.68 0.66 6 1 C6 1.66 6 2.32 6 3 C4.9378125 3.45890625 3.875625 3.9178125 2.78125 4.390625 C-6.13709467 8.21988728 -6.13709467 8.21988728 -14.875 12.4375 C-18 14 -18 14 -20 14 C-20 14.66 -20 15.32 -20 16 C-21.29009643 16.50403768 -22.58213789 17.00309926 -23.875 17.5 C-24.59429687 17.7784375 -25.31359375 18.056875 -26.0546875 18.34375 C-28 19 -28 19 -30 19 C-30 19.66 -30 20.32 -30 21 C-32.31 21.66 -34.62 22.32 -37 23 C-37 22.01 -37 21.02 -37 20 C-36.34 20 -35.68 20 -35 20 C-35 19.34 -35 18.68 -35 18 C-33.58603098 17.49242138 -32.16868271 16.99425075 -30.75 16.5 C-29.96109375 16.2215625 -29.1721875 15.943125 -28.359375 15.65625 C-26 15 -26 15 -22 15 C-22 14.34 -22 13.68 -22 13 C-21.01 13 -20.02 13 -19 13 C-19 12.34 -19 11.68 -19 11 C-18.34 11 -17.68 11 -17 11 C-16.67 10.01 -16.34 9.02 -16 8 C-13.67739448 7.03689683 -11.45572689 6.23528279 -9.0625 5.5 C-3.73771028 3.98422557 -3.73771028 3.98422557 0 0 Z " fill="#BC2727" transform="translate(194,343)" /><path d="M0 0 C-1.32 0.33 -2.64 0.66 -4 1 C-4 1.66 -4 2.32 -4 3 C-4.84820312 3.35191406 -5.69640625 3.70382813 -6.5703125 4.06640625 C-16.35558898 8.18482481 -25.83594458 12.73095605 -35.21875 17.70703125 C-38 19 -38 19 -41 19 C-41 19.66 -41 20.32 -41 21 C-43.90600261 22.25664978 -45.79604584 23 -49 23 C-48.67 22.34 -48.34 21.68 -48 21 C-47.34 21 -46.68 21 -46 21 C-46 20.34 -46 19.68 -46 19 C-42.91190305 17.23537317 -41.76687864 17 -38 17 C-38 16.34 -38 15.68 -38 15 C-33.05 13.515 -33.05 13.515 -28 12 C-28 11.34 -28 10.68 -28 10 C-27.45472656 9.76925781 -26.90945313 9.53851563 -26.34765625 9.30078125 C-22.20882122 7.51082354 -18.22661633 5.61829456 -14.3125 3.375 C-4.95622705 -1.90624117 -4.95622705 -1.90624117 0 0 Z " fill="#B9292C" transform="translate(390,106)" /><path d="M0 0 C0.33 0 0.66 0 1 0 C0.48351265 7.78808563 -0.44876534 15.34925042 -2 23 C1.95021324 21.85882729 4.14873034 20.86559765 7 18 C8.97265625 16.83203125 8.97265625 16.83203125 11.0625 15.8125 C11.75472656 15.46832031 12.44695312 15.12414062 13.16015625 14.76953125 C15 14 15 14 17 14 C17 14.66 17 15.32 17 16 C16.34 16.33 15.68 16.66 15 17 C16.32 17.66 17.64 18.32 19 19 C15.52674819 20.1577506 12.63932552 20.06866652 9 20 C8.67 20.99 8.34 21.98 8 23 C4.54337669 25.30441554 3.05142119 25.25860135 -1 25 C-1.66 24.67 -2.32 24.34 -3 24 C-2.8901717 20.56183853 -2.75953137 17.12477652 -2.625 13.6875 C-2.5940625 12.71103516 -2.563125 11.73457031 -2.53125 10.72851562 C-2.49257812 9.79072266 -2.45390625 8.85292969 -2.4140625 7.88671875 C-2.3826416 7.02264404 -2.3512207 6.15856934 -2.31884766 5.26831055 C-2 3 -2 3 0 0 Z " fill="#BF3736" transform="translate(129,402)" /><path d="M0 0 C1.65 0 3.3 0 5 0 C5 0.99 5 1.98 5 3 C2.15416305 4.42291847 -0.69187377 5.84541209 -3.5390625 7.265625 C-5.82971775 8.41353802 -8.11626845 9.56968183 -10.3984375 10.734375 C-11.46320313 11.27578125 -12.52796875 11.8171875 -13.625 12.375 C-15.09839844 13.12910156 -15.09839844 13.12910156 -16.6015625 13.8984375 C-19 15 -19 15 -21 15 C-21 15.66 -21 16.32 -21 17 C-23.31 18.32 -25.62 19.64 -28 21 C-28 18 -28 18 -26.6875 16.3125 C-25 15 -25 15 -22 15 C-22 14.34 -22 13.68 -22 13 C-21.01 13 -20.02 13 -19 13 C-19 12.34 -19 11.68 -19 11 C-18.34 11 -17.68 11 -17 11 C-17 10.34 -17 9.68 -17 9 C-16.05125 8.896875 -15.1025 8.79375 -14.125 8.6875 C-10.70892499 8.31460705 -10.70892499 8.31460705 -9 5 C-6.8359375 4.05078125 -6.8359375 4.05078125 -4.375 3.3125 C-3.14910156 2.93544922 -3.14910156 2.93544922 -1.8984375 2.55078125 C-1.27195313 2.36902344 -0.64546875 2.18726563 0 2 C0 1.34 0 0.68 0 0 Z " fill="#BD3A3D" transform="translate(213,188)" /><path d="M0 0 C1 2 1 2 0.09375 5.11328125 C-1.03281977 9.27126252 -1.20199899 13.32331053 -1.28125 17.60546875 C-1.3200283 19.01498181 -1.35909613 20.42448692 -1.3984375 21.83398438 C-1.45658241 24.02057779 -1.50000685 26.20296074 -1.50097656 28.39038086 C-1.51559625 33.06502597 -1.67093466 37.48003209 -3 42 C-6.03138098 44.82534821 -9.08259348 45.83785588 -13 47 C-14.51440472 47.74213366 -16.01611037 48.51109149 -17.5 49.3125 C-21 51 -21 51 -23 51 C-23 50.34 -23 49.68 -23 49 C-22.01 49 -21.02 49 -20 49 C-20 48.34 -20 47.68 -20 47 C-18.68 47 -17.36 47 -16 47 C-16 46.34 -16 45.68 -16 45 C-15.01 45 -14.02 45 -13 45 C-12.67 44.01 -12.34 43.02 -12 42 C-11.01 42.33 -10.02 42.66 -9 43 C-8.67 42.01 -8.34 41.02 -8 40 C-7.01 40 -6.02 40 -5 40 C-4.95512451 38.96593018 -4.91024902 37.93186035 -4.86401367 36.86645508 C-4.69331886 33.01725726 -4.50450478 29.16912244 -4.31030273 25.32104492 C-4.22888391 23.65786709 -4.15233121 21.99444342 -4.08081055 20.33081055 C-3.97693744 17.93456547 -3.85538885 15.53976019 -3.73046875 13.14453125 C-3.70220505 12.4047554 -3.67394135 11.66497955 -3.64482117 10.90278625 C-3.39381504 6.48756093 -2.61708051 3.58272478 0 0 Z " fill="#FBCDCA" transform="translate(205,254)" /><path d="M0 0 C0.33 0 0.66 0 1 0 C0.63512837 12.27981768 -0.33450158 23.99687504 -3 36 C-5.475 36.495 -5.475 36.495 -8 37 C-7.8146167 36.44199707 -7.6292334 35.88399414 -7.43823242 35.30908203 C-5.09623598 27.93197882 -3.66153166 20.48826626 -2.3125 12.875 C-1.97508789 11.01101562 -1.97508789 11.01101562 -1.63085938 9.109375 C-1.08212056 6.07379857 -0.53862274 3.03738475 0 0 Z " fill="#C63B3C" transform="translate(410,108)" /><path d="M0 0 C-1.4562545 0.67119549 -2.91507867 1.33681807 -4.375 2 C-5.59316406 2.556875 -5.59316406 2.556875 -6.8359375 3.125 C-9 4 -9 4 -11 4 C-11.10957031 4.79921875 -11.21914062 5.5984375 -11.33203125 6.421875 C-12.43952155 14.09327125 -13.9779951 21.51858189 -16 29 C-16.33 29 -16.66 29 -17 29 C-17.11547323 20.92970447 -16.90041311 13.02332397 -16 5 C-15.34 5 -14.68 5 -14 5 C-13.54625 4.54109375 -13.0925 4.0821875 -12.625 3.609375 C-10.81829337 1.82004055 -9.37036021 1.12990644 -7 0.25 C-6.319375 -0.01296875 -5.63875 -0.2759375 -4.9375 -0.546875 C-3 -1 -3 -1 0 0 Z " fill="#BE2D2E" transform="translate(147,372)" /><path d="M0 0 C0 3.10242392 -0.399264 4.06930855 -1.75 6.75 C-7.22886851 18.77253479 -9.04081622 32.04267094 -11 45 C-11.33 45 -11.66 45 -12 45 C-12.10450644 38.65496644 -11.71440155 32.4412733 -11.125 26.125 C-11.04636719 25.17625 -10.96773437 24.2275 -10.88671875 23.25 C-10.80292969 22.34507812 -10.71914062 21.44015625 -10.6328125 20.5078125 C-10.55949707 19.68941895 -10.48618164 18.87102539 -10.41064453 18.02783203 C-10 16 -10 16 -8 14 C-7.1811373 12.16974497 -7.1811373 12.16974497 -6.5 10.125 C-3.73328025 2.4888535 -3.73328025 2.4888535 0 0 Z " fill="#CB5B5A" transform="translate(173,225)" /><path d="M0 0 C-0.51482919 5.852795 -1.45357192 11.3297637 -3 17 C-3.33 17 -3.66 17 -4 17 C-3.67 13.7 -3.34 10.4 -3 7 C-6.38527404 7.50779111 -9.68761981 8.1464251 -13 9 C-16.31238019 9.8535749 -19.61472596 10.49220889 -23 11 C-19.89272751 8.50972181 -16.68703173 6.70945217 -13.125 4.9375 C-12.11695313 4.43089844 -11.10890625 3.92429687 -10.0703125 3.40234375 C-2.62116992 0 -2.62116992 0 0 0 Z " fill="#F6D6D6" transform="translate(413,95)" /><path d="M0 0 C1.65 0 3.3 0 5 0 C2.38947668 2.0907547 0.07804275 3.49645651 -3.0625 4.625 C-9.4065551 7.04814285 -15.47224169 10.03379325 -21.57446289 13.00244141 C-22.37489014 13.38835449 -23.17531738 13.77426758 -24 14.171875 C-24.721875 14.5234668 -25.44375 14.87505859 -26.1875 15.23730469 C-28 16 -28 16 -30 16 C-30 15.34 -30 14.68 -30 14 C-29.21625 13.731875 -28.4325 13.46375 -27.625 13.1875 C-24.71885077 12.15185568 -24.71885077 12.15185568 -23 9 C-19.875 8.8125 -19.875 8.8125 -17 9 C-17 8.34 -17 7.68 -17 7 C-14 5 -14 5 -11.375 4.5 C-10.199375 4.2525 -10.199375 4.2525 -9 4 C-8.67 3.34 -8.34 2.68 -8 2 C-5.36 2 -2.72 2 0 2 C0 1.34 0 0.68 0 0 Z " fill="#B92D2C" transform="translate(273,161)" /><path d="M0 0 C-0.5 1.8125 -0.5 1.8125 -2 4 C-5.14496215 5.59247024 -8.44551303 7 -12 7 C-15.29195731 12.8784952 -16.32738947 19.39939136 -17.4375 25.9609375 C-17.623125 26.63382812 -17.80875 27.30671875 -18 28 C-18.66 28.33 -19.32 28.66 -20 29 C-19.82569332 26.94318122 -19.63237093 24.88693047 -19.3671875 22.83984375 C-19.10575137 20.81788558 -18.90950277 18.78704514 -18.7578125 16.75390625 C-17.65900313 8.41644921 -17.65900313 8.41644921 -14.52050781 5.73681641 C-10.39174954 3.1051619 -4.96398242 0 0 0 Z " fill="#F5C1BE" transform="translate(152,369)" /><path d="M0 0 C0 0.66 0 1.32 0 2 C-0.99 2 -1.98 2 -3 2 C-3 2.99 -3 3.98 -3 5 C-4.72718516 5.96189997 -6.45684058 6.91936508 -8.1875 7.875 C-9.15042969 8.40867188 -10.11335938 8.94234375 -11.10546875 9.4921875 C-14 11 -14 11 -16.8125 12.03125 C-17.534375 12.3509375 -18.25625 12.670625 -19 13 C-19.89386164 15.54775306 -19.89386164 15.54775306 -20 18 C-20.99 18 -21.98 18 -23 18 C-23.33 17.01 -23.66 16.02 -24 15 C-23.34 15 -22.68 15 -22 15 C-21.62875 14.0409375 -21.62875 14.0409375 -21.25 13.0625 C-20 11 -20 11 -17.875 10.25 C-16.946875 10.12625 -16.946875 10.12625 -16 10 C-16 9.34 -16 8.68 -16 8 C-11.55871589 4.4651004 -5.94768668 0 0 0 Z " fill="#CB191F" transform="translate(388,152)" /><path d="M0 0 C0 0.66 0 1.32 0 2 C1.65 1.67 3.3 1.34 5 1 C4.67 1.99 4.34 2.98 4 4 C-1.94 4.495 -1.94 4.495 -8 5 C-8 5.66 -8 6.32 -8 7 C-9.98 7.33 -11.96 7.66 -14 8 C-14.33 8.99 -14.66 9.98 -15 11 C-16.92578125 11.984375 -16.92578125 11.984375 -19.3125 12.75 C-20.09238281 13.01296875 -20.87226563 13.2759375 -21.67578125 13.546875 C-24.16921091 14.03298902 -25.6181897 13.80665429 -28 13 C-26.70990357 12.49596232 -25.41786211 11.99690074 -24.125 11.5 C-23.40570313 11.2215625 -22.68640625 10.943125 -21.9453125 10.65625 C-20 10 -20 10 -18 10 C-18 9.34 -18 8.68 -18 8 C-15.3773768 6.66180502 -12.75213401 5.3292849 -10.125 4 C-9.37863281 3.6184375 -8.63226563 3.236875 -7.86328125 2.84375 C-7.14785156 2.4828125 -6.43242187 2.121875 -5.6953125 1.75 C-5.03547363 1.41484375 -4.37563477 1.0796875 -3.69580078 0.734375 C-2 0 -2 0 0 0 Z " fill="#C14A4A" transform="translate(258,361)" /><path d="M0 0 C1.03958958 5.9871027 1.16111701 11.82572015 1.16796875 17.89453125 C1.17129715 18.92309738 1.17462555 19.95166351 1.17805481 21.01139832 C1.18309689 23.17385411 1.18546398 25.33631763 1.18530273 27.4987793 C1.18750429 30.81897519 1.20572963 34.13884652 1.22460938 37.45898438 C1.22754077 39.56249886 1.22952726 41.66601493 1.23046875 43.76953125 C1.23765427 44.76531693 1.24483978 45.7611026 1.25224304 46.7870636 C1.24916641 47.70529404 1.24608978 48.62352448 1.24291992 49.56958008 C1.24434494 50.37897537 1.24576996 51.18837067 1.24723816 52.02229309 C1 54 1 54 -1 56 C-0.99666908 55.11130219 -0.99666908 55.11130219 -0.99327087 54.20465088 C-0.97115393 48.0404114 -0.95606656 41.8761832 -0.94506836 35.71191406 C-0.94003843 33.41112816 -0.93321376 31.11034545 -0.92456055 28.80957031 C-0.91243641 25.50324718 -0.90675828 22.1969663 -0.90234375 18.890625 C-0.89718246 17.86132874 -0.89202118 16.83203247 -0.88670349 15.77154541 C-0.88662796 14.81085144 -0.88655243 13.85015747 -0.88647461 12.86035156 C-0.88314369 11.59460297 -0.88314369 11.59460297 -0.87974548 10.30328369 C-0.99629785 8.07090873 -1.37773147 6.14140664 -2 4 C-4.31 4 -6.62 4 -9 4 C-6.43425105 1.43425105 -3.68548192 0 0 0 Z " fill="#E29393" transform="translate(377,205)" /><path d="M0 0 C0.1799928 5.21979128 -0.02905192 9.07262981 -2 14 C-3.53166168 9.91556885 -2.63081652 6.20544343 -2 2 C-10.42358138 5.40972803 -10.42358138 5.40972803 -18.625 9.3125 C-22 11 -22 11 -24 11 C-24 10.34 -24 9.68 -24 9 C-21 7 -21 7 -18 7 C-18 6.34 -18 5.68 -18 5 C-15.35869909 2.35869909 -13.19121892 2.17598812 -9.5625 1.375 C-8.40878906 1.11460938 -7.25507813 0.85421875 -6.06640625 0.5859375 C-3 0 -3 0 0 0 Z " fill="#C03637" transform="translate(414,94)" /><path d="M0 0 C0.99 0.33 1.98 0.66 3 1 C-0.76346119 3.34687748 -4.60482771 5.31604049 -8.625 7.1875 C-9.75164062 7.71730469 -10.87828125 8.24710938 -12.0390625 8.79296875 C-15 10 -15 10 -18 10 C-18 10.66 -18 11.32 -18 12 C-21.465 13.485 -21.465 13.485 -25 15 C-25 13.68 -25 12.36 -25 11 C-23.68 11 -22.36 11 -21 11 C-21 10.34 -21 9.68 -21 9 C-14.375 6 -14.375 6 -11 6 C-11 5.34 -11 4.68 -11 4 C-7.17010894 2.19769832 -4.21878192 1.80377759 0 2 C0 1.34 0 0.68 0 0 Z " fill="#BD2E2D" transform="translate(330,133)" /><path d="M0 0 C0 0.66 0 1.32 0 2 C-0.66 2 -1.32 2 -2 2 C-2 2.66 -2 3.32 -2 4 C-3.65 4.66 -5.3 5.32 -7 6 C-7 6.99 -7 7.98 -7 9 C-8.69197419 10.69197419 -10.93359541 10.32657934 -13.25 10.5 C-16.91128954 10.77707056 -20.41162583 11.21422463 -24 12 C-22.72221248 9.44442497 -21.79681982 9.32193679 -19.1875 8.25 C-14.16911094 6.1200085 -9.34737297 3.67093063 -4.50390625 1.171875 C-2 0 -2 0 0 0 Z " fill="#C85558" transform="translate(170,404)" /><path d="M0 0 C-0.99 0.33 -1.98 0.66 -3 1 C-3.433125 1.9590625 -3.433125 1.9590625 -3.875 2.9375 C-5.40492514 5.74236275 -7.04021713 5.98934243 -10 7 C-10.99 7.66 -11.98 8.32 -13 9 C-15.04296875 9.1953125 -15.04296875 9.1953125 -17.1875 9.125 C-19.0746875 9.063125 -19.0746875 9.063125 -21 9 C-19.29110763 5.58221526 -15.49105371 4.46861223 -12.1875 2.8125 C-11.09985352 2.24112305 -11.09985352 2.24112305 -9.99023438 1.65820312 C-9.28576172 1.30306641 -8.58128906 0.94792969 -7.85546875 0.58203125 C-7.21246826 0.25436768 -6.56946777 -0.0732959 -5.90698242 -0.41088867 C-3.58096448 -1.12944984 -2.27304895 -0.77387773 0 0 Z " fill="#C43032" transform="translate(303,341)" /><path d="M0 0 C0.33 0 0.66 0 1 0 C1.70133001 7.46526828 0.81627886 13.05124476 -4 19 C-6.8125 20.5625 -6.8125 20.5625 -9 21 C-7.67070891 16.28705887 -5.59197927 12.40371607 -3.17578125 8.19140625 C-1.75921931 5.55123598 -0.81231614 2.88002997 0 0 Z " fill="#C94D53" transform="translate(371,280)" /><path d="M0 0 C0.33 0 0.66 0 1 0 C1.34299402 10.1754894 0.97207165 20.07911551 -0.3125 30.1875 C-0.48906128 31.63781616 -0.48906128 31.63781616 -0.66918945 33.11743164 C-1.41187632 38.5680785 -2.56189909 43.06233346 -5 48 C-5.33 48 -5.66 48 -6 48 C-5.41536586 42.9220349 -4.62164281 38.00486137 -3.5625 33 C-1.37868993 22.12518889 -0.77068015 11.04687666 0 0 Z " fill="#C35C59" transform="translate(336,225)" /><path d="M0 0 C0.33 0.99 0.66 1.98 1 3 C0.34 3.66 -0.32 4.32 -1 5 C-2.32 5 -3.64 5 -5 5 C-5 5.66 -5 6.32 -5 7 C-6.98 7.33 -8.96 7.66 -11 8 C-11.33 9.32 -11.66 10.64 -12 12 C-13.4577353 12.335939 -14.91621106 12.66866624 -16.375 13 C-17.59316406 13.2784375 -17.59316406 13.2784375 -18.8359375 13.5625 C-21 14 -21 14 -23 14 C-23 13.34 -23 12.68 -23 12 C-21.08850332 10.9901527 -19.17058431 9.99245505 -17.25 9 C-15.64898437 8.1646875 -15.64898437 8.1646875 -14.015625 7.3125 C-11 6 -11 6 -7 6 C-7 5.34 -7 4.68 -7 4 C-6.030625 3.525625 -5.06125 3.05125 -4.0625 2.5625 C-1.19522563 1.29806053 -1.19522563 1.29806053 0 0 Z " fill="#F5CDCB" transform="translate(324,281)" /><path d="M0 0 C-3.78491433 1.92565817 -7.51899382 3.79885196 -11.4375 5.4375 C-15.15124101 7.06633378 -18.58342489 8.97036323 -22.08203125 11.01171875 C-24 12 -24 12 -26 12 C-26 11.01 -26 10.02 -26 9 C-22.27034861 6.96564469 -20.33094958 6 -16 6 C-16 5.34 -16 4.68 -16 4 C-3.35483871 -1.67741935 -3.35483871 -1.67741935 0 0 Z " fill="#BB3C3B" transform="translate(304,149)" /><path d="M0 0 C0 0.99 0 1.98 0 3 C-3.72965139 5.03435531 -5.66905042 6 -10 6 C-10 6.66 -10 7.32 -10 8 C-10.66 8 -11.32 8 -12 8 C-12 8.66 -12 9.32 -12 10 C-15.3 10.33 -18.6 10.66 -22 11 C-19.2770428 8.2770428 -17.57712423 7.280149 -14.109375 5.89453125 C-10.69298915 4.44573058 -7.42880137 2.69734099 -4.13671875 0.98828125 C-2 0 -2 0 0 0 Z " fill="#BD4546" transform="translate(230,375)" /><path d="M0 0 C0.33 0 0.66 0 1 0 C1.05899621 3.77076545 1.09392568 7.54140926 1.125 11.3125 C1.15013672 12.8912793 1.15013672 12.8912793 1.17578125 14.50195312 C1.21920196 21.55781803 0.5223667 28.10987473 -1 35 C-2.58703542 29.66027883 -2.1843558 24.14622 -2.1875 18.625 C-2.19974609 17.5009375 -2.21199219 16.376875 -2.22460938 15.21875 C-2.24269712 5.01725918 -2.24269712 5.01725918 0 0 Z " fill="#BF1B1A" transform="translate(334,225)" /><path d="M0 0 C1.32 0.33 2.64 0.66 4 1 C3.67 1.66 3.34 2.32 3 3 C2.34 3 1.68 3 1 3 C1 3.66 1 4.32 1 5 C0.30132812 5.27714844 -0.39734375 5.55429688 -1.1171875 5.83984375 C-2.02726563 6.20207031 -2.93734375 6.56429687 -3.875 6.9375 C-4.77992188 7.29714844 -5.68484375 7.65679687 -6.6171875 8.02734375 C-8.96137667 8.94901262 -8.96137667 8.94901262 -11 10 C-12.99960012 10.039992 -15.00047242 10.04346799 -17 10 C-14.52097896 7.06719206 -12.030738 6.06128178 -8.4375 4.8125 C-7.46683594 4.46832031 -6.49617187 4.12414062 -5.49609375 3.76953125 C-3 3 -3 3 -1 3 C-0.67 2.01 -0.34 1.02 0 0 Z " fill="#BD3D3F" transform="translate(241,224)" /><path d="M0 0 C2.0625 0.4375 2.0625 0.4375 4 1 C2.3603125 1.804375 2.3603125 1.804375 0.6875 2.625 C-5.67741729 5.80745865 -12.07528228 9.05018819 -18 13 C-18.99 13 -19.98 13 -21 13 C-21 12.01 -21 11.02 -21 10 C-20.43410156 9.87882813 -19.86820312 9.75765625 -19.28515625 9.6328125 C-18.55167969 9.46523437 -17.81820313 9.29765625 -17.0625 9.125 C-16.33160156 8.96257812 -15.60070312 8.80015625 -14.84765625 8.6328125 C-12.79299706 8.17038477 -12.79299706 8.17038477 -12 6 C-11.01 6 -10.02 6 -9 6 C-8.67 4.68 -8.34 3.36 -8 2 C-6.2984375 1.7834375 -6.2984375 1.7834375 -4.5625 1.5625 C-1.19222799 1.38828522 -1.19222799 1.38828522 0 0 Z " fill="#FCE1DE" transform="translate(345,170)" /><path d="M0 0 C-1.32 0.33 -2.64 0.66 -4 1 C-4 1.99 -4 2.98 -4 4 C-5.32 4 -6.64 4 -8 4 C-8 4.66 -8 5.32 -8 6 C-12.92984325 8.03993514 -16.57960425 9.40652968 -22 9 C-18.34797293 5.7013949 -14.66662408 3.80991859 -10.18359375 1.9296875 C-7.97751804 1.02813465 -7.97751804 1.02813465 -5.86328125 -0.140625 C-3.51391674 -1.22418935 -2.38590347 -0.85210838 0 0 Z " fill="#F3C5C4" transform="translate(382,112)" /><path d="M0 0 C1.17246771 4.09902098 1.07076062 7.75436258 1 12 C0.34 12 -0.32 12 -1 12 C-1.144375 13.093125 -1.28875 14.18625 -1.4375 15.3125 C-2 19 -2 19 -3 22 C-3.66 22 -4.32 22 -5 22 C-4.7219098 13.90757513 -3.48645046 7.32965398 0 0 Z " fill="#C11E20" transform="translate(415,98)" /><path d="M0 0 C0.66 0.33 1.32 0.66 2 1 C1.01 2.485 1.01 2.485 0 4 C-0.99 4 -1.98 4 -3 4 C-3 4.99 -3 5.98 -3 7 C-7.1205746 8.99785435 -10.45194365 9.17835515 -15 9 C-15.33 9.99 -15.66 10.98 -16 12 C-17.32 11.67 -18.64 11.34 -20 11 C-18.33511597 10.0486377 -16.67003165 9.09762409 -15.00390625 8.1484375 C-13.71614481 7.41042217 -12.43194714 6.66613384 -11.15234375 5.9140625 C-7.84156456 3.97853005 -4.5789623 2.36842676 -1 1 C-0.67 0.67 -0.34 0.34 0 0 Z " fill="#BE4244" transform="translate(265,212)" /><path d="M0 0 C1.65 0 3.3 0 5 0 C5 0.66 5 1.32 5 2 C4.10861328 2.34611328 4.10861328 2.34611328 3.19921875 2.69921875 C-3.301868 5.25718912 -9.66303166 8.06041773 -16 11 C-16 9.68 -16 8.36 -16 7 C-14.73160474 6.49384702 -13.46016898 5.99530901 -12.1875 5.5 C-11.12595703 5.08234375 -11.12595703 5.08234375 -10.04296875 4.65625 C-8 4 -8 4 -5 4 C-5 3.34 -5 2.68 -5 2 C-3.35 2 -1.7 2 0 2 C0 1.34 0 0.68 0 0 Z " fill="#BC3234" transform="translate(237,178)" /><path d="M0 0 C0.66 0 1.32 0 2 0 C2 0.66 2 1.32 2 2 C1.34 2 0.68 2 0 2 C0.01047363 2.78125244 0.02094727 3.56250488 0.03173828 4.36743164 C0.07350208 7.93242126 0.09939098 11.49735922 0.125 15.0625 C0.14175781 16.29162109 0.15851563 17.52074219 0.17578125 18.78710938 C0.20876483 24.90556393 0.17209842 30.24479433 -2 36 C-2.33 36 -2.66 36 -3 36 C-2.93941406 34.98164063 -2.87882812 33.96328125 -2.81640625 32.9140625 C-2.77644531 32.23859375 -2.73648437 31.563125 -2.6953125 30.8671875 C-2.6059977 29.35934358 -2.51614486 27.85153143 -2.42578125 26.34375 C-2.17938702 22.19611387 -1.94905708 18.04844062 -1.74609375 13.8984375 C-1.70476318 13.07907715 -1.66343262 12.2597168 -1.62084961 11.41552734 C-1.54100914 9.81968577 -1.46492929 8.2236511 -1.39282227 6.62744141 C-1.11181428 1.11181428 -1.11181428 1.11181428 0 0 Z " fill="#FAD2D1" transform="translate(338,224)" /><path d="M0 0 C0.33 0 0.66 0 1 0 C1.02689216 1.47906892 1.04634621 2.95827483 1.0625 4.4375 C1.07410156 5.26121094 1.08570313 6.08492188 1.09765625 6.93359375 C1 9 1 9 0 10 C-0.397493 12.34723966 -0.74368723 14.70328548 -1.0625 17.0625 C-1.32740234 18.99802734 -1.32740234 18.99802734 -1.59765625 20.97265625 C-1.73042969 21.97167969 -1.86320313 22.97070312 -2 24 C-0.35 24 1.3 24 3 24 C2.67 24.66 2.34 25.32 2 26 C-1.0625 26.625 -1.0625 26.625 -4 27 C-3.43708547 17.83808082 -1.79203512 8.98271694 0 0 Z " fill="#ECA5A3" transform="translate(131,398)" /><path d="M0 0 C-0.4375 2.3125 -0.4375 2.3125 -2 5 C-6.9727095 7.53772572 -12.50034119 8.41492991 -18 9 C-16.63706616 6.27413232 -14.76771399 5.95948704 -12.046875 4.86328125 C-9.18200606 3.65500637 -6.45132978 2.21317299 -3.69921875 0.76953125 C-2 0 -2 0 0 0 Z " fill="#BA3536" transform="translate(332,180)" /><path d="M0 0 C-1.37355637 3.24658778 -3.33828532 5.67881565 -5.625 8.33984375 C-7.91811229 11.10851626 -9.93910678 14.05586683 -12 17 C-12.625 15.125 -12.625 15.125 -13 13 C-12.34 12.34 -11.68 11.68 -11 11 C-10.3574765 8.93125966 -10.3574765 8.93125966 -10 7 C-9.01 7 -8.02 7 -7 7 C-6.9175 6.401875 -6.835 5.80375 -6.75 5.1875 C-5.6373204 1.94218449 -3.50829352 0 0 0 Z " fill="#BB2F2E" transform="translate(184,210)" /><path d="M0 0 C-3.09883145 1.67673137 -6.20488455 3.3396134 -9.3125 5 C-10.63411133 5.71542969 -10.63411133 5.71542969 -11.98242188 6.4453125 C-12.82998047 6.89648438 -13.67753906 7.34765625 -14.55078125 7.8125 C-15.33106689 8.23144531 -16.11135254 8.65039062 -16.9152832 9.08203125 C-19 10 -19 10 -22 10 C-22 9.34 -22 8.68 -22 8 C-20.68 8 -19.36 8 -18 8 C-18 7.34 -18 6.68 -18 6 C-16.68 6 -15.36 6 -14 6 C-14 5.34 -14 4.68 -14 4 C-12.68 4 -11.36 4 -10 4 C-10 3.01 -10 2.02 -10 1 C-3.375 -1.125 -3.375 -1.125 0 0 Z " fill="#B93333" transform="translate(291,299)" /><path d="M0 0 C-3.20336822 2.83374881 -5.78087253 3.5205537 -10 4 C-10 4.66 -10 5.32 -10 6 C-12.31 6.66 -14.62 7.32 -17 8 C-17 7.01 -17 6.02 -17 5 C-16.34 5 -15.68 5 -15 5 C-15 4.34 -15 3.68 -15 3 C-9.89665983 1.094753 -5.53657294 -0.42589023 0 0 Z " fill="#BF3C3B" transform="translate(174,358)" /><path d="M0 0 C-1.74681293 0.98484108 -3.4975851 1.96266187 -5.25 2.9375 C-6.71179688 3.75541016 -6.71179688 3.75541016 -8.203125 4.58984375 C-10.53610409 5.76610835 -12.45350762 6.52101691 -15 7 C-14.67 5.35 -14.34 3.7 -14 2 C-12.42085985 1.46658816 -10.83645613 0.94874237 -9.25 0.4375 C-8.36828125 0.14746094 -7.4865625 -0.14257812 -6.578125 -0.44140625 C-3.92165684 -1.01697435 -2.52968894 -0.89248371 0 0 Z " fill="#BF3D3B" transform="translate(266,312)" /><path d="M0 0 C0 0.66 0 1.32 0 2 C-0.66 2 -1.32 2 -2 2 C-2.2475 2.721875 -2.495 3.44375 -2.75 4.1875 C-5.0629994 9.39174866 -8.95817827 13.0704511 -13 17 C-13 10.88619544 -7.3931444 5.978033 -3.5859375 1.5390625 C-2 0 -2 0 0 0 Z " fill="#F3C2BB" transform="translate(188,208)" /><path d="M0 0 C-2.2898234 1.0044134 -4.5816599 2.00367612 -6.875 3 C-7.85146484 3.42925781 -7.85146484 3.42925781 -8.84765625 3.8671875 C-13.7734375 6 -13.7734375 6 -16 6 C-16 6.66 -16 7.32 -16 8 C-17.98 8.66 -19.96 9.32 -22 10 C-21.67 9.01 -21.34 8.02 -21 7 C-20.01 7 -19.02 7 -18 7 C-18 6.34 -18 5.68 -18 5 C-17.34 5 -16.68 5 -16 5 C-16 4.34 -16 3.68 -16 3 C-13.89936424 2.30178583 -11.79434263 1.61675528 -9.6875 0.9375 C-8.51574219 0.55464844 -7.34398437 0.17179687 -6.13671875 -0.22265625 C-3 -1 -3 -1 0 0 Z " fill="#F5CAC7" transform="translate(280,351)" /><path d="M0 0 C1.65 0 3.3 0 5 0 C2.52270596 3.71594106 -0.01153397 4.43870304 -4 6 C-6.1471633 6.89264092 -8.29292725 7.7886531 -10.4375 8.6875 C-12.29152167 9.45868202 -14.14563936 10.22963343 -16 11 C-16 10.01 -16 9.02 -16 8 C-15.31292969 7.82984375 -14.62585938 7.6596875 -13.91796875 7.484375 C-12.56638672 7.12085938 -12.56638672 7.12085938 -11.1875 6.75 C-10.29417969 6.51796875 -9.40085938 6.2859375 -8.48046875 6.046875 C-5.62353901 4.84111568 -4.61630966 3.59898297 -3 1 C-2.01 1.33 -1.02 1.66 0 2 C0 1.34 0 0.68 0 0 Z " fill="#F6C9C7" transform="translate(196,388)" /><path d="M0 0 C0.66 0.33 1.32 0.66 2 1 C0.375 3 0.375 3 -2 5 C-5.25 5.25 -5.25 5.25 -8 5 C-8 5.66 -8 6.32 -8 7 C-11.22791555 9.1519437 -12.28400809 9.20086443 -16 9 C-16 9.66 -16 10.32 -16 11 C-17.32 10.67 -18.64 10.34 -20 10 C-17.23116804 8.51706418 -14.4596027 7.03931138 -11.6875 5.5625 C-10.90181641 5.14162109 -10.11613281 4.72074219 -9.30664062 4.28710938 C-8.54931641 3.88427734 -7.79199219 3.48144531 -7.01171875 3.06640625 C-6.31522217 2.69459229 -5.61872559 2.32277832 -4.90112305 1.93969727 C-3 1 -3 1 0 0 Z " fill="#EBA9A6" transform="translate(230,329)" /><path d="M0 0 C0.66 0.33 1.32 0.66 2 1 C-1.90033741 5.65524142 -5.96262383 7.94156912 -12 9 C-13.34146743 8.70107856 -14.67692754 8.37197871 -16 8 C-13.37964982 6.63610475 -10.75443001 5.28367827 -8.125 3.9375 C-7.37863281 3.54755859 -6.63226563 3.15761719 -5.86328125 2.75585938 C-4.79013672 2.20961914 -4.79013672 2.20961914 -3.6953125 1.65234375 C-3.03547363 1.31195068 -2.37563477 0.97155762 -1.69580078 0.62084961 C-1.13618652 0.41596924 -0.57657227 0.21108887 0 0 Z " fill="#F0BCB8" transform="translate(248,320)" /><path d="M0 0 C2.31 0 4.62 0 7 0 C6.34 0.66 5.68 1.32 5 2 C4.01 2 3.02 2 2 2 C2 2.66 2 3.32 2 4 C-2.88077452 6.44038726 -5.52667068 7.46845421 -11 6 C-11 5.34 -11 4.68 -11 4 C-7.7 3.67 -4.4 3.34 -1 3 C-0.67 2.01 -0.34 1.02 0 0 Z " fill="#BF2828" transform="translate(299,291)" /><path d="M0 0 C0.66 0.33 1.32 0.66 2 1 C1.67 1.66 1.34 2.32 1 3 C-2.0625 3.625 -2.0625 3.625 -5 4 C-5 4.99 -5 5.98 -5 7 C-11.93 8.485 -11.93 8.485 -19 10 C-17.45035487 6.90070974 -14.85954566 6.39441509 -11.75 5 C-10.61046875 4.484375 -9.4709375 3.96875 -8.296875 3.4375 C-7.20890625 2.963125 -6.1209375 2.48875 -5 2 C-4.07703125 1.5875 -3.1540625 1.175 -2.203125 0.75 C-1.47609375 0.5025 -0.7490625 0.255 0 0 Z " fill="#EEB7B6" transform="translate(197,346)" /><path d="M0 0 C0.99 0 1.98 0 3 0 C3 0.99 3 1.98 3 3 C1.10208305 3.94895848 -0.79604568 4.89749607 -2.6953125 5.84375 C-4.21514971 6.6062446 -5.730915 7.37691784 -7.2421875 8.15625 C-7.94601563 8.5171875 -8.64984375 8.878125 -9.375 9.25 C-10.02210938 9.58515625 -10.66921875 9.9203125 -11.3359375 10.265625 C-13 11 -13 11 -15 11 C-15 10.34 -15 9.68 -15 9 C-14.01 9 -13.02 9 -12 9 C-12 8.34 -12 7.68 -12 7 C-10.68 7 -9.36 7 -8 7 C-8 6.34 -8 5.68 -8 5 C-7.01 5 -6.02 5 -5 5 C-4.67 4.01 -4.34 3.02 -4 2 C-3.01 2.33 -2.02 2.66 -1 3 C-0.67 2.01 -0.34 1.02 0 0 Z " fill="#FDE0DB" transform="translate(197,294)" /><path d="M0 0 C1.98 0 3.96 0 6 0 C5.38125 0.0825 4.7625 0.165 4.125 0.25 C1.81653196 0.78810733 1.81653196 0.78810733 1 3 C0 5 0 5 -2.125 5.75 C-3.053125 5.87375 -3.053125 5.87375 -4 6 C-4 6.66 -4 7.32 -4 8 C-6.31 9.32 -8.62 10.64 -11 12 C-11 9 -11 9 -9.6875 7.3125 C-8 6 -8 6 -5 6 C-5 5.34 -5 4.68 -5 4 C-4.01 4 -3.02 4 -2 4 C-2 3.34 -2 2.68 -2 2 C-1.34 2 -0.68 2 0 2 C0 1.34 0 0.68 0 0 Z " fill="#BB2B2D" transform="translate(196,197)" /><path d="M0 0 C0.66 0 1.32 0 2 0 C1 3 1 3 -0.63671875 4.16796875 C-4.93969729 6.30716379 -8.07385397 7.4926146 -13 7 C-12.4375 5.0625 -12.4375 5.0625 -11 3 C-7.23593762 2.16354169 -3.85635778 2 0 2 C0 1.34 0 0.68 0 0 Z " fill="#BE2422" transform="translate(249,317)" /><path d="M0 0 C0.66 0.33 1.32 0.66 2 1 C-0.26506466 3.54819774 -2.36023455 4.76996322 -5.5 6.0625 C-8.28562344 7.21853373 -10.46385086 8.30923391 -13 10 C-16.1875 10.125 -16.1875 10.125 -19 10 C-16.13204688 8.08803125 -13.28469838 6.60121547 -10.19921875 5.08984375 C-8.71212955 4.35290257 -7.23558064 3.59436241 -5.76953125 2.81640625 C-3.87580677 1.81952761 -1.94016175 0.90317874 0 0 Z " fill="#F2BEBA" transform="translate(336,132)" /><path d="M0 0 C-1.01941864 2.72035873 -1.69092244 3.82069194 -4.2421875 5.30078125 C-5.54542969 5.80158203 -5.54542969 5.80158203 -6.875 6.3125 C-7.73867188 6.65925781 -8.60234375 7.00601562 -9.4921875 7.36328125 C-12.1420605 8.03606832 -13.4621638 7.91480142 -16 7 C-14.68 6.67 -13.36 6.34 -12 6 C-12 5.34 -12 4.68 -12 4 C-10.3767313 3.3291288 -8.75132422 2.66342971 -7.125 2 C-6.22007812 1.62875 -5.31515625 1.2575 -4.3828125 0.875 C-2 0 -2 0 0 0 Z " fill="#BC393D" transform="translate(276,353)" /><path d="M0 0 C0 1.32 0 2.64 0 4 C-1.32 4 -2.64 4 -4 4 C-4 4.66 -4 5.32 -4 6 C-7.3 6.33 -10.6 6.66 -14 7 C-11.19046537 4.89284903 -8.94153036 3.33410537 -5.875 1.8125 C-5.19179688 1.46832031 -4.50859375 1.12414062 -3.8046875 0.76953125 C-2 0 -2 0 0 0 Z " fill="#C03B3A" transform="translate(324,329)" /><path d="M0 0 C0.33 0 0.66 0 1 0 C1.38999191 7.59762024 0.60758587 13.84466021 -2 21 C-2.99 20.67 -3.98 20.34 -5 20 C-4.80664062 19.47792969 -4.61328125 18.95585937 -4.4140625 18.41796875 C-2.2712215 12.36073009 -1.00711777 6.33891775 0 0 Z " fill="#BF484B" transform="translate(407,124)" /><path d="M0 0 C-1.37465556 4.12396668 -3.21503924 4.96733589 -7 7 C-10.875 7.25 -10.875 7.25 -14 7 C-11.74449632 3.61674448 -10.69070741 3.21260848 -7 1.8125 C-6.113125 1.46832031 -5.22625 1.12414062 -4.3125 0.76953125 C-2 0 -2 0 0 0 Z " fill="#F9DCDD" transform="translate(370,209)" /><path d="M0 0 C0.99 0 1.98 0 3 0 C3 0.66 3 1.32 3 2 C2.01 2.33 1.02 2.66 0 3 C-0.33 3.66 -0.66 4.32 -1 5 C-2.98 5 -4.96 5 -7 5 C-6.67 4.01 -6.34 3.02 -6 2 C-7.32 2.33 -8.64 2.66 -10 3 C-7.75914181 -1.48171638 -4.35663528 -1.11708597 0 0 Z " fill="#D12F30" transform="translate(278,209)" /><path d="M0 0 C-4.60133331 4.44266665 -10.05431026 6.04239987 -16 8 C-16 7.01 -16 6.02 -16 5 C-14.68 5 -13.36 5 -12 5 C-12 4.34 -12 3.68 -12 3 C-11.01 3 -10.02 3 -9 3 C-9 2.34 -9 1.68 -9 1 C-5.8035914 -0.06546953 -3.34252724 -0.07427838 0 0 Z " fill="#F9D5D0" transform="translate(388,151)" /><path d="M0 0 C0.33 0 0.66 0 1 0 C1.41467342 8.01701946 -0.14060121 15.21930149 -2 23 C-2.33 23 -2.66 23 -3 23 C-3.41467342 14.98298054 -1.85939879 7.78069851 0 0 Z " fill="#BC2022" transform="translate(162,247)" /><path d="M0 0 C-0.33 2.97 -0.66 5.94 -1 9 C-1.33 9 -1.66 9 -2 9 C-2 7.02 -2 5.04 -2 3 C-2.90492188 3.45052734 -2.90492188 3.45052734 -3.828125 3.91015625 C-4.62734375 4.29042969 -5.4265625 4.67070313 -6.25 5.0625 C-7.03890625 5.44535156 -7.8278125 5.82820313 -8.640625 6.22265625 C-11.25993522 7.08564091 -12.44855176 6.93045933 -15 6 C-3.52427184 0 -3.52427184 0 0 0 Z " fill="#F4B3B2" transform="translate(413,95)" /><path d="M0 0 C-0.99 0.33 -1.98 0.66 -3 1 C-3 1.66 -3 2.32 -3 3 C-4.26839526 3.50615298 -5.53983102 4.00469099 -6.8125 4.5 C-7.87404297 4.91765625 -7.87404297 4.91765625 -8.95703125 5.34375 C-11 6 -11 6 -14 6 C-9.69399504 0.20916574 -7.10931682 -0.13413805 0 0 Z " fill="#BA3030" transform="translate(320,284)" /><path d="M0 0 C0.33 0 0.66 0 1 0 C1.14500644 3.60374463 1.23396763 7.20674242 1.3125 10.8125 C1.3753418 12.34874023 1.3753418 12.34874023 1.43945312 13.91601562 C1.48500406 16.69462278 1.47812685 19.26168974 1 22 C-1.375 24.21875 -1.375 24.21875 -4 25 C-6.3125 24.6875 -6.3125 24.6875 -8 24 C-2.25 21 -2.25 21 0 21 C0 14.07 0 7.14 0 0 Z " fill="#BF5858" transform="translate(202,275)" /><path d="M0 0 C0.33 1.32 0.66 2.64 1 4 C-1.43619126 7.74798655 -4.44329128 10.33246846 -8 13 C-8.66 12.67 -9.32 12.34 -10 12 C-6.7 8.04 -3.4 4.08 0 0 Z " fill="#C0504E" transform="translate(361,301)" /><path d="M0 0 C0.66 0.33 1.32 0.66 2 1 C1.67 1.66 1.34 2.32 1 3 C0.34 3 -0.32 3 -1 3 C-1 3.66 -1 4.32 -1 5 C-3.70879335 6.35439668 -6.00933268 6.06501451 -9 6 C-9.33 6.66 -9.66 7.32 -10 8 C-10.66 7.34 -11.32 6.68 -12 6 C-10.04669132 4.96958487 -8.08718472 3.9509107 -6.125 2.9375 C-5.03445313 2.36902344 -3.94390625 1.80054688 -2.8203125 1.21484375 C-1.42425781 0.61349609 -1.42425781 0.61349609 0 0 Z " fill="#BF3D3C" transform="translate(400,145)" /><path d="M0 0 C0 0.66 0 1.32 0 2 C-0.99 2.495 -0.99 2.495 -2 3 C-0.68 3.66 0.64 4.32 2 5 C-1.14930893 6.04976964 -3.38814456 6.10131595 -6.6875 6.0625 C-7.68136719 6.05347656 -8.67523438 6.04445313 -9.69921875 6.03515625 C-10.83810547 6.01775391 -10.83810547 6.01775391 -12 6 C-4.23529412 0 -4.23529412 0 0 0 Z " fill="#C24646" transform="translate(146,416)" /><path d="M0 0 C0 0.66 0 1.32 0 2 C-1.65 2.33 -3.3 2.66 -5 3 C-5.33 4.65 -5.66 6.3 -6 8 C-8.64 8 -11.28 8 -14 8 C-3.89473684 0 -3.89473684 0 0 0 Z " fill="#C9595C" transform="translate(348,316)" /><path d="M0 0 C1.32 0.33 2.64 0.66 4 1 C3.01 1 2.02 1 1 1 C1 2.32 1 3.64 1 5 C-2.96 6.98 -2.96 6.98 -7 9 C-7 7.02 -7 5.04 -7 3 C-4.69 3 -2.38 3 0 3 C0 2.01 0 1.02 0 0 Z " fill="#C61A18" transform="translate(184,205)" /><path d="M0 0 C-0.33 0.99 -0.66 1.98 -1 3 C-3.64 3.33 -6.28 3.66 -9 4 C-9 4.66 -9 5.32 -9 6 C-10.65 6.33 -12.3 6.66 -14 7 C-13.67 6.01 -13.34 5.02 -13 4 C-11.02 3.67 -9.04 3.34 -7 3 C-7 2.34 -7 1.68 -7 1 C-4.53721199 -0.231394 -2.7204945 -0.07159196 0 0 Z " fill="#C11B17" transform="translate(257,365)" /><path d="M0 0 C2.05078125 0.03255208 4.1015625 0.06510417 6.15234375 0.09765625 C5.82234375 1.08765625 5.49234375 2.07765625 5.15234375 3.09765625 C3.0859375 3.828125 3.0859375 3.828125 0.58984375 4.28515625 C-0.23644531 4.44371094 -1.06273437 4.60226563 -1.9140625 4.765625 C-2.87119141 4.92998047 -2.87119141 4.92998047 -3.84765625 5.09765625 C-2.72914438 0.14424653 -2.72914438 0.14424653 0 0 Z " fill="#BB3D3C" transform="translate(361.84765625,207.90234375)" /><path d="M0 0 C0.66 0.33 1.32 0.66 2 1 C-1.625 4 -1.625 4 -5 4 C-5.33 4.99 -5.66 5.98 -6 7 C-8.64 7.33 -11.28 7.66 -14 8 C-11.52010087 5.14181117 -8.86353122 3.80106607 -5.4375 2.25 C-4.46683594 1.80140625 -3.49617188 1.3528125 -2.49609375 0.890625 C-1.67238281 0.59671875 -0.84867187 0.3028125 0 0 Z " fill="#BE4C4E" transform="translate(312,189)" /><path d="M0 0 C-1.32 0.33 -2.64 0.66 -4 1 C-4 1.66 -4 2.32 -4 3 C-6.61381519 5.71836779 -7.91054943 5.99552747 -11.75 6.1875 C-12.8225 6.125625 -13.895 6.06375 -15 6 C-12.61827612 3.26455475 -10.29334709 2.07454642 -6.9375 0.75 C-6.05964844 0.39421875 -5.18179687 0.0384375 -4.27734375 -0.328125 C-2 -1 -2 -1 0 0 Z " fill="#B62F30" transform="translate(348,174)" /><path d="M0 0 C-2.54650762 2.54650762 -3.77731829 2.33766436 -7.3125 2.5625 C-10.96201964 2.80646516 -14.42571915 3.2122259 -18 4 C-17 2 -17 2 -14.9375 0.9375 C-10.11733141 -0.60085168 -4.89984639 -1.8374424 0 0 Z " fill="#CD3F40" transform="translate(164,412)" /><path d="M0 0 C-1.01941864 2.72035873 -1.69092244 3.82069194 -4.2421875 5.30078125 C-5.54542969 5.80158203 -5.54542969 5.80158203 -6.875 6.3125 C-7.73867187 6.65925781 -8.60234375 7.00601562 -9.4921875 7.36328125 C-12.1420605 8.03606832 -13.4621638 7.91480142 -16 7 C-14.3767313 6.3291288 -12.75132422 5.66342971 -11.125 5 C-10.22007812 4.62875 -9.31515625 4.2575 -8.3828125 3.875 C-6 3 -6 3 -4 3 C-4 2.34 -4 1.68 -4 1 C-2 0 -2 0 0 0 Z " fill="#F0B4B6" transform="translate(168,361)" /><path d="M0 0 C0.33 0.99 0.66 1.98 1 3 C0 4 0 4 -3.0625 4.0625 C-4.031875 4.041875 -5.00125 4.02125 -6 4 C-6 4.66 -6 5.32 -6 6 C-7.32 5.67 -8.64 5.34 -10 5 C-9.34 5 -8.68 5 -8 5 C-7.7525 4.360625 -7.505 3.72125 -7.25 3.0625 C-6 1 -6 1 -4 0.25 C-2 0 -2 0 0 0 Z " fill="#C33034" transform="translate(178,401)" /><path d="M0 0 C1.98 0 3.96 0 6 0 C5 3 5 3 3.22265625 4.16796875 C2.50980469 4.50441406 1.79695312 4.84085937 1.0625 5.1875 C-0.00291016 5.70376953 -0.00291016 5.70376953 -1.08984375 6.23046875 C-3 7 -3 7 -5 7 C-5 6.34 -5 5.68 -5 5 C-3.68 4.67 -2.36 4.34 -1 4 C-0.67 2.68 -0.34 1.36 0 0 Z " fill="#BB2523" transform="translate(207,336)" /><path d="M0 0 C-2.33697029 2.33697029 -4.49097899 3.27094054 -7.5 4.625 C-8.4796875 5.07101563 -9.459375 5.51703125 -10.46875 5.9765625 C-13 7 -13 7 -15 7 C-15 6.01 -15 5.02 -15 4 C-12.36 3.67 -9.72 3.34 -7 3 C-7 2.34 -7 1.68 -7 1 C-4.53721199 -0.231394 -2.7204945 -0.07159196 0 0 Z " fill="#FCDAD8" transform="translate(290,200)" /><path d="M0 0 C-1 3 -1 3 -4 5 C-7.1875 5.125 -7.1875 5.125 -10 5 C-10 4.34 -10 3.68 -10 3 C-6.27034861 0.96564469 -4.33094958 0 0 0 Z " fill="#BA2323" transform="translate(138,422)" /><path d="M0 0 C-4.29833361 3.14512215 -7.82069003 4.75696561 -13 6 C-12.67 5.01 -12.34 4.02 -12 3 C-11.34 3 -10.68 3 -10 3 C-10 2.34 -10 1.68 -10 1 C-3.375 -1.125 -3.375 -1.125 0 0 Z " fill="#FAD2D2" transform="translate(221,379)" /><path d="M0 0 C2.64 0 5.28 0 8 0 C7.01 0.495 7.01 0.495 6 1 C6 1.66 6 2.32 6 3 C2.91190305 4.76462683 1.76687864 5 -2 5 C-1.34 3.35 -0.68 1.7 0 0 Z " fill="#C33939" transform="translate(194,343)" /><path d="M0 0 C0.66 0 1.32 0 2 0 C1.77065591 1.91924787 1.51565657 3.8354406 1.25 5.75 C1.11078125 6.81734375 0.9715625 7.8846875 0.828125 8.984375 C-0.1097748 12.39974598 -1.31916918 13.75507663 -4 16 C-3.27275406 10.47293087 -1.66554027 5.30039859 0 0 Z " fill="#B9312F" transform="translate(330,263)" /><path d="M0 0 C-0.5 1.8125 -0.5 1.8125 -2 4 C-5.31738334 5.81213892 -8.46663529 7.28916393 -12.2578125 6.57421875 C-12.83273438 6.38472656 -13.40765625 6.19523437 -14 6 C-12.04414675 4.99515796 -10.08523763 3.99626195 -8.125 3 C-6.48917969 2.1646875 -6.48917969 2.1646875 -4.8203125 1.3125 C-2 0 -2 0 0 0 Z " fill="#F0B9B6" transform="translate(152,369)" /><path d="M0 0 C0.66 0.33 1.32 0.66 2 1 C0.68 1.33 -0.64 1.66 -2 2 C-2 2.66 -2 3.32 -2 4 C-5.22791555 6.1519437 -6.28400809 6.20086443 -10 6 C-10 6.66 -10 7.32 -10 8 C-11.32 7.67 -12.64 7.34 -14 7 C-11.71296692 5.80274117 -9.42115138 4.61702982 -7.125 3.4375 C-6.14853516 2.92413086 -6.14853516 2.92413086 -5.15234375 2.40039062 C-3.46470143 1.53917109 -1.73420407 0.76313297 0 0 Z " fill="#EEB4B5" transform="translate(294,297)" /><path d="M0 0 C0.33 0 0.66 0 1 0 C1.08121924 1.60332791 1.13929134 3.20784026 1.1875 4.8125 C1.23970703 6.15248047 1.23970703 6.15248047 1.29296875 7.51953125 C0.95081002 10.41647515 0.24606427 11.22555028 -2 13 C-2.19294408 8.17639811 -1.75747614 4.50353262 0 0 Z " fill="#C24344" transform="translate(371,280)" /><path d="M0 0 C0.33 0.99 0.66 1.98 1 3 C0.34 3.66 -0.32 4.32 -1 5 C-2.32 5 -3.64 5 -5 5 C-5 5.66 -5 6.32 -5 7 C-7.31 7.33 -9.62 7.66 -12 8 C-11.67 7.34 -11.34 6.68 -11 6 C-9.68 6 -8.36 6 -7 6 C-7 5.34 -7 4.68 -7 4 C-5.5459375 3.2884375 -5.5459375 3.2884375 -4.0625 2.5625 C-1.19522563 1.29806053 -1.19522563 1.29806053 0 0 Z " fill="#F5C4C3" transform="translate(324,281)" /><path d="M0 0 C0.66 0.33 1.32 0.66 2 1 C-0.18084579 4.27126868 -0.81286107 4.59023384 -4.375 5.75 C-5.14585937 6.01296875 -5.91671875 6.2759375 -6.7109375 6.546875 C-9.1871984 7.03705634 -10.63241221 6.80000683 -13 6 C-10.87959258 4.96966118 -8.75352092 3.95097146 -6.625 2.9375 C-5.44164062 2.36902344 -4.25828125 1.80054688 -3.0390625 1.21484375 C-2.03617187 0.81394531 -1.03328125 0.41304687 0 0 Z " fill="#C35155" transform="translate(288,201)" /><path d="M0 0 C0 0.66 0 1.32 0 2 C-1.32 2.33 -2.64 2.66 -4 3 C-4 3.99 -4 4.98 -4 6 C-6.64 6 -9.28 6 -12 6 C-8.59780735 3.25207517 -4.51535412 0 0 0 Z " fill="#F5C4C3" transform="translate(236,182)" /><path d="M0 0 C0.33 0 0.66 0 1 0 C0.67 4.62 0.34 9.24 0 14 C-1.32 13.34 -2.64 12.68 -4 12 C-3.34 11.01 -2.68 10.02 -2 9 C-1.58483202 6.98341096 -1.58483202 6.98341096 -1.4375 4.875 C-1 1 -1 1 0 0 Z " fill="#C21B1A" transform="translate(126,412)" /><path d="M0 0 C0 3 0 3 -1 5 C-0.34 5 0.32 5 1 5 C1.33 4.01 1.66 3.02 2 2 C2.33 2.99 2.66 3.98 3 5 C-0.75 8 -0.75 8 -3 8 C-3.33 8.66 -3.66 9.32 -4 10 C-3.5205537 5.78087253 -2.83374881 3.20336822 0 0 Z " fill="#C74547" transform="translate(212,241)" /><path d="M0 0 C1.875 0.8125 1.875 0.8125 2.875 2.8125 C-0.59 4.2975 -0.59 4.2975 -4.125 5.8125 C-4.455 4.8225 -4.785 3.8325 -5.125 2.8125 C-2.68543956 -0.23695055 -2.68543956 -0.23695055 0 0 Z " fill="#C53237" transform="translate(374.125,202.1875)" /><path d="M0 0 C0.66 0.33 1.32 0.66 2 1 C1.01 1.33 0.02 1.66 -1 2 C-1 2.99 -1 3.98 -1 5 C-3.70879335 6.35439668 -6.00933268 6.06501451 -9 6 C-7.68 5.34 -6.36 4.68 -5 4 C-5 3.34 -5 2.68 -5 2 C-2.625 0.9375 -2.625 0.9375 0 0 Z " fill="#B52622" transform="translate(151,414)" /><path d="M0 0 C1.65 0 3.3 0 5 0 C1.18765077 3.3502463 -2.33285711 5.16974789 -7 7 C-7.33 6.34 -7.66 5.68 -8 5 C-7.01 5 -6.02 5 -5 5 C-4.67 4.01 -4.34 3.02 -4 2 C-3.01 2.33 -2.02 2.66 -1 3 C-0.67 2.01 -0.34 1.02 0 0 Z " fill="#FCDAD7" transform="translate(224,230)" /><path d="M0 0 C2.0625 0.4375 2.0625 0.4375 4 1 C3.360625 1.268125 2.72125 1.53625 2.0625 1.8125 C-0.33131686 2.88667752 -0.33131686 2.88667752 -1 6 C-3.97 5.505 -3.97 5.505 -7 5 C-5.60683123 2.21366246 -3.84019484 2.06507306 -1 1 C-0.67 0.67 -0.34 0.34 0 0 Z " fill="#F3C3C3" transform="translate(345,127)" /><path d="M0 0 C-3.36423277 2.96052484 -6.69159287 3.92289822 -11 5 C-9.96508351 2.17750049 -9.30084735 1.16625774 -6.625 -0.3125 C-3.89420147 -1.02770914 -2.60810739 -0.9659657 0 0 Z " fill="#F7CECB" transform="translate(307,337)" /><path d="M0 0 C0.66 0.33 1.32 0.66 2 1 C0.71480435 3.86697492 -0.57129254 5.97607712 -3 8 C-3.66 8 -4.32 8 -5 8 C-5 8.66 -5 9.32 -5 10 C-5.66 10 -6.32 10 -7 10 C-6.67 8.35 -6.34 6.7 -6 5 C-4.35 4.67 -2.7 4.34 -1 4 C-0.67 2.68 -0.34 1.36 0 0 Z " fill="#BF2927" transform="translate(349,314)" /><path d="M0 0 C0.33 0 0.66 0 1 0 C0.67 4.29 0.34 8.58 0 13 C-0.99 13.33 -1.98 13.66 -3 14 C-2.48594831 9.03083364 -1.76615118 4.70973649 0 0 Z " fill="#C5585B" transform="translate(375,266)" /><path d="M0 0 C1.65 0 3.3 0 5 0 C5 0.99 5 1.98 5 3 C2.36 3.99 -0.28 4.98 -3 6 C-3.33 5.34 -3.66 4.68 -4 4 C-2.68 3.34 -1.36 2.68 0 2 C0 1.34 0 0.68 0 0 Z " fill="#B92D2A" transform="translate(213,188)" /><path d="M0 0 C0.99 0.33 1.98 0.66 3 1 C1.21825212 3.30142435 -0.16304165 4.80034391 -3.046875 5.48828125 C-5.0246611 5.72323102 -7.01271872 5.86751458 -9 6 C-8.34 5.34 -7.68 4.68 -7 4 C-5.68 4 -4.36 4 -3 4 C-2.67 3.01 -2.34 2.02 -2 1 C-1.34 0.67 -0.68 0.34 0 0 Z " fill="#EDB4B4" transform="translate(245,176)" /><path d="M0 0 C-0.99 0.495 -0.99 0.495 -2 1 C-2 1.66 -2 2.32 -2 3 C-5.3 3.33 -8.6 3.66 -12 4 C-7.97710193 -0.02289807 -5.54067167 -0.15390755 0 0 Z " fill="#BA393C" transform="translate(220,382)" /><path d="M0 0 C0.66 0 1.32 0 2 0 C1.88490339 1.41750563 1.75746342 2.83401169 1.625 4.25 C1.55539063 5.03890625 1.48578125 5.8278125 1.4140625 6.640625 C0.98492887 9.085877 0.21399362 10.84836903 -1 13 C-1.02708567 11.39592672 -1.04643483 9.7917215 -1.0625 8.1875 C-1.07410156 7.29417969 -1.08570313 6.40085937 -1.09765625 5.48046875 C-1 3 -1 3 0 0 Z " fill="#BB2827" transform="translate(207,251)" /><path d="M0 0 C0 0.66 0 1.32 0 2 C-0.99 2 -1.98 2 -3 2 C-3 2.99 -3 3.98 -3 5 C-7.455 5.495 -7.455 5.495 -12 6 C-8.69727388 2.69727388 -4.86679267 0 0 0 Z " fill="#BF4442" transform="translate(388,152)" /><path d="M0 0 C0.66 0.33 1.32 0.66 2 1 C0 4 0 4 -2.1640625 4.73046875 C-3.38222656 4.95669922 -3.38222656 4.95669922 -4.625 5.1875 C-5.85089844 5.42533203 -5.85089844 5.42533203 -7.1015625 5.66796875 C-8.04128906 5.83232422 -8.04128906 5.83232422 -9 6 C-9 5.34 -9 4.68 -9 4 C-7.54618103 3.30300448 -6.08677047 2.61766134 -4.625 1.9375 C-3.40683594 1.36322266 -3.40683594 1.36322266 -2.1640625 0.77734375 C-1.44992187 0.52082031 -0.73578125 0.26429687 0 0 Z " fill="#F0B4B1" transform="translate(358,121)" /><path d="M0 0 C0 0.66 0 1.32 0 2 C-3.67452438 4.8394052 -5.26886581 6 -10 6 C-10 5.34 -10 4.68 -10 4 C-8.71086513 3.32845067 -7.41859796 2.66291141 -6.125 2 C-5.40570313 1.62875 -4.68640625 1.2575 -3.9453125 0.875 C-2 0 -2 0 0 0 Z " fill="#F2BABA" transform="translate(210,340)" /><path d="M0 0 C-3.41016497 2.86453858 -6.90694544 4.34703566 -11 6 C-11 5.01 -11 4.02 -11 3 C-7.14243493 0.84694043 -4.44870215 -0.39253254 0 0 Z " fill="#B83130" transform="translate(240,324)" /><path d="M0 0 C0 3.23655184 -0.6550847 4.78752639 -2 7.6875 C-2.37125 8.49574219 -2.7425 9.30398437 -3.125 10.13671875 C-3.41375 10.75160156 -3.7025 11.36648437 -4 12 C-4.33 12 -4.66 12 -5 12 C-5.17758833 8.09305679 -5.23513741 5.29388671 -3 2 C-2.01 1.34 -1.02 0.68 0 0 Z " fill="#C55456" transform="translate(173,225)" /><path d="M0 0 C0.66 0 1.32 0 2 0 C1.8125 1.8125 1.8125 1.8125 1 4 C-1.90696599 6.14197494 -3.35521088 7 -7 7 C-7 6.34 -7 5.68 -7 5 C-6.01 5 -5.02 5 -4 5 C-4 4.34 -4 3.68 -4 3 C-2.68 3 -1.36 3 0 3 C0 2.01 0 1.02 0 0 Z " fill="#FBC9CB" transform="translate(402,140)" /><path d="M0 0 C-3.62535821 3.17218843 -7.51150278 4.42902597 -12 6 C-12 5.34 -12 4.68 -12 4 C-11.01 4 -10.02 4 -9 4 C-9 3.34 -9 2.68 -9 2 C-5.86501708 0.14223235 -3.62528568 -0.20140476 0 0 Z " fill="#FEDBD9" transform="translate(336,322)" /><path d="M0 0 C0.8971875 0.309375 0.8971875 0.309375 1.8125 0.625 C-0.1875 3.625 -0.1875 3.625 -2.1328125 4.13671875 C-2.85210937 4.19472656 -3.57140625 4.25273437 -4.3125 4.3125 C-6.230625 4.4671875 -6.230625 4.4671875 -8.1875 4.625 C-3.2421875 -0.55580357 -3.2421875 -0.55580357 0 0 Z " fill="#F3C4C3" transform="translate(269.1875,310.375)" /><path d="M0 0 C0.66 0 1.32 0 2 0 C1.46930939 3.82097239 0.50298434 6.06171403 -2 9 C-2.6875 7.3125 -2.6875 7.3125 -3 5 C-1.6875 2.25 -1.6875 2.25 0 0 Z " fill="#CE130E" transform="translate(374,285)" /><path d="M0 0 C0 0.66 0 1.32 0 2 C-0.66 2 -1.32 2 -2 2 C-2 2.66 -2 3.32 -2 4 C-4.35438733 5.42944945 -5.48032433 6.08661261 -8.25 5.625 C-8.8275 5.41875 -9.405 5.2125 -10 5 C-9.01 5 -8.02 5 -7 5 C-6.731875 4.360625 -6.46375 3.72125 -6.1875 3.0625 C-4.60976325 0.32222039 -3.09853405 0 0 0 Z " fill="#B91F1F" transform="translate(272,211)" /><path d="M0 0 C0 2.64 0 5.28 0 8 C-0.66 6.68 -1.32 5.36 -2 4 C-4.31 4 -6.62 4 -9 4 C-6.43425105 1.43425105 -3.68548192 0 0 0 Z " fill="#F2B2B0" transform="translate(377,205)" /><path d="M0 0 C-1.41519715 2.0343459 -2.54982123 2.90410393 -4.98046875 3.421875 C-6.98176954 3.66273952 -8.9909944 3.83532741 -11 4 C-7.64191281 0.32209498 -4.88401581 -0.13200043 0 0 Z " fill="#BB1F24" transform="translate(383,157)" /><path d="M0 0 C-0.99 0.33 -1.98 0.66 -3 1 C-3 1.66 -3 2.32 -3 3 C-5.90600261 4.25664978 -7.79604584 5 -11 5 C-10.67 4.34 -10.34 3.68 -10 3 C-9.34 3 -8.68 3 -8 3 C-8 2.34 -8 1.68 -8 1 C-5.07175348 0.02391783 -3.04386724 -0.08226668 0 0 Z " fill="#B9393C" transform="translate(352,124)" /><path d="M0 0 C0.66 0.33 1.32 0.66 2 1 C1.34 2.32 0.68 3.64 0 5 C-2.31 5 -4.62 5 -7 5 C-4.63707344 2.47411298 -3.33537489 1.11179163 0 0 Z " fill="#F5C5BC" transform="translate(278,305)" /><path d="M0 0 C0 0.66 0 1.32 0 2 C-0.66 2 -1.32 2 -2 2 C-2.66 3.65 -3.32 5.3 -4 7 C-5.32 6.34 -6.64 5.68 -8 5 C-6.68 4.34 -5.36 3.68 -4 3 C-4 2.34 -4 1.68 -4 1 C-2 0 -2 0 0 0 Z " fill="#F4C8C8" transform="translate(196,202)" /><path d="M0 0 C-1.26691507 0.67408308 -2.53870749 1.33900497 -3.8125 2 C-4.52019531 2.37125 -5.22789062 2.7425 -5.95703125 3.125 C-8 4 -8 4 -11 4 C-9.875 2.0625 -9.875 2.0625 -8 0 C-2.77333333 -1.38666667 -2.77333333 -1.38666667 0 0 Z " fill="#C55456" transform="translate(304,149)" /><path d="M0 0 C-3.58752742 1.86551426 -7.27812193 3.42535928 -11 5 C-11 4.01 -11 3.02 -11 2 C-7.17010894 0.19769832 -4.21878192 -0.19622241 0 0 Z " fill="#FBD8D4" transform="translate(176,401)" /><path d="M0 0 C0.66 0.33 1.32 0.66 2 1 C0.66666667 3.66666667 -0.66666667 6.33333333 -2 9 C-2.33 9 -2.66 9 -3 9 C-3.36923077 3.46153846 -3.36923077 3.46153846 -1.5 1.125 C-1.005 0.75375 -0.51 0.3825 0 0 Z " fill="#FDE4E3" transform="translate(367,286)" /><path d="M0 0 C-1.26691507 0.67408308 -2.53870749 1.33900497 -3.8125 2 C-4.52019531 2.37125 -5.22789062 2.7425 -5.95703125 3.125 C-8 4 -8 4 -11 4 C-11 3.34 -11 2.68 -11 2 C-10.01 2 -9.02 2 -8 2 C-8 1.34 -8 0.68 -8 0 C-2.25 -1.125 -2.25 -1.125 0 0 Z " fill="#F6CEC9" transform="translate(320,186)" /><path d="M0 0 C0.99 0 1.98 0 3 0 C2.875 1.875 2.875 1.875 2 4 C-1.0625 5.25 -1.0625 5.25 -4 6 C-4 5.34 -4 4.68 -4 4 C-3.01 4 -2.02 4 -1 4 C-0.67 2.68 -0.34 1.36 0 0 Z " fill="#FBEBE5" transform="translate(321,180)" /><path d="M0 0 C-6.625 4 -6.625 4 -10 4 C-10 3.01 -10 2.02 -10 1 C-8.71073008 0.63720544 -7.41846728 0.28503302 -6.125 -0.0625 C-5.40570313 -0.25972656 -4.68640625 -0.45695313 -3.9453125 -0.66015625 C-2 -1 -2 -1 0 0 Z " fill="#F4C2BF" transform="translate(334,179)" /><path d="M0 0 C0.53625 0.226875 1.0725 0.45375 1.625 0.6875 C-0.025 1.0175 -1.675 1.3475 -3.375 1.6875 C-3.375 2.6775 -3.375 3.6675 -3.375 4.6875 C-5.025 4.6875 -6.675 4.6875 -8.375 4.6875 C-8.375 4.0275 -8.375 3.3675 -8.375 2.6875 C-2.95961538 -0.38942308 -2.95961538 -0.38942308 0 0 Z " fill="#C2201E" transform="translate(281.375,156.3125)" /><path d="M0 0 C1.32 0 2.64 0 4 0 C3.690625 0.53625 3.38125 1.0725 3.0625 1.625 C1.82172561 4.3984957 1.4090325 7.00042837 1 10 C0.67 10 0.34 10 0 10 C0 6.7 0 3.4 0 0 Z " fill="#FCD9D6" transform="translate(136,376)" /><path d="M0 0 C0 0.66 0 1.32 0 2 C-0.66 2 -1.32 2 -2 2 C-2 2.66 -2 3.32 -2 4 C-4.64 4.33 -7.28 4.66 -10 5 C-8.28489314 1.56978628 -3.75681361 0 0 0 Z " fill="#C85553" transform="translate(334,324)" /><path d="M0 0 C2.31 0 4.62 0 7 0 C6.34 0.66 5.68 1.32 5 2 C4.01 2 3.02 2 2 2 C2 2.66 2 3.32 2 4 C1.01 4 0.02 4 -1 4 C-0.67 2.68 -0.34 1.36 0 0 Z " fill="#BB3739" transform="translate(299,291)" /><path d="M0 0 C0.66 0.99 1.32 1.98 2 3 C0.71034824 4.37562854 -0.62689293 5.70766393 -2 7 C-2.66 7 -3.32 7 -4 7 C-3.67 5.35 -3.34 3.7 -3 2 C-2.34 2 -1.68 2 -1 2 C-0.67 1.34 -0.34 0.68 0 0 Z " fill="#B62E33" transform="translate(324,277)" /><path d="M0 0 C0.99 0.33 1.98 0.66 3 1 C-0.3340947 3.19097652 -3.04179141 4.43454163 -7 5 C-6.67 4.01 -6.34 3.02 -6 2 C-4.02 2 -2.04 2 0 2 C0 1.34 0 0.68 0 0 Z " fill="#B73737" transform="translate(330,133)" /><path d="M0 0 C0 0.99 0 1.98 0 3 C-3.22791555 5.1519437 -4.28400809 5.20086443 -8 5 C-6.68 4.34 -5.36 3.68 -4 3 C-4 2.34 -4 1.68 -4 1 C-2 0 -2 0 0 0 Z " fill="#F6CCC7" transform="translate(390,106)" /><path d="M0 0 C-1.65 1.32 -3.3 2.64 -5 4 C-6.32 3.34 -7.64 2.68 -9 2 C-8.01 2 -7.02 2 -6 2 C-6 1.34 -6 0.68 -6 0 C-2.25 -1.125 -2.25 -1.125 0 0 Z " fill="#C41B23" transform="translate(214,386)" /><path d="M0 0 C0 0.99 0 1.98 0 3 C-2.35438733 4.42944945 -3.48032433 5.08661261 -6.25 4.625 C-6.8275 4.41875 -7.405 4.2125 -8 4 C-6.68 3.67 -5.36 3.34 -4 3 C-4 2.34 -4 1.68 -4 1 C-2 0 -2 0 0 0 Z " fill="#B94844" transform="translate(268,356)" /><path d="M0 0 C0.66 0.33 1.32 0.66 2 1 C0.25 3 0.25 3 -2 5 C-3.32 5 -4.64 5 -6 5 C-6 4.34 -6 3.68 -6 3 C-4.03533587 1.93224776 -2.03144641 0.93446535 0 0 Z " fill="#EFB5B6" transform="translate(230,329)" /><path d="M0 0 C-1 3 -1 3 -3 4 C-4.99960012 4.039992 -7.00047242 4.04346799 -9 4 C-6.43425105 1.43425105 -3.68548192 0 0 0 Z " fill="#F5CAC7" transform="translate(356,216)" /><path d="M0 0 C0.66 0.33 1.32 0.66 2 1 C1.01 2.485 1.01 2.485 0 4 C-2.3828125 4.29296875 -2.3828125 4.29296875 -5.125 4.1875 C-6.03507812 4.16042969 -6.94515625 4.13335937 -7.8828125 4.10546875 C-8.58148438 4.07066406 -9.28015625 4.03585938 -10 4 C-6.98269866 2.41093085 -4.35069932 1.63391609 -1 1 C-0.67 0.67 -0.34 0.34 0 0 Z " fill="#C4181C" transform="translate(342,177)" /><path d="M0 0 C0 0.66 0 1.32 0 2 C-3.4019487 4.09350689 -6.05272412 4.17942163 -10 4 C-8.68 3.67 -7.36 3.34 -6 3 C-6 2.34 -6 1.68 -6 1 C-3 0 -3 0 0 0 Z " fill="#B82524" transform="translate(358,120)" /><path d="M0 0 C0 0.99 0 1.98 0 3 C-2.97 3.66 -5.94 4.32 -9 5 C-7.36885863 1.73771726 -3.62038485 0 0 0 Z " fill="#C14752" transform="translate(291,345)" /><path d="M0 0 C1.98 0.495 1.98 0.495 4 1 C4 1.66 4 2.32 4 3 C4.66 3.33 5.32 3.66 6 4 C3.69 4 1.38 4 -1 4 C-0.67 2.68 -0.34 1.36 0 0 Z " fill="#CF160A" transform="translate(352,209)" /><path d="M0 0 C-1.125 1.5 -1.125 1.5 -3 3 C-6.1875 3.1875 -6.1875 3.1875 -9 3 C-8.01 2.67 -7.02 2.34 -6 2 C-6 1.34 -6 0.68 -6 0 C-3 -1 -3 -1 0 0 Z " fill="#BD1E18" transform="translate(394,152)" /><path d="M0 0 C0 0.66 0 1.32 0 2 C-3.08809695 3.76462683 -4.23312136 4 -8 4 C-8 3.34 -8 2.68 -8 2 C-5.09399739 0.74335022 -3.20395416 0 0 0 Z " fill="#BC4D4E" transform="translate(386,107)" /></svg>