<?xml version="1.0" encoding="UTF-8"?>
<svg version="1.1" xmlns="http://www.w3.org/2000/svg" width="200" height="200">
<path d="M0 0 C7.77796924 5.45907158 13.79968303 12.47523935 15.71875 21.94140625 C17.06217469 31.77452867 15.41590228 40.1942539 9.4375 48.25 C3.31962107 55.40252022 -4.63846234 60.25159968 -14.11328125 61.21484375 C-23.63822125 61.62611059 -31.75687094 58.06678146 -39 52 C-45.64442506 45.16242305 -49.00454576 38.14999331 -49.4375 28.625 C-49.07545014 18.64077893 -45.38957344 11.31866396 -38.51171875 4.16796875 C-27.42850367 -5.3984144 -12.90587395 -6.79658451 0 0 Z M-34.4375 13.375 C-38.57938557 20.33336775 -40.17378957 25.8505467 -39 34 C-36.77888945 40.95947972 -33.44457484 45.55988895 -27 49 C-26.236875 49.433125 -25.47375 49.86625 -24.6875 50.3125 C-17.65749881 52.1108724 -11.43289991 51.45762284 -4.96875 48.19140625 C0.52848071 44.8647091 4.08595236 40.08173201 6 34 C7.07536785 25.69577046 5.52653085 19.78979628 0.875 12.8125 C-3.70967407 7.72296599 -9.7287318 5.78859537 -16.4375 5.4375 C-23.53286744 5.7165313 -29.37233387 8.43970993 -34.4375 13.375 Z " fill="#9da3b9" transform="translate(61,79)"/>
<path d="M0 0 C4.875 1.875 4.875 1.875 6 3 C6.23363881 4.84891946 6.41303635 6.70488031 6.5625 8.5625 C6.64628906 9.57441406 6.73007813 10.58632812 6.81640625 11.62890625 C6.87699219 12.41136719 6.93757813 13.19382812 7 14 C7.928125 13.0409375 7.928125 13.0409375 8.875 12.0625 C11.56870208 9.44802445 12.48486535 9.05943861 16.25 8.625 C21.04749221 9.10474922 22.77622087 10.46919428 26 14 C27.43018451 18.67193607 26.9871721 21.7624099 25.0625 26.125 C24 28 24 28 22 30 C16.99880319 30.68270306 12.44538123 31.07563254 8.3125 28 C7.879375 27.34 7.44625 26.68 7 26 C6.608125 26.66 6.21625 27.32 5.8125 28 C4 30 4 30 1.4375 30.3125 C-1 30 -1 30 -3 29 C-3.226875 29.7425 -3.45375 30.485 -3.6875 31.25 C-5.29959955 34.62773239 -6.85186018 35.99663829 -10 38 C-14.61354849 39.37424849 -17.62001663 38.94665928 -22 37 C-23.9375 35.625 -23.9375 35.625 -25 34 C-24.72963853 31.02602384 -24.14553974 30.14553974 -22 28 C-22.99 27.01 -23.98 26.02 -25 25 C-25.99 27.475 -25.99 27.475 -27 30 C-28.99954746 30.04254356 -31.00041636 30.04080783 -33 30 C-34 29 -34 29 -34.09765625 26.27734375 C-34.08605469 25.17519531 -34.07445313 24.07304688 -34.0625 22.9375 C-34.05347656 21.83277344 -34.04445313 20.72804688 -34.03515625 19.58984375 C-34.02355469 18.73519531 -34.01195313 17.88054687 -34 17 C-34.99 17 -35.98 17 -37 17 C-36.97679688 17.68707031 -36.95359375 18.37414062 -36.9296875 19.08203125 C-36.90261719 20.43361328 -36.90261719 20.43361328 -36.875 21.8125 C-36.85179688 22.70582031 -36.82859375 23.59914063 -36.8046875 24.51953125 C-37 27 -37 27 -39 30 C-41.5 30.3125 -41.5 30.3125 -44 30 C-46.54200295 27.45799705 -46.28716913 25.75775617 -46.32226562 22.28320312 C-46.31904297 21.55037109 -46.31582031 20.81753906 -46.3125 20.0625 C-46.32861328 19.33353516 -46.34472656 18.60457031 -46.36132812 17.85351562 C-46.36401854 14.91826895 -46.34772287 12.59643313 -44.84765625 10.0234375 C-40.69635893 7.7239874 -35.56604208 8.42693399 -31 9 C-27.92634214 10.80803404 -26.56980268 11.86039464 -25 15 C-24.38125 14.195625 -23.7625 13.39125 -23.125 12.5625 C-21 10 -21 10 -19 9 C-16.83589316 8.87755711 -14.66753477 8.82448858 -12.5 8.8125 C-11.3346875 8.79832031 -10.169375 8.78414062 -8.96875 8.76953125 C-6 9 -6 9 -4 11 C-3.896875 9.741875 -3.79375 8.48375 -3.6875 7.1875 C-3.35141192 4.39500343 -3.19974124 3.25566879 -1.4375 1 C-0.963125 0.67 -0.48875 0.34 0 0 Z M-16 17 C-16.33 18.65 -16.66 20.3 -17 22 C-15.35 22 -13.7 22 -12 22 C-12 20.35 -12 18.7 -12 17 C-13.32 17 -14.64 17 -16 17 Z " fill="#9da3b9" transform="translate(161,77)"/>
<path d="M0 0 C2.4375 0.8125 2.4375 0.8125 4.4375 2.8125 C4.0625 4.75 4.0625 4.75 3.4375 6.8125 C3.27938612 9.86520463 3.27938612 9.86520463 4.4375 12.8125 C5.7059375 11.575 5.7059375 11.575 7 10.3125 C9.57816049 8.17717649 10.44760131 7.81105696 13.9375 7.3125 C17.65921803 7.844174 20.20843367 8.92231483 23.4375 10.8125 C23.829375 10.296875 24.22125 9.78125 24.625 9.25 C26.4375 7.8125 26.4375 7.8125 29 7.875 C31.4375 8.8125 31.4375 8.8125 32.75 10.875 C32.976875 11.514375 33.20375 12.15375 33.4375 12.8125 C34.18 11.966875 34.9225 11.12125 35.6875 10.25 C38.4375 7.8125 38.4375 7.8125 40.5 7.75 C42.93142628 9.0833628 44.58651982 10.76320051 46.4375 12.8125 C46.685 12.173125 46.9325 11.53375 47.1875 10.875 C48.4375 8.8125 48.4375 8.8125 50.375 7.9375 C52.4375 7.8125 52.4375 7.8125 55.4375 9.8125 C54.9356633 16.71275468 53.49212339 23.75787661 48.4375 28.8125 C46.0625 29.25 46.0625 29.25 43.4375 28.8125 C41.125 26.3125 41.125 26.3125 39.4375 23.8125 C38.880625 24.6375 38.32375 25.4625 37.75 26.3125 C35.4375 28.8125 35.4375 28.8125 32.875 29.375 C30.4375 28.8125 30.4375 28.8125 28.75 27.125 C27.3991719 24.74496953 26.36637544 22.38477046 25.4375 19.8125 C25.1075 19.8125 24.7775 19.8125 24.4375 19.8125 C24.169375 20.92625 23.90125 22.04 23.625 23.1875 C22.4375 26.8125 22.4375 26.8125 19.4375 28.8125 C15.46864189 29.45155342 11.17042897 29.91283322 7.671875 27.69140625 C6.3125 26.3125 6.3125 26.3125 4.4375 23.8125 C2.9525 26.2875 2.9525 26.2875 1.4375 28.8125 C-3.4375 27.9375 -3.4375 27.9375 -4.5625 26.8125 C-4.63619136 24.01222835 -4.65473248 21.23692727 -4.625 18.4375 C-4.62048828 17.65632813 -4.61597656 16.87515625 -4.61132812 16.0703125 C-4.59882663 13.98434896 -4.58094133 11.89841948 -4.5625 9.8125 C-4.39996012 6.93286571 -4.39996012 6.93286571 -5.25 4.8125 C-5.5625 2.8125 -5.5625 2.8125 -4.4375 1 C-2.5625 -0.1875 -2.5625 -0.1875 0 0 Z " fill="#9da3b9" transform="translate(110.5625,108.1875)"/>
<path d="M0 0 C3.0625 1.5 3.0625 1.5 5 3 C4.67 4.98 4.34 6.96 4 9 C4.598125 9.144375 5.19625 9.28875 5.8125 9.4375 C7.56150404 9.8872439 9.28677023 10.42892341 11 11 C12.21987343 16.69274269 12.2254801 20.13328126 9.296875 25.23828125 C6.3920087 29.18434962 3.15856216 30.71035946 -1.5 31.875 C-6.47495596 32.052677 -9.54356972 30.9483732 -13.6875 28.25 C-17.33227709 24.7037304 -18.82340794 21.61876056 -19.375 16.5625 C-18.76754685 10.79169508 -17.0000986 6.63974362 -12.875 2.5625 C-8.80241506 -0.66450586 -5.02198551 -0.98562332 0 0 Z " fill="#9da3b9" transform="translate(48,91)"/>
<path d="M0 0 C1.11310547 0.07476562 2.22621094 0.14953125 3.37304688 0.2265625 C6.10626522 0.41425131 8.83382221 0.63107805 11.5625 0.875 C11.5625 1.535 11.5625 2.195 11.5625 2.875 C10.74007812 2.81699219 9.91765625 2.75898437 9.0703125 2.69921875 C0.31539406 2.34538255 -6.32156917 3.38777392 -13.05859375 9.296875 C-18.29918983 15.08174664 -20.09526671 21.40190992 -19.84375 29.03125 C-18.87362603 35.82211782 -15.86711417 41.1204546 -10.5 45.375 C-3.70093665 49.86542617 2.94815955 50.95503896 10.91796875 49.421875 C12.81158642 48.95266 14.68926982 48.41993969 16.5625 47.875 C15.1875 49.375 15.1875 49.375 13.5625 50.875 C12.9025 50.875 12.2425 50.875 11.5625 50.875 C12.0575 53.35 12.0575 53.35 12.5625 55.875 C5.21708893 58.32347036 -2.1364443 57.28766179 -9.0859375 54.1328125 C-16.0466243 50.40965444 -21.03964523 46.12811307 -24.4375 38.875 C-24.4375 38.215 -24.4375 37.555 -24.4375 36.875 C-25.4275 36.545 -26.4175 36.215 -27.4375 35.875 C-27.1075 30.595 -26.7775 25.315 -26.4375 19.875 C-25.7775 19.875 -25.1175 19.875 -24.4375 19.875 C-24.540625 19.05 -24.64375 18.225 -24.75 17.375 C-24.32492695 12.61418182 -22.47975342 9.51233156 -19.4375 5.875 C-18.78986694 5.08778564 -18.78986694 5.08778564 -18.12915039 4.28466797 C-12.71853179 -1.36155434 -7.39534292 -0.66711699 0 0 Z " fill="#9da3b9" transform="translate(40.4375,81.125)"/>
<path d="M0 0 C6.8077353 4.77809993 12.59996382 10.83063564 14.8125 19 C14.874375 19.66 14.93625 20.32 15 21 C14.34 21 13.68 21 13 21 C12.64808594 20.20335938 12.29617187 19.40671875 11.93359375 18.5859375 C7.45708482 8.97839093 3.02050656 3.44227955 -7.0234375 -0.3203125 C-12.93471768 -1.67013238 -18.97953402 -1.28898237 -25 -1 C-25 -0.34 -25 0.32 -25 1 C-24.34 0.67 -23.68 0.34 -23 0 C-19.13938967 -1.28687011 -16.05849717 -1.13757618 -12 -1 C-12 -0.67 -12 -0.34 -12 0 C-9.525 0.495 -9.525 0.495 -7 1 C-6.95875 1.7425 -6.9175 2.485 -6.875 3.25 C-5.64628617 7.11167205 -3.37359257 7.88323604 0 10 C2.375 12.75 2.375 12.75 4 15 C3.01 15 2.02 15 1 15 C0.2575 14.236875 -0.485 13.47375 -1.25 12.6875 C-5.87615316 8.16648669 -9.9964698 6.82960947 -16.3125 6.5 C-22.35176527 6.69937052 -27.16238804 8.3565373 -32 12 C-36.91181915 17.80385068 -38.42341439 23.49944345 -38.34375 31.0078125 C-37.60955715 37.39862751 -34.91452794 42.40456005 -30 46.5 C-29.01 46.995 -28.02 47.49 -27 48 C-25.88625 48.61875 -25.88625 48.61875 -24.75 49.25 C-17.72604362 51.16562447 -11.45921402 50.44835701 -4.9765625 47.20703125 C-0.79347472 44.65253694 2.14918601 41.54290706 4 37 C4.66 37 5.32 37 6 37 C3.52375294 44.22238725 -0.31595033 47.48708314 -6.87890625 50.984375 C-12.25573253 53.55891429 -17.6516704 54.01164638 -23.37890625 52.28125 C-31.28016851 48.9656611 -36.48633503 44.60214347 -40.078125 36.7421875 C-42.33161864 30.03899879 -41.83060222 24.09846073 -38.9375 17.6875 C-35.04028278 10.77131169 -29.65276948 6.29583084 -22 4 C-12.43305187 3.28347407 -12.43305187 3.28347407 -9 5 C-9 4.34 -9 3.68 -9 3 C-12.83253129 2.79494335 -16.66363766 2.67179172 -20.5 2.5625 C-21.57765625 2.50384766 -22.6553125 2.44519531 -23.765625 2.38476562 C-29.53570317 2.26162371 -33.17720224 2.49087418 -37.66015625 6.3359375 C-42.27862738 10.97708124 -44.22723059 15.50873698 -45 22 C-45.66 22 -46.32 22 -47 22 C-47 25.96 -47 29.92 -47 34 C-47.66 34 -48.32 34 -49 34 C-49.74818614 23.25521566 -47.8830407 14.997438 -40.875 6.625 C-29.80855499 -4.88044449 -14.17340586 -7.46410131 0 0 Z " fill="#9da3b9" transform="translate(61,79)"/>
<path d="M0 0 C1.15886719 0.01546875 2.31773437 0.0309375 3.51171875 0.046875 C6.3125 0.25 6.3125 0.25 7.3125 1.25 C7.8328571 4.64690465 8.01563676 8.07329083 8.25 11.5 C8.34345703 12.45519531 8.43691406 13.41039063 8.53320312 14.39453125 C8.97970214 21.29846222 8.97970214 21.29846222 7.08251953 24.00415039 C3.72753888 26.89267147 0.70914373 28.15840326 -3.6875 28.25 C-7.38396394 27.38024378 -10.53792906 26.53757908 -12.6875 23.25 C-12.41713853 20.27602384 -11.83303974 19.39553974 -9.6875 17.25 C-10.038125 16.610625 -10.38875 15.97125 -10.75 15.3125 C-11.99983258 11.22971359 -12.0194432 7.33768774 -10.6875 3.25 C-7.47595218 -0.19915637 -4.55068337 -0.101919 0 0 Z M-3.6875 6.25 C-4.0175 7.9 -4.3475 9.55 -4.6875 11.25 C-3.0375 11.25 -1.3875 11.25 0.3125 11.25 C0.3125 9.6 0.3125 7.95 0.3125 6.25 C-1.0075 6.25 -2.3275 6.25 -3.6875 6.25 Z " fill="#9da3b9" transform="translate(148.6875,87.75)"/>
<path d="M0 0 C2.5625 1.5 2.5625 1.5 4 3 C3.67 4.65 3.34 6.3 3 8 C0.23735711 8.59732819 -2.16032769 9 -5 9 C-4.0925 9.4125 -3.185 9.825 -2.25 10.25 C0.89445513 11.94316815 2.87851821 13.14415913 5 16 C5.80681 20.12369555 5.18268278 21.69743165 3 25.3125 C0.32642051 28.18244409 -2.05858329 28.9694388 -5.93359375 29.16796875 C-9.59759894 28.87013846 -11.83958215 27.93494971 -15 26 C-16.125 23.5 -16.125 23.5 -16 21 C-14.5625 19.1875 -14.5625 19.1875 -13 18 C-7.25 19.875 -7.25 19.875 -5 21 C-5 20.01 -5 19.02 -5 18 C-5.9075 17.9175 -6.815 17.835 -7.75 17.75 C-11.48693511 16.88763036 -12.7204481 16.03940253 -15 13 C-15.9375 10.5625 -15.9375 10.5625 -16 8 C-12.60581391 0.49706232 -7.83162663 -1.12085666 0 0 Z " fill="#9da3b9" transform="translate(100,79)"/>
<path d="M0 0 C3.0625 1.5 3.0625 1.5 5 3 C4.67 4.98 4.34 6.96 4 9 C4.598125 9.144375 5.19625 9.28875 5.8125 9.4375 C7.56150404 9.8872439 9.28677023 10.42892341 11 11 C12.21987343 16.69274269 12.2254801 20.13328126 9.296875 25.23828125 C6.26777293 29.35311569 3.03979198 30.79874994 -1.875 31.75 C-3.421875 31.87375 -3.421875 31.87375 -5 32 C-5 31.34 -5 30.68 -5 30 C-4.39671875 29.82984375 -3.7934375 29.6596875 -3.171875 29.484375 C3.3624691 27.64629702 3.3624691 27.64629702 8 23 C8.60895883 19.96570513 8.81727499 17.10632524 9 14 C6.03 13.01 3.06 12.02 0 11 C0 12.32 0 13.64 0 15 C-3.46742174 16.73371087 -6.71279013 16.36117471 -10.39453125 15.328125 C-12.61146467 14.58798345 -14.81048426 13.81741921 -17 13 C-16.15526182 19.49313679 -15.43850816 23.78515618 -10 28 C-9.34 28.33 -8.68 28.66 -8 29 C-8 29.66 -8 30.32 -8 31 C-13.03372844 29.56179187 -14.98955889 27.09754485 -18 23 C-19.60722415 18.17832754 -19.38629143 14.29521246 -17.9375 9.4375 C-13.72416446 1.96222726 -8.75184111 -1.71765106 0 0 Z " fill="#9da3b9" transform="translate(48,91)"/>
<path d="M0 0 C1.02867188 -0.01933594 2.05734375 -0.03867188 3.1171875 -0.05859375 C6.98564451 0.57945046 8.55974649 1.46030797 11.125 4.4375 C11.52568215 7.38879314 11.6504903 9.70600705 11.5 12.625 C11.47873047 13.73004883 11.47873047 13.73004883 11.45703125 14.85742188 C11.30808006 20.25441994 11.30808006 20.25441994 10.125 21.4375 C7.125 21.5625 7.125 21.5625 4.125 21.4375 C3.125 20.4375 3.125 20.4375 3.02734375 17.71484375 C3.03894531 16.61269531 3.05054687 15.51054688 3.0625 14.375 C3.07152344 13.27027344 3.08054687 12.16554688 3.08984375 11.02734375 C3.10144531 10.17269531 3.11304687 9.31804687 3.125 8.4375 C2.135 8.4375 1.145 8.4375 0.125 8.4375 C0.14820312 9.12457031 0.17140625 9.81164062 0.1953125 10.51953125 C0.22238281 11.87111328 0.22238281 11.87111328 0.25 13.25 C0.27320312 14.14332031 0.29640625 15.03664063 0.3203125 15.95703125 C0.125 18.4375 0.125 18.4375 -1.875 21.4375 C-4.375 21.75 -4.375 21.75 -6.875 21.4375 C-9.41700295 18.89549705 -9.16216913 17.19525617 -9.19726562 13.72070312 C-9.19404297 12.98787109 -9.19082031 12.25503906 -9.1875 11.5 C-9.20361328 10.77103516 -9.21972656 10.04207031 -9.23632812 9.29101562 C-9.23901854 6.35576895 -9.22272287 4.03393313 -7.72265625 1.4609375 C-5.08947241 0.00238746 -2.99791212 0.00373805 0 0 Z " fill="#9da3b9" transform="translate(123.875,85.5625)"/>
<path d="M0 0 C1.32 0 2.64 0 4 0 C5.31626692 3.61973402 6 6.09567131 6 10 C6.66 10 7.32 10 8 10 C8.66 7.03 9.32 4.06 10 1 C11.65 0.67 13.3 0.34 15 0 C16.80066242 2.9465385 18.50163895 5.88801935 20 9 C20.12375 7.88625 20.2475 6.7725 20.375 5.625 C21 2 21 2 23 0 C24.32 0 25.64 0 27 0 C28.34581972 4.03745915 27.19157055 5.72155625 25.625 9.625 C25.16351563 10.79289063 24.70203125 11.96078125 24.2265625 13.1640625 C23 16 23 16 22 17 C20.33382885 17.04063832 18.66611905 17.042721 17 17 C15.515 12.545 15.515 12.545 14 8 C13.34 8 12.68 8 12 8 C11.87625 9.11375 11.7525 10.2275 11.625 11.375 C11 15 11 15 9 17 C6.375 17.125 6.375 17.125 4 17 C3.12957757 15.11157486 2.27924526 13.21388098 1.4375 11.3125 C0.96183594 10.25675781 0.48617187 9.20101562 -0.00390625 8.11328125 C-1.05322011 4.83366107 -1.00418265 3.24104461 0 0 Z " fill="#9da3b9" transform="translate(137,118)"/>
<path d="M0 0 C3.13826903 1.52158498 4.31648648 4.0691916 6.0625 7 C6.475 6.030625 6.8875 5.06125 7.3125 4.0625 C9.0625 1 9.0625 1 11.0625 0 C13.0625 0 13.0625 0 16.0625 2 C15.58102488 8.74065171 14.11531179 14.49611312 9.58203125 19.69921875 C8.0625 21 8.0625 21 5.625 21.5 C3.0625 21 3.0625 21 1 19.0625 C-6.15711933 7.74963397 -6.15711933 7.74963397 -4.9375 2 C-1.9375 0 -1.9375 0 0 0 Z " fill="#9da3b9" transform="translate(88.9375,116)"/>
<path d="M0 0 C0.7734375 -0.01675781 1.546875 -0.03351563 2.34375 -0.05078125 C5.02988776 0.40177457 5.87407183 1.15965067 7.5 3.3125 C8.25 6.4375 8.25 6.4375 8.5 9.3125 C6.83657163 10.97592837 4.7174291 10.67298097 2.4375 10.875 C1.51839844 10.95878906 0.59929687 11.04257813 -0.34765625 11.12890625 C-1.05792969 11.18949219 -1.76820313 11.25007813 -2.5 11.3125 C-2.17 11.9725 -1.84 12.6325 -1.5 13.3125 C1.14 12.9825 3.78 12.6525 6.5 12.3125 C6.5 13.6325 6.5 14.9525 6.5 16.3125 C5.51 16.6425 4.52 16.9725 3.5 17.3125 C3.5 17.9725 3.5 18.6325 3.5 19.3125 C0.42355285 19.67443496 -2.43249623 19.79981247 -5.5 19.3125 C-8.5625 16.75 -8.5625 16.75 -10.5 13.3125 C-10.8125 9.4375 -10.8125 9.4375 -10.5 6.3125 C-9.84 6.3125 -9.18 6.3125 -8.5 6.3125 C-8.396875 5.69375 -8.29375 5.075 -8.1875 4.4375 C-6.85649044 0.32347045 -3.83487598 0.01917438 0 0 Z " fill="#9da3b9" transform="translate(177.5,87.6875)"/>
<path d="M0 0 C2.4375 0.8125 2.4375 0.8125 4.4375 2.8125 C4.149172 5.15182095 3.80582102 7.48443317 3.4375 9.8125 C3.33641457 13.52038161 3.46104168 17.22840321 3.56445312 20.93554688 C3.59390206 22.89476696 3.52297457 24.85492378 3.4375 26.8125 C2.7775 27.4725 2.1175 28.1325 1.4375 28.8125 C-3.11805556 28.25694444 -3.11805556 28.25694444 -4.5625 26.8125 C-4.63704637 25.45501068 -4.64578027 24.09375081 -4.625 22.734375 C-4.61726563 21.90292969 -4.60953125 21.07148437 -4.6015625 20.21484375 C-4.5757509 18.46223618 -4.54971337 16.70963192 -4.5234375 14.95703125 C-4.48430586 10.72429192 -4.6735162 6.96647884 -5.5625 2.8125 C-3.93062878 0.09271463 -3.17771033 -0.23251539 0 0 Z " fill="#9da3b9" transform="translate(110.5625,78.1875)"/>
<path d="M0 0 C2.4375 0.8125 2.4375 0.8125 4.4375 2.8125 C4.0625 4.75 4.0625 4.75 3.4375 6.8125 C3.4375 9.12642078 3.46654 11.44035358 3.5078125 13.75390625 C3.52638704 15.29426671 3.5446036 16.83463151 3.5625 18.375 C3.57925781 19.15552734 3.59601563 19.93605469 3.61328125 20.74023438 C3.63075201 22.76509546 3.54120662 24.79022094 3.4375 26.8125 C2.7775 27.4725 2.1175 28.1325 1.4375 28.8125 C-3.11805556 28.25694444 -3.11805556 28.25694444 -4.5625 26.8125 C-4.63619136 24.01222835 -4.65473248 21.23692727 -4.625 18.4375 C-4.62048828 17.65632813 -4.61597656 16.87515625 -4.61132812 16.0703125 C-4.59882663 13.98434896 -4.58094133 11.89841948 -4.5625 9.8125 C-4.39996012 6.93286571 -4.39996012 6.93286571 -5.25 4.8125 C-5.5625 2.8125 -5.5625 2.8125 -4.4375 1 C-2.5625 -0.1875 -2.5625 -0.1875 0 0 Z " fill="#9da3b9" transform="translate(110.5625,108.1875)"/>
<path d="M0 0 C0.66 0 1.32 0 2 0 C2.93469245 1.50622413 3.79728934 3.05743623 4.625 4.625 C8.90273108 11.94789558 14.42217033 16.11407977 22.546875 18.54296875 C27.01712682 19.37580229 31.4750349 19.22836272 36 19 C36.29261719 18.20722656 36.58523437 17.41445312 36.88671875 16.59765625 C38.18346411 13.57191707 39.28501882 12.78413049 42 11 C44.80771241 8.89421569 46.99484651 7.00647867 49.1875 4.25 C49.785625 3.5075 50.38375 2.765 51 2 C51.66 2 52.32 2 53 2 C53 2.66 53 3.32 53 4 C53.99 4.33 54.98 4.66 56 5 C54.42852706 8.85725177 52.02395896 11.1776383 49 14 C48.18982422 14.78310547 48.18982422 14.78310547 47.36328125 15.58203125 C41.67332328 20.83725085 36.02547541 22.46810692 28.3203125 22.24609375 C19.65420831 21.32696149 11.81322043 17.11313665 5.9140625 10.75 C0.79635584 4.39986602 0.79635584 4.39986602 0 0 Z " fill="#9da3b9" transform="translate(14,118)"/>
<path d="M0 0 C6.75 0.75 6.75 0.75 9 3 C9.125 6.625 9.125 6.625 9 10 C5.7 10.33 2.4 10.66 -1 11 C-0.67 11.66 -0.34 12.32 0 13 C2.64 12.67 5.28 12.34 8 12 C7.67 13.65 7.34 15.3 7 17 C6.34 17 5.68 17 5 17 C5 17.66 5 18.32 5 19 C2.69 19 0.38 19 -2 19 C-2 18.34 -2 17.68 -2 17 C-2.928125 16.566875 -2.928125 16.566875 -3.875 16.125 C-6 15 -6 15 -8 13 C-8.56872038 5.9478673 -8.56872038 5.9478673 -6.5 2.5 C-6.005 2.005 -5.51 1.51 -5 1 C-4.01 1.33 -3.02 1.66 -2 2 C-2.66 2.66 -3.32 3.32 -4 4 C-3.67 4.99 -3.34 5.98 -3 7 C-0.36 7 2.28 7 5 7 C2.9927092 3.9890638 2.16115776 3.36983503 -1 2 C-0.67 1.34 -0.34 0.68 0 0 Z " fill="#9da3b9" transform="translate(124,118)"/>
<path d="M0 0 C6.52561654 3.73520138 11.27363413 8.43998259 14.3203125 15.328125 C13.8253125 16.813125 13.8253125 16.813125 13.3203125 18.328125 C12.6603125 17.338125 12.0003125 16.348125 11.3203125 15.328125 C10.6603125 15.328125 10.0003125 15.328125 9.3203125 15.328125 C8.9903125 16.648125 8.6603125 17.968125 8.3203125 19.328125 C8.3203125 18.668125 8.3203125 18.008125 8.3203125 17.328125 C7.3303125 16.998125 6.3403125 16.668125 5.3203125 16.328125 C5.0315625 15.565 4.7428125 14.801875 4.4453125 14.015625 C3.03236636 10.64025366 1.27077756 9.43560004 -1.6796875 7.328125 C-2.4428125 6.750625 -3.2059375 6.173125 -3.9921875 5.578125 C-4.5490625 5.165625 -5.1059375 4.753125 -5.6796875 4.328125 C-5.3496875 3.008125 -5.0196875 1.688125 -4.6796875 0.328125 C-6.6596875 0.328125 -8.6396875 0.328125 -10.6796875 0.328125 C-10.6796875 -0.001875 -10.6796875 -0.331875 -10.6796875 -0.671875 C-14.84107013 -0.75347074 -18.6269359 -0.65436024 -22.6796875 0.328125 C-22.6796875 -0.331875 -22.6796875 -0.991875 -22.6796875 -1.671875 C-15.17811523 -4.17239909 -7.11386982 -3.24813349 0 0 Z " fill="#9da3b9" transform="translate(58.6796875,79.671875)"/>
<path d="M0 0 C0.66 2.64 1.32 5.28 2 8 C1.34 8 0.68 8 0 8 C0 9.32 0 10.64 0 12 C-3.38247858 13.69123929 -6.59152046 13.43571669 -10.171875 12.328125 C-12.13008022 11.59206205 -14.06698056 10.79987011 -16 10 C-15.71610268 6.68786459 -14.96676604 4.95175715 -13.0625 2.1875 C-8.7518078 -0.89156586 -5.13347212 -0.44855582 0 0 Z " fill="#9da3b9" transform="translate(48,94)"/>
<path d="M0 0 C1.32 0.33 2.64 0.66 4 1 C4 9.25 4 17.5 4 26 C2.35 26 0.7 26 -1 26 C-3.93146333 23.06853667 -3.29161443 20.51559254 -3.32226562 16.50585938 C-3.31904297 15.53455078 -3.31582031 14.56324219 -3.3125 13.5625 C-3.32861328 12.59505859 -3.34472656 11.62761719 -3.36132812 10.63085938 C-3.36197266 9.70208984 -3.36261719 8.77332031 -3.36328125 7.81640625 C-3.36626221 6.96506104 -3.36924316 6.11371582 -3.37231445 5.23657227 C-3 3 -3 3 -1.72729492 1.13647461 C-1.1572876 0.76143799 -0.58728027 0.38640137 0 0 Z " fill="#9da3b9" transform="translate(161,79)"/>
<path d="M0 0 C1.81242052 -0.02687279 3.62495233 -0.04633715 5.4375 -0.0625 C6.44683594 -0.07410156 7.45617187 -0.08570312 8.49609375 -0.09765625 C11 0 11 0 12 1 C12.15620555 2.41327947 12.25056173 3.8335459 12.31640625 5.25390625 C12.37924805 6.53491211 12.37924805 6.53491211 12.44335938 7.84179688 C12.48267578 8.73962891 12.52199219 9.63746094 12.5625 10.5625 C12.60568359 11.46419922 12.64886719 12.36589844 12.69335938 13.29492188 C12.79978142 15.52978485 12.90179988 17.76476308 13 20 C12.34 20 11.68 20 11 20 C10.690625 20.639375 10.38125 21.27875 10.0625 21.9375 C9 24 9 24 8 25 C6.33382885 25.04063832 4.66611905 25.042721 3 25 C3.66 24.01 4.32 23.02 5 22 C5.66 22 6.32 22 7 22 C6.814375 21.38125 6.62875 20.7625 6.4375 20.125 C6 18 6 18 7 16 C6.34 16.33 5.68 16.66 5 17 C2.6670134 17.04022391 0.33293334 17.04320247 -2 17 C0.83395931 14.67210485 2.29511572 13.92622107 6 13 C6.33 10.03 6.66 7.06 7 4 C4.36 4.33 1.72 4.66 -1 5 C-1 4.34 -1 3.68 -1 3 C-0.01 3 0.98 3 2 3 C1.34 2.67 0.68 2.34 0 2 C0 1.34 0 0.68 0 0 Z " fill="#9da3b9" transform="translate(144,88)"/>
<path d="M0 0 C2.97 0.33 5.94 0.66 9 1 C10.27503302 6.67969253 9.84265908 9.90281821 7 15 C5.0625 17 5.0625 17 3 18 C0.87109375 17.5625 0.87109375 17.5625 -1 17 C-1.36220266 15.20994059 -1.71452469 13.41787943 -2.0625 11.625 C-2.25972656 10.62726563 -2.45695312 9.62953125 -2.66015625 8.6015625 C-3 6 -3 6 -2 4 C-1.34 4 -0.68 4 0 4 C0 2.68 0 1.36 0 0 Z " fill="#9da3b9" transform="translate(48,102)"/>
<path d="M0 0 C3.25 1.875 3.25 1.875 5 4 C5 4.66 5 5.32 5 6 C4.34 6 3.68 6 3 6 C2.34 5.01 1.68 4.02 1 3 C-2.12557959 2.63469768 -2.12557959 2.63469768 -5.625 2.8125 C-7.72875 2.874375 -9.8325 2.93625 -12 3 C-12.33 8.28 -12.66 13.56 -13 19 C-11.35 19 -9.7 19 -8 19 C-8 14.71 -8 10.42 -8 6 C-6.35 6 -4.7 6 -3 6 C-0.41073669 8.58926331 -0.62601957 10.02705279 -0.375 13.625 C-0.30023438 14.62789062 -0.22546875 15.63078125 -0.1484375 16.6640625 C-0.07496094 17.82035156 -0.07496094 17.82035156 0 19 C1.65 19 3.3 19 5 19 C4.67 19.66 4.34 20.32 4 21 C2.00045254 21.04254356 -0.00041636 21.04080783 -2 21 C-3 20 -3 20 -3.09765625 17.27734375 C-3.08605469 16.17519531 -3.07445313 15.07304688 -3.0625 13.9375 C-3.05347656 12.83277344 -3.04445313 11.72804688 -3.03515625 10.58984375 C-3.02355469 9.73519531 -3.01195313 8.88054687 -3 8 C-3.99 8 -4.98 8 -6 8 C-5.97679688 8.68707031 -5.95359375 9.37414062 -5.9296875 10.08203125 C-5.90261719 11.43361328 -5.90261719 11.43361328 -5.875 12.8125 C-5.85179688 13.70582031 -5.82859375 14.59914063 -5.8046875 15.51953125 C-6 18 -6 18 -8 21 C-10.5 21.3125 -10.5 21.3125 -13 21 C-15.54200295 18.45799705 -15.28716913 16.75775617 -15.32226562 13.28320312 C-15.31904297 12.55037109 -15.31582031 11.81753906 -15.3125 11.0625 C-15.32861328 10.33353516 -15.34472656 9.60457031 -15.36132812 8.85351562 C-15.36401854 5.91826895 -15.34772287 3.59643313 -13.84765625 1.0234375 C-9.69601642 -1.27620232 -4.56639313 -0.57233768 0 0 Z " fill="#9da3b9" transform="translate(130,86)"/>
<path d="M0 0 C1.51400391 0.01740234 1.51400391 0.01740234 3.05859375 0.03515625 C4.07050781 0.04417969 5.08242187 0.05320312 6.125 0.0625 C7.29869141 0.07990234 7.29869141 0.07990234 8.49609375 0.09765625 C9.15609375 1.41765625 9.81609375 2.73765625 10.49609375 4.09765625 C6.64578325 6.66452992 4.91039612 5.93054349 0.49609375 5.09765625 C0.49609375 6.08765625 0.49609375 7.07765625 0.49609375 8.09765625 C3.13609375 9.41765625 5.77609375 10.73765625 8.49609375 12.09765625 C6.51609375 13.08765625 6.51609375 13.08765625 4.49609375 14.09765625 C4.82609375 14.75765625 5.15609375 15.41765625 5.49609375 16.09765625 C-2.76775175 13.81080592 -2.76775175 13.81080592 -5.50390625 11.16015625 C-6.48564361 9.13532294 -7.10873861 7.31059502 -7.50390625 5.09765625 C-6.84390625 5.09765625 -6.18390625 5.09765625 -5.50390625 5.09765625 C-5.03984375 4.13859375 -5.03984375 4.13859375 -4.56640625 3.16015625 C-2.99869591 0.11695382 -2.99869591 0.11695382 0 0 Z " fill="#9da3b9" transform="translate(92.50390625,80.90234375)"/>
<path d="M0 0 C3.63 0 7.26 0 11 0 C11.1875 2.875 11.1875 2.875 11 6 C10.01 6.66 9.02 7.32 8 8 C10.43717258 7.72965366 10.43717258 7.72965366 13 7 C13.66 6.01 14.32 5.02 15 4 C15.66 4 16.32 4 17 4 C15.60186993 7.37881434 14.17112209 9.15017878 11 11 C6.3707464 12.30826732 3.3849646 11.94887316 -1 10 C-2.9375 8.625 -2.9375 8.625 -4 7 C-3.875 4.875 -3.875 4.875 -3 3 C-2.01 2.67 -1.02 2.34 0 2 C0 1.34 0 0.68 0 0 Z " fill="#9da3b9" transform="translate(140,104)"/>
<path d="M0 0 C0.7734375 -0.01675781 1.546875 -0.03351563 2.34375 -0.05078125 C5.02988776 0.40177457 5.87407183 1.15965067 7.5 3.3125 C8.25 6.4375 8.25 6.4375 8.5 9.3125 C7.5 10.3125 7.5 10.3125 4.99609375 10.41015625 C3.48208984 10.39275391 3.48208984 10.39275391 1.9375 10.375 C0.92558594 10.36597656 -0.08632812 10.35695313 -1.12890625 10.34765625 C-2.30259766 10.33025391 -2.30259766 10.33025391 -3.5 10.3125 C-3.5 9.9825 -3.5 9.6525 -3.5 9.3125 C-0.53 9.3125 2.44 9.3125 5.5 9.3125 C4.51732141 8.10688816 4.51732141 8.10688816 2.65234375 8.21484375 C0.6015625 8.24739583 -1.44921875 8.27994792 -3.5 8.3125 C-3.5 7.9825 -3.5 7.6525 -3.5 7.3125 C-1.19 7.3125 1.12 7.3125 3.5 7.3125 C2.84 6.3225 2.18 5.3325 1.5 4.3125 C-1.47065509 4.65477572 -1.47065509 4.65477572 -4.5 5.3125 C-5.8157194 7.9439388 -6.5 10.36364309 -6.5 13.3125 C-7.82 13.3125 -9.14 13.3125 -10.5 13.3125 C-10.5 11.0025 -10.5 8.6925 -10.5 6.3125 C-9.84 6.3125 -9.18 6.3125 -8.5 6.3125 C-8.396875 5.69375 -8.29375 5.075 -8.1875 4.4375 C-6.85649044 0.32347045 -3.83487598 0.01917438 0 0 Z " fill="#9da3b9" transform="translate(177.5,87.6875)"/>
<path d="M0 0 C1.67642578 0.10538086 1.67642578 0.10538086 3.38671875 0.21289062 C6.13531947 0.38908298 8.87985659 0.58962004 11.625 0.8125 C11.625 1.4725 11.625 2.1325 11.625 2.8125 C10.80257812 2.75449219 9.98015625 2.69648437 9.1328125 2.63671875 C1.10727397 2.31236096 -4.7585609 3.06350446 -11.375 7.8125 C-13.34583867 9.71210353 -14.76452138 11.56759041 -16.375 13.8125 C-17.35790968 14.82930311 -18.34834787 15.83988219 -19.375 16.8125 C-19.1275 15.7915625 -19.1275 15.7915625 -18.875 14.75 C-18.23256185 11.72980714 -18.23256185 11.72980714 -18.6875 8.3125 C-18.375 4.8125 -18.375 4.8125 -16.12890625 2.08203125 C-11.37266131 -1.62656098 -5.68169237 -0.46510909 0 0 Z " fill="9da3b9" transform="translate(40.375,81.1875)"/>
<path d="M0 0 C0.66 0.33 1.32 0.66 2 1 C1 3 1 3 -1 4 C-0.34 5.65 0.32 7.3 1 9 C-1.64 9 -4.28 9 -7 9 C-7.66 7.68 -8.32 6.36 -9 5 C-11.40668747 6.99114614 -11.40668747 6.99114614 -11.4375 10.875 C-11.46885004 13.01396818 -11.46885004 13.01396818 -11 15 C-8.62157423 17.40406384 -8.62157423 17.40406384 -6 19 C-6 19.66 -6 20.32 -6 21 C-9.05181621 20.09270329 -10.70474527 19.35852361 -12.75 16.875 C-14.35580248 13.18165429 -14.66029981 10.00846225 -15 6 C-10.09155587 1.71626694 -6.83750519 -0.95725073 0 0 Z " fill="#9da3b9" transform="translate(128,116)"/>
<path d="M0 0 C2.97 0.495 2.97 0.495 6 1 C6 5.95 6 10.9 6 16 C4.02 16.33 2.04 16.66 0 17 C0 11.39 0 5.78 0 0 Z " fill="#9da3b9" transform="translate(108,88)"/>
<path d="M0 0 C2.475 0.495 2.475 0.495 5 1 C6.14077657 4.42232972 6.09815117 7.08673217 6.0625 10.6875 C6.05347656 11.86699219 6.04445313 13.04648438 6.03515625 14.26171875 C6.02355469 15.16535156 6.01195313 16.06898438 6 17 C4.02 17 2.04 17 0 17 C0 11.39 0 5.78 0 0 Z " fill="#9da3b9" transform="translate(108,118)"/>
<path d="M0 0 C3.74868105 2.36028066 5.6286441 3.78690407 6.9375 8.0625 C7.02656594 12.24859929 6.25293112 15.44274034 4 19 C1.875 20.25 1.875 20.25 0 21 C0 20.34 0 19.68 0 19 C0.99 18.34 1.98 17.68 3 17 C3 16.34 3 15.68 3 15 C0.36 15.33 -2.28 15.66 -5 16 C-5.66 14.68 -6.32 13.36 -7 12 C-1.555 11.505 -1.555 11.505 4 11 C3.55296014 6.52116304 3.55296014 6.52116304 1 3 C-1.10749466 2.71917656 -1.10749466 2.71917656 -3.4375 2.8125 C-4.21996094 2.81894531 -5.00242188 2.82539062 -5.80859375 2.83203125 C-8.17799677 2.92444331 -8.17799677 2.92444331 -11 4 C-11 4.66 -11 5.32 -11 6 C-11.66 5.67 -12.32 5.34 -13 5 C-8.63209608 0.48649929 -6.44650777 -0.64465078 0 0 Z " fill="#9da3b9" transform="translate(181,86)"/>
<path d="M0 0 C2.625 0.9375 2.625 0.9375 5 2 C4.4981633 8.90025468 3.05462339 15.94537661 -2 21 C-4.375 21.4375 -4.375 21.4375 -7 21 C-9.3125 18.5 -9.3125 18.5 -11 16 C-12.32 17.65 -13.64 19.3 -15 21 C-16.32 20.67 -17.64 20.34 -19 20 C-18.1028125 19.7525 -18.1028125 19.7525 -17.1875 19.5 C-13.81472202 17.18723796 -13.1668452 13.80108663 -12 10 C-11.34 10 -10.68 10 -10 10 C-9.01 12.64 -8.02 15.28 -7 18 C-5.35 18 -3.7 18 -2 18 C-1.16280617 15.70967689 -0.3301071 13.41789043 0.5 11.125 C0.85771484 10.14853516 0.85771484 10.14853516 1.22265625 9.15234375 C2.54877533 5.66542411 2.54877533 5.66542411 3 2 C1.02 2.66 -0.96 3.32 -3 4 C-2.67 3.01 -2.34 2.02 -2 1 C-1.34 0.67 -0.68 0.34 0 0 Z " fill="#9da3b9" transform="translate(161,116)"/>
<path d="M0 0 C0.66 0 1.32 0 2 0 C3.70171963 4.39666085 4.15542741 7.80617886 3.9375 12.5 C3.83328082 17.58937 4.37933799 20.55626877 7 25 C6.40549415 29.7368692 3.34721982 32.81437011 0 36 C-3.375 37.9375 -3.375 37.9375 -6 39 C-5 36 -5 36 -2.1875 34.1875 C1.4328434 31.70295061 2.80199108 29.7197074 5 26 C3.35 26 1.7 26 0 26 C0.66 25.67 1.32 25.34 2 25 C1.835 24.15566406 1.67 23.31132813 1.5 22.44140625 C0.98156888 18.87314205 0.93727912 15.5400303 1 11.9375 C1.07224818 7.77871393 0.98000456 4.05017511 0 0 Z " fill="#9da3b9" transform="translate(65,97)"/>
<path d="M0 0 C0 0.66 0 1.32 0 2 C0.66 2 1.32 2 2 2 C2 6.29 2 10.58 2 15 C0.35 15.33 -1.3 15.66 -3 16 C-3 11.05 -3 6.1 -3 1 C-5.31 1 -7.62 1 -10 1 C-10.66 0.34 -11.32 -0.32 -12 -1 C-3.42857143 -2.42857143 -3.42857143 -2.42857143 0 0 Z " fill="#9da3b9" transform="translate(133,90)"/>
<path d="M0 0 C1.98 0.495 1.98 0.495 4 1 C4 1.66 4 2.32 4 3 C4.66 3.33 5.32 3.66 6 4 C6.75 7.375 6.75 7.375 7 11 C6.01 12.485 6.01 12.485 5 14 C5.99 13.67 6.98 13.34 8 13 C8.99 13.33 9.98 13.66 11 14 C11.33 13.34 11.66 12.68 12 12 C11.125 15.875 11.125 15.875 10 17 C7.625 17.375 7.625 17.375 5 17 C3.375 14.9375 3.375 14.9375 2 12 C1.4225 10.845 0.845 9.69 0.25 8.5 C-1.01407187 4.96059877 -1.16499225 3.49497675 0 0 Z " fill="#9da3b9" transform="translate(87,118)"/>
<path d="M0 0 C0.33 0 0.66 0 1 0 C1.36797303 6.50085678 1.36797303 6.50085678 -0.23828125 8.6796875 C-3.41630407 11.06144296 -7.12716078 11.02713022 -11 11 C-14.0625 10.0625 -14.0625 10.0625 -16 9 C-15.67 7.35 -15.34 5.7 -15 4 C-9.06 4.99 -9.06 4.99 -3 6 C-2.67 5.34 -2.34 4.68 -2 4 C-1.67 4.33 -1.34 4.66 -1 5 C-0.67 3.35 -0.34 1.7 0 0 Z " fill="#9da3b9" transform="translate(102,95)"/>
<path d="M0 0 C0 0.66 0 1.32 0 2 C-2.01171875 3.296875 -2.01171875 3.296875 -4.6875 4.75 C-10.32610243 8.01991088 -14.64268374 11.71382331 -17 18 C-17.38290462 19.99110401 -17.72604615 21.99100513 -18 24 C-18.66 24 -19.32 24 -20 24 C-20 27.96 -20 31.92 -20 36 C-20.66 36 -21.32 36 -22 36 C-22.75549944 25.15018866 -20.87328961 16.92548382 -13.6875 8.5625 C-5.43809618 0 -5.43809618 0 0 0 Z " fill="#9da3b9" transform="translate(34,77)"/>
<path d="M0 0 C0.99 0 1.98 0 3 0 C3 8.25 3 16.5 3 25 C2.01 25 1.02 25 0 25 C0 16.75 0 8.5 0 0 Z " fill="#9da3b9" transform="translate(161,79)"/>
<path d="M0 0 C2.5625 1.5 2.5625 1.5 4 3 C3.67 4.65 3.34 6.3 3 8 C0.23735711 8.59732819 -2.16032769 9 -5 9 C-2.525 9.99 -2.525 9.99 0 11 C0 11.66 0 12.32 0 13 C-2.31 12.34 -4.62 11.68 -7 11 C-7.5625 9.0625 -7.5625 9.0625 -8 7 C-7.67 6.67 -7.34 6.34 -7 6 C-4.30917128 6.17635452 -1.67148554 6.61835921 1 7 C1 5.68 1 4.36 1 3 C-0.76949095 2.89184775 -2.54087487 2.81433917 -4.3125 2.75 C-5.79169922 2.68039063 -5.79169922 2.68039063 -7.30078125 2.609375 C-10.14209736 2.71852562 -10.14209736 2.71852562 -11.73046875 5.015625 C-12.14941406 5.67046875 -12.56835938 6.3253125 -13 7 C-13.66 7 -14.32 7 -15 7 C-12.05998912 -0.10502628 -7.15719923 -1.0243331 0 0 Z " fill="#9da3b9" transform="translate(100,79)"/>
<path d="M0 0 C6.75 0.75 6.75 0.75 9 3 C9.125 6.625 9.125 6.625 9 10 C5.04 10 1.08 10 -3 10 C-3.33 8.35 -3.66 6.7 -4 5 C-3.67 5.66 -3.34 6.32 -3 7 C-0.36 7 2.28 7 5 7 C2.9927092 3.9890638 2.16115776 3.36983503 -1 2 C-0.67 1.34 -0.34 0.68 0 0 Z " fill="#9da3b9" transform="translate(124,118)"/>
<path d="M0 0 C1.65 0 3.3 0 5 0 C7.58926331 2.58926331 7.37398043 4.02705279 7.625 7.625 C7.69976562 8.62789062 7.77453125 9.63078125 7.8515625 10.6640625 C7.92503906 11.82035156 7.92503906 11.82035156 8 13 C9.65 13 11.3 13 13 13 C12.67 13.66 12.34 14.32 12 15 C10.00045254 15.04254356 7.99958364 15.04080783 6 15 C5 14 5 14 4.90234375 11.27734375 C4.91394531 10.17519531 4.92554687 9.07304688 4.9375 7.9375 C4.94652344 6.83277344 4.95554687 5.72804688 4.96484375 4.58984375 C4.97644531 3.73519531 4.98804687 2.88054687 5 2 C4.01 2 3.02 2 2 2 C2.03480469 2.68707031 2.06960937 3.37414062 2.10546875 4.08203125 C2.13253906 4.98308594 2.15960938 5.88414063 2.1875 6.8125 C2.23970703 8.15248047 2.23970703 8.15248047 2.29296875 9.51953125 C2 12 2 12 -1 15 C-0.67 10.05 -0.34 5.1 0 0 Z " fill="#9da3b9" transform="translate(122,92)"/>
<path d="M0 0 C2.51033417 1.1336993 2.96441202 2.36118938 3.9375 4.875 C3.2775 4.875 2.6175 4.875 1.9375 4.875 C1.6075 4.215 1.2775 3.555 0.9375 2.875 C-0.0525 2.875 -1.0425 2.875 -2.0625 2.875 C-1.49424347 8.41550113 0.56636517 12.91215966 2.9375 17.875 C5.35369823 18.12530977 5.35369823 18.12530977 7.9375 17.875 C8.5975 16.885 9.2575 15.895 9.9375 14.875 C10.5975 14.875 11.2575 14.875 11.9375 14.875 C10.78576645 17.34300047 9.88966435 18.92283565 7.9375 20.875 C5.5625 21.3125 5.5625 21.3125 2.9375 20.875 C-1.61996697 16.59374315 -4.58298183 10.09462197 -5.5 3.9375 C-4.83813776 0.81729228 -3.13660926 -0.19009753 0 0 Z " fill="#9da3b9" transform="translate(89.0625,116.125)"/>
<path d="M0 0 C3 3 3 3 3.29296875 5.69921875 C3.25816406 6.68535156 3.22335938 7.67148438 3.1875 8.6875 C3.16042969 9.68136719 3.13335937 10.67523438 3.10546875 11.69921875 C3.07066406 12.45847656 3.03585938 13.21773437 3 14 C3.66 14 4.32 14 5 14 C5 14.66 5 15.32 5 16 C4.34 16 3.68 16 3 16 C2.690625 16.639375 2.38125 17.27875 2.0625 17.9375 C1 20 1 20 0 21 C-1.66617115 21.04063832 -3.33388095 21.042721 -5 21 C-4.01 19.515 -4.01 19.515 -3 18 C-2.34 18 -1.68 18 -1 18 C-1.33 16.68 -1.66 15.36 -2 14 C-1.34 14 -0.68 14 0 14 C0 9.38 0 4.76 0 0 Z " fill="#9da3b9" transform="translate(152,92)"/>
<path d="M0 0 C1.21987343 5.69274269 1.2254801 9.13328126 -1.703125 14.23828125 C-4.73222707 18.35311569 -7.96020802 19.79874994 -12.875 20.75 C-14.421875 20.87375 -14.421875 20.87375 -16 21 C-16 20.34 -16 19.68 -16 19 C-15.39671875 18.82984375 -14.7934375 18.6596875 -14.171875 18.484375 C-7.6375309 16.64629702 -7.6375309 16.64629702 -3 12 C-2.39883486 9.00453924 -2.13033315 6.04979579 -2 3 C-4.475 2.01 -4.475 2.01 -7 1 C-3.375 -1.125 -3.375 -1.125 0 0 Z " fill="#9da3b9" transform="translate(59,102)"/>
<path d="M0 0 C2.625 0.9375 2.625 0.9375 5 2 C4.14285714 10.57142857 4.14285714 10.57142857 2 14 C1.34 14 0.68 14 0 14 C0.2165625 13.30132812 0.433125 12.60265625 0.65625 11.8828125 C0.9346875 10.97273438 1.213125 10.06265625 1.5 9.125 C1.7784375 8.22007813 2.056875 7.31515625 2.34375 6.3828125 C3.08850794 4.09055353 3.08850794 4.09055353 3 2 C1.05159545 2.11014539 1.05159545 2.11014539 -1 3 C-2.3581216 5.30441164 -2.3581216 5.30441164 -3.25 8.0625 C-3.58515625 8.98160156 -3.9203125 9.90070313 -4.265625 10.84765625 C-4.50796875 11.55792969 -4.7503125 12.26820313 -5 13 C-7.35953094 10.64046906 -7.49141413 9.22104383 -8 6 C-7.01 6.33 -6.02 6.66 -5 7 C-4.54625 6.030625 -4.0925 5.06125 -3.625 4.0625 C-2 1 -2 1 0 0 Z " fill="#9da3b9" transform="translate(100,116)"/>
<path d="M0 0 C0.66 0 1.32 0 2 0 C2 0.66 2 1.32 2 2 C2.99 2.33 3.98 2.66 5 3 C3.0538131 7.77700421 -0.1444002 11.13405342 -4.8125 13.3125 C-5.8953125 13.6528125 -5.8953125 13.6528125 -7 14 C-7 13.34 -7 12.68 -7 12 C-6.01 12 -5.02 12 -4 12 C-4 11.34 -4 10.68 -4 10 C-3.01 10 -2.02 10 -1 10 C-1 9.01 -1 8.02 -1 7 C-1.99 7.495 -1.99 7.495 -3 8 C-3.66 7.34 -4.32 6.68 -5 6 C-3.38405168 3.95880212 -1.7143618 1.95927063 0 0 Z " fill="#9da3b9" transform="translate(65,120)"/>
<path d="M0 0 C1.68319336 0.10538086 1.68319336 0.10538086 3.40039062 0.21289062 C6.16520843 0.38936836 8.9260702 0.58997301 11.6875 0.8125 C11.6875 1.4725 11.6875 2.1325 11.6875 2.8125 C10.80707031 2.78929688 9.92664063 2.76609375 9.01953125 2.7421875 C7.85808594 2.72414063 6.69664063 2.70609375 5.5 2.6875 C4.35144531 2.66429688 3.20289062 2.64109375 2.01953125 2.6171875 C-1.25041143 2.80886058 -3.34690078 3.5176609 -6.3125 4.8125 C-8.625 4.4375 -8.625 4.4375 -10.3125 3.8125 C-10.3125 3.4825 -10.3125 3.1525 -10.3125 2.8125 C-12.6225 3.4725 -14.9325 4.1325 -17.3125 4.8125 C-12.75973718 -1.79568622 -7.43386914 -0.6039204 0 0 Z " fill="#9da3b9" transform="translate(40.3125,81.1875)"/>
<path d="M0 0 C2.62386487 3.06117568 3 3.73173127 3 8 C3.66 8.33 4.32 8.66 5 9 C4.25 14.75 4.25 14.75 2 17 C-0.90275073 12.97793665 -1.27846132 10.57636187 -0.6875 5.6875 C-0.50767578 4.08455078 -0.50767578 4.08455078 -0.32421875 2.44921875 C-0.21722656 1.64097656 -0.11023438 0.83273438 0 0 Z " fill="#9da3b9" transform="translate(69,104)"/>
<path d="M0 0 C0 0.66 0 1.32 0 2 C-1.65532623 3.01866229 -3.32260138 4.01810813 -5 5 C-6.59961515 8.1992303 -6.64549845 11.53902959 -6 15 C-3.62157423 17.40406384 -3.62157423 17.40406384 -1 19 C-1 19.66 -1 20.32 -1 21 C-4.05181621 20.09270329 -5.70474527 19.35852361 -7.75 16.875 C-9.35580248 13.18165429 -9.66029981 10.00846225 -10 6 C-8.71283353 4.99421411 -7.42011342 3.99553202 -6.125 3 C-5.40570313 2.443125 -4.68640625 1.88625 -3.9453125 1.3125 C-2 0 -2 0 0 0 Z " fill="#9da3b9" transform="translate(123,116)"/>
<path d="M0 0 C3.63108495 3.63108495 3.29581157 4.56022594 3.3125 9.5 C3.4094426 12.93906742 3.4094426 12.93906742 4 16 C6.84100775 18.46974473 6.84100775 18.46974473 10 19 C10 19.33 10 19.66 10 20 C6.65976579 20.09278428 4.31243305 19.82810826 1 19 C0.67 12.73 0.34 6.46 0 0 Z " fill="#9da3b9" transform="translate(155,87)"/>
<path d="M0 0 C0.58007812 0.13277344 1.16015625 0.26554687 1.7578125 0.40234375 C6.15770982 1.39704001 10.53894158 2.31368332 15 3 C15 3.33 15 3.66 15 4 C12.36 4 9.72 4 7 4 C7 4.66 7 5.32 7 6 C4.69 6 2.38 6 0 6 C0 4.02 0 2.04 0 0 Z " fill="#9da3b9" transform="translate(31,104)"/>
<path d="M0 0 C0 0.66 0 1.32 0 2 C-1.32 2 -2.64 2 -4 2 C-4 2.66 -4 3.32 -4 4 C-4.66 4 -5.32 4 -6 4 C-5.34 5.98 -4.68 7.96 -4 10 C-3.34 10 -2.68 10 -2 10 C-2 10.66 -2 11.32 -2 12 C-4.64 11.34 -7.28 10.68 -10 10 C-9.69481346 6.43949035 -8.99971192 4.99964963 -6.6875 2.1875 C-4 0 -4 0 0 0 Z " fill="#9da3b9" transform="translate(42,94)"/>
<path d="M0 0 C3.63 0 7.26 0 11 0 C10.34 1.65 9.68 3.3 9 5 C8.34 5 7.68 5 7 5 C7 4.34 7 3.68 7 3 C6.01 3 5.02 3 4 3 C4 3.66 4 4.32 4 5 C1.03 4.505 1.03 4.505 -2 4 C-2 4.99 -2 5.98 -2 7 C-2.66 7 -3.32 7 -4 7 C-3.6875 5.0625 -3.6875 5.0625 -3 3 C-2.01 2.67 -1.02 2.34 0 2 C0 1.34 0 0.68 0 0 Z " fill="#9da3b9" transform="translate(140,104)"/>
<path d="M0 0 C0.94875 0.04125 1.8975 0.0825 2.875 0.125 C2.875 3.095 2.875 6.065 2.875 9.125 C0.565 9.125 -1.745 9.125 -4.125 9.125 C-4.455 8.465 -4.785 7.805 -5.125 7.125 C-3.145 7.125 -1.165 7.125 0.875 7.125 C0.875 5.475 0.875 3.825 0.875 2.125 C-1.10991642 2.39176204 -1.10991642 2.39176204 -3.125 3.125 C-3.455 4.115 -3.785 5.105 -4.125 6.125 C-4.785 6.125 -5.445 6.125 -6.125 6.125 C-5.28810868 1.94054341 -4.61542241 0.1846169 0 0 Z " fill="#9da3b9" transform="translate(148.125,91.875)"/>
<path d="M0 0 C2.0625 0.4375 2.0625 0.4375 4 1 C3.34 2.32 2.68 3.64 2 5 C0.20906809 5.08086147 -1.58289628 5.13912702 -3.375 5.1875 C-4.87160156 5.23970703 -4.87160156 5.23970703 -6.3984375 5.29296875 C-7.25695312 5.19628906 -8.11546875 5.09960938 -9 5 C-9.66 4.01 -10.32 3.02 -11 2 C-8.525 2.99 -8.525 2.99 -6 4 C-6 3.34 -6 2.68 -6 2 C-6.66 1.67 -7.32 1.34 -8 1 C-6.865625 1.020625 -5.73125 1.04125 -4.5625 1.0625 C-1.18424326 1.41577477 -1.18424326 1.41577477 0 0 Z " fill="#9da3b9" transform="translate(181,100)"/>
<path d="M0 0 C0.66 0 1.32 0 2 0 C3.13764351 4.26616316 4 7.56486311 4 12 C3.01 12.495 3.01 12.495 2 13 C1.67 13.99 1.34 14.98 1 16 C0.34 16 -0.32 16 -1 16 C-0.67 10.72 -0.34 5.44 0 0 Z " fill="#9da3b9" transform="translate(14,101)"/>
<path d="M0 0 C-0.33 1.65 -0.66 3.3 -1 5 C-1.66 5 -2.32 5 -3 5 C-3 5.66 -3 6.32 -3 7 C-5.31 7 -7.62 7 -10 7 C-10 6.34 -10 5.68 -10 5 C-9.34 5 -8.68 5 -8 5 C-8 4.34 -8 3.68 -8 3 C-7.01 3 -6.02 3 -5 3 C-5 2.34 -5 1.68 -5 1 C-3 0 -3 0 0 0 Z " fill="#9da3b9" transform="translate(132,130)"/>
<path d="M0 0 C3.00617269 3.00617269 2.59585316 5.82381598 3 10 C0.03 10 -2.94 10 -6 10 C-5.67 8.68 -5.34 7.36 -5 6 C-3.35 6 -1.7 6 0 6 C0 4.02 0 2.04 0 0 Z " fill="#9da3b9" transform="translate(44,108)"/>
<path d="M0 0 C0 0.66 0 1.32 0 2 C-0.59167969 2.14695312 -1.18335938 2.29390625 -1.79296875 2.4453125 C-7.80643386 4.15223408 -10.32728471 5.99175187 -14 11 C-14.66 11 -15.32 11 -16 11 C-13.91681968 3.13020769 -7.97290275 -0.97627381 0 0 Z " fill="#9da3b9" transform="translate(46,91)"/>
<path d="M0 0 C0.99 0.33 1.98 0.66 3 1 C3.33 1.99 3.66 2.98 4 4 C0.38026598 5.31626692 -2.09567131 6 -6 6 C-6.33 4.68 -6.66 3.36 -7 2 C-4.69 2 -2.38 2 0 2 C0 1.34 0 0.68 0 0 Z " fill="#9da3b9" transform="translate(38,108)"/>
<path d="M0 0 C0.66 0.33 1.32 0.66 2 1 C2.6875 4 2.6875 4 3 7 C2 8 2 8 -0.50390625 8.09765625 C-2.01791016 8.08025391 -2.01791016 8.08025391 -3.5625 8.0625 C-4.57441406 8.05347656 -5.58632812 8.04445313 -6.62890625 8.03515625 C-7.41136719 8.02355469 -8.19382813 8.01195313 -9 8 C-9 7.67 -9 7.34 -9 7 C-6.03 7 -3.06 7 0 7 C-0.98267859 5.79438816 -0.98267859 5.79438816 -2.84765625 5.90234375 C-4.8984375 5.93489583 -6.94921875 5.96744792 -9 6 C-9 5.67 -9 5.34 -9 5 C-6.69 5 -4.38 5 -2 5 C-1.67 4.01 -1.34 3.02 -1 2 C-1 2.66 -1 3.32 -1 4 C-0.34 4 0.32 4 1 4 C0.67 2.68 0.34 1.36 0 0 Z " fill="#9da3b9" transform="translate(183,90)"/>
<path d="M0 0 C3.02723859 1.51361929 3.3317123 3.84767178 4.5625 6.9375 C6.17196819 11.01793316 6.17196819 11.01793316 8 15 C6.1875 14.4375 6.1875 14.4375 4 13 C2.98034573 10.67518826 1.97940398 8.34205301 1 6 C0.01 5.67 -0.98 5.34 -2 5 C-2 3.68 -2 2.36 -2 1 C-1.34 0.67 -0.68 0.34 0 0 Z " fill="#9da3b9" transform="translate(135,122)"/>
<path d="M0 0 C1.98 0.66 3.96 1.32 6 2 C6 2.66 6 3.32 6 4 C6.66 4.33 7.32 4.66 8 5 C8 5.66 8 6.32 8 7 C1.47692308 6.50769231 1.47692308 6.50769231 -0.9375 3.9375 C-1.4634375 2.9784375 -1.4634375 2.9784375 -2 2 C-1.34 2 -0.68 2 0 2 C0 1.34 0 0.68 0 0 Z " fill="#9da3b9" transform="translate(139,109)"/>
<path d="M0 0 C3 2 3 2 3.51171875 4.3828125 C3.56972656 5.28773437 3.62773438 6.19265625 3.6875 7.125 C3.75324219 8.03507812 3.81898437 8.94515625 3.88671875 9.8828125 C3.92410156 10.58148438 3.96148437 11.28015625 4 12 C2.68 11.67 1.36 11.34 0 11 C0 7.37 0 3.74 0 0 Z " fill="#9da3b9" transform="translate(118,93)"/>
<path d="M0 0 C3.3 0 6.6 0 10 0 C10.33 0.99 10.66 1.98 11 3 C8.36 3.33 5.72 3.66 3 4 C3 3.34 3 2.68 3 2 C2.01 1.67 1.02 1.34 0 1 C0 0.67 0 0.34 0 0 Z " fill="#9da3b9" transform="translate(37,118)"/>
<path d="M0 0 C0.99 0 1.98 0 3 0 C3 0.99 3 1.98 3 3 C5.90600261 4.25664978 7.79604584 5 11 5 C10.01 6.485 10.01 6.485 9 8 C5.625 7.375 5.625 7.375 2 6 C0.5625 2.875 0.5625 2.875 0 0 Z " fill="#9da3b9" transform="translate(85,86)"/>
<path d="M0 0 C0.66 0 1.32 0 2 0 C2.33 1.65 2.66 3.3 3 5 C-1.455 5.495 -1.455 5.495 -6 6 C-5.67 4.68 -5.34 3.36 -5 2 C-3.35 2.33 -1.7 2.66 0 3 C0 2.01 0 1.02 0 0 Z " fill="#9da3b9" transform="translate(98,126)"/>
<path d="M0 0 C1.32 0 2.64 0 4 0 C4 1.32 4 2.64 4 4 C3.34 4 2.68 4 2 4 C2 4.66 2 5.32 2 6 C2.66 6 3.32 6 4 6 C4 6.66 4 7.32 4 8 C2.68 8 1.36 8 0 8 C0 5.36 0 2.72 0 0 Z " fill="#9da3b9" transform="translate(52,104)"/>
<path d="M0 0 C0.66 0.33 1.32 0.66 2 1 C0.68 4.3 -0.64 7.6 -2 11 C-4.35953094 8.64046906 -4.49141413 7.22104383 -5 4 C-4.01 4.33 -3.02 4.66 -2 5 C-1.34 3.35 -0.68 1.7 0 0 Z " fill="#9da3b9" transform="translate(97,118)"/>
<path d="M0 0 C1.67542976 0.28604898 3.34385343 0.61781233 5 1 C5 2.32 5 3.64 5 5 C3.35 5 1.7 5 0 5 C-0.5625 3.0625 -0.5625 3.0625 -1 1 C-0.67 0.67 -0.34 0.34 0 0 Z " fill="#9da3b9" transform="translate(108,80)"/>
<path d="M0 0 C0.78375 0.66 1.5675 1.32 2.375 2 C4.71512812 4.20201441 4.71512812 4.20201441 7 4 C6.625 6.9375 6.625 6.9375 6 10 C5.01 10.495 5.01 10.495 4 11 C3.32880451 9.5437455 2.66318193 8.08492133 2 6.625 C1.62875 5.81289062 1.2575 5.00078125 0.875 4.1640625 C0 2 0 2 0 0 Z " fill="#9da3b9" transform="translate(152,117)"/>
<path d="M0 0 C1.65 0.33 3.3 0.66 5 1 C4.67 2.32 4.34 3.64 4 5 C2.35 4.67 0.7 4.34 -1 4 C-0.67 2.68 -0.34 1.36 0 0 Z " fill="#9da3b9" transform="translate(108,110)"/>
<path d="M0 0 C2.86724686 0.57344937 3.8614515 0.8614515 6 3 C5.01 3.33 4.02 3.66 3 4 C3.66 4.66 4.32 5.32 5 6 C2.03 5.505 2.03 5.505 -1 5 C-0.67 3.35 -0.34 1.7 0 0 Z " fill="#9da3b9" transform="translate(87,99)"/>
<path d="M0 0 C2.31 0 4.62 0 7 0 C7 0.99 7 1.98 7 3 C5.35 3.33 3.7 3.66 2 4 C1.34 2.68 0.68 1.36 0 0 Z " fill="#9da3b9" transform="translate(174,98)"/>
<path d="M0 0 C0.66 0 1.32 0 2 0 C2.66 1.65 3.32 3.3 4 5 C2 7 2 7 -0.625 7.125 C-1.40875 7.08375 -2.1925 7.0425 -3 7 C-2.34 6.01 -1.68 5.02 -1 4 C-0.34 4 0.32 4 1 4 C0.67 2.68 0.34 1.36 0 0 Z " fill="#9da3b9" transform="translate(150,106)"/>
<path d="M0 0 C2.29013653 3.4352048 2.17842973 4.985331 2 9 C0.68 9 -0.64 9 -2 9 C-2 6.69 -2 4.38 -2 2 C-1.34 2 -0.68 2 0 2 C0 1.34 0 0.68 0 0 Z " fill="#9da3b9" transform="translate(169,92)"/>
<path d="M0 0 C-0.66 1.65 -1.32 3.3 -2 5 C-2.66 5 -3.32 5 -4 5 C-4 4.34 -4 3.68 -4 3 C-5.32 3 -6.64 3 -8 3 C-8 2.34 -8 1.68 -8 1 C-2.25 0 -2.25 0 0 0 Z " fill="#9da3b9" transform="translate(151,104)"/>
<path d="M0 0 C1.9375 0.3125 1.9375 0.3125 4 1 C4.33 1.99 4.66 2.98 5 4 C2.69 4 0.38 4 -2 4 C-1.34 2.68 -0.68 1.36 0 0 Z " fill="#9da3b9" transform="translate(176,91)"/>
<path d="M0 0 C0.99 0.33 1.98 0.66 3 1 C3 3.64 3 6.28 3 9 C1.68 9.33 0.36 9.66 -1 10 C-0.34 7.69 0.32 5.38 1 3 C0.34 3 -0.32 3 -1 3 C-0.67 2.01 -0.34 1.02 0 0 Z " fill="#9da3b9" transform="translate(139,119)"/>
<path d="M0 0 C1.40182371 2.61673759 2.60495559 5.0371669 3 8 C2.34 8.66 1.68 9.32 1 10 C1 9.01 1 8.02 1 7 C0.01 6.67 -0.98 6.34 -2 6 C-1.34 4.02 -0.68 2.04 0 0 Z " fill="#9da3b9" transform="translate(159,121)"/>
<path d="M0 0 C2.475 0.495 2.475 0.495 5 1 C4.67 2.65 4.34 4.3 4 6 C3.34 6 2.68 6 2 6 C2 5.34 2 4.68 2 4 C1.34 4 0.68 4 0 4 C0 2.68 0 1.36 0 0 Z " fill="#9da3b9" transform="translate(48,102)"/>
<path d="M0 0 C0.33 0 0.66 0 1 0 C1.1875 3.375 1.1875 3.375 1 7 C0.01 7.66 -0.98 8.32 -2 9 C-2 8.34 -2 7.68 -2 7 C-3.32 6.67 -4.64 6.34 -6 6 C-5.01 6 -4.02 6 -3 6 C-2.67 5.34 -2.34 4.68 -2 4 C-1.67 4.33 -1.34 4.66 -1 5 C-0.67 3.35 -0.34 1.7 0 0 Z " fill="#9da3b9" transform="translate(102,95)"/>
<path d="M0 0 C0.90105469 0.00902344 1.80210938 0.01804687 2.73046875 0.02734375 C3.41753906 0.03894531 4.10460938 0.05054687 4.8125 0.0625 C4.8125 0.3925 4.8125 0.7225 4.8125 1.0625 C2.9871875 1.2790625 2.9871875 1.2790625 1.125 1.5 C-2.01420377 1.89030953 -5.0950134 2.38601856 -8.1875 3.0625 C-8.1875 2.4025 -8.1875 1.7425 -8.1875 1.0625 C-5.17259443 0.05753148 -3.14568308 -0.04085303 0 0 Z " fill="#9da3b9" transform="translate(44.1875,76.9375)"/>
<path d="M0 0 C1.65 0.33 3.3 0.66 5 1 C4 3 4 3 3 4 C1.67405895 4.36162029 0.34061543 4.69728039 -1 5 C-0.67 3.35 -0.34 1.7 0 0 Z " fill="#9da3b9" transform="translate(148,118)"/>
<path d="M0 0 C0.66 0 1.32 0 2 0 C2 0.66 2 1.32 2 2 C2.66 2 3.32 2 4 2 C4 2.66 4 3.32 4 4 C1.29120665 5.35439668 -1.00933268 5.06501451 -4 5 C-2.68 4.67 -1.36 4.34 0 4 C0 2.68 0 1.36 0 0 Z " fill="#9da3b9" transform="translate(44,102)"/>
<path d="M0 0 C0.66 0 1.32 0 2 0 C2 0.66 2 1.32 2 2 C2.66 2 3.32 2 4 2 C3.67 3.65 3.34 5.3 3 7 C2.67 6.01 2.34 5.02 2 4 C1.34 4 0.68 4 0 4 C0 2.68 0 1.36 0 0 Z " fill="#9da3b9" transform="translate(48,106)"/>
<path d="M0 0 C3 1 3 1 5 2 C5 2.66 5 3.32 5 4 C4.34 4 3.68 4 3 4 C2.67 4.66 2.34 5.32 2 6 C1.34 5.34 0.68 4.68 0 4 C0 2.68 0 1.36 0 0 Z " fill="#9da3b9" transform="translate(152,104)"/>
<path d="M0 0 C0.66 0 1.32 0 2 0 C0.79618552 2.49361571 -0.45428722 4.68143083 -2 7 C-2.66 7 -3.32 7 -4 7 C-2.92598892 4.08482708 -2.22189824 2.22189824 0 0 Z " fill="#9da3b9" transform="translate(34,95)"/>
</svg>
