<?xml version="1.0" encoding="UTF-8"?>
<svg version="1.1" xmlns="http://www.w3.org/2000/svg" width="1024" height="424">
<path d="M0 0 C1.28445692 0.00334608 1.28445692 0.00334608 2.59486246 0.00675976 C3.49747639 0.00519977 4.40009032 0.00363978 5.33005619 0.00203252 C8.3787497 -0.00198156 11.4273941 0.00121373 14.47608805 0.00434887 C16.65192554 0.00299501 18.82776281 0.00121517 21.00359964 -0.00096118 C26.93111017 -0.00553733 32.85860337 -0.00374521 38.78611422 -0.0005821 C44.97431725 0.00194057 51.16251875 -0.00039577 57.35072184 -0.00196826 C68.41165556 -0.00390711 79.47258159 -0.00078935 90.53351408 0.00429107 C100.57215594 0.00875911 110.61078624 0.00798318 120.64942789 0.00337231 C132.29349439 -0.00195475 143.93755364 -0.00397431 155.58162117 -0.00101542 C161.75036983 0.00054778 167.91911052 0.00073993 174.08785868 -0.00255191 C179.8858436 -0.0054295 185.68380657 -0.00345702 191.48178911 0.00234234 C193.61639542 0.00367055 195.75100356 0.00327481 197.88560915 0.00107968 C200.78635895 -0.00162947 203.68703722 0.0017464 206.58778238 0.00675976 C207.8722393 0.00341368 207.8722393 0.00341368 209.18264484 0 C214.9771726 0.01959358 214.9771726 0.01959358 216.09132242 1.13374341 C216.18893582 3.46141354 216.22130007 5.7593636 216.21157694 8.08749402 C216.21285858 9.19133479 216.21285858 9.19133479 216.2141661 10.31747538 C216.2158231 12.80190987 216.21029598 15.28627795 216.20484781 17.7707063 C216.20456596 19.54423025 216.20472363 21.31775431 216.20529032 23.0912782 C216.20557838 27.92165357 216.19968032 32.75200434 216.19271636 37.58237398 C216.18648419 42.62459657 216.18587913 47.66681967 216.18469095 52.70904553 C216.18157723 62.26424567 216.1733633 71.81943444 216.16334146 81.37462956 C216.15218158 92.24989774 216.14667019 103.12516645 216.14164603 114.00043893 C216.13118072 136.37821362 216.11338013 158.7559774 216.09132242 181.13374341 C221.70132242 181.13374341 227.31132242 181.13374341 233.09132242 181.13374341 C233.08910181 178.88091031 233.0868812 176.62807721 233.0845933 174.30697644 C233.0641943 153.13075256 233.04929326 131.95452998 233.03951025 110.7782985 C233.03434673 99.89002164 233.02730298 89.00175198 233.01588297 78.11347973 C233.00593782 68.62690772 232.9994694 59.14034091 232.99723393 49.65376383 C232.99592653 44.62741586 232.99283886 39.60108279 232.98559237 34.57473958 C232.97883482 29.84952444 232.97670492 25.12433042 232.97821474 20.39911091 C232.97793829 18.65958046 232.9759316 16.92004933 232.97211695 15.18052304 C232.96718383 12.81615355 232.9683227 10.45186515 232.97106791 8.08749402 C232.96669864 7.04130724 232.96669864 7.04130724 232.96224111 5.97398537 C232.97720121 1.24786462 232.97720121 1.24786462 234.09132242 0.13374341 C236.92112237 0.03360346 239.72659002 -0.00064701 242.55689859 0.00675976 C243.45542897 0.00519977 244.35395935 0.00363978 245.27971792 0.00203252 C248.31459197 -0.00198153 251.34941669 0.00121372 254.38429117 0.00434887 C256.55027658 0.00299501 258.71626176 0.00121517 260.88224649 -0.00096118 C266.7828984 -0.00553732 272.6835329 -0.00374522 278.58418512 -0.0005821 C284.74436094 0.00194058 290.90453522 -0.00039578 297.06471109 -0.00196826 C307.41180042 -0.00379023 317.75888262 -0.00138294 328.10597086 0.00337231 C340.08758928 0.00881498 352.06918318 0.00705235 364.05080175 0.00154591 C374.3174207 -0.00298445 384.58403451 -0.00363615 394.85065413 -0.00101542 C400.99145712 0.00054778 407.13225211 0.00073994 413.2730546 -0.00255191 C419.04477473 -0.00542951 424.81647282 -0.003457 430.58819056 0.00234234 C432.71312152 0.00367054 434.83805432 0.00327482 436.96298456 0.00107968 C439.85059729 -0.00162949 442.73813817 0.00174642 445.62574625 0.00675976 C446.47815991 0.00452904 447.33057358 0.00229832 448.20881796 0 C453.9771726 0.01959358 453.9771726 0.01959358 455.09132242 1.13374341 C455.18844185 3.43730774 455.21318813 5.74391998 455.21157694 8.04953015 C455.21243136 8.78134045 455.21328579 9.51315074 455.2141661 10.26713711 C455.21582308 12.7377522 455.21029601 15.20830051 455.20484781 17.67890942 C455.20456596 19.44258128 455.20472363 21.20625326 455.20529032 22.96992505 C455.20557837 27.77344183 455.19968035 32.57693387 455.19271636 37.38044488 C455.18648416 42.39464026 455.18587913 47.40883614 455.18469095 52.42303479 C455.18157724 61.92511101 455.17336332 71.42717579 455.16334146 80.92924696 C455.15218156 91.74405679 455.14667019 102.55886716 455.14164603 113.37368131 C455.13118073 135.62704191 455.11338016 157.88039154 455.09132242 180.13374341 C461.03132242 180.13374341 466.97132242 180.13374341 473.09132242 180.13374341 C473.08910181 177.89343838 473.0868812 175.65313336 473.0845933 173.3449403 C473.06419427 152.28644563 473.04929324 131.22795225 473.03951025 110.16944993 C473.03434674 99.3417072 473.02730301 88.51397172 473.01588297 77.68623364 C473.0059378 68.25239934 472.99946939 58.81857027 472.99723393 49.38473088 C472.99592654 44.38632854 472.99283889 39.3879412 472.98559237 34.38954365 C472.97883478 29.69059331 472.97670492 24.99166421 472.97821474 20.29270947 C472.97793829 18.56285435 472.97593162 16.83299856 472.97211695 15.10314763 C472.96718378 12.75191518 472.96832272 10.40076426 472.97106791 8.04953015 C472.97014611 6.73044439 472.96922432 5.41135863 472.96827459 4.05230057 C473.09132242 1.13374341 473.09132242 1.13374341 474.09132242 0.13374341 C476.92112237 0.03360346 479.72659002 -0.00064701 482.55689859 0.00675976 C483.45542897 0.00519977 484.35395935 0.00363978 485.27971792 0.00203252 C488.31459197 -0.00198153 491.34941669 0.00121372 494.38429117 0.00434887 C496.55027658 0.00299501 498.71626176 0.00121517 500.88224649 -0.00096118 C506.7828984 -0.00553732 512.6835329 -0.00374522 518.58418512 -0.0005821 C524.74436094 0.00194058 530.90453522 -0.00039578 537.06471109 -0.00196826 C547.41180042 -0.00379023 557.75888262 -0.00138294 568.10597086 0.00337231 C580.08758928 0.00881498 592.06918318 0.00705235 604.05080175 0.00154591 C614.3174207 -0.00298445 624.58403451 -0.00363615 634.85065413 -0.00101542 C640.99145712 0.00054778 647.13225211 0.00073994 653.2730546 -0.00255191 C659.04477473 -0.00542951 664.81647282 -0.003457 670.58819056 0.00234234 C672.71312152 0.00367054 674.83805432 0.00327482 676.96298456 0.00107968 C679.85059729 -0.00162949 682.73813817 0.00174642 685.62574625 0.00675976 C686.47815991 0.00452904 687.33057358 0.00229832 688.20881796 0 C693.9771726 0.01959358 693.9771726 0.01959358 695.09132242 1.13374341 C695.18919462 3.87751233 695.22125585 6.59610318 695.21157694 9.34030163 C695.21243136 10.21095271 695.21328579 11.08160379 695.2141661 11.97863823 C695.21582358 14.91911363 695.21029518 17.85953296 695.20484781 20.80000317 C695.20456597 22.89864614 695.20472361 24.99728921 695.20529032 27.09593213 C695.20557842 32.8126413 695.1996797 38.5293297 695.19271636 44.24603403 C695.18648487 50.21315497 695.18587919 56.18027633 695.18469095 62.14740002 C695.18157703 73.4556897 695.17336283 84.76396976 695.16334146 96.07225519 C695.15218221 108.94264892 695.14667035 121.81304309 695.14164603 134.68344045 C695.13118026 161.16688011 695.11357965 187.65031122 695.09132242 214.13374341 C696.37861597 213.01325899 697.6650779 211.8918191 698.9511857 210.76997387 C699.66767282 210.14557415 700.38415995 209.52117444 701.1223588 208.87785351 C703.15428633 207.07796991 705.08341568 205.21372314 706.96632242 203.25874341 C709.87487221 200.24196851 709.87487221 200.24196851 712.09132242 199.13374341 C712.09555436 198.1142262 712.0997863 197.094709 712.10414648 196.04429734 C712.20718737 171.27536203 712.31591583 146.50645671 712.43066168 121.73757279 C712.48601846 109.75969509 712.53950443 97.78181441 712.58863688 85.80390942 C712.6314487 75.36803984 712.677719 64.93219242 712.72820097 54.49635702 C712.75482617 48.96700044 712.77967975 43.43764832 712.80039644 37.90826619 C712.81992609 32.71026313 712.84405864 27.51230234 712.8718133 22.3143369 C712.88120326 20.40065919 712.88887148 18.48697219 712.89474154 16.57328045 C712.90296982 13.97242132 712.91723693 11.37166566 712.93310404 8.77084363 C712.93408215 8.0033487 712.93506025 7.23585378 712.936068 6.44510144 C712.97720121 1.24786462 712.97720121 1.24786462 714.09132242 0.13374341 C716.92112237 0.03360346 719.72659002 -0.00064701 722.55689859 0.00675976 C723.45542897 0.00519977 724.35395935 0.00363978 725.27971792 0.00203252 C728.31459197 -0.00198153 731.34941669 0.00121372 734.38429117 0.00434887 C736.55027658 0.00299501 738.71626176 0.00121517 740.88224649 -0.00096118 C746.7828984 -0.00553732 752.6835329 -0.00374522 758.58418512 -0.0005821 C764.74436094 0.00194058 770.90453522 -0.00039578 777.06471109 -0.00196826 C787.41180042 -0.00379023 797.75888262 -0.00138294 808.10597086 0.00337231 C820.08758928 0.00881498 832.06918318 0.00705235 844.05080175 0.00154591 C854.3174207 -0.00298445 864.58403451 -0.00363615 874.85065413 -0.00101542 C880.99145712 0.00054778 887.13225211 0.00073994 893.2730546 -0.00255191 C899.04477473 -0.00542951 904.81647282 -0.003457 910.58819056 0.00234234 C912.71312152 0.00367054 914.83805432 0.00327482 916.96298456 0.00107968 C919.85059729 -0.00162949 922.73813817 0.00174642 925.62574625 0.00675976 C926.47815991 0.00452904 927.33057358 0.00229832 928.20881796 0 C933.9771726 0.01959358 933.9771726 0.01959358 935.09132242 1.13374341 C935.18938575 2.78003291 935.21687804 4.43055791 935.21716356 6.07976544 C935.22107518 7.69638081 935.22107518 7.69638081 935.22506583 9.34565508 C935.22283511 10.54436315 935.22060438 11.74307121 935.21830606 12.97810376 C935.21986606 14.2400703 935.22142605 15.50203683 935.22303331 16.80224478 C935.22723101 20.32115005 935.22513397 23.84002841 935.22204709 27.35893381 C935.21979499 31.14765704 935.22327165 34.93637548 935.22602701 38.72509778 C935.23048575 46.15355838 935.22950778 53.58200891 935.22661437 61.01046991 C935.22436074 67.04495487 935.22404764 73.07943699 935.22513819 79.11392224 C935.22536804 80.39966585 935.22536804 80.39966585 935.22560253 81.71138409 C935.22592224 83.45240982 935.22624645 85.19343556 935.22657512 86.9344613 C935.22943022 103.2800059 935.22614243 119.6255449 935.22077475 135.97108859 C935.21630669 150.01212607 935.21708261 164.05315529 935.22169352 178.09419262 C935.22703876 194.37917717 935.22915552 210.6641568 935.22608125 226.9491421 C935.22576269 228.68394959 935.22544832 230.41875708 935.22513819 232.15356457 C935.22498391 233.00723895 935.22482964 233.86091332 935.22467069 234.74045661 C935.22380538 240.77131842 935.2252687 246.80217712 935.22761774 252.83303845 C935.23041539 260.17743651 935.22967824 267.52182388 935.224337 274.86622071 C935.2216995 278.61715109 935.22069573 282.36806361 935.22398615 286.11899388 C935.22749121 290.17580599 935.22332093 294.23257255 935.21830606 298.28938305 C935.22053679 299.48809112 935.22276751 300.68679918 935.22506583 301.92183173 C935.22245808 302.99957531 935.21985033 304.07731889 935.21716356 305.18772137 C935.21700121 306.12546824 935.21683886 307.0632151 935.21667159 308.02937853 C935.09132242 310.13374341 935.09132242 310.13374341 934.09132242 311.13374341 C932.1888848 311.22765637 930.28293784 311.25117999 928.37818766 311.2472688 C927.15699732 311.24719326 925.93580698 311.24711773 924.67761087 311.24703991 C923.33504557 311.24193252 921.99248067 311.23671651 920.64991617 311.23139966 C919.28371085 311.2295354 917.91750485 311.22811153 916.55129862 311.22711194 C912.94930547 311.22328735 909.34735242 311.21345758 905.74537516 311.20240796 C902.07228497 311.19219257 898.39918833 311.18761404 894.72608805 311.18257153 C887.51448119 311.17183525 880.30290742 311.15475954 873.09132242 311.13374341 C872.99907389 312.15105542 872.90682535 313.16836743 872.81178141 314.21650708 C871.9747679 320.86485598 870.19349792 327.32073924 868.56397867 333.80952466 C868.21123533 335.22573995 867.85873595 336.64201603 867.5064683 338.05834973 C866.77070529 341.01176198 866.03146179 343.96427567 865.28980875 346.91621411 C864.33994748 350.69839643 863.3997426 354.48290413 862.46219587 358.26815522 C861.7380162 361.18681716 861.00834851 364.10408572 860.2770505 367.02097142 C859.9279955 368.41637182 859.58074818 369.81222571 859.23535204 371.20853627 C858.75296905 373.1554728 858.26230073 375.10035087 857.77125406 377.04512036 C857.49447321 378.15128201 857.21769236 379.25744366 856.9325242 380.39712536 C856.09132242 383.13374341 856.09132242 383.13374341 854.09132242 386.13374341 C852.16554117 386.86982739 852.16554117 386.86982739 849.77882242 387.37983716 C848.88123209 387.57537182 847.98364176 387.77090649 847.05885172 387.97236645 C846.07956705 388.16999585 845.10028238 388.36762524 844.09132242 388.57124341 C843.07401041 388.78369702 842.0566984 388.99615063 841.00855875 389.21504223 C793.19194215 398.94273631 731.33126888 409.17371189 687.09132242 383.13374341 C683.88460074 380.99754361 680.96328894 378.69958946 678.09132242 376.13374341 C677.40554117 375.52917309 676.71975992 374.92460278 676.01319742 374.30171216 C663.4431747 362.523313 655.8068347 344.8511911 654.97120523 327.66304028 C654.84653718 322.14085851 654.97112204 316.66296092 655.09132242 311.13374341 C644.86132242 311.13374341 634.63132242 311.13374341 624.09132242 311.13374341 C623.76132242 314.10374341 623.43132242 317.07374341 623.09132242 320.13374341 C622.64160633 322.60729858 622.15542682 325.07450906 621.63258219 327.53364575 C621.48934519 328.21289105 621.34610819 328.89213635 621.19853067 329.59196484 C620.73110471 331.80218904 620.25725985 334.01097217 619.78272867 336.21968091 C619.45244703 337.76900589 619.12236722 339.31837391 618.79247904 340.86778271 C618.10367243 344.09754909 617.41149142 347.32656978 616.71705484 350.55513012 C615.82749423 354.69285428 614.94794516 358.83263575 614.07104445 362.97305882 C613.39355733 366.16529685 612.71008896 369.35623179 612.02486849 372.5468179 C611.69791267 374.07341595 611.37299363 375.60045171 611.05015612 377.12792599 C610.59944223 379.25673758 610.14052821 381.38361944 609.67945719 383.51020825 C609.42044123 384.71994305 609.16142527 385.92967785 608.89456034 387.17607129 C608.09132242 390.13374341 608.09132242 390.13374341 606.09132242 393.13374341 C603.88342142 393.50123608 603.88342142 393.50123608 601.10670328 393.49018872 C600.06900293 393.49318982 599.03130259 393.49619092 597.96215677 393.49928296 C596.83817987 393.48693615 595.71420298 393.47458935 594.55616617 393.46186841 C592.83267702 393.45905865 592.83267702 393.45905865 591.07436991 393.45619214 C588.64240991 393.44946081 586.21046093 393.4355251 583.77857828 393.41499341 C580.04092801 393.38384429 576.30369896 393.37402519 572.5659318 393.36811841 C570.20850474 393.35894877 567.851082 393.34857313 565.49366617 393.33686841 C564.36766504 393.33261853 563.24166391 393.32836865 562.08154154 393.32398999 C560.52971926 393.30957867 560.52971926 393.30957867 558.94654703 393.29487622 C557.57326494 393.28463421 557.57326494 393.28463421 556.17223978 393.2741853 C554.09132242 393.13374341 554.09132242 393.13374341 553.09132242 392.13374341 C553.10933882 383.36659124 555.557777 374.64815825 557.43507242 366.13374341 C557.76796432 364.60591994 558.10043594 363.07800484 558.43250895 361.55000317 C559.12504629 358.36897661 559.82129864 355.18879523 560.52052164 352.00923169 C561.41735923 347.93050975 562.30678427 343.85021572 563.19373178 339.769333 C563.87783013 336.62396166 564.56475372 333.47921307 565.2526536 330.33467114 C565.58182126 328.82927838 565.91034611 327.32374491 566.23821878 325.81806958 C566.69499294 323.72346647 567.1553154 321.62967596 567.61671305 319.53608716 C567.87794962 318.34491284 568.13918619 317.15373852 568.40833902 315.92646801 C569.09132242 313.13374341 569.09132242 313.13374341 570.09132242 311.13374341 C550.85369383 308.57700052 550.85369383 308.57700052 533.16847086 314.23188794 C528.13210073 319.96020603 524.983879 326.74296701 521.80128336 333.62202466 C519.04873211 339.27489404 515.56348849 344.40385049 512.09132242 349.63374341 C510.76973736 351.6898505 509.45204137 353.74846241 508.13819742 355.80952466 C507.48013102 356.83771313 506.82206461 357.86590161 506.1440568 358.92524731 C504.35660528 361.71909696 502.56995236 364.51345372 500.7838273 367.30815136 C499.6807774 369.03398526 498.57749184 370.75966827 497.47413492 372.48530591 C496.08824851 374.6529744 494.70280672 376.82092725 493.31788492 378.98921216 C492.37815836 380.45874341 492.37815836 380.45874341 491.41944742 381.95796216 C490.87191813 382.81478589 490.32438883 383.67160962 489.76026773 384.5543977 C489.20951578 385.40558178 488.65876383 386.25676587 488.09132242 387.13374341 C487.57755045 388.21768384 487.06377848 389.30162426 486.53443766 390.41841137 C483.78094665 393.47870187 483.32739209 393.56346441 479.43043375 393.83076489 C477.51124894 393.83656895 475.59177761 393.80918403 473.67335367 393.75483716 C472.66036707 393.74871914 471.64738047 393.74260113 470.6036973 393.73629773 C467.36939499 393.70935183 464.13747423 393.64016714 460.90382242 393.57124341 C458.71439366 393.54972289 456.52493758 393.53081141 454.33546305 393.51460278 C450.34465131 393.47242971 446.35418171 393.42725812 442.3640275 393.34248364 C441.56112787 393.32660702 440.75822824 393.3107304 439.93099833 393.29437268 C438.09132242 393.13374341 438.09132242 393.13374341 437.09132242 392.13374341 C436.92933789 389.15099374 436.83098961 386.18945983 436.77491617 383.20405591 C436.75408976 382.27806592 436.73326334 381.35207592 436.71180582 380.39802563 C436.64534713 377.35168588 436.58671645 374.30525713 436.52882242 371.25874341 C436.50764353 370.22852063 436.48646463 369.19829785 436.46464396 368.1368562 C436.0741933 349.13393884 435.98067939 330.13975704 436.09132242 311.13374341 C428.17132242 311.13374341 420.25132242 311.13374341 412.09132242 311.13374341 C411.43132242 314.43374341 410.77132242 317.73374341 410.09132242 321.13374341 C409.43961728 323.68742098 408.75812408 326.23371874 408.04420328 328.7707063 C407.75356752 329.80924252 407.75356752 329.80924252 407.45706034 330.86875927 C406.82716486 333.11570893 406.19187197 335.3610876 405.55616617 337.60639966 C405.11278104 339.18148326 404.66963423 340.75663396 404.22671366 342.33184826 C403.30372183 345.61114905 402.37807416 348.88968469 401.45045328 352.16767895 C400.25965527 356.37640153 399.07530912 360.58690809 397.89285803 364.79798234 C396.9816895 368.04046115 396.06732911 371.28203291 395.15196276 374.5233289 C394.71361893 376.07686446 394.27624234 377.63067327 393.83984041 379.18475544 C393.23280244 381.34454188 392.62152485 383.50308223 392.00904703 385.6613313 C391.6620022 386.89025601 391.31495737 388.11918072 390.95739603 389.38534558 C390.09132242 392.13374341 390.09132242 392.13374341 389.09132242 393.13374341 C387.40330257 393.22727504 385.71137035 393.25119131 384.02076578 393.2472688 C382.93972071 393.24719326 381.85867563 393.24711773 380.74487162 393.24703991 C378.98083742 393.23929799 378.98083742 393.23929799 377.18116617 393.23139966 C375.38540895 393.22927723 375.38540895 393.22927723 373.55337381 393.22711194 C369.71183176 393.2214932 365.870347 393.20893751 362.02882242 393.19624341 C359.43181805 393.19123082 356.83481277 393.1866675 354.2378068 393.18257153 C347.85562564 393.17151768 341.47347812 393.15476133 335.09132242 393.13374341 C333.79965305 389.2587353 334.62127203 387.52403628 335.76612711 383.61787426 C336.05128687 382.63181698 336.05128687 382.63181698 336.34220743 381.62583935 C336.97436392 379.44761313 337.61870745 377.27319304 338.26319742 375.09858716 C338.70658531 373.58005015 339.14922163 372.06129351 339.59113932 370.542328 C340.75947432 366.53423944 341.93820045 362.52927845 343.11903238 358.52485669 C344.30888467 354.48293832 345.48867336 350.43808672 346.66944742 346.39350903 C350.10716465 334.62923352 353.56948299 322.87320816 357.09132242 311.13374341 C313.53132242 311.13374341 269.97132242 311.13374341 225.09132242 311.13374341 C224.43132242 314.43374341 223.77132242 317.73374341 223.09132242 321.13374341 C222.62817157 322.89925647 222.13775324 324.65830917 221.5984025 326.40205395 C221.32083612 327.30807858 221.04326975 328.21410321 220.75729227 329.14758313 C220.46146753 330.09563321 220.1656428 331.04368329 219.86085367 332.02046216 C219.54734461 333.03937039 219.23383554 334.05827862 218.91082621 335.10806286 C217.91309103 338.34723027 216.90866619 341.58427502 215.90382242 344.82124341 C215.24906434 346.94154374 214.59476417 349.06198555 213.9409318 351.18257153 C212.96623285 354.34370882 211.99076917 357.50459274 211.01200724 360.66447461 C209.34777974 366.04000094 207.69906964 371.4195994 206.07716227 376.80805981 C205.75567713 377.87426053 205.43419199 378.94046124 205.10296488 380.03897107 C204.48949327 382.07704288 203.87863999 384.11590512 203.27072001 386.15563977 C202.99842066 387.05953946 202.72612131 387.96343915 202.44557047 388.89472973 C202.20727015 389.6919595 201.96896982 390.48918927 201.72344828 391.31057751 C201.09132242 393.13374341 201.09132242 393.13374341 200.09132242 394.13374341 C198.43393799 394.22721256 196.77257598 394.25119318 195.11256266 394.2472688 C194.05153833 394.24719326 192.99051401 394.24711773 191.89733744 394.24703991 C190.74318842 394.24187863 189.5890394 394.23671734 188.39991617 394.23139966 C187.22494074 394.22998471 186.04996531 394.22856976 184.83938456 394.22711194 C181.06917178 394.22149333 177.29901739 394.20893766 173.52882242 394.19624341 C170.97999515 394.1912308 168.43116696 394.18666748 165.88233805 394.18257153 C159.6186461 394.17151785 153.35498843 394.15476162 147.09132242 394.13374341 C145.50966749 390.12163095 146.72499907 387.1853028 147.96559 383.18135083 C148.17680994 382.48975369 148.38802988 381.79815655 148.60565042 381.08560193 C149.30616034 378.80040557 150.02094391 376.51994049 150.73585367 374.23921216 C151.22664362 372.64771999 151.71651384 371.05594392 152.20550394 369.46389782 C153.49624035 365.2700154 154.79901329 361.07996822 156.10444498 356.89064038 C157.4253185 352.64502592 158.73562944 348.39615742 160.04640055 344.14741528 C161.5223175 339.36441836 162.99921786 334.5817534 164.48483133 329.80175793 C164.71188761 329.07055737 164.93894388 328.33935681 165.17288065 327.58599865 C165.78429332 325.61781902 166.39655297 323.64990256 167.00887918 321.68200696 C168.07773731 318.17827559 169.0849806 314.65593978 170.09132242 311.13374341 C141.05132242 311.13374341 112.01132242 311.13374341 82.09132242 311.13374341 C91.20560051 330.76449621 100.47950421 350.25234911 110.19972086 369.58052075 C111.86956013 372.90556814 113.52455906 376.2376521 115.17725992 379.57124341 C115.68848398 380.57832348 116.19970804 381.58540356 116.72642374 382.62300122 C117.41437525 384.01857251 117.41437525 384.01857251 118.11622477 385.44233716 C118.52335703 386.2550105 118.93048929 387.06768384 119.3499589 387.90498364 C120.19371175 390.44155624 119.99600274 391.65702105 119.09132242 394.13374341 C111.61586209 394.31934235 104.14090043 394.46136529 96.66360044 394.54824078 C93.19116866 394.58994511 89.72031592 394.64647086 86.24879313 394.73725903 C82.25474545 394.84105513 78.26234793 394.87966994 74.26710367 394.91499341 C73.0242309 394.95628369 71.78135813 394.99757397 70.50082254 395.04011548 C68.75958361 395.04102185 68.75958361 395.04102185 66.98316813 395.04194653 C65.96390741 395.05971142 64.9446467 395.07747632 63.8944993 395.09577954 C59.45863307 393.57341267 58.16282984 390.15829121 56.09132242 386.13374341 C55.59171173 385.18643825 55.59171173 385.18643825 55.08200788 384.21999562 C54.10226965 382.31020073 53.16574693 380.38413455 52.23829508 378.44844067 C51.51327647 376.95579698 50.78822837 375.46316761 50.0631547 373.97055066 C49.68735899 373.19287901 49.31156328 372.41520737 48.92437983 371.61396992 C46.91255134 367.4598095 44.87454531 363.31847772 42.84132242 359.17475903 C40.26427097 353.91861232 37.69519112 348.65897552 35.15284586 343.38594067 C33.08824504 339.10553575 30.9985854 334.83822488 28.89150476 330.57858098 C28.09514115 328.95682501 27.30816646 327.33042339 26.53085566 325.69944966 C25.44535205 323.42482692 24.32858212 321.16835075 23.20313883 318.91328442 C22.73370607 317.8995979 22.73370607 317.8995979 22.25478983 316.86543286 C21.24035344 314.74667572 21.24035344 314.74667572 19.09132242 312.13374341 C15.45395332 311.09610029 15.45395332 311.09610029 12.09132242 311.13374341 C11.88885904 312.00523022 11.68639566 312.87671704 11.47779703 313.77461255 C8.40736188 326.54030251 4.54260236 339.0348329 0.65382242 351.57124341 C-0.33614251 354.77449921 -1.32487278 357.97813244 -2.3128829 361.1819917 C-2.95155286 363.25301758 -3.5910034 365.32380292 -4.2312789 367.394333 C-6.36975381 374.32612344 -8.44658591 381.2736138 -10.4280715 388.25201428 C-11.80227904 393.02734486 -11.80227904 393.02734486 -12.90867758 394.13374341 C-14.47414806 394.22701056 -16.0438053 394.25119923 -17.61204672 394.2472688 C-18.61300879 394.24719326 -19.61397085 394.24711773 -20.6452651 394.24703991 C-21.73379278 394.24187863 -22.82232046 394.23671734 -23.94383383 394.23139966 C-25.05222113 394.22998471 -26.16060843 394.22856976 -27.30258322 394.22711194 C-30.85880827 394.22149374 -34.41497141 394.20893815 -37.97117758 394.19624341 C-40.37547355 394.19123075 -42.7797705 394.18666744 -45.1840682 394.18257153 C-51.09229262 394.1715184 -57.00048068 394.15476257 -62.90867758 394.13374341 C-62.90867758 390.32357698 -62.40439809 388.11918744 -61.22337484 384.56074536 C-60.85896795 383.44902462 -60.49456106 382.33730389 -60.11911154 381.19189465 C-59.72095739 379.99321255 -59.32280325 378.79453045 -58.91258383 377.55952466 C-58.07609888 374.99977057 -57.24114548 372.4395873 -56.40916586 369.87837231 C-56.19726457 369.22713863 -55.98536327 368.57590495 -55.76704073 367.90493691 C-53.73695012 361.64599018 -51.81877412 355.35629402 -49.93602133 349.05171216 C-49.60906271 347.95723263 -49.28210409 346.86275311 -48.94523764 345.73510754 C-48.26479143 343.45265 -47.58524297 341.16992466 -46.90654135 338.88694775 C-45.00436874 332.49047768 -43.0913192 326.09726113 -41.17820883 319.70405591 C-40.97434813 319.02251761 -40.77048742 318.34097931 -40.56044912 317.63878834 C-35.04075899 299.1899429 -29.43951128 280.76581433 -23.83795691 262.341694 C-23.03853816 259.71223091 -22.23931584 257.08270818 -21.4401412 254.4531709 C-19.93276635 249.49367568 -18.42478467 244.53436522 -16.91649008 239.57514966 C-16.68940044 238.82836327 -16.46231081 238.08157689 -16.22833967 237.31216061 C-15.57921985 235.17782663 -14.92979153 233.04358677 -14.28025961 230.90937817 C-13.7162755 229.05586863 -13.15316818 227.20202917 -12.60759974 225.34301579 C-12.08928684 223.70464396 -11.5060953 222.08649961 -10.88949633 220.48253071 C-7.17918293 210.17539466 -7.33925817 200.29347963 -7.37864828 189.48823559 C-7.37153936 187.42884686 -7.36267109 185.36946356 -7.35218954 183.31008923 C-7.32871357 177.75511782 -7.32929387 172.20038241 -7.3341043 166.64537346 C-7.33469981 160.82555402 -7.31197826 155.00582734 -7.29153585 149.18605053 C-7.25620906 138.18038692 -7.24012164 127.17478925 -7.23176068 116.16907537 C-7.21876148 99.98168027 -7.18055683 83.79433934 -7.13766146 67.60699856 C-7.13452277 66.4214484 -7.13138408 65.23589823 -7.12815028 64.0144223 C-7.12187119 61.65194975 -7.11552765 59.28947737 -7.10911769 56.92700517 C-7.09101845 49.99527284 -7.07993765 43.06357315 -7.07482064 36.13181937 C-7.07100225 31.83685295 -7.06339579 27.5418985 -7.05501318 23.24693882 C-7.0520414 21.24777864 -7.05081963 19.24861501 -7.05142546 17.24945271 C-7.05208741 14.53326223 -7.04677908 11.81714798 -7.03997946 9.10096753 C-7.04172983 8.29953973 -7.0434802 7.49811193 -7.04528362 6.67239845 C-7.01758822 0.02395666 -6.61258737 0.02235976 0 0 Z M2.09132242 9.13374341 C2.09132242 65.89374341 2.09132242 122.65374341 2.09132242 181.13374341 C17.93132242 181.46374341 33.77132242 181.79374341 50.09132242 182.13374341 C47.84145382 192.25815211 47.84145382 192.25815211 46.47486734 196.75093091 C46.01880358 198.25925488 46.01880358 198.25925488 45.5535264 199.79805005 C45.22955378 200.85757885 44.90558115 201.91710766 44.57179117 203.00874341 C44.23134272 204.13208081 43.89089426 205.25541821 43.54012918 206.41279614 C42.45614718 209.98740138 41.36767138 213.56061801 40.27882242 217.13374341 C39.55909968 219.50213525 38.83969584 221.87062403 38.1206193 224.23921216 C37.5942135 225.9727998 37.5942135 225.9727998 37.05717325 227.74140942 C36.02798594 231.13460735 35.00168019 234.5286674 33.97559977 237.92280591 C32.81004709 241.77708087 31.62941663 245.62591334 30.42970133 249.46968091 C29.9586887 251.00349002 29.4878109 252.53734054 29.01710367 254.07124341 C28.80168421 254.74485913 28.58626474 255.41847485 28.36431742 256.11250317 C27.35143172 259.45042009 26.7743318 261.82494053 28.09132242 265.13374341 C28.87636148 264.27651684 29.66140055 263.41929028 30.47022867 262.53608716 C35.39640554 257.17042342 40.31921863 251.83657949 45.52100992 246.73530591 C47.27045466 244.95104635 48.89847824 243.08978217 50.52882242 241.19624341 C52.94750021 238.38797993 55.45031925 235.73403748 58.09132242 233.13374341 C60.71172851 230.55365125 63.19455654 227.92270734 65.59132242 225.13374341 C67.9880883 222.34477947 70.47091633 219.71383556 73.09132242 217.13374341 C75.69114425 214.57384206 78.1540064 211.965948 80.52882242 209.19624341 C83.80022576 205.38830012 87.31969133 201.88810277 90.89210367 198.36421216 C93.48902011 195.73039459 95.90711586 192.98012793 98.29054117 190.15327466 C98.88479898 189.48682934 99.4790568 188.82038403 100.09132242 188.13374341 C100.81311686 187.11417553 101.53491129 186.09460766 102.27857828 185.0441438 C106.42960428 180.94884619 111.12904773 181.45203012 116.6813798 181.45396435 C118.08627077 181.48459762 119.49114742 181.51589349 120.89600992 181.54780591 C122.34473263 181.5590079 123.7934782 181.56754335 125.24223185 181.57353222 C129.04041556 181.59635279 132.83720473 181.6552133 136.63484049 181.7217561 C140.51597592 181.78332756 144.39733852 181.81057866 148.27882242 181.84077466 C155.88362228 181.90496681 163.48727635 182.00725947 171.09132242 182.13374341 C169.51568452 185.94845662 167.11382348 188.34659994 164.20191813 191.23432934 C163.70568445 191.72924878 163.20945078 192.22416821 162.69817972 192.7340852 C161.05903853 194.36674482 159.41303515 195.99230703 157.76710367 197.61811841 C156.62036867 198.75857666 155.47415151 199.89955584 154.32842875 201.041031 C151.30876568 204.04739414 148.28359692 207.04815015 145.25678873 210.04731762 C140.42935179 214.83166239 135.60847811 219.62259409 130.79105043 224.41701519 C129.11689376 226.08105369 127.43930593 227.74157233 125.76132059 229.40174878 C120.93345045 234.19192301 116.23445214 239.02172637 111.81414652 244.19596875 C108.28989602 248.1599273 104.42496654 251.79513105 100.62257242 255.48921216 C98.81714777 257.26255052 97.01248171 259.03666148 95.20850992 260.81147778 C92.38650367 263.58384952 89.56033339 266.35131247 86.72120523 269.10615551 C83.96626085 271.78273219 81.23055806 274.47774218 78.49757242 277.17671216 C77.63941935 278.00076046 76.78126627 278.82480877 75.89710855 279.67382824 C74.7296409 280.83577458 74.7296409 280.83577458 73.53858805 282.02119458 C72.84688517 282.69655758 72.15518229 283.37192059 71.44251871 284.06774914 C69.54547532 286.44152885 69.54547532 286.44152885 71.09132242 291.13374341 C72.74132242 294.76374341 74.39132242 298.39374341 76.09132242 302.13374341 C108.10132242 302.13374341 140.11132242 302.13374341 173.09132242 302.13374341 C176.42261034 293.84800027 176.42261034 293.84800027 179.22267008 285.46357739 C179.77442408 283.64242665 179.77442408 283.64242665 180.33732462 281.78448498 C180.7267585 280.48295977 181.1161095 279.18140977 181.50538492 277.87983716 C181.9237197 276.4933292 182.34246117 275.10694389 182.76157999 273.72067273 C183.86311263 270.07347115 184.959334 266.4246951 186.05433512 262.77552807 C187.13262785 259.18503001 188.21559551 255.59594376 189.29835367 252.00679028 C190.53764489 247.89790841 191.7762373 243.78882489 193.01164103 239.67877209 C193.20217932 239.04804099 193.39271761 238.41730988 193.58902979 237.76746571 C193.99606307 236.40688454 194.39563579 235.04405533 194.78880548 233.67940342 C196.2172067 228.78785741 197.85342967 224.01629563 199.60941935 219.23193371 C207.58677474 196.88936601 208.45432023 176.07214606 208.10412455 152.50634015 C208.04593549 147.93778837 208.04442844 143.36978408 208.03736734 138.80085766 C207.98549184 125.55732214 207.84588264 112.31424678 207.71632242 99.07124341 C207.51007242 69.39186841 207.30382242 39.71249341 207.09132242 9.13374341 C139.44132242 9.13374341 71.79132242 9.13374341 2.09132242 9.13374341 Z M242.09132242 9.13374341 C242.09132242 65.56374341 242.09132242 121.99374341 242.09132242 180.13374341 C262.55132242 180.46374341 283.01132242 180.79374341 304.09132242 181.13374341 C337.45755082 183.51704543 337.45755082 183.51704543 348.09132242 195.00874341 C357.91435661 207.58031514 358.60580711 222.47385012 356.77052164 237.81538403 C353.67185813 258.22213523 345.90599273 277.1463896 329.34132242 290.32124341 C323.94346477 294.15021154 317.96307207 297.1083602 312.09132242 300.13374341 C312.09132242 300.79374341 312.09132242 301.45374341 312.09132242 302.13374341 C327.93132242 302.13374341 343.77132242 302.13374341 360.09132242 302.13374341 C361.89730712 297.3177842 363.56750285 292.78012556 364.96974039 287.88105786 C365.30838114 286.70404812 365.64702188 285.52703839 365.99592447 284.31436169 C366.53427927 282.42477986 366.53427927 282.42477986 367.08350992 280.49702466 C367.46983511 279.14999166 367.85645932 277.8030444 368.243361 276.45617688 C369.06328188 273.59971251 369.88123411 270.74269502 370.69758463 267.88520825 C371.97175756 263.4254108 373.25060088 258.96696148 374.53028727 254.50874341 C376.24285157 248.54122604 377.95387394 242.57326937 379.66358805 236.60493481 C382.72712116 225.91172426 385.79891971 215.22090422 388.88093424 204.53300488 C389.70390124 201.67685182 390.52438857 198.81999421 391.34474039 195.96308911 C391.83565594 194.25951898 392.32669568 192.55598464 392.81788492 190.85249341 C393.03676371 190.08801388 393.25564249 189.32353436 393.48115396 188.53588879 C394.97723826 183.36191173 394.97723826 183.36191173 396.09132242 181.13374341 C421.33632242 180.63874341 421.33632242 180.63874341 447.09132242 180.13374341 C447.09132242 123.70374341 447.09132242 67.27374341 447.09132242 9.13374341 C379.44132242 9.13374341 311.79132242 9.13374341 242.09132242 9.13374341 Z M482.09132242 9.13374341 C482.09132242 105.82374341 482.09132242 202.51374341 482.09132242 302.13374341 C483.74132242 302.13374341 485.39132242 302.13374341 487.09132242 302.13374341 C488.86263309 300.09942954 490.14872392 298.29267227 491.52882242 296.00874341 C491.95002359 295.34495678 492.37122477 294.68117016 492.80518961 293.9972688 C493.74050926 292.51992705 494.66798981 291.03760231 495.58888102 289.55122387 C497.15902934 287.02480062 498.75629068 284.5173448 500.36085367 282.01264966 C503.34927651 277.34469837 506.31993005 272.66574799 509.28565836 267.98335278 C512.17360078 263.42574544 515.06963606 258.87329671 517.96632242 254.32124341 C518.5397941 253.41986645 519.11326578 252.5184895 519.70411539 251.58979809 C526.1237839 241.5040346 532.57149289 231.43623776 539.01954508 221.36860669 C542.56514507 215.83252374 546.10955373 210.29567872 549.65382242 204.75874341 C550.29625895 203.75544995 550.93869547 202.75215649 551.60059977 201.7184602 C552.2175773 200.75464428 552.83455484 199.79082837 553.47022867 198.79780591 C554.00204752 197.96716626 554.53386637 197.13652661 555.08180094 196.28071606 C557.12942155 193.29514147 557.12942155 193.29514147 558.18237162 190.36944592 C559.80853074 186.86634126 561.17608212 184.69318448 564.09132242 182.13374341 C570.33569426 180.0936103 577.3377447 180.85884871 583.80616617 181.05952466 C585.74667808 181.08005666 587.68724725 181.09570738 589.6278367 181.10668957 C594.72079953 181.14857102 599.81027783 181.25650597 604.9018693 181.37843335 C610.10321265 181.49122794 615.30512264 181.54125542 620.50733805 181.59663403 C630.70352558 181.71439387 640.89713361 181.90197586 651.09132242 182.13374341 C648.03496393 197.81913063 644.77194742 213.45664718 641.44679117 229.08686841 C641.02546735 231.06948764 640.6041724 233.05211301 640.18290567 235.03474438 C638.43673921 243.24977636 636.68930191 251.46453062 634.93434 259.67768872 C633.84791429 264.76302251 632.76639717 269.84937891 631.68808794 274.93643963 C631.27966778 276.85855517 630.86940013 278.78027914 630.45721865 280.70159161 C629.88554069 283.36714016 629.32011818 286.03394437 628.75611734 288.70112622 C628.58630854 289.48544018 628.41649973 290.26975415 628.2415452 291.0778352 C627.43705575 294.91477803 627.09132242 298.17288567 627.09132242 302.13374341 C636.66132242 302.13374341 646.23132242 302.13374341 656.09132242 302.13374341 C656.77194742 298.75124341 657.45257242 295.36874341 658.15382242 291.88374341 C662.03665205 273.72082967 667.86251321 250.21440402 680.87234449 236.21760762 C688.43534072 227.78001376 687.02235927 217.53158012 686.88600016 206.89497387 C686.88402375 204.73589148 686.88513766 202.57680439 686.88909769 200.41772473 C686.89110075 194.57717834 686.85003333 188.73764449 686.80107999 182.89733279 C686.75723096 176.78617636 686.75320176 170.67499504 686.74490213 164.56370556 C686.72317176 153.00050214 686.66576383 141.43776365 686.59545571 129.87476468 C686.50247781 114.24312513 686.46477757 98.61135784 686.42394018 82.97951138 C686.35817931 58.36390734 686.21870694 33.7492843 686.09132242 9.13374341 C618.77132242 9.13374341 551.45132242 9.13374341 482.09132242 9.13374341 Z M721.09132242 9.13374341 C721.09132242 69.52374341 721.09132242 129.91374341 721.09132242 192.13374341 C724.66031258 190.70614734 727.92209802 189.20575632 731.30201578 187.41816723 C756.07755832 174.4536157 783.67986301 169.90463401 811.40382242 169.88374341 C812.60777155 169.88273129 812.60777155 169.88273129 813.83604288 169.88169873 C838.27220913 169.91432785 862.79748137 172.39767834 882.09132242 189.13374341 C890.93459021 199.44782496 894.26746541 210.65880476 894.09132242 224.13374341 C893.01038247 235.2956233 893.01038247 235.2956233 891.09132242 239.13374341 C870.96132242 239.13374341 850.83132242 239.13374341 830.09132242 239.13374341 C829.76132242 235.50374341 829.43132242 231.87374341 829.09132242 228.13374341 C826.66542149 221.43825682 823.44416978 217.46587413 817.09132242 214.13374341 C803.24745989 208.95207169 787.48788288 210.04923289 773.96632242 215.79780591 C750.63310873 226.51445303 736.41113623 246.44613017 727.44288492 269.91889966 C723.97057399 280.19178461 721.09132242 291.28266891 721.09132242 302.13374341 C737.59132242 302.13374341 754.09132242 302.13374341 771.09132242 302.13374341 C774.14293198 291.14794898 777.1535162 280.15051674 780.09132242 269.13374341 C814.08132242 269.13374341 848.07132242 269.13374341 883.09132242 269.13374341 C878.64687798 289.13374341 878.64687798 289.13374341 876.60694742 296.84858716 C875.98126876 299.23104671 875.98126876 299.23104671 876.09132242 302.13374341 C892.92132242 302.13374341 909.75132242 302.13374341 927.09132242 302.13374341 C927.09132242 205.44374341 927.09132242 108.75374341 927.09132242 9.13374341 C859.11132242 9.13374341 791.13132242 9.13374341 721.09132242 9.13374341 Z M254.09132242 215.13374341 C251.60458275 221.42997642 249.71274185 227.77563297 247.95460367 234.30952466 C247.67029993 235.35650021 247.38599619 236.40347577 247.09307718 237.48217785 C246.4970817 239.68102872 245.90302206 241.88040513 245.31080484 244.08027661 C244.40159707 247.45450205 243.4841708 250.82641899 242.5659318 254.19819653 C241.98666396 256.33933958 241.40787108 258.4806112 240.82960367 260.62202466 C240.5546557 261.63138577 240.27970774 262.64074688 239.99642801 263.6806947 C239.74584131 264.61564267 239.49525461 265.55059063 239.23707438 266.51387036 C239.01517939 267.33579373 238.7932844 268.1577171 238.56466532 269.00454724 C237.98281608 271.25829842 237.98281608 271.25829842 238.09132242 274.13374341 C267.18213417 275.66245265 267.18213417 275.66245265 292.90382242 264.19624341 C301.95809666 254.05722727 306.84027888 239.39805253 306.50929117 226.00093091 C306.27163217 222.89433307 306.27163217 222.89433307 303.90382242 219.94624341 C296.45347955 215.14491133 288.50006345 214.97269338 279.87257242 215.03608716 C278.7575535 215.03820958 278.7575535 215.03820958 277.62000895 215.04037488 C275.27707014 215.04591232 272.93423169 215.05845249 270.59132242 215.07124341 C268.98976132 215.07626651 267.38819869 215.08082799 265.78663492 215.08491528 C261.88815954 215.09586113 257.98975792 215.11308144 254.09132242 215.13374341 Z M434.09132242 235.13374341 C431.33492817 242.06602432 429.30154567 249.13156435 427.29835367 256.31343091 C426.9474618 257.56254254 426.59656992 258.81165417 426.23504496 260.09861767 C425.49749915 262.72527027 424.76236879 265.35258271 424.02906656 267.98042309 C423.08837296 271.35092613 422.14219081 274.71985903 421.19430876 278.0883466 C420.28883332 281.30846533 419.3874731 284.52973032 418.48585367 287.75093091 C418.14528437 288.96231732 417.80471506 290.17370373 417.45382547 291.42179883 C416.98785204 293.09461422 416.98785204 293.09461422 416.512465 294.80122387 C416.23727533 295.78525189 415.96208567 296.7692799 415.67855692 297.78312695 C415.01053155 300.05332811 415.01053155 300.05332811 415.09132242 302.13374341 C422.02132242 302.13374341 428.95132242 302.13374341 436.09132242 302.13374341 C436.13645829 293.69333549 436.17317209 285.25302098 436.19494677 276.81252491 C436.20539607 272.89351057 436.21957604 268.97458287 436.24220133 265.05561841 C436.26388904 261.27551302 436.2758824 257.49549112 436.28107691 253.71532834 C436.28478002 252.27118502 436.29201102 250.8270464 436.30278254 249.3829385 C436.31724259 247.36453446 436.31813887 245.34604689 436.3183732 243.32759106 C436.32503504 241.60217587 436.32503504 241.60217587 436.33183146 239.84190381 C436.37003749 236.98460286 436.37003749 236.98460286 434.09132242 235.13374341 Z M584.09132242 236.13374341 C582.83476584 237.62827715 582.83476584 237.62827715 581.61475992 239.62983716 C580.86827188 240.79011425 580.86827188 240.79011425 580.10670328 241.9738313 C579.5653776 242.83097729 579.02405191 243.68812329 578.46632242 244.57124341 C577.89728189 245.45997143 577.32824137 246.34869946 576.74195719 247.26435864 C575.50500393 249.19775477 574.27117337 251.13315138 573.04005289 253.07026684 C571.06676218 256.17235302 569.08255468 259.26719525 567.09522867 262.36030591 C563.72732109 267.60449189 560.37116597 272.85605264 557.02052164 278.11128247 C555.15393947 281.03564178 553.28121341 283.95599067 551.40772867 286.87593091 C550.30195752 288.60750867 549.19647142 290.3392685 548.09132242 292.07124341 C547.58077311 292.86409741 547.07022379 293.65695141 546.54420328 294.4738313 C546.0853776 295.19562573 545.62655191 295.91742016 545.15382242 296.66108716 C544.75292398 297.28749096 544.35202555 297.91389477 543.93897867 298.55928051 C542.93330815 300.12922021 542.93330815 300.12922021 543.09132242 302.13374341 C552.66132242 302.13374341 562.23132242 302.13374341 572.09132242 302.13374341 C574.58256777 291.01037973 574.58256777 291.01037973 577.06788492 279.88569653 C578.08004744 275.3489068 579.09290621 270.81228032 580.10987711 266.27656567 C580.92962341 262.62027459 581.74627491 258.96330492 582.56077433 255.30584157 C582.87225302 253.90973559 583.18485095 252.51387884 583.4985795 251.11827672 C583.93739323 249.16535289 584.37188022 247.21145839 584.80616617 245.2575227 C585.05487467 244.1449963 585.30358316 243.03246991 585.55982828 241.88623059 C586.18611927 239.11003413 586.18611927 239.11003413 586.09132242 236.13374341 C585.43132242 236.13374341 584.77132242 236.13374341 584.09132242 236.13374341 Z M721.09132242 311.13374341 C721.09132242 324.19439713 723.78044865 334.08810845 732.64600992 343.84468091 C743.54136022 354.11446085 759.22065864 356.40232098 773.60841227 356.26045239 C779.347607 356.05165931 785.01681633 355.44242118 790.71632242 354.75874341 C791.87261148 354.63241528 793.02890055 354.50608716 794.22022867 354.37593091 C795.87731852 354.18257153 795.87731852 354.18257153 797.56788492 353.98530591 C798.55869059 353.87009594 799.54949625 353.75488598 800.57032633 353.63618481 C803.324182 353.2539374 803.324182 353.2539374 806.09132242 351.13374341 C806.9860505 348.4740851 807.70763121 345.92470052 808.35304117 343.20405591 C808.54856073 342.41731488 808.7440803 341.63057385 808.94552469 340.81999218 C809.35683516 339.15526278 809.76246987 337.48912232 810.16285563 335.82173169 C810.77546365 333.27271901 811.40542608 330.72850096 812.03858805 328.18452466 C812.43610196 326.56628763 812.83261947 324.94780544 813.22804117 323.32905591 C813.50922045 322.1882507 813.50922045 322.1882507 813.79608011 321.02439892 C814.61422411 317.59839524 815.09132242 314.67906094 815.09132242 311.13374341 C784.07132242 311.13374341 753.05132242 311.13374341 721.09132242 311.13374341 Z " fill="#9da3b9" transform="translate(75.90867757797241,13.866256594657898)"/>
<path d="" fill="#9da3b9" transform="translate(0,0)"/>
</svg>
