<?xml version="1.0" encoding="UTF-8"?>
<svg version="1.1" xmlns="http://www.w3.org/2000/svg" width="395" height="91">
<path d="M0 0 C3.22290201 0.0289309 5.44294723 0.35779815 8.1875 2.1875 C8.1875 3.1775 8.1875 4.1675 8.1875 5.1875 C9.5075 5.8475 10.8275 6.5075 12.1875 7.1875 C12.1875 9.4975 12.1875 11.8075 12.1875 14.1875 C13.1775 14.5175 14.1675 14.8475 15.1875 15.1875 C17.16733635 18.29867141 18.27569111 20.21739784 17.9375 23.9375 C17.1875 26.1875 17.1875 26.1875 16.1875 28.1875 C14.8675 27.8575 13.5475 27.5275 12.1875 27.1875 C11.38796862 30.47446233 11.09091064 31.89773192 12.1875 35.1875 C17.11534505 34.770187 19.1652145 32.63764073 22.5 29.125 C23.38300781 28.20589844 24.26601562 27.28679688 25.17578125 26.33984375 C26.17158203 25.27443359 26.17158203 25.27443359 27.1875 24.1875 C28.01171875 25.8046875 28.01171875 25.8046875 28.1875 28.1875 C26.52701263 30.44336932 24.93537858 32.32140964 23 34.3125 C22.50435547 34.85003906 22.00871094 35.38757812 21.49804688 35.94140625 C18.95171838 38.63910169 16.67757976 40.83811355 13.1875 42.1875 C13.1875 42.8475 13.1875 43.5075 13.1875 44.1875 C11.62695312 45.60791016 11.62695312 45.60791016 9.46875 47.2265625 C8.31826172 48.09667969 8.31826172 48.09667969 7.14453125 48.984375 C6.33371094 49.58765625 5.52289063 50.1909375 4.6875 50.8125 C3.87667969 51.42351563 3.06585938 52.03453125 2.23046875 52.6640625 C0.22032573 54.17758195 -1.79407701 55.68505059 -3.8125 57.1875 C-2.4925 57.5175 -1.1725 57.8475 0.1875 58.1875 C0.1875 57.5275 0.1875 56.8675 0.1875 56.1875 C1.5075 56.1875 2.8275 56.1875 4.1875 56.1875 C3.8575 57.8375 3.5275 59.4875 3.1875 61.1875 C3.88617188 61.38085938 4.58484375 61.57421875 5.3046875 61.7734375 C6.21476562 62.03382812 7.12484375 62.29421875 8.0625 62.5625 C9.41988281 62.94535156 9.41988281 62.94535156 10.8046875 63.3359375 C13.1875 64.1875 13.1875 64.1875 15.1875 66.1875 C14.8125 68.8125 14.8125 68.8125 14.1875 71.1875 C11.7125 71.6825 11.7125 71.6825 9.1875 72.1875 C9.1875 70.5375 9.1875 68.8875 9.1875 67.1875 C6.2175 66.1975 3.2475 65.2075 0.1875 64.1875 C-0.3075 65.6725 -0.3075 65.6725 -0.8125 67.1875 C-1.8025 66.8575 -2.7925 66.5275 -3.8125 66.1875 C-3.93625 65.548125 -4.06 64.90875 -4.1875 64.25 C-4.63346525 61.95420492 -4.63346525 61.95420492 -7.0625 60.8125 C-10.37817074 60.05893847 -11.83736836 60.6574323 -14.8125 62.1875 C-14.3175 64.1675 -14.3175 64.1675 -13.8125 66.1875 C-15.6875 66.8125 -15.6875 66.8125 -17.8125 67.1875 C-18.4725 66.5275 -19.1325 65.8675 -19.8125 65.1875 C-23.2775 66.1775 -23.2775 66.1775 -26.8125 67.1875 C-26.8125 68.8375 -26.8125 70.4875 -26.8125 72.1875 C-28.4625 71.8575 -30.1125 71.5275 -31.8125 71.1875 C-32.3075 68.7125 -32.3075 68.7125 -32.8125 66.1875 C-24.63068182 61.1875 -24.63068182 61.1875 -20.8125 61.1875 C-21.3075 58.7125 -21.3075 58.7125 -21.8125 56.1875 C-20.4925 56.1875 -19.1725 56.1875 -17.8125 56.1875 C-17.4825 56.8475 -17.1525 57.5075 -16.8125 58.1875 C-15.3275 57.6925 -15.3275 57.6925 -13.8125 57.1875 C-16.08226982 55.39447179 -18.35326244 53.60303207 -20.625 51.8125 C-21.58889648 51.05066406 -21.58889648 51.05066406 -22.57226562 50.2734375 C-23.19423828 49.78359375 -23.81621094 49.29375 -24.45703125 48.7890625 C-25.02784424 48.33869629 -25.59865723 47.88833008 -26.18676758 47.42431641 C-27.68451655 46.28486659 -29.24665344 45.23139771 -30.8125 44.1875 C-30.8125 43.5275 -30.8125 42.8675 -30.8125 42.1875 C-31.38484375 41.94 -31.9571875 41.6925 -32.546875 41.4375 C-35.16260611 39.99433801 -36.96023456 38.30533778 -39.0625 36.1875 C-40.12210938 35.135625 -40.12210938 35.135625 -41.203125 34.0625 C-42.8125 32.1875 -42.8125 32.1875 -42.8125 30.1875 C-43.4725 30.1875 -44.1325 30.1875 -44.8125 30.1875 C-45.4725 28.2075 -46.1325 26.2275 -46.8125 24.1875 C-46.1525 24.1875 -45.4925 24.1875 -44.8125 24.1875 C-44.8125 24.8475 -44.8125 25.5075 -44.8125 26.1875 C-44.24660156 26.42339844 -43.68070313 26.65929687 -43.09765625 26.90234375 C-40.297331 28.47722752 -38.45843979 30.4219831 -36.25 32.75 C-33.02923663 36.22987626 -33.02923663 36.22987626 -28.8125 38.1875 C-29.54339844 36.92679688 -29.54339844 36.92679688 -30.2890625 35.640625 C-33.91760201 27.41593545 -32.44741649 17.35196929 -29.56640625 9.04296875 C-28.8125 7.1875 -28.8125 7.1875 -27.8125 5.1875 C-24.43112459 6.58432201 -22.95639249 8.00855137 -21.05078125 11.109375 C-20.57189453 11.88796875 -20.09300781 12.6665625 -19.59960938 13.46875 C-18.86967773 14.69078125 -18.86967773 14.69078125 -18.125 15.9375 C-17.62677734 16.73671875 -17.12855469 17.5359375 -16.61523438 18.359375 C-14.0301681 22.62455898 -12.16547007 26.09816408 -11.8125 31.1875 C-11.1525 30.1975 -10.4925 29.2075 -9.8125 28.1875 C-9.1525 28.1875 -8.4925 28.1875 -7.8125 28.1875 C-7.8125 28.8475 -7.8125 29.5075 -7.8125 30.1875 C-7.1525 30.1875 -6.4925 30.1875 -5.8125 30.1875 C-5.8125 30.8475 -5.8125 31.5075 -5.8125 32.1875 C-7.14583333 33.52083333 -8.47916667 34.85416667 -9.8125 36.1875 C-10.1425 37.1775 -10.4725 38.1675 -10.8125 39.1875 C-9.4925 39.1875 -8.1725 39.1875 -6.8125 39.1875 C-6.8125 38.5275 -6.8125 37.8675 -6.8125 37.1875 C-3.8425 36.6925 -3.8425 36.6925 -0.8125 36.1875 C-0.8125 30.2475 -0.8125 24.3075 -0.8125 18.1875 C-4.7725 18.6825 -4.7725 18.6825 -8.8125 19.1875 C-8.8125 18.1975 -8.8125 17.2075 -8.8125 16.1875 C-10.1325 15.8575 -11.4525 15.5275 -12.8125 15.1875 C-14.0625 8.5625 -14.0625 8.5625 -11.8125 5.1875 C-11.1525 5.1875 -10.4925 5.1875 -9.8125 5.1875 C-9.8125 4.5275 -9.8125 3.8675 -9.8125 3.1875 C-9.008125 2.878125 -8.20375 2.56875 -7.375 2.25 C-2.21074945 0.10872538 -2.21074945 0.10872538 0 0 Z " fill="#9da3b9" transform="translate(52.8125,9.8125)"/>
<path d="M0 0 C3.22290201 0.0289309 5.44294723 0.35779815 8.1875 2.1875 C8.1875 3.1775 8.1875 4.1675 8.1875 5.1875 C9.5075 5.8475 10.8275 6.5075 12.1875 7.1875 C12.1875 9.4975 12.1875 11.8075 12.1875 14.1875 C13.1775 14.5175 14.1675 14.8475 15.1875 15.1875 C17.16733635 18.29867141 18.27569111 20.21739784 17.9375 23.9375 C17.1875 26.1875 17.1875 26.1875 16.1875 28.1875 C14.8675 27.8575 13.5475 27.5275 12.1875 27.1875 C11.03450779 31.54324833 11.38191943 33.35401657 12.1875 38.1875 C6.5775 38.1875 0.9675 38.1875 -4.8125 38.1875 C-4.4825 37.5275 -4.1525 36.8675 -3.8125 36.1875 C-2.8225 36.1875 -1.8325 36.1875 -0.8125 36.1875 C-0.8125 30.2475 -0.8125 24.3075 -0.8125 18.1875 C-4.7725 18.6825 -4.7725 18.6825 -8.8125 19.1875 C-8.8125 18.1975 -8.8125 17.2075 -8.8125 16.1875 C-10.1325 15.8575 -11.4525 15.5275 -12.8125 15.1875 C-14.0625 8.5625 -14.0625 8.5625 -11.8125 5.1875 C-11.1525 5.1875 -10.4925 5.1875 -9.8125 5.1875 C-9.8125 4.5275 -9.8125 3.8675 -9.8125 3.1875 C-9.008125 2.878125 -8.20375 2.56875 -7.375 2.25 C-2.21074945 0.10872538 -2.21074945 0.10872538 0 0 Z " fill="#9da3b9" transform="translate(52.8125,9.8125)"/>
<path d="M0 0 C3.38137541 1.39682201 4.85610751 2.82105137 6.76171875 5.921875 C7.24060547 6.70046875 7.71949219 7.4790625 8.21289062 8.28125 C8.69951172 9.0959375 9.18613281 9.910625 9.6875 10.75 C10.18572266 11.54921875 10.68394531 12.3484375 11.19726562 13.171875 C13.7823319 17.43705898 15.64702993 20.91066408 16 26 C16.66 25.01 17.32 24.02 18 23 C18.66 23 19.32 23 20 23 C20 23.66 20 24.32 20 25 C20.66 25 21.32 25 22 25 C22 27 22 27 20.0625 29 C19.381875 29.66 18.70125 30.32 18 31 C17.67 31.66 17.34 32.32 17 33 C11.06 33 5.12 33 -1 33 C-5.32746786 24.34506428 -5.31080187 15.48840336 -2.5625 6.1875 C-1.8140634 4.02896546 -1.02123618 2.04247236 0 0 Z " fill="#9da3b9" transform="translate(25,15)"/>
<path d="M0 0 C0.66 0 1.32 0 2 0 C2.495 3.465 2.495 3.465 3 7 C3.99 6.34 4.98 5.68 6 5 C9.1875 5.375 9.1875 5.375 12 6 C12 7.32 12 8.64 12 10 C12.66 10 13.32 10 14 10 C14 8.68 14 7.36 14 6 C13.34 5.67 12.68 5.34 12 5 C12.33 4.01 12.66 3.02 13 2 C15.475 2.495 15.475 2.495 18 3 C18.33 2.01 18.66 1.02 19 0 C20.98 0 22.96 0 25 0 C25 4.29 25 8.58 25 13 C16.42 13 7.84 13 -1 13 C-1 13.99 -1 14.98 -1 16 C-2.65 16 -4.3 16 -6 16 C-6 15.01 -6 14.02 -6 13 C-6.77714355 13.00523682 -7.55428711 13.01047363 -8.35498047 13.01586914 C-11.86164549 13.03660156 -15.36829763 13.04964821 -18.875 13.0625 C-20.09832031 13.07087891 -21.32164062 13.07925781 -22.58203125 13.08789062 C-24.33193359 13.09272461 -24.33193359 13.09272461 -26.1171875 13.09765625 C-27.73536377 13.10551147 -27.73536377 13.10551147 -29.38623047 13.11352539 C-32 13 -32 13 -34 12 C-34 13.98 -34 15.96 -34 18 C-34.99 18 -35.98 18 -37 18 C-38.11445498 15.77109005 -38.16480286 14.46944894 -38.1875 12 C-38.20167969 11.29875 -38.21585938 10.5975 -38.23046875 9.875 C-38 8 -38 8 -36 6 C-32.5 5.6875 -32.5 5.6875 -29 6 C-28.01 7.485 -28.01 7.485 -27 9 C-24.68246412 9.50843062 -24.68246412 9.50843062 -21.9921875 9.51171875 C-21.00605469 9.54716797 -20.01992187 9.58261719 -19.00390625 9.61914062 C-17.45509766 9.65297852 -17.45509766 9.65297852 -15.875 9.6875 C-14.31458984 9.73874023 -14.31458984 9.73874023 -12.72265625 9.79101562 C-10.14854493 9.87367058 -7.57478171 9.94276155 -5 10 C-5 8.68 -5 7.36 -5 6 C-4.01 6 -3.02 6 -2 6 C-1.505 7.485 -1.505 7.485 -1 9 C-0.67 6.03 -0.34 3.06 0 0 Z " fill="#9da3b9" transform="translate(262,34)"/>
<path d="M0 0 C0.99 0 1.98 0 3 0 C3.495 2.97 3.495 2.97 4 6 C5.36125 5.6596875 5.36125 5.6596875 6.75 5.3125 C10 5 10 5 12.375 6.4375 C12.91125 6.953125 13.4475 7.46875 14 8 C14.33 7.34 14.66 6.68 15 6 C15.66 6 16.32 6 17 6 C17.495 6.99 17.495 6.99 18 8 C18.33 7.01 18.66 6.02 19 5 C17.02 5 15.04 5 13 5 C13 4.01 13 3.02 13 2 C14.65 2 16.3 2 18 2 C18.33 1.34 18.66 0.68 19 0 C19.99 0 20.98 0 22 0 C22 4.29 22 8.58 22 13 C14.74 13.33 7.48 13.66 0 14 C0 14.66 0 15.32 0 16 C-1.98 16 -3.96 16 -6 16 C-6 15.34 -6 14.68 -6 14 C-6.74161377 13.97494385 -7.48322754 13.9498877 -8.24731445 13.92407227 C-11.60255328 13.80813868 -14.95750944 13.68540015 -18.3125 13.5625 C-19.47974609 13.52318359 -20.64699219 13.48386719 -21.84960938 13.44335938 C-23.52700195 13.38051758 -23.52700195 13.38051758 -25.23828125 13.31640625 C-26.26993408 13.27974854 -27.30158691 13.24309082 -28.36450195 13.20532227 C-31 13 -31 13 -34 12 C-33.67 13.98 -33.34 15.96 -33 18 C-33.99 18.33 -34.98 18.66 -36 19 C-36.41694996 17.40119187 -36.80790856 15.79558739 -37.1875 14.1875 C-37.40792969 13.29417969 -37.62835938 12.40085937 -37.85546875 11.48046875 C-38 9 -38 9 -36.7734375 7.19921875 C-33.87966382 5.24241585 -31.37313344 5.63202181 -28 6 C-27.01 7.485 -27.01 7.485 -26 9 C-23.68246412 9.50843062 -23.68246412 9.50843062 -20.9921875 9.51171875 C-20.00605469 9.54716797 -19.01992187 9.58261719 -18.00390625 9.61914062 C-16.45509766 9.65297852 -16.45509766 9.65297852 -14.875 9.6875 C-13.31458984 9.73874023 -13.31458984 9.73874023 -11.72265625 9.79101562 C-9.14854493 9.87367058 -6.57478171 9.94276155 -4 10 C-4 8.68 -4 7.36 -4 6 C-3.34 6 -2.68 6 -2 6 C-2 6.99 -2 7.98 -2 9 C-1.34 9 -0.68 9 0 9 C0 6.03 0 3.06 0 0 Z " fill="#9da3b9" transform="translate(186,34)"/>
<path d="M0 0 C2.4375 0.1875 2.4375 0.1875 3.4375 1.1875 C3.50994053 3.20714199 3.52127188 5.22917124 3.5 7.25 C3.49097656 8.35472656 3.48195313 9.45945312 3.47265625 10.59765625 C3.46105469 11.45230469 3.44945312 12.30695312 3.4375 13.1875 C1.90029297 13.24357422 1.90029297 13.24357422 0.33203125 13.30078125 C-1.02868062 13.36647079 -2.38935611 13.43291709 -3.75 13.5 C-4.42353516 13.52255859 -5.09707031 13.54511719 -5.79101562 13.56835938 C-10.27285178 13.80884814 -12.81332577 14.85693223 -16.5625 17.1875 C-19.01953125 17.26171875 -19.01953125 17.26171875 -21.375 16.875 C-22.16519531 16.75511719 -22.95539063 16.63523437 -23.76953125 16.51171875 C-24.36121094 16.40472656 -24.95289063 16.29773438 -25.5625 16.1875 C-25.5625 15.1975 -25.5625 14.2075 -25.5625 13.1875 C-26.1922876 13.19797363 -26.8220752 13.20844727 -27.47094727 13.21923828 C-30.35559006 13.2611023 -33.24016866 13.28692201 -36.125 13.3125 C-37.6109668 13.33763672 -37.6109668 13.33763672 -39.12695312 13.36328125 C-44.68978491 13.40024359 -49.31093075 13.05832551 -54.5625 11.1875 C-54.2325 9.8675 -53.9025 8.5475 -53.5625 7.1875 C-52.2425 6.8575 -50.9225 6.5275 -49.5625 6.1875 C-49.5625 5.5275 -49.5625 4.8675 -49.5625 4.1875 C-50.5525 4.1875 -51.5425 4.1875 -52.5625 4.1875 C-52.5625 3.1975 -52.5625 2.2075 -52.5625 1.1875 C-50.9125 1.1875 -49.2625 1.1875 -47.5625 1.1875 C-47.2325 4.1575 -46.9025 7.1275 -46.5625 10.1875 C-39.3025 10.1875 -32.0425 10.1875 -24.5625 10.1875 C-24.5625 8.8675 -24.5625 7.5475 -24.5625 6.1875 C-23.5725 6.1875 -22.5825 6.1875 -21.5625 6.1875 C-21.5625 7.5075 -21.5625 8.8275 -21.5625 10.1875 C-20.5725 10.1875 -19.5825 10.1875 -18.5625 10.1875 C-18.5625 8.8675 -18.5625 7.5475 -18.5625 6.1875 C-17.9025 6.1875 -17.2425 6.1875 -16.5625 6.1875 C-16.5625 8.4975 -16.5625 10.8075 -16.5625 13.1875 C-14.9791747 11.9386573 -14.9791747 11.9386573 -13.5625 10.1875 C-13.5625 8.8675 -13.5625 7.5475 -13.5625 6.1875 C-10.5625 7.1875 -10.5625 7.1875 -9.5625 9.1875 C-9.2325 8.1975 -8.9025 7.2075 -8.5625 6.1875 C-7.5725 6.1875 -6.5825 6.1875 -5.5625 6.1875 C-5.5625 7.5075 -5.5625 8.8275 -5.5625 10.1875 C-4.9025 10.1875 -4.2425 10.1875 -3.5625 10.1875 C-3.5625 8.5375 -3.5625 6.8875 -3.5625 5.1875 C-5.5425 5.1875 -7.5225 5.1875 -9.5625 5.1875 C-9.5625 4.1975 -9.5625 3.2075 -9.5625 2.1875 C-8.77875 2.22875 -7.995 2.27 -7.1875 2.3125 C-3.74333515 2.14849215 -3.41428291 0.24982558 0 0 Z " fill="#9da3b9" transform="translate(353.5625,33.8125)"/>
<path d="M0 0 C0.99 0 1.98 0 3 0 C3.495 1.98 3.495 1.98 4 4 C4.33 3.67 4.66 3.34 5 3 C6.66611905 2.957279 8.33382885 2.95936168 10 3 C11.8542837 3 13.70850159 2.97002629 15.5625 2.9375 C19 3 19 3 20 4 C20.04092937 6.33297433 20.04241723 8.66705225 20 11 C19.34 11 18.68 11 18 11 C18 9.35 18 7.7 18 6 C17.01 6 16.02 6 15 6 C15 7.65 15 9.3 15 11 C8.33333333 11 1.66666667 11 -5 11 C-5.33 9.68 -5.66 8.36 -6 7 C-6.33 8.32 -6.66 9.64 -7 11 C-10.64581687 11.02887512 -14.29160463 11.04675585 -17.9375 11.0625 C-19.49887695 11.07506836 -19.49887695 11.07506836 -21.09179688 11.08789062 C-22.08115234 11.09111328 -23.07050781 11.09433594 -24.08984375 11.09765625 C-25.00628662 11.10289307 -25.92272949 11.10812988 -26.86694336 11.11352539 C-29 11 -29 11 -30 10 C-30.04092937 7.66702567 -30.04241723 5.33294775 -30 3 C-29.34 3 -28.68 3 -28 3 C-27.814375 4.2065625 -27.814375 4.2065625 -27.625 5.4375 C-27.41875 6.283125 -27.2125 7.12875 -27 8 C-26.34 8.33 -25.68 8.66 -25 9 C-25 7.02 -25 5.04 -25 3 C-24.360625 3.185625 -23.72125 3.37125 -23.0625 3.5625 C-22.381875 3.706875 -21.70125 3.85125 -21 4 C-20.67 3.67 -20.34 3.34 -20 3 C-17.64686445 2.92728259 -15.29166332 2.91629132 -12.9375 2.9375 C-11.64714844 2.94652344 -10.35679687 2.95554688 -9.02734375 2.96484375 C-8.02832031 2.97644531 -7.02929688 2.98804688 -6 3 C-5.67 2.34 -5.34 1.68 -5 1 C-4.34 1 -3.68 1 -3 1 C-3 1.66 -3 2.32 -3 3 C-2.01 2.67 -1.02 2.34 0 2 C0 1.34 0 0.68 0 0 Z " fill="#9da3b9" transform="translate(369,55)"/>
<path d="M0 0 C0.33 0.99 0.66 1.98 1 3 C1.99 3.33 2.98 3.66 4 4 C5.97983635 7.11117141 7.08819111 9.02989784 6.75 12.75 C6 15 6 15 5 17 C3.68 16.67 2.36 16.34 1 16 C0.25042843 19.47147842 0.25042843 19.47147842 0 23 C-0.66 23 -1.32 23 -2 23 C-2 23.66 -2 24.32 -2 25 C-4.64 25 -7.28 25 -10 25 C-10.05384521 22.70858714 -10.09272087 20.41681812 -10.125 18.125 C-10.14820313 16.84882812 -10.17140625 15.57265625 -10.1953125 14.2578125 C-10 11 -10 11 -8 9 C-8.33 8.34 -8.66 7.68 -9 7 C-8.67 6.34 -8.34 5.68 -8 5 C-7.34 5 -6.68 5 -6 5 C-6 4.34 -6 3.68 -6 3 C-5.34 3 -4.68 3 -4 3 C-4 3.66 -4 4.32 -4 5 C-3.01 4.67 -2.02 4.34 -1 4 C-0.26676204 1.98491642 -0.26676204 1.98491642 0 0 Z " fill="#9da3b9" transform="translate(64,21)"/>
<path d="M0 0 C0.66 0 1.32 0 2 0 C2.33 1.65 2.66 3.3 3 5 C3.99 5 4.98 5 6 5 C6 6.98 6 8.96 6 11 C6.66 11 7.32 11 8 11 C8 9.02 8 7.04 8 5 C8.639375 5.185625 9.27875 5.37125 9.9375 5.5625 C10.9584375 5.7790625 10.9584375 5.7790625 12 6 C12.33 5.67 12.66 5.34 13 5 C14.99958364 4.95919217 17.00045254 4.95745644 19 5 C19 5.99 19 6.98 19 8 C17.35 8 15.7 8 14 8 C14.33 8.66 14.66 9.32 15 10 C17.02463255 10.65213292 17.02463255 10.65213292 19 11 C19.33 9.02 19.66 7.04 20 5 C22.31 5 24.62 5 27 5 C27.33 4.34 27.66 3.68 28 3 C28.99 3 29.98 3 31 3 C31 3.66 31 4.32 31 5 C31.66 5 32.32 5 33 5 C33 5.66 33 6.32 33 7 C32.34 7 31.68 7 31 7 C31 8.32 31 9.64 31 11 C31.66 11 32.32 11 33 11 C33 11.66 33 12.32 33 13 C32.195625 12.814375 31.39125 12.62875 30.5625 12.4375 C29.716875 12.293125 28.87125 12.14875 28 12 C27.67 12.33 27.34 12.66 27 13 C24.68856033 13.07305435 22.37499731 13.08362942 20.0625 13.0625 C18.79535156 13.05347656 17.52820313 13.04445313 16.22265625 13.03515625 C15.15917969 13.02355469 14.09570312 13.01195313 13 13 C12.34 13 11.68 13 11 13 C5.66666667 13 0.33333333 13 -5 13 C-5.625 10.125 -5.625 10.125 -6 7 C-5.34 6.34 -4.68 5.68 -4 5 C-2.68 5 -1.36 5 0 5 C0 3.35 0 1.7 0 0 Z " fill="#9da3b9" transform="translate(181,53)"/>
<path d="M0 0 C5.28 0 10.56 0 16 0 C14 2 14 2 2 3 C13.22 3.33 24.44 3.66 36 4 C32.6797412 8.1503235 30.36758288 10.49575996 26.125 13.4375 C25.11695312 14.15808594 24.10890625 14.87867188 23.0703125 15.62109375 C20 17 20 17 16.859375 16.4140625 C14.23979329 15.1185863 12.28185239 13.88825316 10.125 11.9375 C9.52945313 11.41027344 8.93390625 10.88304687 8.3203125 10.33984375 C7 9 7 9 7 8 C9.68735788 7.83071761 12.37484884 7.6645047 15.0625 7.5 C16.19075195 7.42845703 16.19075195 7.42845703 17.34179688 7.35546875 C21.90491751 7.07891598 26.42856523 6.9514323 31 7 C29.98940239 5.76498339 29.98940239 5.76498339 27.91455078 5.90234375 C26.56852783 5.91974609 26.56852783 5.91974609 25.1953125 5.9375 C24.21949219 5.94523437 23.24367188 5.95296875 22.23828125 5.9609375 C20.17057168 5.98688116 18.10286334 6.01292208 16.03515625 6.0390625 C15.05675781 6.04679687 14.07835937 6.05453125 13.0703125 6.0625 C12.17070801 6.07410156 11.27110352 6.08570313 10.34423828 6.09765625 C8 6 8 6 5 5 C4.67 5.66 4.34 6.32 4 7 C2.35 5.35 0.7 3.7 -1 2 C-0.67 1.34 -0.34 0.68 0 0 Z " fill="#9da3b9" transform="translate(25,48)"/>
<path d="M0 0 C0.99 0 1.98 0 3 0 C3.33 1.32 3.66 2.64 4 4 C4.33 3.67 4.66 3.34 5 3 C6.99958364 2.95919217 9.00045254 2.95745644 11 3 C11.33 2.34 11.66 1.68 12 1 C12.99 1 13.98 1 15 1 C15 1.66 15 2.32 15 3 C18.63 3 22.26 3 26 3 C26.33 4.65 26.66 6.3 27 8 C27.33 8 27.66 8 28 8 C28.33 6.35 28.66 4.7 29 3 C29.66 3 30.32 3 31 3 C31 6.63 31 10.26 31 14 C28.69 14.33 26.38 14.66 24 15 C23.67 12.03 23.34 9.06 23 6 C22.01 6 21.02 6 20 6 C20 7.65 20 9.3 20 11 C17.36 11 14.72 11 12 11 C12 9.02 12 7.04 12 5 C11.34 5 10.68 5 10 5 C10.185625 5.804375 10.37125 6.60875 10.5625 7.4375 C10.706875 8.283125 10.85125 9.12875 11 10 C10 11 10 11 7.93359375 11.09765625 C4.46679688 11.04882812 4.46679688 11.04882812 1 11 C0.67 7.37 0.34 3.74 0 0 Z " fill="#9da3b9" transform="translate(111,55)"/>
<path d="M0 0 C0.83203125 1.61328125 0.83203125 1.61328125 1 4 C-0.70405624 6.26910107 -2.34200537 8.17822565 -4.3125 10.1875 C-4.82490234 10.73341797 -5.33730469 11.27933594 -5.86523438 11.84179688 C-9.65191485 15.82595742 -9.65191485 15.82595742 -12 17 C-12 16.01 -12 15.02 -12 14 C-12.65250732 14.65194336 -13.30501465 15.30388672 -13.97729492 15.97558594 C-17.81734543 18.54740556 -20.90746994 18.51140344 -25.36328125 18.390625 C-26.15526413 18.38496521 -26.94724701 18.37930542 -27.76322937 18.37347412 C-30.28028094 18.35117308 -32.79588243 18.30099139 -35.3125 18.25 C-37.02406791 18.22992675 -38.73565824 18.21167742 -40.44726562 18.1953125 C-44.63206485 18.15132925 -48.815787 18.08234769 -53 18 C-53.33 17.34 -53.66 16.68 -54 16 C-44.1 15.505 -44.1 15.505 -34 15 C-34 14.34 -34 13.68 -34 13 C-28.06 13 -22.12 13 -16 13 C-16.495 12.01 -16.495 12.01 -17 11 C-16.13117187 11.1134375 -15.26234375 11.226875 -14.3671875 11.34375 C-9.88868032 10.88654741 -8.00354872 8.68361231 -5.125 5.5 C-4.62742188 4.97535156 -4.12984375 4.45070313 -3.6171875 3.91015625 C-2.39736085 2.61995498 -1.19669751 1.31168268 0 0 Z " fill="#9da3b9" transform="translate(80,34)"/>
<path d="M0 0 C0.99 0 1.98 0 3 0 C3 1.65 3 3.3 3 5 C5.475 5.495 5.475 5.495 8 6 C8 8.31 8 10.62 8 13 C7.34 13 6.68 13 6 13 C5.67 11.35 5.34 9.7 5 8 C4.67 8 4.34 8 4 8 C3.67 9.65 3.34 11.3 3 13 C2.01 13.33 1.02 13.66 0 14 C-0.99 15.485 -0.99 15.485 -2 17 C-5.125 17.1875 -5.125 17.1875 -8 17 C-7.67 15.68 -7.34 14.36 -7 13 C-7.66 13 -8.32 13 -9 13 C-9.99 13 -10.98 13 -12 13 C-12 9.37 -12 5.74 -12 2 C-11.01 2 -10.02 2 -9 2 C-8.67 3.32 -8.34 4.64 -8 6 C-7.67 5.67 -7.34 5.34 -7 5 C-4.5 4.875 -4.5 4.875 -2 5 C-1.67 5.33 -1.34 5.66 -1 6 C-0.67 4.02 -0.34 2.04 0 0 Z " fill="#9da3b9" transform="translate(293,53)"/>
<path d="M0 0 C0.99 0.33 1.98 0.66 3 1 C3.02687279 2.81242052 3.04633715 4.62495233 3.0625 6.4375 C3.07410156 7.44683594 3.08570313 8.45617187 3.09765625 9.49609375 C3 12 3 12 2 13 C0.25539933 13.12126232 -1.49365774 13.17963684 -3.2421875 13.2109375 C-4.30824219 13.23929688 -5.37429687 13.26765625 -6.47265625 13.296875 C-8.73291061 13.34877521 -10.99335216 13.3931005 -13.25390625 13.4296875 C-14.32253906 13.460625 -15.39117187 13.4915625 -16.4921875 13.5234375 C-17.96727783 13.5531665 -17.96727783 13.5531665 -19.47216797 13.58349609 C-22.35605712 14.05866655 -23.30209773 14.65650751 -25 17 C-25 17.66 -25 18.32 -25 19 C-26.98 19 -28.96 19 -31 19 C-32.64634286 16.03658286 -33.55681086 13.36823744 -34 10 C-33.67 9.34 -33.34 8.68 -33 8 C-32.01 8 -31.02 8 -30 8 C-30.33 9.65 -30.66 11.3 -31 13 C-29.68 12.67 -28.36 12.34 -27 12 C-27 11.01 -27 10.02 -27 9 C-13.635 9.495 -13.635 9.495 0 10 C0 6.7 0 3.4 0 0 Z " fill="#9da3b9" transform="translate(120,34)"/>
<path d="M0 0 C0.66 0 1.32 0 2 0 C2 3.3 2 6.6 2 10 C2.66 9.67 3.32 9.34 4 9 C4 8.01 4 7.02 4 6 C6.8125 5.375 6.8125 5.375 10 5 C10.99 5.66 11.98 6.32 13 7 C13.33 4.69 13.66 2.38 14 0 C15.98 0 17.96 0 20 0 C20 4.29 20 8.58 20 13 C18.68 13 17.36 13 16 13 C14.79988281 13.01160156 13.59976563 13.02320313 12.36328125 13.03515625 C11.01302168 13.04439556 9.66276123 13.05350682 8.3125 13.0625 C7.62349609 13.07087891 6.93449219 13.07925781 6.22460938 13.08789062 C4.48284756 13.09645386 2.74099139 13.05250276 1 13 C0 12 0 12 -0.09765625 9.27734375 C-0.08605469 8.17519531 -0.07445313 7.07304688 -0.0625 5.9375 C-0.05347656 4.83277344 -0.04445313 3.72804687 -0.03515625 2.58984375 C-0.02355469 1.73519531 -0.01195313 0.88054688 0 0 Z " fill="#9da3b9" transform="translate(124,34)"/>
<path d="M0 0 C0.33 0 0.66 0 1 0 C1.06058594 0.71285156 1.12117188 1.42570312 1.18359375 2.16015625 C1.64808101 7.46960288 2.18075251 12.733409 3 18 C3.66 18 4.32 18 5 18 C5 17.34 5 16.68 5 16 C8.20380017 13.86413322 9.01939967 13.76867825 12.6875 13.875 C13.89986328 13.90207031 13.89986328 13.90207031 15.13671875 13.9296875 C16.05904297 13.96449219 16.05904297 13.96449219 17 14 C17.33 12.02 17.66 10.04 18 8 C18.33 8 18.66 8 19 8 C19.33 9.98 19.66 11.96 20 14 C20.66 13.01 21.32 12.02 22 11 C22.66 11 23.32 11 24 11 C24 11.66 24 12.32 24 13 C24.66 13 25.32 13 26 13 C26 15 26 15 24.0625 17 C23.381875 17.66 22.70125 18.32 22 19 C21.67 19.66 21.34 20.32 21 21 C15.06 21 9.12 21 3 21 C0.28152149 15.56304299 -0.40338803 12.83772948 -0.1875 7.125 C-0.17396484 6.43664063 -0.16042969 5.74828125 -0.14648438 5.0390625 C-0.1114837 3.35902999 -0.05768954 1.6794065 0 0 Z " fill="#9da3b9" transform="translate(21,27)"/>
<path d="M0 0 C0.99 0 1.98 0 3 0 C3 4.29 3 8.58 3 13 C-2.61 13 -8.22 13 -14 13 C-14 9.04 -14 5.08 -14 1 C-11.03 1 -8.06 1 -5 1 C-5 1.66 -5 2.32 -5 3 C-6.98 3 -8.96 3 -11 3 C-10.67 3.66 -10.34 4.32 -10 5 C-7.97536745 5.65213292 -7.97536745 5.65213292 -6 6 C-6 6.66 -6 7.32 -6 8 C-7.65 8 -9.3 8 -11 8 C-11 8.99 -11 9.98 -11 11 C-9.02 11 -7.04 11 -5 11 C-4.67 9.35 -4.34 7.7 -4 6 C-2.68 5.67 -1.36 5.34 0 5 C0 3.35 0 1.7 0 0 Z " fill="#9da3b9" transform="translate(335,53)"/>
<path d="M0 0 C1.65 0 3.3 0 5 0 C5.33 2.97 5.66 5.94 6 9 C13.26 9 20.52 9 28 9 C28 7.68 28 6.36 28 5 C28.99 5 29.98 5 31 5 C31 6.32 31 7.64 31 9 C31.99 9 32.98 9 34 9 C34 7.68 34 6.36 34 5 C34.66 5 35.32 5 36 5 C36 6.98 36 8.96 36 11 C23.79 11 11.58 11 -1 11 C-1.33 9.68 -1.66 8.36 -2 7 C-1.34 6.34 -0.68 5.68 0 5 C0.99 5 1.98 5 3 5 C3 4.34 3 3.68 3 3 C2.01 3 1.02 3 0 3 C0 2.01 0 1.02 0 0 Z " fill="#9da3b9" transform="translate(301,35)"/>
<path d="M0 0 C1.32 0 2.64 0 4 0 C3.67 1.65 3.34 3.3 3 5 C3.69867188 5.19335938 4.39734375 5.38671875 5.1171875 5.5859375 C6.48230469 5.97652344 6.48230469 5.97652344 7.875 6.375 C8.77992187 6.63023438 9.68484375 6.88546875 10.6171875 7.1484375 C13 8 13 8 15 10 C14.625 12.625 14.625 12.625 14 15 C12.35 15.33 10.7 15.66 9 16 C9 14.35 9 12.7 9 11 C6.03 10.01 3.06 9.02 0 8 C-0.33 8.99 -0.66 9.98 -1 11 C-1.99 10.67 -2.98 10.34 -4 10 C-4.35412344 8.67203709 -4.68521554 7.33783393 -5 6 C-6.47890069 4.26973898 -6.47890069 4.26973898 -8 3 C-5.64561267 1.57055055 -4.51967567 0.91338739 -1.75 1.375 C-1.1725 1.58125 -0.595 1.7875 0 2 C0 1.34 0 0.68 0 0 Z " fill="#9da3b9" transform="translate(53,66)"/>
<path d="M0 0 C1.4540625 0.0309375 1.4540625 0.0309375 2.9375 0.0625 C3.2675 1.0525 3.5975 2.0425 3.9375 3.0625 C4.9275 2.7325 5.9175 2.4025 6.9375 2.0625 C7.5975 2.3925 8.2575 2.7225 8.9375 3.0625 C8.9375 2.4025 8.9375 1.7425 8.9375 1.0625 C9.5975 1.0625 10.2575 1.0625 10.9375 1.0625 C10.9375 1.7225 10.9375 2.3825 10.9375 3.0625 C11.494375 2.876875 12.05125 2.69125 12.625 2.5 C15.336633 1.98698835 17.28121039 2.3984276 19.9375 3.0625 C19.9375 3.7225 19.9375 4.3825 19.9375 5.0625 C19.2775 5.0625 18.6175 5.0625 17.9375 5.0625 C17.6075 6.0525 17.2775 7.0425 16.9375 8.0625 C13.9375 8.0625 10.9375 8.0625 7.9375 8.0625 C6.65875 8.289375 5.38 8.51625 4.0625 8.75 C1.18058416 9.11154944 0.1552525 9.16048863 -2.5625 7.9375 C-4.0625 6.0625 -4.0625 6.0625 -4.375 3.4375 C-3.90540739 -0.13140386 -3.70307683 0.075573 0 0 Z " fill="#9da3b9" transform="translate(124.0625,72.9375)"/>
<path d="M0 0 C2.31 0.33 4.62 0.66 7 1 C7 1.66 7 2.32 7 3 C8.19625 2.62875 9.3925 2.2575 10.625 1.875 C14.65393248 0.84267566 17.15330304 1.26898637 21 3 C21 4.65 21 6.3 21 8 C14.07 8 7.14 8 0 8 C-0.92538169 4.29847322 -1.08174162 3.36541838 0 0 Z " fill="#9da3b9" transform="translate(86,73)"/>
<path d="M0 0 C0.99 0 1.98 0 3 0 C3 0.66 3 1.32 3 2 C5.97 2.495 5.97 2.495 9 3 C9 4.65 9 6.3 9 8 C6.36 8.33 3.72 8.66 1 9 C1 9.66 1 10.32 1 11 C-0.32 11 -1.64 11 -3 11 C-3 11.66 -3 12.32 -3 13 C-3.66 13 -4.32 13 -5 13 C-6.19287411 9.12315913 -7 6.08378077 -7 2 C-6.21625 2.04125 -5.4325 2.0825 -4.625 2.125 C-1.83883881 2.28728734 -1.83883881 2.28728734 0 0 Z " fill="#9da3b9" transform="translate(29,32)"/>
<path d="M0 0 C0.66 0 1.32 0 2 0 C2.185625 1.2065625 2.185625 1.2065625 2.375 2.4375 C2.58125 3.283125 2.7875 4.12875 3 5 C3.66 5.33 4.32 5.66 5 6 C5 4.02 5 2.04 5 0 C5.9590625 0.2784375 5.9590625 0.2784375 6.9375 0.5625 C7.9584375 0.7790625 7.9584375 0.7790625 9 1 C9.33 0.67 9.66 0.34 10 0 C14.21571713 -0.28743526 17.18009548 0.20239787 21 2 C21 2.66 21 3.32 21 4 C19.35 4 17.7 4 16 4 C16.33 5.32 16.66 6.64 17 8 C14.35409986 8.02684679 11.70846904 8.04676357 9.0625 8.0625 C7.93038086 8.07506836 7.93038086 8.07506836 6.77539062 8.08789062 C4.85005687 8.09652441 2.92464419 8.05224333 1 8 C0 7 0 7 -0.0625 3.4375 C-0.041875 2.303125 -0.02125 1.16875 0 0 Z " fill="#9da3b9" transform="translate(339,58)"/>
<path d="M0 0 C0.99 0 1.98 0 3 0 C3 4.29 3 8.58 3 13 C-4.26 13.33 -11.52 13.66 -19 14 C-19 14.66 -19 15.32 -19 16 C-20.98 16 -22.96 16 -25 16 C-25 15.34 -25 14.68 -25 14 C-33.25 13.67 -41.5 13.34 -50 13 C-50 12.67 -50 12.34 -50 12 C-32.84 12 -15.68 12 2 12 C1.505 11.01 1.505 11.01 1 10 C0.34 10 -0.32 10 -1 10 C-0.67 8.35 -0.34 6.7 0 5 C-1.98 5 -3.96 5 -6 5 C-6 4.01 -6 3.02 -6 2 C-4.35 2 -2.7 2 -1 2 C-0.67 1.34 -0.34 0.68 0 0 Z " fill="#9da3b9" transform="translate(205,34)"/>
<path d="M0 0 C1.5159375 0.0309375 1.5159375 0.0309375 3.0625 0.0625 C3.7225 0.0625 4.3825 0.0625 5.0625 0.0625 C7.39583333 0.0625 9.72916667 0.0625 12.0625 0.0625 C13.41689668 2.77129335 13.12751451 5.07183268 13.0625 8.0625 C12.0725 8.0625 11.0825 8.0625 10.0625 8.0625 C10.0625 6.4125 10.0625 4.7625 10.0625 3.0625 C9.0725 3.0625 8.0825 3.0625 7.0625 3.0625 C7.0625 4.7125 7.0625 6.3625 7.0625 8.0625 C5.7425 8.0625 4.4225 8.0625 3.0625 8.0625 C1.4846875 8.0934375 1.4846875 8.0934375 -0.125 8.125 C-2.9375 8.0625 -2.9375 8.0625 -3.9375 7.0625 C-4.0625 4.0625 -4.0625 4.0625 -3.9375 1.0625 C-2.9375 0.0625 -2.9375 0.0625 0 0 Z " fill="#9da3b9" transform="translate(221.9375,57.9375)"/>
<path d="M0 0 C0.66 0 1.32 0 2 0 C2.33 1.65 2.66 3.3 3 5 C3.99 5 4.98 5 6 5 C6 6.98 6 8.96 6 11 C6.99 11 7.98 11 9 11 C9 9.35 9 7.7 9 6 C9.33 6 9.66 6 10 6 C10 8.31 10 10.62 10 13 C5 13 0 13 -5 13 C-5.625 10.125 -5.625 10.125 -6 7 C-5.34 6.34 -4.68 5.68 -4 5 C-2.68 5 -1.36 5 0 5 C0 3.35 0 1.7 0 0 Z " fill="#9da3b9" transform="translate(181,53)"/>
<path d="M0 0 C2.31243792 -0.02685412 4.6249627 -0.04632841 6.9375 -0.0625 C8.22527344 -0.07410156 9.51304687 -0.08570313 10.83984375 -0.09765625 C14 0 14 0 15 1 C15.04092937 3.33297433 15.04241723 5.66705225 15 8 C14.34 8 13.68 8 13 8 C12.67 6.35 12.34 4.7 12 3 C11.67 3 11.34 3 11 3 C10.67 4.65 10.34 6.3 10 8 C6.7 8 3.4 8 0 8 C-0.92538169 4.29847322 -1.08174162 3.36541838 0 0 Z " fill="#9da3b9" transform="translate(240,58)"/>
<path d="M0 0 C0.66 0 1.32 0 2 0 C2 0.99 2 1.98 2 3 C3.97536745 2.65213292 3.97536745 2.65213292 6 2 C6.33 1.34 6.66 0.68 7 0 C7.99 0 8.98 0 10 0 C10.33 2.31 10.66 4.62 11 7 C10.26362305 7.02505615 9.52724609 7.0501123 8.76855469 7.07592773 C5.42886622 7.19204273 2.08944903 7.31469918 -1.25 7.4375 C-2.40886719 7.47681641 -3.56773437 7.51613281 -4.76171875 7.55664062 C-5.87675781 7.59853516 -6.99179688 7.64042969 -8.140625 7.68359375 C-9.68024902 7.73858032 -9.68024902 7.73858032 -11.25097656 7.79467773 C-13.63610887 7.97282128 -15.71299499 8.32777363 -18 9 C-17.67 8.38125 -17.34 7.7625 -17 7.125 C-15.85806765 5.08981656 -15.85806765 5.08981656 -16 3 C-15.01 3.33 -14.02 3.66 -13 4 C-10.77425665 4.22451458 -8.54418481 4.40782878 -6.3125 4.5625 C-4.54326172 4.68818359 -4.54326172 4.68818359 -2.73828125 4.81640625 C-1.38283203 4.90728516 -1.38283203 4.90728516 0 5 C0 3.35 0 1.7 0 0 Z " fill="#9da3b9" transform="translate(169,73)"/>
<path d="M0 0 C1.32 0 2.64 0 4 0 C3 3 3 3 1 5 C1.99 5 2.98 5 4 5 C4 5.66 4 6.32 4 7 C3.01 7 2.02 7 1 7 C1 8.98 1 10.96 1 13 C0.34 13 -0.32 13 -1 13 C-1.33 11.35 -1.66 9.7 -2 8 C-2.66 9.65 -3.32 11.3 -4 13 C-5.99954746 13.04254356 -8.00041636 13.04080783 -10 13 C-11 12 -11 12 -11.1875 9.5625 C-11 7 -11 7 -9 5 C-6.31160615 4.73008094 -3.70858064 4.91262643 -1 5 C-0.67 3.35 -0.34 1.7 0 0 Z " fill="#9da3b9" transform="translate(158,53)"/>
<path d="M0 0 C0.66 0 1.32 0 2 0 C2 0.66 2 1.32 2 2 C2.57105469 2.24234375 3.14210938 2.4846875 3.73046875 2.734375 C6.42354348 4.23619292 8.18139624 6.02426463 10.3125 8.25 C13.09411201 11.11896842 15.86807038 13.77028665 19 16.25 C21.38801716 18.22438832 21.93792502 18.80963673 22.9375 21.875 C22.958125 22.57625 22.97875 23.2775 23 24 C20.50638429 22.79618552 18.31856917 21.54571278 16 20 C16 19.34 16 18.68 16 18 C15.42765625 17.7525 14.8553125 17.505 14.265625 17.25 C11.64989389 15.80683801 9.85226544 14.11783778 7.75 12 C7.04359375 11.29875 6.3371875 10.5975 5.609375 9.875 C4 8 4 8 4 6 C3.34 6 2.68 6 2 6 C1.34 4.02 0.68 2.04 0 0 Z " fill="#9da3b9" transform="translate(6,34)"/>
<path d="M0 0 C0.99 0 1.98 0 3 0 C3.33 1.65 3.66 3.3 4 5 C8.29 5 12.58 5 17 5 C17 3.35 17 1.7 17 0 C17.33 0.99 17.66 1.98 18 3 C20.39719432 3.67958603 20.39719432 3.67958603 23 4 C23.66 3.34 24.32 2.68 25 2 C25.66 2.33 26.32 2.66 27 3 C27 4.32 27 5.64 27 7 C24.09399739 8.25664978 22.20395416 9 19 9 C18.67 8.34 18.34 7.68 18 7 C11.73 7 5.46 7 -1 7 C-0.67 4.69 -0.34 2.38 0 0 Z " fill="#9da3b9" transform="translate(183,73)"/>
<path d="M0 0 C0.99 0.33 1.98 0.66 3 1 C3.33 2.98 3.66 4.96 4 7 C4.78375 6.79375 5.5675 6.5875 6.375 6.375 C7.674375 6.189375 7.674375 6.189375 9 6 C11 8 11 8 11.4375 10.375 C11 13 11 13 8.625 15.3125 C6 17 6 17 4 17 C4.33 15.68 4.66 14.36 5 13 C3.35 13 1.7 13 0 13 C0 8.71 0 4.42 0 0 Z " fill="#9da3b9" transform="translate(209,34)"/>
<path d="M0 0 C0.99 0 1.98 0 3 0 C3 0.66 3 1.32 3 2 C3.99 1.34 4.98 0.68 6 0 C8.6875 0.375 8.6875 0.375 11 1 C11.25 4.3125 11.25 4.3125 11 8 C9.1875 10 9.1875 10 7 11 C6.01 10.67 5.02 10.34 4 10 C4 9.34 4 8.68 4 8 C3.01 8.66 2.02 9.32 1 10 C-0.32 10 -1.64 10 -3 10 C-2.67 9.01 -2.34 8.02 -2 7 C-1.34 6.67 -0.68 6.34 0 6 C0 4.02 0 2.04 0 0 Z " fill="#9da3b9" transform="translate(378,40)"/>
<path d="M0 0 C0.66 0.99 1.32 1.98 2 3 C4.31753588 3.50843062 4.31753588 3.50843062 7.0078125 3.51171875 C7.99394531 3.54716797 8.98007813 3.58261719 9.99609375 3.61914062 C11.54490234 3.65297852 11.54490234 3.65297852 13.125 3.6875 C14.68541016 3.73874023 14.68541016 3.73874023 16.27734375 3.79101562 C18.85145507 3.87367058 21.42521829 3.94276155 24 4 C24 4.33 24 4.66 24 5 C22.94872925 4.99214478 22.94872925 4.99214478 21.8762207 4.98413086 C18.68832299 4.96329148 15.50043964 4.95031768 12.3125 4.9375 C10.65831055 4.92493164 10.65831055 4.92493164 8.97070312 4.91210938 C7.90400391 4.90888672 6.83730469 4.90566406 5.73828125 4.90234375 C4.75899658 4.89710693 3.77971191 4.89187012 2.77075195 4.88647461 C0.07385412 4.99697399 -2.37113041 5.41085597 -5 6 C-5.33 6 -5.66 6 -6 6 C-5.67 7.98 -5.34 9.96 -5 12 C-5.99 12.33 -6.98 12.66 -8 13 C-8.41694996 11.40119187 -8.80790856 9.79558739 -9.1875 8.1875 C-9.40792969 7.29417969 -9.62835938 6.40085937 -9.85546875 5.48046875 C-10 3 -10 3 -8.7734375 1.19921875 C-5.87966382 -0.75758415 -3.37313344 -0.36797819 0 0 Z " fill="#9da3b9" transform="translate(158,40)"/>
<path d="M0 0 C1.79244141 0.01740234 1.79244141 0.01740234 3.62109375 0.03515625 C5.41740234 0.04869141 5.41740234 0.04869141 7.25 0.0625 C8.17683594 0.07410156 9.10367187 0.08570313 10.05859375 0.09765625 C10.05859375 1.08765625 10.05859375 2.07765625 10.05859375 3.09765625 C9.06859375 3.09765625 8.07859375 3.09765625 7.05859375 3.09765625 C7.05859375 4.74765625 7.05859375 6.39765625 7.05859375 8.09765625 C5.41284809 8.12453776 3.76697962 8.14399748 2.12109375 8.16015625 C1.20457031 8.17175781 0.28804688 8.18335937 -0.65625 8.1953125 C-2.94140625 8.09765625 -2.94140625 8.09765625 -3.94140625 7.09765625 C-4.06640625 4.09765625 -4.06640625 4.09765625 -3.94140625 1.09765625 C-2.94140625 0.09765625 -2.94140625 0.09765625 0 0 Z " fill="#9da3b9" transform="translate(305.94140625,57.90234375)"/>
<path d="M0 0 C0.99 0 1.98 0 3 0 C4.6875 2 4.6875 2 6 4 C6.6496875 3.01 6.6496875 3.01 7.3125 2 C7.869375 1.34 8.42625 0.68 9 0 C9.99 0 10.98 0 12 0 C12 3.96 12 7.92 12 12 C11.34 12 10.68 12 10 12 C9.67 10.35 9.34 8.7 9 7 C8.34 7.66 7.68 8.32 7 9 C6.01 9 5.02 9 4 9 C3.67 8.34 3.34 7.68 3 7 C2.67 8.65 2.34 10.3 2 12 C1.34 12 0.68 12 0 12 C0 8.04 0 4.08 0 0 Z " fill="#9da3b9" transform="translate(86,54)"/>
<path d="M0 0 C0.99 0.33 1.98 0.66 3 1 C3.6875 3.0625 3.6875 3.0625 4 5 C4.66 5 5.32 5 6 5 C5.34 6.98 4.68 8.96 4 11 C2.68 10.67 1.36 10.34 0 10 C-0.99 11.32 -1.98 12.64 -3 14 C-3 11.69 -3 9.38 -3 7 C-4.32 7 -5.64 7 -7 7 C-7 5.02 -7 3.04 -7 1 C-6.34 1 -5.68 1 -5 1 C-5 1.66 -5 2.32 -5 3 C-3.02463255 2.65213292 -3.02463255 2.65213292 -1 2 C-0.67 1.34 -0.34 0.68 0 0 Z " fill="#9da3b9" transform="translate(65,27)"/>
<path d="M0 0 C0.99 0.33 1.98 0.66 3 1 C3.02687279 2.81242052 3.04633715 4.62495233 3.0625 6.4375 C3.07410156 7.44683594 3.08570312 8.45617187 3.09765625 9.49609375 C3 12 3 12 2 13 C0.14825294 13.15786308 -1.7090911 13.25107356 -3.56640625 13.31640625 C-4.69111328 13.35830078 -5.81582031 13.40019531 -6.97460938 13.44335938 C-8.75061523 13.50233398 -8.75061523 13.50233398 -10.5625 13.5625 C-11.75037109 13.60568359 -12.93824219 13.64886719 -14.16210938 13.69335938 C-17.10794784 13.79983546 -20.0538743 13.90184841 -23 14 C-23.33 12.68 -23.66 11.36 -24 10 C-16.08 10 -8.16 10 0 10 C0 6.7 0 3.4 0 0 Z " fill="#9da3b9" transform="translate(120,34)"/>
<path d="M0 0 C0.99 0 1.98 0 3 0 C3 1.65 3 3.3 3 5 C4.65 5 6.3 5 8 5 C8 3.35 8 1.7 8 0 C8.99 0 9.98 0 11 0 C11 3.96 11 7.92 11 12 C10.01 12 9.02 12 8 12 C8 10.35 8 8.7 8 7 C6.35 7 4.7 7 3 7 C3 8.65 3 10.3 3 12 C2.01 12 1.02 12 0 12 C0 8.04 0 4.08 0 0 Z " fill="#9da3b9" transform="translate(269,54)"/>
<path d="M0 0 C0.66 0 1.32 0 2 0 C2 0.66 2 1.32 2 2 C2.66 2 3.32 2 4 2 C4 4 4 4 2.0625 6 C1.381875 6.66 0.70125 7.32 0 8 C-0.33 8.66 -0.66 9.32 -1 10 C-6.28 10 -11.56 10 -17 10 C-17 9.34 -17 8.68 -17 8 C-16.19175781 7.84144531 -15.38351563 7.68289062 -14.55078125 7.51953125 C-8.11837315 6.11510922 -4.17428508 5.14828493 0 0 Z " fill="#9da3b9" transform="translate(43,38)"/>
<path d="M0 0 C0.99 0 1.98 0 3 0 C3.185625 1.1446875 3.185625 1.1446875 3.375 2.3125 C3.88102792 5.20267136 3.88102792 5.20267136 6 8 C6.99 8 7.98 8 9 8 C9.66 7.34 10.32 6.68 11 6 C11.09765625 12.15234375 11.09765625 12.15234375 11 14 C10 15 10 15 6.9375 15.0625 C5.968125 15.041875 4.99875 15.02125 4 15 C4.33 13.68 4.66 12.36 5 11 C4.34 11 3.68 11 3 11 C2.01 11 1.02 11 0 11 C0 7.37 0 3.74 0 0 Z " fill="#9da3b9" transform="translate(281,55)"/>
<path d="M0 0 C0.99 0 1.98 0 3 0 C3 4.29 3 8.58 3 13 C0.66705225 13.04241723 -1.66702567 13.04092937 -4 13 C-5 12 -5 12 -5.0625 8.9375 C-5.041875 7.968125 -5.02125 6.99875 -5 6 C-3.35 5.67 -1.7 5.34 0 5 C0 3.35 0 1.7 0 0 Z " fill="#9da3b9" transform="translate(261,53)"/>
<path d="M0 0 C0.66 0 1.32 0 2 0 C2 0.99 2 1.98 2 3 C2.66 3.33 3.32 3.66 4 4 C3.34 4 2.68 4 2 4 C2.66 5.98 3.32 7.96 4 10 C2.68 10 1.36 10 0 10 C-0.33 8.68 -0.66 7.36 -1 6 C-1.33 7.32 -1.66 8.64 -2 10 C-3.98 10 -5.96 10 -8 10 C-8.33 8.68 -8.66 7.36 -9 6 C-7.35 6 -5.7 6 -4 6 C-4 5.34 -4 4.68 -4 4 C-5.32 4 -6.64 4 -8 4 C-8 3.34 -8 2.68 -8 2 C-5.69 2 -3.38 2 -1 2 C-0.67 1.34 -0.34 0.68 0 0 Z " fill="#9da3b9" transform="translate(364,56)"/>
<path d="M0 0 C2.97 0 5.94 0 9 0 C9 0.66 9 1.32 9 2 C7.02 2 5.04 2 3 2 C3 2.99 3 3.98 3 5 C4.65 5 6.3 5 8 5 C8 5.66 8 6.32 8 7 C6.35 7 4.7 7 3 7 C3 7.99 3 8.98 3 10 C4.98 10 6.96 10 9 10 C9 10.66 9 11.32 9 12 C6.03 12 3.06 12 0 12 C0 8.04 0 4.08 0 0 Z " fill="#9da3b9" transform="translate(166,54)"/>
<path d="M0 0 C17.49 0 34.98 0 53 0 C53 0.33 53 0.66 53 1 C45.74 1 38.48 1 31 1 C31 1.99 31 2.98 31 4 C29.35 4 27.7 4 26 4 C26 3.01 26 2.02 26 1 C17.42 1 8.84 1 0 1 C0 0.67 0 0.34 0 0 Z " fill="#9da3b9" transform="translate(230,46)"/>
<path d="M0 0 C2.475 0.495 2.475 0.495 5 1 C5 1.66 5 2.32 5 3 C4.34 3 3.68 3 3 3 C3.33 3.66 3.66 4.32 4 5 C4.99 5.33 5.98 5.66 7 6 C7 6.66 7 7.32 7 8 C9.31 8 11.62 8 14 8 C14 14.93 14 21.86 14 29 C12.68 28.67 11.36 28.34 10 28 C10.99 28 11.98 28 13 28 C13 22.06 13 16.12 13 10 C10.36 10.33 7.72 10.66 5 11 C5 10.01 5 9.02 5 8 C3.68 7.67 2.36 7.34 1 7 C0.67 4.69 0.34 2.38 0 0 Z " fill="#9da3b9" transform="translate(39,18)"/>
<path d="M0 0 C0.66 0 1.32 0 2 0 C2.19658808 1.41543415 2.38187546 2.83244031 2.5625 4.25 C2.66691406 5.03890625 2.77132813 5.8278125 2.87890625 6.640625 C3.00027349 9.00532874 2.69633257 10.7511037 2 13 C1.443125 13.103125 0.88625 13.20625 0.3125 13.3125 C-2.44176578 14.13133577 -4.58727657 15.45853781 -7 17 C-7.33 16.01 -7.66 15.02 -8 14 C-7.34 13.4225 -6.68 12.845 -6 12.25 C-3.55709077 10.00346023 -3.55709077 10.00346023 -4 6 C-3.01 6.33 -2.02 6.66 -1 7 C-0.67 4.69 -0.34 2.38 0 0 Z " fill="#9da3b9" transform="translate(374,34)"/>
<path d="M0 0 C9.24 0 18.48 0 28 0 C27.01 1.485 27.01 1.485 26 3 C23.3828125 3.2578125 23.3828125 3.2578125 20.125 3.125 C13.67809308 2.96688188 7.41138031 3.35308595 1 4 C0.67 2.68 0.34 1.36 0 0 Z " fill="#9da3b9" transform="translate(30,53)"/>
<path d="M0 0 C1.65 0 3.3 0 5 0 C5.33 3.3 5.66 6.6 6 10 C4.0085944 10.38133299 2.00720923 10.71325582 0 11 C-1 10 -1 10 -1.1328125 7.96875 C-1.13023437 7.1540625 -1.12765625 6.339375 -1.125 5.5 C-1.12757813 4.6853125 -1.13015625 3.870625 -1.1328125 3.03125 C-1 1 -1 1 0 0 Z " fill="#9da3b9" transform="translate(362,36)"/>
<path d="M0 0 C1.65 0 3.3 0 5 0 C6 1 6 1 6.09765625 3.72265625 C6.04882812 8.36132812 6.04882812 8.36132812 6 13 C1.05 13 -3.9 13 -9 13 C-9 12.67 -9 12.34 -9 12 C-5.7 12 -2.4 12 1 12 C0.67 8.04 0.34 4.08 0 0 Z " fill="#9da3b9" transform="translate(351,34)"/>
<path d="M0 0 C1.32 0 2.64 0 4 0 C3.67 1.65 3.34 3.3 3 5 C1.68 5 0.36 5 -1 5 C-1 5.66 -1 6.32 -1 7 C-0.34 7.33 0.32 7.66 1 8 C0.01 9.485 0.01 9.485 -1 11 C-1.99 10.67 -2.98 10.34 -4 10 C-4.35412344 8.67203709 -4.68521554 7.33783393 -5 6 C-6.47890069 4.26973898 -6.47890069 4.26973898 -8 3 C-5.64561267 1.57055055 -4.51967567 0.91338739 -1.75 1.375 C-1.1725 1.58125 -0.595 1.7875 0 2 C0 1.34 0 0.68 0 0 Z " fill="#9da3b9" transform="translate(53,66)"/>
<path d="M0 0 C0.66 0 1.32 0 2 0 C2.33 1.65 2.66 3.3 3 5 C3.33 5 3.66 5 4 5 C4.33 3.35 4.66 1.7 5 0 C5.66 0 6.32 0 7 0 C7 3.63 7 7.26 7 11 C4.69 11.33 2.38 11.66 0 12 C0 8.04 0 4.08 0 0 Z " fill="#9da3b9" transform="translate(135,58)"/>
<path d="M0 0 C0 1.65 0 3.3 0 5 C-4.16138263 5.08159574 -7.9472484 4.98248524 -12 4 C-11.67 2.35 -11.34 0.7 -11 -1 C-6.99799622 -2.60080151 -3.95443764 -1.29279692 0 0 Z " fill="#9da3b9" transform="translate(107,76)"/>
<path d="M0 0 C0.99 0 1.98 0 3 0 C3 1.32 3 2.64 3 4 C3.99 4 4.98 4 6 4 C6 2.68 6 1.36 6 0 C6.66 0 7.32 0 8 0 C8 1.98 8 3.96 8 6 C-2.23 6 -12.46 6 -23 6 C-23 5.67 -23 5.34 -23 5 C-15.41 5 -7.82 5 0 5 C0 3.35 0 1.7 0 0 Z " fill="#9da3b9" transform="translate(329,40)"/>
<path d="M0 0 C0.99 0.33 1.98 0.66 3 1 C3 4.3 3 7.6 3 11 C1.02 11 -0.96 11 -3 11 C-3.08096803 9.54257537 -3.13917774 8.08387193 -3.1875 6.625 C-3.22230469 5.81289063 -3.25710937 5.00078125 -3.29296875 4.1640625 C-3.19628906 3.44992188 -3.09960938 2.73578125 -3 2 C-2.01 1.34 -1.02 0.68 0 0 Z " fill="#9da3b9" transform="translate(58,35)"/>
<path d="M0 0 C1.4540625 0.0309375 1.4540625 0.0309375 2.9375 0.0625 C2.6075 0.7225 2.2775 1.3825 1.9375 2.0625 C2.53492124 4.68130754 2.53492124 4.68130754 3.9375 7.0625 C5.97855639 7.94943303 5.97855639 7.94943303 7.9375 8.0625 C0.67434211 9.39407895 0.67434211 9.39407895 -2.5625 7.9375 C-4.0625 6.0625 -4.0625 6.0625 -4.375 3.4375 C-3.90540739 -0.13140386 -3.70307683 0.075573 0 0 Z " fill="#9da3b9" transform="translate(124.0625,72.9375)"/>
<path d="M0 0 C2.97 0.495 2.97 0.495 6 1 C3.6875 3.5 3.6875 3.5 1 6 C-1.49895205 6 -3.95535356 5.9151488 -6.44921875 5.78125 C-7.29677734 5.73613281 -8.14433594 5.69101562 -9.01757812 5.64453125 C-9.89865234 5.59683594 -10.77972656 5.54914062 -11.6875 5.5 C-12.58017578 5.45230469 -13.47285156 5.40460937 -14.39257812 5.35546875 C-16.59509104 5.23768731 -18.79756189 5.11917063 -21 5 C-19.68 4.67 -18.36 4.34 -17 4 C-17 3.34 -17 2.68 -17 2 C-11.06 2 -5.12 2 1 2 C0.67 1.34 0.34 0.68 0 0 Z " fill="#9da3b9" transform="translate(63,45)"/>
<path d="M0 0 C4.70588235 0.70588235 4.70588235 0.70588235 6 2 C5.71269945 4.33944736 5.38063221 6.6739143 5 9 C3.35 9.66 1.7 10.32 0 11 C-0.33 10.01 -0.66 9.02 -1 8 C-0.34 8 0.32 8 1 8 C1 7.34 1 6.68 1 6 C0.34 6 -0.32 6 -1 6 C-1.042721 4.33388095 -1.04063832 2.66617115 -1 1 C-0.67 0.67 -0.34 0.34 0 0 Z " fill="#9da3b9" transform="translate(289,40)"/>
<path d="M0 0 C0.33 0 0.66 0 1 0 C1 3.63 1 7.26 1 11 C-5.625 11.25 -5.625 11.25 -9 9 C-11.11280345 8.36707617 -11.11280345 8.36707617 -13 8 C-13 6.68 -13 5.36 -13 4 C-8.25 4.75 -8.25 4.75 -6 7 C-5.67 6.34 -5.34 5.68 -5 5 C-4.34 5 -3.68 5 -3 5 C-3 6.32 -3 7.64 -3 9 C-2.01 9 -1.02 9 0 9 C0 6.03 0 3.06 0 0 Z " fill="#9da3b9" transform="translate(206,35)"/>
<path d="M0 0 C0.33 0.66 0.66 1.32 1 2 C3.97 2 6.94 2 10 2 C9.67 2.99 9.34 3.98 9 5 C8.01 5 7.02 5 6 5 C6 6.65 6 8.3 6 10 C4.35 9.67 2.7 9.34 1 9 C0.29925156 5.846632 0 3.27275026 0 0 Z " fill="#9da3b9" transform="translate(125,56)"/>
<path d="M0 0 C0.99 0 1.98 0 3 0 C3.19491452 1.45736087 3.38069358 2.91594593 3.5625 4.375 C3.66691406 5.18710937 3.77132813 5.99921875 3.87890625 6.8359375 C4 9 4 9 3 11 C1.35 10.67 -0.3 10.34 -2 10 C-3 5.25 -3 5.25 -3 3 C-2.01 2.67 -1.02 2.34 0 2 C0 1.34 0 0.68 0 0 Z " fill="#9da3b9" transform="translate(369,55)"/>
<path d="M0 0 C2.33294775 -0.04241723 4.66702567 -0.04092937 7 0 C8 1 8 1 8.0625 4.5625 C8.041875 5.696875 8.02125 6.83125 8 8 C7.01 8 6.02 8 5 8 C5 6.35 5 4.7 5 3 C4.34 3 3.68 3 3 3 C3 4.65 3 6.3 3 8 C2.01 8 1.02 8 0 8 C0 5.36 0 2.72 0 0 Z " fill="#9da3b9" transform="translate(103,58)"/>
<path d="M0 0 C0.99 0 1.98 0 3 0 C3 4.29 3 8.58 3 13 C0.69 13 -1.62 13 -4 13 C-4 11.35 -4 9.7 -4 8 C-3.67 8.99 -3.34 9.98 -3 11 C-1.68 11 -0.36 11 1 11 C1 9.68 1 8.36 1 7 C-0.32 7 -1.64 7 -3 7 C-3 6.34 -3 5.68 -3 5 C-2.01 5 -1.02 5 0 5 C0 3.35 0 1.7 0 0 Z " fill="#9da3b9" transform="translate(335,53)"/>
<path d="M0 0 C0.33 0.99 0.66 1.98 1 3 C1.99 3.33 2.98 3.66 4 4 C5.6875 7.0625 5.6875 7.0625 7 10 C6.01 10.495 6.01 10.495 5 11 C4.67 9.68 4.34 8.36 4 7 C3.13375 7.495 3.13375 7.495 2.25 8 C0 9 0 9 -4 9 C-4 8.34 -4 7.68 -4 7 C-4.66 7 -5.32 7 -6 7 C-6 5.68 -6 4.36 -6 3 C-5.34 3 -4.68 3 -4 3 C-4 3.66 -4 4.32 -4 5 C-3.01 4.67 -2.02 4.34 -1 4 C-0.26676204 1.98491642 -0.26676204 1.98491642 0 0 Z " fill="#9da3b9" transform="translate(64,21)"/>
<path d="M0 0 C1.32 0.33 2.64 0.66 4 1 C3.34 3.31 2.68 5.62 2 8 C-0.31 8 -2.62 8 -5 8 C-5.33 6.68 -5.66 5.36 -6 4 C-4.125 2.9375 -4.125 2.9375 -2 2 C-1.34 2.33 -0.68 2.66 0 3 C0 2.01 0 1.02 0 0 Z " fill="#9da3b9" transform="translate(115,73)"/>
<path d="M0 0 C10.23 0 20.46 0 31 0 C30.67 0.66 30.34 1.32 30 2 C29.34 2 28.68 2 28 2 C27.67 2.66 27.34 3.32 27 4 C25.35 4 23.7 4 22 4 C22 3.01 22 2.02 22 1 C14.74 1 7.48 1 0 1 C0 0.67 0 0.34 0 0 Z " fill="#9da3b9" transform="translate(306,46)"/>
<path d="M0 0 C0.33 0 0.66 0 1 0 C1 5.94 1 11.88 1 18 C3.64 18 6.28 18 9 18 C9.33 17.34 9.66 16.68 10 16 C10.66 17.32 11.32 18.64 12 20 C6.39 20 0.78 20 -5 20 C-5 19.67 -5 19.34 -5 19 C-3.35 19 -1.7 19 0 19 C0 12.73 0 6.46 0 0 Z " fill="#9da3b9" transform="translate(53,28)"/>
<path d="M0 0 C0.66 0 1.32 0 2 0 C2 1.32 2 2.64 2 4 C3.65 4.33 5.3 4.66 7 5 C7 7.31 7 9.62 7 12 C6.34 12 5.68 12 5 12 C4.67 10.35 4.34 8.7 4 7 C3.67 7 3.34 7 3 7 C2.67 8.65 2.34 10.3 2 12 C1.34 12 0.68 12 0 12 C0 8.04 0 4.08 0 0 Z " fill="#9da3b9" transform="translate(294,54)"/>
<path d="M0 0 C1.32 0 2.64 0 4 0 C4.33 0.66 4.66 1.32 5 2 C6.65 1.34 8.3 0.68 10 0 C10.66 1.32 11.32 2.64 12 4 C10.35 4.66 8.7 5.32 7 6 C7 5.34 7 4.68 7 4 C6.443125 4.33 5.88625 4.66 5.3125 5 C2.69715478 6.1309601 0.8193354 6.15662974 -2 6 C-1.01 5.67 -0.02 5.34 1 5 C0.67 3.35 0.34 1.7 0 0 Z " fill="#9da3b9" transform="translate(31,66)"/>
<path d="M0 0 C0.99 0.33 1.98 0.66 3 1 C4.84466442 1.14889747 6.69357275 1.2479101 8.54296875 1.31640625 C10.15268555 1.37924805 10.15268555 1.37924805 11.79492188 1.44335938 C12.91447266 1.48267578 14.03402344 1.52199219 15.1875 1.5625 C16.31865234 1.60568359 17.44980469 1.64886719 18.61523438 1.69335938 C21.41003354 1.79949099 24.20492162 1.90154385 27 2 C27 2.33 27 2.66 27 3 C19.41 3 11.82 3 4 3 C4 3.99 4 4.98 4 6 C1.69 6 -0.62 6 -3 6 C-1.68 5.34 -0.36 4.68 1 4 C0.34 3.01 -0.32 2.02 -1 1 C-0.67 0.67 -0.34 0.34 0 0 Z " fill="#9da3b9" transform="translate(93,43)"/>
<path d="M0 0 C4.875 1.75 4.875 1.75 6 4 C4.35 4.33 2.7 4.66 1 5 C1.33 7.31 1.66 9.62 2 12 C1.01 12.33 0.02 12.66 -1 13 C-1.41694996 11.40119187 -1.80790856 9.79558739 -2.1875 8.1875 C-2.40792969 7.29417969 -2.62835938 6.40085937 -2.85546875 5.48046875 C-3 3 -3 3 -1.55078125 1.17578125 C-1.03902344 0.78777344 -0.52726563 0.39976563 0 0 Z " fill="#9da3b9" transform="translate(151,40)"/>
<path d="M0 0 C0.99 0 1.98 0 3 0 C3.33 1.65 3.66 3.3 4 5 C8.29 5 12.58 5 17 5 C17 5.33 17 5.66 17 6 C11.06 6.33 5.12 6.66 -1 7 C-0.67 4.69 -0.34 2.38 0 0 Z " fill="#9da3b9" transform="translate(183,73)"/>
<path d="M0 0 C0.99 0.33 1.98 0.66 3 1 C5.22574335 1.22451458 7.45581519 1.40782878 9.6875 1.5625 C10.86699219 1.64628906 12.04648438 1.73007813 13.26171875 1.81640625 C14.61716797 1.90728516 14.61716797 1.90728516 16 2 C16 2.66 16 3.32 16 4 C15.03578125 4.06058594 14.0715625 4.12117188 13.078125 4.18359375 C11.81484375 4.26738281 10.5515625 4.35117188 9.25 4.4375 C7.99703125 4.51871094 6.7440625 4.59992188 5.453125 4.68359375 C2.81682447 4.92515522 0.51962706 5.24283934 -2 6 C-1.67 5.38125 -1.34 4.7625 -1 4.125 C0.14193235 2.08981656 0.14193235 2.08981656 0 0 Z " fill="#9da3b9" transform="translate(153,76)"/>
<path d="M0 0 C4.21878192 -0.19622241 7.17010894 0.19769832 11 2 C11 2.66 11 3.32 11 4 C9.35 4 7.7 4 6 4 C6.33 5.32 6.66 6.64 7 8 C6.34 8 5.68 8 5 8 C5 7.34 5 6.68 5 6 C3.68 6 2.36 6 1 6 C0.67 4.02 0.34 2.04 0 0 Z " fill="#9da3b9" transform="translate(349,58)"/>
<path d="M0 0 C1.32 0 2.64 0 4 0 C3 3 3 3 1 5 C1.99 5 2.98 5 4 5 C4 5.66 4 6.32 4 7 C3.01 7 2.02 7 1 7 C1 8.98 1 10.96 1 13 C0.34 13 -0.32 13 -1 13 C-2.0070238 7.96488101 -1.97387813 4.76052962 0 0 Z " fill="#9da3b9" transform="translate(158,53)"/>
<path d="M0 0 C0.99 0 1.98 0 3 0 C3 0.66 3 1.32 3 2 C3.66 2 4.32 2 5 2 C4.63487253 4.7019433 4.30130763 6.58390852 2.6875 8.8125 C1 10 1 10 -3 10 C-2.67 9.01 -2.34 8.02 -2 7 C-1.34 6.67 -0.68 6.34 0 6 C0 4.02 0 2.04 0 0 Z " fill="#9da3b9" transform="translate(378,40)"/>
<path d="M0 0 C1.4540625 0.0309375 1.4540625 0.0309375 2.9375 0.0625 C2.6075 2.0425 2.2775 4.0225 1.9375 6.0625 C-0.0425 6.3925 -2.0225 6.7225 -4.0625 7.0625 C-4.10504356 5.06295254 -4.10330783 3.06208364 -4.0625 1.0625 C-3.0625 0.0625 -3.0625 0.0625 0 0 Z " fill="#9da3b9" transform="translate(222.0625,57.9375)"/>
<path d="M0 0 C1.49076829 0.87639106 2.96733869 1.77696328 4.4375 2.6875 C5.67306641 3.43580078 5.67306641 3.43580078 6.93359375 4.19921875 C9.43719323 6.38099448 9.69593558 7.75480334 10 11 C2.09768638 6.8251928 2.09768638 6.8251928 0 3 C0 2.01 0 1.02 0 0 Z " fill="#9da3b9" transform="translate(28,54)"/>
<path d="M0 0 C0.99 0 1.98 0 3 0 C3 4.29 3 8.58 3 13 C2.01 13 1.02 13 0 13 C-1.29676812 8.38926889 -0.71109139 4.66159911 0 0 Z " fill="#9da3b9" transform="translate(284,34)"/>
<path d="M0 0 C0.99 0 1.98 0 3 0 C3 0.66 3 1.32 3 2 C3.66 2 4.32 2 5 2 C5 2.66 5 3.32 5 4 C4.34 4 3.68 4 3 4 C3 5.32 3 6.64 3 8 C3.66 8 4.32 8 5 8 C5 8.66 5 9.32 5 10 C3.35 9.67 1.7 9.34 0 9 C-1.125 2.25 -1.125 2.25 0 0 Z " fill="#9da3b9" transform="translate(209,56)"/>
<path d="M0 0 C6.75 1.75 6.75 1.75 9 4 C8.625 6.625 8.625 6.625 8 9 C6.35 9.33 4.7 9.66 3 10 C3 8.35 3 6.7 3 5 C3.33 5.99 3.66 6.98 4 8 C4.99 8 5.98 8 7 8 C7 7.34 7 6.68 7 6 C6.34 5.67 5.68 5.34 5 5 C4.01 4.34 3.02 3.68 2 3 C1.34 2.67 0.68 2.34 0 2 C0 1.34 0 0.68 0 0 Z " fill="#9da3b9" transform="translate(59,72)"/>
<path d="M0 0 C6.52307692 1.47692308 6.52307692 1.47692308 8.9375 4.125 C9.288125 4.74375 9.63875 5.3625 10 6 C9 7 9 7 6.4375 7.0625 C5.2309375 7.0315625 5.2309375 7.0315625 4 7 C3.67 6.01 3.34 5.02 3 4 C2.01 4 1.02 4 0 4 C0 2.68 0 1.36 0 0 Z " fill="#9da3b9" transform="translate(38,62)"/>
<path d="M0 0 C1.66611905 -0.042721 3.33382885 -0.04063832 5 0 C6 1 6 1 6.0625 4.0625 C6.041875 5.031875 6.02125 6.00125 6 7 C4.02 7 2.04 7 0 7 C-0.33 5.68 -0.66 4.36 -1 3 C0.65 3 2.3 3 4 3 C4 2.34 4 1.68 4 1 C2.68 0.67 1.36 0.34 0 0 Z " fill="#9da3b9" transform="translate(356,59)"/>
<path d="M0 0 C1.99954746 -0.04254356 4.00041636 -0.04080783 6 0 C7 1 7 1 7.0625 4.5625 C7.041875 5.696875 7.02125 6.83125 7 8 C6.34 7.34 5.68 6.68 5 6 C2.93125966 5.3574765 2.93125966 5.3574765 1 5 C0.67 3.35 0.34 1.7 0 0 Z " fill="#9da3b9" transform="translate(201,58)"/>
<path d="M0 0 C0.99 0 1.98 0 3 0 C3.19491452 1.45736087 3.38069358 2.91594593 3.5625 4.375 C3.66691406 5.18710937 3.77132813 5.99921875 3.87890625 6.8359375 C4 9 4 9 3 11 C2.01 11 1.02 11 0 11 C0 7.37 0 3.74 0 0 Z " fill="#9da3b9" transform="translate(281,55)"/>
<path d="M0 0 C0.66 0 1.32 0 2 0 C2 0.66 2 1.32 2 2 C2.5775 2.226875 3.155 2.45375 3.75 2.6875 C6.5663661 4.33038023 8.08077114 6.39533227 10 9 C8.68 9.33 7.36 9.66 6 10 C5.34 8.68 4.68 7.36 4 6 C3.34 6 2.68 6 2 6 C1.34 4.02 0.68 2.04 0 0 Z " fill="#9da3b9" transform="translate(6,34)"/>
<path d="M0 0 C2.31 0 4.62 0 7 0 C7 2.31 7 4.62 7 7 C6.34 7 5.68 7 5 7 C5 5.35 5 3.7 5 2 C4.01 2 3.02 2 2 2 C2 3.65 2 5.3 2 7 C1.34 7 0.68 7 0 7 C0 4.69 0 2.38 0 0 Z " fill="#9da3b9" transform="translate(382,59)"/>
<path d="M0 0 C2.64 0 5.28 0 8 0 C8 0.66 8 1.32 8 2 C6.02 2 4.04 2 2 2 C2.95865509 4.33075929 2.95865509 4.33075929 6 6 C4.35 6 2.7 6 1 6 C1 7.65 1 9.3 1 11 C0.67 11 0.34 11 0 11 C0 7.37 0 3.74 0 0 Z " fill="#9da3b9" transform="translate(322,54)"/>
<path d="M0 0 C0.66 0.66 1.32 1.32 2 2 C4.3245339 2.37051993 4.3245339 2.37051993 7.0078125 2.4140625 C7.99394531 2.45273437 8.98007813 2.49140625 9.99609375 2.53125 C11.02863281 2.5621875 12.06117188 2.593125 13.125 2.625 C14.16527344 2.66367187 15.20554688 2.70234375 16.27734375 2.7421875 C18.85138311 2.83664766 21.42541155 2.92221214 24 3 C24 3.33 24 3.66 24 4 C15.42 4 6.84 4 -2 4 C-2.33 3.01 -2.66 2.02 -3 1 C-2.01 0.67 -1.02 0.34 0 0 Z " fill="#9da3b9" transform="translate(233,41)"/>
<path d="M0 0 C-0.5 1.9375 -0.5 1.9375 -2 4 C-4.69658452 4.68790422 -7.2017019 4.81946464 -10 5 C-9.34 4.34 -8.68 3.68 -8 3 C-8 2.01 -8 1.02 -8 0 C-5.13822943 -1.43088528 -3.06624227 -0.59991697 0 0 Z " fill="#9da3b9" transform="translate(136,40)"/>
<path d="M0 0 C2.31 0 4.62 0 7 0 C7 2.31 7 4.62 7 7 C6.34 7 5.68 7 5 7 C4.67 5.35 4.34 3.7 4 2 C3.67 2 3.34 2 3 2 C2.67 3.65 2.34 5.3 2 7 C1.34 7 0.68 7 0 7 C0 4.69 0 2.38 0 0 Z " fill="#9da3b9" transform="translate(248,59)"/>
<path d="M0 0 C4.875 0.875 4.875 0.875 6 2 C6.04080783 3.99958364 6.04254356 6.00045254 6 8 C5.01 8 4.02 8 3 8 C2.896875 7.360625 2.79375 6.72125 2.6875 6.0625 C2.460625 5.381875 2.23375 4.70125 2 4 C1.01 3.67 0.02 3.34 -1 3 C-0.67 2.01 -0.34 1.02 0 0 Z " fill="#9da3b9" transform="translate(275,36)"/>
<path d="M0 0 C1.9375 0.75 1.9375 0.75 4 2 C4.75 4.125 4.75 4.125 5 6 C3.68 5.67 2.36 5.34 1 5 C1 6.32 1 7.64 1 9 C0.34 9 -0.32 9 -1 9 C-2.0326802 6.21176345 -2.04509293 5.1322726 -1.0625 2.25 C-0.711875 1.5075 -0.36125 0.765 0 0 Z " fill="#9da3b9" transform="translate(25,15)"/>
<path d="M0 0 C0.33 0.66 0.66 1.32 1 2 C2.32 2 3.64 2 5 2 C5.33 1.34 5.66 0.68 6 0 C6 1.98 6 3.96 6 6 C4.02 6 2.04 6 0 6 C-0.38218767 4.34385343 -0.71395102 2.67542976 -1 1 C-0.67 0.67 -0.34 0.34 0 0 Z " fill="#9da3b9" transform="translate(303,60)"/>
<path d="M0 0 C0.66 0.33 1.32 0.66 2 1 C1.34 2.65 0.68 4.3 0 6 C0.66 6 1.32 6 2 6 C2 4.68 2 3.36 2 2 C3.32 2.33 4.64 2.66 6 3 C5.34 3 4.68 3 4 3 C4 4.65 4 6.3 4 8 C2.35 7.67 0.7 7.34 -1 7 C-1.625 4.625 -1.625 4.625 -2 2 C-1.34 1.34 -0.68 0.68 0 0 Z " fill="#9da3b9" transform="translate(22,74)"/>
<path d="M0 0 C1.67542976 0.28604898 3.34385343 0.61781233 5 1 C5 2.65 5 4.3 5 6 C3.35 6.33 1.7 6.66 0 7 C-0.38133299 5.0085944 -0.71325582 3.00720923 -1 1 C-0.67 0.67 -0.34 0.34 0 0 Z " fill="#9da3b9" transform="translate(176,59)"/>
<path d="M0 0 C0.99 0.33 1.98 0.66 3 1 C2.34 1 1.68 1 1 1 C1 3.97 1 6.94 1 10 C0.34 10 -0.32 10 -1 10 C-0.67 8.35 -0.34 6.7 0 5 C-1.98 5 -3.96 5 -6 5 C-6 4.01 -6 3.02 -6 2 C-4.35 2 -2.7 2 -1 2 C-0.67 1.34 -0.34 0.68 0 0 Z " fill="#9da3b9" transform="translate(205,34)"/>
<path d="M0 0 C0.99 0 1.98 0 3 0 C2.67 3.96 2.34 7.92 2 12 C1.34 12 0.68 12 0 12 C0 8.04 0 4.08 0 0 Z " fill="#9da3b9" transform="translate(269,54)"/>
<path d="M0 0 C0.33 1.32 0.66 2.64 1 4 C-1.1875 6.8125 -1.1875 6.8125 -4 9 C-5.32 8.67 -6.64 8.34 -8 8 C-5.36 5.36 -2.72 2.72 0 0 Z " fill="#9da3b9" transform="translate(80,34)"/>
<path d="M0 0 C0.33 0 0.66 0 1 0 C1 3.3 1 6.6 1 10 C0.01 9.67 -0.98 9.34 -2 9 C-1.34 9 -0.68 9 0 9 C0 7.35 0 5.7 0 4 C-1.98 4 -3.96 4 -6 4 C-6 3.01 -6 2.02 -6 1 C-4.7934375 1.0309375 -4.7934375 1.0309375 -3.5625 1.0625 C-1.06645115 1.29633621 -1.06645115 1.29633621 0 0 Z " fill="#9da3b9" transform="translate(350,35)"/>
<path d="M0 0 C0.66 0 1.32 0 2 0 C2.19658808 1.41543415 2.38187546 2.83244031 2.5625 4.25 C2.66691406 5.03890625 2.77132813 5.8278125 2.87890625 6.640625 C3.00027349 9.00532874 2.69633257 10.7511037 2 13 C1.34 13 0.68 13 0 13 C0 8.71 0 4.42 0 0 Z " fill="#9da3b9" transform="translate(374,34)"/>
<path d="M0 0 C0 0.66 0 1.32 0 2 C-0.66 2 -1.32 2 -2 2 C-2.33 2.99 -2.66 3.98 -3 5 C-3.598125 4.67 -4.19625 4.34 -4.8125 4 C-7.05386471 2.79212012 -7.05386471 2.79212012 -10 3 C-9.67 2.01 -9.34 1.02 -9 0 C-5.52176885 -1.15941038 -3.54104422 -0.70820884 0 0 Z " fill="#9da3b9" transform="translate(144,76)"/>
<path d="M0 0 C0 1.65 0 3.3 0 5 C-1.98 5 -3.96 5 -6 5 C-6.33 3.68 -6.66 2.36 -7 1 C-1.125 0 -1.125 0 0 0 Z " fill="#9da3b9" transform="translate(246,61)"/>
<path d="M0 0 C0.99 0.33 1.98 0.66 3 1 C2.34 2.32 1.68 3.64 1 5 C2.98 4.67 4.96 4.34 7 4 C6.67 4.99 6.34 5.98 6 7 C4.00045254 7.04254356 1.99958364 7.04080783 0 7 C-1 6 -1 6 -1.125 3.5 C-1 1 -1 1 0 0 Z " fill="#9da3b9" transform="translate(148,59)"/>
<path d="M0 0 C2.31 0 4.62 0 7 0 C8.35439668 2.70879335 8.06501451 5.00933268 8 8 C7.01 8 6.02 8 5 8 C4.9175 7.05125 4.835 6.1025 4.75 5.125 C4.34925077 1.89538209 4.34925077 1.89538209 1.9375 0.625 C1.298125 0.41875 0.65875 0.2125 0 0 Z " fill="#9da3b9" transform="translate(227,58)"/>
<path d="M0 0 C0.99 0 1.98 0 3 0 C3 3.96 3 7.92 3 12 C2.34 12 1.68 12 1 12 C0.67 8.04 0.34 4.08 0 0 Z " fill="#9da3b9" transform="translate(95,54)"/>
<path d="M0 0 C0.66 0 1.32 0 2 0 C2 0.99 2 1.98 2 3 C2.66 3.33 3.32 3.66 4 4 C3.34 4 2.68 4 2 4 C2.57344937 6.86724686 2.8614515 7.8614515 5 10 C3.35 10 1.7 10 0 10 C-1.125 2.25 -1.125 2.25 0 0 Z " fill="#9da3b9" transform="translate(123,56)"/>
<path d="M0 0 C0.99 0 1.98 0 3 0 C3 1.65 3 3.3 3 5 C3.86625 4.690625 3.86625 4.690625 4.75 4.375 C7 4 7 4 11 6 C7.37 6 3.74 6 0 6 C0 4.02 0 2.04 0 0 Z " fill="#9da3b9" transform="translate(257,40)"/>
<path d="M0 0 C2.91843445 2.626591 4.94517315 5.66976339 7 9 C7 9.66 7 10.32 7 11 C4.525 10.01 4.525 10.01 2 9 C2 7.68 2 6.36 2 5 C1.34 5 0.68 5 0 5 C0 3.35 0 1.7 0 0 Z " fill="#9da3b9" transform="translate(30,21)"/>
<path d="M0 0 C-4.625 4.875 -4.625 4.875 -8 6 C-8 4.68 -8 3.36 -8 2 C-4.77208445 -0.1519437 -3.71599191 -0.20086443 0 0 Z " fill="#9da3b9" transform="translate(55,61)"/>
<path d="M0 0 C1.98 0 3.96 0 6 0 C4.68 0.33 3.36 0.66 2 1 C2 2.32 2 3.64 2 5 C3.32 5 4.64 5 6 5 C6 5.66 6 6.32 6 7 C4.02 7 2.04 7 0 7 C0 4.69 0 2.38 0 0 Z " fill="#9da3b9" transform="translate(348,59)"/>
<path d="M0 0 C5.78461538 4.30769231 5.78461538 4.30769231 6.875 7.8125 C6.936875 8.8953125 6.936875 8.8953125 7 10 C4.13904359 8.7175023 1.88634082 7.54656011 0 5 C-0.1875 2.3125 -0.1875 2.3125 0 0 Z " fill="#9da3b9" transform="translate(22,48)"/>
<path d="M0 0 C3.37462715 0.54723683 5.08235 1.0549 8 3 C8 3.99 8 4.98 8 6 C5.33333333 5.33333333 2.66666667 4.66666667 0 4 C0 2.68 0 1.36 0 0 Z " fill="#9da3b9" transform="translate(193,39)"/>
<path d="M0 0 C0.66 0 1.32 0 2 0 C2 1.32 2 2.64 2 4 C3.32 4.33 4.64 4.66 6 5 C5.67 7.64 5.34 10.28 5 13 C4.67 13 4.34 13 4 13 C4 10.69 4 8.38 4 6 C2.68 6 1.36 6 0 6 C0 4.02 0 2.04 0 0 Z " fill="#9da3b9" transform="translate(58,28)"/>
<path d="M0 0 C1.32 0.33 2.64 0.66 4 1 C3.67 4.3 3.34 7.6 3 11 C2.34 11 1.68 11 1 11 C0.67 7.37 0.34 3.74 0 0 Z " fill="#9da3b9" transform="translate(214,55)"/>
<path d="M0 0 C0.66 0.66 1.32 1.32 2 2 C1.34 2 0.68 2 0 2 C0 3.32 0 4.64 0 6 C-1.65 6 -3.3 6 -5 6 C-4.67 4.35 -4.34 2.7 -4 1 C-2.125 0.375 -2.125 0.375 0 0 Z " fill="#9da3b9" transform="translate(100,74)"/>
<path d="M0 0 C0.99 0 1.98 0 3 0 C3 3.63 3 7.26 3 11 C2.34 11 1.68 11 1 11 C0.67 7.37 0.34 3.74 0 0 Z " fill="#9da3b9" transform="translate(111,55)"/>
<path d="M0 0 C0.99 0 1.98 0 3 0 C3 3.63 3 7.26 3 11 C2.34 11 1.68 11 1 11 C0.67 7.37 0.34 3.74 0 0 Z " fill="#9da3b9" transform="translate(99,55)"/>
<path d="M0 0 C1.65 0 3.3 0 5 0 C5.33 2.97 5.66 5.94 6 9 C3 5.25 3 5.25 3 3 C2.01 3 1.02 3 0 3 C0 2.01 0 1.02 0 0 Z " fill="#9da3b9" transform="translate(301,35)"/>
<path d="M0 0 C-0.33 0.99 -0.66 1.98 -1 3 C-4.3 3.33 -7.6 3.66 -11 4 C-11 3.34 -11 2.68 -11 2 C-9.5422647 1.664061 -8.08378894 1.33133376 -6.625 1 C-5.40683594 0.7215625 -5.40683594 0.7215625 -4.1640625 0.4375 C-2 0 -2 0 0 0 Z " fill="#9da3b9" transform="translate(37,44)"/>
<path d="M0 0 C0.33 0.99 0.66 1.98 1 3 C0.01 3 -0.98 3 -2 3 C-2 3.66 -2 4.32 -2 5 C-2.99 5.66 -3.98 6.32 -5 7 C-5.99 6.67 -6.98 6.34 -8 6 C-7.67 5.34 -7.34 4.68 -7 4 C-6.34 4 -5.68 4 -5 4 C-5 3.34 -5 2.68 -5 2 C-3.35 1.34 -1.7 0.68 0 0 Z " fill="#9da3b9" transform="translate(48,11)"/>
<path d="M0 0 C0.99 1.32 1.98 2.64 3 4 C1.35 4.66 -0.3 5.32 -2 6 C-2 5.34 -2 4.68 -2 4 C-2.99 3.67 -3.98 3.34 -5 3 C-3.35 2.01 -1.7 1.02 0 0 Z " fill="#9da3b9" transform="translate(40,66)"/>
<path d="M0 0 C1.98 0 3.96 0 6 0 C5.67 1.32 5.34 2.64 5 4 C2.03 3.505 2.03 3.505 -1 3 C-0.67 2.01 -0.34 1.02 0 0 Z " fill="#9da3b9" transform="translate(303,58)"/>
<path d="M0 0 C1.21236328 0.04060547 1.21236328 0.04060547 2.44921875 0.08203125 C3.06410156 0.11683594 3.67898437 0.15164062 4.3125 0.1875 C3.3225 1.6725 3.3225 1.6725 2.3125 3.1875 C-0.0703125 3.48046875 -0.0703125 3.48046875 -2.8125 3.375 C-3.72257812 3.34792969 -4.63265625 3.32085937 -5.5703125 3.29296875 C-6.26898438 3.25816406 -6.96765625 3.22335938 -7.6875 3.1875 C-5.26849268 0.20484049 -3.789448 -0.16475861 0 0 Z " fill="#9da3b9" transform="translate(53.6875,52.8125)"/>
<path d="M0 0 C3.3 0.33 6.6 0.66 10 1 C6.13209997 2.93395001 4.8499541 3.23289353 0.75 3.125 C-0.14203125 3.10695312 -1.0340625 3.08890625 -1.953125 3.0703125 C-2.96632812 3.03550781 -2.96632812 3.03550781 -4 3 C-2.68 2.67 -1.36 2.34 0 2 C0 1.34 0 0.68 0 0 Z " fill="#9da3b9" transform="translate(46,47)"/>
<path d="M0 0 C2.31 0 4.62 0 7 0 C6.34 1.32 5.68 2.64 5 4 C3.02 3.34 1.04 2.68 -1 2 C-0.67 1.34 -0.34 0.68 0 0 Z " fill="#9da3b9" transform="translate(40,61)"/>
<path d="M0 0 C1.4540625 0.0309375 1.4540625 0.0309375 2.9375 0.0625 C2.9375 1.0525 2.9375 2.0425 2.9375 3.0625 C1.2875 3.0625 -0.3625 3.0625 -2.0625 3.0625 C-2.3925 3.7225 -2.7225 4.3825 -3.0625 5.0625 C-3.625 3.125 -3.625 3.125 -4.0625 1.0625 C-3.0625 0.0625 -3.0625 0.0625 0 0 Z " fill="#9da3b9" transform="translate(197.0625,57.9375)"/>
<path d="M0 0 C0.66 0.99 1.32 1.98 2 3 C-0.3125 4.5625 -0.3125 4.5625 -3 6 C-3.99 5.67 -4.98 5.34 -6 5 C-6 4.34 -6 3.68 -6 3 C-5.195625 2.690625 -4.39125 2.38125 -3.5625 2.0625 C-1.10919595 1.23664655 -1.10919595 1.23664655 0 0 Z " fill="#9da3b9" transform="translate(340,45)"/>
<path d="M0 0 C0.928125 0.20625 1.85625 0.4125 2.8125 0.625 C2.8125 1.285 2.8125 1.945 2.8125 2.625 C0.8325 3.615 0.8325 3.615 -1.1875 4.625 C-1.5175 3.965 -1.8475 3.305 -2.1875 2.625 C-4.21213255 1.97286708 -4.21213255 1.97286708 -6.1875 1.625 C-3.1875 -0.375 -3.1875 -0.375 0 0 Z " fill="#9da3b9" transform="translate(271.1875,39.375)"/>
<path d="M0 0 C0.66 0 1.32 0 2 0 C2 0.66 2 1.32 2 2 C2.66 2 3.32 2 4 2 C4 2.66 4 3.32 4 4 C2.37373596 5.38232443 0.7074998 6.71937515 -1 8 C-1.04241723 5.66705225 -1.04092937 3.33297433 -1 1 C-0.67 0.67 -0.34 0.34 0 0 Z " fill="#9da3b9" transform="translate(43,38)"/>
<path d="M0 0 C1.32 0.66 2.64 1.32 4 2 C3.67 3.32 3.34 4.64 3 6 C1.68 5.67 0.36 5.34 -1 5 C-0.67 3.35 -0.34 1.7 0 0 Z " fill="#9da3b9" transform="translate(61,15)"/>
<path d="M0 0 C1.32 0.33 2.64 0.66 4 1 C3.34 3.31 2.68 5.62 2 8 C1.34 8 0.68 8 0 8 C0 5.36 0 2.72 0 0 Z " fill="#9da3b9" transform="translate(115,73)"/>
<path d="M0 0 C0 0.66 0 1.32 0 2 C-2.31 2.33 -4.62 2.66 -7 3 C-7 2.01 -7 1.02 -7 0 C-2.25 -1.125 -2.25 -1.125 0 0 Z " fill="#9da3b9" transform="translate(142,67)"/>
<path d="M0 0 C4.21878192 -0.19622241 7.17010894 0.19769832 11 2 C11 2.66 11 3.32 11 4 C9.02 4 7.04 4 5 4 C5 3.01 5 2.02 5 1 C3.35 1 1.7 1 0 1 C0 0.67 0 0.34 0 0 Z " fill="#9da3b9" transform="translate(349,58)"/>
<path d="M0 0 C1.65 0.33 3.3 0.66 5 1 C4.01 1.33 3.02 1.66 2 2 C2 3.65 2 5.3 2 7 C1.34 7 0.68 7 0 7 C-1.125 2.25 -1.125 2.25 0 0 Z " fill="#9da3b9" transform="translate(227,59)"/>
<path d="M0 0 C1.65 0 3.3 0 5 0 C5 0.66 5 1.32 5 2 C4.01 2 3.02 2 2 2 C2 3.65 2 5.3 2 7 C1.34 7 0.68 7 0 7 C0 4.69 0 2.38 0 0 Z " fill="#9da3b9" transform="translate(129,59)"/>
<path d="M0 0 C0.66 0 1.32 0 2 0 C2 2.97 2 5.94 2 9 C1.01 9 0.02 9 -1 9 C-1.80967438 6.08517222 -2.21845993 4.53886783 -1.0625 1.6875 C-0.711875 1.130625 -0.36125 0.57375 0 0 Z " fill="#9da3b9" transform="translate(226,43)"/>
<path d="M0 0 C0.99 0.33 1.98 0.66 3 1 C3 2.32 3 3.64 3 5 C1.35 5.33 -0.3 5.66 -2 6 C-1.49396008 3.83125748 -1.00016187 2.00032373 0 0 Z " fill="#9da3b9" transform="translate(207,75)"/>
<path d="M0 0 C2.31 0 4.62 0 7 0 C7.66 1.65 8.32 3.3 9 5 C8.01 5 7.02 5 6 5 C6 4.01 6 3.02 6 2 C3.03 1.505 3.03 1.505 0 1 C0 0.67 0 0.34 0 0 Z " fill="#9da3b9" transform="translate(57,75)"/>
<path d="M0 0 C1.98 0 3.96 0 6 0 C6.33 1.65 6.66 3.3 7 5 C3.535 3.02 3.535 3.02 0 1 C0 0.67 0 0.34 0 0 Z " fill="#9da3b9" transform="translate(31,60)"/>
<path d="M0 0 C3.3 0.33 6.6 0.66 10 1 C7.60776303 3.39223697 6.32240324 3.6758631 3 4 C2.01 3.34 1.02 2.68 0 2 C0 1.34 0 0.68 0 0 Z " fill="#9da3b9" transform="translate(35,58)"/>
<path d="M0 0 C0.66 0 1.32 0 2 0 C2 2.97 2 5.94 2 9 C1.01 8.34 0.02 7.68 -1 7 C-0.67 4.69 -0.34 2.38 0 0 Z " fill="#9da3b9" transform="translate(140,58)"/>
<path d="M0 0 C0.66 1.32 1.32 2.64 2 4 C1.34 4.66 0.68 5.32 0 6 C-1.32 6 -2.64 6 -4 6 C-3.0022242 3.00667261 -2.2477975 2.05233685 0 0 Z " fill="#9da3b9" transform="translate(379,44)"/>
<path d="M0 0 C0.33 0 0.66 0 1 0 C1 2.97 1 5.94 1 9 C-0.65 9.33 -2.3 9.66 -4 10 C-3.34 8.68 -2.68 7.36 -2 6 C-2 6.66 -2 7.32 -2 8 C-1.34 8 -0.68 8 0 8 C0 5.36 0 2.72 0 0 Z " fill="#9da3b9" transform="translate(139,35)"/>
<path d="M0 0 C2.475 0.495 2.475 0.495 5 1 C5 1.66 5 2.32 5 3 C4.34 3 3.68 3 3 3 C3.66 4.32 4.32 5.64 5 7 C3.68 6.67 2.36 6.34 1 6 C0.67 4.02 0.34 2.04 0 0 Z " fill="#9da3b9" transform="translate(39,18)"/>
<path d="M0 0 C0.33 1.32 0.66 2.64 1 4 C-0.32 4.33 -1.64 4.66 -3 5 C-3.33 3.68 -3.66 2.36 -4 1 C-2 0 -2 0 0 0 Z " fill="#9da3b9" transform="translate(38,72)"/>
<path d="M0 0 C0.99 0 1.98 0 3 0 C2.855625 0.515625 2.71125 1.03125 2.5625 1.5625 C1.84190099 4.68509571 1.42733561 7.82550692 1 11 C0.67 11 0.34 11 0 11 C0 7.37 0 3.74 0 0 Z " fill="#9da3b9" transform="translate(86,54)"/>
<path d="M0 0 C0.33 0.66 0.66 1.32 1 2 C0.0625 4.125 0.0625 4.125 -1 6 C-2.32 5.34 -3.64 4.68 -5 4 C-3.36587557 2.29159719 -2.13093906 1.06546953 0 0 Z " fill="#9da3b9" transform="translate(70,32)"/>
<path d="M0 0 C1.32 0.33 2.64 0.66 4 1 C4 1.66 4 2.32 4 3 C2.35 3.66 0.7 4.32 -1 5 C-1.33 4.01 -1.66 3.02 -2 2 C-1.34 2 -0.68 2 0 2 C0 1.34 0 0.68 0 0 Z " fill="#9da3b9" transform="translate(290,46)"/>
<path d="M0 0 C0.99 0.33 1.98 0.66 3 1 C3 1.99 3 2.98 3 4 C1.35 4 -0.3 4 -2 4 C-2 3.01 -2 2.02 -2 1 C-1.34 0.67 -0.68 0.34 0 0 Z " fill="#9da3b9" transform="translate(258,46)"/>
<path d="M0 0 C1.32 0 2.64 0 4 0 C4 0.66 4 1.32 4 2 C2.37373596 3.38232443 0.7074998 4.71937515 -1 6 C-1.042721 4.33388095 -1.04063832 2.66617115 -1 1 C-0.67 0.67 -0.34 0.34 0 0 Z " fill="#9da3b9" transform="translate(64,32)"/>
<path d="M0 0 C3 1 3 1 4.6875 4.0625 C5.120625 5.031875 5.55375 6.00125 6 7 C5.01 7.495 5.01 7.495 4 8 C3.67 6.68 3.34 5.36 3 4 C2.34 4 1.68 4 1 4 C0.67 2.68 0.34 1.36 0 0 Z " fill="#9da3b9" transform="translate(65,24)"/>
<path d="M0 0 C2.97 0.495 2.97 0.495 6 1 C6 2.32 6 3.64 6 5 C5.34 5 4.68 5 4 5 C4 4.34 4 3.68 4 3 C2.68 2.67 1.36 2.34 0 2 C0 1.34 0 0.68 0 0 Z " fill="#9da3b9" transform="translate(42,21)"/>
<path d="M0 0 C0.99 0.33 1.98 0.66 3 1 C2.67 1.99 2.34 2.98 2 4 C1.01 3.67 0.02 3.34 -1 3 C-0.67 2.01 -0.34 1.02 0 0 Z " fill="#9da3b9" transform="translate(147,76)"/>
<path d="M0 0 C0.99 0 1.98 0 3 0 C3 0.99 3 1.98 3 3 C2.01 3 1.02 3 0 3 C0 2.01 0 1.02 0 0 Z " fill="#9da3b9" transform="translate(378,36)"/>
</svg>
