<?xml version="1.0" encoding="UTF-8"?>
<svg version="1.1" xmlns="http://www.w3.org/2000/svg" width="242" height="46">
<rect width="100%" height="100%" fill="#000000"/>

<path d="M0 0 C0.84175781 -0.01160156 1.68351562 -0.02320312 2.55078125 -0.03515625 C7.33197667 -0.01256793 10.64164008 0.23625483 14.5 3.375 C16.89153058 8.15806117 15.70073318 15.13045428 14.875 20.25 C14.45976702 23.71027487 15.03752393 25.27799185 16.5 28.375 C16.5 29.365 16.5 30.355 16.5 31.375 C15.18 31.375 13.86 31.375 12.5 31.375 C12.42523438 32.03886719 12.35046875 32.70273437 12.2734375 33.38671875 C12.07621094 34.71123047 12.07621094 34.71123047 11.875 36.0625 C11.75898437 36.93261719 11.64296875 37.80273438 11.5234375 38.69921875 C10.09406537 42.43631765 8.01970694 44.60125059 4.5 46.375 C1.11952581 47.05029994 -2.12607314 47.03051229 -5.5625 46.9375 C-6.88991211 46.95393555 -6.88991211 46.95393555 -8.24414062 46.97070312 C-12.49522399 46.92286648 -14.88887297 46.75666171 -18.55859375 44.46484375 C-20.88420082 41.96142367 -21.50449129 41.13964251 -21.484375 37.71484375 C-21.01261397 30.86644616 -20.26464453 24.14256444 -19.125 17.375 C-19.01124023 16.66980225 -18.89748047 15.96460449 -18.78027344 15.23803711 C-17.81376001 9.82620625 -16.61787009 5.24789258 -12.40625 1.5234375 C-8.24278275 -0.12180359 -4.43613628 -0.06114124 0 0 Z M-6.5 9.375 C-8.40716559 12.23574838 -8.85137465 13.39896537 -9.3515625 16.6484375 C-9.48046875 17.4734375 -9.609375 18.2984375 -9.7421875 19.1484375 C-9.86851563 20.00695313 -9.99484375 20.86546875 -10.125 21.75 C-10.2590625 22.60078125 -10.393125 23.4515625 -10.53125 24.328125 C-11.47644813 30.32307484 -11.47644813 30.32307484 -11.5 36.375 C-9.76150372 38.11349628 -7.4213363 37.54716296 -5.0625 37.5625 C-3.57943359 37.58376953 -3.57943359 37.58376953 -2.06640625 37.60546875 C0.66584415 37.63650753 0.66584415 37.63650753 2.5 35.375 C2.5 34.055 2.5 32.735 2.5 31.375 C1.18 31.045 -0.14 30.715 -1.5 30.375 C-1.07847656 29.94832031 -0.65695313 29.52164062 -0.22265625 29.08203125 C5.13381323 22.96935431 5.47578693 17.31688651 5.5 9.375 C3.54233719 9.29417906 1.58373272 9.23589222 -0.375 9.1875 C-1.46554688 9.15269531 -2.55609375 9.11789062 -3.6796875 9.08203125 C-5.07574219 9.22705078 -5.07574219 9.22705078 -6.5 9.375 Z M8.5 23.375 C7.015 25.355 7.015 25.355 5.5 27.375 C7.15 27.375 8.8 27.375 10.5 27.375 C9.84 26.055 9.18 24.735 8.5 23.375 Z " fill="#FFFFFF" transform="translate(96.5,-0.375)"/>
<path d="M0 0 C1.43666016 0.02126953 1.43666016 0.02126953 2.90234375 0.04296875 C9.88123619 0.1906181 9.88123619 0.1906181 12.25 1.375 C11.92 4.015 11.59 6.655 11.25 9.375 C4.98 9.705 -1.29 10.035 -7.75 10.375 C-9.81094133 14.25986247 -9.81094133 14.25986247 -10.75 18.375 C-9.64140625 18.32859375 -8.5328125 18.2821875 -7.390625 18.234375 C-5.92711032 18.19684898 -4.46356644 18.16044971 -3 18.125 C-2.27039063 18.09148438 -1.54078125 18.05796875 -0.7890625 18.0234375 C2.77112277 17.95870686 4.80950224 18.0484723 7.7109375 20.19921875 C10.96770826 24.80333376 10.37246574 29.65993226 9.625 35 C8.61689839 40.02669845 7.32958201 42.31531349 3.25 45.375 C-0.11921177 47.05960589 -3.8609862 46.68592974 -7.5625 46.75 C-8.37009766 46.78738281 -9.17769531 46.82476562 -10.00976562 46.86328125 C-14.44061958 46.92860096 -16.17728579 46.83109147 -19.76171875 43.9765625 C-24.24597992 38.10914022 -23.24657581 30.49760252 -22.75 23.375 C-21.41881689 15.11248414 -19.45091518 6.91244541 -12.70043945 1.42456055 C-8.74977716 -0.70134973 -4.3686614 -0.17331215 0 0 Z M-12.75 26.375 C-12.770625 28.004375 -12.79125 29.63375 -12.8125 31.3125 C-12.82410156 32.22902344 -12.83570313 33.14554688 -12.84765625 34.08984375 C-13.00949049 36.34093327 -13.00949049 36.34093327 -11.75 37.375 C-10.06391034 37.44705511 -8.37499341 37.45886068 -6.6875 37.4375 C-5.76839844 37.42847656 -4.84929688 37.41945313 -3.90234375 37.41015625 C-3.19207031 37.39855469 -2.48179688 37.38695312 -1.75 37.375 C0.04132273 32.84400722 0.2536454 31.39322701 -0.75 26.375 C-4.71 26.375 -8.67 26.375 -12.75 26.375 Z " fill="#FFFFFF" transform="translate(61.75,-0.375)"/>
<path d="M0 0 C1.51400391 0.01740234 1.51400391 0.01740234 3.05859375 0.03515625 C4.07050781 0.04417969 5.08242187 0.05320313 6.125 0.0625 C7.29869141 0.07990234 7.29869141 0.07990234 8.49609375 0.09765625 C9.49716011 6.0051649 10.49396011 11.91337158 11.48681641 17.82226562 C11.82516239 19.83222893 12.16467259 21.84199662 12.50537109 23.8515625 C12.99492832 26.74037833 13.48029208 29.62987216 13.96484375 32.51953125 C14.11796021 33.41758484 14.27107666 34.31563843 14.42883301 35.24090576 C14.56897827 36.08147522 14.70912354 36.92204468 14.85351562 37.78808594 C14.97786987 38.52532898 15.10222412 39.26257202 15.23034668 40.02215576 C15.49609375 42.09765625 15.49609375 42.09765625 15.49609375 46.09765625 C12.19609375 46.09765625 8.89609375 46.09765625 5.49609375 46.09765625 C5.00109375 41.14765625 5.00109375 41.14765625 4.49609375 36.09765625 C-0.30450516 35.93525439 -4.81661453 35.98289831 -9.50390625 37.09765625 C-12.33892324 39.97061802 -13.08485185 42.22254617 -14.50390625 46.09765625 C-17.80390625 46.09765625 -21.10390625 46.09765625 -24.50390625 46.09765625 C-23.93091464 42.71846315 -23.10800418 39.93339285 -21.5703125 36.87402344 C-20.97464478 35.67818634 -20.97464478 35.67818634 -20.36694336 34.45819092 C-19.72317749 33.18917938 -19.72317749 33.18917938 -19.06640625 31.89453125 C-18.62627197 31.01613586 -18.1861377 30.13774048 -17.73266602 29.23272705 C-16.80407638 27.38225581 -15.8726153 25.53322307 -14.93847656 23.68554688 C-13.50350147 20.84685551 -12.07718445 18.00394582 -10.65234375 15.16015625 C-9.74919766 13.36303002 -8.84556862 11.56614639 -7.94140625 9.76953125 C-7.512229 8.91542664 -7.08305176 8.06132202 -6.64086914 7.18133545 C-6.24375732 6.39671936 -5.84664551 5.61210327 -5.4375 4.80371094 C-5.08743896 4.11041687 -4.73737793 3.4171228 -4.37670898 2.70281982 C-2.97004473 0.11583638 -2.97004473 0.11583638 0 0 Z M-0.50390625 15.09765625 C-2.97890625 21.03765625 -2.97890625 21.03765625 -5.50390625 27.09765625 C-2.86390625 27.09765625 -0.22390625 27.09765625 2.49609375 27.09765625 C2.16609375 23.13765625 1.83609375 19.17765625 1.49609375 15.09765625 C0.83609375 15.09765625 0.17609375 15.09765625 -0.50390625 15.09765625 Z " fill="#FFB600" transform="translate(163.50390625,-0.09765625)"/>
<path d="M0 0 C0.95455078 -0.01224609 1.90910156 -0.02449219 2.89257812 -0.03710938 C3.81361328 -0.03904297 4.73464844 -0.04097656 5.68359375 -0.04296875 C6.5233374 -0.04707764 7.36308105 -0.05118652 8.22827148 -0.05541992 C10.82175999 0.21448083 12.37588662 0.77815362 14.5625 2.1875 C17.53543344 6.64690016 17.07076434 10.95536704 16.5625 16.1875 C15.125 19.75 15.125 19.75 13.5625 22.1875 C13.2325 22.8475 12.9025 23.5075 12.5625 24.1875 C13.0575 25.1775 13.0575 25.1775 13.5625 26.1875 C14.31080273 32.78728476 13.81083884 38.83773998 9.5625 44.1875 C6.38070418 46.16666071 3.92493217 46.43437957 0.2109375 46.41796875 C-1.31273437 46.41506836 -1.31273437 46.41506836 -2.8671875 46.41210938 C-3.92164063 46.39986328 -4.97609375 46.38761719 -6.0625 46.375 C-7.1246875 46.37435547 -8.186875 46.37371094 -9.28125 46.37304688 C-17.15658181 46.3279591 -17.15658181 46.3279591 -19.4375 45.1875 C-19.47991723 42.85455225 -19.47842937 40.52047433 -19.4375 38.1875 C-17.85745647 36.60745647 -16.1906482 36.98656238 -14 36.90625 C-12.65808594 36.85017578 -12.65808594 36.85017578 -11.2890625 36.79296875 C-9.38802083 36.72265625 -7.48697917 36.65234375 -5.5859375 36.58203125 C-4.24402344 36.52595703 -4.24402344 36.52595703 -2.875 36.46875 C-2.04871094 36.43845703 -1.22242187 36.40816406 -0.37109375 36.37695312 C1.56811156 36.39348341 1.56811156 36.39348341 2.5625 35.1875 C2.93010731 32.85932036 3.26491581 30.5256615 3.5625 28.1875 C2.75425781 28.19910156 1.94601563 28.21070312 1.11328125 28.22265625 C0.04464844 28.23167969 -1.02398438 28.24070312 -2.125 28.25 C-3.70861328 28.26740234 -3.70861328 28.26740234 -5.32421875 28.28515625 C-8.16160262 28.19615425 -10.6813919 27.83689838 -13.4375 27.1875 C-13.1075 24.5475 -12.7775 21.9075 -12.4375 19.1875 C-10.61412109 18.98833984 -10.61412109 18.98833984 -8.75390625 18.78515625 C-7.16924516 18.60699909 -5.5846111 18.42860125 -4 18.25 C-3.19755859 18.16298828 -2.39511719 18.07597656 -1.56835938 17.98632812 C2.31826664 17.88201606 2.31826664 17.88201606 5.5625 16.1875 C5.5625 14.2075 5.5625 12.2275 5.5625 10.1875 C-1.0375 9.8575 -7.6375 9.5275 -14.4375 9.1875 C-14.4375 3.1875 -14.4375 3.1875 -13.4375 1.1875 C-8.99726774 -0.29257742 -4.65074702 0.0031276 0 0 Z " fill="#FFFFFF" transform="translate(19.4375,-0.1875)"/>
<path d="M0 0 C3.63 0 7.26 0 11 0 C12.98 4.29 14.96 8.58 17 13 C17.60585937 12.0615625 18.21171875 11.123125 18.8359375 10.15625 C25.43959578 0.46601261 25.43959578 0.46601261 29.890625 -0.86328125 C32.3789897 -0.81706876 34.58778642 -0.60048721 37 0 C35.7202051 3.53964429 34.23092337 6.28138651 31.92578125 9.25 C31.34119141 10.0234375 30.75660156 10.796875 30.15429688 11.59375 C28.92209003 13.20358969 27.6824289 14.80774984 26.43554688 16.40625 C25.85482422 17.1796875 25.27410156 17.953125 24.67578125 18.75 C23.8700769 19.79414062 23.8700769 19.79414062 23.0480957 20.859375 C21.66458306 23.68505374 22.08073911 25.03647799 23 28 C23.49914096 29.32336017 24.04190711 30.63116812 24.62890625 31.91796875 C24.94150391 32.61470703 25.25410156 33.31144531 25.57617188 34.02929688 C25.90166016 34.74150391 26.22714844 35.45371094 26.5625 36.1875 C30 43.74192759 30 43.74192759 30 46 C26.37 46 22.74 46 19 46 C15 36.375 15 36.375 15 33 C11.75752196 35.96455135 9.79567322 38.3515512 7.875 42.3125 C6.66796875 44.39453125 6.66796875 44.39453125 5 46 C1.24832009 46.69514861 -2.22903828 46.4754978 -6 46 C-4.72025106 42.44733939 -3.23301082 39.73936441 -0.890625 36.78515625 C-0.30152344 36.01623047 0.28757813 35.24730469 0.89453125 34.45507812 C2.13551965 32.85485625 3.38826496 31.26368584 4.65234375 29.68164062 C8.20289669 25.31274225 8.20289669 25.31274225 8.6171875 19.98828125 C7.81667969 18.50908203 7.81667969 18.50908203 7 17 C6.41126255 15.57047613 5.8367735 14.13503568 5.2734375 12.6953125 C4.64269453 11.171017 4.00984355 9.64759225 3.375 8.125 C3.05015625 7.34125 2.7253125 6.5575 2.390625 5.75 C1.59559238 3.83256838 0.79805149 1.9161771 0 0 Z " fill="#FFB600" transform="translate(187,0)"/>
<path d="M0 0 C11.55 0 23.1 0 35 0 C34 8 34 8 33 9 C30.98035801 9.07244053 28.95832876 9.08377188 26.9375 9.0625 C25.83277344 9.05347656 24.72804687 9.04445313 23.58984375 9.03515625 C22.73519531 9.02355469 21.88054687 9.01195312 21 9 C20.85377197 10.04978027 20.70754395 11.09956055 20.55688477 12.18115234 C20.01436252 16.06918614 19.46723528 19.95656021 18.91870117 23.84375 C18.68176252 25.52749222 18.44607966 27.21141165 18.21166992 28.89550781 C17.87487073 31.31362635 17.53358727 33.73107542 17.19140625 36.1484375 C17.08719864 36.9036972 16.98299103 37.65895691 16.87562561 38.43710327 C16.11387171 43.77225659 16.11387171 43.77225659 15 46 C12.03 46 9.06 46 6 46 C5.59987504 38.15755071 7.10557831 30.69084391 8.5 23 C8.74151103 21.63943382 8.98240171 20.27875737 9.22265625 18.91796875 C9.8090256 15.61084564 10.40164232 12.30497136 11 9 C7.04 9 3.08 9 -1 9 C-0.67 6.03 -0.34 3.06 0 0 Z " fill="#FFB600" transform="translate(117,0)"/>
<path d="M0 0 C2.97 0 5.94 0 9 0 C9.1401755 5.86400863 8.64765586 11.31483768 7.6875 17.09375 C7.55432373 17.92588013 7.42114746 18.75801025 7.28393555 19.61535645 C6.8617904 22.24455158 6.43104723 24.87225125 6 27.5 C5.71036554 29.29417859 5.42129752 31.08844873 5.1328125 32.8828125 C4.42841733 37.25629358 3.71631345 41.62845583 3 46 C-0.3 46 -3.6 46 -7 46 C-6.32729728 37.32366379 -5.16139104 28.77711602 -3.84326172 20.1809082 C-3.49595289 17.91104988 -3.15590515 15.64017879 -2.81640625 13.36914062 C-2.59678271 11.92180991 -2.37674621 10.47454178 -2.15625 9.02734375 C-1.95837891 7.72531006 -1.76050781 6.42327637 -1.55664062 5.08178711 C-1 2 -1 2 0 0 Z " fill="#FFB600" transform="translate(229,0)"/>
</svg>
