<?xml version="1.0" encoding="UTF-8"?>
<svg version="1.1" xmlns="http://www.w3.org/2000/svg" width="408" height="184">
<path d="M0 0 C1.26296906 -0.00365067 2.52593811 -0.00730133 3.82717896 -0.01106262 C7.26739382 -0.02040672 10.70732091 -0.0111008 14.14751315 0.00226951 C17.76363034 0.0136579 21.37973488 0.00947076 24.99586487 0.00752258 C31.06744028 0.00664182 37.13890359 0.0176734 43.21044922 0.03613281 C50.20813493 0.05728755 57.20565644 0.060811 64.20336765 0.05457085 C70.96140147 0.04885523 77.71937807 0.05454928 84.47740364 0.0657444 C87.34117769 0.07036234 90.20491642 0.07127648 93.06869316 0.06915855 C97.07713121 0.06690683 101.08534405 0.08145767 105.09375 0.09765625 C106.26860458 0.09517883 107.44345917 0.09270142 108.65391541 0.09014893 C120.26809143 0.16474968 129.98424446 1.24498664 138.48657227 9.74731445 C142.29427783 15.89822345 142.39114892 21.99871289 142.30688477 29.0246582 C142.30405487 29.92479141 142.30122498 30.82492462 142.29830933 31.75233459 C142.28718505 34.60496765 142.26209509 37.45727756 142.23657227 40.30981445 C142.22653244 42.25316927 142.21740834 44.19652904 142.20922852 46.13989258 C142.18897942 50.88425547 142.14981632 55.62792661 142.11157227 60.37231445 C155.31157227 60.04231445 168.51157227 59.71231445 182.11157227 59.37231445 C182.44157227 58.05231445 182.77157227 56.73231445 183.11157227 55.37231445 C180.43984914 51.96652878 176.98489893 49.86428776 173.36157227 47.55981445 C164.51593898 41.72385396 157.39632743 36.74975007 154.51391602 26.1809082 C153.42672745 20.11165168 154.71031368 15.47886159 158.11157227 10.37231445 C163.23340529 4.53817352 169.16357865 0.842121 176.99406242 0.09862518 C180.46493179 -0.00318394 183.92419428 -0.01010162 187.39648438 0.01586914 C188.71277832 0.01382477 190.02907227 0.0117804 191.38525391 0.00967407 C194.97368795 0.0045685 198.56183211 0.01801424 202.15021968 0.03520107 C205.90934818 0.050294 209.66847383 0.04906424 213.42762756 0.04986572 C219.7312614 0.05354954 226.03478576 0.06847876 232.33837891 0.09106445 C240.43843158 0.12002706 248.53839661 0.13029723 256.63849545 0.13474655 C263.60137294 0.13871933 270.56423128 0.1512147 277.52709508 0.16509342 C279.76770118 0.16919638 282.00830661 0.17211977 284.24891472 0.17488861 C288.41011871 0.18067271 292.57124405 0.19533853 296.73242188 0.21118164 C298.60170097 0.21285843 298.60170097 0.21285843 300.50874329 0.21456909 C302.19732956 0.22313431 302.19732956 0.22313431 303.92002869 0.23187256 C305.39636481 0.23633455 305.39636481 0.23633455 306.9025259 0.24088669 C309.11157227 0.37231445 309.11157227 0.37231445 310.11157227 1.37231445 C310.21187083 3.80088481 310.24775651 6.20103058 310.2409668 8.63012695 C310.24359528 9.76910431 310.24359528 9.76910431 310.24627686 10.93109131 C310.25069556 13.45318861 310.24775732 15.97521638 310.24438477 18.49731445 C310.2450578 20.24226902 310.24602782 21.98722349 310.24728394 23.73217773 C310.24876093 27.3941334 310.24660629 31.05606473 310.24194336 34.71801758 C310.23624607 39.42275938 310.23952506 44.12744413 310.24551582 48.83218384 C310.24912138 52.43685337 310.24798287 56.04150927 310.24538803 59.6461792 C310.24471875 61.38140876 310.24554723 63.11663954 310.24786758 64.85186768 C310.25039403 67.27277933 310.24655365 69.69359732 310.2409668 72.11450195 C310.24299103 72.83869324 310.24501526 73.56288452 310.24710083 74.309021 C310.22583493 79.25805179 310.22583493 79.25805179 309.11157227 80.37231445 C307.48899682 80.47148016 305.86217395 80.50311222 304.23657227 80.50512695 C303.25172852 80.50641602 302.26688477 80.50770508 301.25219727 80.5090332 C300.21579102 80.50516602 299.17938477 80.50129883 298.11157227 80.49731445 C296.55696289 80.50311523 296.55696289 80.50311523 294.97094727 80.5090332 C293.98610352 80.50774414 293.00125977 80.50645508 291.98657227 80.50512695 C291.07649414 80.50399902 290.16641602 80.50287109 289.22875977 80.50170898 C287.11157227 80.37231445 287.11157227 80.37231445 286.11157227 79.37231445 C286.07064289 77.03934012 286.06915503 74.70526221 286.11157227 72.37231445 C284.75612305 73.00459961 284.75612305 73.00459961 283.37329102 73.6496582 C282.19379883 74.19750977 281.01430664 74.74536133 279.79907227 75.30981445 C278.04143555 76.12772461 278.04143555 76.12772461 276.24829102 76.9621582 C268.33252198 80.52080406 259.01700763 80.65103468 250.63500977 78.46606445 C240.1162929 74.31183703 234.09768968 68.49891825 229.11157227 58.37231445 C227.25147174 53.7760251 226.7253872 49.54079878 226.73657227 44.62231445 C226.7374585 43.92146729 226.73834473 43.22062012 226.73925781 42.49853516 C226.91064623 34.93569519 228.70564025 28.77824647 234.11157227 23.37231445 C234.44157227 22.38231445 234.77157227 21.39231445 235.11157227 20.37231445 C218.94157227 20.70231445 202.77157227 21.03231445 186.11157227 21.37231445 C185.78157227 23.02231445 185.45157227 24.67231445 185.11157227 26.37231445 C185.70583008 26.78481445 186.30008789 27.19731445 186.91235352 27.62231445 C188.67111297 28.84770207 190.42600923 30.07864448 192.17797852 31.3137207 C194.11210093 32.67095441 196.05729978 34.01255798 198.01391602 35.3371582 C205.03098414 40.19809017 211.04345554 44.99056069 213.54907227 53.43481445 C214.43670274 59.64822778 213.77733635 64.28108679 210.39672852 69.6730957 C205.86080433 75.67044227 200.43202233 78.88515682 193.11157227 80.37231445 C187.4311869 80.78301557 181.77255976 80.74688703 176.08032227 80.70043945 C174.43648451 80.6973774 172.79264415 80.69550467 171.14880371 80.69476318 C167.72287902 80.69018386 164.29719252 80.67584111 160.87133789 80.65356445 C156.47172446 80.62510456 152.07229657 80.61433251 147.67259979 80.60988235 C144.28753801 80.60573796 140.90251393 80.59593165 137.51747131 80.58400726 C135.89388836 80.57829955 134.27030179 80.5735425 132.64671326 80.5697403 C130.38949098 80.56290331 128.13241888 80.5492881 125.87524414 80.53344727 C124.59000854 80.52661926 123.30477295 80.51979126 121.98059082 80.51275635 C119.11157227 80.37231445 119.11157227 80.37231445 118.11157227 79.37231445 C117.98834469 77.59328088 117.93368208 75.80945243 117.90625 74.02636719 C117.88630478 72.88525986 117.86635956 71.74415253 117.84580994 70.56846619 C117.8207412 68.70599998 117.8207412 68.70599998 117.79516602 66.8059082 C117.77438492 65.54214859 117.75360382 64.27838898 117.73219299 62.97633362 C117.67773512 59.61112812 117.62752947 56.24591273 117.5793457 52.88061523 C117.52917468 49.44875545 117.47346572 46.01698614 117.41821289 42.58520508 C117.31087036 35.84764684 117.20912902 29.11002109 117.11157227 22.37231445 C114.2788756 20.95596612 111.63690789 21.02601396 108.48657227 20.80981445 C107.29805664 20.72602539 106.10954102 20.64223633 104.88500977 20.5559082 C103.5121582 20.4650293 103.5121582 20.4650293 102.11157227 20.37231445 C102.11379288 21.10925034 102.11601349 21.84618622 102.11830139 22.60545349 C102.13830429 29.53644214 102.15354639 36.4674265 102.16338444 43.39843655 C102.16861222 46.96208867 102.17570796 50.52571703 102.18701172 54.08935547 C102.19991402 58.18237542 102.20480133 62.27537025 102.20922852 66.3684082 C102.2143898 67.6537999 102.21955109 68.93919159 102.22486877 70.26353455 C102.22494431 71.44468338 102.22501984 72.62583221 102.22509766 73.84277344 C102.22731827 74.88868149 102.22953888 75.93458954 102.23182678 77.01219177 C102.11157227 79.37231445 102.11157227 79.37231445 101.11157227 80.37231445 C99.48899682 80.47148016 97.86217395 80.50311222 96.23657227 80.50512695 C95.25172852 80.50641602 94.26688477 80.50770508 93.25219727 80.5090332 C92.21579102 80.50516602 91.17938477 80.50129883 90.11157227 80.49731445 C88.55696289 80.50311523 88.55696289 80.50311523 86.97094727 80.5090332 C85.98610352 80.50774414 85.00125977 80.50645508 83.98657227 80.50512695 C83.07649414 80.50399902 82.16641602 80.50287109 81.22875977 80.50170898 C79.11157227 80.37231445 79.11157227 80.37231445 78.11157227 79.37231445 C78.01775924 77.53113416 77.99413273 75.68633804 77.99804688 73.84277344 C77.99816017 72.07105019 77.99816017 72.07105019 77.99827576 70.26353455 C78.00343704 68.97814285 78.00859833 67.69275116 78.01391602 66.3684082 C78.01533096 65.0602565 78.01674591 63.7521048 78.01820374 62.40431213 C78.02202817 58.92068586 78.0318578 55.43710106 78.04290771 51.95349121 C78.05312344 48.40104737 78.0577017 44.84859686 78.06274414 41.29614258 C78.07348015 34.32151442 78.09107634 27.34692069 78.11157227 20.37231445 C72.83157227 20.37231445 67.55157227 20.37231445 62.11157227 20.37231445 C62.11680908 22.15436279 62.1220459 23.93641113 62.12744141 25.77246094 C62.14353969 31.64778127 62.15504484 37.52310084 62.16338444 43.39843655 C62.16861222 46.96208867 62.17570796 50.52571703 62.18701172 54.08935547 C62.19991402 58.18237542 62.20480133 62.27537025 62.20922852 66.3684082 C62.2143898 67.6537999 62.21955109 68.93919159 62.22486877 70.26353455 C62.22494431 71.44468338 62.22501984 72.62583221 62.22509766 73.84277344 C62.22731827 74.88868149 62.22953888 75.93458954 62.23182678 77.01219177 C62.11157227 79.37231445 62.11157227 79.37231445 61.11157227 80.37231445 C59.48899682 80.47148016 57.86217395 80.50311222 56.23657227 80.50512695 C55.25172852 80.50641602 54.26688477 80.50770508 53.25219727 80.5090332 C52.21579102 80.50516602 51.17938477 80.50129883 50.11157227 80.49731445 C48.55696289 80.50311523 48.55696289 80.50311523 46.97094727 80.5090332 C45.98610352 80.50774414 45.00125977 80.50645508 43.98657227 80.50512695 C43.07649414 80.50399902 42.16641602 80.50287109 41.22875977 80.50170898 C39.11157227 80.37231445 39.11157227 80.37231445 38.11157227 79.37231445 C38.01775924 77.53113416 37.99413273 75.68633804 37.99804688 73.84277344 C37.99816017 72.07105019 37.99816017 72.07105019 37.99827576 70.26353455 C38.00343704 68.97814285 38.00859833 67.69275116 38.01391602 66.3684082 C38.01533096 65.0602565 38.01674591 63.7521048 38.01820374 62.40431213 C38.02202817 58.92068586 38.0318578 55.43710106 38.04290771 51.95349121 C38.05312344 48.40104748 38.0577564 44.84859687 38.06274414 41.29614258 C38.07294994 34.32149654 38.09252163 27.34696448 38.11157227 20.37231445 C24.91157227 20.70231445 11.71157227 21.03231445 -1.88842773 21.37231445 C-2.21842773 23.02231445 -2.54842773 24.67231445 -2.88842773 26.37231445 C-2.29416992 26.78481445 -1.69991211 27.19731445 -1.08764648 27.62231445 C0.67111297 28.84770207 2.42600923 30.07864448 4.17797852 31.3137207 C6.11210093 32.67095441 8.05729978 34.01255798 10.01391602 35.3371582 C17.02700352 40.19533268 23.89552158 45.72971677 26.11157227 54.37231445 C26.81780361 60.49298614 25.36296929 65.23709965 22.11157227 70.37231445 C16.53400726 76.50880038 11.2742086 79.23850026 3.11157227 80.37231445 C0.29407261 80.46414613 -2.4974606 80.51269547 -5.31420898 80.50512695 C-6.49650337 80.50656204 -6.49650337 80.50656204 -7.7026825 80.50802612 C-9.35745321 80.50870324 -11.01222665 80.50688177 -12.66699219 80.50268555 C-15.21026472 80.49729466 -17.75336352 80.50266462 -20.29663086 80.5090332 C-21.90665729 80.50837304 -23.51668362 80.50709316 -25.12670898 80.50512695 C-25.89018143 80.50715118 -26.65365387 80.50917542 -27.44026184 80.51126099 C-32.77345232 80.48728987 -32.77345232 80.48728987 -33.88842773 79.37231445 C-33.98679983 78.0418782 -34.01921366 76.70638101 -34.02124023 75.37231445 C-34.0225293 74.56793945 -34.02381836 73.76356445 -34.02514648 72.93481445 C-34.0212793 72.08918945 -34.01741211 71.24356445 -34.01342773 70.37231445 C-34.01729492 69.52668945 -34.02116211 68.68106445 -34.02514648 67.80981445 C-34.02385742 67.00543945 -34.02256836 66.20106445 -34.02124023 65.37231445 C-34.0201123 64.62981445 -34.01898438 63.88731445 -34.01782227 63.12231445 C-33.88842773 61.37231445 -33.88842773 61.37231445 -32.88842773 60.37231445 C-30.89060647 60.21406187 -28.88753939 60.12112274 -26.88452148 60.0559082 C-25.66958008 60.01401367 -24.45463867 59.97211914 -23.20288086 59.92895508 C-21.92348633 59.88963867 -20.6440918 59.85032227 -19.32592773 59.80981445 C-18.04266602 59.76663086 -16.7594043 59.72344727 -15.43725586 59.67895508 C-12.2544292 59.57246645 -9.071521 59.47045483 -5.88842773 59.37231445 C-5.55842773 57.72231445 -5.22842773 56.07231445 -4.88842773 54.37231445 C-5.77981445 53.75356445 -5.77981445 53.75356445 -6.68920898 53.12231445 C-8.44796844 51.89692684 -10.2028647 50.66598442 -11.95483398 49.4309082 C-13.8889564 48.0736745 -15.83415524 46.73207093 -17.79077148 45.4074707 C-24.39572576 40.83202227 -30.274432 36.21430167 -32.88842773 28.37231445 C-33.55415067 20.9074868 -33.57248545 15.37751665 -28.88842773 9.37231445 C-20.83876567 0.57190671 -11.39233162 -0.07399232 0 0 Z M255.11157227 20.37231445 C256.8931296 23.93542911 258.27920236 25.72876921 261.11157227 28.37231445 C259.501467 32.44607476 256.57334956 35.13738514 253.48657227 38.12231445 C252.97094727 38.62891602 252.45532227 39.13551758 251.92407227 39.6574707 C250.65773888 40.90035347 249.38525787 42.13696721 248.11157227 43.37231445 C249.69824805 47.27517212 252.24507708 49.70752427 255.23657227 52.62231445 C256.14665039 53.5143457 257.05672852 54.40637695 257.99438477 55.32543945 C258.69305664 56.0009082 259.39172852 56.67637695 260.11157227 57.37231445 C264.18533258 55.76220919 266.87664295 52.83409175 269.86157227 49.74731445 C270.36817383 49.23168945 270.87477539 48.71606445 271.39672852 48.18481445 C272.63961128 46.91848107 273.87622503 45.64600006 275.11157227 44.37231445 C278.8876664 46.09164242 281.18374427 48.44448646 284.11157227 51.37231445 C284.77157227 51.37231445 285.43157227 51.37231445 286.11157227 51.37231445 C286.11157227 41.14231445 286.11157227 30.91231445 286.11157227 20.37231445 C275.88157227 20.37231445 265.65157227 20.37231445 255.11157227 20.37231445 Z " fill="#9da3b9" transform="translate(53.888427734375,19.627685546875)"/>
<path d="M0 0 C0.99 0.33 1.98 0.66 3 1 C1.77477157 3.89599448 0.5095204 5.5246991 -1.6875 7.875 C-4.25054463 10.74773431 -4.25054463 10.74773431 -4.1875 13.9375 C-2.79134353 17.53811406 -0.8832744 19.67690239 1.8203125 22.38671875 C2.40425781 23.18529297 2.40425781 23.18529297 3 24 C2.67 24.99 2.34 25.98 2 27 C-1.99969431 24.11133189 -4.34067722 21.12653535 -7 17 C-7.66 16.67 -8.32 16.34 -9 16 C-9.39832031 16.87398437 -9.39832031 16.87398437 -9.8046875 17.765625 C-11.03302996 20.06174228 -12.40314939 21.80356018 -14.125 23.75 C-14.93324219 24.67039063 -14.93324219 24.67039063 -15.7578125 25.609375 C-16.16773438 26.06828125 -16.57765625 26.5271875 -17 27 C-17.66 26.67 -18.32 26.34 -19 26 C-18.24859261 21.68422424 -15.94916518 19.26721791 -13.1796875 16 C-11.77138686 14.07821943 -11.77138686 14.07821943 -12.265625 11.88671875 C-13.07523922 9.80669924 -13.82003137 7.90106058 -15 6 C-15.99 5.67 -16.98 5.34 -18 5 C-17.67 3.68 -17.34 2.36 -17 1 C-15.84775972 1.92961422 -14.70340824 2.8690125 -13.5625 3.8125 C-12.92441406 4.33457031 -12.28632813 4.85664063 -11.62890625 5.39453125 C-10 7 -10 7 -9 10 C-5.73991357 6.83047153 -2.77762123 3.60062011 0 0 Z " fill="#9da3b9" transform="translate(242,127)"/>
<path d="M0 0 C-0.515625 0.556875 -1.03125 1.11375 -1.5625 1.6875 C-3.30502474 3.93035106 -3.30502474 3.93035106 -2.58984375 6.64453125 C-2.29787109 7.81048828 -2.29787109 7.81048828 -2 9 C-1.32453125 9.17015625 -0.6490625 9.3403125 0.046875 9.515625 C9.54630552 12.09639514 9.54630552 12.09639514 12 16 C12.5 19 12.5 19 12 22 C10 24.375 10 24.375 8 26 C7.01 25.67 6.02 25.34 5 25 C5.66 24.01 6.32 23.02 7 22 C7.16713569 19.37468476 7.16713569 19.37468476 7 17 C6.15695312 16.66226563 5.31390625 16.32453125 4.4453125 15.9765625 C3.34960938 15.53054687 2.25390625 15.08453125 1.125 14.625 C-0.51082031 13.96371094 -0.51082031 13.96371094 -2.1796875 13.2890625 C-5 12 -5 12 -7 10 C-7.27928896 7.06746594 -7.48198206 4.84543625 -7 2 C-4.39920807 -0.95952185 -3.80493073 -1.26831024 0 0 Z " fill="#9da3b9" transform="translate(329,128)"/>
<path d="M0 0 C2.475 0.99 2.475 0.99 5 2 C4.67 2.639375 4.34 3.27875 4 3.9375 C2.45199343 8.67827013 1.92485241 13.44301855 3.8984375 18.13671875 C4.853096 19.80567847 5.91791826 21.41069245 7 23 C4 23 4 23 2 22 C2 25.63 2 29.26 2 33 C1.01 33 0.02 33 -1 33 C-1.02465392 28.46102295 -1.04283789 23.92208457 -1.05493164 19.38305664 C-1.0599714 17.83780234 -1.0668032 16.29255284 -1.07543945 14.74731445 C-1.08752076 12.53074971 -1.09323173 10.31424782 -1.09765625 8.09765625 C-1.10281754 7.4028566 -1.10797882 6.70805695 -1.11329651 5.99220276 C-1.11349277 4.3277067 -1.06189129 2.66334501 -1 1 C-0.67 0.67 -0.34 0.34 0 0 Z " fill="#9da3b9" transform="translate(251,129)"/>
<path d="M0 0 C-0.515625 0.556875 -1.03125 1.11375 -1.5625 1.6875 C-3.234504 3.90206788 -3.234504 3.90206788 -2.92578125 6.51171875 C-2.2344732 9.21753501 -2.2344732 9.21753501 0.3984375 10.2578125 C1.38070313 10.54398438 2.36296875 10.83015625 3.375 11.125 C9.91725085 13.07559194 9.91725085 13.07559194 12 16 C11.87059529 19.6233318 11.75012072 22.06985031 9.4375 24.9375 C8.963125 25.288125 8.48875 25.63875 8 26 C7.01 25.67 6.02 25.34 5 25 C5.53625 24.2575 6.0725 23.515 6.625 22.75 C8.29584231 20.17786205 8.29584231 20.17786205 7.4296875 17.9609375 C5.47530892 15.28034174 3.63674608 14.8572968 0.5 13.875 C-4.81853282 12.18146718 -4.81853282 12.18146718 -7 10 C-7.27928896 7.06746594 -7.48198206 4.84543625 -7 2 C-4.39920807 -0.95952185 -3.80493073 -1.26831024 0 0 Z " fill="#9da3b9" transform="translate(352,128)"/>
<path d="M0 0 C0.99 0.33 1.98 0.66 3 1 C3 12.88 3 24.76 3 37 C1.68 37 0.36 37 -1 37 C-1.0246501 31.89136104 -1.04283607 26.78275641 -1.05493164 21.67407227 C-1.05997204 19.93480832 -1.0668043 18.19554864 -1.07543945 16.45629883 C-1.08751792 13.96174063 -1.09323108 11.46723827 -1.09765625 8.97265625 C-1.10281754 8.19036148 -1.10797882 7.40806671 -1.11329651 6.60206604 C-1.11349226 4.73432886 -1.06199694 2.86670796 -1 1 C-0.67 0.67 -0.34 0.34 0 0 Z " fill="#9da3b9" transform="translate(197,116)"/>
<path d="M0 0 C-1 3 -1 3 -2.5 4.25 C-5.50464413 7.75541816 -5.04002768 12.22613158 -4.8125 16.625 C-3.91528915 20.35187583 -2.60041023 22.23182137 0 25 C-1.32 25.33 -2.64 25.66 -4 26 C-7.23835819 23.17607456 -9.66991712 20.63367109 -10.5390625 16.33203125 C-10.72846707 10.09028983 -9.80362324 5.96584145 -6 1 C-2.68292683 -1.34146341 -2.68292683 -1.34146341 0 0 Z " fill="#9da3b9" transform="translate(304,128)"/>
<path d="M0 0 C0.7734375 0.3403125 0.7734375 0.3403125 1.5625 0.6875 C0.18986683 3.43276635 -1.84342747 4.13105648 -4.4375 5.6875 C-6.0873007 8.98710141 -5.82008361 12.67877884 -6 16.3125 C-6.04318359 17.11429688 -6.08636719 17.91609375 -6.13085938 18.7421875 C-6.23701457 20.7237511 -6.33776855 22.70560271 -6.4375 24.6875 C-7.4275 24.6875 -8.4175 24.6875 -9.4375 24.6875 C-9.4375 17.4275 -9.4375 10.1675 -9.4375 2.6875 C-2.4375 -0.3125 -2.4375 -0.3125 0 0 Z " fill="#9da3b9" transform="translate(290.4375,127.3125)"/>
<path d="M0 0 C3.55215477 1.42086191 5.6281193 2.47936702 7.875 5.625 C9.72730186 11.18190559 9.7589547 15.84297086 7.8125 21.375 C5.8304416 24.24556733 4.1124291 25.4858453 1 27 C1 24 1 24 2.4375 22.5 C2.953125 22.005 3.46875 21.51 4 21 C4.92350727 18.22947819 5.16329585 16.43311242 5.1875 13.5625 C5.20876953 12.41974609 5.20876953 12.41974609 5.23046875 11.25390625 C4.75617386 6.61546301 2.31580432 4.0947507 -1 1 C-0.67 0.67 -0.34 0.34 0 0 Z " fill="#9da3b9" transform="translate(265,127)"/>
<path d="M0 0 C2.99252188 0.20638082 4.04558058 1.04304832 6.25 3.125 C8.39717586 6.6525032 8.3183515 8.9410184 8 13 C7.01 13 6.02 13 5 13 C4.566875 11.7625 4.13375 10.525 3.6875 9.25 C2.50868303 6.08403441 1.24768753 3.56878575 -1 1 C-0.67 0.67 -0.34 0.34 0 0 Z " fill="#9da3b9" transform="translate(309,127)"/>
<path d="M0 0 C0.99 0.33 1.98 0.66 3 1 C0.375 5.875 0.375 5.875 -3 7 C-3 3 -3 3 -1.5 1.25 C-1.005 0.8375 -0.51 0.425 0 0 Z " fill="#9da3b9" transform="translate(314,147)"/>
<path d="M0 0 C0.99 0.33 1.98 0.66 3 1 C4.1875 3.5625 4.1875 3.5625 5 6 C4.01 6.495 4.01 6.495 3 7 C1.68 5.68 0.36 4.36 -1 3 C-0.67 2.01 -0.34 1.02 0 0 Z " fill="#9da3b9" transform="translate(345,147)"/>
<path d="M0 0 C0.99 0.33 1.98 0.66 3 1 C4.1875 3.5625 4.1875 3.5625 5 6 C4.01 6.495 4.01 6.495 3 7 C1.68 5.68 0.36 4.36 -1 3 C-0.67 2.01 -0.34 1.02 0 0 Z " fill="#9da3b9" transform="translate(322,147)"/>
<path d="M0 0 C2.5 1.3125 2.5 1.3125 5 3 C5 3.99 5 4.98 5 6 C1.83884224 4.63016497 1.0072908 4.0109362 -1 1 C-0.67 0.67 -0.34 0.34 0 0 Z " fill="#9da3b9" transform="translate(357,127)"/>
<path d="M0 0 C2.5 1.3125 2.5 1.3125 5 3 C5 3.99 5 4.98 5 6 C1.83884224 4.63016497 1.0072908 4.0109362 -1 1 C-0.67 0.67 -0.34 0.34 0 0 Z " fill="#9da3b9" transform="translate(334,127)"/>
<path d="M0 0 C0.66 0.66 1.32 1.32 2 2 C0.68 2.99 -0.64 3.98 -2 5 C-2 3.68 -2 2.36 -2 1 C-1.34 0.67 -0.68 0.34 0 0 Z " fill="#9da3b9" transform="translate(385,95)"/>
<path d="M0 0 C1.98 0.495 1.98 0.495 4 1 C3.67 1.99 3.34 2.98 3 4 C1.68 3.34 0.36 2.68 -1 2 C-0.67 1.34 -0.34 0.68 0 0 Z " fill="#9da3b9" transform="translate(375,85)"/>
</svg>
