<?xml version="1.0" encoding="UTF-8"?>
<svg version="1.1" xmlns="http://www.w3.org/2000/svg" width="145" height="65">
<path d="M0 0 C47.85 0 95.7 0 145 0 C145 21.45 145 42.9 145 65 C97.15 65 49.3 65 0 65 C0 43.55 0 22.1 0 0 Z " fill="#F9F9F9" transform="translate(0,0)"/>
<path d="M0 0 C1.65125885 0.0001133 1.65125885 0.0001133 3.33587646 0.00022888 C4.51828918 0.00539017 5.7007019 0.01055145 6.91894531 0.01586914 C8.13406799 0.01728409 9.34919067 0.01869904 10.60113525 0.02015686 C14.48313862 0.02575551 18.36508437 0.0383078 22.24707031 0.05102539 C24.8785799 0.05604056 27.51009038 0.06060344 30.14160156 0.06469727 C36.59346455 0.07487371 43.04520291 0.09444957 49.49707031 0.11352539 C49.49707031 11.33352539 49.49707031 22.55352539 49.49707031 34.11352539 C45.86707031 34.11352539 42.23707031 34.11352539 38.49707031 34.11352539 C38.49707031 33.12352539 38.49707031 32.13352539 38.49707031 31.11352539 C37.67207031 31.60852539 36.84707031 32.10352539 35.99707031 32.61352539 C31.90847118 34.36578216 28.8732851 34.89249162 24.49707031 34.11352539 C19.69830952 31.71414499 16.82663062 28.95184295 14.49707031 24.11352539 C13.5948346 17.79787543 14.1368948 14.71381791 17.49707031 9.11352539 C11.55707031 9.11352539 5.61707031 9.11352539 -0.50292969 9.11352539 C1.14707031 10.76352539 2.79707031 12.41352539 4.49707031 14.11352539 C7.70684087 17.32329595 9.82174113 19.61102186 10.12207031 24.17602539 C9.37895322 28.85766308 8.20836902 30.26531941 4.49707031 33.11352539 C1.61441882 34.07440922 -0.1795524 34.2302348 -3.17089844 34.21118164 C-4.06357422 34.20795898 -4.95625 34.20473633 -5.87597656 34.20141602 C-7.26913086 34.18884766 -7.26913086 34.18884766 -8.69042969 34.17602539 C-10.10098633 34.16925781 -10.10098633 34.16925781 -11.54003906 34.16235352 C-13.86102977 34.15057184 -16.18198776 34.13263653 -18.50292969 34.11352539 C-18.50292969 31.14352539 -18.50292969 28.17352539 -18.50292969 25.11352539 C-13.55292969 25.11352539 -8.60292969 25.11352539 -3.50292969 25.11352539 C-4.85369069 21.06124238 -7.34112671 19.56783742 -10.59277344 16.92993164 C-13.23102465 14.42116515 -14.30170952 12.23460921 -14.94042969 8.67602539 C-14.29715503 4.90827381 -12.40336528 3.48660906 -9.50292969 1.11352539 C-6.32941365 0.01364549 -3.34002991 -0.00766062 0 0 Z " fill="#FA671B" transform="translate(95.5029296875,2.886474609375)"/>
<path d="M0 0 C1.65125885 0.0001133 1.65125885 0.0001133 3.33587646 0.00022888 C4.51828918 0.00539017 5.7007019 0.01055145 6.91894531 0.01586914 C8.13406799 0.01728409 9.34919067 0.01869904 10.60113525 0.02015686 C14.48313862 0.02575551 18.36508437 0.0383078 22.24707031 0.05102539 C24.8785799 0.05604056 27.51009038 0.06060344 30.14160156 0.06469727 C36.59344415 0.0757245 43.04525311 0.09246131 49.49707031 0.11352539 C49.49707031 0.77352539 49.49707031 1.43352539 49.49707031 2.11352539 C32.33707031 2.11352539 15.17707031 2.11352539 -2.50292969 2.11352539 C-2.83292969 3.43352539 -3.16292969 4.75352539 -3.50292969 6.11352539 C-4.16292969 6.11352539 -4.82292969 6.11352539 -5.50292969 6.11352539 C-5.50292969 7.10352539 -5.50292969 8.09352539 -5.50292969 9.11352539 C-6.82292969 9.11352539 -8.14292969 9.11352539 -9.50292969 9.11352539 C-9.50292969 9.77352539 -9.50292969 10.43352539 -9.50292969 11.11352539 C-8.76042969 10.78352539 -8.01792969 10.45352539 -7.25292969 10.11352539 C-4.50292969 9.11352539 -4.50292969 9.11352539 -0.50292969 9.11352539 C1.93457031 11.23852539 1.93457031 11.23852539 4.49707031 14.11352539 C5.42519531 15.04165039 6.35332031 15.96977539 7.30957031 16.92602539 C10.26442559 21.23167166 10.31233053 22.97738599 9.49707031 28.11352539 C6.96253375 31.33307184 5.38409727 32.81784974 1.49707031 34.11352539 C-0.05714698 34.19459225 -1.61459996 34.22109437 -3.17089844 34.21118164 C-4.06357422 34.20795898 -4.95625 34.20473633 -5.87597656 34.20141602 C-7.26913086 34.18884766 -7.26913086 34.18884766 -8.69042969 34.17602539 C-10.10098633 34.16925781 -10.10098633 34.16925781 -11.54003906 34.16235352 C-13.86102977 34.15057184 -16.18198776 34.13263653 -18.50292969 34.11352539 C-18.50292969 31.14352539 -18.50292969 28.17352539 -18.50292969 25.11352539 C-13.55292969 25.11352539 -8.60292969 25.11352539 -3.50292969 25.11352539 C-4.85369069 21.06124238 -7.34112671 19.56783742 -10.59277344 16.92993164 C-13.23102465 14.42116515 -14.30170952 12.23460921 -14.94042969 8.67602539 C-14.29715503 4.90827381 -12.40336528 3.48660906 -9.50292969 1.11352539 C-6.32941365 0.01364549 -3.34002991 -0.00766062 0 0 Z " fill="#EF6E2B" transform="translate(95.5029296875,2.886474609375)"/>
<path d="M0 0 C0.33 0.66 0.66 1.32 1 2 C2.32 1.34 3.64 0.68 5 0 C5 3 5 3 3.5 4.6875 C3.005 5.120625 2.51 5.55375 2 6 C4.97 6.495 4.97 6.495 8 7 C7.67 5.35 7.34 3.7 7 2 C11.29 2 15.58 2 20 2 C20 6.62 20 11.24 20 16 C17.525 15.505 17.525 15.505 15 15 C13.35 16.98 11.7 18.96 10 21 C8.68 20.67 7.36 20.34 6 20 C6 21.32 6 22.64 6 24 C9.3 24.33 12.6 24.66 16 25 C14 27 14 27 10.25 27.375 C5.83757033 27.24710349 3.37669124 25.91623334 0 23 C-3.97101901 18.61097899 -4.44257263 15.14847586 -4.43359375 9.46484375 C-4 7 -4 7 -1 2 C-6.94 2 -12.88 2 -19 2 C-19 1.67 -19 1.34 -19 1 C-16.20837429 0.83262201 -13.41670379 0.66606598 -10.625 0.5 C-9.8309375 0.45230469 -9.036875 0.40460937 -8.21875 0.35546875 C-2.2265625 0 -2.2265625 0 0 0 Z " fill="#F56C23" transform="translate(114,10)"/>
<path d="M0 0 C0.94875 0.350625 1.8975 0.70125 2.875 1.0625 C2.875 4.6925 2.875 8.3225 2.875 12.0625 C-2.61029741 15.53409188 -7.23993536 15.42413875 -13.5 15.25 C-14.42683594 15.23646484 -15.35367188 15.22292969 -16.30859375 15.20898438 C-18.58098208 15.17384435 -20.85306862 15.12004423 -23.125 15.0625 C-23.125 12.0925 -23.125 9.1225 -23.125 6.0625 C-17.845 6.0625 -12.565 6.0625 -7.125 6.0625 C-6.465 4.0825 -5.805 2.1025 -5.125 0.0625 C-3.125 -0.9375 -3.125 -0.9375 0 0 Z " fill="#F56B23" transform="translate(100.125,21.9375)"/>
<path d="M0 0 C18.81 0 37.62 0 57 0 C57 0.99 57 1.98 57 3 C56.32650009 3.00808685 55.65300018 3.01617371 54.95909119 3.02450562 C47.93453435 3.11071829 40.91025428 3.21022924 33.88598633 3.31738281 C31.26624203 3.3556107 28.64644635 3.39047427 26.02661133 3.421875 C22.25583564 3.46765941 18.48541178 3.525633 14.71484375 3.5859375 C13.54791489 3.59748871 12.38098602 3.60903992 11.17869568 3.62094116 C5.41991842 3.72490609 0.43523157 4.04290461 -5 6 C-5.66 8.64 -6.32 11.28 -7 14 C-7.66 14 -8.32 14 -9 14 C-8.5020163 10.26512223 -8.12508244 8.18762365 -6 5 C-5.34 5 -4.68 5 -4 5 C-4 4.34 -4 3.68 -4 3 C-3.01 3 -2.02 3 -1 3 C-0.67 2.01 -0.34 1.02 0 0 Z " fill="#FCF0E3" transform="translate(88,0)"/>
<path d="M0 0 C5.94 0 11.88 0 18 0 C17.34 1.65 16.68 3.3 16 5 C15.72417774 7.53050383 15.72417774 7.53050383 15.8125 10.0625 C15.81894531 10.89910156 15.82539062 11.73570313 15.83203125 12.59765625 C15.98971337 14.85287725 16.37442188 16.8329974 17 19 C16.01 19 15.02 19 14 19 C13.67 18.34 13.34 17.68 13 17 C12.3503125 18.2375 12.3503125 18.2375 11.6875 19.5 C10.8521875 20.7375 10.8521875 20.7375 10 22 C9.01 22 8.02 22 7 22 C7.66 21.01 8.32 20.02 9 19 C9.57166436 13.30595624 9.57166436 13.30595624 7.3125 8.25 C5.00108745 5.92635107 5.00108745 5.92635107 2.25 3.8125 C1.5075 3.214375 0.765 2.61625 0 2 C0 1.34 0 0.68 0 0 Z " fill="#F8F5F2" transform="translate(95,12)"/>
<path d="M0 0 C3.96 0 7.92 0 12 0 C12 3.96 12 7.92 12 12 C10.68 11.34 9.36 10.68 8 10 C6.35 11.65 4.7 13.3 3 15 C0.37812506 13.95125002 -0.79371361 13.35068687 -2.25 10.875 C-2.4975 10.25625 -2.745 9.6375 -3 9 C-1.35 7.02 0.3 5.04 2 3 C1.34 2.01 0.68 1.02 0 0 Z " fill="#FBE8DA" transform="translate(122,12)"/>
<path d="M0 0 C3 1.8125 3 1.8125 6 4 C6 4.99 6 5.98 6 7 C1.05 7 -3.9 7 -9 7 C-9 9.97 -9 12.94 -9 16 C-5.77056968 15.8588063 -2.54153682 15.71222005 0.6875 15.5625 C1.59951172 15.52318359 2.51152344 15.48386719 3.45117188 15.44335938 C4.78051758 15.38051758 4.78051758 15.38051758 6.13671875 15.31640625 C6.94842529 15.27974854 7.76013184 15.24309082 8.59643555 15.20532227 C11.12144485 14.98962569 13.52600697 14.54100548 16 14 C16 14.66 16 15.32 16 16 C14.68 16 13.36 16 12 16 C12 16.66 12 17.32 12 18 C8.73012965 18.22587773 5.45920719 18.42766605 2.1875 18.625 C0.7943457 18.72167969 0.7943457 18.72167969 -0.62695312 18.8203125 C-1.51962891 18.871875 -2.41230469 18.9234375 -3.33203125 18.9765625 C-4.56530151 19.05511475 -4.56530151 19.05511475 -5.82348633 19.13525391 C-8 19 -8 19 -11 17 C-11.41620943 13.30406029 -11.13007474 9.72880913 -11 6 C-5.555 5.505 -5.555 5.505 0 5 C0 3.35 0 1.7 0 0 Z " fill="#FEEBD8" transform="translate(86,21)"/>
<path d="M0 0 C0 0.99 0 1.98 0 3 C3.63 3 7.26 3 11 3 C11 3.66 11 4.32 11 5 C7.37 5 3.74 5 0 5 C-0.33 6.65 -0.66 8.3 -1 10 C-2.65 10 -4.3 10 -6 10 C-6 9.34 -6 8.68 -6 8 C-6.66 8 -7.32 8 -8 8 C-8.33 7.34 -8.66 6.68 -9 6 C-10.64363134 5.27840576 -12.31050386 4.60648579 -14 4 C-14 3.67 -14 3.34 -14 3 C-13.30132812 2.86722656 -12.60265625 2.73445313 -11.8828125 2.59765625 C-10.51769531 2.33275391 -10.51769531 2.33275391 -9.125 2.0625 C-8.22007813 1.88847656 -7.31515625 1.71445312 -6.3828125 1.53515625 C-4.0328149 1.0073699 -2.39804152 0 0 0 Z " fill="#F9F5F1" transform="translate(134,34)"/>
<path d="M0 0 C3.34243648 1.89404734 3.97997149 2.94091591 5.25 6.6875 C5.4975 7.780625 5.745 8.87375 6 10 C2.37 10 -1.26 10 -5 10 C-5 8.33333333 -5 6.66666667 -5 5 C-4.01 4.67 -3.02 4.34 -2 4 C-2 3.01 -2 2.02 -2 1 C-1.34 0.67 -0.68 0.34 0 0 Z " fill="#FAF2EC" transform="translate(82,17)"/>
<path d="M0 0 C5.94 0 11.88 0 18 0 C17.67 0.66 17.34 1.32 17 2 C13.04 2 9.08 2 5 2 C5.99 3.32 6.98 4.64 8 6 C7.67 6.66 7.34 7.32 7 8 C5.8274869 7.04882866 4.66212985 6.08882991 3.5 5.125 C2.8503125 4.59132813 2.200625 4.05765625 1.53125 3.5078125 C1.0259375 3.01023437 0.520625 2.51265625 0 2 C0 1.34 0 0.68 0 0 Z " fill="#FCD3BA" transform="translate(95,12)"/>
<path d="M0 0 C0 0.99 0 1.98 0 3 C3.63 3 7.26 3 11 3 C11 3.66 11 4.32 11 5 C6.71 5 2.42 5 -2 5 C-2 4.34 -2 3.68 -2 3 C-3.32 2.67 -4.64 2.34 -6 2 C-2.25 0 -2.25 0 0 0 Z " fill="#FDEAD6" transform="translate(134,34)"/>
<path d="M0 0 C0.33 0 0.66 0 1 0 C1 1.65 1 3.3 1 5 C0.34 5 -0.32 5 -1 5 C-1 7.31 -1 9.62 -1 12 C-0.34 12 0.32 12 1 12 C1 13.32 1 14.64 1 16 C1.66 16 2.32 16 3 16 C4.625 18.5 4.625 18.5 6 21 C1.72316502 19.47255894 -0.00037651 16.99924698 -2 13 C-2.63727624 8.00282166 -2.83768574 4.25652862 0 0 Z " fill="#E77941" transform="translate(112,14)"/>
<path d="M0 0 C3 1.8125 3 1.8125 6 4 C6 4.99 6 5.98 6 7 C1.05 7 -3.9 7 -9 7 C-9 6.67 -9 6.34 -9 6 C-4.545 5.505 -4.545 5.505 0 5 C0 3.35 0 1.7 0 0 Z " fill="#F7CEB1" transform="translate(86,21)"/>
<path d="M0 0 C0.66 0 1.32 0 2 0 C2 0.66 2 1.32 2 2 C2.66 2 3.32 2 4 2 C4.08121924 3.60332791 4.13929134 5.20784026 4.1875 6.8125 C4.22230469 7.70582031 4.25710937 8.59914063 4.29296875 9.51953125 C3.95081002 12.41647515 3.24606427 13.22555028 1 15 C0.34 14.67 -0.32 14.34 -1 14 C-0.34 13.01 0.32 12.02 1 11 C1.27785432 9.04620501 1.27785432 9.04620501 1.1875 7 C1.18105469 6.319375 1.17460938 5.63875 1.16796875 4.9375 C1.05697746 2.78241791 1.05697746 2.78241791 0 0 Z " fill="#FEE3CE" transform="translate(103,20)"/>
<path d="M0 0 C2.32037422 1.74028066 3.83707038 3.04136757 4.3359375 5.9765625 C4.375 8.125 4.375 8.125 4 12 C3.34 12.66 2.68 13.32 2 14 C2 10.7 2 7.4 2 4 C1.34 4 0.68 4 0 4 C0 2.68 0 1.36 0 0 Z " fill="#E97236" transform="translate(101,19)"/>
<path d="M0 0 C1.32 0.99 2.64 1.98 4 3 C3.67 3.66 3.34 4.32 3 5 C2.4225 4.7525 1.845 4.505 1.25 4.25 C0.5075 4.1675 -0.235 4.085 -1 4 C-3.27144074 5.85432087 -3.27144074 5.85432087 -5 8 C-5.99 7.67 -6.98 7.34 -8 7 C-6.72530598 4.45061196 -5.50840774 4.25420387 -3 3 C-1.29078411 1.4587688 -1.29078411 1.4587688 0 0 Z " fill="#E87437" transform="translate(130,21)"/>
<path d="M0 0 C1.32 1.32 2.64 2.64 4 4 C1.03 6.475 1.03 6.475 -2 9 C-2.33 7.35 -2.66 5.7 -3 4 C-1.68 4.33 -0.36 4.66 1 5 C0.67 3.35 0.34 1.7 0 0 Z " fill="#EB7134" transform="translate(121,12)"/>
<path d="M0 0 C0.99 0 1.98 0 3 0 C2.83628906 0.53109375 2.67257813 1.0621875 2.50390625 1.609375 C1.88643623 4.53876764 1.90498075 7.25822936 1.9375 10.25 C1.94652344 11.32765625 1.95554687 12.4053125 1.96484375 13.515625 C1.97644531 14.33546875 1.98804687 15.1553125 2 16 C1.34 15.67 0.68 15.34 0 15 C0 10.05 0 5.1 0 0 Z " fill="#FFEAD7" transform="translate(109,13)"/>
<path d="M0 0 C2.64 1.65 5.28 3.3 8 5 C6.02 5.99 6.02 5.99 4 7 C3.01 6.67 2.02 6.34 1 6 C0.67 4.02 0.34 2.04 0 0 Z " fill="#FBEDDE" transform="translate(112,31)"/>
</svg>
