<?xml version="1.0" encoding="UTF-8"?>
<svg version="1.1" xmlns="http://www.w3.org/2000/svg" width="395" height="91">
<path d="M0 0 C130.35 0 260.7 0 395 0 C395 30.03 395 60.06 395 91 C264.65 91 134.3 91 0 91 C0 60.97 0 30.94 0 0 Z " fill="#F4F4F4" transform="translate(0,0)"/>
<path d="M0 0 C0.495 3.96 0.495 3.96 1 8 C2.32 7.34 3.64 6.68 5 6 C6.32 7.65 7.64 9.3 9 11 C9.886875 10.175 10.77375 9.35 11.6875 8.5 C14.01307407 6.53900524 14.74787194 6.02740522 17.875 5.6875 C18.57625 5.790625 19.2775 5.89375 20 6 C20.99 7.98 20.99 7.98 22 10 C29.59 10 37.18 10 45 10 C45 8.68 45 7.36 45 6 C45.66 6 46.32 6 47 6 C47 7.32 47 8.64 47 10 C47.99 10 48.98 10 50 10 C50 7.03 50 4.06 50 1 C50.66 1 51.32 1 52 1 C52 3.97 52 6.94 52 10 C52.66 9.67 53.32 9.34 54 9 C54 8.01 54 7.02 54 6 C56.31 6 58.62 6 61 6 C61.495 7.485 61.495 7.485 62 9 C62.99 9.495 62.99 9.495 64 10 C64 8.68 64 7.36 64 6 C64.66 6 65.32 6 66 6 C66 7.32 66 8.64 66 10 C66.99 10 67.98 10 69 10 C69 7.03 69 4.06 69 1 C69.66 1 70.32 1 71 1 C71 4.96 71 8.92 71 13 C69.57945312 12.98839844 68.15890625 12.97679687 66.6953125 12.96484375 C64.83854298 12.95546613 62.98177204 12.9463659 61.125 12.9375 C60.18785156 12.92912109 59.25070312 12.92074219 58.28515625 12.91210938 C57.38925781 12.90888672 56.49335938 12.90566406 55.5703125 12.90234375 C54.74289551 12.89710693 53.91547852 12.89187012 53.06298828 12.88647461 C50.93588243 12.86647862 50.93588243 12.86647862 49 14 C47.42451317 16.62581138 47 17.87099787 47 21 C47.66 21 48.32 21 49 21 C49 20.34 49 19.68 49 19 C49.99 19 50.98 19 52 19 C52 23.29 52 27.58 52 32 C48.33333333 32 44.66666667 32 41 32 C41 30.02 41 28.04 41 26 C40.01 26 39.02 26 38 26 C38 27.98 38 29.96 38 32 C34.7 32 31.4 32 28 32 C28.33 30.35 28.66 28.7 29 27 C27.68 26.34 26.36 25.68 25 25 C24.01 28.465 24.01 28.465 23 32 C22.01 32 21.02 32 20 32 C20 30.02 20 28.04 20 26 C19.34 26.33 18.68 26.66 18 27 C17.34444881 29.52733235 17.34444881 29.52733235 17 32 C16.34 32 15.68 32 15 32 C14.505 31.01 14.505 31.01 14 30 C13.34 30.66 12.68 31.32 12 32 C7.44444444 31.44444444 7.44444444 31.44444444 6 30 C5.67 30.66 5.34 31.32 5 32 C4.34 32 3.68 32 3 32 C2.505 29.03 2.505 29.03 2 26 C1.34 26 0.68 26 0 26 C0 27.32 0 28.64 0 30 C0.66 30 1.32 30 2 30 C2 30.66 2 31.32 2 32 C1.195625 31.814375 0.39125 31.62875 -0.4375 31.4375 C-1.283125 31.293125 -2.12875 31.14875 -3 31 C-3.495 31.495 -3.495 31.495 -4 32 C-6.31143967 32.07305435 -8.62500269 32.08362942 -10.9375 32.0625 C-12.20464844 32.05347656 -13.47179687 32.04445312 -14.77734375 32.03515625 C-15.84082031 32.02355469 -16.90429688 32.01195312 -18 32 C-19.66718742 32 -21.33425791 32.05559408 -23 32.125 C-26 32 -26 32 -28 30 C-28.33 30.66 -28.66 31.32 -29 32 C-30.99954746 32.04254356 -33.00041636 32.04080783 -35 32 C-36 31 -36 31 -36.1875 28.5625 C-36 26 -36 26 -34 24 C-33.01 24 -32.02 24 -31 24 C-31 23.236875 -31 22.47375 -31 21.6875 C-31 18.79166667 -31 15.89583333 -31 13 C-31.70608398 13.01047363 -32.41216797 13.02094727 -33.13964844 13.03173828 C-36.34306266 13.0733479 -39.54641996 13.09934204 -42.75 13.125 C-43.86117187 13.14175781 -44.97234375 13.15851562 -46.1171875 13.17578125 C-47.72207031 13.18544922 -47.72207031 13.18544922 -49.359375 13.1953125 C-50.34389648 13.20578613 -51.32841797 13.21625977 -52.34277344 13.22705078 C-55.05973111 12.99489618 -56.68112513 12.39036273 -59 11 C-59 10.34 -59 9.68 -59 9 C-59.66 9 -60.32 9 -61 9 C-60.67 11.97 -60.34 14.94 -60 18 C-60.66 18 -61.32 18 -62 18 C-62.33 14.7 -62.66 11.4 -63 8 C-59.77208445 5.8480563 -58.71599191 5.79913557 -55 6 C-54.34 7.32 -53.68 8.64 -53 10 C-45.41 10 -37.82 10 -30 10 C-30 8.68 -30 7.36 -30 6 C-29.34 6 -28.68 6 -28 6 C-28 7.65 -28 9.3 -28 11 C-27.01 11 -26.02 11 -25 11 C-25 7.7 -25 4.4 -25 1 C-24.34 1 -23.68 1 -23 1 C-23 4.3 -23 7.6 -23 11 C-22.01 10.67 -21.02 10.34 -20 10 C-20.495 8.02 -20.495 8.02 -21 6 C-18.69 6 -16.38 6 -14 6 C-14 7.32 -14 8.64 -14 10 C-13.01 10.33 -12.02 10.66 -11 11 C-11 9.35 -11 7.7 -11 6 C-10.34 6 -9.68 6 -9 6 C-9 7.32 -9 8.64 -9 10 C-8.34 10 -7.68 10 -7 10 C-7.495 7.525 -7.495 7.525 -8 5 C-9.32 5 -10.64 5 -12 5 C-12 4.34 -12 3.68 -12 3 C-10.35 3 -8.7 3 -7 3 C-7 2.34 -7 1.68 -7 1 C-2.25 0 -2.25 0 0 0 Z " fill="#E0E0E0" transform="translate(212,34)"/>
<path d="M0 0 C0.33 0.66 0.66 1.32 1 2 C1.99 1.67 2.98 1.34 4 1 C4.66 1.33 5.32 1.66 6 2 C6 2.99 6 3.98 6 5 C6.639375 5.268125 7.27875 5.53625 7.9375 5.8125 C10 7 10 7 11 10 C11 11.33333333 11 12.66666667 11 14 C11.845625 14.721875 12.69125 15.44375 13.5625 16.1875 C16 19 16 19 15.9375 22.1875 C15 25 15 25 13 27 C11.68 26.67 10.36 26.34 9 26 C9 29.3 9 32.6 9 36 C10.32 36.33 11.64 36.66 13 37 C12 38 12 38 10.23413086 38.11352539 C9.48526611 38.10828857 8.73640137 38.10305176 7.96484375 38.09765625 C7.15595703 38.09443359 6.34707031 38.09121094 5.51367188 38.08789062 C4.66353516 38.07951172 3.81339844 38.07113281 2.9375 38.0625 C2.08349609 38.05798828 1.22949219 38.05347656 0.34960938 38.04882812 C-1.76695663 38.03700373 -3.88348685 38.01906769 -6 38 C-4.68 37.34 -3.36 36.68 -2 36 C-2 30.06 -2 24.12 -2 18 C-5.75979645 16.63716826 -5.75979645 16.63716826 -8.25 17.9375 C-8.8275 18.288125 -9.405 18.63875 -10 19 C-9.67 17.68 -9.34 16.36 -9 15 C-10.65 14.67 -12.3 14.34 -14 14 C-13.835 13.401875 -13.67 12.80375 -13.5 12.1875 C-12.8885876 9.88655664 -12.8885876 9.88655664 -13 7 C-11.5 4.8125 -11.5 4.8125 -10 3 C-8.35 3.33 -6.7 3.66 -5 4 C-5 3.01 -5 2.02 -5 1 C-3 0 -3 0 0 0 Z " fill="#85203F" transform="translate(54,10)"/>
<path d="M0 0 C4.29358567 3.61051522 8.41871966 7.33785989 12.5 11.1875 C17.11210002 15.47770458 21.93438014 19.38200113 27 23.125 C27.63486328 23.59832764 28.26972656 24.07165527 28.92382812 24.55932617 C31.88731192 26.70705955 34.34665218 28.48115172 38 29 C40.67129189 27.59088009 40.67129189 27.59088009 43.25 25.5625 C44.14203125 24.90378906 45.0340625 24.24507812 45.953125 23.56640625 C46.62859375 23.04949219 47.3040625 22.53257813 48 22 C41.50577065 21.11942653 35.27525113 20.96855991 28.72265625 21.16015625 C26 21 26 21 24 19 C30.00748522 18.11899466 35.80863436 17.87627115 41.875 17.9375 C43.15503906 17.94426758 43.15503906 17.94426758 44.4609375 17.95117188 C46.02589347 17.95983856 47.59084049 17.9705721 49.15576172 17.98413086 C52.57154443 18.11936004 52.57154443 18.11936004 55.5 16 C58 14 58 14 60 14 C60.226875 13.43667969 60.45375 12.87335937 60.6875 12.29296875 C62.36672541 9.35932197 64.46554682 7.54119793 67 5.3125 C68.3303125 4.13107422 68.3303125 4.13107422 69.6875 2.92578125 C72 1 72 1 74 0 C72.51012501 5.06747289 69.4798577 8.01753382 65.8125 11.625 C65.20116211 12.23311523 64.58982422 12.84123047 63.95996094 13.46777344 C58.38495971 18.87872085 52.34544878 23.45147307 45.984375 27.890625 C43.04574171 29.84139199 43.04574171 29.84139199 41 32 C42.32 32.66 43.64 33.32 45 34 C45.33 33.01 45.66 32.02 46 31 C46.99 31 47.98 31 49 31 C48.67 32.32 48.34 33.64 48 35 C51.96 36.98 55.92 38.96 60 41 C60 45 60 45 59 47 C57.68 46.67 56.36 46.34 55 46 C55.33 44.68 55.66 43.36 56 42 C55.37351563 41.79503906 54.74703125 41.59007812 54.1015625 41.37890625 C53.28429688 41.10949219 52.46703125 40.84007812 51.625 40.5625 C50.81289063 40.29566406 50.00078125 40.02882812 49.1640625 39.75390625 C47 39 47 39 45 38 C45.33 38.99 45.66 39.98 46 41 C44.68 41 43.36 41 42 41 C42 39.68 42 38.36 42 37 C39.25799558 34.71215917 39.25799558 34.71215917 36.5625 35.25 C34.18047686 35.94717751 32.16453858 36.79747857 30 38 C30.33 38.99 30.66 39.98 31 41 C30.01 41 29.02 41 28 41 C28 40.34 28 39.68 28 39 C24.7 39.99 21.4 40.98 18 42 C18 43.65 18 45.3 18 47 C16.68 46.67 15.36 46.34 14 46 C13.67 44.35 13.34 42.7 13 41 C14.6029053 40.18501438 16.20737278 39.37310073 17.8125 38.5625 C18.70582031 38.11003906 19.59914063 37.65757813 20.51953125 37.19140625 C23 36 23 36 26 35 C25.34 34.01 24.68 33.02 24 32 C25.32 31.67 26.64 31.34 28 31 C28.33 31.99 28.66 32.98 29 34 C30.32 33.34 31.64 32.68 33 32 C32.17757812 31.38253906 31.35515625 30.76507813 30.5078125 30.12890625 C23.36563072 24.72738265 16.50903255 19.16425234 10 13 C9.06285156 12.11570312 8.12570312 11.23140625 7.16015625 10.3203125 C1.85385491 5.18518217 1.85385491 5.18518217 0 3 C0 2.01 0 1.02 0 0 Z " fill="#82314A" transform="translate(7,35)"/>
<path d="M0 0 C0.33 0 0.66 0 1 0 C1 3.63 1 7.26 1 11 C-2.3 11 -5.6 11 -9 11 C-9.33 11.99 -9.66 12.98 -10 14 C-11.65 14.33 -13.3 14.66 -15 15 C-15 15.66 -15 16.32 -15 17 C-15.66 17 -16.32 17 -17 17 C-17 17.66 -17 18.32 -17 19 C-15.68 18.67 -14.36 18.34 -13 18 C-13 22.29 -13 26.58 -13 31 C-18.61 31 -24.22 31 -30 31 C-30.29296875 21.8203125 -30.29296875 21.8203125 -30 19 C-29.01 18.34 -28.02 17.68 -27 17 C-25.63360658 15.3603279 -24.29486821 13.69672386 -23 12 C-23.63502441 12.01047363 -24.27004883 12.02094727 -24.92431641 12.03173828 C-27.8245034 12.07352467 -30.72462682 12.09939771 -33.625 12.125 C-34.62402344 12.14175781 -35.62304688 12.15851562 -36.65234375 12.17578125 C-41.84088709 12.21014246 -46.14923649 12.10254937 -51 10 C-51 6.72724974 -50.70074844 4.153368 -50 1 C-48.35 1 -46.7 1 -45 1 C-44 3 -44 3 -44 9 C-36.74 9 -29.48 9 -22 9 C-22 7.68 -22 6.36 -22 5 C-21.01 5 -20.02 5 -19 5 C-19 6.32 -19 7.64 -19 9 C-18.01 9 -17.02 9 -16 9 C-16 7.68 -16 6.36 -16 5 C-15.34 5 -14.68 5 -14 5 C-13.505 5.99 -13.505 5.99 -13 7 C-11.68 6.67 -10.36 6.34 -9 6 C-8.505 7.485 -8.505 7.485 -8 9 C-7.01 9 -6.02 9 -5 9 C-5 7.68 -5 6.36 -5 5 C-4.34 5 -3.68 5 -3 5 C-3 6.65 -3 8.3 -3 10 C-2.01 10 -1.02 10 0 10 C0 6.7 0 3.4 0 0 Z " fill="#EEEEEE" transform="translate(351,35)"/>
<path d="M0 0 C3.28408509 3.93186335 6.06794943 8.02431211 8.75 12.375 C9.36681641 13.32632812 9.36681641 13.32632812 9.99609375 14.296875 C12.69019822 18.68262647 13.4640589 21.71791786 13 27 C8.8803623 28.29243536 5.33168317 29.26252625 1 29 C1 29.66 1 30.32 1 31 C1.75925781 30.7834375 2.51851562 30.566875 3.30078125 30.34375 C4.29464844 30.0653125 5.28851563 29.786875 6.3125 29.5 C7.29863281 29.2215625 8.28476562 28.943125 9.30078125 28.65625 C12 28 12 28 15 28 C15.66 26.68 16.32 25.36 17 24 C17.33 24.66 17.66 25.32 18 26 C18.66 26.33 19.32 26.66 20 27 C19.360625 27.61875 18.72125 28.2375 18.0625 28.875 C15.96116416 30.82597612 15.96116416 30.82597612 15 33 C9.39 33 3.78 33 -2 33 C-6.72222451 22.76851356 -5.7494197 13.73764368 -1.97265625 3.30078125 C-1 1 -1 1 0 0 Z " fill="#841D3C" transform="translate(26,15)"/>
<path d="M0 0 C-1.485 2.475 -1.485 2.475 -3 5 C-1.02 5 0.96 5 3 5 C2.34 6.65 1.68 8.3 1 10 C2.65 9.01 4.3 8.02 6 7 C6 7.66 6 8.32 6 9 C6.99 9 7.98 9 9 9 C9 14.94 9 20.88 9 27 C7.35 27.66 5.7 28.32 4 29 C4.66 29.66 5.32 30.32 6 31 C1.125 30.125 1.125 30.125 0 29 C-0.04384447 27.33391013 -0.0396713 25.66619446 0 24 C0 23.01 0 22.02 0 21 C-0.66 21.99 -1.32 22.98 -2 24 C-4.49609375 24.94921875 -4.49609375 24.94921875 -7.4375 25.6875 C-8.40558594 25.93886719 -9.37367187 26.19023438 -10.37109375 26.44921875 C-13 27 -13 27 -16 27 C-16 26.34 -16 25.68 -16 25 C-14.35 24.67 -12.7 24.34 -11 24 C-11.99 23.34 -12.98 22.68 -14 22 C-11.03 22 -8.06 22 -5 22 C-4.4585441 16.5604507 -6.21787919 13.26226577 -9.0625 8.8125 C-10.48494984 6.56714529 -11.75985178 4.36009294 -13 2 C-12.67 1.01 -12.34 0.02 -12 -1 C-7.74256089 -2.76776276 -4.24952578 -1.2040323 0 0 Z " fill="#F7EFF3" transform="translate(43,19)"/>
<path d="M0 0 C0.66 1.32 1.32 2.64 2 4 C4.0745356 4.1490712 4.0745356 4.1490712 6 3 C7.44848582 2.91657841 8.90070869 2.89267139 10.3515625 2.90234375 C11.20234375 2.90556641 12.053125 2.90878906 12.9296875 2.91210938 C13.81914063 2.92048828 14.70859375 2.92886719 15.625 2.9375 C16.5221875 2.94201172 17.419375 2.94652344 18.34375 2.95117188 C20.56256648 2.96297409 22.78125018 2.97943845 25 3 C25 3.66 25 4.32 25 5 C23.03125 6.5078125 23.03125 6.5078125 20.5 8.125 C19.6646875 8.66382813 18.829375 9.20265625 17.96875 9.7578125 C17.3190625 10.16773438 16.669375 10.57765625 16 11 C16 10.34 16 9.68 16 9 C14.783125 9.165 13.56625 9.33 12.3125 9.5 C7.13708389 10.09241647 2.02286706 10.03589347 -3.1796875 9.9375 C-6.08087687 9.86299681 -6.08087687 9.86299681 -9 11 C-8.44538086 10.98952637 -7.89076172 10.97905273 -7.31933594 10.96826172 C-4.79627041 10.92657996 -2.27327747 10.90063562 0.25 10.875 C1.55904297 10.84986328 1.55904297 10.84986328 2.89453125 10.82421875 C3.73886719 10.81777344 4.58320312 10.81132813 5.453125 10.8046875 C6.22817383 10.79421387 7.00322266 10.78374023 7.80175781 10.77294922 C10.25883539 11.02673444 11.87311542 11.77555848 14 13 C12.58994275 14.15395711 11.17166542 15.29787466 9.75 16.4375 C8.96109375 17.07558594 8.1721875 17.71367188 7.359375 18.37109375 C3.57928373 20.98085875 3.57928373 20.98085875 1 21 C-1.31646689 19.68940634 -3.31827712 18.38920182 -5.4375 16.8125 C-5.99759766 16.41224609 -6.55769531 16.01199219 -7.13476562 15.59960938 C-8.77195924 14.42090638 -10.38634858 13.21073234 -12 12 C-12.96035156 11.32324219 -13.92070312 10.64648438 -14.91015625 9.94921875 C-15.59980469 9.30597656 -16.28945313 8.66273437 -17 8 C-17 6.68 -17 5.36 -17 4 C-11.72 4 -6.44 4 -1 4 C-0.67 2.68 -0.34 1.36 0 0 Z " fill="#D0A0B0" transform="translate(42,44)"/>
<path d="M0 0 C0.66 0 1.32 0 2 0 C2 3.3 2 6.6 2 10 C2.99 9.67 3.98 9.34 5 9 C4.505 7.02 4.505 7.02 4 5 C6.31 5 8.62 5 11 5 C11 6.32 11 7.64 11 9 C11.99 9.33 12.98 9.66 14 10 C14 8.35 14 6.7 14 5 C14.66 5 15.32 5 16 5 C16 6.32 16 7.64 16 9 C16.66 9 17.32 9 18 9 C17.505 6.525 17.505 6.525 17 4 C15.68 4 14.36 4 13 4 C13 3.34 13 2.68 13 2 C14.65 2 16.3 2 18 2 C18 1.34 18 0.68 18 0 C18.99 0 19.98 0 21 0 C21 3.63 21 7.26 21 11 C13.41 11.33 5.82 11.66 -2 12 C-2 12.99 -2 13.98 -2 15 C-3.32 15 -4.64 15 -6 15 C-6 14.01 -6 13.02 -6 12 C-6.70608398 12.01047363 -7.41216797 12.02094727 -8.13964844 12.03173828 C-11.34306266 12.0733479 -14.54641996 12.09934204 -17.75 12.125 C-18.86117187 12.14175781 -19.97234375 12.15851562 -21.1171875 12.17578125 C-22.72207031 12.18544922 -22.72207031 12.18544922 -24.359375 12.1953125 C-25.34389648 12.20578613 -26.32841797 12.21625977 -27.34277344 12.22705078 C-30.05973111 11.99489618 -31.68112513 11.39036273 -34 10 C-34 9.34 -34 8.68 -34 8 C-34.66 8 -35.32 8 -36 8 C-35.67 10.97 -35.34 13.94 -35 17 C-35.66 17 -36.32 17 -37 17 C-37.33 13.7 -37.66 10.4 -38 7 C-34.77208445 4.8480563 -33.71599191 4.79913557 -30 5 C-29.34 6.32 -28.68 7.64 -28 9 C-20.41 9 -12.82 9 -5 9 C-5 7.68 -5 6.36 -5 5 C-4.34 5 -3.68 5 -3 5 C-3 6.65 -3 8.3 -3 10 C-2.01 10 -1.02 10 0 10 C0 6.7 0 3.4 0 0 Z " fill="#0C0C0C" transform="translate(187,35)"/>
<path d="M0 0 C0.66 0 1.32 0 2 0 C2 2.97 2 5.94 2 9 C2.66 8.67 3.32 8.34 4 8 C4 7.01 4 6.02 4 5 C6.31 5 8.62 5 11 5 C11.495 6.485 11.495 6.485 12 8 C12.66 8.33 13.32 8.66 14 9 C14 7.68 14 6.36 14 5 C14.66 5 15.32 5 16 5 C16 6.32 16 7.64 16 9 C16.99 9 17.98 9 19 9 C19 6.03 19 3.06 19 0 C19.66 0 20.32 0 21 0 C21 3.96 21 7.92 21 12 C3.18 11.67 -14.64 11.34 -33 11 C-33.33 10.01 -33.66 9.02 -34 8 C-34.66 8 -35.32 8 -36 8 C-35.34 10.97 -34.68 13.94 -34 17 C-34.99 16.67 -35.98 16.34 -37 16 C-38.33517241 8.59586207 -38.33517241 8.59586207 -36.875 6 C-34.46618158 4.71529684 -32.69027121 4.7818699 -30 5 C-29.34 6.32 -28.68 7.64 -28 9 C-20.41 9 -12.82 9 -5 9 C-5 7.68 -5 6.36 -5 5 C-4.34 5 -3.68 5 -3 5 C-3 6.32 -3 7.64 -3 9 C-2.01 9 -1.02 9 0 9 C0 6.03 0 3.06 0 0 Z " fill="#282828" transform="translate(262,35)"/>
<path d="M0 0 C1.65 0 3.3 0 5 0 C6 2 6 2 6 8 C13.26 8 20.52 8 28 8 C28 6.68 28 5.36 28 4 C28.99 4 29.98 4 31 4 C31 5.32 31 6.64 31 8 C31.99 8 32.98 8 34 8 C34 6.68 34 5.36 34 4 C34.66 4 35.32 4 36 4 C36 6.31 36 8.62 36 11 C34.68 11 33.36 11 32 11 C32 11.99 32 12.98 32 14 C30.35 14 28.7 14 27 14 C27 13.01 27 12.02 27 11 C26.36497559 11.01047363 25.72995117 11.02094727 25.07568359 11.03173828 C22.1754966 11.07352467 19.27537318 11.09939771 16.375 11.125 C15.37597656 11.14175781 14.37695312 11.15851562 13.34765625 11.17578125 C8.15911291 11.21014246 3.85076351 11.10254937 -1 9 C-1 5.72724974 -0.70074844 3.153368 0 0 Z " fill="#202020" transform="translate(301,36)"/>
<path d="M0 0 C0.495 0.99 0.495 0.99 1 2 C-19.86455696 26.62151899 -19.86455696 26.62151899 -33 31 C-33 30.01 -33 29.02 -33 28 C-31.25 26.39453125 -31.25 26.39453125 -29 24.8125 C-28.2575 24.28269531 -27.515 23.75289062 -26.75 23.20703125 C-26.1725 22.80871094 -25.595 22.41039063 -25 22 C-31.49422935 21.11942653 -37.72474887 20.96855991 -44.27734375 21.16015625 C-47 21 -47 21 -49 19 C-42.99251478 18.11899466 -37.19136564 17.87627115 -31.125 17.9375 C-29.84496094 17.94426758 -29.84496094 17.94426758 -28.5390625 17.95117188 C-26.97410653 17.95983856 -25.40915951 17.9705721 -23.84423828 17.98413086 C-20.42845557 18.11936004 -20.42845557 18.11936004 -17.5 16 C-15 14 -15 14 -13 14 C-12.77441406 13.43667969 -12.54882812 12.87335937 -12.31640625 12.29296875 C-10.62453462 9.34599947 -8.49601428 7.53969588 -5.9375 5.3125 C-5.03902344 4.52488281 -4.14054687 3.73726562 -3.21484375 2.92578125 C-2.48394531 2.29027344 -1.75304687 1.65476563 -1 1 C-0.67 0.67 -0.34 0.34 0 0 Z " fill="#7C2E47" transform="translate(80,35)"/>
<path d="M0 0 C0.66 0 1.32 0 2 0 C2 3.96 2 7.92 2 12 C-0.54654297 12.02126953 -0.54654297 12.02126953 -3.14453125 12.04296875 C-5.36721498 12.08986081 -7.58987041 12.13810823 -9.8125 12.1875 C-11.49182617 12.19620117 -11.49182617 12.19620117 -13.20507812 12.20507812 C-14.27822266 12.23408203 -15.35136719 12.26308594 -16.45703125 12.29296875 C-17.9416687 12.31653442 -17.9416687 12.31653442 -19.45629883 12.34057617 C-22.24259583 12.76333273 -22.24259583 12.76333273 -23.69018555 15.50512695 C-24.12242432 16.32843506 -24.55466309 17.15174316 -25 18 C-27.5 18.625 -27.5 18.625 -30 18 C-32.72508509 14.71110421 -33.36146791 12.21712557 -33 8 C-32.34 7.67 -31.68 7.34 -31 7 C-30.67 8.65 -30.34 10.3 -30 12 C-28.68 11.67 -27.36 11.34 -26 11 C-26.33 10.34 -26.66 9.68 -27 9 C-18.09 9 -9.18 9 0 9 C0 6.03 0 3.06 0 0 Z " fill="#4F4F4F" transform="translate(120,35)"/>
<path d="M0 0 C0.66 1.32 1.32 2.64 2 4 C9.59 4 17.18 4 25 4 C25 4.33 25 4.66 25 5 C26.98 5.33 28.96 5.66 31 6 C30.01 6.33 29.02 6.66 28 7 C28 7.99 28 8.98 28 10 C26.68 10 25.36 10 24 10 C24 9.01 24 8.02 24 7 C23.29391602 7.01047363 22.58783203 7.02094727 21.86035156 7.03173828 C18.65693734 7.0733479 15.45358004 7.09934204 12.25 7.125 C11.13882813 7.14175781 10.02765625 7.15851562 8.8828125 7.17578125 C7.27792969 7.18544922 7.27792969 7.18544922 5.640625 7.1953125 C4.65610352 7.20578613 3.67158203 7.21625977 2.65722656 7.22705078 C-0.05973111 6.99489618 -1.68112513 6.39036273 -4 5 C-4 4.34 -4 3.68 -4 3 C-4.66 3 -5.32 3 -6 3 C-5.67 5.97 -5.34 8.94 -5 12 C-5.66 12 -6.32 12 -7 12 C-7.33 8.7 -7.66 5.4 -8 2 C-4.77208445 -0.1519437 -3.71599191 -0.20086443 0 0 Z " fill="#797979" transform="translate(157,40)"/>
<path d="M0 0 C0.66 0.33 1.32 0.66 2 1 C2 1.99 2 2.98 2 4 C2.7425 4.12375 3.485 4.2475 4.25 4.375 C6.80141485 4.95486701 8.7267573 5.73708739 11 7 C10.25 12.75 10.25 12.75 8 15 C6.88625 14.505 6.88625 14.505 5.75 14 C2.86116688 12.77217129 2.86116688 12.77217129 -1 13 C-1 11.35 -1 9.7 -1 8 C-2.98 8.99 -2.98 8.99 -5 10 C-4.34 8.68 -3.68 7.36 -3 6 C-2.34 6 -1.68 6 -1 6 C-1.33 4.35 -1.66 2.7 -2 1 C-1.34 0.67 -0.68 0.34 0 0 Z " fill="#891637" transform="translate(59,22)"/>
<path d="M0 0 C3.39914975 1.13304992 4.05254451 2.12518475 6 5 C6.61875 4.175 7.2375 3.35 7.875 2.5 C8.57625 1.675 9.2775 0.85 10 0 C10.66 0 11.32 0 12 0 C12 0.99 12 1.98 12 3 C12.66 3 13.32 3 14 3 C14 2.34 14 1.68 14 1 C14.66 1 15.32 1 16 1 C16 4.63 16 8.26 16 12 C15.34 12 14.68 12 14 12 C13.67 11.01 13.34 10.02 13 9 C12.67 9.99 12.34 10.98 12 12 C11.34 12 10.68 12 10 12 C9.67 10.02 9.34 8.04 9 6 C8.01 7.485 8.01 7.485 7 9 C6.01 8.67 5.02 8.34 4 8 C3.67 7.34 3.34 6.68 3 6 C2.67 7.98 2.34 9.96 2 12 C1.34 12 0.68 12 0 12 C0 8.04 0 4.08 0 0 Z " fill="#1F1F1F" transform="translate(86,54)"/>
<path d="M0 0 C0.66 0 1.32 0 2 0 C2 2.97 2 5.94 2 9 C2.66 8.67 3.32 8.34 4 8 C4.33 7.01 4.66 6.02 5 5 C6.98 5 8.96 5 11 5 C11.33 6.32 11.66 7.64 12 9 C12.66 9 13.32 9 14 9 C14 6.03 14 3.06 14 0 C14.66 0 15.32 0 16 0 C16 3.96 16 7.92 16 12 C13.70858714 12.05384521 11.41681812 12.09272087 9.125 12.125 C7.21074219 12.15980469 7.21074219 12.15980469 5.2578125 12.1953125 C2 12 2 12 0 10 C-0.1953125 7.6171875 -0.1953125 7.6171875 -0.125 4.875 C-0.10695313 3.96492188 -0.08890625 3.05484375 -0.0703125 2.1171875 C-0.04710938 1.41851562 -0.02390625 0.71984375 0 0 Z " fill="#333333" transform="translate(124,35)"/>
<path d="M0 0 C1.32 0 2.64 0 4 0 C4 0.66 4 1.32 4 2 C4.66 2 5.32 2 6 2 C6 1.34 6 0.68 6 0 C7.66611905 -0.042721 9.33382885 -0.04063832 11 0 C12 1 12 1 12.0625 4.5625 C12.041875 5.696875 12.02125 6.83125 12 8 C9.33333333 8 6.66666667 8 4 8 C3.154375 8.020625 2.30875 8.04125 1.4375 8.0625 C-1 8 -1 8 -2 7 C-2.1875 4.5625 -2.1875 4.5625 -2 2 C-1.34 1.34 -0.68 0.68 0 0 Z " fill="#DEDEDE" transform="translate(350,58)"/>
<path d="M0 0 C1.67542976 0.28604898 3.34385343 0.61781233 5 1 C5.33 0.67 5.66 0.34 6 0 C8.9375 -0.1875 8.9375 -0.1875 12 0 C14 2 14 2 14.125 5.125 C14.08375 6.07375 14.0425 7.0225 14 8 C13.34 8 12.68 8 12 8 C12 6.02 12 4.04 12 2 C11.01 2 10.02 2 9 2 C9 3.98 9 5.96 9 8 C8.360625 7.814375 7.72125 7.62875 7.0625 7.4375 C6.0415625 7.2209375 6.0415625 7.2209375 5 7 C4.67 7.33 4.34 7.66 4 8 C1.5 8.125 1.5 8.125 -1 8 C-2 7 -2 7 -2.1875 4.5625 C-2 2 -2 2 0 0 Z " fill="#545454" transform="translate(375,58)"/>
<path d="M0 0 C0.66 0 1.32 0 2 0 C2 3.96 2 7.92 2 12 C-1.96 12 -5.92 12 -10 12 C-9.67 11.34 -9.34 10.68 -9 10 C-10.32 9.34 -11.64 8.68 -13 8 C-13 8.66 -13 9.32 -13 10 C-14.32 9.67 -15.64 9.34 -17 9 C-16.34 8.67 -15.68 8.34 -15 8 C-15 7.01 -15 6.02 -15 5 C-12.69 5 -10.38 5 -8 5 C-7.67 5.99 -7.34 6.98 -7 8 C-6.34 8.33 -5.68 8.66 -5 9 C-5 7.68 -5 6.36 -5 5 C-4.34 5 -3.68 5 -3 5 C-3 6.32 -3 7.64 -3 9 C-2.01 9 -1.02 9 0 9 C0 6.03 0 3.06 0 0 Z " fill="#343434" transform="translate(281,35)"/>
<path d="M0 0 C5.94 0 11.88 0 18 0 C17.01 0.99 16.02 1.98 15 3 C15 3.66 15 4.32 15 5 C12.8125 6.75 12.8125 6.75 10 8 C7.5 7.375 7.5 7.375 5 6 C4.071875 5.525625 3.14375 5.05125 2.1875 4.5625 C1.465625 4.046875 0.74375 3.53125 0 3 C0 2.01 0 1.02 0 0 Z " fill="#B88B9A" transform="translate(35,57)"/>
<path d="M0 0 C1.65 0 3.3 0 5 0 C6 2 6 2 6 8 C13.26 8 20.52 8 28 8 C28 8.33 28 8.66 28 9 C18.76 9.33 9.52 9.66 0 10 C-2 6 -2 6 -1.125 2.75 C-0.75375 1.8425 -0.3825 0.935 0 0 Z " fill="#525252" transform="translate(301,36)"/>
<path d="M0 0 C0.33 0.66 0.66 1.32 1 2 C1.66 2.33 2.32 2.66 3 3 C2.360625 3.61875 1.72125 4.2375 1.0625 4.875 C-1.03883584 6.82597612 -1.03883584 6.82597612 -2 9 C-7.61 9 -13.22 9 -19 9 C-18.34 7.35 -17.68 5.7 -17 4 C-15.02 4 -13.04 4 -11 4 C-11 4.33 -11 4.66 -11 5 C-12.65 5 -14.3 5 -16 5 C-16 5.66 -16 6.32 -16 7 C-15.24074219 6.7834375 -14.48148438 6.566875 -13.69921875 6.34375 C-12.70535156 6.0653125 -11.71148437 5.786875 -10.6875 5.5 C-9.70136719 5.2215625 -8.71523438 4.943125 -7.69921875 4.65625 C-5 4 -5 4 -2 4 C-1.34 2.68 -0.68 1.36 0 0 Z " fill="#842743" transform="translate(43,39)"/>
<path d="M0 0 C0.66 0 1.32 0 2 0 C2 0.99 2 1.98 2 3 C3.65 3 5.3 3 7 3 C7 2.34 7 1.68 7 1 C8.32 1.33 9.64 1.66 11 2 C11 3.65 11 5.3 11 7 C6.89587259 7.16764279 2.79169203 7.3339474 -1.3125 7.5 C-3.06336914 7.57154297 -3.06336914 7.57154297 -4.84960938 7.64453125 C-5.96787109 7.68964844 -7.08613281 7.73476562 -8.23828125 7.78125 C-9.26993408 7.82314453 -10.30158691 7.86503906 -11.36450195 7.90820312 C-13.24211189 7.97360204 -15.12125145 8 -17 8 C-16.01 6.68 -15.02 5.36 -14 4 C-13.67 4.33 -13.34 4.66 -13 5 C-10.81707226 5.23481693 -8.62796826 5.41363323 -6.4375 5.5625 C-5.23996094 5.64628906 -4.04242188 5.73007813 -2.80859375 5.81640625 C-1.88175781 5.87699219 -0.95492187 5.93757813 0 6 C0 4.02 0 2.04 0 0 Z " fill="#414040" transform="translate(169,73)"/>
<path d="M0 0 C1.32 0 2.64 0 4 0 C4 0.66 4 1.32 4 2 C2.68 2 1.36 2 0 2 C0 3.32 0 4.64 0 6 C1.65 6 3.3 6 5 6 C5 5.34 5 4.68 5 4 C5.66 3.67 6.32 3.34 7 3 C6.67 2.01 6.34 1.02 6 0 C7.66611905 -0.042721 9.33382885 -0.04063832 11 0 C12 1 12 1 12.0625 4.5625 C12.041875 5.696875 12.02125 6.83125 12 8 C9.85423363 8.02685938 7.70837355 8.04633088 5.5625 8.0625 C4.36753906 8.07410156 3.17257813 8.08570312 1.94140625 8.09765625 C-1 8 -1 8 -2 7 C-2.1875 4.5625 -2.1875 4.5625 -2 2 C-1.34 1.34 -0.68 0.68 0 0 Z " fill="#383838" transform="translate(195,58)"/>
<path d="M0 0 C0.99 0 1.98 0 3 0 C3 4.29 3 8.58 3 13 C0.66705225 13.04241723 -1.66702567 13.04092937 -4 13 C-5 12 -5 12 -5.1875 9.5625 C-5 7 -5 7 -3 5 C-2.01 5 -1.02 5 0 5 C0 3.35 0 1.7 0 0 Z " fill="#5D5D5D" transform="translate(261,53)"/>
<path d="M0 0 C0.66 0 1.32 0 2 0 C2 3.63 2 7.26 2 11 C-0.31 11 -2.62 11 -5 11 C-7.42857143 4.71428571 -7.42857143 4.71428571 -6 1 C-5.34 1 -4.68 1 -4 1 C-4 1.66 -4 2.32 -4 3 C-2.68 3 -1.36 3 0 3 C0 2.01 0 1.02 0 0 Z " fill="#929292" transform="translate(370,55)"/>
<path d="M0 0 C0.66 0 1.32 0 2 0 C2.33 0.66 2.66 1.32 3 2 C3.66 1.67 4.32 1.34 5 1 C5.66 1.33 6.32 1.66 7 2 C7 5.3 7 8.6 7 12 C4.69 12 2.38 12 0 12 C0 8.04 0 4.08 0 0 Z " fill="#DEB4C1" transform="translate(54,34)"/>
<path d="M0 0 C2.31 0.66 4.62 1.32 7 2 C7 3.32 7 4.64 7 6 C7.0928125 7.5159375 7.0928125 7.5159375 7.1875 9.0625 C7 12 7 12 5.6875 13.875 C4 15 4 15 1 15 C1 14.34 1 13.68 1 13 C1.99 12.34 2.98 11.68 4 11 C4.33 10.01 4.66 9.02 5 8 C4.01 8.495 4.01 8.495 3 9 C2.67 9.99 2.34 10.98 2 12 C1.34 12 0.68 12 0 12 C0 8.04 0 4.08 0 0 Z " fill="#7E7E7E" transform="translate(374,35)"/>
<path d="M0 0 C2.97 0 5.94 0 9 0 C7.73046875 6.8359375 7.73046875 6.8359375 7 9 C6.01 9.66 5.02 10.32 4 11 C2.68 10.67 1.36 10.34 0 10 C0 6.7 0 3.4 0 0 Z " fill="#FAEFF3" transform="translate(63,36)"/>
<path d="M0 0 C0.99 0 1.98 0 3 0 C3 3.63 3 7.26 3 11 C1.02 11 -0.96 11 -3 11 C-3 9.02 -3 7.04 -3 5 C-3.99 5.495 -3.99 5.495 -5 6 C-5.65555119 8.52733235 -5.65555119 8.52733235 -6 11 C-6.66 11 -7.32 11 -8 11 C-8 8.69 -8 6.38 -8 4 C-5.69 4 -3.38 4 -1 4 C-0.67 2.68 -0.34 1.36 0 0 Z " fill="#777777" transform="translate(111,55)"/>
<path d="M0 0 C2.9375 1.5 2.9375 1.5 3.9375 4.5 C2.9475 4.5 1.9575 4.5 0.9375 4.5 C0.9375 3.84 0.9375 3.18 0.9375 2.5 C-4.0125 3.985 -4.0125 3.985 -9.0625 5.5 C-9.0625 7.15 -9.0625 8.8 -9.0625 10.5 C-10.3825 10.17 -11.7025 9.84 -13.0625 9.5 C-13.3925 7.85 -13.7225 6.2 -14.0625 4.5 C-4.5607842 -1.19720585 -4.5607842 -1.19720585 0 0 Z " fill="#7F324A" transform="translate(34.0625,71.5)"/>
<path d="M0 0 C0.66 0 1.32 0 2 0 C2 0.66 2 1.32 2 2 C4.97 2.33 7.94 2.66 11 3 C10.01 3.33 9.02 3.66 8 4 C8 5.98 8 7.96 8 10 C5.69 10 3.38 10 1 10 C-1.42857143 3.71428571 -1.42857143 3.71428571 0 0 Z " fill="#7B7B7B" transform="translate(123,56)"/>
<path d="M0 0 C0.66 0 1.32 0 2 0 C2 4.29 2 8.58 2 13 C0.02 13 -1.96 13 -4 13 C-4.66 12.34 -5.32 11.68 -6 11 C-5.625 8.375 -5.625 8.375 -5 6 C-3.35 5.67 -1.7 5.34 0 5 C0 3.35 0 1.7 0 0 Z " fill="#858585" transform="translate(336,53)"/>
<path d="M0 0 C0.66 0 1.32 0 2 0 C2 4.29 2 8.58 2 13 C0.02 13 -1.96 13 -4 13 C-5 12 -5 12 -5.1875 9.5625 C-5 7 -5 7 -3 5 C-2.01 5 -1.02 5 0 5 C0 3.35 0 1.7 0 0 Z " fill="#6E6E6E" transform="translate(181,53)"/>
<path d="M0 0 C2.625 0.375 2.625 0.375 5 1 C5.02689216 2.47906892 5.04634621 3.95827483 5.0625 5.4375 C5.07410156 6.26121094 5.08570313 7.08492188 5.09765625 7.93359375 C5 10 5 10 4 11 C2.33382885 11.04063832 0.66611905 11.042721 -1 11 C0.32 10.67 1.64 10.34 3 10 C3 9.34 3 8.68 3 8 C1.35 7.67 -0.3 7.34 -2 7 C-2.125 4.625 -2.125 4.625 -2 2 C-1.34 1.34 -0.68 0.68 0 0 Z " fill="#4A4A4A" transform="translate(287,58)"/>
<path d="M0 0 C2.64 0 5.28 0 8 0 C8 0.66 8 1.32 8 2 C6.02 2 4.04 2 2 2 C2 2.99 2 3.98 2 5 C3.98 5 5.96 5 8 5 C8 5.66 8 6.32 8 7 C6.02 7 4.04 7 2 7 C2 7.99 2 8.98 2 10 C3.98 10 5.96 10 8 10 C8 10.66 8 11.32 8 12 C5.36 12 2.72 12 0 12 C0 8.04 0 4.08 0 0 Z " fill="#303030" transform="translate(321,54)"/>
<path d="M0 0 C0.99 0 1.98 0 3 0 C3 1.65 3 3.3 3 5 C4.98 5 6.96 5 9 5 C9 3.35 9 1.7 9 0 C9.33 0 9.66 0 10 0 C10 3.96 10 7.92 10 12 C9.67 12 9.34 12 9 12 C9 10.35 9 8.7 9 7 C7.02 7 5.04 7 3 7 C3 8.65 3 10.3 3 12 C2.01 12 1.02 12 0 12 C0 8.04 0 4.08 0 0 Z " fill="#373737" transform="translate(269,54)"/>
<path d="M0 0 C0.66 0.33 1.32 0.66 2 1 C1.67 1.66 1.34 2.32 1 3 C1.66 3.33 2.32 3.66 3 4 C3.625 6.5625 3.625 6.5625 4 9 C5.65 9.33 7.3 9.66 9 10 C9.33 10.99 9.66 11.98 10 13 C7.03 12.01 4.06 11.02 1 10 C1 7 1 7 2 5 C1.01 5 0.02 5 -1 5 C-1.33 6.32 -1.66 7.64 -2 9 C-3.65 8.01 -5.3 7.02 -7 6 C-4.83312509 3.72478134 -2.54379491 1.84205838 0 0 Z " fill="#F6DCE4" transform="translate(54,61)"/>
<path d="M0 0 C0.99 0 1.98 0 3 0 C3 3.63 3 7.26 3 11 C0.36 11 -2.28 11 -5 11 C-4.67 9.02 -4.34 7.04 -4 5 C-3.34 5 -2.68 5 -2 5 C-2 6.32 -2 7.64 -2 9 C-1.34 9 -0.68 9 0 9 C-0.33 7.35 -0.66 5.7 -1 4 C-2.32 4 -3.64 4 -5 4 C-5 3.34 -5 2.68 -5 2 C-3.35 2 -1.7 2 0 2 C0 1.34 0 0.68 0 0 Z " fill="#464646" transform="translate(205,35)"/>
<path d="M0 0 C0.33 0 0.66 0 1 0 C1 1.65 1 3.3 1 5 C3.91482778 5.80967438 5.46113217 6.21845993 8.3125 5.0625 C8.869375 4.711875 9.42625 4.36125 10 4 C8.40907948 8.13639336 5.39525082 11.23213248 2 14 C1.34 14 0.68 14 0 14 C0.33 11.69 0.66 9.38 1 7 C0.01 7 -0.98 7 -2 7 C-1.125 1.125 -1.125 1.125 0 0 Z " fill="#EFDBE2" transform="translate(70,30)"/>
<path d="M0 0 C2.64 0 5.28 0 8 0 C8 0.66 8 1.32 8 2 C6.02 2 4.04 2 2 2 C2 2.99 2 3.98 2 5 C3.65 5 5.3 5 7 5 C7 5.66 7 6.32 7 7 C5.35 7 3.7 7 2 7 C2 7.99 2 8.98 2 10 C3.98 10 5.96 10 8 10 C8 10.66 8 11.32 8 12 C5.36 12 2.72 12 0 12 C0 8.04 0 4.08 0 0 Z " fill="#2D2D2D" transform="translate(167,54)"/>
<path d="M0 0 C0.33 0 0.66 0 1 0 C1 3.63 1 7.26 1 11 C-2.3 11 -5.6 11 -9 11 C-9.33 11.99 -9.66 12.98 -10 14 C-12.31 14.33 -14.62 14.66 -17 15 C-17 14.34 -17 13.68 -17 13 C-15.02 12.34 -13.04 11.68 -11 11 C-11 9.35 -11 7.7 -11 6 C-10.01 6.33 -9.02 6.66 -8 7 C-8 7.66 -8 8.32 -8 9 C-7.01 9 -6.02 9 -5 9 C-5 7.68 -5 6.36 -5 5 C-4.34 5 -3.68 5 -3 5 C-3 6.65 -3 8.3 -3 10 C-2.01 10 -1.02 10 0 10 C0 6.7 0 3.4 0 0 Z " fill="#191919" transform="translate(351,35)"/>
<path d="M0 0 C0.97646484 0.00322266 1.95292969 0.00644531 2.95898438 0.00976562 C3.96638672 0.01814453 4.97378906 0.02652344 6.01171875 0.03515625 C7.03845703 0.03966797 8.06519531 0.04417969 9.12304688 0.04882812 C11.64849757 0.06057441 14.1738278 0.0770006 16.69921875 0.09765625 C16.36921875 1.41765625 16.03921875 2.73765625 15.69921875 4.09765625 C15.05597656 4.02546875 14.41273437 3.95328125 13.75 3.87890625 C7.24090602 3.21035451 0.89268661 3.06336767 -5.6484375 3.2578125 C-8.30078125 3.09765625 -8.30078125 3.09765625 -10.30078125 1.09765625 C-6.80085429 0.30058857 -3.58655815 -0.02097402 0 0 Z " fill="#925165" transform="translate(41.30078125,52.90234375)"/>
<path d="M0 0 C0.66 0 1.32 0 2 0 C2 0.99 2 1.98 2 3 C3.32 3 4.64 3 6 3 C6 3.66 6 4.32 6 5 C6.66 5.33 7.32 5.66 8 6 C6.68 5.67 5.36 5.34 4 5 C3.01 6.485 3.01 6.485 2 8 C-0.49609375 8.94921875 -0.49609375 8.94921875 -3.4375 9.6875 C-4.88962891 10.06455078 -4.88962891 10.06455078 -6.37109375 10.44921875 C-9 11 -9 11 -12 11 C-12 10.34 -12 9.68 -12 9 C-10.35 8.67 -8.7 8.34 -7 8 C-7.99 7.34 -8.98 6.68 -10 6 C-7.03 6 -4.06 6 -1 6 C-0.67 4.02 -0.34 2.04 0 0 Z " fill="#EABDCD" transform="translate(39,35)"/>
<path d="M0 0 C4.70588235 0.70588235 4.70588235 0.70588235 6 2 C6.125 4.5 6.125 4.5 6 7 C5 8 5 8 2.5625 8.1875 C0 8 0 8 -2 6 C-1.44444444 1.44444444 -1.44444444 1.44444444 0 0 Z " fill="#5B5B5B" transform="translate(149,58)"/>
<path d="M0 0 C2.625 0.375 2.625 0.375 5 1 C5.625 3.375 5.625 3.375 6 6 C5.34 6.66 4.68 7.32 4 8 C1.375 7.625 1.375 7.625 -1 7 C-1.625 4.625 -1.625 4.625 -2 2 C-1.34 1.34 -0.68 0.68 0 0 Z " fill="#5A5A5A" transform="translate(220,58)"/>
<path d="M0 0 C1.65 0.33 3.3 0.66 5 1 C4.67 1.99 4.34 2.98 4 4 C4.66 4.66 5.32 5.32 6 6 C5.625 8.125 5.625 8.125 5 10 C3.35 10 1.7 10 0 10 C-1.2380014 6.42355152 -0.74926071 3.66305234 0 0 Z " fill="#4B4B4B" transform="translate(362,36)"/>
<path d="M0 0 C1.67542976 0.28604898 3.34385343 0.61781233 5 1 C4.67 3.31 4.34 5.62 4 8 C4.66 8.33 5.32 8.66 6 9 C2.62537285 8.45276317 0.91765 7.9451 -2 6 C-1.125 1.125 -1.125 1.125 0 0 Z " fill="#3B3B3B" transform="translate(122,73)"/>
<path d="M0 0 C1.46366342 0.39753821 2.9208935 0.81881384 4.375 1.25 C5.18710937 1.48203125 5.99921875 1.7140625 6.8359375 1.953125 C9.45785454 3.2214892 9.99382318 4.32423308 11 7 C10.01 8.485 10.01 8.485 9 10 C7.68 9.67 6.36 9.34 5 9 C5.33 7.68 5.66 6.36 6 5 C4.02 4.34 2.04 3.68 0 3 C0 2.01 0 1.02 0 0 Z " fill="#79243E" transform="translate(57,72)"/>
<path d="M0 0 C0.66 0 1.32 0 2 0 C2 1.98 2 3.96 2 6 C2.99 6 3.98 6 5 6 C5 4.02 5 2.04 5 0 C5.66 0 6.32 0 7 0 C7.02688151 1.64574566 7.04634123 3.29161413 7.0625 4.9375 C7.07410156 5.85402344 7.08570313 6.77054687 7.09765625 7.71484375 C7 10 7 10 6 11 C4.00041636 11.04080783 1.99954746 11.04254356 0 11 C1.32 10.34 2.64 9.68 4 9 C2.68 8.34 1.36 7.68 0 7 C0 4.69 0 2.38 0 0 Z " fill="#202020" transform="translate(135,58)"/>
<path d="M0 0 C0.33 1.32 0.66 2.64 1 4 C0.34 4 -0.32 4 -1 4 C-0.67 4.66 -0.34 5.32 0 6 C-1.32 5.67 -2.64 5.34 -4 5 C-4 4.34 -4 3.68 -4 3 C-4.66 3 -5.32 3 -6 3 C-5.67 5.97 -5.34 8.94 -5 12 C-5.66 12 -6.32 12 -7 12 C-7.33 8.7 -7.66 5.4 -8 2 C-4.77208445 -0.1519437 -3.71599191 -0.20086443 0 0 Z " fill="#1E1E1E" transform="translate(157,40)"/>
<path d="M0 0 C2.0625 0.4375 2.0625 0.4375 4 1 C4.6875 3.8125 4.6875 3.8125 5 7 C3.75 8.875 3.75 8.875 2 10 C1.01 10 0.02 10 -1 10 C-1 9.34 -1 8.68 -1 8 C-0.34 7.67 0.32 7.34 1 7 C0.01 6.34 -0.98 5.68 -2 5 C-1.125 1.125 -1.125 1.125 0 0 Z " fill="#3B3B3B" transform="translate(290,40)"/>
<path d="M0 0 C2.625 0.375 2.625 0.375 5 1 C5 3.31 5 5.62 5 8 C3.00045254 8.04254356 0.99958364 8.04080783 -1 8 C-2 7 -2 7 -2.1875 4.5625 C-2 2 -2 2 0 0 Z " fill="#1D1D1D" transform="translate(304,58)"/>
<path d="M0 0 C0.66 0 1.32 0 2 0 C2 1.65 2 3.3 2 5 C3.32 5 4.64 5 6 5 C7.35439668 7.70879335 7.06501451 10.00933268 7 13 C6.34 13 5.68 13 5 13 C5 11.02 5 9.04 5 7 C4.01 7 3.02 7 2 7 C2 8.98 2 10.96 2 13 C1.34 13 0.68 13 0 13 C0 8.71 0 4.42 0 0 Z " fill="#2B2B2B" transform="translate(294,53)"/>
<path d="M0 0 C10.56 0 21.12 0 32 0 C31.34 1.32 30.68 2.64 30 4 C28.35 4 26.7 4 25 4 C25 3.01 25 2.02 25 1 C16.75 1 8.5 1 0 1 C0 0.67 0 0.34 0 0 Z " fill="#797979" transform="translate(231,46)"/>
<path d="M0 0 C10.23 0 20.46 0 31 0 C29.68 0.33 28.36 0.66 27 1 C27 1.99 27 2.98 27 4 C25.35 4 23.7 4 22 4 C22 3.01 22 2.02 22 1 C14.74 1 7.48 1 0 1 C0 0.67 0 0.34 0 0 Z " fill="#7D7D7D" transform="translate(306,46)"/>
<path d="M0 0 C0.66 0 1.32 0 2 0 C2 3.3 2 6.6 2 10 C3.32 10 4.64 10 6 10 C6 9.34 6 8.68 6 8 C7.98 8.66 9.96 9.32 12 10 C12 10.33 12 10.66 12 11 C6.72 11 1.44 11 -4 11 C-3.67 10.34 -3.34 9.68 -3 9 C-2.01 9 -1.02 9 0 9 C0 6.03 0 3.06 0 0 Z " fill="#080808" transform="translate(262,35)"/>
<path d="M0 0 C0.83265381 0.00523682 1.66530762 0.01047363 2.52319336 0.01586914 C3.42231445 0.0190918 4.32143555 0.02231445 5.24780273 0.02563477 C6.66609375 0.03820313 6.66609375 0.03820313 8.11303711 0.05102539 C9.06243164 0.05553711 10.01182617 0.06004883 10.98999023 0.06469727 C13.34356776 0.07652429 15.69702188 0.09300514 18.05053711 0.11352539 C18.05053711 0.77352539 18.05053711 1.43352539 18.05053711 2.11352539 C16.08905837 3.50290616 14.08887135 4.83956649 12.05053711 6.11352539 C12.05053711 5.45352539 12.05053711 4.79352539 12.05053711 4.11352539 C11.2190918 4.06454102 10.38764648 4.01555664 9.53100586 3.96508789 C8.44432617 3.89032227 7.35764648 3.81555664 6.23803711 3.73852539 C5.1590918 3.66891602 4.08014648 3.59930664 2.96850586 3.52758789 C0.05053711 3.11352539 0.05053711 3.11352539 -2.94946289 1.11352539 C-1.94946289 0.11352539 -1.94946289 0.11352539 0 0 Z " fill="#E0B5C4" transform="translate(48.949462890625,46.886474609375)"/>
<path d="M0 0 C2.31 0 4.62 0 7 0 C7 1.32 7 2.64 7 4 C7.66 4.66 8.32 5.32 9 6 C4.71 6 0.42 6 -4 6 C-4 5.67 -4 5.34 -4 5 C-2.35 4.67 -0.7 4.34 1 4 C0.67 2.68 0.34 1.36 0 0 Z " fill="#242424" transform="translate(191,40)"/>
<path d="M0 0 C0 1.32 0 2.64 0 4 C-3.96 4 -7.92 4 -12 4 C-11.67 2.68 -11.34 1.36 -11 0 C-7.18243176 -1.37432457 -3.92744671 -0.67975039 0 0 Z " fill="#3D3D3D" transform="translate(140,76)"/>
<path d="M0 0 C3.69230769 0.69230769 3.69230769 0.69230769 5 2 C5.25 4.375 5.25 4.375 5 7 C3.5 8.8125 3.5 8.8125 2 10 C1.01 9.67 0.02 9.34 -1 9 C-0.01 8.67 0.98 8.34 2 8 C2 7.34 2 6.68 2 6 C1.01 6 0.02 6 -1 6 C-1.042721 4.33388095 -1.04063832 2.66617115 -1 1 C-0.67 0.67 -0.34 0.34 0 0 Z " fill="#131313" transform="translate(384,40)"/>
<path d="M0 0 C0.99 0 1.98 0 3 0 C3 1.98 3 3.96 3 6 C7.62 6 12.24 6 17 6 C17 4.02 17 2.04 17 0 C17.33 0 17.66 0 18 0 C18 2.31 18 4.62 18 7 C12.06 7 6.12 7 0 7 C0 4.66666667 0 2.33333333 0 0 Z " fill="#2C2C2C" transform="translate(183,73)"/>
<path d="M0 0 C1.66611905 -0.042721 3.33382885 -0.04063832 5 0 C6 1 6 1 6.0625 4.5625 C6.041875 5.696875 6.02125 6.83125 6 8 C4.02 8 2.04 8 0 8 C0.185625 7.236875 0.37125 6.47375 0.5625 5.6875 C1.22819173 2.91032625 1.22819173 2.91032625 0 0 Z " fill="#393939" transform="translate(240,58)"/>
<path d="M0 0 C1.66611905 -0.042721 3.33382885 -0.04063832 5 0 C6 1 6 1 6.0625 4.5625 C6.041875 5.696875 6.02125 6.83125 6 8 C4.02 8 2.04 8 0 8 C-0.33 6.68 -0.66 5.36 -1 4 C0.65 4 2.3 4 4 4 C4 3.34 4 2.68 4 2 C2.68 2 1.36 2 0 2 C0 1.34 0 0.68 0 0 Z " fill="#313131" transform="translate(356,58)"/>
<path d="M0 0 C0.99 0 1.98 0 3 0 C3 0.66 3 1.32 3 2 C4.65 2 6.3 2 8 2 C7.01 2.66 6.02 3.32 5 4 C4.27034634 6.56282742 4.27034634 6.56282742 4 9 C2.35 9 0.7 9 -1 9 C-1.125 2.25 -1.125 2.25 0 0 Z " fill="#ECECEC" transform="translate(236,58)"/>
<path d="M0 0 C1.32 0.66 2.64 1.32 4 2 C4.1875 4.875 4.1875 4.875 4 8 C3.01 8.66 2.02 9.32 1 10 C0.01 9.67 -0.98 9.34 -2 9 C-1.01 8.34 -0.02 7.68 1 7 C0.01 6.67 -0.98 6.34 -2 6 C-1.125 1.125 -1.125 1.125 0 0 Z " fill="#4A4A4A" transform="translate(215,40)"/>
<path d="M0 0 C0.66 0.33 1.32 0.66 2 1 C1.67 3.31 1.34 5.62 1 8 C-0.98 8 -2.96 8 -5 8 C-5.33 6.35 -5.66 4.7 -6 3 C-4.35 3 -2.7 3 -1 3 C-0.67 2.01 -0.34 1.02 0 0 Z " fill="#676767" transform="translate(116,73)"/>
<path d="M0 0 C1.65 0 3.3 0 5 0 C4.67 1.65 4.34 3.3 4 5 C3.67 5 3.34 5 3 5 C2.67 10.94 2.34 16.88 2 23 C1.01 22.67 0.02 22.34 -1 22 C-0.34 22 0.32 22 1 22 C1 16.06 1 10.12 1 4 C0.01 4 -0.98 4 -2 4 C-1.67 3.34 -1.34 2.68 -1 2 C-0.34 2.33 0.32 2.66 1 3 C0.67 2.01 0.34 1.02 0 0 Z " fill="#A1516A" transform="translate(51,24)"/>
<path d="M0 0 C1.80125336 2.70188004 3.00243753 4.93057703 4 8 C3.67 8.99 3.34 9.98 3 11 C1.82460004 10.07347299 0.65989423 9.13336613 -0.5 8.1875 C-1.47453125 7.40439453 -1.47453125 7.40439453 -2.46875 6.60546875 C-4 5 -4 5 -4 2 C-2.68 1.34 -1.36 0.68 0 0 Z " fill="#FAE6EE" transform="translate(21,40)"/>
<path d="M0 0 C0.66 0.66 1.32 1.32 2 2 C1.67 2.66 1.34 3.32 1 4 C1.66 3.34 2.32 2.68 3 2 C3 1.67 3 1.34 3 1 C4.98 0.67 6.96 0.34 9 0 C9.33 1.65 9.66 3.3 10 5 C6.52674819 6.1577506 3.63932552 6.06866652 0 6 C-0.38218767 4.34385343 -0.71395102 2.67542976 -1 1 C-0.67 0.67 -0.34 0.34 0 0 Z " fill="#404040" transform="translate(92,75)"/>
<path d="M0 0 C1.65 0.33 3.3 0.66 5 1 C5.04254356 2.99954746 5.04080783 5.00041636 5 7 C4 8 4 8 1.4375 8.0625 C0.633125 8.041875 -0.17125 8.02125 -1 8 C-1 4.88742431 -0.82638376 2.89234315 0 0 Z " fill="#555555" transform="translate(116,58)"/>
<path d="M0 0 C0.33 0 0.66 0 1 0 C1.33 2.31 1.66 4.62 2 7 C5.465 6.505 5.465 6.505 9 6 C8.34 7.65 7.68 9.3 7 11 C4.6875 11.3125 4.6875 11.3125 2 11 C-0.16867095 8.38263851 -0.94206375 6.63729873 -1.25 3.25 C-1 1 -1 1 0 0 Z " fill="#333333" transform="translate(88,42)"/>
<path d="M0 0 C0.99 0 1.98 0 3 0 C3 0.66 3 1.32 3 2 C3.66 2 4.32 2 5 2 C5 2.66 5 3.32 5 4 C4.34 4 3.68 4 3 4 C3 5.32 3 6.64 3 8 C3.66 8 4.32 8 5 8 C5 8.66 5 9.32 5 10 C3.35 9.67 1.7 9.34 0 9 C-1.125 3.375 -1.125 3.375 0 0 Z " fill="#2D2D2D" transform="translate(209,56)"/>
<path d="M0 0 C0.66 0.33 1.32 0.66 2 1 C2 4.63 2 8.26 2 12 C3.32 12.33 4.64 12.66 6 13 C5 14 5 14 3.15234375 14.09765625 C1.1015625 14.06510417 -0.94921875 14.03255208 -3 14 C-2.34 13.34 -1.68 12.68 -1 12 C-0.53603307 9.10776497 -0.53603307 9.10776497 -0.375 5.875 C-0.30023438 4.77929688 -0.22546875 3.68359375 -0.1484375 2.5546875 C-0.09945312 1.71164063 -0.05046875 0.86859375 0 0 Z " fill="#7E344A" transform="translate(61,34)"/>
<path d="M0 0 C0.66 0 1.32 0 2 0 C2 1.98 2 3.96 2 6 C2.99 6 3.98 6 5 6 C5 4.02 5 2.04 5 0 C5.66 0 6.32 0 7 0 C7 2.64 7 5.28 7 8 C5.00045254 8.04254356 2.99958364 8.04080783 1 8 C0 7 0 7 -0.0625 3.4375 C-0.041875 2.303125 -0.02125 1.16875 0 0 Z " fill="#424242" transform="translate(185,58)"/>
<path d="M0 0 C1.99954746 -0.04254356 4.00041636 -0.04080783 6 0 C7 1 7 1 7.0625 4.5625 C7.041875 5.696875 7.02125 6.83125 7 8 C6.34 8 5.68 8 5 8 C5 6.02 5 4.04 5 2 C4.01 2.495 4.01 2.495 3 3 C2.34444881 5.52733235 2.34444881 5.52733235 2 8 C1.34 8 0.68 8 0 8 C0 5.36 0 2.72 0 0 Z " fill="#373737" transform="translate(227,58)"/>
<path d="M0 0 C2.25245881 2.68841859 3.88213958 4.64641875 5 8 C4.5625 10.6875 4.5625 10.6875 4 13 C2.35 12.67 0.7 12.34 -1 12 C-1 11.34 -1 10.68 -1 10 C-0.34 10 0.32 10 1 10 C1.09978121 6.50765756 0.77842938 3.40562852 0 0 Z " fill="#8F2546" transform="translate(33,26)"/>
<path d="M0 0 C2.97 1.65 5.94 3.3 9 5 C6 8 6 8 3 9 C3 7.68 3 6.36 3 5 C2.01 5 1.02 5 0 5 C0 3.35 0 1.7 0 0 Z " fill="#F5DDE6" transform="translate(32,61)"/>
<path d="M0 0 C0.99 0 1.98 0 3 0 C3 3.96 3 7.92 3 12 C2.01 12 1.02 12 0 12 C0 8.04 0 4.08 0 0 Z " fill="#595959" transform="translate(284,35)"/>
<path d="M0 0 C1.32 0.33 2.64 0.66 4 1 C4.33 3.31 4.66 5.62 5 8 C3.35 8 1.7 8 0 8 C0 5.36 0 2.72 0 0 Z " fill="#FCF1F5" transform="translate(55,37)"/>
<path d="M0 0 C1.32 0.33 2.64 0.66 4 1 C4 2.65 4 4.3 4 6 C1.03 6 -1.94 6 -5 6 C-5 5.01 -5 4.02 -5 3 C-3.35 2.67 -1.7 2.34 0 2 C0 1.34 0 0.68 0 0 Z " fill="#646464" transform="translate(176,74)"/>
<path d="M0 0 C0.66 0 1.32 0 2 0 C2 1.98 2 3.96 2 6 C2.99 6 3.98 6 5 6 C5 4.35 5 2.7 5 1 C5.66 1 6.32 1 7 1 C7 3.31 7 5.62 7 8 C5.00045254 8.04254356 2.99958364 8.04080783 1 8 C0 7 0 7 -0.0625 3.4375 C-0.041875 2.303125 -0.02125 1.16875 0 0 Z " fill="#313131" transform="translate(339,58)"/>
<path d="M0 0 C2.31 0 4.62 0 7 0 C7.33 0.99 7.66 1.98 8 3 C8.66 3.66 9.32 4.32 10 5 C4.25 4.125 4.25 4.125 2 3 C2 3.66 2 4.32 2 5 C0.68 4.67 -0.64 4.34 -2 4 C-1.34 3.67 -0.68 3.34 0 3 C0 2.01 0 1.02 0 0 Z " fill="#4C4C4C" transform="translate(266,40)"/>
<path d="M0 0 C4.17443363 3.50074982 8.3145494 6.97950843 12 11 C12 11.66 12 12.32 12 13 C8.62801098 11.53424802 6.35012996 9.64818479 3.75 7.0625 C3.04359375 6.37285156 2.3371875 5.68320312 1.609375 4.97265625 C0 3 0 3 0 0 Z " fill="#712D44" transform="translate(7,35)"/>
<path d="M0 0 C0.66 0.33 1.32 0.66 2 1 C1.25 6.75 1.25 6.75 -1 9 C-3.125 8.625 -3.125 8.625 -5 8 C-4.67 6.35 -4.34 4.7 -4 3 C-2.68 2.67 -1.36 2.34 0 2 C0 1.34 0 0.68 0 0 Z " fill="#862341" transform="translate(68,28)"/>
<path d="M0 0 C0.33 0 0.66 0 1 0 C1 3.3 1 6.6 1 10 C0.67 8.68 0.34 7.36 0 6 C-0.99 6.33 -1.98 6.66 -3 7 C-3 7.99 -3 8.98 -3 10 C-2.34 10.66 -1.68 11.32 -1 12 C-2.32 11.67 -3.64 11.34 -5 11 C-5.625 8.625 -5.625 8.625 -6 6 C-5.34 5.34 -4.68 4.68 -4 4 C-2.68 4 -1.36 4 0 4 C0 2.68 0 1.36 0 0 Z " fill="#1F1F1F" transform="translate(336,54)"/>
<path d="M0 0 C0.66 0 1.32 0 2 0 C2 3.63 2 7.26 2 11 C1.34 11 0.68 11 0 11 C-2.29013653 7.5647952 -2.17842973 6.014669 -2 2 C-1.34 2 -0.68 2 0 2 C0 1.34 0 0.68 0 0 Z " fill="#7B7B7B" transform="translate(100,55)"/>
<path d="M0 0 C0 0.66 0 1.32 0 2 C-0.99 2 -1.98 2 -3 2 C-3 3.32 -3 4.64 -3 6 C-2.34 6.33 -1.68 6.66 -1 7 C-1.66 7 -2.32 7 -3 7 C-3 8.98 -3 10.96 -3 13 C-3.66 13 -4.32 13 -5 13 C-5.7518819 8.73933592 -6.35024359 5.1734802 -5 1 C-3 0 -3 0 0 0 Z " fill="#141414" transform="translate(162,53)"/>
<path d="M0 0 C0 4 0 4 -1.3125 5.5 C-1.869375 5.995 -2.42625 6.49 -3 7 C-4.01800576 8.31963709 -5.02248365 9.65009646 -6 11 C-6.08096803 9.54257537 -6.13917774 8.08387193 -6.1875 6.625 C-6.22230469 5.81289063 -6.25710937 5.00078125 -6.29296875 4.1640625 C-6.19628906 3.44992188 -6.09960938 2.73578125 -6 2 C-3 0 -3 0 0 0 Z " fill="#8A1437" transform="translate(30,36)"/>
<path d="M0 0 C0.66 0 1.32 0 2 0 C2 0.66 2 1.32 2 2 C2.99 2 3.98 2 5 2 C5 2.66 5 3.32 5 4 C4.01 4 3.02 4 2 4 C2.57344937 6.86724686 2.8614515 7.8614515 5 10 C3.35 9.67 1.7 9.34 0 9 C-1.125 2.25 -1.125 2.25 0 0 Z " fill="#353535" transform="translate(123,56)"/>
<path d="M0 0 C1.29315061 0.95632999 2.58446853 1.91513851 3.875 2.875 C4.59429688 3.40867188 5.31359375 3.94234375 6.0546875 4.4921875 C8 6 8 6 10 8 C8.375 8.8125 8.375 8.8125 6 9 C2.75 6.8125 2.75 6.8125 0 4 C0 2.68 0 1.36 0 0 Z " fill="#873650" transform="translate(27,53)"/>
<path d="M0 0 C0.66 0 1.32 0 2 0 C2 3.96 2 7.92 2 12 C1.34 12 0.68 12 0 12 C-0.144375 10.906875 -0.28875 9.81375 -0.4375 8.6875 C-0.88288104 5.06877013 -0.88288104 5.06877013 -2 2 C-1.34 1.34 -0.68 0.68 0 0 Z " fill="#090909" transform="translate(96,54)"/>
<path d="M0 0 C1.65 0.33 3.3 0.66 5 1 C4.01 1.495 4.01 1.495 3 2 C2.34 1.67 1.68 1.34 1 1 C1 1.66 1 2.32 1 3 C2.32 3.33 3.64 3.66 5 4 C4.67 4.99 4.34 5.98 4 7 C2.35 7 0.7 7 -1 7 C-1 3 -1 3 0 0 Z " fill="#626262" transform="translate(86,73)"/>
<path d="M0 0 C0.66 0 1.32 0 2 0 C2 3.63 2 7.26 2 11 C1.01 11 0.02 11 -1 11 C-1.125 3.375 -1.125 3.375 0 0 Z " fill="#5D5D5D" transform="translate(282,55)"/>
<path d="M0 0 C1.32 0 2.64 0 4 0 C4 0.66 4 1.32 4 2 C2.68 2 1.36 2 0 2 C0 3.32 0 4.64 0 6 C1.32 6 2.64 6 4 6 C4 6.66 4 7.32 4 8 C2.33388095 8.042721 0.66617115 8.04063832 -1 8 C-2 7 -2 7 -2.1875 4.5625 C-2 2 -2 2 0 0 Z " fill="#2A2A2A" transform="translate(350,58)"/>
<path d="M0 0 C0.99 0.33 1.98 0.66 3 1 C3 1.66 3 2.32 3 3 C3.66 2.67 4.32 2.34 5 2 C4.67 1.34 4.34 0.68 4 0 C4.99 0.33 5.98 0.66 7 1 C7 1.99 7 2.98 7 4 C4.36 4.66 1.72 5.32 -1 6 C-1.042721 4.33388095 -1.04063832 2.66617115 -1 1 C-0.67 0.67 -0.34 0.34 0 0 Z " fill="#434343" transform="translate(203,76)"/>
<path d="M0 0 C-1.75 4.875 -1.75 4.875 -4 6 C-4.99 4.02 -5.98 2.04 -7 0 C-3.86650268 -1.04449911 -3.01031744 -0.93423645 0 0 Z " fill="#EBEBEB" transform="translate(95,54)"/>
<path d="M0 0 C1.98 0 3.96 0 6 0 C6 0.33 6 0.66 6 1 C4.35 1 2.7 1 1 1 C1 1.66 1 2.32 1 3 C2.98 2.67 4.96 2.34 7 2 C7 2.66 7 3.32 7 4 C4.04335481 5.4783226 1.25770263 5.06032783 -2 5 C-1.34 3.35 -0.68 1.7 0 0 Z " fill="#943D58" transform="translate(26,43)"/>
<path d="M0 0 C0 1.32 0 2.64 0 4 C-2.31 4.33 -4.62 4.66 -7 5 C-7 5.66 -7 6.32 -7 7 C-7.66 7 -8.32 7 -9 7 C-8.67 5.35 -8.34 3.7 -8 2 C-2.25 0 -2.25 0 0 0 Z " fill="#F7E6ED" transform="translate(49,10)"/>
<path d="M0 0 C2.31 0 4.62 0 7 0 C7 1.98 7 3.96 7 6 C6.34 4.68 5.68 3.36 5 2 C4.34 2 3.68 2 3 2 C2.67 3.65 2.34 5.3 2 7 C1.34 7 0.68 7 0 7 C0 4.69 0 2.38 0 0 Z " fill="#2B2B2B" transform="translate(103,59)"/>
<path d="M0 0 C0.66 0 1.32 0 2 0 C2 0.99 2 1.98 2 3 C2.66 3.33 3.32 3.66 4 4 C3.34 4 2.68 4 2 4 C2.66 5.98 3.32 7.96 4 10 C2.68 9.67 1.36 9.34 0 9 C-1.125 2.25 -1.125 2.25 0 0 Z " fill="#1B1B1B" transform="translate(364,56)"/>
<path d="M0 0 C0.66 0 1.32 0 2 0 C2 3.96 2 7.92 2 12 C1.34 12 0.68 12 0 12 C0 10.35 0 8.7 0 7 C-0.66 6.67 -1.32 6.34 -2 6 C-1.34 6 -0.68 6 0 6 C0 4.02 0 2.04 0 0 Z " fill="#1E1E1E" transform="translate(181,53)"/>
<path d="M0 0 C1.65 0 3.3 0 5 0 C6.35439668 2.70879335 6.06501451 5.00933268 6 8 C5.34 6.68 4.68 5.36 4 4 C2.68 4.33 1.36 4.66 0 5 C0 3.35 0 1.7 0 0 Z " fill="#999999" transform="translate(301,36)"/>
<path d="M0 0 C0.33 0 0.66 0 1 0 C1.04898437 0.78246094 1.09796875 1.56492187 1.1484375 2.37109375 C1.22320313 3.38300781 1.29796875 4.39492188 1.375 5.4375 C1.44460937 6.44683594 1.51421875 7.45617188 1.5859375 8.49609375 C1.72257812 9.32238281 1.85921875 10.14867187 2 11 C2.66 11.33 3.32 11.66 4 12 C3.67 13.65 3.34 15.3 3 17 C0.41451372 14.41451372 0.02358153 12.70461615 -0.09765625 9.08203125 C-0.08605469 8.00308594 -0.07445313 6.92414062 -0.0625 5.8125 C-0.05347656 4.72582031 -0.04445313 3.63914062 -0.03515625 2.51953125 C-0.02355469 1.68808594 -0.01195313 0.85664063 0 0 Z " fill="#944C62" transform="translate(21,28)"/>
<path d="M0 0 C0.66 0.99 1.32 1.98 2 3 C4.56282742 3.72965366 4.56282742 3.72965366 7 4 C7.33 4.99 7.66 5.98 8 7 C5.03 6.01 2.06 5.02 -1 4 C-1 1 -1 1 0 0 Z " fill="#ECCED7" transform="translate(56,67)"/>
<path d="M0 0 C0.66 0 1.32 0 2 0 C2.36521739 5.47826087 2.36521739 5.47826087 0.6875 7.875 C-1 9 -1 9 -4 9 C-4 8.34 -4 7.68 -4 7 C-3.01 6.34 -2.02 5.68 -1 5 C-0.27034634 2.43717258 -0.27034634 2.43717258 0 0 Z " fill="#2B2B2B" transform="translate(379,41)"/>
<path d="M0 0 C0.99 0 1.98 0 3 0 C2.125 4.875 2.125 4.875 1 6 C-0.66617115 6.04063832 -2.33388095 6.042721 -4 6 C-3.01 5.67 -2.02 5.34 -1 5 C-0.67 3.35 -0.34 1.7 0 0 Z " fill="#E1E1E1" transform="translate(338,42)"/>
<path d="M0 0 C1.65 0 3.3 0 5 0 C5.33 1.32 5.66 2.64 6 4 C5.34 4 4.68 4 4 4 C4.33 4.66 4.66 5.32 5 6 C3.68 5.67 2.36 5.34 1 5 C0.67 3.35 0.34 1.7 0 0 Z " fill="#131313" transform="translate(152,40)"/>
<path d="M0 0 C0.66 0 1.32 0 2 0 C2 0.99 2 1.98 2 3 C3.98 3 5.96 3 8 3 C8 3.66 8 4.32 8 5 C5.36 5 2.72 5 0 5 C0 3.35 0 1.7 0 0 Z " fill="#3D3D3D" transform="translate(167,61)"/>
<path d="M0 0 C0.99 0 1.98 0 3 0 C3 2.31 3 4.62 3 7 C1.68 6.67 0.36 6.34 -1 6 C-0.67 4.02 -0.34 2.04 0 0 Z " fill="#555555" transform="translate(183,73)"/>
<path d="M0 0 C0.33 0.99 0.66 1.98 1 3 C0.01 3 -0.98 3 -2 3 C-2 2.34 -2 1.68 -2 1 C-2.5775 1.226875 -3.155 1.45375 -3.75 1.6875 C-6 2 -6 2 -8.25 0.5625 C-8.8275 0.046875 -9.405 -0.46875 -10 -1 C-6.01178789 -2.32940404 -3.88269755 -1.43803613 0 0 Z " fill="#8D435A" transform="translate(37,73)"/>
<path d="M0 0 C-1.32 0.33 -2.64 0.66 -4 1 C-4 1.99 -4 2.98 -4 4 C-5.65 4 -7.3 4 -9 4 C-9 3.01 -9 2.02 -9 1 C-6.04335481 -0.4783226 -3.25770263 -0.06032783 0 0 Z " fill="#747474" transform="translate(337,46)"/>
<path d="M0 0 C0.99 0.33 1.98 0.66 3 1 C2.8125 3.875 2.8125 3.875 2 7 C-0.5625 8.375 -0.5625 8.375 -3 9 C-3 8.34 -3 7.68 -3 7 C-2.01 6.34 -1.02 5.68 0 5 C0.25030977 2.41619823 0.25030977 2.41619823 0 0 Z " fill="#262626" transform="translate(370,41)"/>
<path d="M0 0 C0.33 1.32 0.66 2.64 1 4 C0.360625 4.28875 -0.27875 4.5775 -0.9375 4.875 C-3.15206079 5.82823451 -3.15206079 5.82823451 -4 8 C-4 7.01 -4 6.02 -4 5 C-4.99 4.67 -5.98 4.34 -7 4 C-5.02 3.67 -3.04 3.34 -1 3 C-0.67 2.01 -0.34 1.02 0 0 Z " fill="#CDCDCD" transform="translate(370,42)"/>
<path d="M0 0 C0.66 0 1.32 0 2 0 C2.33 2.31 2.66 4.62 3 7 C1.68 6.67 0.36 6.34 -1 6 C-1.042721 4.33388095 -1.04063832 2.66617115 -1 1 C-0.67 0.67 -0.34 0.34 0 0 Z " fill="#E6E6E6" transform="translate(106,60)"/>
<path d="M0 0 C2.31 0.33 4.62 0.66 7 1 C6.01 1.33 5.02 1.66 4 2 C3.67 2.99 3.34 3.98 3 5 C1.02 5 -0.96 5 -3 5 C-1.68 4.01 -0.36 3.02 1 2 C0.67 1.34 0.34 0.68 0 0 Z " fill="#111111" transform="translate(93,44)"/>
<path d="M0 0 C2 0.3125 2 0.3125 4 1 C4.33 1.66 4.66 2.32 5 3 C4.67 3.66 4.34 4.32 4 5 C2.0625 4.6875 2.0625 4.6875 0 4 C-0.33 3.01 -0.66 2.02 -1 1 C-0.67 0.67 -0.34 0.34 0 0 Z " fill="#5B5B5B" transform="translate(384,40)"/>
<path d="M0 0 C0.99 0.66 1.98 1.32 3 2 C2.34 3.65 1.68 5.3 1 7 C-0.32 6.67 -1.64 6.34 -3 6 C-2.34 5.67 -1.68 5.34 -1 5 C-0.34444881 2.47266765 -0.34444881 2.47266765 0 0 Z " fill="#7C374E" transform="translate(65,75)"/>
<path d="M0 0 C0 3 0 3 -1 5 C-2.65 5 -4.3 5 -6 5 C-6 4.01 -6 3.02 -6 2 C-4.02 1.34 -2.04 0.68 0 0 Z " fill="#878787" transform="translate(96,48)"/>
<path d="M0 0 C0.33 0 0.66 0 1 0 C1.1875 2.375 1.1875 2.375 1 5 C0.01 5.66 -0.98 6.32 -2 7 C-2.99 6.67 -3.98 6.34 -5 6 C-4.01 5.34 -3.02 4.68 -2 4 C-2.66 3.34 -3.32 2.68 -4 2 C-2.68 2 -1.36 2 0 2 C0 1.34 0 0.68 0 0 Z " fill="#181818" transform="translate(218,43)"/>
<path d="M0 0 C0.99 0.33 1.98 0.66 3 1 C3 2.32 3 3.64 3 5 C1.68 5 0.36 5 -1 5 C-0.67 3.35 -0.34 1.7 0 0 Z " fill="#E7E7E7" transform="translate(123,74)"/>
<path d="M0 0 C1.67542976 0.28604898 3.34385343 0.61781233 5 1 C4.67 1.99 4.34 2.98 4 4 C2.68 4 1.36 4 0 4 C-0.33 3.01 -0.66 2.02 -1 1 C-0.67 0.67 -0.34 0.34 0 0 Z " fill="#4F4F4F" transform="translate(304,58)"/>
<path d="M0 0 C0.99 0 1.98 0 3 0 C3 0.66 3 1.32 3 2 C3.66 2.33 4.32 2.66 5 3 C3.68 3 2.36 3 1 3 C1 4.98 1 6.96 1 9 C0.67 9 0.34 9 0 9 C-1.125 3.375 -1.125 3.375 0 0 Z " fill="#595959" transform="translate(209,56)"/>
<path d="M0 0 C0.66 0 1.32 0 2 0 C2.33 0.66 2.66 1.32 3 2 C3.66 2 4.32 2 5 2 C5.33 2.99 5.66 3.98 6 5 C4.68 5.33 3.36 5.66 2 6 C1.01 4.35 0.02 2.7 -1 1 C-0.67 0.67 -0.34 0.34 0 0 Z " fill="#4C4C4C" transform="translate(227,40)"/>
<path d="M0 0 C1.98 0.495 1.98 0.495 4 1 C3.34 2.65 2.68 4.3 2 6 C1.01 6 0.02 6 -1 6 C-0.649375 5.38125 -0.29875 4.7625 0.0625 4.125 C0.371875 3.42375 0.68125 2.7225 1 2 C0.67 1.34 0.34 0.68 0 0 Z " fill="#DBDCDC" transform="translate(151,75)"/>
<path d="M0 0 C1.32 0 2.64 0 4 0 C3.67 1.32 3.34 2.64 3 4 C1.35 4 -0.3 4 -2 4 C-2 2 -2 2 0 0 Z " fill="#212121" transform="translate(117,62)"/>
<path d="M0 0 C1.98 0.99 3.96 1.98 6 3 C3 5 3 5 0 5 C0 3.35 0 1.7 0 0 Z " fill="#F8E7ED" transform="translate(32,61)"/>
<path d="M0 0 C0.66 0.33 1.32 0.66 2 1 C0.02 2.98 -1.96 4.96 -4 7 C-4.99 6.67 -5.98 6.34 -7 6 C-4.69 4.02 -2.38 2.04 0 0 Z " fill="#F5DAE3" transform="translate(63,54)"/>
<path d="M0 0 C-0.99 0.33 -1.98 0.66 -3 1 C-3 1.99 -3 2.98 -3 4 C-4.32 4 -5.64 4 -7 4 C-7 3.01 -7 2.02 -7 1 C-4.53721199 -0.231394 -2.7204945 -0.07159196 0 0 Z " fill="#6E6E6E" transform="translate(188,46)"/>
<path d="M0 0 C2.475 0.99 2.475 0.99 5 2 C4.67 2.66 4.34 3.32 4 4 C2.35 3.67 0.7 3.34 -1 3 C-0.67 2.01 -0.34 1.02 0 0 Z " fill="#E9E9E9" transform="translate(90,44)"/>
<path d="M0 0 C0 0.66 0 1.32 0 2 C-0.99 2.495 -0.99 2.495 -2 3 C-2.33 3.99 -2.66 4.98 -3 6 C-3.99 6 -4.98 6 -6 6 C-5.6875 4.125 -5.6875 4.125 -5 2 C-2 0 -2 0 0 0 Z " fill="#8D2F4D" transform="translate(46,18)"/>
</svg>
