<?xml version="1.0" encoding="UTF-8"?>
<svg version="1.1" xmlns="http://www.w3.org/2000/svg" width="242" height="46">
<path d="M0 0 C79.86 0 159.72 0 242 0 C242 15.18 242 30.36 242 46 C162.14 46 82.28 46 0 46 C0 30.82 0 15.64 0 0 Z " fill="#FAFAF9" transform="translate(0,0)"/>
<path d="M0 0 C40.92 0 81.84 0 124 0 C124 15.18 124 30.36 124 46 C84.4 46 44.8 46 4 46 C5.06799623 31.04805276 5.06799623 31.04805276 7.16796875 26.3515625 C9.241448 20.49130659 9.9541033 14.11219063 11 8 C7.04 8 3.08 8 -1 8 C-0.67 5.36 -0.34 2.72 0 0 Z " fill="#F7F6F1" transform="translate(118,0)"/>
<path d="M0 0 C17.82 0 35.64 0 54 0 C54 15.18 54 30.36 54 46 C45.42 46 36.84 46 28 46 C26.494375 42.803125 24.98875 39.60625 23.4375 36.3125 C22.95853271 35.31387939 22.47956543 34.31525879 21.98608398 33.28637695 C21.61813721 32.48675537 21.25019043 31.68713379 20.87109375 30.86328125 C20.48880615 30.05157471 20.10651855 29.23986816 19.71264648 28.40356445 C18.84969262 25.49305372 19.09602972 23.87824608 20 21 C21.54648345 18.74928911 23.0913191 16.66780711 24.8125 14.5625 C25.69590992 13.46115636 26.57743726 12.35829989 27.45703125 11.25390625 C27.88322754 10.71910645 28.30942383 10.18430664 28.74853516 9.63330078 C30.63446991 7.17194621 32.31584484 4.60278524 34 2 C29.91618122 1.09253365 29.91618122 1.09253365 26 2 C23.74579307 4.4789028 21.88211775 6.93440859 20.05883789 9.73144531 C19.09856872 11.19500249 18.05426529 12.60263062 17 14 C16.01 14 15.02 14 14 14 C12.35 10.04 10.7 6.08 9 2 C6.03 2 3.06 2 0 2 C0 1.34 0 0.68 0 0 Z " fill="#F8F5EB" transform="translate(188,0)"/>
<path d="M0 0 C1.37478516 0.01740234 1.37478516 0.01740234 2.77734375 0.03515625 C3.69644531 0.04417969 4.61554688 0.05320313 5.5625 0.0625 C6.27277344 0.07410156 6.98304688 0.08570312 7.71484375 0.09765625 C8.55871727 4.57623283 9.39451044 9.05622152 10.22338867 13.53759766 C10.50544286 15.05654857 10.78956329 16.57511751 11.07592773 18.09326172 C11.49118873 20.29683581 11.89857413 22.50175508 12.3046875 24.70703125 C12.43076889 25.36693054 12.55685028 26.02682983 12.68675232 26.70672607 C13.80977556 32.8787612 14.18528472 38.7429479 14.71484375 45.09765625 C2.17484375 45.09765625 -10.36515625 45.09765625 -23.28515625 45.09765625 C-22.37796938 40.56172189 -21.01060294 37.23847245 -18.91015625 33.22265625 C-14.73481227 25.07657483 -10.79036972 16.82909066 -6.87939453 8.55322266 C-6.42677246 7.5997998 -5.97415039 6.64637695 -5.5078125 5.6640625 C-5.10312744 4.80756104 -4.69844238 3.95105957 -4.28149414 3.06860352 C-2.79056238 0.1192548 -2.79056238 0.1192548 0 0 Z " fill="#F8B816" transform="translate(163.28515625,0.90234375)"/>
<path d="M0 0 C5.20659554 -0.42677013 5.20659554 -0.42677013 8 0 C11.17203009 3.50017113 12.42699862 8.58061517 14 13 C17.12273927 10.06095127 19.44575688 7.31121195 21.75 3.6875 C23.55558417 1.16819015 24.31767153 0.14653284 27.3828125 -0.51171875 C29.64183395 -0.50109639 31.77095148 -0.35664776 34 0 C30.7484341 6.00647257 26.89497844 11.24997055 22.62695312 16.5703125 C19.79230982 20.13023121 19.79230982 20.13023121 18.953125 24.44921875 C19.29859375 25.29097656 19.6440625 26.13273437 20 27 C20.25048096 27.61101563 20.50096191 28.22203125 20.7590332 28.8515625 C21.65596516 30.9822479 22.60160205 33.08494112 23.5625 35.1875 C27 42.74192759 27 42.74192759 27 45 C24.03 45 21.06 45 18 45 C17.34865075 43.43979133 16.70417036 41.87671421 16.0625 40.3125 C15.70285156 39.44238281 15.34320313 38.57226562 14.97265625 37.67578125 C14.0429688 35.11820735 13.45837375 32.6778677 13 30 C12.34 30 11.68 30 11 30 C10.73316406 30.72574219 10.46632812 31.45148437 10.19140625 32.19921875 C8.24540917 36.77390697 5.75774628 40.70669427 2 44 C-1.14446424 44.73869954 -3.83869693 44.5806475 -7 44 C-4.93792531 40.17677539 -2.8260674 36.65772844 -0.1328125 33.24609375 C0.35960937 32.61896484 0.85203125 31.99183594 1.359375 31.34570312 C2.38080838 30.05969744 3.41502281 28.78375317 4.4609375 27.51757812 C5.85882476 25.71259338 7.04759459 24.07552771 8 22 C7.63910287 18.79230306 7.63910287 18.79230306 6 16 C5.58621094 15.154375 5.17242187 14.30875 4.74609375 13.4375 C4.31425781 12.633125 3.88242188 11.82875 3.4375 11 C1.54624703 7.31761921 0.33018985 4.18240472 0 0 Z " fill="#F7B714" transform="translate(189,1)"/>
<path d="M0 0 C10.56 0 21.12 0 32 0 C32 2.31 32 4.62 32 7 C27.71 7 23.42 7 19 7 C18.87625 8.381875 18.7525 9.76375 18.625 11.1875 C17.99300508 17.49854785 17.0126797 23.74046532 16 30 C15.82210937 31.13050781 15.64421875 32.26101562 15.4609375 33.42578125 C15.28820312 34.50214844 15.11546875 35.57851563 14.9375 36.6875 C14.78152344 37.66074219 14.62554687 38.63398437 14.46484375 39.63671875 C14 42 14 42 13 44 C10.69 44 8.38 44 6 44 C5.64749201 35.90112887 6.9968576 28.37977945 8.5 20.4375 C8.85771484 18.49520508 8.85771484 18.49520508 9.22265625 16.51367188 C9.8079964 13.34112828 10.40302296 10.17037448 11 7 C7.04 7 3.08 7 -1 7 C-0.67 4.69 -0.34 2.38 0 0 Z " fill="#F8B613" transform="translate(118,1)"/>
<path d="M0 0 C0.66 0.33 1.32 0.66 2 1 C1.19978687 10.44251488 -2.58236401 17.68383119 -6.91552734 25.89648438 C-8.71300807 29.3829981 -10.35734331 32.93855957 -12 36.5 C-12.30252686 37.15323242 -12.60505371 37.80646484 -12.91674805 38.47949219 C-13.61317876 39.98539863 -14.30691905 41.49254892 -15 43 C-17.31 43 -19.62 43 -22 43 C-22 41.68 -22 40.36 -22 39 C-21.01 39 -20.02 39 -19 39 C-19.495 37.515 -19.495 37.515 -20 36 C-20.09449363 33.79329586 -20.12989739 31.58372095 -20.125 29.375 C-20.12757813 28.20710938 -20.13015625 27.03921875 -20.1328125 25.8359375 C-20 23 -20 23 -19 22 C-18.8151097 20.44163894 -18.67713351 18.87759833 -18.5625 17.3125 C-18.20372698 13.27919686 -17.49657117 9.79131363 -16 6 C-14.73542969 5.96132812 -14.73542969 5.96132812 -13.4453125 5.921875 C-12.34960938 5.86515625 -11.25390625 5.8084375 -10.125 5.75 C-9.03445312 5.70359375 -7.94390625 5.6571875 -6.8203125 5.609375 C-5.88960937 5.40828125 -4.95890625 5.2071875 -4 5 C-2.68583478 3.08071534 -2.68583478 3.08071534 -2 1 C-1.34 0.67 -0.68 0.34 0 0 Z " fill="#F7F6F3" transform="translate(155,3)"/>
<path d="M0 0 C2.05078125 0.03255208 4.1015625 0.06510417 6.15234375 0.09765625 C4.08334162 15.14494448 1.71113835 30.1260689 -0.84765625 45.09765625 C-3.48765625 45.09765625 -6.12765625 45.09765625 -8.84765625 45.09765625 C-8.39371567 33.47677753 -6.28247445 22.14578055 -4.28515625 10.71191406 C-3.90751688 8.45535021 -3.58098124 6.20197056 -3.28515625 3.93359375 C-2.70033888 0.14272404 -2.70033888 0.14272404 0 0 Z " fill="#FAB609" transform="translate(231.84765625,-0.09765625)"/>
<path d="M0 0 C1.32 0 2.64 0 4 0 C4 15.18 4 30.36 4 46 C1.03 46 -1.94 46 -5 46 C-4.77269683 30.25533611 -3.47448922 15.36855463 0 0 Z " fill="#F8F6EF" transform="translate(238,0)"/>
<path d="M0 0 C17.82 0 35.64 0 54 0 C55.20272819 2.40545638 55.10071472 3.94996953 55.0625 6.625 C55.05347656 7.44226563 55.04445312 8.25953125 55.03515625 9.1015625 C55.02355469 9.72804688 55.01195312 10.35453125 55 11 C54.67 11 54.34 11 54 11 C53.67 7.7 53.34 4.4 53 1 C47.85919363 0.82978389 47.85919363 0.82978389 43 2 C40.61371351 5.0785718 39.26438178 8.33329284 38 12 C37.12159004 8.90279155 37.00564594 7.09354597 38 4 C34.52859548 4.76429774 34.52859548 4.76429774 33 9 C29.04 9 25.08 9 21 9 C21 10.65 21 12.3 21 14 C20.67 14.33 20.34 14.66 20 15 C19.79224439 16.66204487 19.63281745 18.33029491 19.5 20 C19.11111111 24.88888889 19.11111111 24.88888889 18 26 C17.92680379 28.69654854 17.90757463 31.36691458 17.9375 34.0625 C17.94201172 34.82111328 17.94652344 35.57972656 17.95117188 36.36132812 C17.9629932 38.24091871 17.98092922 40.12046899 18 42 C17.01 42 16.02 42 15 42 C15 43.32 15 44.64 15 46 C11.37 46 7.74 46 4 46 C4.77904328 31.21867882 4.77904328 31.21867882 7 25 C7.33 25 7.66 25 8 25 C8.31620422 31.79839071 7.12676382 38.30983984 6 45 C8.31 45 10.62 45 13 45 C13.11069824 44.23445801 13.22139648 43.46891602 13.33544922 42.68017578 C13.84587416 39.16137742 14.36040974 35.64319153 14.875 32.125 C15.13603516 30.31902344 15.13603516 30.31902344 15.40234375 28.4765625 C16.4112628 21.60096604 17.56768572 14.80026689 19 8 C23.29 8 27.58 8 32 8 C32 5.69 32 3.38 32 1 C21.44 1 10.88 1 0 1 C0 0.67 0 0.34 0 0 Z " fill="#FCECB2" transform="translate(118,0)"/>
<path d="M0 0 C1.125 3.75 1.125 3.75 0 6 C0.66 6 1.32 6 2 6 C2.33 6.66 2.66 7.32 3 8 C3.99 8 4.98 8 6 8 C6.66 6.02 7.32 4.04 8 2 C10.34770643 5.52155964 10.37669614 7.50771843 10.625 11.6875 C10.69976562 12.86699219 10.77453125 14.04648437 10.8515625 15.26171875 C10.90054688 16.16535156 10.94953125 17.06898437 11 18 C9.58847656 18.07347656 9.58847656 18.07347656 8.1484375 18.1484375 C6.28058594 18.26058594 6.28058594 18.26058594 4.375 18.375 C3.14523438 18.44460937 1.91546875 18.51421875 0.6484375 18.5859375 C-2.83653855 18.9814487 -5.73049601 19.76261849 -9 21 C-7.50640515 16.15713185 -5.54966433 11.68649104 -3.375 7.125 C-2.88773438 6.09246094 -2.88773438 6.09246094 -2.390625 5.0390625 C-1.59676528 3.35794781 -0.79880442 1.67877079 0 0 Z " fill="#F8B714" transform="translate(156,10)"/>
<path d="M0 0 C1.36266876 0.02385996 2.72508025 0.07425543 4.0859375 0.1484375 C4.77945313 0.16261719 5.47296875 0.17679688 6.1875 0.19140625 C11.27804326 0.34054326 11.27804326 0.34054326 12.4609375 1.5234375 C12.7909375 4.8234375 13.1209375 8.1234375 13.4609375 11.5234375 C6.5309375 11.5234375 -0.3990625 11.5234375 -7.5390625 11.5234375 C-5.76048838 0.85199276 -5.76048838 0.85199276 0 0 Z " fill="#F6F6F0" transform="translate(156.5390625,34.4765625)"/>
<path d="M0 0 C0.66 0 1.32 0 2 0 C2.83524086 2.31182738 3.66827586 4.62440774 4.5 6.9375 C4.73847656 7.59685547 4.97695312 8.25621094 5.22265625 8.93554688 C7 13.88671875 7 13.88671875 7 15 C-2.57 15 -12.14 15 -22 15 C-22.84728203 10.76358987 -23.08384078 7.27587998 -23 3 C-22.01 3.495 -22.01 3.495 -21 4 C-20.375 7.0625 -20.375 7.0625 -20 10 C-19.01 10.33 -18.02 10.66 -17 11 C-17 11.66 -17 12.32 -17 13 C-12.90620463 13.9972986 -12.90620463 13.9972986 -9 13 C-6.25838914 9.78045381 -4.0818268 6.44200247 -1.8828125 2.84375 C-1.26148438 1.9053125 -0.64015625 0.966875 0 0 Z " fill="#F8F6F0" transform="translate(200,31)"/>
<path d="M0 0 C11.88 0 23.76 0 36 0 C35 5 35 5 33 8 C32.34 8 31.68 8 31 8 C32 6 33 4 34 2 C29.91618122 1.09253365 29.91618122 1.09253365 26 2 C23.74579307 4.4789028 21.88211775 6.93440859 20.05883789 9.73144531 C19.09856872 11.19500249 18.05426529 12.60263062 17 14 C16.01 14 15.02 14 14 14 C12.35 10.04 10.7 6.08 9 2 C6.03 2 3.06 2 0 2 C0 1.34 0 0.68 0 0 Z " fill="#FAF3DC" transform="translate(188,0)"/>
<path d="M0 0 C2.58203125 1.05859375 2.58203125 1.05859375 4.3828125 4.1484375 C4.90668204 5.42296567 5.40998556 6.70610273 5.89453125 7.99609375 C6.15814453 8.64255859 6.42175781 9.28902344 6.69335938 9.95507812 C8.58203125 14.67921063 8.58203125 14.67921063 8.58203125 17.05859375 C5.61203125 17.05859375 2.64203125 17.05859375 -0.41796875 17.05859375 C-1.09553757 15.50079043 -1.75956332 13.93709279 -2.41796875 12.37109375 C-2.78921875 11.50097656 -3.16046875 10.63085938 -3.54296875 9.734375 C-4.45145571 6.95618944 -4.73408248 4.95794939 -4.41796875 2.05859375 C-2.41796875 0.05859375 -2.41796875 0.05859375 0 0 Z " fill="#F8B716" transform="translate(207.41796875,28.94140625)"/>
<path d="M0 0 C0.66 0.33 1.32 0.66 2 1 C1.46890625 2.05058594 0.9378125 3.10117187 0.390625 4.18359375 C-3.23971851 11.38937954 -6.82030385 18.58070898 -10 26 C-12.31 26 -14.62 26 -17 26 C-17 24.68 -17 23.36 -17 22 C-16.01 22 -15.02 22 -14 22 C-14.33 19.36 -14.66 16.72 -15 14 C-13.35 14 -11.7 14 -10 14 C-9.67 13.34 -9.34 12.68 -9 12 C-8.01 12 -7.02 12 -6 12 C-5.67 10.68 -5.34 9.36 -5 8 C-4.34 8 -3.68 8 -3 8 C-3 6.68 -3 5.36 -3 4 C-2.34 4 -1.68 4 -1 4 C-0.67 2.68 -0.34 1.36 0 0 Z " fill="#FAF5E3" transform="translate(150,20)"/>
<path d="M0 0 C2.34770643 3.52155964 2.37669614 5.50771843 2.625 9.6875 C2.69976562 10.86699219 2.77453125 12.04648437 2.8515625 13.26171875 C2.90054688 14.16535156 2.94953125 15.06898437 3 16 C-0.3 16 -3.6 16 -7 16 C-5.19961464 10.14874758 -3.21281482 5.20697575 0 0 Z " fill="#F8F7F4" transform="translate(164,12)"/>
<path d="M0 0 C3 3.625 3 3.625 3 7 C3.66 7.66 4.32 8.32 5 9 C4.34 10.98 3.68 12.96 3 15 C0.03 15 -2.94 15 -6 15 C-5.39644592 11.14974121 -4.23227397 8.13898841 -2.4375 4.6875 C-1.98246094 3.80449219 -1.52742187 2.92148437 -1.05859375 2.01171875 C-0.53458984 1.01591797 -0.53458984 1.01591797 0 0 Z " fill="#F8B70A" transform="translate(146,31)"/>
<path d="M0 0 C1.63001953 0.15275391 1.63001953 0.15275391 3.29296875 0.30859375 C4.12441406 0.39238281 4.95585937 0.47617187 5.8125 0.5625 C5.8125 1.8825 5.8125 3.2025 5.8125 4.5625 C1.5225 4.5625 -2.7675 4.5625 -7.1875 4.5625 C-7.5175 6.5425 -7.8475 8.5225 -8.1875 10.5625 C-9.1775 10.2325 -10.1675 9.9025 -11.1875 9.5625 C-11.5175 7.2525 -11.8475 4.9425 -12.1875 2.5625 C-7.75058149 -0.39544567 -5.18795052 -0.50205973 0 0 Z " fill="#FDB602" transform="translate(159.1875,28.4375)"/>
<path d="M0 0 C0.33 0 0.66 0 1 0 C1.02685938 2.14576637 1.04633088 4.29162645 1.0625 6.4375 C1.07410156 7.63246094 1.08570313 8.82742187 1.09765625 10.05859375 C1 13 1 13 0 14 C-0.20839015 15.64107242 -0.36751725 17.28856293 -0.5 18.9375 C-0.89022298 23.78044597 -0.89022298 23.78044597 -2 26 C-2.22467831 27.53668865 -2.40796805 29.07968054 -2.5625 30.625 C-2.64628906 31.44226563 -2.73007813 32.25953125 -2.81640625 33.1015625 C-2.87699219 33.72804687 -2.93757812 34.35453125 -3 35 C-1.68 35 -0.36 35 1 35 C1.66 31.37 2.32 27.74 3 24 C3.33 24 3.66 24 4 24 C4.07654536 28.51617599 4.10228696 32.59085217 3 37 C0.36 37 -2.28 37 -5 37 C-4.51208183 24.50929475 -2.16167214 12.28652982 0 0 Z " fill="#F0BA33" transform="translate(228,8)"/>
<path d="M0 0 C0.33 0 0.66 0 1 0 C0.85805236 2.06277107 0.71127784 4.12521031 0.5625 6.1875 C0.48128906 7.33605469 0.40007812 8.48460937 0.31640625 9.66796875 C0.04596188 12.51598171 -0.37521747 15.21210482 -1 18 C1.64 18 4.28 18 7 18 C7.07347656 16.66195312 7.07347656 16.66195312 7.1484375 15.296875 C7.22320312 14.12640625 7.29796875 12.9559375 7.375 11.75 C7.44460937 10.58984375 7.51421875 9.4296875 7.5859375 8.234375 C8 5 8 5 10 1 C9.67 6.94 9.34 12.88 9 19 C5.04 19 1.08 19 -3 19 C-3.04241723 16.66705225 -3.04092937 14.33297433 -3 12 C-2.67 11.67 -2.34 11.34 -2 11 C-1.79224439 9.33795513 -1.63281745 7.66970509 -1.5 6 C-1.11111111 1.11111111 -1.11111111 1.11111111 0 0 Z " fill="#FDE9A9" transform="translate(224,27)"/>
<path d="M0 0 C2.47923801 -0.02685095 4.9581884 -0.04676547 7.4375 -0.0625 C8.14455078 -0.07087891 8.85160156 -0.07925781 9.58007812 -0.08789062 C11.38693559 -0.09653588 13.19387603 -0.05220011 15 0 C16.58272601 1.58272601 16.34735747 3.38034003 16.5625 5.5625 C16.68818359 6.80193359 16.68818359 6.80193359 16.81640625 8.06640625 C16.87699219 8.70449219 16.93757813 9.34257813 17 10 C16.01 9.67 15.02 9.34 14 9 C14 6.69 14 4.38 14 2 C9.38 2 4.76 2 0 2 C0 1.34 0 0.68 0 0 Z " fill="#FEECAF" transform="translate(153,35)"/>
<path d="M0 0 C0.99 0.495 0.99 0.495 2 1 C2.625 4.0625 2.625 4.0625 3 7 C3.99 7.33 4.98 7.66 6 8 C6 8.66 6 9.32 6 10 C8.97 10 11.94 10 15 10 C15 10.66 15 11.32 15 12 C10.38 12 5.76 12 1 12 C0.15271797 7.76358987 -0.08384078 4.27587998 0 0 Z " fill="#FBF0BC" transform="translate(177,34)"/>
<path d="M0 0 C2.34770643 3.52155964 2.37669614 5.50771843 2.625 9.6875 C2.69976562 10.86699219 2.77453125 12.04648437 2.8515625 13.26171875 C2.90054688 14.16535156 2.94953125 15.06898437 3 16 C-0.3 16 -3.6 16 -7 16 C-6.34 14.68 -5.68 13.36 -5 12 C-4.67 12.66 -4.34 13.32 -4 14 C-2.35 14.33 -0.7 14.66 1 15 C1 11.37 1 7.74 1 4 C0.34 4 -0.32 4 -1 4 C-0.67 2.68 -0.34 1.36 0 0 Z " fill="#FEEEB0" transform="translate(164,12)"/>
<path d="M0 0 C0.33 0 0.66 0 1 0 C1.33 4.62 1.66 9.24 2 14 C1.01 14 0.02 14 -1 14 C-1.33 15.32 -1.66 16.64 -2 18 C-2.20190089 11.64012196 -1.6277833 6.14778871 0 0 Z " fill="#FCF2CD" transform="translate(134,28)"/>
<path d="M0 0 C0.66 0.33 1.32 0.66 2 1 C-0.97 5.29 -3.94 9.58 -7 14 C-7.33 12.68 -7.66 11.36 -8 10 C-7.34 10 -6.68 10 -6 10 C-6.12375 9.0925 -6.2475 8.185 -6.375 7.25 C-6.25125 6.1775 -6.1275 5.105 -6 4 C-3 1.625 -3 1.625 0 0 Z " fill="#FCF3D0" transform="translate(193,26)"/>
<path d="M0 0 C0.66 0 1.32 0 2 0 C2.69685498 1.6210103 3.38222861 3.24696066 4.0625 4.875 C4.63677734 6.23238281 4.63677734 6.23238281 5.22265625 7.6171875 C6 10 6 10 5 12 C4.34 11.67 3.68 11.34 3 11 C3 10.34 3 9.68 3 9 C2.01 8.67 1.02 8.34 0 8 C0.33 6.35 0.66 4.7 1 3 C0.34 2.67 -0.32 2.34 -1 2 C-0.67 1.34 -0.34 0.68 0 0 Z " fill="#FCEFC1" transform="translate(200,31)"/>
<path d="M0 0 C6.0546875 -0.1953125 6.0546875 -0.1953125 8 0 C10 2 10 2 10 5 C9.34 5 8.68 5 8 5 C8 4.01 8 3.02 8 2 C6.02 2 4.04 2 2 2 C2 2.99 2 3.98 2 5 C2.66 5 3.32 5 4 5 C3.67 6.32 3.34 7.64 3 9 C0 2.25 0 2.25 0 0 Z " fill="#F0BA35" transform="translate(189,1)"/>
<path d="M0 0 C0.33 0 0.66 0 1 0 C0.85761163 2.04190981 0.71092972 4.08352045 0.5625 6.125 C0.48128906 7.26195312 0.40007812 8.39890625 0.31640625 9.5703125 C0.02269035 12.7540478 -0.43124313 15.85510907 -1 19 C-1.66 19 -2.32 19 -3 19 C-3.04241723 16.66705225 -3.04092937 14.33297433 -3 12 C-2.67 11.67 -2.34 11.34 -2 11 C-1.79224439 9.33795513 -1.63281745 7.66970509 -1.5 6 C-1.11111111 1.11111111 -1.11111111 1.11111111 0 0 Z " fill="#FEF3C7" transform="translate(224,27)"/>
<path d="M0 0 C2.64 0 5.28 0 8 0 C7.67 3.3 7.34 6.6 7 10 C6.67 10 6.34 10 6 10 C6 7.36 6 4.72 6 2 C2.06924356 2.57452746 2.06924356 2.57452746 -1 5 C-0.67 3.35 -0.34 1.7 0 0 Z " fill="#F0C958" transform="translate(230,0)"/>
<path d="M0 0 C3.08898147 3.08898147 4.7369039 6.8375242 6 11 C5.25 14.0625 5.25 14.0625 4 16 C3.67 16 3.34 16 3 16 C3 13.36 3 10.72 3 8 C2.34 8 1.68 8 1 8 C0.67 5.36 0.34 2.72 0 0 Z " fill="#FDEEB6" transform="translate(192,10)"/>
<path d="M0 0 C3.63 0 7.26 0 11 0 C11 0.66 11 1.32 11 2 C11.99 2 12.98 2 14 2 C13.67 4.31 13.34 6.62 13 9 C11 6 11 6 9 2 C6.03 2 3.06 2 0 2 C0 1.34 0 0.68 0 0 Z " fill="#FCEBAD" transform="translate(188,0)"/>
<path d="M0 0 C0.33 0 0.66 0 1 0 C1 1.65 1 3.3 1 5 C2.98 5 4.96 5 7 5 C7 5.66 7 6.32 7 7 C4.03 7 1.06 7 -2 7 C-1.125 2.25 -1.125 2.25 0 0 Z " fill="#F1C74E" transform="translate(142,39)"/>
<path d="M0 0 C2 3 2 3 3 7 C0.03 7 -2.94 7 -6 7 C-6 6.01 -6 5.02 -6 4 C-3.03 4.495 -3.03 4.495 0 5 C0 3.35 0 1.7 0 0 Z " fill="#F3C854" transform="translate(213,39)"/>
<path d="M0 0 C0.66 0 1.32 0 2 0 C2.33 0.66 2.66 1.32 3 2 C3.66 2 4.32 2 5 2 C5 5.3 5 8.6 5 12 C2.65085508 9.65085508 2.26859643 8.04320554 1.375 4.875 C1.11460937 3.96492188 0.85421875 3.05484375 0.5859375 2.1171875 C0.39257812 1.41851562 0.19921875 0.71984375 0 0 Z " fill="#FDF2D2" transform="translate(211,32)"/>
<path d="M0 0 C0.99 0 1.98 0 3 0 C3 4 3 4 1.125 6.25 C-1 8 -1 8 -3 8 C-1.125 2.25 -1.125 2.25 0 0 Z " fill="#FCF3D3" transform="translate(162,16)"/>
<path d="M0 0 C0.66 0.33 1.32 0.66 2 1 C2 2.65 2 4.3 2 6 C-0.31 6 -2.62 6 -5 6 C-5 5.34 -5 4.68 -5 4 C-4.01 3.67 -3.02 3.34 -2 3 C-1.34 2.01 -0.68 1.02 0 0 Z " fill="#F6F8F1" transform="translate(197,40)"/>
<path d="M0 0 C-0.33 1.98 -0.66 3.96 -1 6 C-2.65 6 -4.3 6 -6 6 C-5.6875 4.125 -5.6875 4.125 -5 2 C-2 0 -2 0 0 0 Z " fill="#FCB603" transform="translate(192,37)"/>
<path d="M0 0 C1.5625 1.8125 1.5625 1.8125 3 4 C2.67 4.99 2.34 5.98 2 7 C1.34 6.67 0.68 6.34 0 6 C-0.33 6.66 -0.66 7.32 -1 8 C-1.66 8 -2.32 8 -3 8 C-1.125 2.25 -1.125 2.25 0 0 Z " fill="#F5B824" transform="translate(146,31)"/>
<path d="M0 0 C0.33 0.66 0.66 1.32 1 2 C0.06553465 4.03144641 -0.93224776 6.03533587 -2 8 C-2.99 7.67 -3.98 7.34 -5 7 C-3.35 4.69 -1.7 2.38 0 0 Z " fill="#FCF0C6" transform="translate(197,36)"/>
<path d="M0 0 C1.485 0.99 1.485 0.99 3 2 C3 3.32 3 4.64 3 6 C1.68 6 0.36 6 -1 6 C-0.67 4.02 -0.34 2.04 0 0 Z " fill="#FCB404" transform="translate(210,37)"/>
<path d="M0 0 C0.33 0 0.66 0 1 0 C1.33 2.31 1.66 4.62 2 7 C0.35 7.33 -1.3 7.66 -3 8 C-1.125 2.25 -1.125 2.25 0 0 Z " fill="#F3BA26" transform="translate(150,23)"/>
<path d="M0 0 C0.66 0 1.32 0 2 0 C1.67 1.65 1.34 3.3 1 5 C-0.98 5 -2.96 5 -5 5 C-4 3 -4 3 -1 2 C-0.67 1.34 -0.34 0.68 0 0 Z " fill="#FAF5DD" transform="translate(139,41)"/>
</svg>
