<svg width="46" height="46" viewBox="0 0 46 46" fill="none" xmlns="http://www.w3.org/2000/svg">
<path d="M44.0616 18.2203L41.8546 17.8346C41.6689 17.7989 41.526 17.6632 41.476 17.4846C41.0404 15.9062 40.4118 14.3991 39.6119 13.0063C39.519 12.8421 39.5262 12.6421 39.6333 12.4921L40.9261 10.6422C41.3475 10.0422 41.2761 9.22801 40.7547 8.70661L36.5906 4.54972C36.0692 4.03547 35.255 3.96404 34.655 4.3783L32.8123 5.66394C32.6623 5.77108 32.4623 5.77822 32.298 5.68537C30.8981 4.88542 29.3982 4.25688 27.8197 3.82834C27.6412 3.77834 27.5055 3.63549 27.4698 3.44979L27.0841 1.24992C26.9555 0.528539 26.327 0 25.5913 0H19.7202C18.9917 0 18.3632 0.521397 18.2346 1.24278L17.8418 3.45693C17.8061 3.64264 17.6704 3.78548 17.4918 3.83548C15.9062 4.27117 14.4063 4.8997 13.0135 5.69251C12.8492 5.78536 12.6564 5.77822 12.4992 5.67108L10.6565 4.38545C10.0565 3.96404 9.24229 4.03547 8.7209 4.55687L4.27117 8.99945C3.91405 9.34943 3.87119 9.90654 4.15689 10.3137L5.68537 12.4992C5.7925 12.6492 5.79965 12.8492 5.7068 13.0135C4.90684 14.4063 4.27831 15.9062 3.84262 17.4918C3.79263 17.6704 3.64978 17.8061 3.46407 17.8418L0.857091 18.2989C0.357121 18.3846 0 18.8131 0 19.306V25.5984C0 26.3341 0.528539 26.9698 1.25707 27.0912L3.46407 27.4769C3.64978 27.5055 3.79263 27.6483 3.84262 27.8269C4.27831 29.4125 4.90684 30.9124 5.7068 32.3123C5.79965 32.4766 5.7925 32.6766 5.68537 32.8266L4.15689 34.9907C3.87119 35.3907 3.91405 35.9478 4.27117 36.3049L8.7209 40.7547C9.24229 41.2761 10.0565 41.3475 10.6565 40.9261L12.4992 39.6404C12.6492 39.5333 12.8492 39.5262 13.0135 39.619C14.4063 40.419 15.9062 41.0475 17.4918 41.476C17.6704 41.526 17.8061 41.6689 17.8418 41.8546L18.3203 44.5759C18.3989 44.9973 18.7703 45.3115 19.206 45.3115H26.0127C26.5127 45.3115 26.9412 44.9544 27.0198 44.4616L27.484 41.8546C27.5198 41.6689 27.6555 41.526 27.834 41.476C29.4125 41.0404 30.9124 40.4118 32.3052 39.619C32.4694 39.5262 32.6623 39.5333 32.8194 39.6404L34.6622 40.9261C35.2621 41.3475 36.0764 41.2761 36.5978 40.7547L41.0475 36.3049C41.3975 35.9478 41.4475 35.3978 41.1618 34.9907L39.6404 32.8051C39.5333 32.6552 39.5262 32.4552 39.619 32.2909C40.419 30.8981 41.0475 29.3982 41.476 27.8126C41.526 27.634 41.6689 27.4983 41.8546 27.4626L44.4616 27.0126C44.9544 26.9269 45.3115 26.4984 45.3115 25.9984V19.7059C45.3115 18.9774 44.783 18.3489 44.0616 18.2203ZM22.4415 35.8621C15.1491 35.8621 9.23515 29.9482 9.23515 22.6558C9.23515 15.3633 15.1491 9.44942 22.4415 9.44942C29.7339 9.44942 35.6478 15.3633 35.6478 22.6558C35.6478 29.9482 29.741 35.8621 22.4415 35.8621Z" fill="#FFAD00"/>
<path d="M22.1841 33.4478H23.1269C24.0483 33.4478 24.8268 32.8692 25.1197 32.0479H20.1914C20.4842 32.8621 21.2699 33.4478 22.1841 33.4478Z" fill="#FFD67C"/>
<path d="M26.3345 27.4482H18.9778C18.6849 27.4482 18.4492 27.6839 18.4492 27.9768V30.0838C18.4492 30.3766 18.6849 30.6123 18.9778 30.6123H26.3345C26.6273 30.6123 26.863 30.3766 26.863 30.0838V27.9768C26.863 27.6839 26.6273 27.4482 26.3345 27.4482Z" fill="#FFD67C"/>
<path d="M22.6561 11.8711C18.7278 11.8711 15.5352 15.0566 15.5352 18.9921C15.5352 20.7706 16.1923 22.399 17.2708 23.6489C17.3422 23.7204 17.4065 23.7918 17.4708 23.8632C18.035 24.5203 18.485 25.2846 18.8278 26.0274C18.8778 26.0202 18.9278 26.0202 18.9778 26.0202H21.9419V22.0205L20.5563 20.6277C20.2777 20.3491 20.2777 19.8992 20.5563 19.6206C20.8348 19.3421 21.2848 19.3421 21.5634 19.6206L22.6561 20.7134L23.7489 19.6206C24.0275 19.3421 24.4775 19.3421 24.756 19.6206C25.0346 19.8992 25.0346 20.3491 24.756 20.6348L23.3704 22.0205V26.0202H26.3345C26.3845 26.0202 26.4345 26.0202 26.4845 26.0274C26.8273 25.2846 27.2773 24.5203 27.8487 23.8632C27.913 23.7918 27.9773 23.7204 28.0415 23.6489C28.5772 23.0204 29.0129 22.3062 29.3129 21.5205C29.6129 20.7348 29.7771 19.8777 29.7771 18.9921C29.7771 15.0566 26.5845 11.8711 22.6561 11.8711Z" fill="#FFD67C"/>
</svg>
