<svg width="30" height="30" viewBox="0 0 30 30" fill="none" xmlns="http://www.w3.org/2000/svg">
<path d="M15.2103 19.6404C13.8987 20.3894 14.8628 22.523 16.4391 21.7944C17.863 21.1363 16.5261 18.8898 15.2103 19.6404Z" fill="#FBD278"/>
<path d="M7.8177 19.6404C6.50614 20.3894 7.47018 22.523 9.0465 21.7944C10.4704 21.1363 9.1335 18.8898 7.8177 19.6404Z" fill="#FFB81D"/>
<path d="M18.109 23.1074C17.5816 22.7449 17.3081 22.679 17.245 22.6475C17.0356 23.7469 15.0765 24.1914 14.4892 22.7435C13.4371 23.1524 12.661 23.9546 12.2812 25.0593C12.4624 25.7825 14.2471 27.0176 16.345 26.7072C17.517 26.5312 18.5208 25.9153 19.0888 25.1113V25.1073C19.2009 24.9593 19.2928 24.7994 19.3648 24.6394C19.3488 24.5993 19.3288 24.5633 19.3089 24.5234C19.009 23.8891 18.5922 23.4939 18.109 23.1074Z" fill="#FBD278"/>
<path d="M22.8939 19.6404C21.5823 20.3894 22.5464 22.523 24.1227 21.7944C25.5466 21.1363 24.2097 18.8898 22.8939 19.6404Z" fill="#FFB81D"/>
<path d="M25.8487 23.1515C25.6196 22.9226 24.9688 22.6675 24.9288 22.6475C24.7194 23.7469 22.7604 24.1914 22.1729 22.7435C21.0131 23.1944 20.3012 24.0815 19.9651 25.0593C20.1461 25.7825 21.9308 27.0176 24.0288 26.7072C25.2007 26.5312 26.2047 25.9153 26.7727 25.1113V25.1073C26.8846 24.9593 26.9767 24.7994 27.0487 24.6394C26.8648 24.1801 26.448 23.6092 25.8487 23.1515Z" fill="#FFB81D"/>
<path d="M10.7135 23.1074C10.1896 22.7416 9.92206 22.6817 9.85355 22.6475C9.6442 23.7469 7.6852 24.1914 7.09774 22.7435C6.06622 23.1445 5.2771 23.9328 4.88989 25.0593C5.06684 25.7674 6.83644 27.0207 8.94965 26.7072C10.1256 26.5312 11.1295 25.9112 11.6974 25.1073C11.6895 25.0913 11.6855 25.0753 11.6814 25.0593C11.7523 24.8531 11.8792 24.5975 11.9134 24.5234C11.6178 23.8877 11.2038 23.4995 10.7135 23.1074Z" fill="#FFB81D"/>
<path d="M15.1868 10.6471C18.0329 13.4944 19.8411 5.50116 18.7465 3.71954C18.3106 3.01958 17.5786 2.55562 16.7267 2.45562C16.0508 2.37162 15.3628 2.51961 14.7629 2.86759C13.6909 3.49555 13.187 4.90747 13.3069 6.95134C13.3069 8.50932 14.0902 9.58859 15.1868 10.6471ZM14.5788 4.99145C15.9745 5.51522 17.1916 5.36777 17.9306 4.96746C18.1534 5.45364 18.2941 6.24189 18.1426 7.20733C17.8677 8.95275 17.2671 9.62605 17.2467 9.68719C17.2066 9.72732 16.807 10.383 16.3227 10.4271C16.3143 10.4271 16.3127 10.4271 16.3067 10.4271C16.0773 10.4271 15.8489 10.2226 15.3788 9.70316C15.345 9.63562 15.4709 9.83508 14.9748 9.24716C14.9468 9.15919 14.8868 9.08719 14.8109 9.03919C14.3429 8.41559 14.1351 7.64085 14.1109 6.96332C14.2921 6.39242 14.3706 5.56408 14.5788 4.99145Z" fill="#FFB81D"/>
<path d="M13.1149 15.6227C14.02 16.1013 15.3296 16.4786 16.3267 16.4786C17.4614 16.4786 18.1478 16.0285 19.0946 15.4466C19.8062 15.0007 21.1697 14.8288 21.7224 14.1627C22.5377 13.1594 21.1113 12.5765 18.7306 10.3149C18.1426 11.3069 17.3387 12.0149 16.3428 12.0149C15.3254 12.0082 14.6184 11.292 13.8989 10.455C12.5683 11.7845 11.0398 11.7838 10.8711 12.2709C10.4882 13.3821 11.9491 15.0057 13.1149 15.6227Z" fill="#FFB81D"/>
<path d="M22.3935 9.62339L23.1411 9.33863C22.9682 8.89179 22.7148 8.27339 22.6569 7.79953C24.0593 8.74488 25.1554 10.1785 25.6784 11.7848C26.2319 13.4816 26.1632 15.4031 25.4901 17.0567L26.2307 17.3582C26.974 15.5323 27.0502 13.4104 26.4393 11.5367C25.9081 9.90701 24.8458 8.43312 23.4753 7.3946C23.9775 7.44952 24.4459 7.56518 24.9323 7.6231L25.0269 6.82862C24.3435 6.74766 23.5362 6.5093 22.7629 6.58196C22.1891 6.63557 21.9334 6.62861 21.8693 7.26999C21.9025 7.47749 21.5819 7.53819 22.3935 9.62339Z" fill="#FBD278"/>
<path d="M6.18117 17.1413C6.33701 16.9387 6.93021 17.0115 7.88144 14.5599L7.1354 14.2704C6.97794 14.6763 6.75052 15.26 6.46145 15.7252C6.05683 14.0875 6.20355 12.294 6.88854 10.7546C7.6135 9.12386 8.95093 7.74268 10.5582 6.96538L10.2098 6.24512C8.43493 7.10365 6.95807 8.62878 6.15734 10.4296C5.46317 11.991 5.26501 13.7904 5.58313 15.4749C5.24024 15.0671 4.96307 14.6969 4.65626 14.3458L4.05396 14.8723C4.22269 15.0651 4.38987 15.2743 4.55939 15.4861C5.75719 16.9814 5.92972 16.9049 6.18117 17.1413Z" fill="#FBD278"/>
</svg>
