<svg width="30" height="30" viewBox="0 0 30 30" fill="none" xmlns="http://www.w3.org/2000/svg">
<g clip-path="url(#clip0_524_6630)">
<path d="M30.0002 23.7329V25.0382C30.0002 25.998 29.2938 26.804 28.4532 26.804H1.54699C0.706128 26.804 0 25.9977 0 25.0382V23.7329H30.0002Z" fill="#FBD278"/>
<path d="M28.1494 6.34339V19.664C28.1494 21.3913 26.9049 22.8118 25.3916 22.8118L20.7501 22.8115H4.77468C3.26133 22.8115 2.01685 21.391 2.01685 19.6637V6.34312C2.01685 4.61577 3.26133 3.19531 4.77468 3.19531H25.3911C26.9046 3.19504 28.1494 4.61576 28.1494 6.34339ZM25.7613 19.5108V6.34339C25.7613 5.95944 25.5258 5.69086 25.1896 5.69086L14.9317 5.69059H4.80796C4.47158 5.69059 4.23627 5.99781 4.23627 6.34312V19.5105C4.23627 19.8945 4.50543 20.163 4.80796 20.163H9.81916C10.4917 18.3973 11.5008 17.092 12.577 16.286C12.9806 15.9404 13.3842 15.7486 13.7542 15.5567C14.1242 15.4033 14.5278 15.3265 14.8978 15.3265C15.335 15.3265 15.7723 15.4416 16.2431 15.6721C16.6467 15.8256 17.0503 16.0944 17.4203 16.4397C18.4628 17.2844 19.4045 18.5511 20.0437 20.2018H25.1894C25.5255 20.2018 25.7613 19.8948 25.7613 19.5108Z" fill="#FFB81D"/>
<path d="M14.9332 6.8418C16.7493 6.8418 18.2627 8.53082 18.2627 10.6421C18.2627 12.7535 16.7493 14.4425 14.9332 14.4425C13.117 14.4425 11.6372 12.7535 11.6372 10.6421C11.637 8.56942 13.0833 6.8804 14.9332 6.8418Z" fill="#FFB81D"/>
</g>
<defs>
<clipPath id="clip0_524_6630">
<rect width="30" height="30" fill="white"/>
</clipPath>
</defs>
</svg>
