<svg width="41" height="43" viewBox="0 0 41 43" fill="none" xmlns="http://www.w3.org/2000/svg">
<path d="M20.5003 16.4332L28.369 12.4998L21.1697 8.9001C20.7566 8.68434 20.2643 8.68434 19.8512 8.9001L12.6519 12.4998L20.5206 16.4332H20.5003Z" fill="#FBD278"/>
<path d="M19.025 18.9901L11.1562 15.0566V23.9876C11.1562 24.539 11.4716 25.0498 11.9621 25.3061L19.0231 28.8265V18.992L19.025 18.9901Z" fill="#FBD278"/>
<path d="M21.9755 18.99V28.8245L29.0365 25.3042C29.5289 25.0478 29.8424 24.537 29.8424 23.9856V15.0547L21.9736 18.9881L21.9755 18.99Z" fill="#FBD278"/>
<path d="M22.8611 37.9117C22.7228 37.9117 22.6048 37.9117 22.4683 37.8527C22.094 37.7549 21.7602 37.4986 21.5629 37.1445C21.1498 36.3977 19.8313 36.3977 19.4182 37.1445C19.2209 37.4986 18.9074 37.7346 18.5127 37.8527C18.1384 37.9504 17.7253 37.9117 17.3915 37.7144L4.90154 30.515C3.83934 29.9046 3.16992 28.765 3.16992 27.5258V13.0681C3.16992 12.5758 3.40597 12.124 3.81904 11.8492C4.15282 11.6132 4.56588 11.5339 4.96055 11.6335C5.66868 11.5947 6.19977 11.0433 6.19977 10.3739C6.19977 10.1379 6.12048 9.88154 6.00246 9.70451C5.76641 9.37073 5.68712 8.93737 5.76641 8.54459C5.86415 8.1518 6.12048 7.79775 6.47454 7.58012L18.7488 0.498822C19.811 -0.111586 21.1295 -0.111586 22.1917 0.498822L34.466 7.58012C34.82 7.77744 35.0764 8.13152 35.1741 8.54459C35.2718 8.95767 35.1741 9.37074 34.9381 9.70451C34.82 9.88154 34.7407 10.1176 34.7407 10.3739C34.7407 11.0618 35.2921 11.6335 35.98 11.6519C36.3728 11.5541 36.7858 11.6519 37.1399 11.8676C37.553 12.1424 37.789 12.5961 37.789 13.0866V27.5442C37.789 28.7631 37.1196 29.9046 36.0574 30.5335L23.5674 37.7328C23.3516 37.8711 23.0953 37.9301 22.839 37.9301L22.8611 37.9117ZM20.5007 33.5836C21.5039 33.5836 22.4481 33.9377 23.1765 34.5481L34.6246 27.9389C34.7813 27.8596 34.8606 27.6825 34.8606 27.5055V14.3848C33.1106 13.874 31.8308 12.2604 31.8308 10.3333C31.8308 10.0383 31.8695 9.76353 31.9285 9.46848L20.7552 3.016C20.5984 2.9367 20.4214 2.9367 20.2628 3.016L9.08944 9.46848C9.14845 9.74325 9.18718 10.0383 9.18718 10.3333C9.18718 12.242 7.90924 13.874 6.15733 14.3848V27.5055C6.15733 27.6825 6.25506 27.8393 6.39337 27.9389L17.8415 34.5481C18.5883 33.9377 19.5141 33.5836 20.5173 33.5836H20.5007Z" fill="#FFAD00"/>
<path d="M36.059 6.14447C34.604 6.14447 33.2855 6.8729 32.557 8.01251C32.085 8.68193 31.8286 9.50808 31.8286 10.3526C31.8286 12.6744 33.717 14.5811 36.0571 14.5811C36.1954 14.5811 36.3909 14.5811 36.6472 14.5221C38.7329 14.2473 40.2856 12.4954 40.2856 10.3711C40.2856 8.04934 38.3972 6.14258 36.0571 6.14258L36.059 6.14447Z" fill="#FFAD00"/>
<path d="M8.48251 8.07354C7.71537 6.87303 6.39683 6.14648 4.94186 6.14648C2.62014 6.14648 0.713379 8.03483 0.713379 10.375C0.713379 12.4994 2.26796 14.2697 4.35175 14.526C4.58779 14.585 4.80355 14.585 4.94186 14.585C7.26358 14.585 9.17034 12.6967 9.17034 10.3566C9.17034 9.5101 8.91401 8.68395 8.48251 8.07543V8.07354Z" fill="#FFAD00"/>
<path d="M24.1593 35.7084C23.4308 34.3898 22.0349 33.584 20.5006 33.584C18.9663 33.584 17.5888 34.4101 16.9009 35.6494C16.4879 36.2985 16.2905 37.0269 16.2905 37.8125C16.2905 40.1342 18.1789 42.0409 20.519 42.0409C22.8591 42.0409 24.7475 40.1526 24.7475 37.8125C24.7475 37.025 24.5502 36.2985 24.1777 35.7268L24.1593 35.7084Z" fill="#FFAD00"/>
</svg>
