<svg width="43" height="43" viewBox="0 0 43 43" fill="none" xmlns="http://www.w3.org/2000/svg">
<path d="M34.1289 10.666H9.62891C9.14566 10.666 8.75391 11.0578 8.75391 11.541V16.791C8.75391 17.2743 9.14566 17.666 9.62891 17.666H34.1289C34.6122 17.666 35.0039 17.2743 35.0039 16.791V11.541C35.0039 11.0578 34.6122 10.666 34.1289 10.666Z" fill="#FBD278"/>
<path d="M14.8789 24.666H9.62891C9.39684 24.666 9.17428 24.5738 9.01019 24.4097C8.84609 24.2456 8.75391 24.0231 8.75391 23.791V20.291C8.75391 20.059 8.84609 19.8364 9.01019 19.6723C9.17428 19.5082 9.39684 19.416 9.62891 19.416H14.8789C15.111 19.416 15.3335 19.5082 15.4976 19.6723C15.6617 19.8364 15.7539 20.059 15.7539 20.291V23.791C15.7539 24.0231 15.6617 24.2456 15.4976 24.4097C15.3335 24.5738 15.111 24.666 14.8789 24.666ZM10.5039 22.916H14.0039V21.166H10.5039V22.916Z" fill="#FBD278"/>
<path d="M24.5039 24.666H19.2539C19.0218 24.666 18.7993 24.5738 18.6352 24.4097C18.4711 24.2456 18.3789 24.0231 18.3789 23.791V20.291C18.3789 20.059 18.4711 19.8364 18.6352 19.6723C18.7993 19.5082 19.0218 19.416 19.2539 19.416H24.5039C24.736 19.416 24.9585 19.5082 25.1226 19.6723C25.2867 19.8364 25.3789 20.059 25.3789 20.291V23.791C25.3789 24.0231 25.2867 24.2456 25.1226 24.4097C24.9585 24.5738 24.736 24.666 24.5039 24.666ZM20.1289 22.916H23.6289V21.166H20.1289V22.916Z" fill="#FBD278"/>
<path d="M34.1289 24.666H28.8789C28.6468 24.666 28.4243 24.5738 28.2602 24.4097C28.0961 24.2456 28.0039 24.0231 28.0039 23.791V20.291C28.0039 20.059 28.0961 19.8364 28.2602 19.6723C28.4243 19.5082 28.6468 19.416 28.8789 19.416H34.1289C34.361 19.416 34.5835 19.5082 34.7476 19.6723C34.9117 19.8364 35.0039 20.059 35.0039 20.291V23.791C35.0039 24.0231 34.9117 24.2456 34.7476 24.4097C34.5835 24.5738 34.361 24.666 34.1289 24.666ZM29.7539 22.916H33.2539V21.166H29.7539V22.916Z" fill="#FBD278"/>
<path d="M14.8789 28.166H9.62891C9.39684 28.166 9.17428 28.0738 9.01019 27.9097C8.84609 27.7456 8.75391 27.5231 8.75391 27.291C8.75391 27.059 8.84609 26.8364 9.01019 26.6723C9.17428 26.5082 9.39684 26.416 9.62891 26.416H14.8789C15.111 26.416 15.3335 26.5082 15.4976 26.6723C15.6617 26.8364 15.7539 27.059 15.7539 27.291C15.7539 27.5231 15.6617 27.7456 15.4976 27.9097C15.3335 28.0738 15.111 28.166 14.8789 28.166Z" fill="#FBD278"/>
<path d="M24.5039 28.166H19.2539C19.0218 28.166 18.7993 28.0738 18.6352 27.9097C18.4711 27.7456 18.3789 27.5231 18.3789 27.291C18.3789 27.059 18.4711 26.8364 18.6352 26.6723C18.7993 26.5082 19.0218 26.416 19.2539 26.416H24.5039C24.736 26.416 24.9585 26.5082 25.1226 26.6723C25.2867 26.8364 25.3789 27.059 25.3789 27.291C25.3789 27.5231 25.2867 27.7456 25.1226 27.9097C24.9585 28.0738 24.736 28.166 24.5039 28.166Z" fill="#FBD278"/>
<path d="M34.1289 28.166H28.8789C28.6468 28.166 28.4243 28.0738 28.2602 27.9097C28.0961 27.7456 28.0039 27.5231 28.0039 27.291C28.0039 27.059 28.0961 26.8364 28.2602 26.6723C28.4243 26.5082 28.6468 26.416 28.8789 26.416H34.1289C34.361 26.416 34.5835 26.5082 34.7476 26.6723C34.9117 26.8364 35.0039 27.059 35.0039 27.291C35.0039 27.5231 34.9117 27.7456 34.7476 27.9097C34.5835 28.0738 34.361 28.166 34.1289 28.166Z" fill="#FBD278"/>
<path d="M40.2539 5.41602H38.5039V7.16602H40.2539C40.486 7.16602 40.7085 7.2582 40.8726 7.4223C41.0367 7.58639 41.1289 7.80895 41.1289 8.04102V29.916H2.62891V8.04102C2.62891 7.80895 2.72109 7.58639 2.88519 7.4223C3.04928 7.2582 3.27184 7.16602 3.50391 7.16602H5.25391V5.41602H3.50391C2.80771 5.41602 2.14003 5.69258 1.64775 6.18486C1.15547 6.67714 0.878906 7.34482 0.878906 8.04102L0.878906 34.291C0.878906 34.9872 1.15547 35.6549 1.64775 36.1472C2.14003 36.6395 2.80771 36.916 3.50391 36.916H16.4714L15.8852 40.416H14.8789C14.6468 40.416 14.4243 40.5082 14.2602 40.6723C14.0961 40.8364 14.0039 41.059 14.0039 41.291C14.0039 41.5231 14.0961 41.7456 14.2602 41.9097C14.4243 42.0738 14.6468 42.166 14.8789 42.166H28.8789C29.111 42.166 29.3335 42.0738 29.4976 41.9097C29.6617 41.7456 29.7539 41.5231 29.7539 41.291C29.7539 41.059 29.6617 40.8364 29.4976 40.6723C29.3335 40.5082 29.111 40.416 28.8789 40.416H27.8727L27.2864 36.916H40.2539C40.9501 36.916 41.6178 36.6395 42.1101 36.1472C42.6023 35.6549 42.8789 34.9872 42.8789 34.291V8.04102C42.8789 7.34482 42.6023 6.67714 42.1101 6.18486C41.6178 5.69258 40.9501 5.41602 40.2539 5.41602ZM21.8789 32.541C22.111 32.541 22.3335 32.6332 22.4976 32.7973C22.6617 32.9614 22.7539 33.184 22.7539 33.416C22.7539 33.6481 22.6617 33.8706 22.4976 34.0347C22.3335 34.1988 22.111 34.291 21.8789 34.291C21.6468 34.291 21.4243 34.1988 21.2602 34.0347C21.0961 33.8706 21.0039 33.6481 21.0039 33.416C21.0039 33.184 21.0961 32.9614 21.2602 32.7973C21.4243 32.6332 21.6468 32.541 21.8789 32.541ZM17.6614 40.416L18.2477 36.916H25.5102L26.0964 40.416H17.6614Z" fill="#FFAD00"/>
<path d="M10.5039 4.54102C10.5039 4.77308 10.4117 4.99564 10.2476 5.15973C10.0835 5.32383 9.86097 5.41602 9.62891 5.41602C9.39684 5.41602 9.17428 5.32383 9.01019 5.15973C8.84609 4.99564 8.75391 4.77308 8.75391 4.54102C8.75391 4.30895 8.84609 4.08639 9.01019 3.9223C9.17428 3.7582 9.39684 3.66602 9.62891 3.66602C9.86097 3.66602 10.0835 3.7582 10.2476 3.9223C10.4117 4.08639 10.5039 4.30895 10.5039 4.54102Z" fill="#FBD278"/>
<path d="M14.0039 4.54102C14.0039 4.77308 13.9117 4.99564 13.7476 5.15973C13.5835 5.32383 13.361 5.41602 13.1289 5.41602C12.8968 5.41602 12.6743 5.32383 12.5102 5.15973C12.3461 4.99564 12.2539 4.77308 12.2539 4.54102C12.2539 4.30895 12.3461 4.08639 12.5102 3.9223C12.6743 3.7582 12.8968 3.66602 13.1289 3.66602C13.361 3.66602 13.5835 3.7582 13.7476 3.9223C13.9117 4.08639 14.0039 4.30895 14.0039 4.54102Z" fill="#FBD278"/>
<path d="M17.5039 4.54102C17.5039 4.77308 17.4117 4.99564 17.2476 5.15973C17.0835 5.32383 16.861 5.41602 16.6289 5.41602C16.3968 5.41602 16.1743 5.32383 16.0102 5.15973C15.8461 4.99564 15.7539 4.77308 15.7539 4.54102C15.7539 4.30895 15.8461 4.08639 16.0102 3.9223C16.1743 3.7582 16.3968 3.66602 16.6289 3.66602C16.861 3.66602 17.0835 3.7582 17.2476 3.9223C17.4117 4.08639 17.5039 4.30895 17.5039 4.54102Z" fill="#FBD278"/>
<path d="M35.0039 0.166016H8.75391C7.82565 0.166016 6.93541 0.534765 6.27903 1.19114C5.62266 1.84752 5.25391 2.73776 5.25391 3.66602V29.916H7.00391V8.91602H36.7539V29.916H38.5039V3.66602C38.5039 2.73776 38.1352 1.84752 37.4788 1.19114C36.8224 0.534765 35.9322 0.166016 35.0039 0.166016ZM36.7539 7.16602H7.00391V3.66602C7.00391 3.20189 7.18828 2.75677 7.51647 2.42858C7.84466 2.10039 8.28978 1.91602 8.75391 1.91602H35.0039C35.468 1.91602 35.9132 2.10039 36.2413 2.42858C36.5695 2.75677 36.7539 3.20189 36.7539 3.66602V7.16602Z" fill="#FBD278"/>
<path d="M34.1289 5.41602H25.3789C25.1468 5.41602 24.9243 5.32383 24.7602 5.15973C24.5961 4.99564 24.5039 4.77308 24.5039 4.54102C24.5039 4.30895 24.5961 4.08639 24.7602 3.9223C24.9243 3.7582 25.1468 3.66602 25.3789 3.66602H34.1289C34.361 3.66602 34.5835 3.7582 34.7476 3.9223C34.9117 4.08639 35.0039 4.30895 35.0039 4.54102C35.0039 4.77308 34.9117 4.99564 34.7476 5.15973C34.5835 5.32383 34.361 5.41602 34.1289 5.41602Z" fill="#FBD278"/>
</svg>
