<svg width="51" height="43" viewBox="0 0 51 43" fill="none" xmlns="http://www.w3.org/2000/svg">
<path d="M8.60122 7.1658C8.60122 8.28431 7.65048 9.23504 6.53198 9.23504C5.41347 9.23504 4.46274 8.28431 4.46274 7.1658C4.46274 6.04729 5.41347 5.09656 6.53198 5.09656C7.65048 5.09656 8.60122 6.04729 8.60122 7.1658ZM2.56127 26.0127V42.7344L0.212402 39.9381V24.6145C0.212402 21.5946 2.11387 18.9101 4.91014 17.8476C4.18311 16.8968 4.40681 15.5546 5.35754 14.8276C5.52532 14.7157 5.6931 14.6039 5.86087 14.548V13.2057H2.67312C2.56127 13.0939 2.44942 12.982 2.33757 12.8702C-0.458703 10.0739 -0.458703 5.54396 2.33757 2.80362C3.67978 1.46141 5.52532 0.734375 7.37086 0.734375H8.76899C12.7397 0.734375 15.9274 3.92212 15.9274 7.89283V9.17912L17.3815 12.3669C17.5493 12.7024 17.3815 13.1498 17.046 13.3176C16.9341 13.3176 16.8223 13.3176 16.7104 13.3176H15.9274C15.9274 14.3802 15.9274 15.3309 15.9274 16.0579C15.9274 16.8968 15.2563 17.6239 14.3615 17.6239H12.1804C11.2856 17.5679 10.5027 16.9528 10.1112 16.1698L9.6638 15.1072C9.27232 14.1565 8.43344 13.4854 7.42678 13.2617V14.548C8.54529 14.9954 9.10455 16.2257 8.65714 17.3442C8.60122 17.4561 8.54529 17.6239 8.48937 17.7357L14.4734 24.7823C15.0326 25.4534 15.3123 26.2923 15.3123 27.1312V36.8063L10.6705 36.247V26.0127C10.6705 23.7757 8.88085 21.986 6.64383 21.986C4.40681 21.986 2.56127 23.7757 2.56127 26.0127ZM12.6278 9.34689H13.5227L14.4734 9.90615V8.39616H12.6278V9.34689ZM6.5879 10.4095C8.37752 10.4095 9.83158 8.95541 9.83158 7.1658C9.83158 5.37619 8.37752 3.92213 6.5879 3.92213C4.79829 3.92213 3.34423 5.37619 3.34423 7.1658C3.2883 8.95541 4.74236 10.4095 6.5879 10.4095ZM50.5453 26.516L42.7157 42.7344H6.08457C4.79829 42.7344 3.7357 41.6718 3.7357 40.3855V26.0127C3.7357 24.4468 5.02199 23.1605 6.5879 23.1605C6.64383 23.1605 6.69975 23.1605 6.69975 23.1605C8.26567 23.2723 9.4401 24.5586 9.4401 26.1245V37.2537L28.4547 39.2111L30.524 37.03L35.5014 40.2737L35.4454 40.4414C35.0539 41.0566 34.271 41.3362 33.5999 41.0566L30.5799 39.7703L28.5107 41.1685H41.765L49.2031 25.8449L50.5453 26.516ZM7.20308 34.1219V27.3549C7.87419 27.0193 8.15381 26.2364 7.87419 25.5093C7.53863 24.8382 6.75568 24.5586 6.02865 24.8382C5.30162 25.1179 5.07792 25.9567 5.35754 26.6838C5.46939 26.9634 5.74902 27.1871 6.02865 27.3549V32.7237L7.20308 34.1219Z" fill="#FFAD00"/>
<path opacity="0.5" d="M37.4572 12.0871V7.38939C37.4572 5.2083 35.7235 3.47461 33.5424 3.47461H24.091C21.91 3.47461 20.1763 5.2083 20.1763 7.38939V16.0578H33.5424C35.7235 16.0019 37.4572 14.2682 37.4572 12.0871ZM21.7422 7.38939C21.7422 6.1031 22.8048 5.04052 24.091 5.04052H33.5424C34.8287 5.04052 35.8913 6.1031 35.8913 7.38939V12.0871C35.8913 13.3734 34.8287 14.436 33.5424 14.436H21.7422V7.38939ZM31.0258 9.73826C31.0258 10.3534 31.5291 10.8568 32.1443 10.8568C32.7595 10.8568 33.2628 10.3534 33.2628 9.73826C33.2628 9.12308 32.7595 8.61975 32.1443 8.61975C31.5291 8.61975 31.0258 9.12308 31.0258 9.73826ZM27.7262 9.73826C27.7262 10.3534 28.2295 10.8568 28.8447 10.8568C29.4599 10.8568 29.9632 10.3534 29.9632 9.73826C29.9632 9.12308 29.4599 8.61975 28.8447 8.61975C28.2295 8.61975 27.7262 9.12308 27.7262 9.73826ZM24.4266 9.73826C24.4266 10.3534 24.9299 10.8568 25.5451 10.8568C26.1603 10.8568 26.6636 10.3534 26.6636 9.73826C26.6636 9.12308 26.1603 8.61975 25.5451 8.61975C24.9299 8.61975 24.4266 9.12308 24.4266 9.73826ZM43.7768 24.7263C43.7768 22.5452 42.0431 20.8115 39.862 20.8115H30.4106C28.2295 20.8115 26.4958 22.5452 26.4958 24.7263V29.424C26.4958 31.6051 28.2295 33.3388 30.4106 33.3388H43.7768V24.7263ZM39.862 22.3774C41.1483 22.3774 42.155 23.44 42.155 24.7263V31.7729H30.4106C29.1243 31.7729 28.0618 30.7103 28.0618 29.424V24.7263C28.0618 23.44 29.1243 22.3774 30.4106 22.3774H39.862ZM31.8088 25.9566C31.1936 25.9566 30.6903 26.46 30.6903 27.0751C30.6903 27.6903 31.1936 28.1936 31.8088 28.1936C32.4239 28.1936 32.9273 27.6903 32.9273 27.0751C32.9273 26.46 32.4239 25.9566 31.8088 25.9566ZM35.1084 25.9566C34.4932 25.9566 33.9899 26.46 33.9899 27.0751C33.9899 27.6903 34.4932 28.1936 35.1084 28.1936C35.7235 28.1936 36.2269 27.6903 36.2269 27.0751C36.2269 26.46 35.7235 25.9566 35.1084 25.9566ZM38.408 25.9566C37.7928 25.9566 37.2895 26.46 37.2895 27.0751C37.2895 27.6903 37.7928 28.1936 38.408 28.1936C39.0231 28.1936 39.5265 27.6903 39.5265 27.0751C39.5265 26.46 39.0231 25.9566 38.408 25.9566Z" fill="#FFAD00"/>
</svg>
