<svg width="41" height="41" viewBox="0 0 41 41" fill="none" xmlns="http://www.w3.org/2000/svg">
<path d="M25.5881 32.7246H15.7568V35.4516H25.5881V32.7246Z" fill="#FFB81D"/>
<path d="M35.9766 9.44328C35.8566 8.93929 35.668 8.47129 35.4194 8.0483C35.2566 7.7693 35.248 7.42731 35.4023 7.13931L35.788 6.41032L35.2909 5.88832L34.5966 6.29332C34.3309 6.45532 33.9966 6.44632 33.7309 6.27532C33.3366 6.01432 32.8823 5.82533 32.4023 5.69033C32.1109 5.60933 31.8709 5.37533 31.7852 5.06933L31.5709 4.27734H30.8681L30.6538 5.06933C30.5681 5.37533 30.3366 5.61833 30.0366 5.69033C29.5566 5.81633 29.1109 6.01432 28.6995 6.27532C28.4338 6.44632 28.1081 6.44632 27.8424 6.29332L27.1567 5.88832L26.6595 6.41032L27.0367 7.13031C27.1824 7.40931 27.1824 7.7513 27.0195 8.0303C26.771 8.46229 26.5824 8.93929 26.4624 9.43428C26.3853 9.74028 26.1624 9.99228 25.871 10.0823L25.1167 10.3073V11.0453L25.871 11.2703C26.1624 11.3603 26.3853 11.6033 26.4624 11.9183C26.5824 12.4132 26.771 12.8902 27.0195 13.3222C27.1738 13.6012 27.1824 13.9432 27.0367 14.2222L26.6595 14.9422L27.1567 15.4642L27.8424 15.0682C28.1081 14.9152 28.4338 14.9152 28.6995 15.0862C29.1109 15.3472 29.5652 15.5452 30.0366 15.6712C30.3281 15.7522 30.5681 15.9862 30.6538 16.2922L30.8681 17.0842H31.5709L31.7852 16.2922C31.8709 15.9862 32.1023 15.7522 32.4023 15.6712C32.8823 15.5452 33.328 15.3472 33.7395 15.0862C34.0052 14.9242 34.3309 14.9152 34.5966 15.0682L35.2823 15.4642L35.7794 14.9422L35.3937 14.2222C35.248 13.9432 35.248 13.5922 35.4109 13.3222C35.6594 12.8902 35.848 12.4132 35.968 11.9183C36.0451 11.6123 36.268 11.3603 36.5594 11.2703L37.3137 11.0453V10.3073L36.5594 10.0823C36.2766 10.0013 36.0451 9.74928 35.9766 9.44328ZM31.2195 14.4742C29.2309 14.4742 27.611 12.7732 27.611 10.6853C27.611 8.59729 29.2309 6.89631 31.2195 6.89631C33.208 6.89631 34.828 8.59729 34.828 10.6853C34.828 12.7732 33.208 14.4742 31.2195 14.4742Z" fill="#FFB81D"/>
<path d="M40.785 2.20673C40.785 1.18074 39.9964 0.34375 39.0279 0.34375H2.74546C1.76832 0.34375 0.971191 1.18074 0.971191 2.20673V23.6535H40.7764V2.20673H40.785ZM3.39688 4.5737C3.39688 3.41271 4.28829 2.47672 5.394 2.47672H19.1424C20.2481 2.47672 21.1395 3.42171 21.1395 4.5737V15.6166C21.1395 16.7776 20.2395 17.7135 19.1424 17.7135H5.394C4.28829 17.7135 3.39688 16.7686 3.39688 15.6166V4.5737ZM20.2824 21.5835H4.25401C3.78259 21.5835 3.39688 21.1785 3.39688 20.6835C3.39688 20.1885 3.78259 19.7835 4.25401 19.7835H20.2824C20.7538 19.7835 21.1395 20.1885 21.1395 20.6835C21.1395 21.1785 20.7538 21.5835 20.2824 21.5835ZM39.0365 11.2876C39.0365 11.9446 38.6165 12.5386 38.0079 12.7186L37.485 12.8806C37.3822 13.1956 37.2622 13.5016 37.125 13.7986L37.3822 14.2936C37.6908 14.8696 37.5879 15.5986 37.1422 16.0756L36.3279 16.9306C35.8822 17.3985 35.1879 17.4975 34.6394 17.1826L34.1679 16.9126C33.8851 17.0656 33.5937 17.1915 33.2851 17.2995L33.1394 17.8395C32.968 18.4695 32.4022 18.9105 31.7765 18.9105H30.628C30.0023 18.9105 29.4366 18.4695 29.2651 17.8395L29.1194 17.2995C28.8194 17.1915 28.5194 17.0656 28.2366 16.9126L27.7652 17.1826C27.2166 17.4975 26.5223 17.3985 26.0766 16.9306L25.2623 16.0756C24.8166 15.6076 24.7223 14.8786 25.0223 14.3026L25.2795 13.8076C25.1338 13.5106 25.0138 13.2046 24.9109 12.8806L24.3966 12.7276C23.7966 12.5476 23.3766 11.9536 23.3766 11.2966V10.0906C23.3766 9.43364 23.7966 8.83965 24.4052 8.65965L24.9195 8.50665C25.0223 8.19166 25.1423 7.87666 25.288 7.57966L25.0309 7.08467C24.7309 6.50868 24.8252 5.77969 25.2709 5.31169L26.0852 4.4567C26.5309 3.98871 27.2252 3.88971 27.7823 4.2047L28.2537 4.4747C28.5366 4.3217 28.828 4.1957 29.128 4.09671L29.2737 3.54771C29.4537 2.91772 30.0194 2.47672 30.6451 2.47672H31.7937C32.4194 2.47672 32.9851 2.91772 33.1565 3.55671L33.3022 4.10571C33.6022 4.2137 33.9022 4.3397 34.1765 4.4837L34.6479 4.2137C35.1965 3.88971 35.8908 3.99771 36.3365 4.4657L37.1508 5.32069C37.5965 5.78868 37.6908 6.51768 37.3908 7.09367L37.1336 7.58866C37.2708 7.88566 37.3993 8.19166 37.4936 8.50665L38.0165 8.65965C38.6165 8.83965 39.045 9.43364 39.045 10.0906V11.2876H39.0365Z" fill="#FFD67C"/>
<path d="M40.7862 29.0711V25.4531H0.980957V29.0711C0.980957 30.0971 1.76952 30.9251 2.74665 30.9251H39.0291C39.9976 30.9251 40.7862 30.0971 40.7862 29.0711ZM21.6464 29.0891H20.1122C19.6407 29.0891 19.255 28.6841 19.255 28.1891C19.255 27.6941 19.6407 27.2891 20.1122 27.2891H21.6464C22.1178 27.2891 22.5036 27.6941 22.5036 28.1891C22.5036 28.6841 22.1264 29.0891 21.6464 29.0891Z" fill="#FFB81D"/>
<path d="M5.39369 15.9142H19.1421C19.2964 15.9142 19.425 15.7792 19.425 15.6172V4.57434C19.425 4.41234 19.2964 4.27734 19.1421 4.27734H5.39369C5.23941 4.27734 5.11084 4.41234 5.11084 4.57434V15.6172C5.11084 15.7792 5.23084 15.9142 5.39369 15.9142ZM15.5593 10.0013L17.0507 11.5763C17.385 11.9273 17.385 12.4942 17.0507 12.8452L15.5593 14.4112C15.3879 14.5912 15.1736 14.6722 14.9507 14.6722C14.7279 14.6722 14.5136 14.5822 14.3422 14.4112C14.0079 14.0602 14.0079 13.4932 14.3422 13.1422L15.2336 12.2063L14.3422 11.2703C14.0079 10.9193 14.0079 10.3523 14.3422 10.0013C14.6764 9.64128 15.225 9.64128 15.5593 10.0013ZM14.2736 5.64533C14.7022 5.86133 14.8822 6.39232 14.6764 6.84231L11.3851 14.1142C11.2393 14.4382 10.9308 14.6272 10.6136 14.6272C10.4936 14.6272 10.3651 14.6002 10.2451 14.5372C9.8165 14.3212 9.6365 13.7902 9.84221 13.3402L13.1336 6.07732C13.3393 5.62733 13.845 5.42933 14.2736 5.64533ZM7.47653 7.35531L8.96794 5.78033C9.30222 5.42933 9.84221 5.42933 10.1765 5.78033C10.5108 6.13132 10.5108 6.69832 10.1765 7.04931L9.28508 7.9853L10.1765 8.92129C10.5108 9.27228 10.5108 9.83928 10.1765 10.1903C10.0051 10.3703 9.79078 10.4513 9.56793 10.4513C9.34507 10.4513 9.13079 10.3613 8.95937 10.1903L7.46795 8.62429C7.14224 8.2733 7.14224 7.7063 7.47653 7.35531Z" fill="#FFB81D"/>
<path d="M31.219 8.69531C30.1733 8.69531 29.3247 9.5863 29.3247 10.6843C29.3247 11.7823 30.1733 12.6733 31.219 12.6733C32.2647 12.6733 33.1132 11.7823 33.1132 10.6843C33.1132 9.5863 32.2647 8.69531 31.219 8.69531Z" fill="#FFB81D"/>
<path d="M11.8135 38.4048V40.0968H29.5218V38.4048C29.5218 37.7748 29.0333 37.2618 28.4333 37.2618H12.902C12.302 37.2528 11.8135 37.7658 11.8135 38.4048Z" fill="#FFB81D"/>
</svg>
