<?xml version="1.0" encoding="UTF-8"?>
<svg version="1.1" xmlns="http://www.w3.org/2000/svg" width="2042" height="592">
<path d="M0 0 C1.0163855 -0.01279495 2.032771 -0.0255899 3.07995605 -0.03877258 C4.7437606 -0.03673325 4.7437606 -0.03673325 6.44117737 -0.03465271 C7.61391205 -0.04472855 8.78664673 -0.05480438 9.99491882 -0.06518555 C13.20781604 -0.08879696 16.42036414 -0.09871776 19.63333774 -0.10063291 C21.64153006 -0.10276681 23.64966161 -0.10917418 25.65783882 -0.11712456 C32.66622406 -0.14486779 39.67443825 -0.15713119 46.68287659 -0.1547699 C53.21219095 -0.15296711 59.74076209 -0.18463363 66.26988834 -0.23200089 C71.87937807 -0.27124384 77.48862499 -0.28732098 83.09825093 -0.28540367 C86.4470678 -0.28463924 89.7952238 -0.29316079 93.14390373 -0.32493782 C96.87904259 -0.35427362 100.61225874 -0.34573313 104.34742737 -0.32762146 C106.00819557 -0.35290924 106.00819557 -0.35290924 107.70251465 -0.37870789 C115.01427375 -0.28843435 115.01427375 -0.28843435 117.74249458 1.7029438 C122.56163306 7.32593586 124.33949028 14.25342557 123.87306213 21.53785706 C122.97869873 30.52791602 120.10680082 38.99224818 117.45899963 47.58863831 C116.85115915 49.59367795 116.24417921 51.59897862 115.63795471 53.60450745 C113.64578456 60.17425559 111.62887176 66.73630864 109.60726166 73.29704285 C108.92999535 75.49527891 108.25325466 77.69367627 107.57661438 79.8921051 C102.85724588 95.22401428 98.12811632 110.55290456 93.38648987 125.87794495 C86.87920256 146.91163045 80.41002984 167.95606056 74.02149963 189.02613831 C73.48896072 190.78146378 73.48896072 190.78146378 72.94566345 192.57225037 C71.96084958 195.81960535 70.97713164 199.067289 69.99415588 202.31520081 C69.71204254 203.24668442 69.4299292 204.17816803 69.13926697 205.13787842 C68.40831876 207.55773323 67.68256926 209.97906884 66.95899963 212.40113831 C66.75435089 213.07586182 66.54970215 213.75058533 66.33885193 214.445755 C65.10959197 218.58348371 64.54250433 222.0695871 64.95899963 226.40113831 C67.26632236 229.48921439 70.15852669 230.46093104 73.69728088 231.79176331 C74.88829407 232.24535217 76.07930725 232.69894104 77.30641174 233.16627502 C77.94851593 233.40666504 78.59062012 233.64705505 79.25218201 233.89472961 C82.05306751 234.94390291 84.84673587 236.01171539 87.64096069 237.07847595 C89.1350962 237.6488352 90.62955963 238.21833608 92.12432861 238.78703308 C101.01121173 242.17162572 109.84897412 245.67908047 118.68843079 249.18522644 C128.91748129 253.24150046 139.15971141 257.2611363 149.42017937 261.23736572 C153.19989089 262.70337493 156.97759746 264.17454494 160.75529575 265.64573288 C163.85683541 266.85303402 166.95997987 268.05575191 170.06565857 269.25239563 C208.25231759 283.97064017 208.25231759 283.97064017 214.28712463 294.78004456 C214.59134338 295.50063049 214.89556213 296.22121643 215.20899963 296.96363831 C215.52353088 297.68680237 215.83806213 298.40996643 216.16212463 299.15504456 C220.19035661 310.50912977 219.12440254 324.30274849 219.08937073 336.23512268 C219.08400269 338.39990738 219.08936289 340.56448473 219.09571838 342.72926331 C219.11542019 377.52092982 219.11542019 377.52092982 209.95899963 388.40113831 C204.62330994 392.61552604 198.77455982 395.68078922 192.52149963 398.27613831 C191.65428284 398.64215149 190.78706604 399.00816467 189.89356995 399.38526917 C177.35200161 404.59083063 164.60701366 409.30046252 151.90834045 414.10525513 C140.54380663 418.40627639 129.21110169 422.78305854 117.89649963 427.21363831 C114.48902031 428.54715762 111.08145026 429.88044496 107.67384338 431.21363831 C106.81163177 431.55103027 105.94942017 431.88842224 105.06108093 432.23603821 C95.39569979 436.01615444 85.71952737 439.76838179 76.04252625 443.51863098 C72.97150583 444.70879158 69.90066361 445.89941102 66.82984924 447.09010315 C57.12512166 450.85243849 47.41891192 454.61089264 37.70973206 458.36172485 C33.20887524 460.10078124 28.70866071 461.84149607 24.20851135 463.5823822 C22.06462967 464.41120348 19.92043046 465.23920395 17.77589417 466.06632996 C14.79447348 467.21626702 11.81413526 468.36896956 8.83399963 469.52223206 C7.96428528 469.85683441 7.09457092 470.19143677 6.19850159 470.53617859 C-6.71966856 474.60244391 -6.71966856 474.60244391 -15.95191956 483.35035706 C-16.91379033 486.00919241 -17.72365363 488.68616502 -18.51365662 491.40113831 C-19.00515953 493.00988831 -19.00515953 493.00988831 -19.5065918 494.65113831 C-20.263519 497.13488847 -21.01357275 499.61987492 -21.75517273 502.10816956 C-23.17987966 506.88005304 -24.64107522 511.64055257 -26.10301208 516.40113831 C-28.38915974 523.85314365 -30.66759724 531.30744484 -32.93748474 538.76441956 C-33.22717321 539.71601456 -33.51686169 540.66760956 -33.8153286 541.64804077 C-35.31013153 546.55940182 -36.80378531 551.47111092 -38.2966156 556.3830719 C-39.76205189 561.20427827 -41.23052379 566.02455132 -42.70089912 570.84425354 C-43.25671256 572.66842845 -43.8113198 574.49297134 -44.36469841 576.31788635 C-45.12952388 578.84000327 -45.89816501 581.36092668 -46.66770935 583.88160706 C-46.89466492 584.63354843 -47.12162048 585.38548981 -47.35545349 586.16021729 C-48.92704951 591.28718745 -48.92704951 591.28718745 -50.04100037 592.40113831 C-51.85060908 592.49755328 -53.66402165 592.52301228 -55.47619629 592.52139282 C-56.65555252 592.52276749 -57.83490875 592.52414215 -59.05000305 592.52555847 C-60.35551117 592.5219632 -61.66101929 592.51836792 -63.00608826 592.5146637 C-64.38552854 592.51438183 -65.76496898 592.51453955 -67.14440918 592.5151062 C-70.90044155 592.51539418 -74.65644226 592.50949735 -78.41246724 592.50253224 C-82.33360081 592.49629881 -86.25473504 592.49569492 -90.1758728 592.49450684 C-97.60611647 592.49139349 -105.0363455 592.48318005 -112.46658272 592.47315735 C-120.92351675 592.46199632 -129.38045146 592.45648579 -137.83739102 592.45146191 C-155.23860262 592.44099744 -172.63979995 592.42339793 -190.04100037 592.40113831 C-189.58000288 586.77843153 -189.00347367 581.44366871 -187.39646912 576.01222229 C-187.05583435 574.84747879 -186.71519958 573.68273529 -186.36424255 572.48269653 C-185.98944763 571.23761826 -185.61465271 569.99253998 -185.22850037 568.70973206 C-184.8272775 567.35526271 -184.42657654 566.00063868 -184.02635193 564.64587402 C-179.11123713 548.07577891 -173.97251162 531.57211882 -168.84832764 515.06581116 C-166.35993899 507.04525047 -163.88085886 499.02180269 -161.40037537 490.99879456 C-160.99108418 489.67536482 -160.99108418 489.67536482 -160.57352448 488.32519913 C-155.43191963 471.69816237 -150.34129698 455.05612944 -145.29100037 438.40113831 C-144.94923767 437.27507172 -144.60747498 436.14900513 -144.25535583 434.98881531 C-142.43892794 429.00173542 -140.63125934 423.01212886 -138.83226013 417.01979065 C-138.05961363 414.46273838 -137.27352042 411.91016668 -136.48435974 409.35816956 C-136.01869588 407.83087734 -135.55319032 406.30353685 -135.08787537 404.77613831 C-134.87705322 404.10719543 -134.66623108 403.43825256 -134.44902039 402.7490387 C-133.27971202 398.87232692 -132.48119799 395.43981594 -133.04100037 391.40113831 C-136.12620511 387.9401941 -140.91669535 386.74490735 -145.17771912 385.17066956 C-145.99296051 384.86325333 -146.8082019 384.5558371 -147.64814758 384.23910522 C-149.41422385 383.57375162 -151.18137856 382.91125506 -152.94947815 382.251297 C-157.70649437 380.47507542 -162.45515806 378.67673905 -167.20506287 376.88160706 C-168.18473526 376.51200867 -169.16440765 376.14241028 -170.17376709 375.76161194 C-186.11792705 369.73950275 -201.97793758 363.49903635 -217.84013367 357.26496887 C-219.92822392 356.44540257 -222.01732072 355.62847368 -224.10691833 354.8127594 C-227.58788674 353.4538166 -231.06484014 352.08483891 -234.54100037 350.71363831 C-235.50078796 350.33997131 -236.46057556 349.96630432 -237.44944763 349.58131409 C-247.99057088 345.39323257 -256.95389743 341.22086258 -262.14646912 330.65895081 C-267.1088049 318.1339286 -266.21063869 303.78971382 -266.17137146 290.49171448 C-266.16599329 288.33580023 -266.17137175 286.18009337 -266.17771912 284.02418518 C-266.1994489 248.84916548 -266.1994489 248.84916548 -257.29026794 238.38917542 C-254.41698541 235.8495966 -251.25987865 234.24258368 -247.83787537 232.58082581 C-247.13022034 232.23299042 -246.42256531 231.88515503 -245.69346619 231.52677917 C-238.13207906 227.86939407 -230.37396895 224.79442412 -222.54100037 221.77613831 C-220.92871033 221.14802944 -219.31674297 220.5190918 -217.70506287 219.88941956 C-214.13734176 218.49643358 -210.5681371 217.10733726 -206.99803162 215.72047424 C-196.88138316 211.78645786 -186.7833612 207.8047818 -176.68171692 203.83244324 C-171.82449375 201.92288303 -166.96650653 200.01527064 -162.10855103 198.10757446 C-152.91092943 194.49547365 -143.71410165 190.88138848 -134.52146912 187.25660706 C-133.7283432 186.9439389 -132.93521729 186.63127075 -132.11805725 186.30912781 C-128.34318002 184.82019837 -124.56972603 183.32781483 -120.79881287 181.82887268 C-113.34633671 178.86948241 -105.88171809 175.94953359 -98.38653564 173.09970093 C-94.40403483 171.58284872 -90.42756789 170.05053052 -86.45155334 168.51676941 C-84.53410866 167.78180222 -82.61387953 167.05405242 -80.69075012 166.33409119 C-78.01879536 165.33317153 -75.35760477 164.30742424 -72.69725037 163.27613831 C-71.90844986 162.9880983 -71.11964935 162.70005829 -70.3069458 162.40328979 C-64.10493881 159.95364972 -59.9891876 156.53126213 -57.10728455 150.42167664 C-56.28549227 148.21803502 -55.60117016 146.00789424 -54.94725037 143.74879456 C-54.55019142 142.45879295 -54.55019142 142.45879295 -54.14511108 141.14273071 C-53.2605149 138.25445822 -52.40106973 135.35930021 -51.54100037 132.46363831 C-50.91125416 130.3919997 -50.2797714 128.32088833 -49.64671326 126.2502594 C-48.23227443 121.61312791 -46.82871848 116.97287083 -45.43211365 112.33033752 C-42.2877734 101.88125148 -39.0941219 91.44720716 -35.90431213 81.01193237 C-35.66009081 80.21295753 -35.41586948 79.41398268 -35.16424751 78.59079647 C-34.67058875 76.975797 -34.17688935 75.36080994 -33.68314934 73.7458353 C-31.99352992 68.2173227 -30.31091521 62.68670933 -28.63084412 57.1552887 C-20.93893676 31.8474974 -20.93893676 31.8474974 -17.58396912 21.67066956 C-17.25386086 20.65935471 -17.25386086 20.65935471 -16.91708374 19.62760925 C-10.33794723 0.05892021 -10.33794723 0.05892021 0 0 Z " fill="#FBCA06" transform="translate(376.04100036621094,-0.4011383056640625)"/>
<path d="M0 0 C1.0163855 -0.01279495 2.032771 -0.0255899 3.07995605 -0.03877258 C4.7437606 -0.03673325 4.7437606 -0.03673325 6.44117737 -0.03465271 C7.61391205 -0.04472855 8.78664673 -0.05480438 9.99491882 -0.06518555 C13.20781604 -0.08879696 16.42036414 -0.09871776 19.63333774 -0.10063291 C21.64153006 -0.10276681 23.64966161 -0.10917418 25.65783882 -0.11712456 C32.66622406 -0.14486779 39.67443825 -0.15713119 46.68287659 -0.1547699 C53.21219095 -0.15296711 59.74076209 -0.18463363 66.26988834 -0.23200089 C71.87937807 -0.27124384 77.48862499 -0.28732098 83.09825093 -0.28540367 C86.4470678 -0.28463924 89.7952238 -0.29316079 93.14390373 -0.32493782 C96.87904259 -0.35427362 100.61225874 -0.34573313 104.34742737 -0.32762146 C106.00819557 -0.35290924 106.00819557 -0.35290924 107.70251465 -0.37870789 C115.01427375 -0.28843435 115.01427375 -0.28843435 117.74249458 1.7029438 C122.56163306 7.32593586 124.33949028 14.25342557 123.87306213 21.53785706 C122.97869873 30.52791602 120.10680082 38.99224818 117.45899963 47.58863831 C116.85115915 49.59367795 116.24417921 51.59897862 115.63795471 53.60450745 C113.64578456 60.17425559 111.62887176 66.73630864 109.60726166 73.29704285 C108.92999535 75.49527891 108.25325466 77.69367627 107.57661438 79.8921051 C102.85724588 95.22401428 98.12811632 110.55290456 93.38648987 125.87794495 C86.87920256 146.91163045 80.41002984 167.95606056 74.02149963 189.02613831 C73.48896072 190.78146378 73.48896072 190.78146378 72.94566345 192.57225037 C71.96084958 195.81960535 70.97713164 199.067289 69.99415588 202.31520081 C69.71204254 203.24668442 69.4299292 204.17816803 69.13926697 205.13787842 C68.40831876 207.55773323 67.68256926 209.97906884 66.95899963 212.40113831 C66.75435089 213.07586182 66.54970215 213.75058533 66.33885193 214.445755 C65.10959197 218.58348371 64.54250433 222.0695871 64.95899963 226.40113831 C67.26632236 229.48921439 70.15852669 230.46093104 73.69728088 231.79176331 C74.88829407 232.24535217 76.07930725 232.69894104 77.30641174 233.16627502 C77.94851593 233.40666504 78.59062012 233.64705505 79.25218201 233.89472961 C82.05306751 234.94390291 84.84673587 236.01171539 87.64096069 237.07847595 C89.1350962 237.6488352 90.62955963 238.21833608 92.12432861 238.78703308 C101.01121173 242.17162572 109.84897412 245.67908047 118.68843079 249.18522644 C128.91748129 253.24150046 139.15971141 257.2611363 149.42017937 261.23736572 C153.19989089 262.70337493 156.97759746 264.17454494 160.75529575 265.64573288 C163.85683541 266.85303402 166.95997987 268.05575191 170.06565857 269.25239563 C208.25231759 283.97064017 208.25231759 283.97064017 214.28712463 294.78004456 C214.59134338 295.50063049 214.89556213 296.22121643 215.20899963 296.96363831 C215.52353088 297.68680237 215.83806213 298.40996643 216.16212463 299.15504456 C220.19035661 310.50912977 219.12440254 324.30274849 219.08937073 336.23512268 C219.08400269 338.39990738 219.08936289 340.56448473 219.09571838 342.72926331 C219.11542019 377.52092982 219.11542019 377.52092982 209.95899963 388.40113831 C204.62330994 392.61552604 198.77455982 395.68078922 192.52149963 398.27613831 C191.65428284 398.64215149 190.78706604 399.00816467 189.89356995 399.38526917 C177.35200161 404.59083063 164.60701366 409.30046252 151.90834045 414.10525513 C140.54380663 418.40627639 129.21110169 422.78305854 117.89649963 427.21363831 C114.48902031 428.54715762 111.08145026 429.88044496 107.67384338 431.21363831 C106.81163177 431.55103027 105.94942017 431.88842224 105.06108093 432.23603821 C95.39569979 436.01615444 85.71952737 439.76838179 76.04252625 443.51863098 C72.97150583 444.70879158 69.90066361 445.89941102 66.82984924 447.09010315 C57.12512166 450.85243849 47.41891192 454.61089264 37.70973206 458.36172485 C33.20887524 460.10078124 28.70866071 461.84149607 24.20851135 463.5823822 C22.06462967 464.41120348 19.92043046 465.23920395 17.77589417 466.06632996 C14.79447348 467.21626702 11.81413526 468.36896956 8.83399963 469.52223206 C7.96428528 469.85683441 7.09457092 470.19143677 6.19850159 470.53617859 C-6.71966856 474.60244391 -6.71966856 474.60244391 -15.95191956 483.35035706 C-16.91379033 486.00919241 -17.72365363 488.68616502 -18.51365662 491.40113831 C-19.00515953 493.00988831 -19.00515953 493.00988831 -19.5065918 494.65113831 C-20.263519 497.13488847 -21.01357275 499.61987492 -21.75517273 502.10816956 C-23.17987966 506.88005304 -24.64107522 511.64055257 -26.10301208 516.40113831 C-28.38915974 523.85314365 -30.66759724 531.30744484 -32.93748474 538.76441956 C-33.22717321 539.71601456 -33.51686169 540.66760956 -33.8153286 541.64804077 C-35.31013153 546.55940182 -36.80378531 551.47111092 -38.2966156 556.3830719 C-39.76205189 561.20427827 -41.23052379 566.02455132 -42.70089912 570.84425354 C-43.25671256 572.66842845 -43.8113198 574.49297134 -44.36469841 576.31788635 C-45.12952388 578.84000327 -45.89816501 581.36092668 -46.66770935 583.88160706 C-46.89466492 584.63354843 -47.12162048 585.38548981 -47.35545349 586.16021729 C-48.92704951 591.28718745 -48.92704951 591.28718745 -50.04100037 592.40113831 C-51.85060908 592.49755328 -53.66402165 592.52301228 -55.47619629 592.52139282 C-56.65555252 592.52276749 -57.83490875 592.52414215 -59.05000305 592.52555847 C-60.35551117 592.5219632 -61.66101929 592.51836792 -63.00608826 592.5146637 C-64.38552854 592.51438183 -65.76496898 592.51453955 -67.14440918 592.5151062 C-70.90044155 592.51539418 -74.65644226 592.50949735 -78.41246724 592.50253224 C-82.33360081 592.49629881 -86.25473504 592.49569492 -90.1758728 592.49450684 C-97.60611647 592.49139349 -105.0363455 592.48318005 -112.46658272 592.47315735 C-120.92351675 592.46199632 -129.38045146 592.45648579 -137.83739102 592.45146191 C-155.23860262 592.44099744 -172.63979995 592.42339793 -190.04100037 592.40113831 C-189.58000288 586.77843153 -189.00347367 581.44366871 -187.39646912 576.01222229 C-187.05583435 574.84747879 -186.71519958 573.68273529 -186.36424255 572.48269653 C-185.98944763 571.23761826 -185.61465271 569.99253998 -185.22850037 568.70973206 C-184.8272775 567.35526271 -184.42657654 566.00063868 -184.02635193 564.64587402 C-179.11123713 548.07577891 -173.97251162 531.57211882 -168.84832764 515.06581116 C-166.35993899 507.04525047 -163.88085886 499.02180269 -161.40037537 490.99879456 C-160.99108418 489.67536482 -160.99108418 489.67536482 -160.57352448 488.32519913 C-155.43191963 471.69816237 -150.34129698 455.05612944 -145.29100037 438.40113831 C-144.94923767 437.27507172 -144.60747498 436.14900513 -144.25535583 434.98881531 C-142.43892794 429.00173542 -140.63125934 423.01212886 -138.83226013 417.01979065 C-138.05961363 414.46273838 -137.27352042 411.91016668 -136.48435974 409.35816956 C-136.01869588 407.83087734 -135.55319032 406.30353685 -135.08787537 404.77613831 C-134.87705322 404.10719543 -134.66623108 403.43825256 -134.44902039 402.7490387 C-133.27971202 398.87232692 -132.48119799 395.43981594 -133.04100037 391.40113831 C-136.12620511 387.9401941 -140.91669535 386.74490735 -145.17771912 385.17066956 C-145.99296051 384.86325333 -146.8082019 384.5558371 -147.64814758 384.23910522 C-149.41422385 383.57375162 -151.18137856 382.91125506 -152.94947815 382.251297 C-157.70649437 380.47507542 -162.45515806 378.67673905 -167.20506287 376.88160706 C-168.18473526 376.51200867 -169.16440765 376.14241028 -170.17376709 375.76161194 C-186.11792705 369.73950275 -201.97793758 363.49903635 -217.84013367 357.26496887 C-219.92822392 356.44540257 -222.01732072 355.62847368 -224.10691833 354.8127594 C-227.58788674 353.4538166 -231.06484014 352.08483891 -234.54100037 350.71363831 C-235.50078796 350.33997131 -236.46057556 349.96630432 -237.44944763 349.58131409 C-247.99057088 345.39323257 -256.95389743 341.22086258 -262.14646912 330.65895081 C-267.1088049 318.1339286 -266.21063869 303.78971382 -266.17137146 290.49171448 C-266.16599329 288.33580023 -266.17137175 286.18009337 -266.17771912 284.02418518 C-266.1994489 248.84916548 -266.1994489 248.84916548 -257.29026794 238.38917542 C-254.41698541 235.8495966 -251.25987865 234.24258368 -247.83787537 232.58082581 C-247.13022034 232.23299042 -246.42256531 231.88515503 -245.69346619 231.52677917 C-238.13207906 227.86939407 -230.37396895 224.79442412 -222.54100037 221.77613831 C-220.92871033 221.14802944 -219.31674297 220.5190918 -217.70506287 219.88941956 C-214.13734176 218.49643358 -210.5681371 217.10733726 -206.99803162 215.72047424 C-196.88138316 211.78645786 -186.7833612 207.8047818 -176.68171692 203.83244324 C-171.82449375 201.92288303 -166.96650653 200.01527064 -162.10855103 198.10757446 C-152.91092943 194.49547365 -143.71410165 190.88138848 -134.52146912 187.25660706 C-133.7283432 186.9439389 -132.93521729 186.63127075 -132.11805725 186.30912781 C-128.34318002 184.82019837 -124.56972603 183.32781483 -120.79881287 181.82887268 C-113.34633671 178.86948241 -105.88171809 175.94953359 -98.38653564 173.09970093 C-94.40403483 171.58284872 -90.42756789 170.05053052 -86.45155334 168.51676941 C-84.53410866 167.78180222 -82.61387953 167.05405242 -80.69075012 166.33409119 C-78.01879536 165.33317153 -75.35760477 164.30742424 -72.69725037 163.27613831 C-71.90844986 162.9880983 -71.11964935 162.70005829 -70.3069458 162.40328979 C-64.10493881 159.95364972 -59.9891876 156.53126213 -57.10728455 150.42167664 C-56.28549227 148.21803502 -55.60117016 146.00789424 -54.94725037 143.74879456 C-54.55019142 142.45879295 -54.55019142 142.45879295 -54.14511108 141.14273071 C-53.2605149 138.25445822 -52.40106973 135.35930021 -51.54100037 132.46363831 C-50.91125416 130.3919997 -50.2797714 128.32088833 -49.64671326 126.2502594 C-48.23227443 121.61312791 -46.82871848 116.97287083 -45.43211365 112.33033752 C-42.2877734 101.88125148 -39.0941219 91.44720716 -35.90431213 81.01193237 C-35.66009081 80.21295753 -35.41586948 79.41398268 -35.16424751 78.59079647 C-34.67058875 76.975797 -34.17688935 75.36080994 -33.68314934 73.7458353 C-31.99352992 68.2173227 -30.31091521 62.68670933 -28.63084412 57.1552887 C-20.93893676 31.8474974 -20.93893676 31.8474974 -17.58396912 21.67066956 C-17.25386086 20.65935471 -17.25386086 20.65935471 -16.91708374 19.62760925 C-10.33794723 0.05892021 -10.33794723 0.05892021 0 0 Z M0.95899963 11.40113831 C-1.02100037 18.33113831 -3.00100037 25.26113831 -5.04100037 32.40113831 C-8.10350037 41.58863831 -8.10350037 41.58863831 -9.61131287 46.01832581 C-11.06369149 50.37546169 -12.28862079 54.77876556 -13.47850037 59.21363831 C-15.51566253 66.79497596 -17.92801153 74.2108422 -20.45042419 81.64332581 C-22.54030635 87.82577511 -24.46094077 94.03661813 -26.26976013 100.30641174 C-27.61325879 104.96211105 -29.01954646 109.59284872 -30.47850037 114.21363831 C-32.65323238 121.10831239 -34.73937423 128.02742376 -36.80149841 134.95655823 C-38.20212743 139.65022772 -39.64553662 144.32635419 -41.13987732 148.99098206 C-43.19133506 155.40303744 -44.91676977 161.75529133 -46.04100037 168.40113831 C-46.58785995 168.57818298 -47.13471954 168.75522766 -47.69815063 168.93763733 C-53.17026625 170.73213959 -58.54599068 172.69938832 -63.90428162 174.80738831 C-64.72620499 175.12865692 -65.54812836 175.44992554 -66.3949585 175.78092957 C-69.04866286 176.81882491 -71.70110141 177.859912 -74.35350037 178.90113831 C-76.19571635 179.6225064 -78.03800209 180.34369635 -79.88035583 181.06471252 C-84.43374596 182.84736806 -88.98607704 184.63270915 -93.53800964 186.41908264 C-96.51952512 187.58888888 -99.50159681 188.75727148 -102.48373413 189.92549133 C-111.97584778 193.6444782 -121.46668043 197.36535792 -130.92771912 201.16285706 C-140.00654786 204.80335658 -149.11895594 208.35791942 -158.22987366 211.91716003 C-163.35231242 213.91835134 -168.47394537 215.92160334 -173.59568787 217.92457581 C-174.59902664 218.31689896 -175.60236542 218.70922211 -176.6361084 219.11343384 C-187.58896756 223.39658214 -198.53628422 227.69371063 -209.47996521 232.0002594 C-212.87528051 233.33594562 -216.27106855 234.67042251 -219.66696167 236.00463867 C-222.74617999 237.21466632 -225.82506912 238.42552995 -228.90388489 239.63658142 C-230.40052978 240.22512378 -231.89729313 240.813365 -233.3941803 241.40129089 C-235.46690023 242.21547671 -237.53916078 243.03082107 -239.61131287 243.84645081 C-240.80514587 244.31583069 -241.99897888 244.78521057 -243.22898865 245.26881409 C-245.9348046 246.31439455 -245.9348046 246.31439455 -248.04100037 247.40113831 C-248.04100037 267.86113831 -248.04100037 288.32113831 -248.04100037 309.40113831 C-243.42100037 311.05113831 -238.80100037 312.70113831 -234.04100037 314.40113831 C-228.10350037 316.83863831 -228.10350037 316.83863831 -225.15428162 318.08863831 C-216.1541386 321.88292695 -207.05948603 325.41357289 -197.90354919 328.81251526 C-191.23051239 331.30408387 -184.60520862 333.91426832 -177.97850037 336.52613831 C-167.53294888 340.64297313 -157.07524754 344.72641461 -146.60350037 348.77613831 C-145.64683975 349.14621002 -145.64683975 349.14621002 -144.67085266 349.52375793 C-137.09269699 352.4547613 -129.51063444 355.37526897 -121.92210388 358.27931213 C-118.27906084 359.69781758 -114.66840277 361.18729643 -111.06443787 362.70191956 C-108.92522769 363.56444289 -108.92522769 363.56444289 -106.04100037 363.40113831 C-107.55635205 367.95948 -109.07772818 372.51559297 -110.61912537 377.06520081 C-115.45083531 391.37305504 -119.94552333 405.77367345 -124.17088318 420.27223206 C-127.37704335 431.26372434 -130.77421628 442.1864461 -134.23875427 453.09889221 C-136.98186561 461.74728598 -139.6529047 470.40903182 -142.19151306 479.11976624 C-144.17386641 485.9029049 -146.278976 492.64504325 -148.40501404 499.3842926 C-151.57698888 509.44328846 -154.69322517 519.51063782 -157.62303162 529.64332581 C-160.14649038 538.22348081 -162.88090926 546.74298217 -165.56443787 555.27418518 C-165.77792374 555.95383331 -165.99140961 556.63348145 -166.21136475 557.33372498 C-166.79850334 559.20232885 -167.38687535 561.07054503 -167.97532654 562.93873596 C-168.3269989 564.08132874 -168.67867126 565.22392151 -169.04100037 566.40113831 C-169.41652039 567.59916077 -169.79204041 568.79718323 -170.17893982 570.0315094 C-171.24754212 573.62877816 -171.24754212 573.62877816 -171.04100037 578.40113831 C-143.65100037 578.40113831 -116.26100037 578.40113831 -88.04100037 578.40113831 C-86.01262277 573.66825726 -84.32917203 569.39315188 -82.87693787 564.51832581 C-82.68369431 563.8745549 -82.49045074 563.230784 -82.29135132 562.56750488 C-81.87767102 561.18807924 -81.46578415 559.80811467 -81.05555725 558.42765808 C-79.95641279 554.73004948 -78.84321097 551.03666351 -77.73240662 547.34254456 C-77.50697678 546.5914592 -77.28154694 545.84037384 -77.04928589 545.06652832 C-74.85732056 537.76970441 -72.61460025 530.48933351 -70.35350037 523.21363831 C-69.98362 522.02238342 -69.61373962 520.83112854 -69.23265076 519.60377502 C-67.26102912 513.27020907 -65.2603758 506.94686367 -63.23094177 500.63160706 C-60.43667301 491.93625319 -57.77371744 483.22207847 -55.34495544 474.41676331 C-54.89160813 472.78885747 -54.41397945 471.16759945 -53.91770935 469.55226135 C-53.19747577 466.96355212 -52.64971833 464.4390588 -52.13499451 461.80665588 C-49.16549352 448.3131723 -49.16549352 448.3131723 -43.49436951 444.66065979 C-39.04987297 442.38960415 -34.35767119 440.93687748 -29.60350037 439.46363831 C-27.87161406 438.86419205 -26.14237587 438.25704482 -24.41575623 437.64259338 C-20.9331321 436.41224818 -17.44136 435.21894218 -13.93553162 434.05641174 C-7.2252765 431.81500195 -0.67745097 429.20081599 5.89649963 426.58863831 C8.39654888 425.61905138 10.89749929 424.65233545 13.40040588 423.69020081 C14.05432816 423.43845093 14.70825043 423.18670105 15.38198853 422.92732239 C21.30932035 420.64698327 27.24153794 418.37943746 33.17384338 416.11207581 C37.22726023 414.56267884 41.28064687 413.01320292 45.33399963 411.46363831 C46.35347687 411.07396881 47.3729541 410.68429932 48.42332458 410.28282166 C60.79425119 405.55258485 73.14727459 400.78340114 85.45899963 395.90113831 C98.79557067 390.61246877 112.18276159 385.46109413 125.58399963 380.33863831 C126.58868286 379.95450775 127.59336609 379.5703772 128.62849426 379.17460632 C132.59637628 377.65753632 136.56431708 376.14062015 140.53233337 374.62390137 C148.7964678 371.46458462 157.05896184 368.30109732 165.31367493 365.11723328 C166.6502482 364.60214319 167.98719778 364.08802837 169.32453918 363.57493591 C171.1281416 362.88280643 172.93033689 362.18701337 174.73243713 361.49098206 C175.72678772 361.10804993 176.72113831 360.7251178 177.74562073 360.33058167 C179.89340488 359.59279558 179.89340488 359.59279558 180.95899963 358.40113831 C181.0529126 356.49870069 181.07643622 354.59275372 181.07252502 352.68800354 C181.07241173 350.85621803 181.07241173 350.85621803 181.07229614 348.98742676 C181.06718875 347.64486145 181.06197274 346.30229655 181.05665588 344.95973206 C181.05479163 343.59352673 181.05336776 342.22732074 181.05236816 340.8611145 C181.04854357 337.25912135 181.03871381 333.65716831 181.02766418 330.05519104 C181.01744879 326.38210086 181.01287027 322.70900421 181.00782776 319.03590393 C180.99709147 311.82429708 180.98001577 304.6127233 180.95899963 297.40113831 C173.59972999 294.3134963 166.22300722 291.28232707 158.79884338 288.35426331 C157.86834671 287.98623093 156.93785004 287.61819855 155.97915649 287.23901367 C152.95201957 286.04200134 149.92427117 284.84654441 146.89649963 283.65113831 C144.74476939 282.80072871 142.59307733 281.95022251 140.44142151 281.09962463 C136.05019126 279.36382612 131.65872898 277.62861645 127.2671051 275.89381409 C121.58135686 273.64751406 115.89687756 271.39802297 110.21290588 269.14723206 C100.51392915 265.30707873 90.81243321 261.47333536 81.10908508 257.64424133 C78.88397655 256.76615748 76.65892506 255.88792906 74.43391418 255.00959778 C67.38177883 252.22584058 60.32878395 249.44428045 53.27419472 246.66674709 C50.09305046 245.41424482 46.91221957 244.160962 43.73219299 242.90562439 C40.18502575 241.50592456 36.63662742 240.10939188 33.08790588 238.71363831 C32.02020462 238.29157608 30.95250336 237.86951385 29.85244751 237.43466187 C28.86868637 237.0484819 27.88492523 236.66230194 26.87135315 236.26441956 C26.01509842 235.92708801 25.15884369 235.58975647 24.27664185 235.24220276 C22.18271999 234.48232566 20.1295318 233.89287336 17.95899963 233.40113831 C19.16534767 229.60883718 20.37415095 225.81732405 21.58399963 222.02613831 C21.94864319 220.88306213 22.31328674 219.73998596 22.6889801 218.56227112 C24.76532358 212.07199099 26.89025168 205.60250872 29.08399963 199.15113831 C31.48449777 192.05810015 33.55938943 184.89735284 35.57545471 177.68678284 C37.48572703 170.91305384 39.59305234 164.21795795 41.77149963 157.52613831 C44.88454336 147.95441047 47.75387222 138.32680376 50.52149963 128.65113831 C53.299439 118.94061352 56.23683813 109.31535343 59.50831604 99.75856018 C61.78019776 93.07608974 63.7312383 86.33049032 65.6264801 79.53297424 C67.51691407 72.80950797 69.60981375 66.16688378 71.77149963 59.52613831 C74.99723908 49.5976966 77.99726423 39.61614159 80.89649963 29.58863831 C81.19253586 28.56567657 81.19253586 28.56567657 81.49455261 27.52204895 C83.82461567 19.48814592 83.82461567 19.48814592 85.95899963 11.40113831 C57.90899963 11.40113831 29.85899963 11.40113831 0.95899963 11.40113831 Z " fill="#000000" transform="translate(376.04100036621094,-0.4011383056640625)"/>
<path d="M0 0 C3.59239841 3.0582048 6.97315571 6.28962415 10.31103516 9.62255859 C11.02646484 10.32638672 11.74189453 11.03021484 12.47900391 11.75537109 C28.66351818 28.74749586 38.32788869 52.20398756 38.62353516 75.56005859 C38.65253906 76.31996094 38.68154297 77.07986328 38.71142578 77.86279297 C38.78513363 84.50216928 36.99653291 89.6380207 32.52197266 94.61083984 C23.88162298 100.84292184 15.17072493 102.06950472 4.7109375 102.05493164 C3.04088654 102.07021912 3.04088654 102.07021912 1.33709717 102.08581543 C-2.30966323 102.1157904 -5.95616027 102.12518785 -9.60302734 102.13427734 C-12.14465192 102.15113547 -14.68626822 102.16928723 -17.22787476 102.18867493 C-23.21283329 102.23122572 -29.19771765 102.26081799 -35.18277109 102.28399831 C-42.00278359 102.31114561 -48.82265702 102.35505074 -55.64256978 102.40028703 C-69.65795904 102.49287927 -83.67339229 102.56467566 -97.68896484 102.62255859 C-96.57144961 104.07677798 -95.45152094 105.52914296 -94.33056641 106.98071289 C-93.7071637 107.78969528 -93.08376099 108.59867767 -92.44146729 109.43217468 C-86.5241049 116.82805331 -78.19076749 121.68983002 -68.76464844 122.86181641 C-57.96490252 123.77648616 -49.66306217 121.83696592 -39.68896484 117.62255859 C-32.03928152 114.79256211 -24.62607576 114.54557787 -16.92333984 117.45458984 C-8.30424816 121.96002414 -3.70127418 128.58563058 -0.68896484 137.62255859 C0.18321423 146.21566716 -1.14524453 153.29052122 -5.95068359 160.52099609 C-16.70059084 172.9920171 -37.073842 177.3187216 -52.68896484 178.62255859 C-82.19675142 180.01845555 -107.1639584 173.46463995 -129.58349609 153.50537109 C-138.30434267 145.51282942 -144.92319079 136.94615836 -150.68896484 126.62255859 C-151.23423828 125.66736328 -151.77951172 124.71216797 -152.34130859 123.72802734 C-163.78221342 102.44736214 -166.92379583 74.6632056 -160.00537109 51.46240234 C-150.59211459 23.13594129 -131.47347234 0.19871774 -104.68896484 -13.37744141 C-99.48937824 -15.77987813 -94.15469974 -17.6795688 -88.68896484 -19.37744141 C-87.60744141 -19.71775391 -86.52591797 -20.05806641 -85.41162109 -20.40869141 C-55.36527698 -28.27537059 -23.63853959 -19.27849673 0 0 Z M-95.46240234 47.81396484 C-97.05746591 50.02720968 -97.05746591 50.02720968 -98.68896484 54.62255859 C-74.59896484 54.62255859 -50.50896484 54.62255859 -25.68896484 54.62255859 C-33.44417299 42.98974638 -39.79919605 35.65627389 -53.68896484 32.62255859 C-70.98426476 31.57695572 -83.77261718 34.19765084 -95.46240234 47.81396484 Z " fill="#F3FCFE" transform="translate(1252.68896484375,258.37744140625)"/>
<path d="M0 0 C20.62262306 17.75463185 32.53616573 42.5275371 35 69.4375 C36.86840593 95.6568466 28.48447908 121.94522861 11.35498047 141.89501953 C-6.53933467 162.26552099 -30.22264801 175.45861944 -57.63671875 177.34765625 C-58.41660156 177.37730469 -59.19648437 177.40695312 -60 177.4375 C-60.89332031 177.47746094 -61.78664063 177.51742187 -62.70703125 177.55859375 C-92.05842514 178.22656389 -117.85232442 167.62016404 -139.1875 147.6875 C-158.51061868 127.30669482 -167.67335685 100.43121952 -166.97875977 72.55712891 C-165.78992683 46.83917602 -155.75673236 25.01425908 -138 6.4375 C-137.38769531 5.75042969 -136.77539062 5.06335938 -136.14453125 4.35546875 C-100.45567895 -34.22501764 -38.34558835 -31.85991269 0 0 Z M-95 41.4375 C-95.86625 42.015 -96.7325 42.5925 -97.625 43.1875 C-106.94844704 52.0202393 -111.70551893 63.85794176 -112.25 76.5625 C-112.04589334 90.03353975 -106.40753367 100.52729882 -97.38671875 110.14453125 C-88.43531209 118.74432783 -76.82306379 123.86695148 -64.328125 123.65234375 C-52.10356165 122.52423807 -40.3058815 117.60677874 -32 108.4375 C-23.86110567 97.60228485 -18.99161434 86.07924564 -20 72.4375 C-21.86744625 59.742292 -27.98449613 48.5332147 -38 40.4375 C-56.1996575 27.31820666 -77.22301861 28.28542434 -95 41.4375 Z " fill="#F3FCFE" transform="translate(1894,259.5625)"/>
<path d="M0 0 C7.41032715 5.56783202 11.73264234 12.44440521 13.15234375 21.6171875 C13.23434108 24.41409006 13.26894644 27.18454756 13.25 29.98046875 C13.24858505 30.77245163 13.2471701 31.56443451 13.24571228 32.38041687 C13.24013832 34.89687969 13.22759068 37.41325181 13.21484375 39.9296875 C13.20982538 41.64127475 13.20526306 43.35286341 13.20117188 45.06445312 C13.19017743 49.24873258 13.17293082 53.43294469 13.15234375 57.6171875 C14.57268921 57.60719475 14.57268921 57.60719475 16.02172852 57.59700012 C24.96661496 57.53605618 33.91145901 57.49115125 42.85650635 57.46175098 C47.4547189 57.44612763 52.05276318 57.42495048 56.65087891 57.39086914 C61.09237308 57.35815652 65.53370588 57.34030946 69.97531128 57.33255577 C71.66570575 57.32703356 73.35609188 57.31625016 75.04641724 57.29999733 C77.42306264 57.27806432 79.79905014 57.27522711 82.17578125 57.27661133 C83.21264824 57.26043259 83.21264824 57.26043259 84.27046204 57.243927 C91.69514322 57.29039829 98.06965203 59.73733854 103.546875 64.73828125 C109.24280184 71.40431729 111.55232426 79.29351279 111.42578125 87.8984375 C110.57896926 96.31816816 106.34525526 103.04551826 100.15234375 108.6171875 C91.68133785 114.8923646 82.3500054 114.26704602 72.33203125 114.10546875 C70.61997517 114.09612678 68.9079056 114.08901722 67.1958313 114.08403015 C62.72064383 114.06506894 58.24628615 114.01606442 53.77142334 113.96051025 C49.19278178 113.90908086 44.61400428 113.88646587 40.03515625 113.86132812 C31.07385701 113.8079331 22.11316977 113.72275486 13.15234375 113.6171875 C13.19430581 120.92756986 13.2669143 128.23720885 13.35986328 135.54711914 C13.38791969 138.02882158 13.40920965 140.51061084 13.42333984 142.99243164 C13.44498235 146.58003706 13.49174201 150.16661526 13.54296875 153.75390625 C13.54419739 154.84611984 13.54542603 155.93833344 13.54669189 157.06364441 C13.77901473 169.55384449 17.14884044 179.97892606 25.15234375 189.6171875 C25.67570312 190.26429688 26.1990625 190.91140625 26.73828125 191.578125 C33.99453554 199.68389199 44.88182364 204.16277999 55.58984375 204.83203125 C69.41006853 205.18032321 80.72077442 202.3330624 91.21484375 192.9921875 C98.23968338 187.31252993 104.69469191 185.89737746 113.70703125 186.16015625 C118.90897809 186.85021042 122.80755364 188.75659096 127.15234375 191.6171875 C128.08046875 192.2153125 129.00859375 192.8134375 129.96484375 193.4296875 C135.96922622 199.43406997 138.30162544 205.44042228 138.40234375 213.8671875 C138.37762489 222.92181247 136.39279282 227.90212382 130.21484375 234.58203125 C111.00845054 253.53379424 85.80925473 261.90998773 59.26074219 261.86157227 C29.73042302 261.50715284 3.09933661 250.2649353 -17.69018555 229.1237793 C-36.59057009 209.30295198 -44.15930564 183.93658115 -44.13818359 157.08325195 C-44.14418036 155.54782794 -44.15098851 154.01240691 -44.15853882 152.47698975 C-44.17607876 148.3387898 -44.18088878 144.20067274 -44.18217039 140.0624392 C-44.18359818 137.47244117 -44.18787934 134.8824638 -44.19316483 132.29247093 C-44.2116178 123.24469045 -44.21984046 114.19696861 -44.21826172 105.14916992 C-44.21705816 96.73238518 -44.2382146 88.31585594 -44.26974905 79.89913589 C-44.29592498 72.65297697 -44.30662863 65.40690155 -44.3053509 58.16069573 C-44.30484212 53.84122869 -44.31048031 49.52198963 -44.331707 45.20256996 C-44.35111449 41.14351971 -44.35119701 37.08491463 -44.33667374 33.02584839 C-44.33458839 31.54080235 -44.33927021 30.05572821 -44.35139465 28.57073021 C-44.42307024 19.18072983 -43.84359095 13.14390316 -38.27734375 5.4453125 C-28.33920007 -4.64265244 -12.46760854 -7.34364962 0 0 Z " fill="#F3FCFE" transform="translate(1495.84765625,175.3828125)"/>
<path d="M0 0 C1.69189453 0.54333984 1.69189453 0.54333984 3.41796875 1.09765625 C29.64662611 10.34192617 49.57135507 29.64057505 61.5 54.51953125 C63.81536156 59.89189363 65.63186522 65.31348721 67 71 C67.25055901 71.99009064 67.25055901 71.99009064 67.50617981 73.00018311 C69.67362018 82.90974344 69.32844854 92.97743398 69.3359375 103.06640625 C69.34237555 105.11181224 69.34910464 107.15721733 69.35610962 109.20262146 C69.36803306 113.47323746 69.37179525 117.74377284 69.37060547 122.0144043 C69.37040188 127.46699589 69.39776802 132.91906867 69.43214989 138.37153721 C69.45445517 142.58992357 69.45844199 146.8081854 69.45738602 151.02662468 C69.45973403 153.03633357 69.4685121 155.0460463 69.48405075 157.05569649 C69.63211615 178.17046573 69.63211615 178.17046573 63.24609375 187.5859375 C57.11517085 193.65065173 50.19570323 197.00221377 41.5 197.5 C33.7110081 197.08123699 26.11133529 194.07551824 20.43359375 188.7109375 C14.89698017 182.10320794 13.85248397 175.11826524 13.8581543 166.75 C13.85467987 165.92013077 13.85120544 165.09026154 13.84762573 164.23524475 C13.84028001 162.43410917 13.83492832 160.6329646 13.83133507 158.83181763 C13.82414765 155.97170769 13.8084614 153.11176714 13.78999329 150.25170898 C13.73764987 142.11981615 13.68961958 133.98801449 13.67407227 125.85595703 C13.66393244 120.87797605 13.63445272 115.90041982 13.59275246 110.92260742 C13.58051816 109.03461943 13.57530721 107.14657122 13.57755089 105.25854492 C13.59140877 89.78292282 11.99659624 76.71203133 1.03515625 64.87890625 C-8.26902456 55.97852352 -19.31089085 51.19186355 -32.15625 50.9375 C-44.84349877 51.42082376 -55.60020827 56.54475785 -65 65 C-72.88173274 74.22539612 -76.14993448 84.45661153 -76.1418457 96.41113281 C-76.14532013 97.24596695 -76.14879456 98.08080109 -76.15237427 98.94093323 C-76.15970986 100.7491515 -76.16506691 102.55737865 -76.16866493 104.36560822 C-76.17585712 107.23337514 -76.19154465 110.10097361 -76.21000671 112.96868896 C-76.26234398 121.12086671 -76.31042745 129.27295084 -76.32592773 137.42529297 C-76.33604003 142.4173815 -76.3654452 147.40904331 -76.40724754 152.40096283 C-76.41951455 154.29701248 -76.4246867 156.1931225 -76.42244911 158.08921051 C-76.42008153 160.7503625 -76.44237162 163.41030171 -76.4699707 166.07128906 C-76.46006859 167.23124138 -76.46006859 167.23124138 -76.44996643 168.41462708 C-76.58668891 176.49864724 -79.78074672 183.47543534 -85.22265625 189.4296875 C-91.7939147 195.23550266 -98.75404085 197.36293553 -107.35546875 197.19921875 C-116.65710484 196.49850466 -122.88931479 191.91588381 -129 185 C-132.62394824 178.74417986 -133.14972055 173.27567146 -133.14526367 166.15893555 C-133.14862228 165.38411331 -133.1519809 164.60929108 -133.15544128 163.81098938 C-133.16492594 161.25288274 -133.16689398 158.69484188 -133.16796875 156.13671875 C-133.17118598 154.34373448 -133.1745504 152.55075046 -133.17805481 150.75776672 C-133.18404197 146.99434808 -133.18589543 143.23095237 -133.18530273 139.4675293 C-133.18520181 134.6881102 -133.19878349 129.90884199 -133.21607494 125.12945843 C-133.22730439 121.4203883 -133.22921852 117.7113532 -133.22869301 114.00226784 C-133.22985943 112.24314676 -133.2342043 110.48402436 -133.24202538 108.72492027 C-133.37549614 75.56868385 -125.54183185 47.26005722 -102 23 C-76.215624 -2.8795213 -34.43370957 -11.47790319 0 0 Z " fill="#F3FCFE" transform="translate(830,239)"/>
<path d="M0 0 C6.28948464 2.02853576 12.45782002 4.28083761 18.60546875 6.703125 C19.50953461 7.05725967 20.41360046 7.41139435 21.34506226 7.77626038 C24.2934393 8.93189974 27.24049529 10.090866 30.1875 11.25 C32.26874077 12.06679834 34.35004041 12.88344668 36.43139648 13.69995117 C42.6223475 16.12970457 48.81142405 18.56420476 55 21 C55.85493042 21.33638489 56.70986084 21.67276978 57.59069824 22.01934814 C72.74405195 27.98201769 87.88759557 33.96933316 103.02287292 39.97773743 C107.79259608 41.87118581 112.56268789 43.7637048 117.33273315 45.65634155 C120.78293188 47.02595211 124.23242787 48.39732123 127.68188477 49.76879883 C142.53761814 55.67033529 142.53761814 55.67033529 157.50338745 61.28517151 C161.89779286 62.89779286 161.89779286 62.89779286 163 64 C163.09391296 65.90243762 163.11743658 67.80838459 163.11352539 69.71313477 C163.11344986 70.9343251 163.11337433 72.15551544 163.11329651 73.41371155 C163.10818911 74.75627686 163.10297311 76.09884175 163.09765625 77.44140625 C163.09579199 78.80761158 163.09436813 80.17381757 163.09336853 81.5400238 C163.08954394 85.14201695 163.07971417 88.74397 163.06866455 92.34594727 C163.05844916 96.01903745 163.05387064 99.69213409 163.04882812 103.36523438 C163.03809184 110.57684123 163.02101614 117.788415 163 125 C155.5346719 128.13717577 148.04737574 131.20037229 140.50390625 134.14453125 C139.07255592 134.70475227 139.07255592 134.70475227 137.61228943 135.27629089 C135.60676552 136.06088864 133.60098992 136.84484332 131.5949707 137.62817383 C128.59975799 138.79794896 125.60548197 139.97009576 122.61132812 141.14257812 C112.30232029 145.1752794 101.97785279 149.16321456 91.62889099 153.09222412 C83.440237 156.20435734 75.28026968 159.38784932 67.1239624 162.58361816 C52.39279045 168.35404378 37.64466557 174.07884846 22.875 179.75 C22.06390778 180.06146973 21.25281555 180.37293945 20.41714478 180.69384766 C17.21067761 181.92513105 14.00420333 183.15639593 10.79768372 184.38754272 C3.9234155 187.02768479 -2.94660797 189.67870008 -9.81381226 192.3371582 C-11.66521806 193.05387422 -13.51681201 193.77010414 -15.3684082 194.48632812 C-21.68705517 196.93295205 -28.0015512 199.38975131 -34.31077576 201.86058044 C-37.65887082 203.17158407 -41.00785896 204.48029877 -44.35684204 205.78903198 C-46.77298337 206.73453603 -49.18764174 207.68375994 -51.60229492 208.63305664 C-53.07463378 209.2086835 -54.5470423 209.78413221 -56.01953125 210.359375 C-56.69815216 210.62747482 -57.37677307 210.89557465 -58.07595825 211.17179871 C-62.77248335 213 -62.77248335 213 -65 213 C-61.92153979 200.21295083 -58.14745926 187.64158284 -54.35791016 175.05200195 C-53.52943567 172.29577838 -52.71171818 169.53669268 -51.90283203 166.7746582 C-50.91737514 163.41003663 -49.9137514 160.05135376 -48.89684677 156.69610786 C-48.33020242 154.8102584 -47.78188786 152.91893252 -47.23391724 151.02757263 C-46.88360443 149.88530716 -46.53329163 148.74304169 -46.17236328 147.56616211 C-45.87274689 146.56088974 -45.57313049 145.55561737 -45.26443481 144.5198822 C-43.16112332 140.32820926 -39.40297425 138.98709319 -35.14819336 137.48876953 C-34.42255692 137.23016144 -33.69692047 136.97155334 -32.94929504 136.70510864 C-32.17067612 136.43375092 -31.39205719 136.16239319 -30.58984375 135.8828125 C-29.7621196 135.58929901 -28.93439545 135.29578552 -28.08158875 134.99337769 C-25.36858701 134.03238212 -22.65304932 133.07877013 -19.9375 132.125 C-17.08671596 131.11700433 -14.23661902 130.10708178 -11.38653564 129.09710693 C-9.44661404 128.40983093 -7.50646721 127.72319037 -5.56610107 127.03717041 C3.76416762 123.73695634 13.07096715 120.37331018 22.375 117 C32.22986012 113.42984868 42.09422347 109.89490393 52.00146484 106.47216797 C59.76680746 103.77051476 67.45268485 100.85697335 75.13574219 97.93066406 C76.10157227 97.56424805 77.06740234 97.19783203 78.0625 96.8203125 C78.91972656 96.49305176 79.77695312 96.16579102 80.66015625 95.82861328 C82.76129 95.08453482 84.82867524 94.49581925 87 94 C70.21541794 87.61170238 53.40837513 81.37391505 36.40454102 75.58935547 C27.63930335 72.59658305 18.95891201 69.41742091 10.30029297 66.13012695 C3.56568365 63.57484548 -3.19684361 61.12093074 -10.00292969 58.76269531 C-14.81822658 57.09088671 -14.81822658 57.09088671 -17 56 C-14.63665739 45.5898438 -11.45020065 35.44473307 -8.27441406 25.26025391 C-7.36654449 22.34787535 -6.4641635 19.43383648 -5.5625 16.51953125 C-4.98729634 14.66656818 -4.41178688 12.8137 -3.8359375 10.9609375 C-3.56615082 10.09020599 -3.29636414 9.21947449 -3.0184021 8.32235718 C-2.76789093 7.52036896 -2.51737976 6.71838074 -2.25927734 5.89208984 C-1.92976578 4.83385513 -1.92976578 4.83385513 -1.59359741 3.75424194 C-1 2 -1 2 0 0 Z " fill="#F2FBFD" transform="translate(394,233)"/>
<path d="M0 0 C7.22605891 5.37720399 10.332592 13.7578584 13.875 21.73828125 C14.60565674 23.38159424 14.60565674 23.38159424 15.35107422 25.05810547 C18.59331569 32.38135285 21.78959279 39.72391123 24.97305298 47.07286072 C27.32557392 52.49452216 29.7126148 57.90028434 32.11328125 63.30078125 C32.46066849 64.08325226 32.80805573 64.86572327 33.16596985 65.67190552 C34.5298202 68.74367297 35.89367614 71.81541516 37.26419067 74.88421631 C38.20801559 76.99820921 39.14739669 79.1141258 40.0859375 81.23046875 C40.36959671 81.86227051 40.65325592 82.49407227 40.94551086 83.14501953 C42.875 87.51089202 42.875 87.51089202 42.875 89.73828125 C43.535 89.73828125 44.195 89.73828125 44.875 89.73828125 C45.00612183 88.77208862 45.00612183 88.77208862 45.13989258 87.78637695 C46.14726935 83.60932649 47.87694154 79.87880114 49.63671875 75.96875 C50.01933868 75.10730377 50.40195862 74.24585754 50.7961731 73.35830688 C52.04675676 70.54527243 53.30437424 67.73544967 54.5625 64.92578125 C56.3012715 61.02814148 58.037415 57.12933356 59.7734375 53.23046875 C60.42500572 51.76922325 60.42500572 51.76922325 61.08973694 50.27845764 C63.78492952 44.22410556 66.43407865 38.15225946 69.0390625 32.05859375 C69.66700241 30.59607947 70.29501128 29.1335948 70.9230957 27.67114258 C71.79580198 25.6380935 72.66512557 23.603985 73.52279663 21.56454468 C77.99383127 10.93773039 82.12753884 1.93323801 92.875 -3.26171875 C100.27686757 -6.14022281 107.60375716 -6.35723286 115.0625 -3.63671875 C123.31949333 0.07763405 128.35357063 5.37124866 131.875 13.73828125 C134.60501222 25.14212978 130.43736578 34.82669004 126.05859375 45.23046875 C125.69019379 46.11734879 125.32179382 47.00422882 124.94223022 47.91798401 C124.14978238 49.82429102 123.35514474 51.72968896 122.5585022 53.63424683 C120.84867628 57.72222539 119.14969833 61.8146846 117.45005798 65.90690613 C116.56783028 68.03083608 115.68506369 70.15454227 114.80177307 72.2780304 C110.38788135 82.89330788 106.03279964 93.53228252 101.6875 104.17578125 C100.2098727 107.79306571 98.73191105 111.41021352 97.25390625 115.02734375 C96.89268173 115.91153488 96.53145721 116.79572601 96.1592865 117.70671082 C93.57968656 124.01920167 90.9929649 130.32874356 88.40234375 136.63671875 C88.03973953 137.51975174 87.67713531 138.40278473 87.30354309 139.31257629 C85.59495161 143.47299907 83.88555487 147.63308864 82.17504883 151.79272461 C81.55938683 153.2914954 80.94374502 154.79027447 80.328125 156.2890625 C80.03432449 157.00273987 79.74052399 157.71641724 79.43782043 158.45172119 C77.99981726 161.95420383 76.5845965 165.46338606 75.21044922 168.99145508 C74.8108902 170.01187141 74.8108902 170.01187141 74.40325928 171.05290222 C73.68453266 172.89479933 72.97308523 174.73953225 72.26220703 176.58447266 C68.49151433 185.15712459 61.94971678 191.81155512 53.515625 195.875 C45.59306012 198.46506929 37.18510002 197.00438236 29.5078125 194.296875 C19.6695045 188.47271344 16.55809176 179.00196129 12.5 168.86328125 C11.80413012 167.16319418 11.10650012 165.46382663 10.40722656 163.76513672 C8.94600216 160.20890233 7.49422065 156.64903117 6.04980469 153.0859375 C3.97774052 147.98028268 1.87407862 142.88825134 -0.2421875 137.80078125 C-0.58123108 136.98556503 -0.92027466 136.17034882 -1.26959229 135.33042908 C-1.95813706 133.675079 -2.64675627 132.01975988 -3.33544922 130.36447144 C-5.10066959 126.11729856 -6.85841737 121.86703442 -8.6171875 117.6171875 C-13.56289229 105.67204483 -18.52913246 93.73547107 -23.5 81.80078125 C-23.9256424 80.77845398 -24.35128479 79.75612671 -24.78982544 78.70281982 C-28.76951366 69.14588161 -32.75011947 59.58962093 -36.80078125 50.0625 C-37.0675769 49.43469131 -37.33437256 48.80688263 -37.60925293 48.16004944 C-38.78255272 45.40149778 -39.96012366 42.64488165 -41.14404297 39.89086914 C-41.53350098 38.97942139 -41.92295898 38.06797363 -42.32421875 37.12890625 C-42.65252686 36.36610352 -42.98083496 35.60330078 -43.3190918 34.81738281 C-45.98469254 27.94060126 -46.35716937 20.0358476 -44.32421875 12.9453125 C-40.80364075 5.14196951 -34.76704538 -1.18720148 -26.6875 -4.26171875 C-16.80271637 -6.8873644 -8.69791655 -5.16438795 0 0 Z " fill="#F3FCFE" transform="translate(951.125,240.26171875)"/>
<path d="M0 0 C-1.91298511 7.9415433 -4.05820245 15.77008308 -6.46875 23.57421875 C-6.79033081 24.62350052 -7.11191162 25.67278229 -7.4432373 26.75386047 C-8.1174439 28.95166886 -8.7931186 31.14902739 -9.47021484 33.34594727 C-10.5003449 36.68861918 -11.52595068 40.03265307 -12.55078125 43.37695312 C-13.21067508 45.52612226 -13.87082264 47.67521351 -14.53125 49.82421875 C-14.83446167 50.81193771 -15.13767334 51.79965668 -15.45007324 52.81730652 C-16.0235277 54.67668824 -16.60476425 56.53369322 -17.19490051 58.3878479 C-17.72518748 60.10836845 -18.21484415 61.84202056 -18.65995789 63.58651733 C-20.27755902 69.50695614 -20.27755902 69.50695614 -23.81176758 71.91894531 C-24.97345459 72.30147461 -26.1351416 72.68400391 -27.33203125 73.078125 C-27.98404007 73.30534241 -28.63604889 73.53255981 -29.30781555 73.7666626 C-30.75081623 74.26715761 -32.199063 74.7527093 -33.65142822 75.2253418 C-36.11676105 76.03851273 -38.55449727 76.9103302 -40.99365234 77.79882812 C-46.545462 79.81931729 -52.11558419 81.7857735 -57.6875 83.75 C-59.6916045 84.45906103 -61.69559113 85.16845532 -63.69946289 85.87817383 C-67.65275983 87.27814584 -71.60648636 88.67689321 -75.56054688 90.07470703 C-82.69166581 92.59703325 -89.81539568 95.13985299 -96.9375 97.6875 C-98.50213989 98.24679199 -98.50213989 98.24679199 -100.09838867 98.81738281 C-101.08556885 99.17026367 -102.07274902 99.52314453 -103.08984375 99.88671875 C-104.03585449 100.22364746 -104.98186523 100.56057617 -105.95654297 100.90771484 C-108.22453875 101.7216899 -110.48857659 102.54670936 -112.75048828 103.37744141 C-113.38523575 103.60897415 -114.01998322 103.8405069 -114.67396545 104.07905579 C-116.47330985 104.73556412 -118.27100398 105.39659031 -120.06860352 106.05786133 C-123 107 -123 107 -126 107 C-126 107.66 -126 108.32 -126 109 C-125.1349585 109.12133301 -124.26991699 109.24266602 -123.37866211 109.36767578 C-120.03578864 109.99330208 -117.1222435 110.92421774 -113.94140625 112.1171875 C-112.76602295 112.55393799 -111.59063965 112.99068848 -110.37963867 113.44067383 C-109.75850189 113.67412506 -109.13736511 113.90757629 -108.49740601 114.14810181 C-105.15622424 115.40330437 -101.80822824 116.64010749 -98.4609375 117.87890625 C-97.76721542 118.13610947 -97.07349335 118.39331268 -96.35874939 118.65830994 C-88.82623521 121.44567942 -81.25991551 124.13580581 -73.6875 126.8125 C-72.71079346 127.15805435 -72.71079346 127.15805435 -71.71435547 127.5105896 C-67.47710172 129.00951413 -63.23866996 130.50508447 -59 132 C-57.09110011 132.67434975 -55.18224118 133.34881546 -53.2734375 134.0234375 C-49.51630853 135.35090436 -45.7585022 136.67642642 -42 138 C-43.92357698 145.17203172 -45.94947392 152.30350091 -48.1015625 159.41015625 C-48.38349457 160.34427841 -48.66542664 161.27840057 -48.9559021 162.24082947 C-49.54505523 164.19129468 -50.1349561 166.14153418 -50.72558594 168.09155273 C-51.63201976 171.0856877 -52.53488411 174.08088403 -53.4375 177.07617188 C-54.0128079 178.97923105 -54.58832117 180.88222816 -55.1640625 182.78515625 C-55.43384918 183.68089859 -55.70363586 184.57664093 -55.9815979 185.49952698 C-56.23210907 186.32476364 -56.48262024 187.15000031 -56.74072266 188.00024414 C-56.96039703 188.72651505 -57.18007141 189.45278595 -57.40640259 190.20106506 C-58 192 -58 192 -59 194 C-63.29961138 193.2983683 -67.22907524 191.89782888 -71.27734375 190.33984375 C-71.97770248 190.07364731 -72.67806122 189.80745087 -73.39964294 189.53318787 C-75.60179588 188.69398967 -77.80131591 187.84824167 -80 187 C-81.01383759 186.60908173 -81.01383759 186.60908173 -82.04815674 186.21026611 C-86.15781693 184.62273657 -90.26287066 183.02354 -94.36645508 181.42037964 C-105.09675701 177.22861313 -115.83410488 173.05578567 -126.58984375 168.9296875 C-127.46298721 168.59462692 -128.33613068 168.25956635 -129.23573303 167.91435242 C-133.45773575 166.29469879 -137.68058492 164.67729624 -141.90454102 163.06274414 C-149.44053152 160.17683471 -156.93171097 157.22657669 -164.3671875 154.08813477 C-168.36749265 152.43481874 -172.42689907 150.96247183 -176.5 149.5 C-182.99370187 147.14112144 -189.39960813 144.66948629 -195.75 141.9453125 C-198.10002376 140.92447965 -198.10002376 140.92447965 -201 140 C-201 119.54 -201 99.08 -201 78 C-186.50929033 72.20371613 -172.01996237 66.40916245 -157.5 60.6875 C-155.88596636 60.05091325 -154.27195318 59.41427465 -152.65795898 58.77758789 C-144.69107525 55.63530416 -136.72275205 52.49667908 -128.75390625 49.359375 C-128.0146994 49.06831375 -127.27549255 48.7772525 -126.5138855 48.47737122 C-123.04986498 47.11344465 -119.58568818 45.74991927 -116.12109375 44.38745117 C-108.55927007 41.41202635 -101.0099114 38.40753331 -93.47192383 35.37231445 C-89.87202608 33.94941696 -86.255785 32.59191629 -82.625 31.25 C-76.16688518 28.8497387 -69.7661811 26.32292033 -63.375 23.75 C-51.53443015 18.99344984 -39.67165165 14.29363909 -27.79669189 9.62365723 C-25.68361795 8.79176525 -23.57126999 7.9580268 -21.45965576 7.12243652 C-18.46718982 5.93871368 -15.47222103 4.76155321 -12.4765625 3.5859375 C-11.10942108 3.04291489 -11.10942108 3.04291489 -9.71466064 2.48892212 C-8.87376892 2.16048309 -8.0328772 1.83204407 -7.16650391 1.49365234 C-6.4313858 1.20404633 -5.6962677 0.91444031 -4.93887329 0.61605835 C-3 0 -3 0 0 0 Z " fill="#F2FBFD" transform="translate(329,169)"/>
<path d="M0 0 C33.99 0 67.98 0 103 0 C98.05 15.84 98.05 15.84 93 32 C90.72948419 39.94366902 90.72948419 39.94366902 88.484375 47.89453125 C86.52753888 54.74211738 84.29941852 61.50268357 82.10327148 68.27636719 C79.59546649 76.04669534 77.23447205 83.85243995 74.9375 91.6875 C72.65572003 99.47049776 70.31836386 107.22379069 67.8125 114.9375 C63.50579841 128.23041211 59.63645759 141.65834966 55.70629883 155.06616211 C52.95496947 164.44402037 50.15788471 173.80166711 47.21923828 183.12255859 C45.24186259 189.39508147 43.32098029 195.68497791 41.40527344 201.9765625 C40.96281886 203.42723325 40.51876902 204.87741828 40.07324219 206.32714844 C39.41497619 208.46960897 38.76165501 210.61352302 38.109375 212.7578125 C37.72749023 214.0070752 37.34560547 215.25633789 36.95214844 216.54345703 C36.08418636 219.69438194 35.46708731 222.76817705 35 226 C35.50728638 226.19584183 36.01457275 226.39168365 36.53723145 226.59346008 C62.19406652 236.50067996 87.82277968 246.47341233 113.38427734 256.62426758 C124.01235635 260.84366316 134.64733213 265.04469294 145.29530907 269.21361351 C147.24354589 269.97641233 149.19165197 270.73954416 151.13972473 271.50276184 C158.74954138 274.48400885 158.74954138 274.48400885 166.36184692 277.45889282 C169.8593627 278.82436272 173.35556264 280.19315456 176.8515625 281.5625 C177.89304947 281.96788498 178.93453644 282.37326996 180.00758362 282.79093933 C180.97526169 283.17059341 181.94293976 283.5502475 182.93994141 283.94140625 C184.19504013 284.43169312 184.19504013 284.43169312 185.47549438 284.93188477 C188.37512545 286.15871512 191.18390724 287.59195362 194 289 C194 313.09 194 337.18 194 362 C186.84520294 364.98116544 179.70610491 367.94275342 172.48828125 370.7578125 C171.61871796 371.09813507 170.74915466 371.43845764 169.85324097 371.78909302 C167.0068922 372.90251334 164.15974027 374.0138616 161.3125 375.125 C159.27057887 375.92282515 157.2286683 376.72067731 155.18676758 377.51855469 C121.7915776 390.5616303 88.3497642 403.4841802 54.90078735 416.3885498 C38.61270161 422.67258782 22.32688869 428.96242979 6.0480957 435.27050781 C3.96893997 436.07612667 1.88967946 436.88147517 -0.18969727 437.68652344 C-3.06689867 438.80058415 -5.94372402 439.91560773 -8.8203125 441.03125 C-9.70620056 441.37462402 -10.59208862 441.71799805 -11.50482178 442.07177734 C-15.55168313 443.64424806 -19.59144033 445.23111403 -23.61621094 446.859375 C-24.67036697 447.285672 -24.67036697 447.285672 -25.74581909 447.72058105 C-27.59626772 448.47199609 -29.44447372 449.22892748 -31.29248047 449.98632812 C-34 451 -34 451 -36 451 C-36.31819702 452.888396 -36.31819702 452.888396 -36.64282227 454.81494141 C-38.3603519 463.36565646 -41.13485882 471.64059297 -43.71484375 479.9609375 C-44.29141945 481.83324893 -44.86754634 483.70569862 -45.44325256 485.57827759 C-46.96197325 490.51409172 -48.48648313 495.44809849 -50.0123291 500.38171387 C-51.5225303 505.26779957 -53.02780146 510.15540259 -54.53320312 515.04296875 C-56.24987677 520.61613082 -57.96680383 526.18920893 -59.6884613 531.76083374 C-65.16518862 549.49538748 -70.57603729 567.24884932 -76 585 C-109.66 585 -143.32 585 -178 585 C-177.31362092 580.19534642 -176.62717415 576.31979532 -175.23193359 571.78613281 C-174.86487808 570.58427338 -174.49782257 569.38241394 -174.11964417 568.14413452 C-173.71266627 566.83043649 -173.30559425 565.51676761 -172.8984375 564.203125 C-172.46954823 562.80569267 -172.04112962 561.40811582 -171.61314392 560.01040649 C-170.45011889 556.21677571 -169.28070345 552.42514173 -168.11020279 548.63381195 C-166.86802269 544.60618339 -165.63191955 540.57669073 -164.39526367 536.54736328 C-162.31605179 529.77514701 -160.23356044 523.0039473 -158.14892578 516.23339844 C-155.12158835 506.40012614 -152.10415811 496.56383365 -149.08984375 486.7265625 C-148.60534017 485.14550669 -148.12083294 483.564452 -147.63632202 481.98339844 C-146.91339178 479.62433426 -146.19046248 477.2652698 -145.46756172 474.90619659 C-143.08459163 467.13022683 -140.69898578 459.35506639 -138.31321335 451.57995605 C-134.32673099 438.58812885 -130.34328113 425.59537706 -126.36328125 412.6015625 C-125.91187327 411.12791861 -125.46046238 409.65427561 -125.00904846 408.18063354 C-123.09545153 401.93356595 -121.18202296 395.68644701 -119.26936245 389.43909264 C-118.32828673 386.36556108 -117.38675738 383.29216849 -116.4453125 380.21875 C-116.10796585 379.11641022 -115.7706192 378.01407043 -115.42304993 376.87832642 C-115.11602646 375.87627167 -114.80900299 374.87421692 -114.49267578 373.84179688 C-114.22673615 372.97325073 -113.96079651 372.10470459 -113.6867981 371.20983887 C-113.1450511 369.46671585 -112.57723199 367.73169596 -112 366 C-112.60617661 365.82730591 -113.21235321 365.65461182 -113.8368988 365.47668457 C-120.01137869 363.67681936 -125.98897319 361.57030033 -131.97265625 359.21875 C-132.91295181 358.85290298 -133.85324738 358.48705597 -134.82203674 358.11012268 C-137.90358199 356.9102828 -140.98301626 355.70511987 -144.0625 354.5 C-146.23665735 353.65250525 -148.41097667 352.80542591 -150.58544922 351.95874023 C-155.11342106 350.19529078 -159.64068787 348.43004849 -164.16748047 346.66357422 C-173.96361739 342.84253921 -183.76849596 339.04407145 -193.57321167 335.24511719 C-196.49438942 334.11311371 -199.41533719 332.98051939 -202.33618164 331.84765625 C-218.55459618 325.55769416 -234.77757698 319.27964762 -251 313 C-251 288.58 -251 264.16 -251 239 C-235.1487479 232.54208248 -219.31214826 226.10395646 -203.37060547 219.8812561 C-200.16824845 218.63119024 -196.96683452 217.37873377 -193.765625 216.12573242 C-190.34701301 214.78766249 -186.92835187 213.44971984 -183.50942993 212.11244202 C-170.50155994 207.02449898 -157.50024175 201.91989719 -144.5 196.8125 C-142.74218201 196.12195023 -142.74218201 196.12195023 -140.94885254 195.41744995 C-129.87597406 191.06703537 -118.8036891 186.71510671 -107.73739624 182.34796143 C-105.78937475 181.57965896 -103.84083743 180.81266294 -101.89175415 180.04705811 C-97.3320941 178.25332047 -92.78498 176.43679502 -88.25878906 174.56005859 C-80.97756399 171.56331165 -74.09171383 168.82526581 -66.32421875 167.41796875 C-59.33454597 165.99769049 -53.83331756 164.49926762 -49 159 C-42.51703048 147.72251594 -39.86667585 134.10475725 -36.73054504 121.61228943 C-33.66648476 109.4235475 -29.95310854 97.45910267 -26.21499634 85.46325684 C-24.29727972 79.2845176 -22.42247377 73.09279007 -20.54296875 66.90234375 C-13.75091581 44.58445696 -6.86936404 22.29420874 0 0 Z M6 9 C4.02 15.93 2.04 22.86 0 30 C-3.0625 39.1875 -3.0625 39.1875 -4.5703125 43.6171875 C-6.02269113 47.97432339 -7.24762043 52.37762726 -8.4375 56.8125 C-10.47466216 64.39383766 -12.88701116 71.8097039 -15.40942383 79.2421875 C-17.49930598 85.42463681 -19.4199404 91.63547983 -21.22875977 97.90527344 C-22.57225842 102.56097275 -23.97854609 107.19171041 -25.4375 111.8125 C-27.61223201 118.70717409 -29.69837386 125.62628546 -31.76049805 132.55541992 C-33.16112706 137.24908942 -34.60453626 141.92521589 -36.09887695 146.58984375 C-38.15033469 153.00189913 -39.8757694 159.35415302 -41 166 C-41.54685959 166.17704468 -42.09371918 166.35408936 -42.65715027 166.53649902 C-48.12926589 168.33100128 -53.50499032 170.29825001 -58.86328125 172.40625 C-59.68520462 172.72751862 -60.50712799 173.04878723 -61.35395813 173.37979126 C-64.00766249 174.4176866 -66.66010104 175.4587737 -69.3125 176.5 C-71.15471598 177.22136809 -72.99700172 177.94255805 -74.83935547 178.66357422 C-79.39274559 180.44622975 -83.94507667 182.23157084 -88.49700928 184.01794434 C-91.47852475 185.18775057 -94.46059645 186.35613318 -97.44273376 187.52435303 C-106.93484741 191.2433399 -116.42568006 194.96421962 -125.88671875 198.76171875 C-134.96554749 202.40221827 -144.07795557 205.95678111 -153.18887329 209.51602173 C-158.31131206 211.51721304 -163.432945 213.52046503 -168.5546875 215.5234375 C-169.55802628 215.91576065 -170.56136505 216.3080838 -171.59510803 216.71229553 C-182.5479672 220.99544384 -193.49528385 225.29257233 -204.43896484 229.59912109 C-207.83428015 230.93480731 -211.23006818 232.26928421 -214.6259613 233.60350037 C-217.70517962 234.81352801 -220.78406875 236.02439164 -223.86288452 237.23544312 C-225.35952942 237.82398547 -226.85629277 238.41222669 -228.35317993 239.00015259 C-230.42589987 239.81433841 -232.49816041 240.62968276 -234.5703125 241.4453125 C-235.76414551 241.91469238 -236.95797852 242.38407227 -238.18798828 242.86767578 C-240.89380424 243.91325624 -240.89380424 243.91325624 -243 245 C-243 265.46 -243 285.92 -243 307 C-238.38 308.65 -233.76 310.3 -229 312 C-223.0625 314.4375 -223.0625 314.4375 -220.11328125 315.6875 C-211.11313824 319.48178865 -202.01848566 323.01243458 -192.86254883 326.41137695 C-186.18951202 328.90294556 -179.56420826 331.51313001 -172.9375 334.125 C-162.49194851 338.24183482 -152.03424717 342.3252763 -141.5625 346.375 C-140.60583939 346.74507172 -140.60583939 346.74507172 -139.62985229 347.12261963 C-132.05169662 350.05362299 -124.46963407 352.97413066 -116.88110352 355.87817383 C-113.23806047 357.29667928 -109.6274024 358.78615813 -106.0234375 360.30078125 C-103.88422732 361.16330458 -103.88422732 361.16330458 -101 361 C-102.51535169 365.5583417 -104.03672781 370.11445467 -105.578125 374.6640625 C-110.40983494 388.97191674 -114.90452296 403.37253514 -119.12988281 417.87109375 C-122.33604299 428.86258603 -125.73321592 439.78530779 -129.19775391 450.69775391 C-131.94086524 459.34614767 -134.61190434 468.00789352 -137.1505127 476.71862793 C-139.13286605 483.50176659 -141.23797563 490.24390494 -143.36401367 496.9831543 C-146.53598852 507.04215015 -149.65222481 517.10949951 -152.58203125 527.2421875 C-155.10549001 535.8223425 -157.8399089 544.34184387 -160.5234375 552.87304688 C-160.73692337 553.55269501 -160.95040924 554.23234314 -161.17036438 554.93258667 C-161.75750298 556.80119054 -162.34587498 558.66940673 -162.93432617 560.53759766 C-163.28599854 561.68019043 -163.6376709 562.8227832 -164 564 C-164.37552002 565.19802246 -164.75104004 566.39604492 -165.13793945 567.63037109 C-166.20654175 571.22763985 -166.20654175 571.22763985 -166 576 C-138.61 576 -111.22 576 -83 576 C-80.97162241 571.26711895 -79.28817166 566.99201358 -77.8359375 562.1171875 C-77.64269394 561.4734166 -77.44945038 560.82964569 -77.25035095 560.16636658 C-76.83667065 558.78694093 -76.42478378 557.40697636 -76.01455688 556.02651978 C-74.91541243 552.32891117 -73.8022106 548.6355252 -72.69140625 544.94140625 C-72.46597641 544.19032089 -72.24054657 543.43923553 -72.00828552 542.66539001 C-69.81632019 535.3685661 -67.57359989 528.0881952 -65.3125 520.8125 C-64.94261963 519.62124512 -64.57273926 518.42999023 -64.19165039 517.20263672 C-62.22002876 510.86907076 -60.21937543 504.54572537 -58.18994141 498.23046875 C-55.39567265 489.53511489 -52.73271707 480.82094017 -50.30395508 472.015625 C-49.85060776 470.38771917 -49.37297909 468.76646114 -48.87670898 467.15112305 C-48.1564754 464.56241381 -47.60871797 462.03792049 -47.09399414 459.40551758 C-44.12449315 445.91203399 -44.12449315 445.91203399 -38.45336914 442.25952148 C-34.0088726 439.98846585 -29.31667083 438.53573918 -24.5625 437.0625 C-22.83061369 436.46305375 -21.10137551 435.85590652 -19.37475586 435.24145508 C-15.89213173 434.01110987 -12.40035963 432.81780388 -8.89453125 431.65527344 C-2.18427614 429.41386364 4.3635494 426.79967768 10.9375 424.1875 C13.43754924 423.21791308 15.93849966 422.25119715 18.44140625 421.2890625 C19.09532852 421.03731262 19.74925079 420.78556274 20.42298889 420.52618408 C26.35032071 418.24584497 32.2825383 415.97829916 38.21484375 413.7109375 C42.26826059 412.16154053 46.32164724 410.61206461 50.375 409.0625 C51.39447723 408.67283051 52.41395447 408.28316101 53.46432495 407.88168335 C65.83525156 403.15144655 78.18827495 398.38226284 90.5 393.5 C103.83657104 388.21133047 117.22376196 383.05995582 130.625 377.9375 C131.62968323 377.55336945 132.63436646 377.16923889 133.66949463 376.77346802 C137.63737665 375.25639801 141.60531745 373.73948185 145.57333374 372.22276306 C153.83746817 369.06344632 162.0999622 365.89995902 170.35467529 362.71609497 C171.69124857 362.20100488 173.02819814 361.68689007 174.36553955 361.17379761 C176.16914196 360.48166813 177.97133725 359.78587506 179.7734375 359.08984375 C180.76778809 358.70691162 181.76213867 358.32397949 182.78662109 357.92944336 C184.93440525 357.19165728 184.93440525 357.19165728 186 356 C186.09391296 354.09756238 186.11743658 352.19161541 186.11352539 350.28686523 C186.11341209 348.45507973 186.11341209 348.45507973 186.11329651 346.58628845 C186.10818911 345.24372314 186.10297311 343.90115825 186.09765625 342.55859375 C186.09579199 341.19238842 186.09436813 339.82618243 186.09336853 338.4599762 C186.08954394 334.85798305 186.07971417 331.25603 186.06866455 327.65405273 C186.05844916 323.98096255 186.05387064 320.30786591 186.04882812 316.63476562 C186.03809184 309.42315877 186.02101614 302.211585 186 295 C178.64073036 291.912358 171.26400758 288.88118876 163.83984375 285.953125 C162.90934708 285.58509262 161.9788504 285.21706024 161.02015686 284.83787537 C157.99301993 283.64086303 154.96527154 282.44540611 151.9375 281.25 C149.78576976 280.3995904 147.6340777 279.5490842 145.48242188 278.69848633 C141.09119162 276.96268781 136.69972935 275.22747815 132.30810547 273.49267578 C126.62235723 271.24637575 120.93787792 268.99688466 115.25390625 266.74609375 C105.55492952 262.90594042 95.85343357 259.07219705 86.15008545 255.24310303 C83.92497691 254.36501918 81.69992543 253.48679075 79.47491455 252.60845947 C72.42277919 249.82470228 65.36978431 247.04314215 58.31519508 244.26560879 C55.13405083 243.01310651 51.95321994 241.7598237 48.77319336 240.50448608 C45.22602612 239.10478626 41.67762779 237.70825358 38.12890625 236.3125 C37.06120499 235.89043777 35.99350372 235.46837555 34.89344788 235.03352356 C33.90968674 234.6473436 32.9259256 234.26116364 31.91235352 233.86328125 C31.05609879 233.52594971 30.19984406 233.18861816 29.31764221 232.84106445 C27.22372035 232.08118735 25.17053216 231.49173506 23 231 C24.20634804 227.20769888 25.41515132 223.41618574 26.625 219.625 C26.98964355 218.48192383 27.35428711 217.33884766 27.72998047 216.16113281 C29.80632394 209.67085269 31.93125205 203.20137041 34.125 196.75 C36.52549813 189.65696184 38.60038979 182.49621454 40.61645508 175.28564453 C42.5267274 168.51191553 44.63405271 161.81681964 46.8125 155.125 C49.92554372 145.55327216 52.79487258 135.92566545 55.5625 126.25 C58.34043937 116.53947522 61.2778385 106.91421513 64.54931641 97.35742188 C66.82119813 90.67495144 68.77223867 83.92935202 70.66748047 77.13183594 C72.55791444 70.40836967 74.65081412 63.76574547 76.8125 57.125 C80.03823945 47.1965583 83.03826459 37.21500329 85.9375 27.1875 C86.23353622 26.16453827 86.23353622 26.16453827 86.53555298 25.12091064 C88.86561603 17.08700761 88.86561603 17.08700761 91 9 C62.95 9 34.9 9 6 9 Z " fill="#040937" transform="translate(371,2)"/>
<path d="M0 0 C6.40656832 5.32833869 11.01131761 11.52744311 11.8515625 20.0859375 C12.12518523 28.91553262 10.84693749 35.28438484 5.0390625 42.109375 C-1.7527536 48.56320973 -9.76194283 50.38459472 -18.796875 51.23828125 C-31.27184832 52.44363895 -42.12551029 56.8800657 -50.390625 66.62109375 C-57.51994056 76.25775334 -60.56351467 85.71330811 -60.57958984 97.62011719 C-60.58467056 98.44519775 -60.58975128 99.27027832 -60.59498596 100.12036133 C-60.60566175 101.90729472 -60.6142928 103.69424125 -60.62110519 105.48119354 C-60.63293858 108.31535206 -60.65240347 111.14936123 -60.67422485 113.98345947 C-60.73568672 122.04002877 -60.78981777 130.09658196 -60.82324219 138.15332031 C-60.84425766 143.08699944 -60.87961531 148.0204043 -60.92399979 152.95392609 C-60.93810464 154.82764699 -60.94686969 156.7014164 -60.95005417 158.57518768 C-60.95499629 161.20503688 -60.97823829 163.83416588 -61.00537109 166.46386719 C-61.00236496 167.22781799 -60.99935883 167.9917688 -60.9962616 168.77886963 C-61.12544758 177.26585523 -63.50122976 184.4255369 -69.4375 190.5703125 C-76.47762104 196.70963065 -84.31100964 197.14061576 -93.3125 196.7421875 C-99.77754507 196.21228997 -104.65608816 194.07247789 -109.25 189.46875 C-115.00044858 182.39234847 -116.87710709 175.1057545 -116.81005859 166.18530273 C-116.81531555 165.31090042 -116.82057251 164.43649811 -116.82598877 163.53559875 C-116.83911756 160.66417197 -116.83047056 157.79330681 -116.8203125 154.921875 C-116.82233655 152.90657954 -116.82525074 150.89128479 -116.82901001 148.87599182 C-116.83342484 144.6554567 -116.8270341 140.43511247 -116.81298828 136.21459961 C-116.79597413 130.8443053 -116.80569358 125.47446345 -116.82370567 120.10418606 C-116.8346323 115.94048255 -116.8310555 111.77688328 -116.8233223 107.61317635 C-116.8213407 105.63552864 -116.82370658 103.65787103 -116.83076096 101.68023491 C-116.90997882 73.21121462 -109.7194231 47.89472653 -89.3828125 27.23046875 C-88.39723722 26.25248943 -87.41033822 25.27584158 -86.421875 24.30078125 C-85.60976562 23.47835938 -84.79765625 22.6559375 -83.9609375 21.80859375 C-66.51450724 5.05770224 -22.99416506 -16.13300291 0 0 Z " fill="#F3FCFE" transform="translate(1425.421875,240.69921875)"/>
<path d="M0 0 C6.42379185 5.55129041 10.53905195 11.69781758 11.28439331 20.27131271 C11.40480344 24.35986714 11.42897538 28.4389472 11.41992188 32.52880859 C11.42727006 34.09995626 11.43585846 35.67109854 11.44558716 37.24223328 C11.46773296 41.49234359 11.47073734 45.74225963 11.46883965 49.99241972 C11.46871962 53.54840063 11.47729661 57.10434085 11.48561716 60.66031039 C11.50482623 69.05384153 11.50774414 77.44727322 11.50097656 85.84082031 C11.49433724 94.48194183 11.51720139 103.12263634 11.55429029 111.76367128 C11.58503961 119.19919641 11.59634167 126.63458455 11.59245348 134.07017195 C11.59039141 138.50380495 11.59578106 142.93710552 11.62034607 147.37067795 C11.64269755 151.54222722 11.64066634 155.71308468 11.62041855 159.88463783 C11.61702329 161.40915406 11.62203322 162.93371764 11.63640213 164.45816994 C11.72133205 174.14242063 11.04137222 182.40383554 4.29122162 189.89682579 C-1.63323333 195.58837153 -7.80284072 197.16766842 -15.875 197.5 C-24.19918655 197.29501468 -30.54004703 194.89864548 -36.375 188.875 C-43.1452544 179.65236163 -43.58450857 169.66121883 -43.51757812 158.58959961 C-43.5230098 157.06726923 -43.53013828 155.54494411 -43.53881836 154.02262878 C-43.55692916 149.91930066 -43.55003579 145.81637842 -43.53730202 141.71304393 C-43.52711222 137.40158614 -43.53658402 133.09016106 -43.54284668 128.77870178 C-43.550105 121.54210222 -43.54058243 114.30566644 -43.52148438 107.0690918 C-43.49971084 98.72275677 -43.50677772 90.37681259 -43.52879 82.030487 C-43.54698609 74.84117491 -43.54948206 67.65197996 -43.53903532 60.46265227 C-43.53282451 56.17891862 -43.53189802 51.89536826 -43.54518127 47.61164665 C-43.55680105 43.58373804 -43.54860343 39.5563298 -43.52560425 35.52847481 C-43.52035 34.05718437 -43.52177415 32.58585126 -43.53065491 31.11457825 C-43.58714346 20.7991373 -42.89575887 12.02961884 -35.75 4.125 C-25.76057679 -4.98363536 -11.7662722 -7.15957509 0 0 Z " fill="#F3FCFE" transform="translate(1693,241)"/>
<path d="M0 0 C5.71593526 4.43477736 9.71234114 10.6513282 11.125 17.78125 C11.22081598 19.93410736 11.25990831 22.08970852 11.26544189 24.24468994 C11.26841302 24.89174794 11.27138414 25.53880594 11.2744453 26.20547175 C11.28311051 28.37169484 11.2846387 30.53786252 11.28613281 32.70410156 C11.29076256 34.25819517 11.29578743 35.81228763 11.30117798 37.36637878 C11.31428958 41.5876184 11.32074461 45.80884212 11.32518864 50.03009892 C11.32812158 52.66879807 11.33222683 55.3074929 11.33669281 57.94618988 C11.35036495 66.20618203 11.36003279 74.46616428 11.3638947 82.72616696 C11.36837382 92.25335473 11.3859161 101.78039892 11.4148953 111.30754304 C11.4365304 118.67669284 11.44659997 126.0458023 11.44793582 133.41498351 C11.44898261 137.8138848 11.45486343 142.21265107 11.47275543 146.61151886 C11.4892676 150.7516617 11.49137642 154.89156847 11.48261642 159.03173256 C11.48184771 160.54741105 11.48616688 162.0631024 11.49607468 163.5787487 C11.55968069 173.91910572 11.15027265 182.27576395 3.875 190.2421875 C-2.83007744 196.13906365 -10.5837551 197.20628861 -19.2265625 197.1171875 C-27.48708395 196.35658274 -33.02246165 192.31483143 -38.40234375 186.234375 C-43.46720052 177.79742526 -43.31108343 168.95032492 -43.27905273 159.3984375 C-43.2847636 157.85507719 -43.29173062 156.3117211 -43.29985046 154.76837158 C-43.31771609 150.59895024 -43.31662622 146.4297401 -43.31090808 142.26029205 C-43.30780723 138.77127266 -43.31391848 135.28229332 -43.31994683 131.79327965 C-43.33396822 123.55941784 -43.33245014 115.32565985 -43.32104492 107.09179688 C-43.30956053 98.61371318 -43.32365013 90.13594571 -43.3504414 81.65790367 C-43.37262987 74.36165333 -43.37922886 67.06550202 -43.37336498 59.76922035 C-43.37000239 55.41896611 -43.37236415 51.06891464 -43.38961601 46.71868896 C-43.4051339 42.62763314 -43.40107639 38.53704447 -43.38231087 34.44600677 C-43.37863861 32.95010209 -43.3816935 31.45416241 -43.39219666 29.9582901 C-43.45245196 20.66269374 -42.80720576 13.2208013 -37.234375 5.51171875 C-26.91983264 -4.37722356 -12.64303259 -8.21797118 0 0 Z " fill="#F3FCFE" transform="translate(660.875,241.21875)"/>
<path d="M0 0 C5.99476137 1.67912235 11.88155782 3.6255486 17.74609375 5.7109375 C18.48564301 5.97297974 19.22519226 6.23502197 19.9871521 6.50500488 C28.37456527 9.48063181 36.75022449 12.48903403 45.125 15.5 C46.79628755 16.10047269 48.46759328 16.70089478 50.13891602 17.30126953 C53.62571987 18.55384501 57.11244541 19.80663812 60.59912109 21.05957031 C68.83626172 24.01932083 77.07452256 26.97595115 85.31268311 29.93286133 C89.48844463 31.43168832 93.6641426 32.93069232 97.83984375 34.4296875 C99.23950164 34.93212978 100.63915981 35.43457129 102.03881836 35.93701172 C103.0160083 36.28779785 103.99319824 36.63858398 105 37 C103.4799728 40.0400544 100.93280002 40.21971072 97.87036133 41.25732422 C96.94376709 41.56428223 96.01717285 41.87124023 95.0625 42.1875 C92.96282479 42.90023536 90.86393234 43.61527886 88.765625 44.33203125 C87.55841797 44.74404785 86.35121094 45.15606445 85.10742188 45.58056641 C76.81467458 48.43244128 68.56827275 51.41828394 60.3125 54.375 C58.45958233 55.03792087 56.60663633 55.7007626 54.75366211 56.36352539 C51.14211461 57.65537649 47.53072739 58.94767427 43.91943359 60.24023438 C39.72468945 61.74125871 35.52873386 63.23883518 31.33203125 64.734375 C12.53442187 71.43355863 -6.234338 78.21194302 -25 85 C-26.2309966 81.30701019 -25.61981441 80.04956436 -24.4453125 76.3828125 C-23.90076416 74.65816772 -23.90076416 74.65816772 -23.34521484 72.89868164 C-22.94254395 71.6533667 -22.53987305 70.40805176 -22.125 69.125 C-21.71083185 67.82247625 -21.29759722 66.51965533 -20.88525391 65.21655273 C-20.02536867 62.50145609 -19.16143758 59.78769441 -18.29492188 57.07470703 C-16.2794711 50.7503939 -14.33259346 44.40491582 -12.375 38.0625 C-9.6077881 29.1380909 -6.8228474 20.21947817 -4 11.3125 C-3.70915527 10.39154541 -3.41831055 9.47059082 -3.11865234 8.52172852 C-2.71960693 7.26767212 -2.71960693 7.26767212 -2.3125 5.98828125 C-2.08175781 5.26165283 -1.85101563 4.53502441 -1.61328125 3.78637695 C-1 2 -1 2 0 0 Z " fill="#000000" transform="translate(377,289)"/>
<path d="M0 0 C-0.97618282 7.64115514 -3.11581385 14.64987615 -5.61791992 21.89453125 C-7.42962975 27.17764056 -9.0044632 32.47782513 -10.4375 37.875 C-13.08195891 47.77298935 -16.51276778 57.37242517 -20 67 C-27.57957702 65.52574823 -34.62844474 63.14315272 -41.875 60.5 C-43.70417969 59.84004028 -43.70417969 59.84004028 -45.5703125 59.16674805 C-55.18705214 55.69222439 -64.77238509 52.13238741 -74.35424805 48.56298828 C-84.18987297 44.90664927 -94.07879919 41.41642263 -104 38 C-104 37.34 -104 36.68 -104 36 C-103.09910645 35.68474365 -102.19821289 35.3694873 -101.27001953 35.04467773 C-82.51509738 28.47903098 -63.77586657 21.8707396 -45.0625 15.1875 C-44.17192902 14.86964539 -43.28135803 14.55179077 -42.36380005 14.2243042 C-34.08621334 11.26905712 -25.81099403 8.30908583 -17.5625 5.2734375 C-16.0000354 4.69879761 -16.0000354 4.69879761 -14.40600586 4.11254883 C-12.58476504 3.44000167 -10.76510418 2.76315087 -8.94750977 2.08081055 C-3.32547342 0 -3.32547342 0 0 0 Z " fill="#050B3B" transform="translate(307,240)"/>
<path d="M0 0 C5.99476137 1.67912235 11.88155782 3.6255486 17.74609375 5.7109375 C18.48564301 5.97297974 19.22519226 6.23502197 19.9871521 6.50500488 C28.37456527 9.48063181 36.75022449 12.48903403 45.125 15.5 C46.79628755 16.10047269 48.46759328 16.70089478 50.13891602 17.30126953 C53.62571987 18.55384501 57.11244541 19.80663812 60.59912109 21.05957031 C68.83626172 24.01932083 77.07452256 26.97595115 85.31268311 29.93286133 C89.48844463 31.43168832 93.6641426 32.93069232 97.83984375 34.4296875 C99.23950164 34.93212978 100.63915981 35.43457129 102.03881836 35.93701172 C103.0160083 36.28779785 103.99319824 36.63858398 105 37 C103.4799728 40.0400544 100.93280002 40.21971072 97.87036133 41.25732422 C96.94376709 41.56428223 96.01717285 41.87124023 95.0625 42.1875 C92.96282479 42.90023536 90.86393234 43.61527886 88.765625 44.33203125 C87.55841797 44.74404785 86.35121094 45.15606445 85.10742188 45.58056641 C76.81467458 48.43244128 68.56827275 51.41828394 60.3125 54.375 C58.45958233 55.03792087 56.60663633 55.7007626 54.75366211 56.36352539 C51.14211461 57.65537649 47.53072739 58.94767427 43.91943359 60.24023438 C39.72468945 61.74125871 35.52873386 63.23883518 31.33203125 64.734375 C12.53442187 71.43355863 -6.234338 78.21194302 -25 85 C-26.2309966 81.30701019 -25.61981441 80.04956436 -24.4453125 76.3828125 C-23.90076416 74.65816772 -23.90076416 74.65816772 -23.34521484 72.89868164 C-22.94254395 71.6533667 -22.53987305 70.40805176 -22.125 69.125 C-21.71083185 67.82247625 -21.29759722 66.51965533 -20.88525391 65.21655273 C-20.02536867 62.50145609 -19.16143758 59.78769441 -18.29492188 57.07470703 C-16.2794711 50.7503939 -14.33259346 44.40491582 -12.375 38.0625 C-9.6077881 29.1380909 -6.8228474 20.21947817 -4 11.3125 C-3.70915527 10.39154541 -3.41831055 9.47059082 -3.11865234 8.52172852 C-2.71960693 7.26767212 -2.71960693 7.26767212 -2.3125 5.98828125 C-2.08175781 5.26165283 -1.85101563 4.53502441 -1.61328125 3.78637695 C-1 2 -1 2 0 0 Z M5 11 C2.64976697 18.52668637 0.30257084 26.05431002 -2.04072571 33.58315849 C-3.12884077 37.07885815 -4.21800948 40.57422228 -5.30957031 44.06884766 C-6.36242644 47.43969528 -7.41253544 50.81138724 -8.46072388 54.18368912 C-9.05710495 56.09985328 -9.65634726 58.01512614 -10.25561523 59.9303894 C-10.61598877 61.09144196 -10.9763623 62.25249451 -11.34765625 63.44873047 C-11.66742432 64.47465302 -11.98719238 65.50057556 -12.31665039 66.55758667 C-13.08981252 68.89830467 -13.08981252 68.89830467 -13 71 C-5.44363199 68.83115516 1.95147704 66.30833946 9.34765625 63.6484375 C10.51719345 63.23010651 11.68673065 62.81177551 12.89170837 62.38076782 C16.61616582 61.04789988 20.33934219 59.71149337 24.0625 58.375 C26.50317308 57.50107268 28.94392768 56.62737299 31.38476562 55.75390625 C36.20985139 54.02686168 41.03337072 52.29553404 45.85595703 50.56152344 C50.6697206 48.83184888 55.4887236 47.11796613 60.31201172 45.41503906 C61.46938339 45.00428131 62.62675507 44.59352356 63.81919861 44.1703186 C66.01368846 43.39166879 68.2097218 42.61735139 70.40748596 41.84799194 C71.37959518 41.50192902 72.35170441 41.15586609 73.35327148 40.79931641 C74.20598129 40.4987735 75.0586911 40.19823059 75.9372406 39.88858032 C78.16824876 39.07819443 78.16824876 39.07819443 80 37 C79.40325974 36.79003891 78.80651947 36.58007782 78.19169617 36.36375427 C71.87859346 34.14219925 65.56618739 31.91867292 59.25415039 29.6940918 C56.91057203 28.86840915 54.56682701 28.04319937 52.22290039 27.21850586 C48.81871319 26.02066887 45.41504206 24.82138296 42.01171875 23.62109375 C40.89973114 23.22900726 39.78774353 22.83692078 38.64205933 22.43295288 C31.01044197 19.73341492 23.40492531 16.96976043 15.83683777 14.09654236 C12.23579911 12.74535658 8.77743949 11.69763419 5 11 Z " fill="#040937" transform="translate(377,289)"/>
<path d="M0 0 C6.34377304 4.41732746 10.78839931 9.49890273 13 17 C14.33631618 27.40671007 12.56861543 34.69805708 6.8125 43.25 C1.31814898 48.62225433 -4.57867145 51.73138983 -12.32421875 52.12890625 C-21.13270512 51.70455581 -28.67907663 49.25985164 -35 43 C-41.07709626 35.48359146 -41.77399727 27.35038634 -41 18 C-39.63278671 10.77862797 -35.02140053 4.91320665 -29.12890625 0.64453125 C-20.59438122 -4.43947614 -8.5982725 -5.22640093 0 0 Z " fill="#F3FCFE" transform="translate(659,177)"/>
<path d="M0 0 C6.35938828 3.86975542 12.06436814 10.19310441 14.4375 17.3125 C15.19317244 26.82317744 15.46373814 35.36331653 9.4375 43.3125 C3.851011 49.40567056 -2.50178695 52.78504742 -10.78125 53.37109375 C-18.55776923 53.20726259 -25.86012108 51.14602385 -31.875 46.12109375 C-38.14360941 39.40265357 -39.9065148 31.88969635 -39.7734375 22.93359375 C-39.16692266 15.39708532 -36.30312706 9.27536469 -30.5625 4.3125 C-21.61902709 -1.58866332 -10.27882716 -4.88342746 0 0 Z " fill="#F3FCFE" transform="translate(1689.5625,175.6875)"/>
<path d="M0 0 C-0.53741821 1.69527832 -0.53741821 1.69527832 -1.08569336 3.42480469 C-2.41568742 7.62135965 -3.74409309 11.81841598 -5.07202148 16.015625 C-5.64678383 17.83151731 -6.22197581 19.64727369 -6.79760742 21.46289062 C-7.62531947 24.07386151 -8.45148104 26.68531865 -9.27734375 29.296875 C-9.53466782 30.10743347 -9.79199188 30.91799194 -10.05711365 31.75311279 C-10.29728714 32.51359924 -10.53746063 33.27408569 -10.78491211 34.05761719 C-11.10134926 35.0568924 -11.10134926 35.0568924 -11.42417908 36.07635498 C-12.01150897 38.03844803 -12.51865638 40.00950185 -13 42 C-19.54453311 40.67147873 -25.68453564 38.85972176 -31.9609375 36.59375 C-32.87332184 36.26838257 -33.78570618 35.94301514 -34.72573853 35.60778809 C-36.63759051 34.92456098 -38.5485007 34.2386932 -40.45849609 33.55029297 C-43.38515768 32.49634201 -46.31534791 31.4526889 -49.24609375 30.41015625 C-51.10959207 29.74279333 -52.97288098 29.07484531 -54.8359375 28.40625 C-55.71091888 28.09473999 -56.58590027 27.78322998 -57.48739624 27.46228027 C-58.298992 27.16857544 -59.11058777 26.87487061 -59.94677734 26.57226562 C-60.65909515 26.31626587 -61.37141296 26.06026611 -62.10531616 25.79650879 C-64 25 -64 25 -67 23 C-58.85100479 19.52436925 -50.6392351 16.32178969 -42.3046875 13.3203125 C-41.15001984 12.90329071 -39.99535217 12.48626892 -38.80569458 12.05661011 C-36.3912408 11.18615175 -33.9761842 10.31736378 -31.56054688 9.45019531 C-27.84744349 8.11509163 -24.13858539 6.76861052 -20.4296875 5.421875 C-18.07577212 4.57482219 -15.72161416 3.72844313 -13.3671875 2.8828125 C-12.25584442 2.47773468 -11.14450134 2.07265686 -9.9994812 1.65530396 C-8.97726471 1.2909726 -7.95504822 0.92664124 -6.90185547 0.55126953 C-6.00095184 0.22659698 -5.10004822 -0.09807556 -4.17184448 -0.43258667 C-2 -1 -2 -1 0 0 Z " fill="#000000" transform="translate(295,254)"/>
<path d="M0 0 C4.07166495 2.90833211 7.01178079 6.03534238 8.625 10.875 C9.15922104 16.84389281 9.15806722 21.81093698 5.625 26.875 C1.36792089 31.03747736 -2.44196476 33.8183076 -8.54296875 33.90625 C-13.80817224 33.55347255 -17.28575765 32.3936504 -21.375 28.875 C-25.45702469 23.46907541 -26.82691442 19.65371634 -26.375 12.875 C-24.48085781 7.09288173 -21.80978803 2.97853185 -16.55078125 -0.2421875 C-11.35271002 -2.35127924 -5.21214498 -1.73738166 0 0 Z " fill="#FEFEFE" transform="translate(1986.375,403.125)"/>
<path d="M0 0 C3.3 0 6.6 0 10 0 C12.64 4.62 15.28 9.24 18 14 C20.64 9.38 23.28 4.76 26 0 C29.3 0 32.6 0 36 0 C36 11.55 36 23.1 36 35 C33.03 35 30.06 35 27 35 C26.67 30.05 26.34 25.1 26 20 C23.03 25.445 23.03 25.445 20 31 C16 30 16 30 14.296875 27.49609375 C12.1484375 23.24804688 12.1484375 23.24804688 10 19 C9.67 24.28 9.34 29.56 9 35 C6.03 35 3.06 35 0 35 C0 23.45 0 11.9 0 0 Z " fill="#F3FCFE" transform="translate(1959,155)"/>
<path d="M0 0 C10.23 0 20.46 0 31 0 C31 2.97 31 5.94 31 9 C27.37 9 23.74 9 20 9 C20 17.58 20 26.16 20 35 C17.03 35 14.06 35 11 35 C11 26.42 11 17.84 11 9 C7.37 9 3.74 9 0 9 C0 6.03 0 3.06 0 0 Z " fill="#F3FCFF" transform="translate(1925,155)"/>
<path d="M0 0 C0.66 0 1.32 0 2 0 C2 0.66 2 1.32 2 2 C1.34 2 0.68 2 0 2 C0 1.34 0 0.68 0 0 Z " fill="#000000" transform="translate(1356,540)"/>
</svg>
