<svg width="42" height="42" viewBox="0 0 42 42" fill="none" xmlns="http://www.w3.org/2000/svg">
<path d="M0 7.49414V29.9722H27.6361C27.5762 29.6725 27.5087 29.5151 27.4787 29.4552C27.0515 29.0206 26.9166 28.3538 27.1714 27.7843C27.4188 27.2299 27.9585 26.8927 28.5356 26.8927C28.663 26.8927 28.7905 26.9077 28.9104 26.9377C29.0903 26.9826 30.0047 27.2524 31.0616 28.1365C31.1591 25.5515 32.4708 21.7228 35.3491 20.434C35.544 20.3441 35.7538 20.2991 35.9637 20.2991C36.301 20.2991 36.6308 20.419 36.9082 20.6363C37.3429 20.9885 37.5453 21.5579 37.4328 22.1124C37.0731 23.8282 37.1705 25.589 37.5003 25.8962C38.1075 26.4581 38.5947 27.0126 38.9769 27.5596V7.49414H0ZM19.4885 26.2259C15.3509 26.2259 11.9929 22.8691 11.9929 18.7332C11.9929 14.5972 15.3509 11.2405 19.4885 11.2405C23.626 11.2405 26.984 14.5972 26.984 18.7332C26.984 22.8691 23.626 26.2259 19.4885 26.2259Z" fill="#FBD278"/>
<path d="M0 31.4688V37.4629C0 38.2871 0.674601 38.9614 1.49911 38.9614H10.4938V31.4688H0ZM4.49734 35.9644C4.49734 36.3765 4.16004 36.7136 3.74778 36.7136C3.33553 36.7136 2.99823 36.3765 2.99823 35.9644V34.4658C2.99823 34.0537 3.33553 33.7166 3.74778 33.7166C4.16004 33.7166 4.49734 34.0537 4.49734 34.4658V35.9644ZM7.49556 35.9644C7.49556 36.3765 7.15826 36.7136 6.74601 36.7136C6.33375 36.7136 5.99645 36.3765 5.99645 35.9644V34.4658C5.99645 34.0537 6.33375 33.7166 6.74601 33.7166C7.15826 33.7166 7.49556 34.0537 7.49556 34.4658V35.9644Z" fill="#FFAD00"/>
<path d="M27.3366 35.9644H22.3895C22.3895 36.3765 22.0522 36.7136 21.64 36.7136C21.2277 36.7136 20.8904 36.3765 20.8904 35.9644H14.2418C13.8296 35.9644 13.4923 35.6272 13.4923 35.2151C13.4923 34.803 13.8296 34.4658 14.2418 34.4658H20.8904C20.8904 34.0537 21.2277 33.7166 21.64 33.7166C22.0522 33.7166 22.3895 34.0537 22.3895 34.4658H27.4865V34.4508C27.6814 33.1771 27.7563 32.203 27.7563 31.4688H11.9932V38.9614H27.7863C27.4565 38.1597 27.2841 37.2007 27.3366 35.9644Z" fill="#FFAD00"/>
<path d="M38.0848 41.5476C35.3714 42.4992 32.0059 41.9672 30.102 39.8093C29.0826 38.6479 28.543 37.4716 28.9702 34.6843C29.8097 29.2371 28.543 28.3904 28.543 28.3904C28.543 28.3904 30.949 29.0048 32.2908 32.5039C32.2908 32.5039 32.6131 30.7731 32.5606 28.5703C32.5081 26.3674 33.6624 22.8309 35.9636 21.7969C35.9636 21.7969 35.1241 25.753 36.4883 26.9968C38.4671 28.81 39.0517 30.7506 38.8943 32.3316C38.8943 32.3316 40.341 30.8555 40.386 28.8924C40.386 28.8924 45.1906 39.045 38.0773 41.5476H38.0848Z" fill="#FBD278"/>
<path d="M37.4778 0H1.49911C0.674601 0 0 0.674342 0 1.49854V5.99415H38.9769V1.49854C38.9769 0.674342 38.3023 0 37.4778 0ZM2.99823 3.74634C2.58597 3.74634 2.24867 3.40917 2.24867 2.99707C2.24867 2.58498 2.58597 2.24781 2.99823 2.24781C3.41048 2.24781 3.74778 2.58498 3.74778 2.99707C3.74778 3.40917 3.41048 3.74634 2.99823 3.74634ZM5.99645 3.74634C5.5842 3.74634 5.2469 3.40917 5.2469 2.99707C5.2469 2.58498 5.5842 2.24781 5.99645 2.24781C6.40871 2.24781 6.74601 2.58498 6.74601 2.99707C6.74601 3.40917 6.40871 3.74634 5.99645 3.74634ZM8.99468 3.74634C8.58242 3.74634 8.24512 3.40917 8.24512 2.99707C8.24512 2.58498 8.58242 2.24781 8.99468 2.24781C9.40693 2.24781 9.74423 2.58498 9.74423 2.99707C9.74423 3.40917 9.40693 3.74634 8.99468 3.74634Z" fill="#FFAD00"/>
<path d="M18.889 16.237L21.7898 17.9079C22.4194 18.275 22.4194 19.1816 21.7898 19.5488L18.889 21.2197C18.2594 21.5868 17.4648 21.1297 17.4648 20.403V17.0537C17.4648 16.3269 18.2519 15.8699 18.889 16.237Z" fill="#FFAD00"/>
</svg>
